<svg xmlns="http://www.w3.org/2000/svg" viewBox="0 0 43.07 74.57"><defs><style>.cls-1{fill:#38260f;}.cls-2{fill:#eeebe6;}.cls-3{fill:#fbfbf8;}.cls-4{fill:#58340d;}.cls-5{fill:#8e7140;}.cls-6{fill:#e5e0dd;}.cls-7{fill:#d4d0cb;}.cls-8{fill:#b5ada7;}.cls-9{fill:#a19993;}.cls-10{fill:#c6c0bb;}.cls-11{fill:#a2650b;}.cls-12{fill:#d9d9d8;}.cls-13{fill:#764106;}.cls-14{fill:#ccba44;}.cls-15{fill:#f5e871;}.cls-16{fill:#91520c;}.cls-17{fill:#ca860b;}.cls-18{fill:#be7509;}.cls-19{fill:#e09604;}.cls-20{fill:#d59006;}.cls-21{fill:#fccb28;}.cls-22{fill:#f1ae09;}.cls-23{fill:#e89c04;}.cls-24{fill:#e8a309;}.cls-25{fill:#fbbf11;}.cls-26{fill:#fcc515;}.cls-27{fill:#fdd31d;}.cls-28{fill:#fab90d;}.cls-29{fill:#f7b708;}</style></defs><g id="Layer_2" data-name="Layer 2"><g id="Layer_1-2" data-name="Layer 1"><path class="cls-1" d="M5.68,61.34l-.27-3.73-.13-1.73,0-.29,0-.16,0-.77-.42-5,0-.46.06-.16a1.81,1.81,0,0,1,.29.47c.19.72.3,1.45.51,2.15a10.19,10.19,0,0,1,.77,4.09,9.92,9.92,0,0,0,.08,2c.09,1,.16,2.09.34,3.11a17,17,0,0,0,.63,2.15l.3.16-.51.43.28.38-.8-.1-.34.8,2.46.68.17,0,.77.32-.57.16c-.22.06-.57.09-.62.23s.11.45.16.69.09.55.13.82l-.51,0-.8-.47-.13.19.68.54,1.78.81,2.37.49-.16.59-.46,0-1.56-.1-2.2-.52c-.2.2-.55.39-.56.6a3.26,3.26,0,0,0,.25,1.07l.72.5.07.31a2.48,2.48,0,0,1-1.84-2c-.26-1-.34-2.07-.5-3.11Z"/><path class="cls-2" d="M20.8.65,20.09.3a4.52,4.52,0,0,1,1-.27C24.55,0,28,0,31.45,0c2.63.06,5.25.29,7.87.45-.17.1-.35.29-.52.28C37.62.7,36.45.55,35.27.5c-2-.09-4-.12-6-.16-1.08,0-2.17,0-3.26,0C25.32.31,24.6.2,23.89.2c-.25,0-.49.22-.77.35l3.62.52,0,.11-1.24.26-.69.12v.15l1,.43c-.92,0-1.82,0-2.72-.07-.13,0-.27.17-.4.26l-.47-.11a1.21,1.21,0,0,0-1.76-.67L19.93,1c-.85.17-1.51.35-2.18.42a5.88,5.88,0,0,1-1.31-.13c0-.08-.09-.22-.14-.22a7.41,7.41,0,0,0-.8.07L15.2,1c0-.21,0-.58-.09-.58-.51,0-1,0-1.53,0V.5L15,1l-.78.15,0-.07,0,.07-1.91.77.08.29,3.07-.6.37.22,0,.29-2.21.13h-3l.17-.28c.65,0,1.31,0,1.7-.68L12.7,1h0L13,.68l-.74-.3v.88l-1.87.31-.16-.31.9-.6,0-.19C10.45.53,9.83.6,9.21.64,8.1.7,7,.77,5.88.79c-.68,0-1.36-.1-2-.15C6,.49,8.14.33,10.29.2,11.45.13,12.61.13,13.77.09c.48,0,1-.06,1.44-.07a16.9,16.9,0,0,0,2.85.05C18.65,0,19.32.4,20,.56a5.06,5.06,0,0,0,.68.09q0,.28-.09.54l1.89.27a.54.54,0,0,0-.34-.35ZM22.75.46l0-.29L21.17.35l0,.31ZM11.52.6a.14.14,0,0,0,0,.07l.05,0,0-.07Z"/><path class="cls-1" d="M37.64,59.35c-.22,3.1-.42,6.21-.66,9.32a3.62,3.62,0,0,1-2.15,3.13c.05-.16,0-.37.15-.46.87-.76.79-1.62-.17-2.09l1.3-.7a.56.56,0,0,1,0-.12l-.11.06-2.63.79-.32,0-.18.13h-.28c-.28,0-.55,0-.83,0-.72,0-1.44,0-2.15,0l.16-.48.79-.33.46,0,.16-.18.13-.06.25.26.54-.34c.15.07.31.23.45.21.7-.11,1.38-.26,2.08-.39l1.42-.54c-.26-.2-.45-.36-.64-.52l0-.07-.07,0c-.53.11-1,.23-1.58.32-.12,0-.26-.08-.39-.12.06-.15.08-.37.19-.44.27-.17.57-.27.38-.68V66l.31-.47c1.78-.49,1.81-.52,1.87-1.26h-.38L35.44,64l.47-.45.3,0L36,63.2h0c.73-.55,1.4-1.07,1.28-2.18A5.78,5.78,0,0,1,37.64,59.35Z"/><path class="cls-3" d="M25.47,1.44l1.24-.26,0-.11L23.12.55c.28-.13.52-.35.77-.35.71,0,1.43.11,2.15.12,1.09,0,2.18,0,3.26,0,2,0,4,.07,6,.16,1.18.05,2.35.2,3.53.27.17,0,.35-.18.52-.28a9.08,9.08,0,0,0,1.79.12c.87-.11,1.11.55,1.41,1a1.62,1.62,0,0,1-.38,2.25c-.14-.37-.28-.75-.39-1.08l.81-.77-.74-.17h0a1.93,1.93,0,0,0-.63-.37,4.75,4.75,0,0,0-1,.06l-2.73.31c-.64,0-1.28,0-1.92,0-.39,0-.79,0-1.18-.05-.21-1-1-.31-1.42-.47a3.5,3.5,0,0,0-.69-.36,5.16,5.16,0,0,0-.88,0c-.2,0-.48-.14-.6-.05-.79.6-1.67.21-2.51.29l-2.16.31-.33-.15Z"/><path class="cls-4" d="M37.64,59.35A5.78,5.78,0,0,0,37.33,61c.12,1.11-.55,1.63-1.28,2.18.16-.87.31-1.74.5-2.61.11-.53.33-1,.4-1.58.08-.74,0-1.49.09-2.23a24.53,24.53,0,0,0,.21-3.61,9.75,9.75,0,0,1,.19-3.73,11,11,0,0,0,.3-1.43,21.71,21.71,0,0,1,.52-3.34A28.49,28.49,0,0,0,39,39.09v-.31h.1l.21.15-.6,8.41,0,.93-.11,1.09,0,.31-.08.94-.1,1.08c-.08.93-.16,1.87-.26,2.79a3,3,0,0,1-.22.64v.62c-.09,1.21-.18,2.41-.26,3.61Z"/><path class="cls-4" d="M7.42,63.05a17,17,0,0,1-.63-2.15c-.18-1-.25-2.07-.34-3.11a9.92,9.92,0,0,1-.08-2,10.19,10.19,0,0,0-.77-4.09c-.21-.7-.32-1.43-.51-2.15a1.81,1.81,0,0,0-.29-.47l-.22-1.41v-.3l-.1-1.25,0-.31-.1-2.49c.14.08.37.14.4.26.22,1,.36,1.93.6,2.89.3,1.26.62,2.53,1,3.76A11.46,11.46,0,0,1,7,54.48a34.12,34.12,0,0,0,.27,3.75C7.33,59.83,7.37,61.44,7.42,63.05Z"/><path class="cls-5" d="M1.65,10l0-.28c.63-.23,1.26-.47,1.85.09l-.65.51H2.76l0,.15v.29l-.17.62-.28,1h0l-.62,3.9c-.06.82-.13,1.64-.17,2.46-.07,1.88.73,3.55,1.29,5.27.11.33.17.67.25,1a5,5,0,0,1,.18.5l.48,2.61v1.37l.16,3.89v.93l-.13,1-.16-.47,0-.62V34l-.06-.77c-.13-1.56-.25-3.12-.38-4.68l0-.31a34.31,34.31,0,0,0-.68-3.64C1.6,22,.73,19.42,1,16.67c.14-1.35.38-2.7.58-4.05v-.76l0-1.1V10Z"/><path class="cls-6" d="M10.85,1.92l-.17.28,1,.44c-2.25-.09-4.49-.18-6.73-.25-.2,0-.4.18-.6.27l-.16.16L2.89,2.2l-.58,0-.18.66L2,3.45l.15,3C2,7,2.43,7.75,1.58,8.11c-.07-.09-.21-.18-.21-.28-.07-1.25-.13-2.51-.18-3.76L1.39,4l-.2-.08h0V2.83A1.22,1.22,0,0,0,2,1.58l1.55.14c.51.05,1,.14,1.53.14.21,0,.43.14.71-.21s1-.26,1.49-.27a11,11,0,0,1,1.39.19h.61l.5.17Z"/><path class="cls-2" d="M1.59,12.62c-.2,1.35-.44,2.7-.58,4.05-.28,2.75.59,5.3,1.35,7.88A34.31,34.31,0,0,1,3,28.19c-.66,0-1-.26-.92-.92a2.56,2.56,0,0,0-.55-2c-.08-.1-.2-.26-.17-.33.54-1.24-.24-2.4-.23-3.6,0-.23-.22-.47-.43-.89l-.34.8c-.18-.26-.28-.33-.27-.38.14-.66.31-1.32.42-2C.6,18.5.69,18,.5,17.8c-.78-.74-.45-1.64-.31-2.38a11.23,11.23,0,0,1,1.09-2.6C1.32,12.73,1.48,12.69,1.59,12.62Z"/><path class="cls-2" d="M38.73,47.34l.6-8.41.09-.47,0-.76c.17-2,.32-3.9.51-5.84.16-1.7.35-3.39.52-5.08a2.48,2.48,0,0,1,.21.82c-.12,1.55-.28,3.1-.42,4.65-.25,2.58-.54,5.16-.72,7.74a15,15,0,0,0,.31,2.36,2.31,2.31,0,0,1-.13.77c-.18.84-.77,1.61-.32,2.55A1.5,1.5,0,0,1,38.73,47.34Z"/><path class="cls-7" d="M37.46,1.89l2.73-.31a4.75,4.75,0,0,1,1-.06,1.93,1.93,0,0,1,.63.37l-.05,0a.07.07,0,0,0,0,.05l.07-.07.74.17-.81.77c.11.33.25.71.39,1.08v.78c0,.16,0,.31,0,.47s0,.41,0,.61S42,6,42,6.09c0,.42,0,.83,0,1.24-.06.84-.12,1.67-.17,2.5h-.28l-.07-.31,0-.46,0-1.22L41.52,7c.09-1.07.18-2.14.26-3.21,0,0-.05-.09-.17-.29A5.67,5.67,0,0,0,39.73,4c-.63.41-1,.06-1.49-.1l.24-.22-.54-.41c.78-.1,1.57-.24,2.35-.28,1.07-.06,1.07,0,.91-1.07l-4.06.41Z"/><path class="cls-8" d="M1.58,8.11C2.43,7.75,2,7,2.11,6.4c1-.11.81,1.08,1.51,1.28-.2,1,.48.28.7.43a3.57,3.57,0,0,0,.83.63c.07,0,.2,0,.23.09a1.11,1.11,0,0,0,1.26.69h.3l-.14.38-1.86-.1-.55.13L4,9.94l-.32-.13a.22.22,0,0,0-.14,0C3,9.23,2.32,9.47,1.69,9.7,1.65,9.17,1.62,8.64,1.58,8.11Z"/><path class="cls-3" d="M42.58,18.85c.11.17.3.33.31.51a16,16,0,0,1-.81,5.87c-.15.46-.89.74-1.35,1.09l.08-1.26.21-.61.15-.51,0-.26.1-.24a.05.05,0,0,1,0-.08c.45-.09.39-.33.18-.62l.14-.47s.07,0,.07,0a.51.51,0,0,0,0-.13l.14-.46.1-.64.05-.61.12-.19.09-.43Z"/><path class="cls-7" d="M29.39,73.9a30.62,30.62,0,0,1-3.12.49c-1.9.13-3.8.17-5.7.18-1.33,0-2.66-.09-4-.17a1.47,1.47,0,0,1-.48-.22l.18-.23h2l.32.15H20.8c2-.1,4-.18,6-.31.76-.05,1.52-.2,2.27-.3Z"/><path class="cls-3" d="M9.25,1.56H8.64a11,11,0,0,0-1.39-.19c-.52,0-1.26,0-1.49.27s-.5.21-.71.21c-.51,0-1-.09-1.53-.14C3.6.91,2.85,1.23,2.46,1,2.83.41,3.39.74,3.83.64c.69,0,1.37.15,2.05.15C7,.77,8.1.7,9.21.64c.62,0,1.24-.11,1.86-.17l0,.19-.9.6Z"/><path class="cls-9" d="M33.41,69.28,36,68.49l.07.06-1.3.7c1,.47,1,1.33.17,2.09-.11.09-.1.3-.15.46l-1.72,1a2.58,2.58,0,0,1-.17-.22l.47-.92.3-.18a5.23,5.23,0,0,0,.8-.57c.43-.45.33-.67-.32-.81v0l0-.28a4.73,4.73,0,0,0-.39-.28C33.68,69.41,33.54,69.35,33.41,69.28Z"/><path class="cls-5" d="M40.47,26.78c-.17,1.69-.36,3.38-.52,5.08-.19,1.94-.34,3.89-.51,5.84l-.26-.05.15-2.93q.24-3,.46-6.06V28l.47-2h.26l0,.48Z"/><path class="cls-10" d="M14.57,74.09c-1.52-.42-3-.84-4.56-1.29-.17,0-.29-.26-.43-.39.23-.22.75.06.78-.47l1.57.46.77.3.32.16h.46c.13.58.57.73,1.1.77Z"/><path class="cls-3" d="M42,12.47l.91-.12c0,.61,0,1.19.05,1.77,0,1,.09,2,.11,3,0,.46.22,1-.44,1.24l-.24-1.88L42.08,15c0-.12,0-.24,0-.35l.1-.14-.23-1.25-.08-.3Z"/><path class="cls-3" d="M41.82,9.83c0-.83.11-1.66.17-2.5.2.18.56.34.58.53.12,1.22.17,2.45.25,3.69l-1,.14h-.19c0-.1,0-.2.07-.3v-.31l.08-.88Z"/><path class="cls-2" d="M5.68,61.34,6,66.48c-.2-.21-.53-.41-.56-.64-.16-1.29-.27-2.59-.33-3.89C5.1,61.75,5.48,61.54,5.68,61.34Z"/><path class="cls-8" d="M33.41,71.63l-.47.92a8.36,8.36,0,0,1-1,.66,6.58,6.58,0,0,1-1.23.41c-.42.11-.85.19-1.27.28l-.34-.41.62-.17A7.48,7.48,0,0,0,31,73c.74-.35,1.59-.61,2-1.49Z"/><path class="cls-2" d="M37.9,55.12a3,3,0,0,0,.22-.64c.1-.92.18-1.86.26-2.79a2.46,2.46,0,0,1,.3.8c0,.75-.08,1.49-.14,2.23s-.09,1.34-.18,2c0,.1-.25.17-.39.26l-.07-1.25v-.62Z"/><path class="cls-2" d="M3.06,28.5c.13,1.56.25,3.12.38,4.68a1.48,1.48,0,0,1-.59-1.64,9.21,9.21,0,0,0-.09-1.8A6.06,6.06,0,0,1,3.06,28.5Z"/><path class="cls-2" d="M4.34,43.29l.1,2.49c-.15-.17-.41-.33-.43-.52-.14-1.24-.26-2.47-.31-3.72A5.56,5.56,0,0,1,4,40.18l.13,0c0,.3,0,.6.07.9l0,.61.08,1.1Z"/><path class="cls-9" d="M10.36,71.94c0,.53-.55.25-.78.47l-1.24-.78c0-.1,0-.21-.07-.31l.42-1c.16.15.46.31.45.45,0,.89.66.93,1.22,1.14Z"/><path class="cls-2" d="M4.76,49.67l.42,5c-.16-.64-.33-1.27-.47-1.9-.06-.26,0-.59-.13-.79-.49-.72,0-1.44-.06-2.15C4.52,49.77,4.68,49.72,4.76,49.67Z"/><path class="cls-2" d="M3.53,34.73l.16.47.06,1.22,0,.34L4,38.47l0,1.4c-.46-.07-.46-.32-.45-.75,0-1.22-.08-2.45-.1-3.68A2.9,2.9,0,0,1,3.53,34.73Z"/><path class="cls-11" d="M41.83,12.94l.08.3c0,.45.05.89.08,1.34l0,.05,0,.35-.25.39c-.22-1-.45-2-.62-3a2,2,0,0,1,.17-.73h.31l0,.26v.37Z"/><path class="cls-3" d="M2,1.58a1.22,1.22,0,0,1-.78,1.25.82.82,0,0,1,.09-1.18C1.39,1.52,1.73,1.6,2,1.58Z"/><path class="cls-1" d="M37.9,55.74,38,57l0,.77,0,.16-.26,1.43Z"/><path class="cls-6" d="M42.35,16.51l.24,1.88c0,.15,0,.31,0,.46-.12.31-.25.63-.38.94Z"/><path class="cls-2" d="M5.28,55.88l.13,1.73C4.68,57.25,4.63,56.66,5.28,55.88Z"/><path class="cls-7" d="M20.8.65l1.31.46a.54.54,0,0,1,.34.35l-1.89-.27q0-.25.09-.54Z"/><path class="cls-2" d="M4.58,47.64l.22,1.41-.06.16A1.18,1.18,0,0,1,4.58,47.64Z"/><path class="cls-2" d="M1.64,10.76l0,1.1c-.13-.19-.38-.38-.38-.57S1.49,10.94,1.64,10.76Z"/><path class="cls-6" d="M40.56,26.48l0-.48.28-.94-.08,1.26Z"/><path class="cls-2" d="M4.47,46.09l.1,1.25C4.08,47,4.26,46.52,4.47,46.09Z"/><path class="cls-5" d="M3.93,39.87l0-1.4c.11.46.22.92.34,1.38l-.2.37-.13,0Z"/><path class="cls-2" d="M38.59,49.36l.11-1.09Z"/><path class="cls-2" d="M38.48,50.61l.08-.94Z"/><path class="cls-7" d="M14.57,74.09v-.45l.31.14V74Z"/><path class="cls-12" d="M15.59,74h0c0-.11,0-.22,0-.33l.47.14Z"/><path class="cls-6" d="M41.83,12.94l-.11-.63.24.16C41.92,12.63,41.87,12.79,41.83,12.94Z"/><path class="cls-3" d="M42.13,5.16c0-.16,0-.31,0-.47l.27.2Z"/><path class="cls-3" d="M1.19,3.45v.46L.9,3.72Z"/><path class="cls-10" d="M15.51,73.64c0,.11,0,.22,0,.33L14.9,74a2.18,2.18,0,0,1,0-.25l.47-.15Z"/><path class="cls-10" d="M15.59,74l.39-.18.31,0a.75.75,0,0,0,0,.15l-.18.23Z"/><path class="cls-3" d="M42,6.09c.05-.1.09-.21.14-.32C42.07,5.88,42,6,42,6.09Z"/><path class="cls-2" d="M1.65,10v.31l-.24-.19Z"/><path class="cls-3" d="M1.19,3.91l.2.08-.2.08Z"/><path class="cls-2" d="M37.9,57.92l0-.16Z"/><path class="cls-2" d="M5.21,55.43l0,.16-.07-.11S5.2,55.45,5.21,55.43Z"/><path class="cls-2" d="M3.5,34v.16A.6.6,0,0,1,3.45,34S3.48,34,3.5,34Z"/><path class="cls-6" d="M41.71,11.94l0-.26h.14Z"/><path class="cls-13" d="M4.3,39.85c-.12-.46-.23-.92-.34-1.38s-.11-1.14-.16-1.71l0-.34L3.69,35.2c.05-.32.09-.64.14-1,.14.16.38.3.43.48.19.82.35,1.66.5,2.49.11.64.24,1.29.3,1.95.1,1,.06,1.94.23,2.89.21,1.17.58,2.31.89,3.47.23.87.49,1.73.71,2.6a23.2,23.2,0,0,1,.65,3c.09.84-.18,1.71-.09,2.54.11,1.17.45,2.32.61,3.49s.12,2.18.31,3.25-.19,2.22.77,3.06c0,0-.11.22-.17.33l-1.25-.62-.3-.16c0-1.61-.09-3.22-.17-4.82A34.12,34.12,0,0,1,7,54.48a11.46,11.46,0,0,0-.62-4.28c-.4-1.23-.72-2.5-1-3.76-.24-1-.38-1.93-.6-2.89,0-.12-.26-.18-.4-.26l0-.46-.08-1.1,0-.61Z"/><path class="cls-2" d="M29.65,69.45c.71,0,1.43,0,2.15,0,.28,0,.55,0,.83,0-.21.21-.39.53-.64.59a7,7,0,0,1-1.38,0,9,9,0,0,1-1.35.28c-2.33.18-4.67.39-7,.47-1.73.05-3.47-.09-5.2-.14H14.42l-2.33-.17h0a3.15,3.15,0,0,1-.36-.37,1.52,1.52,0,0,1-.11-.38l.46,0,4,.24,2.11-.17.29,0c.7.06,1.4.17,2.1.17.91,0,1.81-.11,2.72-.18a6.63,6.63,0,0,0,.89,0,2.64,2.64,0,0,0,.61-.17l1.76.26a6.43,6.43,0,0,0,.76,0Z"/><path class="cls-11" d="M9.75,65.7,9,65.38l1.23-.46a2.56,2.56,0,0,0,.62,0,5.89,5.89,0,0,0,.77-.27L11.06,64a5.56,5.56,0,0,1-.82-1,5.61,5.61,0,0,1-.46-1.61c-.07-.46-.52-.94,0-1.42a7.29,7.29,0,0,1,.61,1.34,4.67,4.67,0,0,0,1.81,2.86c.15.11.37.37.33.45a1.16,1.16,0,0,1-.5.48c-.37.19-.78.33-1.17.49Z"/><path class="cls-4" d="M9.75,65.7l1.08-.14.63.28-.5.93-.89,0,.31,1h-.31l-.49,0h-.3l-.38-.27-.05,0c0-.27-.07-.55-.13-.82s-.23-.51-.16-.69.4-.17.62-.23Z"/><path class="cls-4" d="M7.72,63.21,9,63.83l.48.47c-.16.15-.29.4-.47.45-.5.13-.26.4-.17.65l-2.46-.68.34-.8.8.1-.28-.38Z"/><path class="cls-4" d="M16.07,70l-4-.24c.05-.2.11-.39.16-.59l.34-.15,2.29.36h.19v0l.77.11.18.2Z"/><path class="cls-5" d="M8.69,70.34l-.42,1-.72-.5c.82-.42.35-1.08.31-1.67l2.2.52-.34.19Z"/><path class="cls-5" d="M8.85,67.6l.05,0,.38.27h.3l.49,0h0l.27.31-.46.47-1.78-.81.25-.26Z"/><path class="cls-8" d="M9.87,68.65l.46-.47c.58.16,1.16.3,1.73.48a2.4,2.4,0,0,1,.52.33l-.34.15Z"/><path class="cls-12" d="M9.72,69.86l.34-.19,1.56.1a1.52,1.52,0,0,0,.11.38,3.15,3.15,0,0,0,.36.37Z"/><path class="cls-4" d="M7.86,69.15c0,.59.51,1.25-.31,1.67a3.26,3.26,0,0,1-.25-1.07C7.31,69.54,7.66,69.35,7.86,69.15Z"/><path class="cls-13" d="M8.81,65.4c-.09-.25-.33-.52.17-.65.18,0,.31-.3.47-.45.44,0,.81,0,.76.62L9,65.38Z"/><path class="cls-4" d="M8.34,67.58l-.25.26-.68-.54.13-.19Z"/><path class="cls-7" d="M26.1,1.59l2.16-.31-.15.42c1.79-.11,3.56.75,5.37.23l-.54-.52c.47.16,1.21-.49,1.42.47-.06.21-.11.42-.17.63-.91.05-1.81.12-2.72.15-2,.06-4,.1-6.06.17a3.75,3.75,0,0,0-.9.28h-.43c-.31-.5-.7-.35-1.1-.14L22.5,3l.17-.62c.13-.09.27-.27.4-.26.9,0,1.8.1,2.72.07l-1-.43V1.56l.69-.12h.3Z"/><path class="cls-7" d="M16.44,1.26a5.88,5.88,0,0,0,1.31.13c.67-.07,1.33-.25,2.18-.42l.51.58a1.21,1.21,0,0,1,1.76.67l-.33.12-.12-.14-1.87.23.15.38L16,2.67V2.36h1.57Zm3.33.47s0,.09.06.1.08,0,.12,0l-.09-.15Z"/><path class="cls-6" d="M16,2.36v.31l-2.35,0V2.21l2.21-.13,0-.29-.37-.22V1.11A7.41,7.41,0,0,1,16.3,1c.05,0,.1.14.14.22l1.11,1.09H16.28l-.41-.16Z"/><path class="cls-7" d="M15.5,1.11v.46l-3.07.6-.08-.29,1.91-.77h0L15,1h.16Z"/><path class="cls-10" d="M20,2.81l-.15-.38,1.87-.23.12.14.33-.12.47.11L22.5,3Z"/><path class="cls-7" d="M13.63,2.21v.44h-2l-1-.44Z"/><path class="cls-7" d="M10.85,1.92l-1.1-.19h0l.62-.15h0l1.87-.31.31,0C12.16,1.9,11.5,1.91,10.85,1.92Z"/><path class="cls-3" d="M15.2,1H15L13.59.5V.35c.51,0,1,0,1.53,0C15.16.38,15.17.75,15.2,1Z"/><path class="cls-3" d="M22.75.46l-1.53.2,0-.31L22.72.17Z"/><path class="cls-3" d="M12.55,1.24l-.31,0V.38l.74.3L12.71,1,12.54.84l0,.06.2.06Z"/><path class="cls-7" d="M9.25,1.56l1-.3.16.31h0l-.62.15h0Z"/><path class="cls-3" d="M11.52.6l.06,0,0,.07-.05,0A.14.14,0,0,1,11.52.6Z"/><path class="cls-7" d="M14.26,1.11l0-.07,0,.07Z"/><path class="cls-11" d="M39.79,28.66q-.23,3-.46,6.06a3.11,3.11,0,0,0-.31.6c-.2.85-.12,1.9-.6,2.52-.76,1-.62,2.09-.94,3.11a21.91,21.91,0,0,0-.69,3.52,14.62,14.62,0,0,0,0,2.09v.31l-.29.78v.78c-.11.09-.28.18-.3.29-.12.84-.24,1.69-.32,2.55-.23,2.2-.33,4.43-.69,6.62-.32,2-.57,4-1.89,5.78h1.78l-.16.75.49-.45.39.31L33.92,65l.25.56-.6,0-1.41.28L31.47,65l.92-.13v-.24H31.08v-.46h.62l.78-.11-.6-.54,1.3-2A1.14,1.14,0,0,0,33.4,61a13,13,0,0,1,.45-2.77c.47-2.09.77-4.22,1.11-6.35.11-.66.11-1.33.16-2v-.3c.21-.76.48-1.51.62-2.29.25-1.42.37-2.86.65-4.27.22-1.14.63-2.25.9-3.38.39-1.63.77-3.26,1.07-4.9s.4-3.09.68-4.62A5.29,5.29,0,0,1,39.79,28.66Z"/><path class="cls-13" d="M35.44,64l-.49.45.16-.75H34.2a3.07,3.07,0,0,1,.18-.82A11.61,11.61,0,0,0,35.6,58,22.45,22.45,0,0,1,36,55c.17-.89.55-1.74.67-2.63a28.29,28.29,0,0,0,.17-3.32c0-.22-.19-.44-.29-.65v-.78c.49-.11.6-.37.29-.78v-.31c.1-.09.25-.16.27-.26.24-1.39.41-2.79.69-4.17a26.07,26.07,0,0,1,.84-2.73c.05-.13.26-.21.4-.31a28.49,28.49,0,0,1-.76,5.57A21.71,21.71,0,0,0,37.74,48a11,11,0,0,1-.3,1.43,9.75,9.75,0,0,0-.19,3.73A24.53,24.53,0,0,1,37,56.77c0,.74,0,1.49-.09,2.23-.07.53-.29,1-.4,1.58-.19.87-.34,1.74-.5,2.61h0l-.51.14,0,.15.37,0Z"/><path class="cls-14" d="M15.83,69.41l-.77-.11c-.39-.16-.78-.34-1.18-.49-.6-.21-1.2-.39-1.81-.58L13.8,68l2.2-.09a3,3,0,0,0,1,.39c2.79,0,5.58.06,8.36,0a16,16,0,0,0,2.46-.43l0-.15-1-.06v-.14h2.31c.2.11.39.3.61.32.57.07,1.15.06,1.73.09v.34a.65.65,0,0,0,0,.13l-.13.06h-.15a.34.34,0,0,1-.14,0,4.22,4.22,0,0,0-.87,0,9.65,9.65,0,0,1-3.75.24,10.55,10.55,0,0,0-2.31.06c-1.44.08-2.89.2-4.34.25-.87,0-1.75-.08-2.62,0A4.36,4.36,0,0,0,15.83,69.41Z"/><path class="cls-15" d="M15.83,69.41A4.36,4.36,0,0,1,17,69c.87,0,1.75.06,2.62,0,1.45,0,2.9-.17,4.34-.25a10.55,10.55,0,0,1,2.31-.06,9.65,9.65,0,0,0,3.75-.24,4.22,4.22,0,0,1,.87,0l-.33.17-.79.33a.29.29,0,0,0-.13,0h-.47l-4.42.65a2.64,2.64,0,0,1-.61.17,6.63,6.63,0,0,1-.89,0H18.47l-.29,0L16,69.61Z"/><path class="cls-4" d="M33.57,65.57l.6,0,.17,0L34,66l-.49.36.11.12.38-.32c.19.41-.11.51-.38.68-.11.07-.13.29-.19.44.13,0,.27.14.39.12.53-.09,1-.21,1.58-.32l0,0,.64.52-1.43.54c-.39-.77-1-.32-1.56-.31L33,67.45c-.08-.58-.5-1.24.39-1.59C33.45,65.82,33.5,65.67,33.57,65.57Z"/><path class="cls-7" d="M30.61,70.07A7,7,0,0,0,32,70c.25-.06.43-.38.64-.59h.28l.18-.13.32,0c.13.07.27.13.4.21a4.73,4.73,0,0,1,.39.28l-1.93.5.21.71-.32.33h-.31c0-.07,0-.2-.07-.2-.55,0-1.11-.09-1.66-.09-.1,0-.19.18-.29.28h-.31l-.08-.55,1.77-.24Z"/><path class="cls-13" d="M34.34,65.54l-.17,0c-.07-.15-.14-.3-.25-.56l1.91-.68h.38C36.15,65,36.12,65.05,34.34,65.54Z"/><path class="cls-9" d="M33.1,67.86c.54,0,1.17-.46,1.56.31-.69.13-1.37.28-2.07.39-.14,0-.3-.14-.45-.21l.35-.39.26-.12Z"/><path class="cls-8" d="M29.68,69a.29.29,0,0,1,.13,0l-.16.48-2.34.41a6.43,6.43,0,0,1-.76,0,7,7,0,0,1,.91-.45c.58-.19,1.17-.31,1.75-.46h.47Z"/><path class="cls-5" d="M32.49,68l-.35.39-.54.34-.25-.26a.65.65,0,0,1,0-.13Z"/><path class="cls-4" d="M35.91,63.52l-.37,0,0-.15L36,63.2l.18.29Z"/><path class="cls-13" d="M34,66.17l-.38.32-.11-.12L34,66Z"/><path class="cls-5" d="M30.6,68.64l.33-.17a.34.34,0,0,0,.14,0v.18Z"/><path class="cls-2" d="M33.09,69.3l-.18.13Z"/><path class="cls-4" d="M35.43,67.09l.07,0,0,.07Z"/><path class="cls-9" d="M31.06,68.67v-.18h.15Z"/><path class="cls-9" d="M36,68.49l.11-.06a.56.56,0,0,0,0,.12Z"/><path class="cls-2" d="M32.94,1.41l.54.52c-1.81.52-3.58-.34-5.37-.23l.15-.42C29.1,1.2,30,1.59,30.77,1c.12-.09.4,0,.6.05a5.16,5.16,0,0,1,.88,0A3.5,3.5,0,0,1,32.94,1.41Zm-1.68.2v.07h1.19V1.61Z"/><path class="cls-10" d="M34.19,2.51c.06-.21.11-.42.17-.63.39,0,.79.05,1.18.05.64,0,1.28,0,1.92,0l-.32.45Z"/><path class="cls-2" d="M26.1,1.59l-.33-.15Z"/><path class="cls-16" d="M39,39.09c-.14.1-.35.18-.4.31a26.07,26.07,0,0,0-.84,2.73c-.28,1.38-.45,2.78-.69,4.17,0,.1-.17.17-.27.26a14.62,14.62,0,0,1,0-2.09A21.91,21.91,0,0,1,37.48,41c.32-1,.18-2.14.94-3.11.48-.62.4-1.67.6-2.52a3.11,3.11,0,0,1,.31-.6l-.15,2.93c0,.38-.11.75-.16,1.13Z"/><path class="cls-13" d="M39,38.78c0-.38.11-.75.16-1.13l.26.05c0,.26,0,.51,0,.76l-.3.32Z"/><path class="cls-5" d="M39.12,38.78l.3-.32-.09.47Z"/><path class="cls-1" d="M37.9,55.12v0Z"/><path class="cls-17" d="M31.69,64.14H27.61c-.51,0-1,0-1.52,0s-.86.12-1.3.15c-1.88.11-3.77-.46-5.66,0a6.65,6.65,0,0,1-.78.07l-.06.23a2,2,0,0,0,.6.3,10.05,10.05,0,0,0,1.64.07,8.18,8.18,0,0,1,2.61.08,4.44,4.44,0,0,0,1.31,0c.46,0,.92-.1,1.38-.1,1.46,0,2.93,0,4.39,0a2.94,2.94,0,0,0,.86-.3h1.31v.24l-.92.13.69.87-.92,0h-.62L28,66a4.61,4.61,0,0,0-.81-.15H20a1.68,1.68,0,0,1-.75-.23c-.22-.11-.39-.38-.62-.43-.62-.13-1.27-.19-1.9-.27-.15-.16-.27-.39-.45-.45-.9-.31-1.83-.56-2.73-.86a.9.9,0,0,1-.38-.37,6.78,6.78,0,0,1-.48-.88c-.63-1.53-1.32-3-1.84-4.61a26,26,0,0,1-.57-3.07c-.27-1.38-.59-2.76-.86-4.14-.4-2.08-.5-4.21-1.08-6.26-.38-1.33-.7-2.68-1-4-.43-1.61-.93-3.2-1.26-4.82s-.38-3.18-.68-4.74c-.24-1.23-.19-2.58-1.13-3.61-.18-.2-.35-.41-.52-.62l-.32-1.9-.69-2.43c.17-1,.36-2,.49-3.07a14.58,14.58,0,0,0,0-1.62v-.31c.1-.11.26-.21.28-.33.11-.72.19-1.44.25-2.16a3.43,3.43,0,0,0-.07-.78V12.46c.09-.15-.06-.28-.16-.44-.27-.42-.52-.84-.78-1.27v-.29l0-.15h.31l.44.16c-.32.46.15.63.32.91s.12.49.27.63c.55.48.39,1.16.34,1.66-.16,1.6-.57,3.18-.74,4.78a33.49,33.49,0,0,0-.15,4.48,6.13,6.13,0,0,0,.59,1.68,2.19,2.19,0,0,0,.3,1.67A12.57,12.57,0,0,1,6,30.43c0,.35.14.69.21,1A9.31,9.31,0,0,0,6.24,33,38.76,38.76,0,0,0,8.14,40a33.89,33.89,0,0,1,1.77,7.07c.29,1.62.6,3.25.94,4.87.08.39.37.74.44,1.13.24,1.37.4,2.75.63,4.12A10.9,10.9,0,0,0,13.85,62c.52.71,1.09,1.58,2.05,1.63a24.73,24.73,0,0,0,3.74-.24c.68-.08,1.34-.39,2-.43,1,0,1.92.07,2.88.08a14.35,14.35,0,0,0,1.61-.11l3.17-.38a.29.29,0,0,0,.17-.14l.78-2c.49,0,.69-.34.88-1a3.76,3.76,0,0,0,.27-2.14c0-.13.13-.32.2-.48a6.65,6.65,0,0,0,.68-1.62,20.35,20.35,0,0,0,.52-4.73c0-.14.14-.31.23-.45a4.51,4.51,0,0,0,.6-.87,13.26,13.26,0,0,0,.5-1.77c.18-.74.35-1.49.48-2.24s.17-1.36.29-2,.24-1.13.37-1.69l.16-1.24.15-.31.31-1.25h.16c.72,1.18,0,2.35-.11,3.5-.13,1.91-.59,3.79-.9,5.69,0,.09,0,.2,0,.3a3.76,3.76,0,0,1-.27.82c-.21.42-.08.57.35.58v.3c-.15.08-.4.12-.43.22-.16.66-.3,1.32-.41,2-.08.5-.07,1-.17,1.51a25.29,25.29,0,0,1-.6,3.15,26.43,26.43,0,0,0-.88,4.08,3.67,3.67,0,0,1-2.26,3c.31.06.6,0,.87,0S31.55,64,31.69,64.14Z"/><path class="cls-16" d="M10.21,64.92c0-.59-.32-.65-.76-.62L9,63.83c.06-.11.2-.31.17-.33-1-.84-.58-2-.77-3.06s-.16-2.17-.31-3.25-.5-2.32-.61-3.49c-.09-.83.18-1.7.09-2.54a23.2,23.2,0,0,0-.65-3c-.22-.87-.48-1.73-.71-2.6-.31-1.16-.68-2.3-.89-3.47-.17-.95-.13-1.93-.23-2.89-.06-.66-.19-1.31-.3-1.95-.15-.83-.31-1.67-.5-2.49,0-.18-.29-.32-.43-.48s0-.49,0-.73v-.2c-.05-1.3-.11-2.59-.16-3.88.16.12.42.23.45.38.19,1.06.33,2.12.5,3.18s.36,2.31.54,3.46c.28,1.79.56,3.58.86,5.37a14.87,14.87,0,0,0,.42,2.09c.39,1.24,1,2.44,1.25,3.7.38,1.69.56,3.43.81,5.15.05.4,0,.81.07,1.21.28,1.69.57,3.38.88,5.06a2.59,2.59,0,0,0,.3.6v.31c-.49.48,0,1,0,1.42A5.61,5.61,0,0,0,10.24,63a5.56,5.56,0,0,0,.82,1l.54.65a5.89,5.89,0,0,1-.77.27A2.56,2.56,0,0,1,10.21,64.92Z"/><path class="cls-11" d="M9.75,59.63a2.59,2.59,0,0,1-.3-.6c-.31-1.68-.6-3.37-.88-5.06-.06-.4,0-.81-.07-1.21-.25-1.72-.43-3.46-.81-5.15-.28-1.26-.86-2.46-1.25-3.7A14.87,14.87,0,0,1,6,41.82c-.3-1.79-.58-3.58-.86-5.37C5,35.3,4.79,34.14,4.62,33s-.31-2.12-.5-3.18c0-.15-.29-.26-.45-.38,0-.46,0-.92,0-1.38l0-.34a15.9,15.9,0,0,1,1,2.46c.27,1.11.33,2.27.5,3.41.07.44.23.88.3,1.32.25,1.51.45,3,.74,4.53A19.7,19.7,0,0,0,7,41.34c.27.9.49,1.82.73,2.74.29,1.1.65,2.19.85,3.31s.23,2.27.38,3.4c.2,1.48.46,3,.67,4.42,0,.2-.05.41,0,.62,0,.55.13,1.09.16,1.65C9.74,58.19,9.74,58.91,9.75,59.63Z"/><path class="cls-4" d="M2.71,22.14l.69,2.43L3,24.94c-.08-.33-.14-.67-.25-1-.56-1.72-1.36-3.39-1.29-5.27,0-.82.11-1.64.17-2.46.1,1,.21,2,.31,3,.09.41.19.82.28,1.23Z"/><path class="cls-11" d="M3.21,17.14v.31c-.11.14-.21.29-.32.42s-.2.24-.3.36c.05-1,.07-2,.17-3.06.05-.45.4-.88.39-1.31a8.09,8.09,0,0,0-.41-1.7l-.18-.79.17-.62c.26.43.51.85.78,1.27.1.16.25.29.16.44v1.41c-.12.23-.34.46-.36.7C3.24,15.42,3.24,16.29,3.21,17.14Z"/><path class="cls-13" d="M2.56,11.37l.18.79c-.05.44-.1.87-.14,1.31-.13,1.25-.25,2.49-.39,3.74-.07.65-.17,1.3-.25,2-.1-1-.21-2-.31-3,.21-1.3.41-2.6.62-3.9l0-.05,0,.06Z"/><path class="cls-16" d="M3.07,10.31H2.89l.65-.51a.22.22,0,0,1,.14,0l.1.27L4,9.94h.39l.55-.14,1.86.1.27-.05h0l0,.18-.16.29-.67.1L6,10.4Z"/><path class="cls-13" d="M3,24.94l.38-.37c.11.63.21,1.27.32,1.9,0,.42,0,.83,0,1.24l0,.34L3.2,25.44A5,5,0,0,0,3,24.94Z"/><path class="cls-13" d="M3.83,33.31v0Z"/><path class="cls-11" d="M2.76,10.31l0,.15Z"/><path class="cls-3" d="M11.63,2.64h2l2.35,0L20,2.81,22.5,3,23,3c.29.71.75,0,1.1.14h.32l-.33.47L21,3.45h-.78a8.83,8.83,0,0,0-1-.11c-1.37,0-2.74.07-4.12.11-.09-.05-.17-.14-.26-.13-1.2,0-2.41.06-3.62,0s-2.5-.15-3.75-.22L6,3,4.46,2.82l-.13,0,0-.14c.2-.09.4-.27.6-.27C7.14,2.46,9.38,2.55,11.63,2.64Z"/><path class="cls-10" d="M7.1,10c0-.06,0-.12,0-.18l.09-.06,0,0-.08.07-.27.05.14-.38L6.75,9.3l-.11.22a1.11,1.11,0,0,1-1.26-.69c0-.06-.16-.05-.23-.09a3.57,3.57,0,0,1-.83-.63c-.22-.15-.9.6-.7-.43-.7-.2-.55-1.39-1.51-1.28L2,3.45c.44.39.9.76,1.31,1.19s.69.86,1,1.3l-.16.31L4,6.13l0,.06.2.06.77,1.24c.22.33.47.64.82,1.11L6.87,9l.7-.6h.15v.32c0,.14-.13.35-.07.41a.75.75,0,0,0,.47.2c.54.07,1.09.11,1.64.16l-.17.3ZM3.57,6,3.51,6v.08h.06S3.56,6,3.57,6ZM2.24,4.84s0,0,0,0l-.05,0,.06.07Z"/><path class="cls-7" d="M4.3,5.94c-.34-.44-.66-.9-1-1.3S2.4,3.84,2,3.45l.17-.63h.45l.19-.3.12-.32,1.25.62.19,0,.13,0c0,.51-.31,1.22-.07,1.51.46.55.21,1,.07,1.44h0l-.16.15Z"/><path class="cls-3" d="M2.89,2.2l-.12.31a3.21,3.21,0,0,1-.19.31H2.13c.06-.21.11-.43.18-.66Z"/><path class="cls-7" d="M8.64,1.57h0Z"/><path class="cls-12" d="M4.33,2.8l-.19,0,.16-.16Z"/><path class="cls-9" d="M41.52,7l-.06.83c-.26,0-.55.11-.76,0A2.74,2.74,0,0,0,38.91,8a8.92,8.92,0,0,0-1.27.56,8.49,8.49,0,0,1-1.2.41,2.41,2.41,0,0,1-.69-.05l.09-.58-.57.48L35,8.36l-.15.08.2.66c-.78,0-1.45,0-2.12,0-.51,0-1,.12-1.53.14-.31,0-.62-.12-.94-.13a10.71,10.71,0,0,0-1.6.07c-1,.16-1.91.37-2.86.56L24.24,10h-.46c-.18-.88-.65-.55-1.11-.28l-.62-.16-.64-.62V8.56c.51.42.72-.21,1.09-.3h0l.19.46c0,.11.06.29.11.3.43.06.87.08,1.4.13l.36-.49c.9.65,1.64,0,2.45-.25l.1.19.05-.19c.84.35,1.55-.29,2.34-.29.67.16,1.33.33,2,.46a3.31,3.31,0,0,0,1,0,8.51,8.51,0,0,0,1.21-.36c.26-1.16.51-1.3,1.5-.76l.06,0-.06,0,1.36-.84c.32-.32.45-.54.65-.63.38-.17.86-.17,1.16-.41.81-.63,1.67-.22,2.51-.22.09,0,.27.3.26.46a6.3,6.3,0,0,1-.23,1Z"/><path class="cls-8" d="M35.28,7.49c-1-.54-1.24-.4-1.5.76a8.51,8.51,0,0,1-1.21.36,3.31,3.31,0,0,1-1,0c-.68-.13-1.34-.3-2-.46-.05-.26-.11-.53-.16-.79h0c.5,0,1.07-.64,1.49.14.16-.1.37-.16.47-.3.31-.4.57-.83.85-1.24h0l.19.5L34,5.91l-.54-.8,1.42.2.28-1.12,3.12-.28c.48.16.86.51,1.49.1a5.67,5.67,0,0,1,1.88-.49c.12.2.17.25.17.29C41.7,4.88,41.61,6,41.52,7L41,6.84a6.3,6.3,0,0,0,.23-1c0-.16-.17-.46-.26-.46-.84,0-1.7-.41-2.51.22-.3.24-.78.24-1.16.41-.2.09-.33.31-.65.63l-1.36.84Z"/><path class="cls-3" d="M34.19,2.51l3-.17,4.06-.41c.16,1.05.16,1-.91,1.07-.78,0-1.57.18-2.35.28h0l-.16-.14c-.76,0-1.51-.06-2.27,0a9.62,9.62,0,0,0-1.31.19l-6.07.29-3-.13-.65-.34a3.75,3.75,0,0,1,.9-.28c2-.07,4-.11,6.06-.17C32.38,2.63,33.28,2.56,34.19,2.51Z"/><path class="cls-5" d="M26,9.74c.95-.19,1.9-.4,2.86-.56a10.71,10.71,0,0,1,1.6-.07c.32,0,.63.14.94.13.51,0,1-.12,1.53-.14.67,0,1.34,0,2.12,0l-.2-.66L35,8.36l.32.46.57-.48-.09.58a2.41,2.41,0,0,0,.69.05,8.49,8.49,0,0,0,1.2-.41A8.92,8.92,0,0,1,38.91,8a2.74,2.74,0,0,1,1.79-.13c.21.09.5,0,.76,0,0,.4,0,.81,0,1.22l-3.2.17-.92.19-1.4.24a13.68,13.68,0,0,1-1.43,0c-1.34-.13-2.67.17-4,.06-.7-.06-1.42.23-2.15-.12-.26-.12-.65,0-1,.07l-.3.17ZM38.86,8.42l.06,0a.07.07,0,0,0,0-.05l-.07.08-.07.06h0Z"/><path class="cls-12" d="M34.19,3.29A9.62,9.62,0,0,1,35.5,3.1c.76,0,1.51,0,2.27,0l.16.14h0l.54.41-.24.22-3.12.28Z"/><path class="cls-4" d="M38.24,9.25l3.2-.18,0,.46-1,.16a7.33,7.33,0,0,1-1.15,0A6.16,6.16,0,0,1,38.24,9.25Z"/><path class="cls-14" d="M40.44,9.69l1-.16c0,.1.05.2.07.31l.24.35c0,.3-.05.59-.08.88,0,.1,0,.21,0,.31s-.05.2-.07.3h-.28c-.11-.4-.21-.81-.32-1.22l-.17-.17L40.4,10Z"/><path class="cls-6" d="M41.78,10.19l-.24-.35h.28Z"/><path class="cls-3" d="M41.82,1.89,41.75,2a.07.07,0,0,1,0-.05l.05,0Z"/><path class="cls-5" d="M4.94,9.79l-.55.14Z"/><path class="cls-5" d="M4,9.94l-.22.14-.1-.27Z"/><path class="cls-7" d="M6.64,9.52l.11-.22.19.21Z"/><path class="cls-16" d="M40.81,25.06l-.28.94h-.26v-.28s0,0,0-.06a.67.67,0,0,0-.06-.12c.09-.51.14-1,.27-1.53.25-.9.55-1.78.83-2.66.09-.1.26-.19.28-.31.17-1.11.34-2.23.47-3.35a10.1,10.1,0,0,0,0-1.23h-.29v2.05a25.2,25.2,0,0,0-1.13-6.47l.65-.38h0a2,2,0,0,0-.17.73c.17,1,.4,1.92.62,3l.25-.39.27,1.53-.15,3.28-.09.43-.12.19-.05.61-.1.64-.14.46-.05.15-.14.47-.18.62a.05.05,0,0,0,0,.08l-.1.24,0,.26-.15.51Z"/><path class="cls-6" d="M41.33,23.36l.18-.62C41.72,23,41.78,23.27,41.33,23.36Z"/><path class="cls-6" d="M41.84,21.66l.1-.64Z"/><path class="cls-6" d="M41,24.45l.15-.51Z"/><path class="cls-6" d="M41.21,23.68l.1-.24Z"/><path class="cls-6" d="M41.65,22.27l.05-.15a.51.51,0,0,1,0,.13S41.68,22.26,41.65,22.27Z"/><path class="cls-6" d="M42,20.41l.12-.19Z"/><path class="cls-2" d="M31.85,71.31h.31c.36.43,0,.58-.29.74s-.59.19-.85.35c-.46.28-.9.61-1.35.92l-.62.17c-.75.1-1.51.25-2.27.3-2,.13-4,.21-6,.31-.52-.07-1-.54-1.56,0h-.61L18.31,74H17.23c-.24-.52-.59-.32-.94-.14l-.31,0-.47-.14h-.15l-1.88-.76H13l-.32-.16-.77-.3L11.16,71l.77.15a10.3,10.3,0,0,0,1.31.3c1.64.18,3.28.32,4.91.47a4.1,4.1,0,0,0,.69.1c.91,0,1.82-.06,2.74-.1h1.71l.62-.15,5.61-.47h.31c.27,0,.63,0,.8.09C31.1,71.77,31.46,71.53,31.85,71.31Zm-15.07,1.4a24.25,24.25,0,0,0,11.08,0Z"/><path class="cls-12" d="M19.24,74.1c.52-.54,1-.07,1.56,0Z"/><path class="cls-12" d="M16.29,73.8c.35-.18.7-.38.94.14h-.94A.75.75,0,0,1,16.29,73.8Z"/><path class="cls-12" d="M18.31,74l.32.15Z"/><path class="cls-12" d="M17.53,73.94h0Z"/><path class="cls-8" d="M32.48,71l-.21-.71,1.93-.5,0,.28-.06.08.07-.06c.65.14.75.36.32.81a5.23,5.23,0,0,1-.8.57c.09-.5-.13-.69-.61-.61Z"/><path class="cls-7" d="M33.1,70.84c.48-.08.7.11.61.61l-.3.18L33,71.46Z"/><path class="cls-18" d="M41.37,21.35c-.28.88-.58,1.76-.83,2.66-.13.49-.18,1-.27,1.53V26c-.16.68-.31,1.36-.47,2v.62a5.29,5.29,0,0,0-.75,1.4c-.28,1.53-.4,3.09-.68,4.62s-.68,3.27-1.07,4.9c-.27,1.13-.68,2.24-.9,3.38-.28,1.41-.4,2.85-.65,4.27-.14.78-.41,1.53-.62,2.29-.43,0-.56-.16-.35-.58a3.76,3.76,0,0,0,.27-.82c0-.1,0-.21,0-.3.31-1.9.77-3.78.9-5.69.08-1.15.83-2.32.11-3.5l.46-.32A3.47,3.47,0,0,0,37,35.82a15.12,15.12,0,0,0,.43-1.6c.23-1.24.32-2.51.62-3.72a19.16,19.16,0,0,1,1.13-2.92c.43-.95,1.08-1.84.62-3,.11-.41.23-.82.3-1.24,0-.15-.09-.31-.14-.47s0-.1,0-.15l.3-.16a13.56,13.56,0,0,0,.61-1.28,12.15,12.15,0,0,0,.33-1.22Z"/><path class="cls-11" d="M39.8,28.19v0Z"/><path class="cls-12" d="M11.16,71l.77,1.4-1.57-.46h0l-.68-1.07C10.17,70.45,10.66,70.9,11.16,71Z"/><path class="cls-12" d="M13.48,72.87l1.88.76-.47.15-.31-.14C14.05,73.6,13.61,73.45,13.48,72.87Z"/><path class="cls-12" d="M12.7,72.7l.32.16Z"/><path class="cls-6" d="M42,14.58c0-.45-.05-.89-.08-1.34.08.42.16.84.23,1.25Z"/><path class="cls-16" d="M42,14.58l.15-.09-.1.14Z"/><path class="cls-6" d="M41.71,11.38c0-.1,0-.21,0-.31C41.7,11.17,41.7,11.28,41.71,11.38Z"/><path class="cls-12" d="M33.1,70.84l-.15.62c-.36.88-1.21,1.14-2,1.49a7.48,7.48,0,0,1-1.33.37c.45-.31.89-.64,1.35-.92.26-.16.58-.2.85-.35s.65-.31.29-.74l.32-.33Z"/><path class="cls-4" d="M4.22,41.73l.08,1.1Z"/><path class="cls-4" d="M4.3,39.85l-.13,1.27c0-.3,0-.6-.07-.9Z"/><path class="cls-10" d="M11.16,71c-.5-.1-1-.55-1.48-.14l.68,1.07c-.56-.21-1.25-.25-1.22-1.14,0-.14-.29-.3-.45-.45l1-.48,2.37.66h0l-.16.63Z"/><path class="cls-5" d="M3.75,36.42l0,.34Z"/><path class="cls-12" d="M11.93,71.15l.16-.63,2.33.17c.46,0,.92.13,1.38.14a10.82,10.82,0,0,0,1.26-.15c1.73,0,3.47.19,5.2.14,2.33-.08,4.67-.29,7-.47a9,9,0,0,0,1.35-.28l.6.44-1.77.24.08.55-5.61.47-.62.15H23l-.2-.28-.27.28h-.93c-.82-.1-1.63-.24-2.45-.28a3.09,3.09,0,0,0-1,.28c-1.63-.15-3.27-.29-4.91-.47A10.3,10.3,0,0,1,11.93,71.15Z"/><path class="cls-5" d="M29.21,69c-.58.15-1.17.27-1.75.46a7,7,0,0,0-.91.45l-1.76-.26Z"/><path class="cls-9" d="M16,69.61l2.17.19L16.07,70Z"/><path class="cls-16" d="M18.47,69.76h4.82c-.91.07-1.81.17-2.72.18C19.87,69.93,19.17,69.82,18.47,69.76Z"/><path class="cls-7" d="M17.06,70.68a10.82,10.82,0,0,1-1.26.15c-.46,0-.92-.09-1.38-.14Z"/><path class="cls-18" d="M3.7,27.71c0-.41,0-.82,0-1.24.17.21.34.42.52.62.94,1,.89,2.38,1.13,3.61.3,1.56.37,3.18.68,4.74s.83,3.21,1.26,4.82c.35,1.34.67,2.69,1,4,.58,2,.68,4.18,1.08,6.26.27,1.38.59,2.76.86,4.14a26,26,0,0,0,.57,3.07c.52,1.57,1.21,3.08,1.84,4.61a6.78,6.78,0,0,0,.48.88.9.9,0,0,0,.38.37c.9.3,1.83.55,2.73.86.18.06.3.29.45.45h-.62c-.8.09-1.6.16-2.39.29-.16,0-.28.31-.42.48l-.63,0-1.23.13-.63-.28c.39-.16.8-.3,1.17-.49a1.16,1.16,0,0,0,.5-.48c0-.08-.18-.34-.33-.45a4.67,4.67,0,0,1-1.81-2.86,7.29,7.29,0,0,0-.61-1.34v-.31c0-.72,0-1.44,0-2.15,0-.56-.12-1.1-.16-1.65,0-.21.06-.42,0-.62-.21-1.47-.47-2.94-.67-4.42-.15-1.13-.18-2.28-.38-3.4S8,45.18,7.68,44.08c-.24-.92-.46-1.84-.73-2.74a19.7,19.7,0,0,1-.67-1.91c-.29-1.5-.49-3-.74-4.53-.07-.44-.23-.88-.3-1.32-.17-1.14-.23-2.3-.5-3.41A15.9,15.9,0,0,0,3.7,27.71Z"/><path class="cls-13" d="M11.46,65.84l1.23-.13,1.57.31-.14.22,2.79.26-1.6.3h0c-.07-.09-.13-.26-.2-.26-.66,0-1.32,0-2,0v.21l1.94.09L12.35,67,11.14,67c.25.28.38.39.47.52s.5.31.17.61l-1.4-.3-.31-1,.89,0Z"/><path class="cls-15" d="M10.38,67.86l1.4.3.29.07c.61.19,1.21.37,1.81.58.4.15.79.33,1.18.49v0h-.19L12.58,69a2.4,2.4,0,0,0-.52-.33c-.57-.18-1.15-.32-1.73-.48l-.27-.31Z"/><path class="cls-15" d="M10.07,67.88l-.49,0Z"/><path class="cls-1" d="M9.28,67.85l-.38-.27Z"/><path class="cls-5" d="M14.87,69.35h0Z"/><path class="cls-2" d="M24.51,3.11l.65.34-.93.46-.17-.3v0l.33-.47Z"/><path class="cls-2" d="M24.08,3.12C23.73,3,23.27,3.69,23,3,23.38,2.77,23.77,2.62,24.08,3.12Z"/><path class="cls-2" d="M16,2.36l-.11-.17.41.16Z"/><path class="cls-2" d="M19.77,1.73l.09-.09.09.15s-.08.05-.12,0S19.79,1.76,19.77,1.73Z"/><path class="cls-2" d="M21.87,2.34l-.12-.14Z"/><path class="cls-6" d="M9.75,1.73l.62-.15Z"/><path class="cls-2" d="M12.7,1,12.5.9l0-.06.17.11Z"/><path class="cls-18" d="M31.08,64.61a2.94,2.94,0,0,1-.86.3c-1.46,0-2.93,0-4.39,0-.46,0-.92.07-1.38.1a4.44,4.44,0,0,1-1.31,0A8.18,8.18,0,0,0,20.53,65a10.05,10.05,0,0,1-1.64-.07,2,2,0,0,1-.6-.3l.06-.23a6.65,6.65,0,0,0,.78-.07c1.89-.46,3.78.11,5.66,0,.44,0,.87-.12,1.3-.15s1,0,1.52,0h3.46Z"/><path class="cls-16" d="M36.53,48.43c.1.21.29.43.29.65a28.29,28.29,0,0,1-.17,3.32c-.12.89-.5,1.74-.67,2.63A22.45,22.45,0,0,0,35.6,58a11.61,11.61,0,0,1-1.22,4.87,3.07,3.07,0,0,0-.18.82h-.87c1.32-1.75,1.57-3.8,1.89-5.78.36-2.19.46-4.42.69-6.62.08-.86.2-1.71.32-2.55C36.25,48.61,36.42,48.52,36.53,48.43Z"/><path class="cls-18" d="M31.69,64.14c-.14-.13-.28-.34-.45-.37s-.56,0-.87,0a3.67,3.67,0,0,0,2.26-3,26.43,26.43,0,0,1,.88-4.08,25.29,25.29,0,0,0,.6-3.15c.1-.49.09-1,.17-1.51.11-.67.25-1.33.41-2,0-.1.28-.14.43-.22,0,.68,0,1.35-.16,2-.34,2.13-.64,4.26-1.11,6.35A13,13,0,0,0,33.4,61a1.14,1.14,0,0,1-.23.55l-1.3,2,.6.54Z"/><path class="cls-13" d="M30.62,65.89h.29l.14.22.19-.23.92,0,1.41-.28c-.07.1-.12.25-.21.29-.89.35-.47,1-.39,1.59l-.22.29L31.39,68c-.58,0-1.16,0-1.73-.09-.22,0-.41-.21-.61-.32l1.56-.16.27-.12-.29-.07-4.5-.09v-.29l2.79-.07,1.36-.1Z"/><path class="cls-16" d="M36.82,46.87c.31.41.2.67-.29.78Z"/><path class="cls-15" d="M30.61,67.39l-1.56.16H26.74v.14l1,.06,0,.15a16,16,0,0,1-2.46.43c-2.78,0-5.57,0-8.36,0a3,3,0,0,1-1-.39c-.08-.08-.16-.21-.24-.21-.65,0-1.31,0-2,0l-1.12,0,0-.23h0l.24-.12,10-.32c1.06,0,2.12,0,3.17,0l4.5.09Zm-14,.39c-.06,0-.11-.13-.16-.13s-.13.11-.12.13a.84.84,0,0,0,.15.18Z"/><path class="cls-16" d="M26.09,67.11c-1.05,0-2.11,0-3.17,0l-10,.32-.24.12h0l-.26.17.22.06,1.12,0V68l-1.73.21-.29-.07c.33-.3,0-.43-.17-.61s-.22-.24-.47-.52L12.35,67,15,66.81l.25,0h0l10.79,0Z"/><path class="cls-11" d="M13.8,68v-.27c.66,0,1.32,0,2,0,.08,0,.16.13.24.21Z"/><path class="cls-15" d="M31.39,68l1.36-.22a.17.17,0,0,1,0,.1l-.26.12-1.1.34Z"/><path class="cls-5" d="M29.68,69h0Z"/><path class="cls-5" d="M32.75,67.84a.17.17,0,0,0,0-.1l.22-.29c.05.14.09.27.13.41Z"/><path class="cls-12" d="M31.85,71.31c-.39.22-.75.46-1.22.08-.17-.14-.53-.07-.8-.09.1-.1.19-.28.29-.28.55,0,1.11,0,1.66.09C31.81,71.11,31.83,71.24,31.85,71.31Z"/><path class="cls-7" d="M31.26,1.61h1.19v.07H31.26Z"/><path class="cls-19" d="M35.44,40.18c-.06.41-.11.83-.16,1.24-.65,0-.82.49-.92,1a16.53,16.53,0,0,0-.47,2.77,6.06,6.06,0,0,1-1.72,3.57c-1.54,1.88-1.83,2.17-2.37,4.14a.6.6,0,0,1-.3.31c-.33.16-.68.26-1,.41a.68.68,0,0,0-.34.35c0,.12.13.28.22.41l.49.62a5,5,0,0,1-.76.46c-1,.41-2,0-3,0a3.61,3.61,0,0,0-2.63.7,3.88,3.88,0,0,0,.89.2,11.8,11.8,0,0,0,1.45-.22c1.17-.24,1.47.1,1.13,1.29-.69,0-1.42.14-1.55,1-.08.52-.37.72-.74.71a2.65,2.65,0,0,1-1.07-.4c-.16-.09-.21-.41-.37-.47-.68-.27-.53-.7-.3-1.18a1.14,1.14,0,0,0-.3-1.34c-.41-.47-.81-.14-1.2,0s-.85.3-.59.94c.06.15-.15.41-.24.63l-.49-.74L18,57.38l.24.07A13.42,13.42,0,0,1,18.43,59a6.48,6.48,0,0,1-.16,1.22c0,.17-.36.35-.34.44.13.58-.34.57-.64.75-.15.09-.26.27-.42.32a1.26,1.26,0,0,1-.73.08,1,1,0,0,1-.61-1.21,4.29,4.29,0,0,1-1-1.88,6.93,6.93,0,0,0-1.22-3.3c-.6-.89-.5-1.87-.87-2.76a9.93,9.93,0,0,1-.24-1.11c-.22-.75-.5-1.48-.71-2.23-.38-1.33-.73-2.67-1.09-4-.09-.29-.22-.57-.31-.86-.44-1.39-.49-2.9-1.32-4.16-.08-.12,0-.31-.09-.45-.13-.37-.27-.74-.42-1.1a4,4,0,0,1-.32-.61c-.28-1.06-.54-2.14-.77-3.21a2,2,0,0,1,.12-.65c.08.07.2.12.22.2.2.68.38,1.37.57,2a12.7,12.7,0,0,0,.54,1.85c.44.94,1,1.84,1.47,2.75a10,10,0,0,0,.29,1.34c.16.48.45.91.64,1.38a11.2,11.2,0,0,0,3,4.89,4.46,4.46,0,0,1,.63.85,3.35,3.35,0,0,1,1,.36,2.48,2.48,0,0,0,.78.29,8.57,8.57,0,0,0,1.24,0l.17.25.63-1.93h.85c0-.25-.1-.57,0-.63a2.87,2.87,0,0,1,.86-.23l-.4,1.06a4.8,4.8,0,0,1,1.18-.4,9.85,9.85,0,0,0,3.56-.62,2.71,2.71,0,0,1,1.06-.17c.88,0,1.83.8,2.58-.29,0,0,.1,0,.14,0,.42.2.51-.09.68-.38a1.59,1.59,0,0,1,.66-.6A6.79,6.79,0,0,1,30.78,46q-.36-.85.45-1.14a.83.83,0,0,0,1-.59,4.49,4.49,0,0,1,.6-.89,10,10,0,0,0,1.36-2.08c.62-1.84,1.07-3.74,1.58-5.61a3.79,3.79,0,0,0,.11-.66c0-.3,0-.61.06-.91a14.93,14.93,0,0,1,.27-2.23,27.27,27.27,0,0,1,1-2.75l.62-.16c-.06.21-.11.43-.18.64A5.89,5.89,0,0,0,37,31.67c.13,1.29-.68,2.37-.5,3.67a7.77,7.77,0,0,1-.51,2.32,5.11,5.11,0,0,0,0,1l-.31,1.25Z"/><path class="cls-20" d="M7.26,34.26a2,2,0,0,0-.12.65c.23,1.07.49,2.15.77,3.21a4,4,0,0,0,.32.61c.15.36.29.73.42,1.1,0,.14,0,.33.09.45.83,1.26.88,2.77,1.32,4.16.09.29.22.57.31.86.36,1.33.71,2.67,1.09,4,.21.75.49,1.48.71,2.23a9.93,9.93,0,0,0,.24,1.11c.37.89.27,1.87.87,2.76a6.93,6.93,0,0,1,1.22,3.3,4.29,4.29,0,0,0,1,1.88,1,1,0,0,0,.61,1.21,1.26,1.26,0,0,0,.73-.08c.16-.05.27-.23.42-.32.3-.18.77-.17.64-.75,0-.09.33-.27.34-.44A6.48,6.48,0,0,0,18.43,59a13.42,13.42,0,0,0-.22-1.53L18,57.38l1.14-.85.49.74c.09-.22.3-.48.24-.63-.26-.64.19-.78.59-.94s.79-.47,1.2,0a1.14,1.14,0,0,1,.3,1.34c-.23.48-.38.91.3,1.18.16.06.21.38.37.47a2.65,2.65,0,0,0,1.07.4c.37,0,.66-.19.74-.71.13-.82.86-.93,1.55-1,.34-1.19,0-1.53-1.13-1.29a11.8,11.8,0,0,1-1.45.22,3.88,3.88,0,0,1-.89-.2,3.61,3.61,0,0,1,2.63-.7c1,0,2,.38,3,0a5,5,0,0,0,.76-.46l-.49-.62c-.09-.13-.25-.29-.22-.41a.68.68,0,0,1,.34-.35c.32-.15.67-.25,1-.41a.6.6,0,0,0,.3-.31c.54-2,.83-2.26,2.37-4.14a6.06,6.06,0,0,0,1.72-3.57,16.53,16.53,0,0,1,.47-2.77c.1-.47.27-1,.92-1-.13.56-.27,1.12-.37,1.69s-.17,1.37-.29,2-.3,1.5-.48,2.24a13.26,13.26,0,0,1-.5,1.77A4.51,4.51,0,0,1,33,50c-.09.14-.25.31-.23.45a20.35,20.35,0,0,1-.52,4.73,6.65,6.65,0,0,1-.68,1.62c-.07.16-.24.35-.2.48a3.76,3.76,0,0,1-.27,2.14c-.19.67-.39,1-.88,1l-.78,2a.29.29,0,0,1-.17.14l-3.17.38a14.35,14.35,0,0,1-1.61.11c-1,0-1.92-.13-2.88-.08-.67,0-1.33.35-2,.43a24.73,24.73,0,0,1-3.74.24c-1,0-1.53-.92-2.05-1.63a10.9,10.9,0,0,1-1.93-4.78c-.23-1.37-.39-2.75-.63-4.12-.07-.39-.36-.74-.44-1.13-.34-1.62-.65-3.25-.94-4.87A33.89,33.89,0,0,0,8.14,40,38.76,38.76,0,0,1,6.24,33a9.31,9.31,0,0,1-.07-1.5l.62.47v.15l.15.47Z"/><path class="cls-20" d="M35.9,38.62a5.11,5.11,0,0,1,0-1,7.77,7.77,0,0,0,.51-2.32c-.18-1.3.63-2.38.5-3.67a5.89,5.89,0,0,1,.64-2.06c.07-.21.12-.43.18-.64a12.26,12.26,0,0,0,1-1.72c.32-.85,1-1.61.73-2.64h.31c.46,1.13-.19,2-.62,3A19.16,19.16,0,0,0,38,30.5c-.3,1.21-.39,2.48-.62,3.72a15.12,15.12,0,0,1-.43,1.6,3.46,3.46,0,0,0-.47,2.49l-.46.32Z"/><path class="cls-20" d="M4.14,24.61a6.13,6.13,0,0,1-.59-1.68,33.49,33.49,0,0,1,.15-4.48c.17-1.6.58-3.18.74-4.78,0-.5.21-1.18-.34-1.66-.15-.14-.18-.42-.27-.63l.32-.16.15.16a3.88,3.88,0,0,1,.62,1.19c.13.89.11,1.8.16,2.71v.15l-.39.11.23.2c0,.27,0,.53,0,.8A4.52,4.52,0,0,1,4.67,18a5.1,5.1,0,0,0-.58,3.4c0,.19,0,.41,0,.6.11.81.23,1.62.35,2.43Z"/><path class="cls-20" d="M14.26,66l-1.57-.31.63,0a3.23,3.23,0,0,0,2.81-.77h.62c.63.08,1.28.14,1.9.27.23,0,.4.32.62.43a1.68,1.68,0,0,0,.75.23h7.13A4.61,4.61,0,0,1,28,66c-1.06,0-2.11.15-3.17.14C21.28,66.13,17.77,66.06,14.26,66Z"/><path class="cls-16" d="M14.26,66c3.51,0,7,.11,10.53.13,1.06,0,2.11-.09,3.17-.14l2.66-.12c-.12.26-.25.51-.37.76l-1.37-.11c-1.18,0-2.37,0-3.55,0l-8.42-.07-2.79-.26Z"/><path class="cls-19" d="M4.14,24.61l.31-.15c0,.46-.11,1,.47,1.24l.32.78A5.38,5.38,0,0,0,5.66,28a7,7,0,0,1,1.13,3.91l-.62-.47c-.07-.34-.17-.68-.21-1a12.57,12.57,0,0,0-1.52-4.15A2.19,2.19,0,0,1,4.14,24.61Z"/><path class="cls-18" d="M2.59,18.23c.1-.12.21-.23.3-.36s.21-.28.32-.42a14.58,14.58,0,0,1,0,1.62c-.13,1-.32,2-.49,3.07-.16-.58-.31-1.16-.47-1.74.11,0,.31-.07.31-.11C2.58,19.61,2.59,18.92,2.59,18.23Z"/><path class="cls-18" d="M3.21,17.14c0-.85,0-1.72.1-2.57,0-.24.24-.47.36-.7a3.43,3.43,0,0,1,.07.78c-.06.72-.14,1.44-.25,2.16C3.47,16.93,3.31,17,3.21,17.14Z"/><path class="cls-14" d="M3.07,10.31,6,10.4v.21H4.29l-.78-.13Z"/><path class="cls-19" d="M3.51,10.47l.78.13c0,.21-.1.42-.14.62l-.32.16C3.66,11.1,3.19,10.93,3.51,10.47Z"/><path class="cls-16" d="M31.24,65.87l-.19.23-.14-.22Z"/><path class="cls-20" d="M35.44,40.18l.15-.31Z"/><path class="cls-16" d="M2.59,18.23c0,.69,0,1.38,0,2.06,0,0-.2.08-.31.11-.09-.41-.19-.82-.28-1.23.08-.66.18-1.31.25-2,.14-1.25.26-2.49.39-3.74,0-.44.09-.87.14-1.31a8.09,8.09,0,0,1,.41,1.7c0,.43-.34.86-.39,1.31C2.66,16.19,2.64,17.21,2.59,18.23Z"/><path class="cls-5" d="M2.28,12.32l0-.06,0,.05Z"/><path class="cls-21" d="M6,10.61V10.4l.25,0H8.19l.16,0,.49,0h.75l.32,0,.6,0h.33l.07,0,.07,0,.47,0,6.24-.12,2.79.11,3.13-.11,3.44-.12,1.22.29-.62.59-.16.63c-.34,0-.67-.1-.8,0-.43.38-.68,0-1-.15-.15-.08-.33-.3-.43-.26-.64.18-.79-.32-1-.68l-7.62.19c.31.29.44.45.59.56a.9.9,0,0,1,.27,1.41,5.46,5.46,0,0,0-.46.86,6.19,6.19,0,0,1-.52,1.1,2.66,2.66,0,0,0-.15,2.88,7.36,7.36,0,0,1,.78,2c0,.18-.51.48-.78.73-.05.05,0,.15-.05.23h0a6.35,6.35,0,0,0-1.83-.1c-1.09.25-1.56-.46-2.09-1.11-.13-.16-.23-.46-.35-.46-.67,0-.78-.58-1-1s-.45-.72-.65-1l-.89.27.5-.47c.18-.16.49-.28.54-.47a11.9,11.9,0,0,0,.19-1.59l-.59-.09.45-1-.23.09L9.12,12.48l-.37.78-.87-1.72,1.78.29c.42.57,3,.58,3.68-.24-.7-.2-1.34-.43-2-.56-.9-.18-1.82-.3-2.73-.41a9.2,9.2,0,0,0-1,0Z"/><path class="cls-5" d="M8.19,10.42H7a.43.43,0,0,1,0-.11L7.1,10l2.49-.22,1.87.19v.42l-.47,0h-.47l-.6,0-.32,0H8.84l-.49,0-.09-.15Z"/><path class="cls-14" d="M6.94,10.32a.43.43,0,0,0,0,.11H6.27Z"/><path class="cls-6" d="M15,3.45c1.38,0,2.75-.09,4.12-.11a8.83,8.83,0,0,1,1,.11c-.21.15-.54.27-.6.47-.15.5-.47.49-.84.42s-.64-.15-1-.24l-.18,1.52-.7-.3c-.35.7-.65,1.33-1,1.92-.06.12-.29.13-.43.21s-.36.23-.55.35l-.57.37.29.2.29-.57c.68,0,.17.69.46.93l-.78.47H14.1L13.18,9c-.5.61-1.11.52-1.56-.38L12,8.11h-.54c-.45-.33-.45,0-.47.32a3.19,3.19,0,0,1-.87.39c-.88.09-1.28-.59-1.82-1.18l.82-.35L7.43,6.71c-.21-.24.49-1.41-.92-.86l.25-1.39-.59-.14L6,3l1.4.15a4.29,4.29,0,0,0,.8.74c.64.34,1.32.61,2.12,1l.31-.47.63.46c.3-.76.77-.58,1.26-.32,1,.5,1.11.44,1.35-.41C14.2,3.63,15,4.35,15,3.45ZM13.59,8.66l.31,0,0-.74-.31,0Z"/><path class="cls-12" d="M6,3l.16,1.33.59.14L6.51,5.85c1.41-.55.71.62.92.86l1.69.58-.82.35c.54.59.94,1.27,1.82,1.18A3.19,3.19,0,0,0,11,8.43l.47-.32H12l-.38.47c-.18.21-.33.51-.55.61a8.08,8.08,0,0,1-1.31.32c-.55,0-1.1-.09-1.64-.16a.75.75,0,0,1-.47-.2c-.06-.06,0-.27.07-.41l.37-.58L8,8.09l-.23.18c0-.46-.12-.64-.64-.51-.27.06-.82-.11-.88-.29A1.87,1.87,0,0,0,5,6.28a.69.69,0,0,1-.23-.19V5.93l-.31-.16c.14-.48.39-.89-.07-1.44-.24-.29,0-1,.07-1.51Z"/><path class="cls-12" d="M15.35,8.73c-.29-.24.22-.88-.46-.93h0c.19-.12.36-.25.55-.35s.37-.09.43-.21c.34-.59.64-1.22,1-1.92l.7.3.18-1.52c.37.09.69.18,1,.24s.69.08.84-.42c.06-.2.39-.32.6-.47H21l1.09.62-.47.47-.31.15-.4-.35-2.08.78.07.7c-.53,0-1.2,1.88-.93,2.66l-.7-.08.21-.81C16.75,8.28,16.4,9.24,15.35,8.73Z"/><path class="cls-2" d="M15,3.45c0,.9-.84.18-1.16.66-.24.85-.39.91-1.35.41-.49-.26-1-.44-1.26.32l-.63-.46-.31.47c-.8-.36-1.48-.63-2.12-1a4.29,4.29,0,0,1-.8-.74c1.25.07,2.5.19,3.75.22s2.42,0,3.62,0C14.87,3.31,15,3.4,15,3.45Z"/><path class="cls-10" d="M22.05,4.07,21,3.45l3.11.14v0l-1.86.46Z"/><path class="cls-7" d="M4.46,5.77l.31.16v.16A.69.69,0,0,0,5,6.28,1.87,1.87,0,0,1,6.2,7.47c.06.18.61.35.88.29.52-.13.65,0,.64.51h0l-.15.15-.7.6L5.73,8.6c-.35-.47-.6-.78-.82-1.11L4.14,6.25h0l.16-.31h0l.16-.15Z"/><path class="cls-7" d="M9.76,9.51a8.08,8.08,0,0,0,1.31-.32c.22-.1.37-.4.55-.61.45.9,1.06,1,1.56.38l.92.24-.62.75-2,.05L9.59,9.81Z"/><path class="cls-7" d="M7.72,8.27,8,8.09l.14.07-.37.58V8.27Z"/><path class="cls-7" d="M4.14,6.25l-.2-.06,0-.06.16.12Z"/><path class="cls-7" d="M3.57,6s0,0,0,0H3.5V6Z"/><path class="cls-6" d="M2.24,4.84l0,0-.06-.07.05,0S2.22,4.82,2.24,4.84Z"/><path class="cls-12" d="M7.72,8.27v.15H7.57Z"/><path class="cls-8" d="M7.07,9.84l.08-.07,0,0-.09.06Z"/><path class="cls-6" d="M2.58,2.82a3.21,3.21,0,0,0,.19-.31A3.21,3.21,0,0,1,2.58,2.82Z"/><path class="cls-10" d="M4.46,5.78l-.16.15Z"/><path class="cls-10" d="M34.19,3.29l.93.9c-.09.38-.19.76-.28,1.12l-1.42-.2.54.8-1.6.52-.19-.5,0-.06,0,.07c-.28.41-.54.84-.85,1.24-.1.14-.31.2-.47.3-.42-.78-1-.13-1.49-.14a.14.14,0,0,0,0-.06h0l.06.07c.05.26.11.53.16.79-.79,0-1.5.64-2.34.29H27c-.81.25-1.55.9-2.45.25l-.36.49c-.53-.05-1-.07-1.4-.13-.05,0-.08-.19-.11-.3s.05-.32.08-.48l-.27,0h0a.76.76,0,0,0,0-.15l0-.15V7.81l-1-.13-.06.75v.13c0,.11,0,.22,0,.33L21,9.33,20,9.4c-.06-.17-.11-.34-.17-.52.1-.15.21-.43.31-.43.49,0,.7-.3.61-.65A2.06,2.06,0,0,0,20.09,7c-.06-.06-.29.07-.42.1l-.1-1.15a2.6,2.6,0,0,0,.89.17,5,5,0,0,0,1.11-.41l-.16-.54a8.92,8.92,0,0,1,1-.2,6.6,6.6,0,0,0,1,0,10.48,10.48,0,0,0,2.76-.8,2.91,2.91,0,0,1,1.75-.36s.12-.15.18-.23Z"/><path class="cls-11" d="M23.61,10.3l-3.13.11.63-.77c.34.13.67.22.94-.13l.62.16.93.46Z"/><path class="cls-16" d="M23.61,10.3v-.17l.18-.18h.46L26,9.74,27,9.87A.41.41,0,0,0,27,10l0,.2Z"/><path class="cls-8" d="M22.05,9.51c-.27.35-.6.26-.94.13L21,9.33l.45-.44Z"/><path class="cls-5" d="M23.78,10l-.18.18-.93-.46C23.13,9.4,23.6,9.07,23.78,10Z"/><path class="cls-8" d="M22.5,8.11a.76.76,0,0,1,0,.15c-.37.09-.58.72-1.09.3V8.43Z"/><path class="cls-8" d="M22.52,8.27l.27,0c0,.16-.05.32-.08.48Z"/><path class="cls-10" d="M27.18,8.42l-.05.19L27,8.42h.15Z"/><path class="cls-8" d="M35.28,7.49l.06,0-.06,0Z"/><path class="cls-5" d="M24.24,10h0Z"/><path class="cls-7" d="M28.12,3.58c-.06.08-.13.24-.18.23a2.91,2.91,0,0,0-1.75.36,10.48,10.48,0,0,1-2.76.8,6.6,6.6,0,0,1-1,0,8.92,8.92,0,0,0-1,.2l.16.54a5,5,0,0,1-1.11.41,2.6,2.6,0,0,1-.89-.17l.1,1.15c.13,0,.36-.16.42-.1a2.06,2.06,0,0,1,.69.82c.09.35-.12.67-.61.65-.1,0-.21.28-.31.43-.34.08-.73.31-1,.2a3.24,3.24,0,0,0-1.69,0,3.36,3.36,0,0,0-.71.3l-.65.15-.29,0-.95-.32.78-.47c1,.51,1.4-.45,2.09-1.14l-.21.81.7.08c-.27-.78.4-2.61.93-2.66l-.07-.7,2.08-.78.4.35.31-.15.47-.47h.15c.72.56,1.36-.06,2-.16l.93-.46Z"/><path class="cls-7" d="M37.93,3.28l-.16-.14Z"/><path class="cls-11" d="M27.05,10.18l0-.2.31-.28c.33,0,.72-.19,1-.07.73.35,1.45.06,2.15.12,1.35.11,2.68-.19,4-.06a13.68,13.68,0,0,0,1.43,0l.45.45L34,10.29c-.54,0-1.07,0-1.6,0-1.39.05-2.78.13-4.16.19Z"/><path class="cls-16" d="M36.37,10.12l-.45-.45,1.4-.24.92-.19a5.48,5.48,0,0,0,1,.42,7.33,7.33,0,0,0,1.15,0l0,.28Z"/><path class="cls-13" d="M27.34,9.7,27,10a.41.41,0,0,1,0-.11Z"/><path class="cls-9" d="M38.86,8.43l.07-.08a.07.07,0,0,1,0,.05l-.06,0Z"/><path class="cls-9" d="M38.86,8.42l0,.06h0l.07-.06Z"/><path class="cls-22" d="M40.87,10.28l.17.17-.14.16-.33.31-2.33,1.55c-.15.08-.43.14-.43.22a15.63,15.63,0,0,0-.07,3.2,12.42,12.42,0,0,0,1,3c.29.67,0,1.39.15,1.95A4.35,4.35,0,0,1,39,23.06c-.2-.08-.52-.1-.57-.24a4.81,4.81,0,0,1-.35-1.39,14.53,14.53,0,0,0-.93-4.56,3.91,3.91,0,0,1-.44-1.22c0-1.11.07-2.22.12-3.33a15.42,15.42,0,0,0,1.5-.65,9.88,9.88,0,0,0,1.14-.91v-.45Z"/><path class="cls-11" d="M40.9,10.61l.14-.16c.11.41.21.82.32,1.22l-.65.38a25.2,25.2,0,0,1,1.13,6.47V16.47h.29a10.1,10.1,0,0,1,0,1.23c-.13,1.12-.3,2.24-.47,3.35,0,.12-.19.21-.28.31-.06-.42-.11-.84-.17-1.26V18.55a8.17,8.17,0,0,0,0-1c-.17-1-.36-2-.58-3a8.38,8.38,0,0,0-.44-1.18l-.25-1.14C40.45,11.8,41.26,11.56,40.9,10.61Z"/><path class="cls-21" d="M40.87,10.28l-1.38,0H37.93l-2.19.14h-.46L34,10.29l2.34-.17,4-.15Z"/><path class="cls-5" d="M40.28,25.72v-.18a.67.67,0,0,1,.06.12S40.3,25.7,40.28,25.72Z"/><path class="cls-10" d="M16.78,72.71H27.86A24.25,24.25,0,0,1,16.78,72.71Z"/><path class="cls-6" d="M18.15,71.92a3.09,3.09,0,0,1,1-.28c.82,0,1.63.18,2.45.28-.92,0-1.83.08-2.74.1A4.1,4.1,0,0,1,18.15,71.92Z"/><path class="cls-6" d="M23.29,71.92l.62-.15Z"/><path class="cls-6" d="M22.51,71.92l.27-.28.2.28Z"/><path class="cls-9" d="M34.19,70.07l-.07.06.06-.08Z"/><path class="cls-23" d="M39,23.06a4.35,4.35,0,0,0-.08-2.26c-.19-.56.14-1.28-.15-1.95a12.42,12.42,0,0,1-1-3,15.63,15.63,0,0,1,.07-3.2c0-.08.28-.14.43-.22.07.47.33,1,.19,1.41-.37,1,.18,1.77.31,2.64a9.23,9.23,0,0,0,.72,1.91A5.7,5.7,0,0,1,40,19.89c.06.95,0,1.91-.06,2.86,0,.05,0,.1,0,.15-.86.6-1,1.09-.47,1.71.31,1-.41,1.79-.73,2.64a12.26,12.26,0,0,1-1,1.72l-.62.16.15-.63.78-1.4h0l.31-.47c.06-.47.1-.94.18-1.41C38.7,24.5,38.86,23.78,39,23.06Zm.26-2.53s-.1-.06-.13-.05,0,.08-.06.12.1.06.13,0S39.25,20.57,39.27,20.53Z"/><path class="cls-19" d="M40,22.75c0-.95.12-1.91.06-2.86a5.7,5.7,0,0,0-.56-1.46,9.23,9.23,0,0,1-.72-1.91c-.13-.87-.68-1.67-.31-2.64.14-.39-.12-.94-.19-1.41l2.33-1.55c-.32.36-.58.84-1,1.05s-.79.76-.51,1.09c.45.53.2,1.11.36,1.64a33.86,33.86,0,0,1,.71,3.77c.23,1.37.68,2.73.11,4.12Z"/><path class="cls-17" d="M40.26,22.59c.57-1.39.12-2.75-.11-4.12a33.86,33.86,0,0,0-.71-3.77c-.16-.53.09-1.11-.36-1.64-.28-.33,0-.82.51-1.09s.66-.69,1-1.05l.33-.31c.36,1-.45,1.19-1,1.65.08.36.16.75.24,1.14-.11.33-.35.68-.31,1a26.44,26.44,0,0,0,.66,3.06,4.53,4.53,0,0,0,.73,1.11v.3c-.51.32-.09.63,0,.94v.3a12.15,12.15,0,0,1-.33,1.22A13.56,13.56,0,0,1,40.26,22.59Z"/><path class="cls-19" d="M39.48,24.61C39,24,39.09,23.5,40,22.9c0,.16.17.32.14.47-.07.42-.19.83-.3,1.24Z"/><path class="cls-17" d="M36.52,38.31A3.46,3.46,0,0,1,37,35.82,3.47,3.47,0,0,1,36.52,38.31Z"/><path class="cls-17" d="M16.13,64.92a3.23,3.23,0,0,1-2.81.77c.14-.17.26-.45.42-.48C14.53,65.08,15.33,65,16.13,64.92Z"/><path class="cls-15" d="M16.91,66.5l8.42.07c1.18,0,2.37,0,3.55,0v.21l-2.79.07-10.79,0Z"/><path class="cls-14" d="M15.28,66.79l-.25,0-1.94-.09v-.21c.66,0,1.32,0,2,0C15.15,66.53,15.21,66.7,15.28,66.79Z"/><path class="cls-12" d="M24.23,3.91c-.67.1-1.31.72-2,.16l1.86-.46Z"/><path class="cls-14" d="M28.89,66.75v-.21l1.37.11Z"/><path class="cls-14" d="M30.61,67.39l0-.19.29.07Z"/><path class="cls-14" d="M16.6,67.78l-.13.18a.84.84,0,0,1-.15-.18s.08-.12.12-.13S16.54,67.73,16.6,67.78Z"/><path class="cls-11" d="M12.67,67.8l-.22-.06.26-.17Z"/><path class="cls-11" d="M12.71,67.57l.24-.12Z"/><path class="cls-22" d="M37.3,28.5l-.15.63a27.27,27.27,0,0,0-1,2.75,14.93,14.93,0,0,0-.27,2.23c-.14.07-.38.12-.4.22a15.72,15.72,0,0,1-.42,2.5,21.86,21.86,0,0,1-1.64,3.66,4,4,0,0,1-2.61,1.58c-.85.26-1.66.6-2.17-.52,0-.09-.34-.14-.49-.1a3.71,3.71,0,0,1-2.8-.61,3.33,3.33,0,0,0-1.55-.29c-.22,0-.46,0-.68,0-.73-.11-1.46-.27-2.2-.35-.15,0-.37.15-.5.29-.32.35-.59.75-.92,1.09-.14.13-.48.25-.59.17-.46-.33-.74-.11-1.08.19a1.26,1.26,0,0,1-2,0,.72.72,0,0,0-.48-.18c-.74.2-1.07-.25-1.31-.82a1.54,1.54,0,0,1-1.86-.42,16.22,16.22,0,0,0-2-2.11,2.57,2.57,0,0,1-1-1.76,5.29,5.29,0,0,0-1.12-2.42,1,1,0,0,1-.2-.46c-.22-1.07-.4-2.14-.65-3.2a12,12,0,0,0-2-4.13l-.32-.78c-.07-.61-.15-1.22-.21-1.83s-.1-1-.1-1.5c0-.33.11-.65.14-1,.06-.57,0-1.15.14-1.7.18-.83.51-1.62.67-2.45s.93-1.75.36-2.77c-.06-.1,0-.3.11-.44a.62.62,0,0,0-.33-.95l.07-.66-.72-.5-.75-.55-.15-.16c0-.2.09-.41.14-.62h.63a1.55,1.55,0,0,0,1.49,1.22v.44l.34-.15c.12.4.24.77.36,1.14a2.4,2.4,0,0,0-.24.41c.78.62.28,1.27.08,1.91-.1.31-.23.6-.33.91-.2.55-.43,1.09-.58,1.66-.22.85-.39,1.71-.55,2.57a12.29,12.29,0,0,0-.34,2.39,7.15,7.15,0,0,0,.42,2.33,17.61,17.61,0,0,0,1.15,2.35,18.77,18.77,0,0,1,1.36,2.43c.37,1.05.47,2.18.75,3.27A13.6,13.6,0,0,0,9.44,35l.31.31.15.47a19.7,19.7,0,0,0,.58,1.89,1.62,1.62,0,0,0,2.09,1.07,7.06,7.06,0,0,0,1.1-.48c.33-.14.67-.34.87.21a1.27,1.27,0,0,0,.4.59,7.48,7.48,0,0,0,1.25.74c.28.12.76.29.91.16.47-.4,1.36-.54,1.09-1.53a2,2,0,0,1,1.21-2c.14-.06.33-.09.41-.2.65-.84,1.5-.54,2.33-.46a8,8,0,0,0,2.75.1c.78-.21.83,0,.9.58s.22.81.78.78,1.11-.06,1.17.73c0,.1.23.24.37.26,1,.19,1.59,1.32,2.8,1.17.52-.07,1.91-.18,2.29-.61a2,2,0,0,0,.65-1.3,5.11,5.11,0,0,1,.67-1.6c.2-.48,0-1.12.62-1.42.07,0,.1-.23.11-.35a11.72,11.72,0,0,1,.53-3.78A2.62,2.62,0,0,1,37.3,28.5Z"/><path class="cls-24" d="M5.24,26.48a12,12,0,0,1,2,4.13c.25,1.06.43,2.13.65,3.2a1,1,0,0,0,.2.46,5.29,5.29,0,0,1,1.12,2.42,2.57,2.57,0,0,0,1,1.76,16.22,16.22,0,0,1,2,2.11,1.54,1.54,0,0,0,1.86.42c.24.57.57,1,1.31.82a.72.72,0,0,1,.48.18,1.26,1.26,0,0,0,2,0c.34-.3.62-.52,1.08-.19.11.08.45,0,.59-.17.33-.34.6-.74.92-1.09.13-.14.35-.31.5-.29.74.08,1.47.24,2.2.35.22,0,.46,0,.68,0a3.33,3.33,0,0,1,1.55.29,3.71,3.71,0,0,0,2.8.61c.15,0,.45,0,.49.1.51,1.12,1.32.78,2.17.52a4,4,0,0,0,2.61-1.58,21.86,21.86,0,0,0,1.64-3.66,15.72,15.72,0,0,0,.42-2.5c0-.1.26-.15.4-.22,0,.3,0,.61-.06.91a3.79,3.79,0,0,1-.11.66c-.51,1.87-1,3.77-1.58,5.61a10,10,0,0,1-1.36,2.08,4.49,4.49,0,0,0-.6.89.83.83,0,0,1-1,.59,4.42,4.42,0,0,0-.81-.7,10,10,0,0,0-1.23-.49l-6,.4c-.19-.38-1.6-.62-1.89-.16-.62,1-1.67.59-2.32.9-.35.71-.63,1.35-1,2-.5,1-1,1.9-1.66,3-.53-1.19-1.68-1.89-1.81-3.34-.66.15-.44-.69-.77-.89-.71-.44-.76-1.2-1.13-1.79a2.38,2.38,0,0,0-.51-.62,9.5,9.5,0,0,1-.81-.54c-.46-.47-.87-1-1.3-1.51-.5-.91-1-1.81-1.47-2.75a12.7,12.7,0,0,1-.54-1.85c-.19-.68-.37-1.37-.57-2,0-.08-.14-.13-.22-.2l-.32-1.71-.15-.47v-.15A7,7,0,0,0,5.66,28,5.38,5.38,0,0,1,5.24,26.48Z"/><path class="cls-23" d="M10.06,41.11c.43.51.84,1,1.3,1.51a9.5,9.5,0,0,0,.81.54,2.38,2.38,0,0,1,.51.62c.37.59.42,1.35,1.13,1.79.33.2.11,1,.77.89.13,1.45,1.28,2.15,1.81,3.34.62-1.13,1.16-2.07,1.66-3,.33-.62.61-1.26,1-2,.65-.31,1.7.1,2.32-.9.29-.46,1.7-.22,1.89.16l6-.4a10,10,0,0,1,1.23.49,4.42,4.42,0,0,1,.81.7q-.81.28-.45,1.14a6.79,6.79,0,0,0-1.23.27,1.59,1.59,0,0,0-.66.6c-.17.29-.26.58-.68.38,0,0-.13-.05-.14,0-.75,1.09-1.7.32-2.58.29a2.71,2.71,0,0,0-1.06.17,9.85,9.85,0,0,1-3.56.62,4.8,4.8,0,0,0-1.18.4l.4-1.06a2.87,2.87,0,0,0-.86.23c-.08.06,0,.38,0,.63H18.4l-.63,1.93-.17-.25a8.57,8.57,0,0,1-1.24,0,2.48,2.48,0,0,1-.78-.29,3.35,3.35,0,0,0-1-.36,4.46,4.46,0,0,0-.63-.85,11.2,11.2,0,0,1-3-4.89c-.19-.47-.48-.9-.64-1.38A10,10,0,0,1,10.06,41.11Z"/><path class="cls-19" d="M6.79,32.08l.15.47Z"/><path class="cls-23" d="M5.7,13.09A.62.62,0,0,1,6,14c-.07.14-.17.34-.11.44.57,1-.18,1.86-.36,2.77s-.49,1.62-.67,2.45c-.11.55-.08,1.13-.14,1.7,0,.32-.14.64-.14,1,0,.5,0,1,.1,1.5s.14,1.22.21,1.83c-.58-.26-.46-.78-.47-1.24-.12-.81-.24-1.62-.35-2.43,0-.19,0-.41,0-.6A5.1,5.1,0,0,1,4.67,18a4.52,4.52,0,0,0,.2-1.49c0-.27,0-.53,0-.8l.16-.31v-.15c.46,0,.45-.28.47-.61C5.58,14.14,5.65,13.62,5.7,13.09Z"/><path class="cls-19" d="M5.7,13.09c0,.53-.12,1.05-.15,1.58,0,.33,0,.64-.47.61,0-.91,0-1.82-.16-2.71a3.88,3.88,0,0,0-.62-1.19l.75.55.72.5Z"/><path class="cls-19" d="M5.08,15.43l-.16.31-.23-.2Z"/><path class="cls-25" d="M7.11,13.25l-.36-1.14-.34.15v-.44A1.55,1.55,0,0,1,4.92,10.6H7.56l.32.92.87,1.72.37-.78,1.18,1.14.23-.09-.45,1,.59.09a11.9,11.9,0,0,1-.19,1.59c-.05.19-.36.31-.54.47l-.5.47a1.73,1.73,0,0,1,.09.53c-.12.53-.12,1.27-.46,1.52a5.58,5.58,0,0,0-1.74,2.38c0,.11,0,.36.07.41.54.35.23.61-.05.92a1.52,1.52,0,0,0-.45,1.21,5.13,5.13,0,0,0,.55,2c.41.92.69,1.85,1.75,2.22,0,0,.05.09.08.13a1.52,1.52,0,0,0,2.36.38c.06,0,.13-.12.19-.11.84,0,1.68.1,2.51.05,1-.05,2-.22,3.14-.35l.73.27.1-.21-.52-1,1-.18.3,1,.78.93-1.62.17L18.17,29H18a7.55,7.55,0,0,0-.13.83c-.06.55-.43.85-.88.59a2.18,2.18,0,0,0-2.68.3l.68.9-1.84,1.61a.44.44,0,0,1-.22.07,2,2,0,0,0-1.57,1.22c-.21.5-.47.4-1,0l.75-.24c-1.23-.68-1.1-1.7-1.17-2.64,0-.18,0-.43-.06-.52-.77-.68-.59-1.92-1.62-2.52-.83-.47-.93-1.64-1.51-2.33-1-1.16-.67-2.44-.65-3.69a6.26,6.26,0,0,1,.46-1.69,24.59,24.59,0,0,0,.87-2.68c.22-1.17.28-2.37.4-3.55,0-.4.06-.81.09-1.27Z"/><path class="cls-26" d="M19.09,28.35l-.3-1-1,.18.52,1-.1.21-.73-.27c-1.14.13-2.14.3-3.14.35-.83.05-1.67,0-2.51-.05-.06,0-.13.06-.19.11a1.52,1.52,0,0,1-2.36-.38s0-.12-.08-.13c-1.06-.37-1.34-1.3-1.75-2.22a5.13,5.13,0,0,1-.55-2,1.52,1.52,0,0,1,.45-1.21c.28-.31.59-.57.05-.92-.09-.05-.12-.3-.07-.41a5.58,5.58,0,0,1,1.74-2.38c.34-.25.34-1,.46-1.52a1.73,1.73,0,0,0-.09-.53l.89-.27c.2.31.43.67.65,1s.37,1,1,1c.12,0,.22.3.35.46.53.65,1,1.36,2.09,1.11a6.35,6.35,0,0,1,1.83.1c0,.33,0,.94.05,1a7,7,0,0,0,1.38,0l0-.19,1.8,1.38-.07.85.58-.73.66.31.94-.71.1,1.15H22l.31-1.73a2.74,2.74,0,0,1,.84.38c.81.85.79.86,1.65.11l-.54-1.07c.88-.34,1.69-.64,2.49-1a1.14,1.14,0,0,0,.41-.32c.39-.44.59-.35.64.21l-.22,0,.12.83.24,0c0-.27-.08-.55-.14-.83l.76,0-.25-1c.65-.14,1.37-.08,1.69-.41a3.11,3.11,0,0,1,2.49-1.06c1,0,1.77.87,2.8.52.05,0,.16.07.19.13A29.36,29.36,0,0,1,36.81,21a9.29,9.29,0,0,1,.48,2.1,16.61,16.61,0,0,1,.13,2.34A9.39,9.39,0,0,1,37.15,27v.15l-.92.49c-.54.3-.07.86-.33,1.22l-.47.63A20.79,20.79,0,0,0,33,30.73c-.94.41-1.71,1-2.79.6.11-1.21-1-2-2.4-1.55.1-.79-.46-.89-1-.9a11,11,0,0,0-1.24.14c.05-1.06-.08-1.17-.91-.82-.11.05-.28.13-.36.08-.63-.4-1.29-.1-1.94-.09a4.43,4.43,0,0,0-.17-.74,7.37,7.37,0,0,0-.59-.89l-.31,1c-.53-.48-.93-.56-1.17.19,0,.09-.23.13-.36.2Zm10.35-1.7a7.48,7.48,0,0,1,.86.38,25.05,25.05,0,0,0,2.49,1.66,1.35,1.35,0,0,0,1.85-.44c.38-.63.81-1.22,1.24-1.81A2.9,2.9,0,0,0,34.1,22a4.91,4.91,0,0,0-4.44,1l.93.57c-.3.27-.5.62-.75.65-.52.06-.64.3-.65.76a2.25,2.25,0,0,1-.16.69Zm-2.08,1.67c-.13-.11-.2-.2-.28-.22s-.18.13-.17.18a.31.31,0,0,0,.18.19C27.15,28.48,27.24,28.39,27.36,28.32ZM21.67,24l-.13-.06s-.06.1-.05.13.08,0,.12.06Z"/><path class="cls-25" d="M27.81,20.25c0-.56-.25-.65-.64-.21a1.14,1.14,0,0,1-.41.32c-.8.32-1.61.62-2.49,1l.54,1.07c-.86.75-.84.74-1.65-.11a2.74,2.74,0,0,0-.84-.38L22,23.63h-.26l-.1-1.15-.94.71-.66-.31-.58.73.07-.85-1.8-1.38,0,.19a7,7,0,0,1-1.38,0c-.09,0,0-.63-.05-1h0c1.41,0,1.23.16,1.24-1.23a9,9,0,0,1,0-1.16c.11-.61.3-1.21.46-1.82.58.19.49.55.22,1l.44.22-.21,1.81.23,0a3.52,3.52,0,0,1,.22-.62c.39-.73.74-.32,1.26,0l-.71.32.37.57.06-.18,1.64.24L23.6,19l0,1,.32-.09L23.6,19a6.82,6.82,0,0,0,1.2-.81c.34-.37.57-.78,1.18-.48.07,0,.29-.27.45-.41l.22-.14v.53l.21.11.76-1.16a2,2,0,0,0,.71.22,2.34,2.34,0,0,0,1-.26c.09,0,.12-.45,0-.58-.39-.53-.85-1-1.11-1.33l-1.78-.2,0-.47.71-.4-.78-.75c-.19.12-.54.37-.9.59a.53.53,0,0,1-.44,0c-.54-.27-1.06-.58-1.6-.88l-.35.48L22.88,13l.26-1.18a1.27,1.27,0,0,0,1.09-1.23c.25.36.4.86,1,.68.1,0,.28.18.43.26.31.18.56.53,1,.15.13-.12.46,0,.8,0l.16-.63.31.32c0,1,.19,1.08,1.15,1a6.37,6.37,0,0,1,2.56-.08c.73.23,1.42.14,2.14.33v-.75c.54.77.84.81,1.56.3a1.8,1.8,0,0,1,.46-.23c.6-.17,1.2-.29,1.79-.48s1.24-.44,1.86-.67a9.88,9.88,0,0,1-1.14.91,15.42,15.42,0,0,1-1.5.65,1.49,1.49,0,0,0-1.38,1.48,14.17,14.17,0,0,0-.07,2.35,2.78,2.78,0,0,0,.37,1.14,11.37,11.37,0,0,1,.92,1.56c.34,1.15.53,2.34.78,3.52.19.89.39,1.78.52,2.68a1.85,1.85,0,0,1-.83,1.9,9.39,9.39,0,0,0,.27-1.48,16.61,16.61,0,0,0-.13-2.34,9.29,9.29,0,0,0-.48-2.1,29.36,29.36,0,0,0-1.32-2.63c0-.06-.14-.14-.19-.13-1,.35-1.82-.5-2.8-.52A3.11,3.11,0,0,0,30,18.81c-.32.33-1,.27-1.69.41l.25,1Zm-8.47-.58s0-.11-.05-.12-.09,0-.13,0,0,.12.05.13S19.3,19.69,19.34,19.67Zm5.29-.46c0-.05,0-.11-.05-.13s-.08,0-.13.05,0,.11.06.12S24.59,19.22,24.63,19.21Z"/><path class="cls-26" d="M24.23,10.62a1.27,1.27,0,0,1-1.09,1.23c-.44.27-.75.87-1.41.5,0,0-.14.06-.2.11-.67.51-1.2.23-1.64-.35l-1.37,1.44v-.86l-.27,0a9.21,9.21,0,0,0-.25,3.7c-.16.61-.35,1.21-.46,1.82a9,9,0,0,0,0,1.16c0,1.39.17,1.21-1.24,1.23,0-.08,0-.18.05-.23.27-.25.82-.55.78-.73a7.36,7.36,0,0,0-.78-2,2.66,2.66,0,0,1,.15-2.88,6.19,6.19,0,0,0,.52-1.1,5.46,5.46,0,0,1,.46-.86.9.9,0,0,0-.27-1.41c-.15-.11-.28-.27-.59-.56Z"/><path class="cls-27" d="M28,11.38l-.31-.32.62-.59c1.38-.06,2.77-.14,4.16-.19.53,0,1.06,0,1.6,0l1.25.17c-.11.89-.83,1.13-1.85.62,0,.23,0,.46-.08.83l-2.5-.84,0,.12A6.24,6.24,0,0,0,29.48,11,9.34,9.34,0,0,0,28,11.38Zm4-.68-.15,0,0,.28h.07Z"/><path class="cls-27" d="M7.88,11.54l-.32-.92a9.2,9.2,0,0,1,1,0c.91.11,1.83.23,2.73.41.66.13,1.3.36,2,.56-.71.82-3.26.81-3.68.24Z"/><path class="cls-5" d="M21,9.33l.15.31-.63.77-2.79-.11-.33-.24-.28-.21a6,6,0,0,1,.85,0A2.83,2.83,0,0,0,20,9.4Z"/><path class="cls-18" d="M17.08,9.85l.28.21.33.24-6.24.12c0-.14,0-.28,0-.42l2-.05,1.25,0a1.74,1.74,0,0,0,2-.14Z"/><path class="cls-18" d="M8.84,10.37h0Z"/><path class="cls-18" d="M9.91,10.4l.6,0Z"/><path class="cls-18" d="M8.19,10.42l.07-.18.09.15Z"/><path class="cls-18" d="M10.84,10.39H11l-.07,0Z"/><path class="cls-10" d="M14.73,10l-1.25,0,.62-.75h.47l.95.32v.17Z"/><path class="cls-12" d="M13.59,8.66l.05-.74.31,0,0,.74Z"/><path class="cls-12" d="M14.89,7.8l-.29.57-.29-.2.57-.37Z"/><path class="cls-7" d="M11.46,8.11,11,8.43C11,8.11,11,7.78,11.46,8.11Z"/><path class="cls-10" d="M4.77,6.09v0Z"/><path class="cls-10" d="M21.58,4.54l-.31.15Z"/><path class="cls-8" d="M17.08,9.85h-.34l-.45-.19.17-.31a3.36,3.36,0,0,1,.71-.3,3.24,3.24,0,0,1,1.69,0c.27.11.66-.12,1-.2.06.18.11.35.17.52a2.83,2.83,0,0,1-2.1.41A6,6,0,0,0,17.08,9.85Z"/><path class="cls-9" d="M22.5,8.11l-1.08.32.06-.75,1,.13a.76.76,0,0,0,0,.15Z"/><path class="cls-8" d="M29.36,7.34l-.06-.07h0a.14.14,0,0,1,0,.06Z"/><path class="cls-8" d="M22.52,8a.76.76,0,0,1,0-.15Z"/><path class="cls-8" d="M32.17,5.94l0-.07,0,.06Z"/><path class="cls-9" d="M27.18,8.43h0Z"/><path class="cls-10" d="M16.46,9.35l-.17.31L16,9.72l-.17-.22Z"/><path class="cls-8" d="M15.81,9.5l.17.22-.46,0V9.52Z"/><path class="cls-28" d="M37.15,27a1.85,1.85,0,0,0,.83-1.9c-.13-.9-.33-1.79-.52-2.68-.25-1.18-.44-2.37-.78-3.52a11.37,11.37,0,0,0-.92-1.56,2.78,2.78,0,0,1-.37-1.14,14.17,14.17,0,0,1,.07-2.35,1.49,1.49,0,0,1,1.38-1.48c-.05,1.11-.14,2.22-.12,3.33a3.91,3.91,0,0,0,.44,1.22,14.53,14.53,0,0,1,.93,4.56,4.81,4.81,0,0,0,.35,1.39c.05.14.37.16.57.24-.15.72-.31,1.44-.44,2.16-.08.47-.12.94-.18,1.41l-.31.47h0L37.3,28h-.15V27Z"/><path class="cls-26" d="M28,11.38A9.34,9.34,0,0,1,29.48,11a6.24,6.24,0,0,1,1.33.18l0-.12,2.5.84c0-.37.06-.6.08-.83,1,.51,1.74.27,1.85-.62h.46c0,.29-.22.73-.1.83.3.26,1.43,0,1.78-.31a5.52,5.52,0,0,0,.51-.66h1.56c0,.15,0,.3,0,.45-.62.23-1.23.47-1.86.67s-1.19.31-1.79.48a1.8,1.8,0,0,0-.46.23c-.72.51-1,.47-1.56-.3v.75c-.72-.19-1.41-.1-2.14-.33a6.37,6.37,0,0,0-2.56.08C28.15,12.46,28,12.37,28,11.38Z"/><path class="cls-18" d="M41.19,18.55a4.53,4.53,0,0,1-.73-1.11,26.44,26.44,0,0,1-.66-3.06c0-.3.2-.65.31-1a7.34,7.34,0,0,1,.45,1.18c.22,1,.41,2,.58,3A8.17,8.17,0,0,1,41.19,18.55Z"/><path class="cls-18" d="M41.2,19.79c-.1-.31-.52-.62,0-.94C41.19,19.16,41.2,19.48,41.2,19.79Z"/><path class="cls-27" d="M37.93,10.31a5.52,5.52,0,0,1-.51.66c-.35.33-1.48.57-1.78.31-.12-.1.06-.54.1-.83Z"/><path class="cls-22" d="M37.3,28l.78-.94-.78,1.4h0Z"/><path class="cls-22" d="M38.08,27.1l.31-.47Z"/><path class="cls-22" d="M39.27,20.53s0,.11-.06.12-.08,0-.13,0,0-.11.06-.12S39.23,20.51,39.27,20.53Z"/><path class="cls-29" d="M37.3,28v.46a2.62,2.62,0,0,0-1.52,1.82,11.72,11.72,0,0,0-.53,3.78c0,.12,0,.31-.11.35-.61.3-.42.94-.62,1.42a5.11,5.11,0,0,0-.67,1.6,2,2,0,0,1-.65,1.3c-.38.43-1.77.54-2.29.61-1.21.15-1.79-1-2.8-1.17-.14,0-.36-.16-.37-.26-.06-.79-.61-.77-1.17-.73s-.72-.34-.78-.78-.12-.79-.9-.58a8,8,0,0,1-2.75-.1c-.83-.08-1.68-.38-2.33.46-.08.11-.27.14-.41.2a2,2,0,0,0-1.21,2c.27,1-.62,1.13-1.09,1.53-.15.13-.63,0-.91-.16a7.48,7.48,0,0,1-1.25-.74,1.27,1.27,0,0,1-.4-.59c-.2-.55-.54-.35-.87-.21a7.06,7.06,0,0,1-1.1.48,1.62,1.62,0,0,1-2.09-1.07,19.7,19.7,0,0,1-.58-1.89,4.89,4.89,0,0,1,.64.34l1.57,1.15,2.15-1.74,2.28.66a.85.85,0,0,0,.06.31c.2.24.39.6.63.63s.55-.29.65-.53c.22-.56.31-1.17.49-1.75a9.91,9.91,0,0,1,.76-2.1c.39-.68.44-1.66,1.24-1.85l.59-.88.62-.62h.31c.4.88.44.88,1.43.47a.63.63,0,0,1,.54,0c.53.4.88.23,1.21-.48-.07,1.22.83.72,1.2,1a25.07,25.07,0,0,0,.65,2.87,24.35,24.35,0,0,0,1.29,2.63c.44-.9.71-.93,1.21-.33a5.43,5.43,0,0,0,.82.84c.79.63,1.06.57,1.83-.22l-.13.94a1.64,1.64,0,0,0,.82-.62c.12-.17.08-.54.22-.62,1-.54,1.07-1.62,1.31-2.51.34-1.21,0-2.6,1.09-3.6.07-.06,0-.24,0-.37l.47-.63L37.15,28Z"/><path class="cls-28" d="M21,30.06l-.59.88c-.8.19-.85,1.17-1.24,1.85a9.91,9.91,0,0,0-.76,2.1c-.18.58-.27,1.19-.49,1.75-.1.24-.46.56-.65.53s-.43-.39-.63-.63a.85.85,0,0,1-.06-.31l-2.28-.66-2.15,1.74-1.57-1.15a4.89,4.89,0,0,0-.64-.34l-.15-.47L9.44,35a13.6,13.6,0,0,1-.61-1.56c-.28-1.09-.38-2.22-.75-3.27a18.77,18.77,0,0,0-1.36-2.43,17.61,17.61,0,0,1-1.15-2.35,7.15,7.15,0,0,1-.42-2.33,12.29,12.29,0,0,1,.34-2.39c.16-.86.33-1.72.55-2.57.15-.57.38-1.11.58-1.66.1-.31.23-.6.33-.91.2-.64.7-1.29-.08-1.91a2.4,2.4,0,0,1,.24-.41l.77.17c0,.46,0,.87-.09,1.27-.12,1.18-.18,2.38-.4,3.55a24.59,24.59,0,0,1-.87,2.68,6.26,6.26,0,0,0-.46,1.69c0,1.25-.32,2.53.65,3.69.58.69.68,1.86,1.51,2.33,1,.6.85,1.84,1.62,2.52.1.09.05.34.06.52.07.94-.06,2,1.17,2.64l-.75.24c.55.39.81.49,1,0a2,2,0,0,1,1.57-1.22.44.44,0,0,0,.22-.07L15,31.64l-.68-.9a2.18,2.18,0,0,1,2.68-.3c.45.26.82,0,.88-.59A7.55,7.55,0,0,1,18,29h.19l.08.43,1.62-.17.62.15Z"/><path class="cls-29" d="M9.44,35l.31.31Z"/><path class="cls-21" d="M20.49,29.43l-.62-.15-.78-.93.67-.37c.13-.07.33-.11.36-.2.24-.75.64-.67,1.17-.19l.31-1a7.37,7.37,0,0,1,.59.89,4.43,4.43,0,0,1,.17.74v.47l-.63.78h-.15C21.22,28.89,20.85,29.42,20.49,29.43Z"/><path class="cls-25" d="M22.36,28.66v-.47c.65,0,1.31-.31,1.94.09.08,0,.25,0,.36-.08.83-.35,1-.24.91.82a11,11,0,0,1,1.24-.14c.56,0,1.12.11,1,.9,1.39-.42,2.51.34,2.4,1.55,1.08.43,1.85-.19,2.79-.6a20.79,20.79,0,0,1,2.41-1.29c0,.13,0,.31,0,.37-1.06,1-.75,2.39-1.09,3.6-.24.89-.3,2-1.31,2.51-.14.08-.1.45-.22.62a1.64,1.64,0,0,1-.82.62l.13-.94c-.77.79-1,.85-1.83.22a5.43,5.43,0,0,1-.82-.84c-.5-.6-.77-.57-1.21.33a24.35,24.35,0,0,1-1.29-2.63,25.07,25.07,0,0,1-.65-2.87c-.37-.25-1.27.25-1.2-1-.33.71-.68.88-1.21.48a.63.63,0,0,0-.54,0c-1,.41-1,.41-1.43-.47ZM31,36.38s.06-.09.05-.12-.08,0-.12-.06-.07.09-.05.13S30.92,36.37,31,36.38Z"/><path class="cls-27" d="M29.44,26.65,29,25.72a2.25,2.25,0,0,0,.16-.69c0-.46.13-.7.65-.76.25,0,.45-.38.75-.65l-.93-.57a4.91,4.91,0,0,1,4.44-1,2.9,2.9,0,0,1,1.78,4.42c-.43.59-.86,1.18-1.24,1.81a1.35,1.35,0,0,1-1.85.44A25.05,25.05,0,0,1,30.3,27,7.48,7.48,0,0,0,29.44,26.65Z"/><path class="cls-25" d="M37.15,28l-1.25.77c.26-.36-.21-.92.33-1.22l.92-.49Z"/><path class="cls-25" d="M27.82,20.25l.13.83-.24,0-.12-.83Z"/><path class="cls-25" d="M27.36,28.32c-.12.07-.21.16-.27.15a.31.31,0,0,1-.18-.19c0-.05.12-.18.17-.18S27.23,28.21,27.36,28.32Z"/><path class="cls-25" d="M21.67,24l-.06.13s-.11,0-.12-.06,0-.09.05-.13Z"/><path class="cls-28" d="M18,16.36a9.21,9.21,0,0,1,.25-3.7l.27,0v.86l1.37-1.44c.44.58,1,.86,1.64.35.06-.05.16-.13.2-.11.66.37,1-.23,1.41-.5L22.88,13l.17.08.35-.48c.54.3,1.06.61,1.6.88a.53.53,0,0,0,.44,0c.36-.22.71-.47.9-.59l.78.75L26,14.28c0-.14.64-.23.42-1-.09.53-1.15.25-.42,1,.43-.08.44.1.45.22l1.78.2c.26.31.72.8,1.11,1.33.09.13.06.54,0,.58a2.34,2.34,0,0,1-1,.26,2,2,0,0,1-.71-.22l-.76,1.16-.21-.11v-.53l-.22.14c-.16.14-.38.44-.45.41-.61-.3-.84.11-1.18.48a6.82,6.82,0,0,1-1.2.81h0l-2.08.75-1.64-.24-.06.18-.37-.57.71-.32c-.52-.36-.87-.77-1.26,0a3.52,3.52,0,0,0-.22.62l-.23,0,.21-1.81-.44-.22C18.49,16.91,18.58,16.55,18,16.36Z"/><path class="cls-28" d="M23.6,19l.37.91-.32.09,0-1Z"/><path class="cls-28" d="M19.34,19.67s-.1.06-.13,0,0-.08-.05-.13.1-.05.13,0S19.32,19.63,19.34,19.67Z"/><path class="cls-28" d="M24.63,19.21s-.09.06-.12,0,0-.08-.06-.12.1-.06.13-.05S24.62,19.16,24.63,19.21Z"/><path class="cls-26" d="M31.93,10.7l-.11.24h-.07l0-.28Z"/><path class="cls-5" d="M15.52,9.69l.46,0,.31-.06.45.19a1.74,1.74,0,0,1-2,.14Z"/><path class="cls-25" d="M20.49,29.43c.36,0,.73-.54,1.09,0l-.62.62Z"/><path class="cls-26" d="M22.36,28.66l-.47.78h-.16Z"/><path class="cls-29" d="M31,36.38s-.11,0-.12-.05,0-.09.05-.13.11,0,.12.06S31,36.34,31,36.38Z"/><path class="cls-25" d="M25.57,14.53c-.31-1,.75-.69.84-1.22C26.63,14.05,26,14.14,25.57,14.53Z"/></g></g></svg>