<svg viewBox="0 0 53.69 140.82" xmlns="http://www.w3.org/2000/svg" xmlns:xlink="http://www.w3.org/1999/xlink"><clipPath id="a" transform="translate(-6.98 -5.54)"><path d="m-35.46-53.35h123v265h-123z"/></clipPath><g clip-path="url(#a)"><path d="m20.44 7.1 1.32-.52 4.73-.11a2.59 2.59 0 0 1 1.12.07 6.29 6.29 0 0 0 5.15.13 12.12 12.12 0 0 1 3.43-.36c2-.11 4-.17 6-.26.93 0 1.71.21 1.86 1.32a1.89 1.89 0 0 0 -.65.09c-.59.38-2.12-.13-1.63 1.24.37 1 1.33.05 2 0 1.52-.13 3-.22 4.55-.33v.48a25.48 25.48 0 0 0 -2.76.4c-1.56.42-3.16.91-4 2.47a1.62 1.62 0 0 1 -1.79 1c-2.1-.14-4.2-.27-6.3-.33a1.13 1.13 0 0 0 -.85.58 6.8 6.8 0 0 0 -.3 1.65l2-.31a3.34 3.34 0 0 1 .85-.16c2 .23 4 .82 6.08-.06.18-.08.48.17.73.18h2.38c.24 0 .49-.23.72-.2a4.74 4.74 0 0 1 4.19 3.86l-1.06-.22c-.23-.35-.46-1-.71-1-.77 0-1.45.26-1.39 1.26a12.37 12.37 0 0 1 -1.8.25c-2.58 0-5.15 0-7.73 0a1.57 1.57 0 0 1 2.14-.7c1.67.73 2.6 0 2.46-2a11.9 11.9 0 0 0 -1.62.29 10.57 10.57 0 0 1 -6.73.4c-1.56-.49-2.36-.07-2.57 1.36h-2.26v-.19l1.7-.85-2.37-1.53 2.16-.72a1.41 1.41 0 0 0 -2.16-.52 6.31 6.31 0 0 1 -5.43.59 23.24 23.24 0 0 0 -4.37-.61l.16-.88-1.23-.41c1.07-1.39 4.29-2 6.39-1.3l-2.61 1.22v.42c.44 0 1.16.17 1.29 0 .47-.76 1-.63 1.69-.43a1.12 1.12 0 0 0 1-.18c.92-1 2-.84 3.14-.59a23.72 23.72 0 0 0 2.8.29l.09-.44c-1.55-.89-3.07-1.83-4.66-2.65a4.29 4.29 0 0 0 -1.8-.28c-.4 0-1 0-1.19.28-1.69 2.38-4.31.64-6.35 1.56a9.88 9.88 0 0 1 1.94-1.43c.81-.59 1.5-1.22 2.25-1.82z" fill="#f5f0ea" transform="translate(-6.98 -5.54)"/><path d="m49.28 17.93a4.74 4.74 0 0 0 -4.19-3.86c-.23 0-.48.19-.72.2-.79 0-1.59 0-2.38 0-.25 0-.55-.26-.73-.18-2 .88-4 .29-6.08.06a3.34 3.34 0 0 0 -.85.16l-2 .31a6.8 6.8 0 0 1 .3-1.65 1.13 1.13 0 0 1 .85-.58c2.1.06 4.2.19 6.3.33a1.62 1.62 0 0 0 1.79-1c.82-1.56 2.42-2.05 4-2.47a25.48 25.48 0 0 1 2.76-.4v-.48c-1.51.11-3 .2-4.55.33-.7.05-1.66 1-2 0-.49-1.37 1-.86 1.63-1.24a1.89 1.89 0 0 1 .59-.09c3.1.27 6.2.76 8.85 2.45a47.09 47.09 0 0 1 5.47 4.43c.32.27.35.86.51 1.31l-.83 1.61h-.25z" fill="#eae6e2" transform="translate(-6.98 -5.54)"/><path d="m53 89.43c-.76 3.39-1.4 6.81-2.31 10.17a33 33 0 0 0 -.38 17.4 3.66 3.66 0 0 0 .9 4v.61h.16l.19-.4q1.56 5.56 3.14 11.14h-.32-1.32l-.27-.54c.21-1.45.64-2.93-.34-4.6l-.32 1.67-1.44-.23-.32-1.51 1.1.37c-.33-.82-.2-1.9-1.43-1.11-.2-1-.33-1.89-.57-2.76s-.62-1.77-.91-2.66c-.06-.18-.13-.45 0-.57.72-1 .26-1.49-.73-1.76 1.17-1.72.26-2.86-.85-4.53a2.57 2.57 0 0 0 -.31-1.46c-.24-.34-.7-.93-1.19-.15l-.3-2.89c1.89-.51 2.47-2.27 3.43-3.66a1.33 1.33 0 0 0 .23-1c-.66-1.85.49-3.36.84-5 .25-1.17 1.37-2.38.16-3.53.58-.89 1.87-1.4 1.05-2.76-.06-.11.15-.36.2-.55.15-.67.29-1.35.43-2l1.06-1.58zm-1.29 36.84.21.35c.09-.07.24-.13.25-.21s-.09-.22-.14-.33z" fill="#c9934e" transform="translate(-6.98 -5.54)"/><path d="m20.44 7.1c-.75.6-1.47 1.23-2.25 1.78a9.88 9.88 0 0 0 -1.94 1.43c2-.92 4.66.82 6.35-1.56.18-.25.79-.3 1.19-.28a4.29 4.29 0 0 1 1.8.28c1.59.82 3.11 1.76 4.66 2.65l-.09.44a23.72 23.72 0 0 1 -2.8-.29c-1.16-.25-2.22-.45-3.14.59a1.12 1.12 0 0 1 -1 .18c-.68-.2-1.22-.33-1.69.43-.13.2-.85 0-1.29 0v-.42l2.61-1.22c-2.1-.75-5.32-.09-6.39 1.3l1.23.41c-.05.29-.11.58-.16.88h-.53c-1.3 0-2.6-.05-3.89.07-.45 0-1.23.61-1.2.87a3.77 3.77 0 0 1 -1.25 3c-2.11-.52-2.12-.56-1.63-2.55.09-.34-.15-.75-.24-1.13.13-2.06 1.69-2.88 3.26-3.57 1.84-.78 3.75-1.39 5.62-2.15.93-.36 1.85-.76 2.77-1.14z" fill="#eae6e2" transform="translate(-6.98 -5.54)"/><path d="m13.25 132c1.14-4.21 2.32-8.4 3.43-12.62 1.82-6.87 2.52-13.74.17-20.69a82.76 82.76 0 0 1 -1.94-8.48h.25l.52.54v.78l.79 2.4v.24l.26 1.08v.75l1.05 3.19v.8l.25.53.54 1.85c.22 2.12.5 4.24.65 6.37a25.48 25.48 0 0 1 0 4.19 42.68 42.68 0 0 1 -.82 4.32c-.51 2.35-1 4.7-1.56 7-.27 1.16-.6 2.32-.9 3.48l-.52 3.27.24 1.84c-.53-.13-1.07-.23-1.59-.4a5.23 5.23 0 0 1 -.82-.44z" fill="#a47d38" transform="translate(-6.98 -5.54)"/><path d="m8.79 49.45-.27-3.18 1.32.34c.09.42.19.84.28 1.26.13 1.76.21 3.51.39 5.26.27 2.55.75 5.08.89 7.63a22.59 22.59 0 0 0 1.09 6.17l.28 5.56.52.8-.29 1.84.25.8v1.58l-.25 2.17-.77-2.68-.18-1.11-.13-1-.16-.83-.14-1.32-.11-.81-.07-.49-2.61-21.27c-.01-.24-.03-.48-.04-.72z" fill="#9c6427" transform="translate(-6.98 -5.54)"/><path d="m8.79 14c.09.38.33.79.24 1.13-.49 2-.48 2 1.63 2.56l2.11.27 23.82.28h7.73a12.37 12.37 0 0 0 1.8-.25l2.1-.26 1.06.22 8.49-.75v.76.28l-2.37.26h-3.44l-1.6.25h-2.13l-12.71.28h-6.09l-4.43.25-.8-.25-11.9-.25h-.6a1 1 0 0 0 -.24 0 12.61 12.61 0 0 0 -1.34-.25c-.07 0-.18.32-.27.5-.25.44-.81 1.09-.69 1.27.85 1.25.31 2.24-.38 3.25-.16-.17-.46-.35-.45-.51.11-1.73.26-3.45.41-5.25l-1.56-.39z" fill="#dad5cf" transform="translate(-6.98 -5.54)"/><path d="m7.18 17.4 1.56.39c-.15 1.8-.3 3.52-.41 5.25 0 .16.29.34.45.51v.45a15.54 15.54 0 0 0 -.62 2.16 18 18 0 0 0 0 2.2c0 .61-.13 1.22-.09 1.83a25.81 25.81 0 0 0 .36 3c.05.31.4.57.62.86a2.35 2.35 0 0 0 0 .26 10.07 10.07 0 0 0 -.51 2.12c0 1 .19 2 .26 3 .1 1.55.16 3.11.24 4.67l-.72 1.06c-.32-4.16-.85-8.39-1.06-12.64-.26-4.61-.21-9.23-.26-13.85a7.13 7.13 0 0 1 .18-1.27z" fill="#b9b5b1" transform="translate(-6.98 -5.54)"/><path d="m43.5 145.49a72.33 72.33 0 0 1 -16.89.61c-1.57-.15-3.15-.18-4.72-.32a3 3 0 0 1 -.93-.46l.14-1.32 1.46-.3 2.92.32c.4.16.79.33 1.2.47s.78.22 1.15.39a6.09 6.09 0 0 0 1.25.67 12.87 12.87 0 0 0 2.06 0h8.16l.12-1.07a6.42 6.42 0 0 0 1.53 0 5.31 5.31 0 0 0 1.18-.7l1.61-.3h.78z" fill="#dad5cf" transform="translate(-6.98 -5.54)"/><path d="m53 89.43h-.49l.24-1.59v-.54c.44-2.33.89-4.66 1.32-7 .36-2 .7-3.9 1-5.86.27-1.53.52-3.07.78-4.6v-.8c.08-.89.17-1.77.26-2.65a2.28 2.28 0 0 0 .27-.57c.38-2.55.74-5.1 1.11-7.65l.37.26c-.8 5.84-1.55 11.68-2.42 17.51-.56 3.74-1.28 7.45-2 11.18-.05.78-.28 1.54-.44 2.31z" fill="#a47d38" transform="translate(-6.98 -5.54)"/><path d="m57.76 17.94c0-.25 0-.5 0-.76h.24l1.35-.34c1.06.22 1.33.9 1.3 1.93-.14 4.91-.15 9.83-.34 14.75-.15 3.54-.51 7.08-.79 10.62a6.62 6.62 0 0 1 -.27 1.15h-.44c.08-1.15.16-2.3.23-3.46.42-7.75 1.13-15.49.57-23.27-.22-1.48-1.26-.3-1.85-.62z" fill="#b9b5b1" transform="translate(-6.98 -5.54)"/><path d="m41.44 5.57c.23 0 .47.31.71.48-2 .09-4 .15-6 .26a12.12 12.12 0 0 0 -3.43.36 6.29 6.29 0 0 1 -5.15-.13 2.59 2.59 0 0 0 -1.12-.07l-4.73.11a7.22 7.22 0 0 1 5.77-.76" fill="#eae6e2" transform="translate(-6.98 -5.54)"/><path d="m56.19 138.63c.13 1.83-.53 3.19-1.83 3.77-.24-1.53-1.21-.29-1.81-.48l-1.17.29-.51.13h-1.32v-1.34l.53-.53 1.13-.26v-.21h-.61c.16-.21.29-.54.5-.62a13.13 13.13 0 0 1 1.67-.41l.15 1.33 1.48-1.3 1.2-.58z" fill="#87888b" transform="translate(-6.98 -5.54)"/><path d="m22.56 143.68-1.46.3c-1.3-1.63-3-1-4.63-.82-.23-.24-.43-.6-.72-.7-1.16-.42-2.35-.76-3.53-1.14-.25-1-.49-2.09-.73-3.14l2.3 1.88 1.59 1.05.45.73.2-.13-.07-.64 1.31.25.64.23h.65c.23.27.42.69.71.78 1 .28 2 .42 2.92.69.17.04.25.43.37.66z" fill="#87888b" transform="translate(-6.98 -5.54)"/><path d="m50.87 142.34.51-.13 1.17-.29c.6.19 1.57-1 1.81.48-1.62 1.87-3.91 2-6.12 2.32 0-.51-.06-1-.08-1.53l1.39-.85z" fill="#27282a" transform="translate(-6.98 -5.54)"/><path d="m54.32 132.26h.32c.22.72.45 1.45.67 2.18-.84.12-.75.62-.53 1.23s.41 1.28.61 1.92l-1.33.26h-.51a6.23 6.23 0 0 1 -.8-.47 10.45 10.45 0 0 1 -.8-.83 3.39 3.39 0 0 1 .87-.58c.91-.24 1.27-.65.65-1.52v-.73l.12-.08.64-.47z" fill="#87888b" transform="translate(-6.98 -5.54)"/><path d="m16.47 143.16c1.63-.21 3.33-.81 4.63.82 0 .45-.09.89-.14 1.34l-4-.83z" fill="#27282a" transform="translate(-6.98 -5.54)"/><path d="m12.2 136 .63-2.85 1.44 1.43c.24.69.49 1.38.75 2.13l-.71.75-1.5.08-.94-.46.11-.54zm1.79.47c-.07 0-.16-.1-.21-.08a.22.22 0 0 0 -.09.2.2.2 0 0 0 .2.09c.11-.02.11-.13.11-.21z" fill="#786d5f" transform="translate(-6.98 -5.54)"/><path d="m58.83 45.24h.44c0 .68-.09 1.37-.13 2v.55l-1.2 10.56-.37-.26c0-.26 0-.53 0-.79l1-11.31v-.56z" fill="#786d5f" transform="translate(-6.98 -5.54)"/><path d="m14.27 134.58-1.44-1.43.42-1.13a5.23 5.23 0 0 0 .82.41c.52.17 1.06.27 1.59.4l2.08 2h-.42l-.4-.36-.13.44.16.49z" fill="#b9b5b1" transform="translate(-6.98 -5.54)"/><path d="m16.47 143.16.52 1.33c-1.58.17-4.07-1.48-4.77-3.17 1.18.38 2.37.72 3.53 1.14.25.1.49.46.72.7z" fill="#b9b5b1" transform="translate(-6.98 -5.54)"/><path d="m8.34 45.25.72-1.06c.26.16.72.32.73.5.08 1.35 1.1 1.44 2.05 1.6a8.75 8.75 0 0 0 1.45 0h.49l.05.76-4-.47-1.32-.34z" fill="#dfb27a" transform="translate(-6.98 -5.54)"/><path d="m48.16 143.19.08 1.53-2.62.44.48-1.16-1.1-.79z" fill="#96999d" transform="translate(-6.98 -5.54)"/><path d="m13.77 85.16-.13-.52-.18-.8-.11-.52c.07-.09.15-.17.23-.26l1.05 1.34v1.6l.25 2.66h-.44c-.12-.53-.24-1.06-.35-1.59v-.48l-.19-.59z" fill="#9c6427" transform="translate(-6.98 -5.54)"/><path d="m45 143.21 1.07.78-.48 1.17-2.12.33 1-2z" fill="#b9b5b1" transform="translate(-6.98 -5.54)"/><path d="m55.39 137.59c-.2-.64-.38-1.29-.61-1.92s-.31-1.11.53-1.23c.3 1.4.59 2.79.88 4.19l-.59-.26z" fill="#786d5f" transform="translate(-6.98 -5.54)"/><path d="m13.58 83.06c-.08.09-.16.17-.23.26-.38-2.1-.75-4.21-1.12-6.31l.77 2.67v.46l.51 2.18z" fill="#c9934e" transform="translate(-6.98 -5.54)"/><path d="m11.87 137.08.94.46c.26.5.57 1 .79 1.52a4.54 4.54 0 0 1 .19 1l-2.3-1.88z" fill="#dad5cf" transform="translate(-6.98 -5.54)"/><path d="m51.21 120.91a3.66 3.66 0 0 1 -.9-4c.27.92.54 1.84.82 2.76v.12z" fill="#a47d38" transform="translate(-6.98 -5.54)"/><path d="m59.37 16.83-1.37.34.82-1.61c.18.44.37.84.55 1.27z" fill="#dad5cf" transform="translate(-6.98 -5.54)"/><path d="m11.62 72.74.14 1.32z" fill="#c9934e" transform="translate(-6.98 -5.54)"/><path d="m11.92 74.89.13 1z" fill="#c9934e" transform="translate(-6.98 -5.54)"/><path d="m13.77 85.16.13.8z" fill="#c9934e" transform="translate(-6.98 -5.54)"/><path d="m14.45 88.62h.44v.77l-.09.35z" fill="#a47d38" transform="translate(-6.98 -5.54)"/><path d="m14.85 89.76.09-.35c.07.27.15.54.22.81h-.25z" fill="#9c6427" transform="translate(-6.98 -5.54)"/><path d="m13.46 83.84.18.8z" fill="#c9934e" transform="translate(-6.98 -5.54)"/><path d="m11.44 71.44.07.49z" fill="#c9934e" transform="translate(-6.98 -5.54)"/><path d="m12.2 136-.22.54z" fill="#dad5cf" transform="translate(-6.98 -5.54)"/><path d="m8.79 49.45v.72c.03-.24.01-.48 0-.72z" fill="#a47d38" transform="translate(-6.98 -5.54)"/><path d="m51.5 121.12-.19.4h-.16c0-.2 0-.4 0-.61z" fill="#a47d38" transform="translate(-6.98 -5.54)"/><path d="m14.06 86.55v.48z" fill="#c9934e" transform="translate(-6.98 -5.54)"/><path d="m59.11 47.88v-.55z" fill="#b9b5b1" transform="translate(-6.98 -5.54)"/><path d="m44.17 114.3-.02-.13.08.05z" fill="#c9934e"/><path d="m36.59 18.23-23.82-.23 1.46-1.16-1.09-.07-.14-.37 4-2.67h.53a23.24 23.24 0 0 1 4.37.61 6.31 6.31 0 0 0 5.43-.59 1.41 1.41 0 0 1 2.16.52l-2.16.73 2.33 1.54-1.7.85.05.21h2.26c.21-1.43 1-1.85 2.57-1.36a10.57 10.57 0 0 0 6.73-.4 11.9 11.9 0 0 1 1.62-.29c.14 2-.79 2.72-2.46 2a1.57 1.57 0 0 0 -2.14.68z" fill="#fcf8f2" transform="translate(-6.98 -5.54)"/><path d="m48.22 17.71-2.1.26c-.06-1 .62-1.3 1.39-1.26.25.01.49.65.71 1z" fill="#eae6e2" transform="translate(-6.98 -5.54)"/><path d="m55.89 69.05v.8c-.52.55-1.55 1.23-1.45 1.63.3 1.25-.46 2.07-.76 3.06a8.16 8.16 0 0 0 -.4 1.21c-.28 2.66-.57 5.32-.74 8a26.82 26.82 0 0 0 .21 3.57v.54c-1.52.61-.93 2.09-1.3 3.17-.14.67-.28 1.35-.43 2 0 .19-.26.44-.2.55.82 1.36-.47 1.87-1.05 2.76 1.21 1.15.09 2.36-.16 3.53-.35 1.66-1.5 3.17-.84 5a1.33 1.33 0 0 1 -.23 1c-1 1.39-1.54 3.15-3.43 3.66 0-.27 0-.54 0-.81v-1.19c0-1 .07-1.76 1.4-1.1.19.09.63-.34 1-.52-1.34-.23-1.7-.63-1.41-1.44a13.93 13.93 0 0 0 .87-3.2c.19-2 .14-4.06 1.76-5.64.33-.33.71-1.07.56-1.35a3.49 3.49 0 0 1 -.06-2.58 52.68 52.68 0 0 0 .7-6.28 10.42 10.42 0 0 0 -.17-1.88 3.58 3.58 0 0 0 0-1.13 6.6 6.6 0 0 0 -.76-1.19v-2.38l.27-.53a17.69 17.69 0 0 0 .51-1.86c.47-2.88.33-5.79 1-8.7.7-3.17.49-6.54.67-9.82.17.16.44.31.49.51.3 1.21.5 2.45.84 3.66.11.39.52.69.8 1 .18-.41.37-.81.54-1.22a4.51 4.51 0 0 0 .12-.52c1.11.16 1.31.93 1.42 1.79.08.54.18 1.08.27 1.62v1.63z" fill="#c9832c" transform="translate(-6.98 -5.54)"/><path d="m45.06 108.75v.81l.3 2.89v.54 1.05 1.06.55l-.1.5c-.68.36-.68.72 0 1.09l.09 1.29c-.36.83-.67 1.67.19 2.41a4.77 4.77 0 0 1 .51 1.16c.26 1.62.41 3.25.7 4.87a7 7 0 0 0 .74 1.6l.1.56.93 4.23a1.44 1.44 0 0 1 -2.15.8 39.13 39.13 0 0 0 -4.89-1.28c-2.05-.28-4.15-.19-6.21-.33-.63 0-1.24-.48-1.86-.47-2.29 0-4.59.14-6.88.22l.51-2.38c.7.35 1.12 1 2.11 1.09.79.08 1.58.28 2.45.31 1.32 0 1.15-1 1.66-1.78l1 1.77.74-2.15c.29.59.37 1 .62 1.21a3.65 3.65 0 0 0 1.35.77 7.24 7.24 0 0 0 1.87.18 27 27 0 0 0 4.5-.06c1.36-.22 1.56-.92 1-2.16l1.22-.95c-1.59 0-2-.56-1.9-1.7a11.25 11.25 0 0 0 -.47-2.2c-.21-1.34-.4-2.69-.52-4a1 1 0 0 1 .5-.81c1.09-.54.25-1.21.11-1.77 0-.1-.83 0-1.27 0a4.9 4.9 0 0 0 -.9.31l-.21-1.47c-.35.1-.93.09-1 .29-.63 1.5-1.82 1.4-3.07 1.21.08-.15.16-.42.24-.42 1.42.06 1.63-.93 1.86-2 .37-1.7 1-2 2.73-1.68.59.1 1.67.08 1.78-.19a2.87 2.87 0 0 0 -.05-2.08c-.91-2.04-.48-2.88 1.67-2.89z" fill="#bb7f21" transform="translate(-6.98 -5.54)"/><path d="m45.32 115.1c0-.35 0-.7 0-1.06v-1.05c0-.18 0-.36 0-.54.49-.78 1-.19 1.19.15a2.57 2.57 0 0 1 .31 1.46c1.11 1.67 2 2.81.85 4.53 1 .27 1.45.78.73 1.76-.08.12 0 .39 0 .57.29.89.66 1.76.91 2.66s.37 1.78.57 2.76c1.23-.79 1.1.29 1.43 1.11l-1.1-.37c.12.61.22 1.06.32 1.51a8.08 8.08 0 0 0 .44 2.46c.21.41 1.08.48 1.66.7l.27.54c-.26 1.15-1 1.48-2.39 1.08a3.93 3.93 0 0 1 -.99-3.37c0-.15-.17-.3-.23-.46-.27-.74-.55-1.48-.78-2.23s.09-1.6-1.07-1.6l.48-2.4-1-.64c.9-2.39.65-3.1-1.1-3.32-.09-.26-.18-.53-.28-.8l1.61-2-1.61-.93z" fill="#dfb27a" transform="translate(-6.98 -5.54)"/><path d="m52.73 131.75c-.58-.22-1.45-.29-1.66-.7a8.08 8.08 0 0 1 -.44-2.46l1.44.23.32-1.67c.98 1.67.55 3.15.34 4.6z" fill="#dea351" transform="translate(-6.98 -5.54)"/><path d="m50.61 133.37c1.38.4 2.13.07 2.39-1.08h1.32c0 .29 0 .58-.07.86l-.65.47-.12.08-.73.69-2.12.09h-.54z" fill="#e3c9ac" transform="translate(-6.98 -5.54)"/><path d="m51.41 91c.37-1.08-.22-2.56 1.3-3.17l-.24 1.59z" fill="#ce8740" transform="translate(-6.98 -5.54)"/><path d="m51.67 126.27.32-.19c0 .11.16.23.14.33s-.16.14-.25.21z" fill="#dea351" transform="translate(-6.98 -5.54)"/><path d="m17 13.73-4 2.67.16.32 1.09.07-1.48 1.21-2.11-.27a3.8 3.8 0 0 0 1.25-3c0-.26.75-.82 1.2-.87 1.29-.18 2.59-.12 3.89-.13z" fill="#f5f0ea" transform="translate(-6.98 -5.54)"/><path d="m18.59 102.4-.54-1.85c.24-.18.67-.33.7-.53.22-1.45.35-2.91.55-4.75.55-.89.2-2.64 1.35-3.78.07-.07-.09-.33-.09-.5 0-.79 0-1.57.06-2.36 0-.32.1-.64.13-.95.08-.83.15-1.66.22-2.49.34.54.69 1.06 1 1.61a7.94 7.94 0 0 1 .4 1 5.13 5.13 0 0 0 .69-1.07 12.76 12.76 0 0 0 .28-1.75c.08.1.21.2.22.32.3 2.67.58 5.34.88 8 0 .1.13.2 0 0l2.34-.17h.26l-1.62 1 1.23.52c.33 1.62.65 3.19 1 4.88a5.09 5.09 0 0 0 -.11 3.24c.27.81.35 1.69.56 2.53.38 1.52-.72 3.32.87 4.65l-.87-.16-1.19.65c-.42-2.76-1.79-4.74-3.31-4.67l.62.77-1.43 2.72a10.82 10.82 0 0 1 -1.25-1.56c-1-1.92-.67-4-.87-6.1a5.19 5.19 0 0 0 -.48-1.31c-.27.4-.54.81-.83 1.2s-.51.61-.77.91z" fill="#c9821f" transform="translate(-6.98 -5.54)"/><path d="m18.59 102.4c.26-.3.55-.58.79-.89s.56-.8.83-1.2a5.19 5.19 0 0 1 .48 1.31c.2 2-.15 4.18.87 6.1a10.82 10.82 0 0 0 1.25 1.56v.79l-.51.8a9.81 9.81 0 0 0 -1 2.67 42 42 0 0 0 .21 4.74v.53l-.26.8-.25 1.31a25.31 25.31 0 0 0 -2 4.21c-.54 2.12-.87 2.59-3.09 2.68.3-1.16.63-2.32.9-3.48.54-2.35 1.05-4.7 1.56-7a42.68 42.68 0 0 0 .82-4.32 25.48 25.48 0 0 0 0-4.19c-.1-2.18-.38-4.3-.6-6.42z" fill="#bb7f21" transform="translate(-6.98 -5.54)"/><path d="m21 85.19c-.07.83-.14 1.66-.22 2.49 0 .31-.11.63-.13.95 0 .79-.05 1.57-.06 2.36 0 .17.16.43.09.5-1.15 1.14-.8 2.89-1.35 3.78-.2 1.84-.33 3.3-.55 4.75 0 .2-.46.35-.7.53-.09-.18-.17-.35-.25-.53v-.8a10.87 10.87 0 0 0 -.28-1.53 16.66 16.66 0 0 0 -.81-1.69c0-.25 0-.51 0-.77s-.17-.72-.26-1.08v-2.6l-.28-1.55-.26-1.84c2.42-.35 2.69-1.82 2.57-3.13-.07-.84-.41-1.6.44-2.25.11-.09 0-.65-.18-.9-.58-.92-1.29-1.77-.52-3 .14-.21 0-.6 0-.9.09-.77.21-1.54.32-2.31.12 0 .35.11.35.12-.3 1.39.95 2.19 1.5 3.07.7 1.11.58 1.66-.17 2.44 1.65.57 1.91 1.32 1.09 2.82a7.56 7.56 0 0 0 -.34 1.07z" fill="#c27c1d" transform="translate(-6.98 -5.54)"/><path d="m15.94 127.81c2.22-.09 2.55-.56 3.09-2.68a25.31 25.31 0 0 1 1.97-4.21 5.13 5.13 0 0 1 .25 1.31c0 .36-.48.72-.44 1 .31 2.18-.57 4.13-1.13 6.13-1 .25-.64 1-.52 1.58a11.83 11.83 0 0 1 -1.66.23 20.24 20.24 0 0 1 -2-.24z" fill="#c9832c" transform="translate(-6.98 -5.54)"/><path d="m15.42 131a20.24 20.24 0 0 0 2 .24 11.83 11.83 0 0 0 1.66-.23c0 .55-.08 1.09-.11 1.52l1.17.83c-.17.83-.32 1.69-1.54 1.18-.05 0-.23.28-.36.42l-.54-.07-2.08-2z" fill="#c9934e" transform="translate(-6.98 -5.54)"/><path d="m15.94 88.11c.09.61.17 1.23.26 1.84l-.52.81-.52-.54c-.07-.27-.15-.54-.22-.81s0-.51 0-.77c-.08-.88-.17-1.77-.26-2.66 1.39.09.82 1.42 1.26 2.13z" fill="#b16719" transform="translate(-6.98 -5.54)"/><path d="m16.74 96a16.66 16.66 0 0 1 .77 1.66 10.87 10.87 0 0 1 .28 1.53z" fill="#b16719" transform="translate(-6.98 -5.54)"/><path d="m16.47 91.55v2.39c-.26-.8-.53-1.6-.79-2.4z" fill="#b16719" transform="translate(-6.98 -5.54)"/><path d="m16.47 91.55h-.79v-.78l.52-.77z" fill="#bc741b" transform="translate(-6.98 -5.54)"/><path d="m16.47 94.18c.09.36.18.72.26 1.08-.08-.36-.17-.72-.26-1.08z" fill="#b16719" transform="translate(-6.98 -5.54)"/><path d="m15.94 88.11c-.44-.71.13-2-1.31-2.13v-1.58a5.37 5.37 0 0 0 .19-1.4c-.2-1.45-.44-2.9-.76-4.33a4.47 4.47 0 0 0 -.76-1.2c0-.52 0-1.05 0-1.58l.48-.46-.78-.3c.08-.61.17-1.22.25-1.84l-.52-.8c-.09-1.85-.18-3.71-.28-5.56a5.09 5.09 0 0 1 .93 4c-.07.27.11.61.18.91a3.26 3.26 0 0 0 1.16-.33 1.65 1.65 0 0 0 .54-1c.15-1.6.3-3.21.34-4.82.06-2.5 0-5 0-7.51h.4l1 2.93c-.5.44-.85.88 0 1.32l.27 1.32.27 1.6v.52a6.57 6.57 0 0 0 -.08 1.46 16.75 16.75 0 0 0 .64 3.24c.33.93-.57 2.5 1.28 2.72l.27.26a3.1 3.1 0 0 1 -.61.35c-.5.18-1 .32-1.8.56l1.35 1.21c-.11.77-.23 1.54-.32 2.31 0 .3.12.69 0 .9-.77 1.18-.06 2 .52 3 .16.25.29.81.18.9-.85.65-.51 1.41-.44 2.25.1 1.26-.17 2.73-2.59 3.08zm-1.17-12.78-.22-.1c0 .08-.1.17-.08.22s.14.07.21.1z" fill="#bc741b" transform="translate(-6.98 -5.54)"/><path d="m15.68 58.2v7.51c0 1.61-.19 3.22-.34 4.82a1.65 1.65 0 0 1 -.54 1 3.26 3.26 0 0 1 -1.16.33c-.07-.3-.25-.64-.18-.91a5.09 5.09 0 0 0 -.93-4 22.59 22.59 0 0 1 -1.09-6.17c-.14-2.55-.62-5.08-.89-7.63-.18-1.75-.26-3.5-.39-5.26l3.7.53a6 6 0 0 1 1 1.76c.23 1.25.19 2.55.32 3.82s.32 2.8.5 4.2z" fill="#b76c1a" transform="translate(-6.98 -5.54)"/><path d="m13.82 48.4-3.7-.53c-.09-.42-.19-.84-.28-1.26l4 .47h.53l2.1.55v.48l-1.06.28z" fill="#a47d38" transform="translate(-6.98 -5.54)"/><path d="m13.3 77.51a4.47 4.47 0 0 1 .76 1.2c.32 1.43.56 2.88.76 4.33a5.37 5.37 0 0 1 -.19 1.36l-1.05-1.34c0-.25 0-.49 0-.74a1.44 1.44 0 0 0 -.58-2.18c0-.16 0-.31 0-.46.11-.68.2-1.44.3-2.17z" fill="#b16719" transform="translate(-6.98 -5.54)"/><path d="m13 75.13.73.34-.48.46c-.04-.27-.13-.53-.25-.8z" fill="#b76c1a" transform="translate(-6.98 -5.54)"/><path d="m12.77 72.49.52.8z" fill="#b76c1a" transform="translate(-6.98 -5.54)"/><path d="m8.78 24v-.49c.69-1 1.23-2 .38-3.25-.12-.18.44-.83.69-1.27 1.23 1.09 1.48 2 1 3.36a4 4 0 0 0 -.37 1.36c0 .88.19 1.75.18 2.62 0 1.05-.3 2.11-.21 3.14.2 2.14.87 4.28.78 6.4-.07 1.78.75 3 1.38 4.47a2.77 2.77 0 0 1 .2.75c.18 2 2.45 2.52 3 4.24 0 .05.16.08.24.08h2.12a12 12 0 0 1 2.03-1.41 6.25 6.25 0 0 1 1.95-.21c.11-.23.21-.15.32-.08l1 .64c.09-.42.16-.85.26-1.28s.11-.8.29-.87c.92-.35.68-1 .55-1.65-.18-.92.76-3.35 1.6-3.68 1.4-.55 2.87-.94 4.29-1.44a2 2 0 0 0 1-.74c.08-.14-.33-.58-.52-.88s-.68-.86-.58-1a3.87 3.87 0 0 1 1.16-.89l.72 1.61c.21-.35.36-.5.33-.55-1-1.63.19-2.27 1.36-2.89a12 12 0 0 0 1.27-.69c.91-.66 1.86-1.19 1.46-2.71-.27-1-.4-2.28 1.2-2.79a8.36 8.36 0 0 0 2.14-1.61 7.35 7.35 0 0 0 2.22.64 10.61 10.61 0 0 0 2.32-.71c.38-.09 1-.16 1.19 0 .95 1.23 1.91 1.48 3.11.34a1.7 1.7 0 0 1 .86-.3 1.29 1.29 0 0 1 1.71 1.37c-.11 2.09.79 3.87 1.61 5.68v1.06l-1.81-1.69a45.17 45.17 0 0 0 -5.51 1.32c-1.19.41-2 1.66-3.42 1.85-.1 0-.2.28-.26.44-.33.88-1 1.07-1.88 1.09-2.64.07-2.85.3-3.61 2.67a1.44 1.44 0 0 1 -1.14.71c-1.75 0-3.46-.07-4 1.85l-2-1.55a3 3 0 0 0 -2.93 1.7l2.38.45.35.46.46-.47h.52a8.18 8.18 0 0 1 .4 2.3c0 .25-1 .43-1.58.59-.24.07-.54 0-.78 0-.78.24-1.62.43-.88 1.59.23.36.11.93.13 1.14h-3.46c.74 1.38.78 2.14-.8 2.06-.29 0-.61.49-.91.75l-.79.06-3.75-.24-1-.08-.27-.37c-1.4-1.12-2.75-2.3-4.22-3.31a9.8 9.8 0 0 0 -2.4-.88c.06-.82.18-1.64.16-2.46a26.16 26.16 0 0 0 -.29-3.35 23.07 23.07 0 0 0 -.66-2.57 2.35 2.35 0 0 1 0-.26c0-3 0-6.06 0-9.09a4.06 4.06 0 0 0 -.29-1.08zm31.9 4.54a7 7 0 0 0 2.13-1.1c.21-.22-.2-1.21-.53-1.72-.5-.75-2.82-1-3.55-.37-.93.75-.35 1.61.1 2.2s1.17.66 1.85 1.03zm-17.81 17.12c-.12.24-.26.38-.24.51s.25.28.3.25a.54.54 0 0 0 .3-.36c.01-.06-.18-.2-.36-.4z" fill="#f0e5d9" transform="translate(-6.98 -5.54)"/><path d="m53 29.35c-.82-1.81-1.72-3.59-1.61-5.68a1.29 1.29 0 0 0 -1.71-1.37 1.7 1.7 0 0 0 -.86.3c-1.2 1.14-2.16.89-3.11-.34-.16-.2-.81-.13-1.19 0a10.61 10.61 0 0 1 -2.32.71 7.35 7.35 0 0 1 -2.2-.68 8.36 8.36 0 0 1 -2.13 1.58c-1.6.51-1.47 1.77-1.2 2.79.4 1.52-.55 2.05-1.46 2.71a12 12 0 0 1 -1.27.69c-1.17.62-2.32 1.26-1.36 2.89 0 0-.12.2-.33.55l-.72-1.61a3.87 3.87 0 0 0 -1.16.89c-.1.16.37.67.58 1s.6.74.52.88a2 2 0 0 1 -1 .74c-1.42.5-2.89.89-4.29 1.44-.84.33-1.78 2.76-1.6 3.68.13.64.37 1.3-.55 1.65-.18.07-.21.56-.29.87s-.17.86-.26 1.28l-1-.64c-.11-.07-.21-.15-.32.08a6.25 6.25 0 0 0 -1.96.24 12 12 0 0 0 -2.05 1.46h-2.15c-.08 0-.22 0-.24-.08-.56-1.72-2.83-2.23-3-4.24a2.77 2.77 0 0 0 -.2-.75c-.56-1.39-1.43-2.7-1.36-4.48.09-2.12-.58-4.26-.78-6.4-.09-1 .2-2.09.21-3.14 0-.87-.18-1.74-.18-2.62a4 4 0 0 1 .37-1.36c.51-1.36.26-2.27-1-3.36.09-.18.2-.51.27-.5a12.61 12.61 0 0 1 1.34.25l.25.25c.09 3.14.28 6.28.22 9.41a12.45 12.45 0 0 0 1.14 4.93c.41 1 1 2 1.53 3.06-.79 1.06 0 3.16.65 5a3.27 3.27 0 0 0 4 1.9c.88-.22 1.55-.58 1.5-1.68a4.28 4.28 0 0 1 .33-1.31c.51 0 1.09.1 1.22-.09.6-.85 1.07-1.8 1.61-2.7a6 6 0 0 1 .6-.8c.48-.55 1.43-1.13 1.38-1.62-.16-1.61.84-1.44 1.79-1.51.32 0 .63-.11.95-.17l-.49-1.62 2.69-2.07c-1-.43-.9-.34-2.29.59a6.06 6.06 0 0 1 -2.28.41 6.39 6.39 0 0 1 .14-2c.14-.35.79-.62 1.25-.69a21.07 21.07 0 0 1 2.25 0c.33 0 .92-.17.92-.28.05-1 1.46-1.8.52-3-.08-.1.06-.38.09-.58l.24.36c.84-.33 1.69-.61 2.5-1s1-.69.56-1.56-.75-1.86.65-2.31c.1 0 .1-.39.15-.6l12.71-.28.84 1.2 1.28-1.21 1.6-.25c.26 1.1.58 2.18.77 3.28.24 1.36.37 2.74.54 4.12zm-9.07-9.35-1.63.62c1.25.74 1.35.7 1.63-.62z" fill="#f3ebe0" transform="translate(-6.98 -5.54)"/><path d="m35.52 19.05c-.05.21-.05.57-.15.6-1.4.45-1.08 1.5-.65 2.31s.1 1.26-.56 1.56-1.66.67-2.5 1l-.24-.36c0 .2-.17.48-.09.58.94 1.19-.47 2-.52 3 0 .11-.59.26-.92.28a21.07 21.07 0 0 0 -2.25 0c-.46.07-1.11.34-1.25.69a6.39 6.39 0 0 0 -.14 2 6.06 6.06 0 0 0 2.28-.41c1.39-.93 1.32-1 2.29-.59l-2.69 2.07.49 1.62c-.32.06-.63.14-.95.17-1 .07-2-.1-1.79 1.51.05.49-.9 1.07-1.38 1.62a6 6 0 0 0 -.6.8c-.54.9-1 1.85-1.61 2.7-.13.19-.71.06-1.22.09a4.28 4.28 0 0 0 -.33 1.31c.05 1.1-.62 1.46-1.5 1.68a3.27 3.27 0 0 1 -4-1.9c-.65-1.8-1.44-3.9-.65-5-.55-1.09-1.12-2-1.53-3.06a12.45 12.45 0 0 1 -1.14-4.93c.06-3.13-.13-6.27-.22-9.41a2 2 0 0 0 0-.25h.55c.79.35 1.79.44 1.64 1.77a10.47 10.47 0 0 0 .1 2.68c.14 1 .49 1.9.61 2.87.25 2-.41 4 .26 5.95.51 1.5.47 3.3 2.71 3.51.24 0 .62 1 .55 1.43s-.62 1.07.18 1.2c.39.07 1-.5 1.31-.92s.33-1.11.67-1.52c.95-1.16 2-2.21 3-3.36a2.43 2.43 0 0 0 .57-1.34c0-1.5-.43-3.06.92-4.25a.4.4 0 0 0 .09-.25c.12-.61.22-1.22.33-1.83a.25.25 0 0 0 0-.43c-1.14-1-1.16-1.52.17-2.37.94-.6 2.06-.94 3-1.52.44-.27.69-.85 1-1.29zm-4.78 3.35-.38.28c.06.09.15.26.19.25a.72.72 0 0 0 .34-.22c.03-.05-.09-.2-.15-.31z" fill="#f5f0ea" transform="translate(-6.98 -5.54)"/><path d="m29.43 19.06c-.34.44-.59 1-1 1.29-1 .58-2.08.92-3 1.52-1.33.85-1.31 1.33-.17 2.37a.25.25 0 0 1 0 .43c-.11.61-.21 1.22-.33 1.83a.4.4 0 0 1 -.09.25c-1.35 1.19-.93 2.75-.92 4.25a2.43 2.43 0 0 1 -.59 1.39c-1 1.15-2 2.2-3 3.36-.34.41-.34 1.1-.67 1.52s-.92 1-1.31.92c-.8-.13-.26-.71-.18-1.2s-.31-1.41-.55-1.43c-2.24-.21-2.2-2-2.71-3.51-.67-2 0-4-.26-5.95-.12-1-.47-1.91-.61-2.87a10.47 10.47 0 0 1 -.1-2.68c.15-1.33-.85-1.42-1.64-1.77l11.9.25.8.25z" fill="#fcf8f2" transform="translate(-6.98 -5.54)"/><path d="m57.76 17.94c.59.32 1.63-.86 1.87.57-.79-.09-.82.42-.81 1a48.51 48.51 0 0 1 0 5.26c-.16 1.59-.63 3.14-.85 4.74a30.22 30.22 0 0 1 -2.39 8.49c-.1.22-.65.22-1 .32l-1.58-.9v-4.1c.82.22 1.67.91 2.15-.55a18.5 18.5 0 0 0 1.33-6.07 30 30 0 0 1 .57-4.39 2.39 2.39 0 0 0 0-1.25 2 2 0 0 1 .74-2.84z" fill="#eae6e2" transform="translate(-6.98 -5.54)"/><path d="m57.76 18.22a2 2 0 0 0 -.76 2.84 2.39 2.39 0 0 1 0 1.25 30 30 0 0 0 -.57 4.39 18.5 18.5 0 0 1 -1.33 6.07c-.48 1.46-1.33.77-2.15.55v-.27c0-.7.69-1.41 0-2.12v-1.58c.09-1.15.18-2.3.26-3.44a3.05 3.05 0 0 0 2.11-2.77c0-1.55 0-3.11 0-4.66z" fill="#f5f0ea" transform="translate(-6.98 -5.54)"/><path d="m55.39 18.48v4.66a3.05 3.05 0 0 1 -2.11 2.77c-.17-1.38-.3-2.76-.54-4.12-.19-1.1-.51-2.18-.77-3.28z" fill="#fcf8f2" transform="translate(-6.98 -5.54)"/><path d="m50.35 18.76-1.28 1.24-.84-1.2z" fill="#f0e5d9" transform="translate(-6.98 -5.54)"/><path d="m25 19.28-.8-.25z" fill="#f3ebe0" transform="translate(-6.98 -5.54)"/><path d="m11.7 18.78a2 2 0 0 1 0 .25l-.25-.25a1 1 0 0 1 .25 0z" fill="#fcf8f2" transform="translate(-6.98 -5.54)"/><path d="m9.07 34.38a23.07 23.07 0 0 1 .66 2.62 26.16 26.16 0 0 1 .27 3.38c0 .82-.1 1.64-.16 2.46a6.9 6.9 0 0 0 .9 1.33c.8.76 1.68 1.43 2.53 2.14a8.75 8.75 0 0 1 -1.45 0c-.95-.16-2-.25-2.05-1.6 0-.18-.47-.34-.73-.5-.08-1.56-.14-3.12-.24-4.67-.07-1-.28-2-.26-3a10.07 10.07 0 0 1 .53-2.16z" fill="#ead3b6" transform="translate(-6.98 -5.54)"/><path d="m8.78 24a4.06 4.06 0 0 1 .27 1v9.09c-.22-.29-.57-.55-.62-.86a25.81 25.81 0 0 1 -.36-3c0-.61.08-1.22.09-1.83a18 18 0 0 1 0-2.2 15.54 15.54 0 0 1 .62-2.2z" fill="#dad5cf" transform="translate(-6.98 -5.54)"/><path d="m42.13 143.75a5.31 5.31 0 0 1 -1.18.7 6.42 6.42 0 0 1 -1.53 0l-.12 1.07h-8.16a12.87 12.87 0 0 1 -2.06 0 6.09 6.09 0 0 1 -1.25-.67c-.37-.17-.77-.25-1.15-.39s-.8-.31-1.2-.47h3.15c.19.13.38.37.56.37.62 0 1.23-.11 1.84-.19l3.7-.53a3.26 3.26 0 0 0 .68-.53c.76-1 1.5-1.06 2.24 0l-1.7.48.06.41 3.25-.18z" fill="#eae6e2" transform="translate(-6.98 -5.54)"/><path d="m28.63 144h-3.15l-2.92-.32c-.12-.23-.2-.62-.37-.67-1-.27-2-.41-2.92-.69-.29-.09-.48-.51-.71-.78h.56c.44.17.9 1 1.33 0a9.7 9.7 0 0 0 1.55.63c2 .4 4 .73 6.07 1.08h.49z" fill="#96999d" transform="translate(-6.98 -5.54)"/><path d="m45 143.21-.51.25h-.78l.82-1.23 1.78-.73 2.07-1 1.14.57v1.31l-1.39.85z" fill="#786d5f" transform="translate(-6.98 -5.54)"/><path d="m44.56 142.22-.82 1.23-1.61.3-2.87.14c0-.2 0-.41 0-.61l3.16-.66z" fill="#96999d" transform="translate(-6.98 -5.54)"/><path d="m55.91 66.4v-1.59c.27-1.58.57-3.16.78-4.76.17-1.25.23-2.52.35-3.78.23-2.56.5-5.12.71-7.69 0-.51.21-1.39-.69-1.17a2.12 2.12 0 0 0 -1.23 1.3c-.58 1.86-.87 3.81-1.53 5.63-.19.51-.62 1.73-1.83 1.21v-1.06l-.78-.8.31-1.31c1.51-1.09 1.61-1.67.5-2.92l-.25-2-1.34-.41 1.58-.27h.28l2.43-.49h.49 1.17l1.74-.21-1 11.31v.79c-.37 2.55-.73 5.1-1.11 7.65a2.28 2.28 0 0 1 -.27.57z" fill="#c9934e" transform="translate(-6.98 -5.54)"/><path d="m52.73 87.31a26.82 26.82 0 0 1 -.21-3.57c.17-2.67.46-5.33.74-8a8.16 8.16 0 0 1 .4-1.21c.3-1 1.06-1.81.76-3.06-.1-.4.93-1.08 1.45-1.63-.26 1.53-.51 3.07-.78 4.6-.34 2-.68 3.91-1 5.86-.47 2.35-.92 4.7-1.36 7.01z" fill="#ce8740" transform="translate(-6.98 -5.54)"/><path d="m55.91 66.4h.25c-.09.88-.18 1.76-.26 2.65 0-.89.01-1.77.01-2.65z" fill="#ce8740" transform="translate(-6.98 -5.54)"/><path d="m55.65 46.33h-.49l-2.43.49h-.28a4.88 4.88 0 0 0 -1.35-.52c-2-.14-3.93-.16-5.9-.3-.75 0-1.53-.53-2.24-.43-2 .26-3.9.85-5.87 1.08s-3.69.14-5.55.19a6.35 6.35 0 0 1 1.69-.8c1.63-.26 3.23-.46 3.66-2.44.65-.39 1.09-1 1.68-1.41a6.84 6.84 0 0 1 2-.79 3.9 3.9 0 0 1 1.17.07v-.32l-.66-.15c-.69-.2-1.42-1.65-.95-2.11.86-.83 1.88-1.5 3-2.4a5.8 5.8 0 0 0 .33 1.28 5 5 0 0 0 .75.77c.12-.3.24-.6.34-.9s.16-.53.17-.56a19.51 19.51 0 0 0 3.22.67c2 .07 4.21 1.68 4.44 3.7a28.75 28.75 0 0 1 -.15 3.55c0 .33.37 1 .53 1a17.42 17.42 0 0 0 2.35-.46c.59-.55 1.54-1 1.71-1.64.39-1.58.58-1.93 2.24-2.08-.07 1.16-.15 2.31-.23 3.46l-.26.28z" fill="#e3c9ac" transform="translate(-6.98 -5.54)"/><path d="m59.06 41.78c-1.66.15-1.85.5-2.24 2.08-.17.64-1.12 1.09-1.71 1.64l-.79-.8c.72-2 1.26-4 .09-6 0 0 .11-.2.17-.31.35-.1.9-.1 1-.32a30.22 30.22 0 0 0 2.34-8.52c.22-1.6.69-3.15.85-4.74a48.51 48.51 0 0 0 0-5.26c0-.58 0-1.09.81-1 .61 7.74-.1 15.45-.52 23.23z" fill="#dad5cf" transform="translate(-6.98 -5.54)"/><path d="m50.63 134.45 2.12-.09h.72c.62.87.26 1.28-.65 1.52a3.39 3.39 0 0 0 -.87.58 10.45 10.45 0 0 0 .8.83 6.23 6.23 0 0 0 .8.47l-.78 1.12a13.13 13.13 0 0 0 -1.67.41c-.21.08-.34.41-.5.62h-.48-.27a.43.43 0 0 0 0-.16l-.65-1.82.11-.62 2 1.06c-.31-1.58-.49-2.75-.68-3.92z" fill="#96999d" transform="translate(-6.98 -5.54)"/><path d="m52.77 138.92.78-1.12h.51c.11.37.23.73.34 1.1l-1.48 1.3z" fill="#b9b5b1" transform="translate(-6.98 -5.54)"/><path d="m54.4 139c-.11-.37-.23-.73-.34-1.1l1.33-.26.21.78z" fill="#96999d" transform="translate(-6.98 -5.54)"/><path d="m49.85 139.92h.27v.54l-.53.53-1.14-.57a2 2 0 0 0 .1-.21z" fill="#27282a" transform="translate(-6.98 -5.54)"/><path d="m50.08 140.5c0-.18 0-.36 0-.54h.48l.59.08v.21z" fill="#786d5f" transform="translate(-6.98 -5.54)"/><path d="m52.55 141.92-1.17.29z" fill="#786d5f" transform="translate(-6.98 -5.54)"/><path d="m13.79 140.06a4.54 4.54 0 0 0 -.19-1c-.22-.53-.53-1-.79-1.52l1.5-.07a5.11 5.11 0 0 1 1 .14c.73.23 1.45.51 2.18.78-1.32.8-1.36 1.17-.28 2.42v.51l-1.21-.25h-.58z" fill="#b9b5b1" transform="translate(-6.98 -5.54)"/><path d="m17.24 140.81c-1.08-1.25-1-1.62.28-2.42l2.18-.31 1 .11-.25 1.22-.66 1.6-.64.55h-.56-.65z" fill="#786d5f" transform="translate(-6.98 -5.54)"/><path d="m15.38 141.11h.58c0 .21.05.43.07.64l-.2.13z" fill="#96999d" transform="translate(-6.98 -5.54)"/><path d="m17.24 140.81.67.74-.64-.23z" fill="#96999d" transform="translate(-6.98 -5.54)"/><path d="m53.47 134.4h-.72l.73-.69c0 .21-.01.45-.01.69z" fill="#c9934e" transform="translate(-6.98 -5.54)"/><path d="m53.6 133.59.65-.47z" fill="#c9934e" transform="translate(-6.98 -5.54)"/><path d="m19.7 138.08-2.18.31c-.73-.27-1.45-.55-2.18-.78a5.11 5.11 0 0 0 -1-.14l.71-.76c-.26-.75-.51-1.44-.75-2.13l2.68.88c.24.45.47.91.72 1.42.35-1.5 1.28-.65 2-.56-.01.59 0 1.17 0 1.76z" fill="#87888b" transform="translate(-6.98 -5.54)"/><path d="m14 136.47c0 .08 0 .19-.1.21a.2.2 0 0 1 -.2-.09.22.22 0 0 1 .09-.2c.04-.02.13.05.21.08z" fill="#87888b" transform="translate(-6.98 -5.54)"/><path d="m55.65 46.33 2.92-.81v.56l-1.74.21c-.4.03-.83.03-1.18.04z" fill="#dfb27a" transform="translate(-6.98 -5.54)"/><path d="m19.68 136.32c-.73-.09-1.66-.94-2 .56-.25-.51-.48-1-.72-1.42l-.16-.49.53-.08h.42l.54.07 1.68.79c-.1.18-.19.38-.29.57z" fill="#786d5f" transform="translate(-6.98 -5.54)"/><path d="m17.32 134.89-.53.08c0-.14.09-.29.13-.44z" fill="#c9934e" transform="translate(-6.98 -5.54)"/><path d="m13.29 46.31c-.85-.71-1.73-1.38-2.53-2.14a6.9 6.9 0 0 1 -.9-1.33 9.8 9.8 0 0 1 2.4.88c1.47 1 2.82 2.19 4.22 3.31l-1.6-.2-1.1-.51z" fill="#eadccc" transform="translate(-6.98 -5.54)"/><path d="m13.78 46.32 1.1.51-.52.27h-.53z" fill="#ead3b6" transform="translate(-6.98 -5.54)"/><path d="m13 80.14a1.44 1.44 0 0 1 .51 2.18z" fill="#9c6427" transform="translate(-6.98 -5.54)"/><path d="m52 52.38-.27 1.31v.8l-.25 2.13v1.31c-.18 3.28 0 6.65-.67 9.82-.63 2.91-.49 5.82-1 8.7a17.69 17.69 0 0 1 -.51 1.86l-.27.53v.26l-.26.27c-.73.38-1.48.71-2.16 1.15a1.7 1.7 0 0 0 -.48.85 3.24 3.24 0 0 1 -2.13 2.46 2.45 2.45 0 0 0 -1.81 2.85 6.94 6.94 0 0 1 -.11 1.09c-.1 1.92-2.27 2.14-3 3.61a3.15 3.15 0 0 1 -1.94 1.1c-.45.11-1-.28-1.55-.49a14 14 0 0 0 -3.08-1.26c-.63-.09-1.28.23-1.87-.37a1.51 1.51 0 0 0 -1.1-.36 2 2 0 0 1 -2.51-1.89l-.27-1.06a3 3 0 0 0 -.53-3.44l.27-2.12v-.27h.66c1.06 0 2.16.21 2.36-1.35 0-.21.69-.47 1.07-.48h5.81a2.84 2.84 0 0 1 1 .3c.35.12.9.47 1 .38a4.15 4.15 0 0 0 .6-1.21c.27-.65.34-1.52.81-1.94a3.56 3.56 0 0 0 1.33-3.36 3.32 3.32 0 0 1 0-1.44 2.13 2.13 0 0 1 .86-1.19c1-.56 1.64-1.19 1.39-2.49-.08-.42.2-1.26.49-1.35 1.09-.32 1.1-1.11.9-1.87a2.9 2.9 0 0 1 .32-2.62 1.42 1.42 0 0 0 0-1.15 16.59 16.59 0 0 0 -2.42-.45c.2.45.4.91.59 1.36a2.29 2.29 0 0 1 .09.44l-.34.23a15.58 15.58 0 0 1 -1.08-1.38c-.4-.63-.58-1.46-1.11-1.91-.84-.74-1.22-1.25-.08-2 .2-.13.27-.52.33-.81.25-1.39.47-2.78.72-4.26.82.24 1.6.53 2.4.68a1.62 1.62 0 0 0 1.22-.24 5.72 5.72 0 0 0 .84-1.55c-1.69.27-2.19 0-1.94-.84a2.61 2.61 0 0 1 4.51-1.24l-.47 1.35a10.77 10.77 0 0 1 1.18-.38 7.93 7.93 0 0 1 1.28-.07c-.16-1.16.68-.94 1.39-.94z" fill="#b76c1a" transform="translate(-6.98 -5.54)"/><path d="m28.12 109.81.88.19c-1.59-1.33-.49-3.13-.87-4.65-.21-.84-.29-1.72-.56-2.53a5.09 5.09 0 0 1 .11-3.24c-.35-1.69-.67-3.26-1-4.88l-1.23-.52 1.62-1c.18.34.35.69.54 1 .45.8.74 2 1.42 2.3a2.28 2.28 0 0 1 1.5 1.73c.43 1.67 1.3 2.21 3 2.12a11.3 11.3 0 0 1 2.09.14c1.4.19 2.73.25 3.57-1.23a.8.8 0 0 1 .47-.35l3 1.57c.32-.83.44-1.78.76-1.86 2.06-.47 2-1.76 1.5-3.31a1.82 1.82 0 0 1 .22-.16l.9 1c.11-.55.18-.93.26-1.31.68-3.19 1.37-6.38 2-9.57.27-1.31.5-2.63.75-4a6.6 6.6 0 0 1 .66 1.22 3.58 3.58 0 0 1 0 1.13 10.42 10.42 0 0 1 .17 1.88 52.68 52.68 0 0 1 -.7 6.28 3.49 3.49 0 0 0 .06 2.58c.15.28-.23 1-.56 1.35-1.62 1.58-1.57 3.62-1.76 5.64a13.93 13.93 0 0 1 -.87 3.2c-.29.81.07 1.21 1.41 1.44-.33.18-.77.61-1 .52-1.33-.66-1.41.14-1.4 1.1v1.19c-2.15 0-2.58.85-1.65 2.89a2.87 2.87 0 0 1 .05 2.08c-.11.27-1.19.29-1.78.19-1.76-.31-2.36 0-2.73 1.68-.23 1.07-.44 2.06-1.86 2-.08 0-.16.27-.24.42-.92-.34-1.86-.63-2.76-1a2.1 2.1 0 0 0 -2.53.26 6.89 6.89 0 0 1 -.93.64l-1.63-1.43-.25.29a6.43 6.43 0 0 1 .77 1.2c.27.73.61 1.56-.58 1.87-.94-.68-.88-1.65-.78-2.63v-.81-.55l-.5-1.57a2.51 2.51 0 0 0 1-2.81z" fill="#c27c1d" transform="translate(-6.98 -5.54)"/><path d="m49 81.22c-.25 1.32-.48 2.64-.75 4-.67 3.19-1.36 6.38-2 9.57-.08.38-.15.76-.26 1.31l-.9-1a1.82 1.82 0 0 0 -.22.16c.48 1.55.56 2.84-1.5 3.31-.32.08-.44 1-.76 1.86l-3-1.57a.8.8 0 0 0 -.47.35c-.84 1.48-2.17 1.42-3.57 1.23a11.3 11.3 0 0 0 -2.09-.14c-1.69.09-2.56-.45-3-2.12a2.28 2.28 0 0 0 -1.48-1.73c-.68-.31-1-1.5-1.42-2.3-.19-.33-.36-.68-.54-1h-.24c.09-.65.47-1.45.22-1.92a3.76 3.76 0 0 1 0-3.1 2 2 0 0 0 2.55 1.87 1.51 1.51 0 0 1 1.1.36c.59.6 1.24.28 1.87.37a14 14 0 0 1 3.08 1.27c.51.21 1.1.6 1.55.49a3.15 3.15 0 0 0 1.94-1.1c.73-1.47 2.9-1.69 3-3.61a6.94 6.94 0 0 0 .11-1.09 2.45 2.45 0 0 1 1.78-2.86 3.24 3.24 0 0 0 2.09-2.46 1.7 1.7 0 0 1 .48-.85c.68-.44 1.43-.77 2.16-1.15h.27z" fill="#bc741b" transform="translate(-6.98 -5.54)"/><path d="m51.43 57.93v-1.31c.34-.36.69-.72 1-1.07 1.21.52 1.64-.7 1.83-1.21.66-1.82 1-3.77 1.53-5.63a2.12 2.12 0 0 1 1.23-1.3c.9-.22.73.66.69 1.17-.21 2.57-.48 5.13-.71 7.69-.12 1.26-.18 2.53-.35 3.78-.21 1.6-.51 3.18-.78 4.76-.09-.54-.19-1.08-.27-1.62-.11-.86-.31-1.63-1.42-1.79a4.51 4.51 0 0 1 -.12.52c-.17.41-.36.81-.54 1.22-.28-.35-.69-.65-.8-1-.34-1.21-.54-2.45-.84-3.66-.01-.24-.28-.39-.45-.55z" fill="#ce8740" transform="translate(-6.98 -5.54)"/><path d="m49 78.84.27-.53z" fill="#c27c1d" transform="translate(-6.98 -5.54)"/><path d="m49 79.37h-.26l.26-.27z" fill="#c27c1d" transform="translate(-6.98 -5.54)"/><path d="m28.92 119.87c1.19-.31.85-1.14.58-1.87a6.43 6.43 0 0 0 -.77-1.2l.25-.29 1.65 1.36a6.89 6.89 0 0 0 .93-.64 2.1 2.1 0 0 1 2.53-.26c.9.41 1.84.7 2.76 1 1.25.19 2.44.29 3.07-1.21.08-.2.66-.19 1-.29l.21 1.47a4.9 4.9 0 0 1 .9-.31c.44-.07 1.25-.14 1.27 0 .14.56 1 1.23-.11 1.77a1 1 0 0 0 -.5.81c.12 1.35.31 2.7.52 4a11.25 11.25 0 0 1 .47 2.2c0 1.14.31 1.75 1.9 1.7l-1.22.95c.57 1.24.37 1.94-1 2.16a27 27 0 0 1 -4.5.06 7.24 7.24 0 0 1 -1.87-.18 3.65 3.65 0 0 1 -1.35-.77c-.25-.21-.33-.62-.62-1.21l-.74 2.15-1-1.77c-.51.74-.34 1.82-1.66 1.78-.87 0-1.66-.23-2.45-.31-1-.11-1.41-.74-2.11-1.09l-.29-.52v-.54l1.49-.08-.14-2.74v-.26c.43-.52 1.22-1 1.24-1.56a27.5 27.5 0 0 0 -.45-4 2.09 2.09 0 0 1 .01-.31zm2.06.19-.68-.17a9 9 0 0 0 -.3 1.24 4 4 0 0 0 .76.25z" fill="#b9771c" transform="translate(-6.98 -5.54)"/><path d="m46.38 134.16a1.44 1.44 0 0 0 2.15-.8h.22v1.3l-1.29.47a3.12 3.12 0 0 0 -.74-.06 45.69 45.69 0 0 1 -5.4.89c-4.38.19-8.77.19-13.15.27.25-.22.49-.57.77-.62.45-.07 1 .17 1.41.07.29-.06.5-.47.68-.66-.87-.14-1.44-.21-2-.32a14.61 14.61 0 0 1 -2-.44c-.21-.07-.32-.44-.48-.66 4-.08 8-.28 12-.19 2.39.06 4.76.59 7.14.89a2.08 2.08 0 0 0 .69-.14z" fill="#d79c2f" transform="translate(-6.98 -5.54)"/><path d="m46.38 134.16a2.08 2.08 0 0 1 -.71.16c-2.38-.3-4.75-.83-7.14-.89-4-.09-8 .11-12 .19v-1.31c2.29-.08 4.59-.21 6.88-.22.62 0 1.23.43 1.86.47 2.06.14 4.16 0 6.21.33a39.13 39.13 0 0 1 4.9 1.27z" fill="#c9821f" transform="translate(-6.98 -5.54)"/><path d="m48.7 134.68c0-.43 0-.86 0-1.3-.17-1-.31-2-.54-2.92a6.92 6.92 0 0 0 -.61-1.33c0-.19-.06-.38-.1-.56l-.06-2.87c1.16 0 .87 1 1.07 1.6s.51 1.49.78 2.23c.06.16.24.31.23.46a3.93 3.93 0 0 0 1.09 3.38l-.52 1.06-1.1.82z" fill="#ead3b6" transform="translate(-6.98 -5.54)"/><path d="m47.44 125.7.06 2.87a7 7 0 0 1 -.74-1.6c-.29-1.62-.44-3.25-.7-4.87a4.77 4.77 0 0 0 -.51-1.16c.1-.53.21-1.07.31-1.6 1.75.22 2 .93 1.1 3.32l1 .64z" fill="#e3c9ac" transform="translate(-6.98 -5.54)"/><path d="m45.58 115.66 1.61.93-1.61 2a.55.55 0 0 0 -.22 0l-.09-1.3v-1.08c0-.17.07-.34.1-.5h.21z" fill="#e3c9ac" transform="translate(-6.98 -5.54)"/><path d="m26.76 129.4.29.52-.51 2.38-1-2.55z" fill="#ce8740" transform="translate(-6.98 -5.54)"/><path d="m47.6 129.13a6.92 6.92 0 0 1 .61 1.33c.23 1 .37 1.95.54 2.92h-.22z" fill="#e3c9ac" transform="translate(-6.98 -5.54)"/><g fill="#c9934e"><path d="m45.36 118.53a.55.55 0 0 1 .22 0c.1.27.19.54.28.8-.1.53-.21 1.07-.31 1.6-.86-.73-.55-1.57-.19-2.4z" transform="translate(-6.98 -5.54)"/><path d="m45.36 113v1.05z" transform="translate(-6.98 -5.54)"/><path d="m45.27 116.15v1.08q-1.02-.54 0-1.08z" transform="translate(-6.98 -5.54)"/><path d="m45.58 115.66h-.21c0-.18 0-.37 0-.55z" transform="translate(-6.98 -5.54)"/></g><path d="m49 135.25 1.1-.82h.54c.19 1.17.39 2.34.66 3.93l-2-1.06c-.1-.67-.2-1.36-.3-2.05z" fill="#b9b5b1" transform="translate(-6.98 -5.54)"/><path d="m18.59 75.67-1.35-1.21c.78-.24 1.3-.38 1.8-.56a3.1 3.1 0 0 0 .61-.35l3.53-1.28c-1.72-.4-1.48-1.16-1.1-2 .5-1.17.9-2.38 1.38-3.68h-1.81c2.06-.89 2.31-1.69 1.72-3.65a5.38 5.38 0 0 1 .26-2c.62.24 1.12.46 1.08 1.35-.09 1.84 0 3.69 0 5.53a12.36 12.36 0 0 0 -1 6.26c1.54 0 1.42.88 1.05 2l-2.3-.18-.11.3a9.37 9.37 0 0 0 1.27.63 10 10 0 0 0 1.38.17v.52c-.83.62-.22 1.36-.17 2 .1 1.55.69 3.21-1.16 4.27-.22.13-.18.72-.27 1.09a12.76 12.76 0 0 1 -.28 1.75 5.13 5.13 0 0 1 -.69 1.07 7.94 7.94 0 0 0 -.4-1c-.32-.55-.67-1.07-1-1.61a7.56 7.56 0 0 1 .39-1.07c.82-1.5.56-2.25-1.09-2.82.75-.78.87-1.33.17-2.44-.55-.88-1.8-1.68-1.5-3.07-.06.09-.29.02-.41-.02zm3 2.88-.29-.38c-.08.06-.25.15-.24.19a.67.67 0 0 0 .22.34s.18-.09.29-.15zm1.94-3.75-.22-.1c0 .08-.11.17-.09.22s.14.07.21.1z" fill="#c9832c" transform="translate(-6.98 -5.54)"/><path d="m23.35 84.93c.09-.37 0-1 .27-1.09 1.85-1.06 1.26-2.72 1.16-4.27-.05-.69-.66-1.43.17-2l.79.26h.26v2.65l.53 1.06-.27 2.12.54 3.44.26 1.06a3.76 3.76 0 0 0 0 3.1c.25.47-.13 1.27-.22 1.92l-2.34.17c.12.17 0 .07 0 0-.3-2.68-.58-5.35-.88-8-.06-.22-.19-.35-.27-.42z" fill="#c27c1d" transform="translate(-6.98 -5.54)"/><path d="m28.12 109.81.48 1.69a2.51 2.51 0 0 1 -1 2.81c-1.33-.74-.12-1.8-.29-2.58-.47-.31-1.07-.48-1.2-.83a1.56 1.56 0 0 0 -2-1.22c-.3 1-.32 2.32-1 2.77-1.19.83-.78 1.83-.85 2.79s.22 2.22-.81 3a42 42 0 0 1 -.21-4.74 9.81 9.81 0 0 1 1-2.67l.51-.8v-.79l1.43-2.72-.62-.77c1.52-.07 2.89 1.91 3.31 4.67z" fill="#d79c2f" transform="translate(-6.98 -5.54)"/><path d="m21.5 118.28c1-.82.74-2 .81-3s-.34-2 .85-2.79c.64-.45.66-1.81 1-2.77a1.56 1.56 0 0 1 2 1.22c.13.35.73.52 1.2.83.17.78-1 1.84.29 2.58.17.52.33 1 .5 1.57l-1.56.28c.5-1.94-1-2.51-2.55-3.55-.36 2-.81 3.83-1 5.67-.11 1.23-.62 2.42-.06 3.78.28.68-.4 1.73-.52 2.63-.17 1.28-.21 2.57-.34 4.24-.45.4-.65 2.74.21 3.49l-2.11.93-1.22-.87c0-.43.07-1 .11-1.52.17-.52.35-1 .52-1.58.56-2 1.44-4 1.13-6.13 0-.32.41-.68.44-1a5.13 5.13 0 0 0 -.25-1.31c.09-.43.18-.87.28-1.31.08-.27.17-.54.26-.8z" fill="#dea351" transform="translate(-6.98 -5.54)"/><path d="m22.81 110.07-.51.8z" fill="#c9821f" transform="translate(-6.98 -5.54)"/><path d="m21.51 118.81c-.09.26-.18.53-.26.8.08-.27.17-.54.26-.8z" fill="#d79c2f" transform="translate(-6.98 -5.54)"/><path d="m19.65 129.4c-.17.53-.35 1.06-.52 1.58-.13-.62-.52-1.33.52-1.58z" fill="#c9934e" transform="translate(-6.98 -5.54)"/><path d="m20.18 133.35 2.11-.93c-.86-.75-.66-3.09-.21-3.49.13-1.67.17-3 .34-4.24.12-.9.8-2 .52-2.63-.56-1.36-.05-2.55.06-3.78.17-1.84.62-3.65 1-5.67 1.53 1 3.05 1.61 2.55 3.55v.79l-.74 2.05c-.65.34-.88.75-.21 1.59.17.2.08.67 0 1-.09.55-.26 1.1-.45 1.88l-.83.38.88 2.1v.78c-1 0-1.71.06-1 1.42a3.65 3.65 0 0 1 -.69 4.31l2.17 2c.15.14.44.31.42.43-.2 1.72 1 1.34 2 1.36 4.38-.08 8.77-.08 13.15-.27a45.69 45.69 0 0 0 5.4-.89 3.12 3.12 0 0 1 .74.06c.1.92-.32 1.28-1.23 1.19a6.44 6.44 0 0 0 -1.16 0c-2.63.3-5.26.73-7.89.86-3 .16-6 .05-9 .06h-2.63l-1.87-1.26-2.25-1.64-.91 1.35h-.45l-1.72-.71c.13-.14.31-.44.36-.42 1.22.42 1.36-.4 1.54-1.23z" fill="#dfb27a" transform="translate(-6.98 -5.54)"/><path d="m23.63 60.84a5.38 5.38 0 0 0 -.26 2c.59 2 .34 2.76-1.72 3.65h1.81c-.48 1.3-.88 2.51-1.38 3.68-.38.89-.62 1.65 1.1 2l-3.53 1.28-.27-.26 1.5-1.09-1.59-.38.37-.15c-.19-.8-.37-1.61-.57-2.41a7.15 7.15 0 0 1 -.34-1.15c-.07-1 0-1.94-1.21-2.24v-.52l.71-.58-1-1-.25-1.24 1.44-.68-1.44-.64c-.36-1-.71-1.94-1.06-2.91l1.1-.14c-.54-1.15.27-2.45-.8-3.38-.11-.1 0-.42 0-.64a34 34 0 0 0 -.05-3.5 10.25 10.25 0 0 0 -.76-2.13l1.06-.28v.28a3.08 3.08 0 0 0 2.15 3l-1.26.36c-.08 1.58.09 2.93 2 3.22l-1.7.15c.25.43.56.75.57 1.07a4.1 4.1 0 0 1 -.35 1.28l1 .4c-.5 1.2-.06 2.29.81 2.16.68-.11 1.34-.31 2-.47-1.2-1.54-.41-1.89 1.38-3-.81-1.75-.73-2.87.3-4l1.13.41a8.44 8.44 0 0 0 -.26 2c.09.76.75 1.57.58 2.21-.39 1.25.28 2.8-1.21 3.64zm-2.32 5.93s-.07 0-.11 0 0 .06 0 .09a.53.53 0 0 0 .12 0s-.02-.06-.01-.09z" fill="#ce8740" transform="translate(-6.98 -5.54)"/><path d="m15.4 48.41a10.25 10.25 0 0 1 .76 2.13 34 34 0 0 1 .05 3.5c0 .22-.07.54 0 .64 1.07.93.26 2.23.8 3.38l-1.01.14h-.27c-.18-1.4-.38-2.81-.52-4.22s-.09-2.57-.32-3.82a6 6 0 0 0 -1-1.76z" fill="#c9832c" transform="translate(-6.98 -5.54)"/><path d="m17.54 65.87c1.23.3 1.14 1.29 1.21 2.24a7.15 7.15 0 0 0 .34 1.15c.2.8.38 1.61.57 2.41l-.37.15 1.59.38-1.5 1.09c-1.85-.22-.95-1.79-1.28-2.72a16.75 16.75 0 0 1 -.64-3.24 6.57 6.57 0 0 1 .08-1.46z" fill="#c9832c" transform="translate(-6.98 -5.54)"/><path d="m17 61.11 1.43.64-1.43.68c-.84-.43-.49-.88 0-1.32z" fill="#c9832c" transform="translate(-6.98 -5.54)"/><path d="m17.27 63.75 1 1-.71.58z" fill="#c9832c" transform="translate(-6.98 -5.54)"/><path d="m14.77 75.33-.09.22c-.07 0-.19 0-.21-.1s0-.14.08-.22z" fill="#b76c1a" transform="translate(-6.98 -5.54)"/><path d="m16.47 48.41c0-.09 0-.19 0-.28v-.48l.27-.29 1 .08a3.77 3.77 0 0 0 1.09.42c.91.06 1.82 0 2.73 0 .06.26.13.53.19.79z" fill="#c9934e" transform="translate(-6.98 -5.54)"/><path d="m16.73 47.36-.27.29-2.1-.55.52-.27 1.6.2z" fill="#dfb27a" transform="translate(-6.98 -5.54)"/><path d="m54.58 38.35c-.06.11-.2.26-.17.31 1.17 2 .63 4-.09 6-1.16.1-1.5-.42-1.24-1.52a3.94 3.94 0 0 0 -.08-1.23c-.17-1.78-.36-3.56-.55-5.34 0-.25 0-.58-.2-.73a3.39 3.39 0 0 0 -4.25-.32 3.41 3.41 0 0 1 -3.57.34 3.33 3.33 0 0 0 -2.33 0c-2.06.92-4 2.26-6.06 3s-2.16 2.28-2.71 3.84c-1.37.16-2.76 1-2.85 1.93-.11 1.21-.71 1.66-1.9 1.63a5.31 5.31 0 0 0 -1.56.49 2.44 2.44 0 0 0 0 .27l-1.14.57-1.55.17a.17.17 0 0 0 -.14-.1h-.6l-1.33-.06c.3-.26.62-.76.91-.75 1.58.08 1.54-.68.8-2.06h3.51c0-.21.1-.78-.13-1.14-.74-1.16.1-1.35.88-1.59.24-.07.54 0 .78 0 .57-.16 1.55-.34 1.58-.59a8.18 8.18 0 0 0 -.4-2.3l-.74-2.17 2 1.55c.5-1.92 2.21-1.86 4-1.85a1.44 1.44 0 0 0 1.08-.7c.76-2.37 1-2.6 3.61-2.67.89 0 1.55-.21 1.88-1.09.06-.16.16-.43.26-.44 1.39-.19 2.23-1.44 3.42-1.85a45.17 45.17 0 0 1 5.48-1.24l1.82 1.7v.52c-1 .37-1 1.2 0 2.12v4.37z" fill="#eadccc" transform="translate(-6.98 -5.54)"/><path d="m40.68 28.58c-.73-.37-1.5-.52-1.85-1s-1-1.45-.1-2.2c.73-.58 3.05-.38 3.55.37.33.51.74 1.5.53 1.72a7 7 0 0 1 -2.13 1.11z" fill="#eadccc" transform="translate(-6.98 -5.54)"/><path d="m22.3 47.62 1.33.06h.6a.17.17 0 0 1 .14.1v3.75l-.79-.26-2.18-.58 1.26-2.07h-.89c-.06-.26-.13-.53-.19-.79l-.07-.19z" fill="#ce8740" transform="translate(-6.98 -5.54)"/><path d="m29.45 37 .78 2.13h-1.33l-2.38-.45a3 3 0 0 1 2.93-1.68z" fill="#ead3b6" transform="translate(-6.98 -5.54)"/><path d="m21.51 47.68.07.19c-.91 0-1.82.05-2.73 0a3.77 3.77 0 0 1 -1.09-.42z" fill="#dfb27a" transform="translate(-6.98 -5.54)"/><path d="m22.87 45.66c.18.2.37.32.36.4a.54.54 0 0 1 -.3.36c-.05 0-.29-.15-.3-.25s.12-.27.24-.51z" fill="#f3ebe0" transform="translate(-6.98 -5.54)"/><path d="m28.9 39.17h.81l-.46.47z" fill="#eadccc" transform="translate(-6.98 -5.54)"/><path d="m43.93 20c-.28 1.34-.38 1.38-1.63.62z" fill="#f0e5d9" transform="translate(-6.98 -5.54)"/><path d="m30.74 22.4c.06.11.18.26.15.31a.72.72 0 0 1 -.34.22s-.13-.16-.19-.25z" fill="#f3ebe0" transform="translate(-6.98 -5.54)"/><path d="m53 33.05c-1-.92-1-1.75 0-2.12.69.71 0 1.42 0 2.12z" fill="#f0e5d9" transform="translate(-6.98 -5.54)"/><path d="m37.65 143.18c-.74-1.08-1.48-1-2.24 0a3.26 3.26 0 0 1 -.68.53l-3.95-.29c.41-1.1.81-2.2 1.31-3.55l2.19 1.7.38-1.6c2 .26 4.16-.1 5.37 1.78l-1.03 1.42z" fill="#fcf8f2" transform="translate(-6.98 -5.54)"/><path d="m30.78 143.4 3.95.29-3.7.53c-.61.08-1.22.17-1.84.19-.18 0-.37-.24-.56-.37 0-.26-.05-.52-.07-.79z" fill="#dad5cf" transform="translate(-6.98 -5.54)"/><path d="m37.65 143.18h1.35l.28.11v.61l-3.25.18-.06-.41z" fill="#b9b5b1" transform="translate(-6.98 -5.54)"/><path d="m39.25 143.28-.28-.11 1.03-1.44c-1.21-1.88-3.36-1.52-5.37-1.78l-.38 1.6-2.19-1.7c-.5 1.35-.9 2.45-1.31 3.55l-2.22-.15h-.49v-1.13l-1.95-1 .94-1.43.35.69.35-.35-.7-.34.26-.53h1.33c.24.26.53.77.7.73.33-.07.6-.45.89-.71l4-.32h.54 2.12 2.37c.52.55 1.05 1 1.59 0h2.11v.51l-.84.42a2.31 2.31 0 0 1 .31 2.62.57.57 0 0 0 0 .13zm-11.51-2.28-.22-.1c0 .07-.1.16-.08.22s.13.06.21.09z" fill="#eae6e2" transform="translate(-6.98 -5.54)"/><path d="m27.32 139.19-.26.53-.94 1.43 1.95 1v1.13c-2-.35-4.05-.68-6.07-1.08a9.7 9.7 0 0 1 -1.55-.63l-.69-.54.66-1.6 1.81-.56 2.71.08z" fill="#dad5cf" transform="translate(-6.98 -5.54)"/><path d="m19.76 141 .69.54c-.43 1-.89.18-1.33 0z" fill="#87888b" transform="translate(-6.98 -5.54)"/><path d="m42.41 142.62a.57.57 0 0 1 0-.13 2.31 2.31 0 0 0 -.31-2.62l.84-.42 2.41-.26v.29l-1 .49v.28l1.49.14.42 1.1-1.78.73z" fill="#dad5cf" transform="translate(-6.98 -5.54)"/><path d="m46.34 141.49-.42-1.1-1.49-.14v-.28l1-.49v-.29l-2.41.26v-.51c1-.83 2-.39 3-.06l2.61.86v.51a2 2 0 0 1 -.1.21z" fill="#b9b5b1" transform="translate(-6.98 -5.54)"/><path d="m23.58 51.31.79.26v-3.75l1.55-.16 1.18.11h1c.44 0 .87.1 1.3.09 3.11-.06 6.22-.15 9.32-.22a7.8 7.8 0 0 0 1.25.22c2.69 0 5.39 0 8.08-.1.44 0 .87-.41 1.3-.63h1.54l1.34.41c.08.64.17 1.3.25 2h-.25c-.71 0-1.55-.22-1.39.94a7.93 7.93 0 0 0 -1.28.07 10.77 10.77 0 0 0 -1.18.38l.47-1.35a2.61 2.61 0 0 0 -4.51 1.24c-.25.81.25 1.11 1.94.84a5.72 5.72 0 0 1 -.84 1.55 1.62 1.62 0 0 1 -1.22.24c-.8-.15-1.58-.44-2.4-.68-.25 1.48-.47 2.87-.72 4.26-.06.29-.13.68-.33.81-1.14.76-.76 1.27.08 2 .53.45.71 1.28 1.11 1.91a15.58 15.58 0 0 0 1.04 1.32l.34-.23a2.29 2.29 0 0 0 -.09-.44c-.19-.45-.39-.91-.59-1.36a16.59 16.59 0 0 1 2.34.41 1.42 1.42 0 0 1 0 1.15 2.9 2.9 0 0 0 -.32 2.62c.2.76.19 1.55-.9 1.87-.29.09-.57.93-.49 1.35.25 1.3-.36 1.93-1.39 2.49a2.13 2.13 0 0 0 -.84 1.19 3.32 3.32 0 0 0 0 1.44 3.56 3.56 0 0 1 -1.33 3.36c-.47.42-.54 1.29-.81 1.94a4.15 4.15 0 0 1 -.6 1.21c-.08.09-.63-.26-1-.38a2.84 2.84 0 0 0 -1-.3c-1.94 0-3.88 0-5.81 0-.38 0-1.05.27-1.07.48-.2 1.56-1.3 1.39-2.36 1.35h-.66v-.79l1.28-2.08-1.7-.57h-.26v-2.91l-.26-.79v-.53c.68-1 1.51-1.94 1.23-3.32l-1.23.14.18-2.5-1-.15c0-1.84-.07-3.69 0-5.53 0-.89-.46-1.11-1.08-1.35 1.49-.82.82-2.39 1.13-3.59.17-.64-.49-1.45-.58-2.21a8.44 8.44 0 0 1 .26-2l-1.13-.41zm19.47 13.89c-.63-.32-1-.64-1.23-.59s-.48.47-.71.73c.24.17.49.5.72.49s.6-.29 1.22-.63z" fill="#b16719" transform="translate(-6.98 -5.54)"/><path d="m50.87 47.1h-1.54l-10.07.24c-.19 0-.37.17-.56.27-3.1.07-6.21.16-9.32.22-.43 0-.86-.06-1.3-.09 0-.23 0-.45 0-.67l3.42-.25c1.86-.05 3.72 0 5.55-.19s3.95-.79 5.95-1.05c.71-.1 1.49.38 2.24.43 2 .14 3.94.16 5.9.3a4.88 4.88 0 0 1 1.35.52z" fill="#dfb27a" transform="translate(-6.98 -5.54)"/><path d="m52.21 49.47h.25c1.11 1.25 1 1.83-.5 2.92.04-.98.17-1.95.25-2.92z" fill="#ce8740" transform="translate(-6.98 -5.54)"/><path d="m52.47 55.55c-.35.35-.7.71-1 1.07.08-.71.17-1.42.25-2.13h.79z" fill="#c9832c" transform="translate(-6.98 -5.54)"/><path d="m52.73 46.86 2.43-.49z" fill="#dfb27a" transform="translate(-6.98 -5.54)"/><path d="m52.47 54.49h-.79c0-.27 0-.53 0-.8z" fill="#ce8740" transform="translate(-6.98 -5.54)"/><path d="m31.54 46.85-3.42.24-1.07-.28a5.31 5.31 0 0 1 1.56-.49c1.19 0 1.79-.42 1.9-1.63.09-.9 1.48-1.77 2.85-1.93.55-1.56.75-3.13 2.71-3.84s4-2.11 6.06-3a3.33 3.33 0 0 1 2.33 0 3.41 3.41 0 0 0 3.54-.4 3.39 3.39 0 0 1 4.23.32c.16.15.17.48.2.73.19 1.78.38 3.56.55 5.34a3.94 3.94 0 0 1 .07 1.27c-.26 1.1.08 1.62 1.24 1.52l.79.8a17.42 17.42 0 0 1 -2.35.46c-.16 0-.53-.62-.53-1a28.75 28.75 0 0 0 .18-3.57c-.23-2-2.43-3.63-4.44-3.7a19.51 19.51 0 0 1 -3.22-.67s-.08.3-.17.56-.22.6-.34.9a5 5 0 0 1 -.75-.77 5.8 5.8 0 0 1 -.33-1.28c-1.15.9-2.17 1.57-3 2.4-.47.46.26 1.91.95 2.11l.67.17v.32a3.9 3.9 0 0 0 -1.17-.07 6.84 6.84 0 0 0 -2 .79c-.59.4-1 1-1.68 1.41-.43 2-2 2.18-3.66 2.44a6.35 6.35 0 0 0 -1.7.85z" fill="#ead3b6" transform="translate(-6.98 -5.54)"/><path d="m45.88 138.88c-1-.33-2-.77-3 .06h-2.11-1.59-2.32l-.07-1.14c-.95 1.64-1.18-.31-1.89-.06l-.16 1.18h-.54a4.47 4.47 0 0 0 -4.43-1c-.56.14-1.42.54-1.68-.53 3 0 6 .1 9-.06 2.63-.13 5.26-.56 7.89-.86a6.44 6.44 0 0 1 1.16 0c.91.09 1.33-.27 1.23-1.19l1.29-.47.29.57c.11.69.21 1.38.32 2.07 0 .21-.07.41-.1.62-1.17-.07-2.4-.27-3.29.81zm-7.33-.09.19-.3c-.19-.09-.37-.2-.57-.28 0 0-.13.17-.13.17z" fill="#786d5f" transform="translate(-6.98 -5.54)"/><path d="m45.88 138.88c.89-1.08 2.13-.92 3.33-.94.21.61.42 1.21.64 1.82h-1.36z" fill="#27282a" transform="translate(-6.98 -5.54)"/><path d="m48.49 139.74h1.36a.43.43 0 0 1 0 .16l-1.34.33z" fill="#786d5f" transform="translate(-6.98 -5.54)"/><path d="m24.94 138.93-2.71-.08c-.07-1.27-1-.52-1.56-.66l-1-.11c0-.59 0-1.17 0-1.76.1-.19.19-.39.28-.58h.49a4.07 4.07 0 0 0 1.3.59 8.68 8.68 0 0 0 1.86-.3l1.87 1.3c-.69.35-1.05.83-.53 1.6z" fill="#b9b5b1" transform="translate(-6.98 -5.54)"/><path d="m20.67 138.19c.55.14 1.49-.61 1.56.66l-1.81.56c.08-.41.16-.82.25-1.22z" fill="#87888b" transform="translate(-6.98 -5.54)"/><path d="m26.8 87.05-.54-3.44a3 3 0 0 1 .54 3.44z" fill="#bc741b" transform="translate(-6.98 -5.54)"/><path d="m26.53 80.43v1.06l-.53-1.06z" fill="#bc741b" transform="translate(-6.98 -5.54)"/><path d="m25.22 126-.88-2.1.83-.38c.19-.78.36-1.33.45-1.88.06-.33.15-.8 0-1-.67-.84-.44-1.25.21-1.59l.67-2.05 1.61-.52v.81c-1.55.62-1.59.76-.8 2.64v.52 1.84.54l-1.08.79c.46 1.11.56 2.11-1.01 2.38z" fill="#dea351" transform="translate(-6.98 -5.54)"/><path d="m27.34 119.88c-.79-1.88-.75-2 .8-2.64-.1 1-.16 2 .78 2.63a2.09 2.09 0 0 0 0 .25z" fill="#d79c2f" transform="translate(-6.98 -5.54)"/><path d="m28.11 116.43-1.61.57v-.79l1.56-.28c.04.14.04.32.05.5z" fill="#d79c2f" transform="translate(-6.98 -5.54)"/><path d="m28.12 136.25c-.95 0-2.16.36-2-1.36 0-.12-.27-.29-.42-.43l-2.17-2a3.65 3.65 0 0 0 .69-4.31c-.74-1.36 0-1.39 1-1.42l1.56 1.59v.27a1.13 1.13 0 0 0 0 .26v.54l-1.22.36 1 2.55v1.31c.16.22.27.59.48.66a14.61 14.61 0 0 0 2 .44c.56.11 1.13.18 2 .32-.18.19-.39.6-.68.66-.45.1-1-.14-1.41-.07-.34.06-.58.38-.83.63z" fill="#dea351" transform="translate(-6.98 -5.54)"/><path d="m27.34 119.88 1.57.24a27.5 27.5 0 0 1 .45 4c0 .53-.81 1-1.24 1.56l-.53-1.32-.27-1.59c0-.18 0-.36 0-.54.29-.61 1-1.23 0-1.84z" fill="#c27c1d" transform="translate(-6.98 -5.54)"/><path d="m26.79 128.86a1.13 1.13 0 0 1 0-.26l.27-.26v-1.86l1.06-.53.16 2.83z" fill="#bb7f21" transform="translate(-6.98 -5.54)"/><path d="m31 120.06-.22 1.32a4 4 0 0 1 -.76-.25 9 9 0 0 1 .3-1.24z" fill="#c9832c" transform="translate(-6.98 -5.54)"/><path d="m28.12 126-1.06.53.53-2.11.53 1.32z" fill="#c9821f" transform="translate(-6.98 -5.54)"/><path d="m24.69 67.72 1 .15-.18 2.5v3.71c.08.26.17.53.26.79v2.13h-.77a10 10 0 0 1 -1.36-.3 9.37 9.37 0 0 1 -1.27-.63l.11-.3 2.3.18c.37-1.09.49-1.93-1.05-2a12.36 12.36 0 0 1 .96-6.23z" fill="#c27c1d" transform="translate(-6.98 -5.54)"/><path d="m25 77h.79v.79l-.79-.27z" fill="#b76c1a" transform="translate(-6.98 -5.54)"/><path d="m21.57 78.55c-.11.06-.26.18-.31.15a.67.67 0 0 1 -.22-.34s.16-.13.24-.19z" fill="#c27c1d" transform="translate(-6.98 -5.54)"/><path d="m23.51 74.8-.1.22c-.07 0-.19 0-.21-.1s.06-.14.09-.22z" fill="#c27c1d" transform="translate(-6.98 -5.54)"/><path d="m26.53 80.43h-.53v-2.65l1.81.57z" fill="#b76c1a" transform="translate(-6.98 -5.54)"/><path d="m24.94 138.93c-.52-.77-.16-1.25.54-1.61h2.61c.26 1.07 1.12.67 1.68.53a4.47 4.47 0 0 1 4.43 1l-4 .32h-1.59-1.29z" fill="#87888b" transform="translate(-6.98 -5.54)"/><path d="m27.59 124.37c-.18.7-.35 1.41-.53 2.11v1.86h-.27l-1.56-1.59c0-.26 0-.52 0-.78 1.57-.23 1.47-1.23 1-2.39l1.08-.79z" fill="#ce8740" transform="translate(-6.98 -5.54)"/><path d="m23.61 136a8.68 8.68 0 0 1 -1.86.3 4.07 4.07 0 0 1 -1.3-.59l.91-1.35z" fill="#e3c9ac" transform="translate(-6.98 -5.54)"/><path d="m23.58 51.31-.27 1.33c-1 1.08-1.11 2.2-.3 4-1.79 1.08-2.58 1.43-1.38 3-.66.16-1.32.36-2 .47-.87.13-1.31-1-.81-2.16l-1-.4a4.1 4.1 0 0 0 .35-1.28c0-.32-.32-.64-.57-1.07l1.7-.15c-1.88-.29-2-1.64-2-3.22l1.26-.36a3.08 3.08 0 0 1 -2.15-3l5.3.25h.89l-1.2 2.01z" fill="#dea351" transform="translate(-6.98 -5.54)"/><path d="m21.31 66.77s0 .09 0 .09a.53.53 0 0 1 -.12 0s0-.09 0-.09.08-.01.12 0z" fill="#c9832c" transform="translate(-6.98 -5.54)"/><path d="m27.05 46.81 1.07.28v.68h-1c0-.23 0-.46 0-.69a2.44 2.44 0 0 1 -.07-.27z" fill="#e3c9ac" transform="translate(-6.98 -5.54)"/><path d="m27.06 47.08v.69l-1.18-.11z" fill="#dfb27a" transform="translate(-6.98 -5.54)"/><path d="m24.23 47.72h-.6z" fill="#dfb27a" transform="translate(-6.98 -5.54)"/><path d="m34.74 138.86.16-1.18c.71-.25.94 1.7 1.89.06l.07 1.14z" fill="#87888b" transform="translate(-6.98 -5.54)"/><path d="m28.65 139.19h1.59c-.29.26-.56.64-.89.71-.17.1-.46-.45-.7-.71z" fill="#dad5cf" transform="translate(-6.98 -5.54)"/><path d="m39.23 138.87h1.59c-.54.96-1.07.55-1.59 0z" fill="#b9b5b1" transform="translate(-6.98 -5.54)"/><path d="m27.06 139.72.7.34-.35.35z" fill="#dad5cf" transform="translate(-6.98 -5.54)"/><path d="m27.74 141-.09.21c-.08 0-.19 0-.21-.09s0-.15.08-.22z" fill="#dad5cf" transform="translate(-6.98 -5.54)"/><path d="m38.7 47.64c.19-.1.37-.27.56-.27l10.07-.24c-.43.22-.86.62-1.3.63-2.69.08-5.39.09-8.08.1a7.8 7.8 0 0 1 -1.25-.22z" fill="#c9934e" transform="translate(-6.98 -5.54)"/><path d="m25.47 73.55v-3.18l1.23-.14c.3 1.38-.55 2.32-1.23 3.32z" fill="#b76c1a" transform="translate(-6.98 -5.54)"/><path d="m43.05 65.2c-.62.34-.91.61-1.22.63s-.48-.32-.72-.49c.23-.26.44-.67.71-.73s.6.27 1.23.59z" fill="#b76c1a" transform="translate(-6.98 -5.54)"/><path d="m25.74 74.87c-.09-.26-.18-.53-.26-.79.08.26.17.53.26.79z" fill="#b76c1a" transform="translate(-6.98 -5.54)"/><path d="m38.55 138.79-.51-.41s.12-.18.13-.17c.2.08.38.19.57.28z" fill="#b9b5b1" transform="translate(-6.98 -5.54)"/><path d="m27.31 120.4c1 .61.29 1.23 0 1.84z" fill="#ce8740" transform="translate(-6.98 -5.54)"/><path d="m26.79 128.33h.27l-.27.26z" fill="#b9771c" transform="translate(-6.98 -5.54)"/></g><path d="m20.18 88.27-.07-.06.45-.22s.07-.11.07-.16c0-.52 0-1 0-1.55a4.68 4.68 0 0 0 -.16-.83v-.15h.07.61.15a0 0 0 0 0 0 0v.09a0 0 0 0 0 0 0s0 0 0 0v1.23 1.14.3l-.05.08h-.16-.45z" fill="#211f1b" transform="translate(-6.98 -5.54)"/><path d="m45.32 64.13a.14.14 0 0 0 0 .06h.06s0 0 0-.06z" fill="#f7bd35" transform="translate(-6.98 -5.54)"/><path d="m38.37 87.89v-.39-.14c0-.45.06-.89.06-1.34a2 2 0 0 0 -.15-.57v-.15h.3.46a.17.17 0 0 0 0 .07v.91a.08.08 0 0 0 0 .07l.06 1.53.26.38h-.35-.22-.17-.12-.57v-.11z" fill="#211f1b" transform="translate(-6.98 -5.54)"/><path d="m42.2 87.05v-.23a.06.06 0 0 0 0-.08v-.91l-.13-.38v-.15h.08.38.31a.08.08 0 0 0 0 .07v1.11a1 1 0 0 0 .1.32l-.1.92v.54h-.17-.85-.08a.8.8 0 0 0 .46-.93c.01-.09.01-.19 0-.28z" fill="#211f1b" transform="translate(-6.98 -5.54)"/><path d="m38.72 90.72-.33-.14.09-.33v-.75h.14.15.38.19l.16.22.08.29.09.53v.15h-.15-.31-.23zm.6-.71-.31-.3c-.07.11-.18.22-.19.33s.1.24.15.37z" fill="#362f1e" transform="translate(-6.98 -5.54)"/><path d="m36.91 87.51.22-.38h.07v.87l-.24.32-.31-.06h-.65s0 0 0 0a1.1 1.1 0 0 0 .91-.75z" fill="#211f1b" transform="translate(-6.98 -5.54)"/><path d="m37.64 90.71-.22-.06a.53.53 0 0 1 -.46-.59c0-.38.27-.53.61-.59l.36.11c.13.16.27.36 0 .49a1.74 1.74 0 0 1 -.68.05c.1.14.16.3.23.31a2.78 2.78 0 0 0 .54-.06l-.17.26z" fill="#362f1e" transform="translate(-6.98 -5.54)"/><path d="m35.71 90.61c.08-.16.15-.32.25-.48a1.33 1.33 0 0 0 .21-.43l-.35.13c-.13-.29-.12-.31.17-.32h.57a1.22 1.22 0 0 1 0 .33 1.92 1.92 0 0 1 -.18.31l-.3.32.1.11.32-.28.19.12v.15l-.46.08z" fill="#362f1e" transform="translate(-6.98 -5.54)"/><path d="m35.31 90.15.1.44-.2.06h-.21-.11l.11-.65v-.42c.2-.06.37-.09.39.2z" fill="#362f1e" transform="translate(-6.98 -5.54)"/><path d="m31.62 90.63a.77.77 0 0 0 -.25-.91v-.14c.2 0 .46-.26.55.15v.49h.08l.09-.47.25-.24a1.59 1.59 0 0 1 .18.27 3.22 3.22 0 0 1 .12.37h.07l.12-.64h.23.1v.19c-.08 0-.19.08-.22.15-.09.25-.16.52-.24.78h-.29l-.15-.63c-.18.28-.12.79-.64.63z" fill="#362f1e" transform="translate(-6.98 -5.54)"/><path d="m30 90.56-.12-.77c.38-.23.76-.51 1.17-.06l.05.22s0 0 0 0l-.79.15c.12.38.37.35.65.24l.07.16-.23.17-.3.06z" fill="#362f1e" transform="translate(-6.98 -5.54)"/><path d="m28.41 89.54c.29.35.28.53 0 .55a4.82 4.82 0 0 1 -.54 0c0 .31.18.39.43.36h.3l-.46.3-.57-.31v-.57l.38-.34h.43z" fill="#362f1e" transform="translate(-6.98 -5.54)"/><path d="m28.91 90.42c0-.17.13-.35.08-.48a1.63 1.63 0 0 1 .06-.88l.07-.09.22-.1h.42l.06.22-.1.11-.34-.16a1.82 1.82 0 0 0 0 .4s.14.07.21.11c-.08.14-.36.19-.24.45l.1.56c-.37.15-.53.11-.54-.14z" fill="#362f1e" transform="translate(-6.98 -5.54)"/><path d="m44.79 86.42h-.1l-.09-.15v-.15l-.06-.08-.07-.11c0-.39-.32-.5-.63-.55a8 8 0 0 0 -1 0 .06.06 0 0 1 0-.06.09.09 0 0 1 0 0h.54 1.06.16.15l.08.55z" fill="#3b3727" transform="translate(-6.98 -5.54)"/><path d="m43.6 88.18a1.19 1.19 0 0 0 1-.76c.06-.11.11-.22.16-.33h.07v.2.47.3c-.09.06-.18.16-.27.17-.29 0-.58 0-.86 0h-.24z" fill="#211f1b" transform="translate(-6.98 -5.54)"/><path d="m21.31 86.75.47-.08.42-.8h.11v1.3.67c-.24-.52-.34-1.05-1-1z" fill="#524010" transform="translate(-6.98 -5.54)"/><path d="m22.54 85.46-1.22-.1a0 0 0 0 1 0 0h.77.38.08z" fill="#524010" transform="translate(-6.98 -5.54)"/><path d="m20.17 85.27h.32v.15l-.3-.07-.19-.05z" fill="#524010" transform="translate(-6.98 -5.54)"/><path d="m21.29 85.45v.07s0 0 0 0a0 0 0 0 1 0-.07z" fill="#524010" transform="translate(-6.98 -5.54)"/><path d="m27.16 90.55-.19.1h-.31l-.29-.08.24-.31c0-.42-.06-.47-.68-.33v.32l.15.16c0 .42-.3.13-.44.24s-.3 0-.19-.23a3.37 3.37 0 0 0 .12-.55v-.61l-.17-.15v-.14h.06.58l-.19.69h.75l-.1-.66h.62l-.12.41v.38z" fill="#362f1e" transform="translate(-6.98 -5.54)"/><path d="m33.76 90.72-.33-.55.1-.47.32-.2h.41l.32.44-.53.16a1.12 1.12 0 0 0 -.22.16c.06.07.12.17.2.19s.2 0 .29 0 .13.08.19.13l-.3.09z" fill="#362f1e" transform="translate(-6.98 -5.54)"/><path d="m44 66.52-.15.23-.14.14-.42.51-.06.09-.19.11s-.07-.06-.07-.08c.06-.43.12-.86.16-1.29 0-.1-.07-.21-.11-.31l.24-.15a2.46 2.46 0 0 0 1.05-.92 1.64 1.64 0 0 1 .22-.14c0 .07.09.16.07.22-.11.38-.25.75-.38 1.12-.02.16-.11.31-.22.47zm-.62.29.25-.77c-.33.07-.45.34-.21.77z" fill="#3b2e0a" transform="translate(-6.98 -5.54)"/><path d="m45.32 64.13s0 0 0 .06h-.06a.14.14 0 0 1 .06-.06z" fill="#f8d04e" transform="translate(-6.98 -5.54)"/><path d="m40.72 65.14a1.09 1.09 0 0 0 1.21 1 9 9 0 0 0 .91-.1l-.06.51h-.1l-.11-.26-.15 1 .25.19-.26.18.18.37-.4-.27-.09.09.31.35-.16.24-1.9 1a3.17 3.17 0 0 0 -.71.52 4.77 4.77 0 0 0 -.88 2v.69h-.07c-.07 0-.19.07-.22.13-.19.4-.35.82-.53 1.22l-.14.16h-.48a1.94 1.94 0 0 1 .11-.49 7.14 7.14 0 0 1 .37-.73l.22-.33-.3-.23v-.13c0-.18.09-.36.13-.53l.24-.92c.06-.41.39-.59.73-.77v-.12l-1.33-.18c-.44-.1-.36-.52-.5-.81l.93-.75c-.23-.41-.7-.49-1.11-.67l-.14-.06-.24-.13-.38-.1a2 2 0 0 0 -.45-.29c-.46-.15-.92-.26-1.39-.39l.06-.88-.05-.5.05-.08v.1l-.28.13c-.12-.31-.12-.31.21-.51.07 0 .2-.08.21-.13a5.14 5.14 0 0 0 -.06-.55l.11-.19h-.1v.22l-.15.6h-.53l-.39.07c0-.6-.11-.72-.51-.59v.44l-.46-.08c.11-.31-.1-.7.28-1v.38l.48-.17a1.67 1.67 0 0 0 .33.21s.11 0 .16 0l.31-.14-.29-1.15 1.35.61a3 3 0 0 0 .48-.09.58.58 0 0 0 .31-.2s0-.18-.1-.26c-.17-.24-.12-.53.09-.51a1.05 1.05 0 0 0 1.05-.53c.1.18.12.36.19.51a.38.38 0 0 0 .26.22 1.48 1.48 0 0 0 .46-.08c-.06-.36 0-.61.34-.73.18-.06.3-.21.17-.42a.27.27 0 0 0 -.44-.09s-.06 0-.18 0l.43-.38c-.16-.13-.53-.18-.12-.42 0 0 0-.07 0-.1l.27-.22a1 1 0 0 1 .09.37c-.06.48 0 .5.47.31l-.06.59-.25.41.51.2.12-.31c0-.29.28-.3.47-.38l.08.08c.11.41.21.82.33 1.22.22.76.45 1.52.67 2.28zm-4.29-2c.26-.28-.06-.48 0-.72h-.16l-.05.92h.16l.08-.23zm1.82.35h-.43v.14l.47.09c0 .15-.14.45.17.41.09-.26.11-.57.26-.65.32-.17.18-.36.11-.56a4.36 4.36 0 0 0 -.2-.44zm-1.73 2.23v-.14l-1.22-.49-.05.13zm-2-1.75.06.81h.09l.21-.72zm6.76 2.91.6-.38c-.51-.23-.43.16-.56.41z" fill="#392c06" transform="translate(-6.98 -5.54)"/><path d="m39.49 61.11c-.19.08-.45.09-.47.38l-.38-.07v-.23l.06-.59c-.52.19-.53.17-.47-.31a1 1 0 0 0 -.09-.37l-.27.22s0 .08 0 .1c-.41.24 0 .29.12.42l-.43.38c.12 0 .16.05.18 0a.27.27 0 0 1 .44.09c.13.21 0 .36-.17.42-.35.12-.4.37-.34.73a1.48 1.48 0 0 1 -.46.08.38.38 0 0 1 -.26-.22c-.07-.15-.09-.33-.19-.51a1.05 1.05 0 0 1 -1.05.53c-.21 0-.26.27-.09.51.06.08.13.23.1.26a.58.58 0 0 1 -.31.2 3 3 0 0 1 -.48.09l-1.35-.61c-.05 0-.14 0-.14.06a2.23 2.23 0 0 0 0 .36.06.06 0 0 0 -.06 0l-.13-.16c-.07-.41-.51-.82 0-1.23 0 0 0-.07 0-.11l-.06-.83.46-.55 1.52-.84.16-.06h.15l.61-.06h1.08.14.17l.67.15.23.14.09.21.16-.12.28.14v.07l-.23.72.32-.5.4.78zm-2.86.37c.39-.21-.05-1 .7-.89-.25-.17-.46-.22-.67 0 0 0-.15.12-.16.1a.3.3 0 0 1 -.14-.2c0-.25-.24-.5 0-.76 0 0 0-.09 0-.13a.68.68 0 0 0 -.26.83c.12.36.32.69.53 1.05zm-1.86.7h-.12v.68h.12zm2.76-.65h-.07v.22h.07z" fill="#382303" transform="translate(-6.98 -5.54)"/><path d="m33.07 60.66.06.83s0 .09 0 .11c-.5.41-.06.82 0 1.23l-.3.21h-.13l-.08-.1-.09.12h-.3l-.07.2-.77-.45v-.34l.62.23.15-.5.35-.77z" fill="#3b2e0a" transform="translate(-6.98 -5.54)"/><path d="m31.41 62.53v.34.64h-.12l-.17-.15-.12-.15-.47-.2h-.22-.47l-.5.06-.2.09a0 0 0 0 0 0 0l-.87.74-.25.18-.09.09h-.56v-.16l.26-.38.36-.45 1-.76.66-.25h.7l.37.14.3.09.46.2a.08.08 0 0 1 -.07-.07z" fill="#3b2b07" transform="translate(-6.98 -5.54)"/><path d="m36.22 87.34v.51a2 2 0 0 0 -.14-.33l-.43-.59-.41.35-.06-.54h.07c.18.14.62 0 .72-.28s.14-.38.23-.61l.06.2v.09l.05.67-.05.16z" fill="#362f1e" transform="translate(-6.98 -5.54)"/><path d="m37.14 85.59-.09.85-.1-.23-.3-.36c.07-.31-.16-.36-.37-.42v-.05l.1-.1h.76z" fill="#362f1e" transform="translate(-6.98 -5.54)"/><path d="m38.26 85.3v.15l-.45-.16h.46z" fill="#3b3727" transform="translate(-6.98 -5.54)"/><path d="m38.34 87.36v.14z" fill="#f7bd35" transform="translate(-6.98 -5.54)"/><path d="m41.16 84.33h-.46a.83.83 0 0 1 -.06-.21 5 5 0 0 0 -1-2.54.08.08 0 0 0 0 0v-.17l-.07-.09c-.11-.28.2-.61-.13-.86 0 0 0-.07 0-.1l.41-.57h.06.07.11l.76.55.12.14.06.08.09.12.1.19.11.17a1.57 1.57 0 0 0 .14.38 4.6 4.6 0 0 0 .32.45l.07.22a2.1 2.1 0 0 0 .06.51c.21.55.45 1.08.67 1.62v.1h-1.43z" fill="#3b2e0a" transform="translate(-6.98 -5.54)"/><path d="m40.4 85.57c-.42-.34-.91-.17-1.37-.19a.17.17 0 0 1 0-.07h.53.77.75v1.2l-.2-.41-.21-.37z" fill="#3b3727" transform="translate(-6.98 -5.54)"/><path d="m39.64 86.44.36-.61v.23 1.06.46a.68.68 0 0 1 -.12-.22.68.68 0 0 0 -.59-.62z" fill="#362f1e" transform="translate(-6.98 -5.54)"/><path d="m41.62 85.31h.45v.15z" fill="#3b3727" transform="translate(-6.98 -5.54)"/><path d="m37.64 90.71.23-.08z" fill="#f4b631" transform="translate(-6.98 -5.54)"/><path d="m27.4 63.65a0 0 0 0 0 0 0z" fill="#e9a52d" transform="translate(-6.98 -5.54)"/><path d="m39 91.17.07.15z" fill="#f7c43c" transform="translate(-6.98 -5.54)"/><path d="m29.56 88.27c.49-.35.47-.85.44-1.37s0-.82 0-1.23l-.13-.18-.19-.22.47-.05h.38.07.08.53a.66.66 0 0 0 -.53.83 5.76 5.76 0 0 1 0 .59l.07.19-.06.83v.16l.34.39h-.31-.92z" fill="#211f1b" transform="translate(-6.98 -5.54)"/><path d="m29.05 89.05.07-.09z" fill="#e9a52d" transform="translate(-6.98 -5.54)"/><path d="m43.74 87.73a1 1 0 0 0 -.69-.91c.53-.24.53-.24.81-.94v.63.92c.01.31.01.31-.12.3z" fill="#3b3727" transform="translate(-6.98 -5.54)"/><path d="m44.58 86.13-.06-.08z" fill="#f6b933" transform="translate(-6.98 -5.54)"/><path d="m44.52 86.05-.07-.11z" fill="#f6b933" transform="translate(-6.98 -5.54)"/><path d="m22 83.36.17-.19c0-.11 0-.21 0-.32v-.07l.08-.69.24-.08.16.3.06.31v1.6.08l-.7-.08-.01-.85z" fill="#3b2e0a" transform="translate(-6.98 -5.54)"/><path d="m23.32 87.14v.09s0 0 0 0 0 0 0 .07v.09.31.3l-.09.33h-.31-1l.77-.38.13-.13.13-.17.18-.39.16-.13" fill="#211f1b" transform="translate(-6.98 -5.54)"/><path d="m23.07 85.31.13.22v.67h-.11l-.21-.4-.34-.35v-.15h.38z" fill="#211f1b" transform="translate(-6.98 -5.54)"/><path d="m24.49 86.22c0-.31.1-.65-.31-.79 0 0 .07-.13.11-.13h1.15l-.22.31v.68l.07.62-.14 1.09v.3l-.31.23a2.92 2.92 0 0 0 -.38-.14l-.46-.13.14-.15c.25 0 .34-.12.35-.32a5.76 5.76 0 0 0 0-.59v-.46a.06.06 0 0 0 0-.07z" fill="#211f1b" transform="translate(-6.98 -5.54)"/><path d="m42.89 66a.08.08 0 0 0 0-.06s0 0 0 0 .01.06 0 .06z" fill="#3b2e0a" transform="translate(-6.98 -5.54)"/><path d="m42.64 68-.18-.37.26-.18-.25-.19.15-1 .11.26h.1l.06-.51s0 0 0 0h.15c0 .1.12.21.11.31 0 .43-.1.86-.16 1.29 0 0 .05 0 .07.08l-.12.19" fill="#3b3727" transform="translate(-6.98 -5.54)"/><path d="m43.42 66.81c-.24-.43-.12-.7.25-.77z" fill="#362f1e" transform="translate(-6.98 -5.54)"/><path d="m37.34 74.16h.48a4.44 4.44 0 0 0 -.24.49 3.8 3.8 0 0 0 -.23 1 6.62 6.62 0 0 0 .2 1.18l1.75-.23-.2 1.1-.05-.82c-.33 0-.34.22-.24.46a.79.79 0 0 1 .08.3 7.35 7.35 0 0 1 -.07.82c-.07.38-.17.75-.26 1.13l-.84-1c-.15.46-.35.62-.71.59-.11 0-.24.15-.35.23-.23-.24-.47-.46-.69-.7 0 0 0-.17.08-.24a1.66 1.66 0 0 0 -.22-2.1l-.55-.32-.23-.14-.31-.24.09-.53h1.06l1-.4a.62.62 0 0 0 .45-.58z" fill="#3b2e0a" transform="translate(-6.98 -5.54)"/><path d="m34.14 64.77c-.33.2-.33.2-.21.51l.28-.13.05.5-.06.88h-.08l-1.13.1-.23.25-.62.08.2-.6-.34-.02v-.34h-.12v1.15l-.3.08c-.05-.47-.1-.93-.13-1.39s0-.63.3-.81l.46-.07v.43a4.53 4.53 0 0 0 0 .74c0 .06.17.1.26.14l-.2-.15c.31-.24.52-.16.66.22 0 .07.12.12.18.18s.12-.16.1-.2a.47.47 0 0 1 .33-.72l.08-.82h.53zm-1.56 1.7a0 0 0 0 0 0 0z" fill="#3b3727" transform="translate(-6.98 -5.54)"/><path d="m33.61 64.7-.08.82a.47.47 0 0 0 -.33.72s-.06.13-.1.2-.15-.11-.18-.18c-.14-.38-.35-.46-.66-.22l.2.15c-.09 0-.25-.08-.26-.14a4.53 4.53 0 0 1 0-.74c0-.15 0-.29 0-.43h.15l.45.16c.06.19.13.19.24 0s.15-.23.22-.34z" fill="#3b2e0a" transform="translate(-6.98 -5.54)"/><path d="m32.16 63.32.07-.2h.3l.22.27.27.4-.48.17v-.38c-.38.29-.17.68-.28 1l-.46.31c-.17-.08-.34-.14-.21-.39 0-.06-.06-.18-.1-.28l.12-.17c.29-.05.52-.31.55-.73zm-.4.93.11.06v-.08z" fill="#3b3727" transform="translate(-6.98 -5.54)"/><path d="m38.25 63.52.39-1a4.36 4.36 0 0 1 .2.44c.07.2.21.39-.11.56-.15.08-.17.39-.26.65-.31 0-.15-.26-.17-.41l-.47-.09v-.14z" fill="#3b3727" transform="translate(-6.98 -5.54)"/><path d="m33.22 64.77c-.07.11-.15.22-.22.34s-.18.16-.24 0 .19-.35-.07-.46v-.44c.42-.16.52-.04.53.56z" fill="#3b3727" transform="translate(-6.98 -5.54)"/><path d="m33.34 63.06a2.23 2.23 0 0 1 0-.36s.09 0 .14-.06l.29 1.15-.31.14-.29-.37c.3-.17.3-.17.22-.32l.17-.12z" fill="#3b3727" transform="translate(-6.98 -5.54)"/><path d="m32.69 64.62c.26.11.09.3.07.46l-.45-.16.09-.12-.06-.06-.18.19-.46.07.07-.15.46-.31z" fill="#362f1e" transform="translate(-6.98 -5.54)"/><path d="m36.43 63.17-.08.23h-.16l.05-.92h.16c0 .24.29.44 0 .72z" fill="#362f1e" transform="translate(-6.98 -5.54)"/><path d="m34.56 64 .36.1-.21.72h-.09z" fill="#3b3727" transform="translate(-6.98 -5.54)"/><path d="m38.64 61.42.38.07-.12.31-.51-.2.25-.41z" fill="#362f1e" transform="translate(-6.98 -5.54)"/><path d="m41.32 66.91c.13-.25 0-.64.6-.38z" fill="#362f1e" transform="translate(-6.98 -5.54)"/><path d="m34.14 64.77v-.08l.15-.6a5.14 5.14 0 0 1 .06.55s-.14.09-.21.13z" fill="#362f1e" transform="translate(-6.98 -5.54)"/><path d="m42.63 68-.18.17-.31-.35.09-.09z" fill="#3b3727" transform="translate(-6.98 -5.54)"/><path d="m34.29 64.09v-.22h.1l-.11.19z" fill="#362f1e" transform="translate(-6.98 -5.54)"/><path d="m34.21 65.15v-.1l-.05.08z" fill="#3b3727" transform="translate(-6.98 -5.54)"/><path d="m36.63 61.48c-.21-.36-.41-.69-.59-1a.68.68 0 0 1 .26-.83s.06.11 0 .13c-.22.26 0 .51 0 .76a.3.3 0 0 0 .14.2s.12-.05.16-.1c.21-.23.42-.18.67 0-.69-.14-.27.63-.64.84z" fill="#392c06" transform="translate(-6.98 -5.54)"/><path d="m34.77 62.18v.67h-.12v-.68z" fill="#392c06" transform="translate(-6.98 -5.54)"/><path d="m38.79 59.73.21.27-.48.41z" fill="#392c06" transform="translate(-6.98 -5.54)"/><path d="m33.28 63h-.43l.3-.21z" fill="#3b3727" transform="translate(-6.98 -5.54)"/><path d="m38.26 59.43.25.09-.16.12z" fill="#392c06" transform="translate(-6.98 -5.54)"/><ellipse cx="30.51" cy="56.1" fill="#392c06" rx=".05" ry=".16"/><g transform="translate(-6.98 -5.54)"><path d="m35.05 59.27.07-.18.09.12z" fill="#e9932b"/><path d="m37.19 59.19h.17z" fill="#d08126"/><path d="m32.16 63.32c0 .42-.26.69-.58.69l-.2-.5v-.64z" fill="#362f1e"/><path d="m32.7 63.07h-.17l.09-.12z" fill="#3b3727"/><path d="m31.77 64.85-.07.15c-.34.18-.33.49-.3.81s.08.92.13 1.39l.3-.08v-1.12h.17l.09.39.31.07-.2.6.62-.08v.13l-.05.08-.08.24-.16 1.21c0 .13 0 .27.06.4.08.35.17.69.26 1l.13.6v.72.39.17l-.42-.23-.08-.08-.08-.06-.13-.32-.18-.61a4.36 4.36 0 0 0 0-.88 7.37 7.37 0 0 1 0-1.15.54.54 0 0 0 -.11-.32c-.21-.26-.43-.52-.65-.77s-.84-.19-.9 0c-.15.6.17 2 1 2.2l.06.06c0 .15 0 .25-.17.22a.39.39 0 0 0 -.52.31l-.3-.17-.29-.22-.32-.25-.7-.65-1.08-1.3-.23-.7a1.14 1.14 0 0 0 .22-.32s-.1-.13-.22-.27v.59h-.17c-.06-.34.21-.68 0-1 0 0 .09-.15.15-.21a1 1 0 0 1 .24-.16l-.39-.46c-.41 0-.41.27-.39.59a4.87 4.87 0 0 1 0 .54 2.23 2.23 0 0 1 -.06-2.18h.56c-.06.15-.11.3-.19.49l1.37-.16.76-.06h.16l.91-.14.61-.08h.07c0 .1.13.22.1.28-.18.26-.01.32.16.4zm-2.77 3.08c.12-.1.27-.17.28-.25.06-.34 0-.68.1-1s.18-.64-.36-.39c0 0-.07 0-.1 0-.35-.09-.62.18-.56.6l.58-.12-.32-.22c.23 0 .23 0 .1.74l.28.2-.24.17zm3.24-.62v-.06h-.06s0 .06 0 .06.08.01.1 0z" fill="#3b2e0a"/><path d="m29.29 63-.2.09z" fill="#f4b631"/><path d="m31.26 63.47-.17-.15z" fill="#e9a52d"/><path d="m27.91 64-.09.09z" fill="#3b2e0a"/><path d="m35.14 86.74.06.54v.91l-.07.08h-.76-.24l.39-.41v-.55-.6s0 0 0-.07a6 6 0 0 0 0-.85c0-.13-.13-.25-.21-.37a.19.19 0 0 0 0-.07l.11-.08h.16.46.14a.2.2 0 0 0 0 .07v1.06z" fill="#211f1b"/><path d="m34.56 86.74s0 0 0 0" fill="#f1ab2f"/><path d="m35.13 88.27.07-.08z" fill="#362f1e"/><path d="m35.51 89.11-.22.17z" fill="#f7c43c"/><path d="m35.21 86.44v.3h-.07z" fill="#524010"/><path d="m36.28 85.22.07.06-.1.1h-1a.2.2 0 0 1 0-.07h.31.44.23z" fill="#524010"/><path d="m39.88 79.71-.41.57s0 .1 0 .1c.33.25 0 .58.13.86l-.15-.08-.45-.89-.1-.32.16-.19-.21-.5.36-.08z" fill="#362f1e"/><path d="m40.89 80.34.12.14z" fill="#f8cb40"/><path d="m41.07 80.56.09.12z" fill="#f8cb40"/><path d="m40 79.73h.11z" fill="#f8d04e"/><path d="m37.55 84.08.05.14-.46.1h-.66-1.49l-.17-.62.36.28.27-.24c-.09-.16-.22-.29-.2-.39.07-.41-.17-.32-.35-.33l-.07.68-.26-.3h-.11l-.1.91h-1.07l-.45-.31-.07.34h-.08-.53-.46l.14-.85h-.13l-.4.92h-.15-.23a0 0 0 0 1 0 0l.11-.27h-.14l-.05.31h-.08-.3v-1.22-.69l-.29-1.61-.18-.9v-.16l.25-.14v.86h.11a2.49 2.49 0 0 1 .57-1.06s0-.09 0-.14l-.93-.2h-.24l-.76-.19.05-.81h-.35c-.57 0-.62 0-.49.59a.32.32 0 0 0 .4.28h.39l-.25.5v1.19l.07.3.18.91.12.23.41.77.1 1h.14l.19-.37.18-.1v.52s-.08.45-.4.4h-.77l-.24-.18v-.22l-.15-2.15a9.09 9.09 0 0 0 -.11-1.17 7.76 7.76 0 0 0 -.34-1c-.1-.27-.2-.55-.32-.81 0 0-.11-.12-.16-.11s-.1.09-.13.15a.79.79 0 0 0 0 .21c-.35-.61-.75-1-1.47-1v-.25l.77-.28.22-.09.96-.33a1.75 1.75 0 0 1 .33.06c.57.18.66.15 1-.34l.62-.16v.17.07l.06.23c.16.33.29.66.7.74 0 .37.24.51.55.65a1 1 0 0 0 0-.29c-.06-.45-.05-.47.37-.34a1 1 0 0 0 1 .15l.24-.1.16.51c.31-.07.25-.26.2-.44a.44.44 0 0 0 -.52-.37l.15-.21h.1l-.08.06-1.16-.17.28-1.12.12-.06.32.25.08.13.07.07c.55.32.72 1 1.29 1.3l.48.68s0 0 0 0v1.39c.12-.29.32-.57.17-.89 0 0 0-.06.07-.09l1.14 1.61.51 1 .38.53v.45l.15.23.09.15.21.32zm-4.33-.62-.24.3.1.09.27-.13zm.53-3.46-.89-1-.26.14.72 1.16zm-4.12-2c-.19-.68-.35-.72-.87-.27zm6.11 5.54h.1c.2-.74.15-1.11-.18-1.26zm-.34-1.41h.13c0-.14 0-.33 0-.41s-.24-.42-.55-.22zm-2.88-5.32h-.15v.47h.12z" fill="#3b2b07"/><path d="m38.56 84.53-.07.08z" fill="#f4b12f"/><path d="m27.33 66.27a4.87 4.87 0 0 0 0-.54c0-.32 0-.6.39-.59l.39.46a1 1 0 0 0 -.24.16c-.06.06-.17.17-.15.21.18.35-.09.69 0 1l-.27-.39z" fill="#3b3727"/><path d="m27.4 63.65a0 0 0 0 1 0 0z" fill="#f8cb40"/><path d="m33.3 88.18-.52.12h-1v-.1c.31 0 .41-.19.44-.46v-1c0-.14 0-.28 0-.42 0-.44.07-.88-.52-1h1.65a.68.68 0 0 0 -.51.79v1.29.15.38z" fill="#211f1b"/><path d="m27.89 79.92h.11a1.81 1.81 0 0 1 .09.31c.05.52.08 1 .12 1.56l.15 2.1v.39h-.12l-.24-1.13c-.13-.16 0-.33 0-.47-.16-.89.12-1.88-.57-2.71l.34-.06z" fill="#524010"/><path d="m29.83 85.49.13.18z" fill="#f4b631"/><path d="m28.63 84.07v.08a.14.14 0 0 1 0-.06s-.01-.01 0-.02z" fill="#d08126"/><path d="m31.54 86.91h-.83l-.07-.19h1.58v.17z" fill="#3b3727"/><path d="m30.48 85.21h.07z" fill="#f4b631"/><path d="m22 83.37-.06.06.06-.07z" fill="#f4b12f"/><path d="m22.63 82.31.28-.36c.07.79.15 1.57.22 2.34h-.19c0-.51-.05-1-.09-1.52 0-.05-.11-.09-.16-.14z" fill="#524010"/><path d="m22.77 85.14-.15-.08z" fill="#f6b933"/><path d="m23.09 86.21h.11v.2h-.05z" fill="#524010"/><path d="m22.83 87.76-.13.13z" fill="#e9932b"/><path d="m27.06 87a1.38 1.38 0 0 1 .15.36v.9c-.4-.07-.8.27-1.2 0a.13.13 0 0 1 0-.06 1.19 1.19 0 0 0 .92-.77z" fill="#211f1b"/><path d="m38.64 79.71-.08-.15c.09-.38.19-.75.26-1.13a7.35 7.35 0 0 0 .07-.82.79.79 0 0 0 -.08-.3c-.1-.24-.09-.42.24-.46l.05.82v.76l.09.46v.29l-.36.08.21.5-.16.19z" fill="#3b3727"/><path d="m34.82 75.09a.13.13 0 0 0 0 .06l-.09.53h-.12l-.14-.1-.42-.35.11-.51z" fill="#3b3727"/><path d="m34.67 72.48v-.38l.56-.26.6.12 1.53.17v.5l-.36.07z" fill="#524010"/><path d="m35.28 69-.68-.12.15-.59.76.06.12.5.41-.18.25.43z" fill="#3b2e0a"/><path d="m37.05 71.41v.34a1.63 1.63 0 0 1 -1.21 0l-.44-.39v-.09l.42.13a1 1 0 0 0 1 0l-.09-.91c0-.1 0-.2 0-.3h.1l.23.83z" fill="#3b2e0a"/><path d="m34.14 67.59a2.25 2.25 0 0 1 1.51.19h.15v.15c-.5 0-1-.07-1.51-.08a3.43 3.43 0 0 0 -.56 0h-.2a2.44 2.44 0 0 1 .29-.27 1 1 0 0 1 .32.01z" fill="#524010"/><path d="m34.75 68.29-.15.59-.39.16-.36-.21h-.17l-.19-.2v-.18l.18-.2h.14z" fill="#524010"/><path d="m36 68.67-.41.18-.12-.5z" fill="#3b3727"/><path d="m35.82 68v-.15" fill="#f8cb40"/><path d="m32.58 66.47a0 0 0 0 1 0 0z" fill="#3b2e0a"/><path d="m37.11 73c0 .07 0 .17-.07.21a4.52 4.52 0 0 0 -.53.43.44.44 0 0 1 -.62.14l-.28-.23.43-.24-1.19-.41-.12-.13a.08.08 0 0 0 0-.07h.15l2 .3h.12z" fill="#3b2e0a"/><path d="m32.16 64.93.18-.19.06.06-.09.12z" fill="#3b3727"/><path d="m34.43 67.13h-.52" fill="#fbd760"/><path d="m31.76 64.25h.12v.08l-.11-.06z" fill="#3b2e0a"/><path d="m33 63.34.46-.1c.08.15.08.15-.22.32z" fill="#392c06"/><path d="m31.62 71.88-.09.81c-.24.22-.21 0-.27-.15v-1.35-.32c.22-.22.2-.4-.08-.55l-.18-.11-.07.2h-.08l-.08-.15a.39.39 0 0 1 .53-.26c.19 0 .21-.07.17-.22h.19l.12.83-.09.47s0 0 0 0z" fill="#3b3727"/><path d="m29 67.93-.24-.33.24-.17-.28-.2c.13-.76.13-.76-.1-.74l.32.22-.58.12c-.06-.42.21-.69.56-.6h.1c.54-.25.41.07.36.39s0 .68-.1 1c.03.14-.12.21-.28.31z" fill="#362f1e"/><path d="m27.9 67.66-.19-.66h.17l.23.74z" fill="#3b3727"/><path d="m27.88 67v-.6c.12.14.23.23.22.27a1.14 1.14 0 0 1 -.22.32z" fill="#3b3727"/><path d="m32.71 67.33h-.09l.08-.24.07.07z" fill="#3b3727"/><path d="m32.28 67.31s-.05 0-.06 0 0 0 0-.06h.06z" fill="#3b3727"/><path d="m32.46 71.56-.08-.06z" fill="#fbd760"/><path d="m32.74 67.06-.05.08z" fill="#3b3727"/><path d="m32.77 84.3.07-.34.46.34h-.55z" fill="#3b3727"/><path d="m33.31 84.33-.09.09" fill="#d08126"/><path d="m34.33 85.38-.12-.09h.23z" fill="#524010"/><path d="m32.92 87.88v-.38z" fill="#f1ab2f"/><path d="m31.66 78c-.42-.13-.43-.11-.37.34a1 1 0 0 1 0 .29c-.31-.14-.56-.28-.55-.65 0-.09.09-.22.05-.28-.12-.23-.14-.22.17-.26h.24l.6-.08 1.16.17-.15.21-.23.09z" fill="#524010"/><path d="m29.86 79.49.07-.08.08-.08v-.14l.84.08s0 .12 0 .14a2.49 2.49 0 0 0 -.57 1.06h-.11v-.86l-.25.14-.1-.07z" fill="#3b3727"/><path d="m32 76.28-.85.15-.38-.1-.08-.19c.42 0 .16-.37.24-.55.14.28.45.22.67.31l.52.32z" fill="#3b3727"/><path d="m34.6 84.36-.24-.07.1-.91h.11l.26.3.17.62z" fill="#3b3727"/><path d="m34.83 83.69.07-.69c.18 0 .42-.08.35.33 0 .1.11.23.2.39l-.27.24-.36-.28z" fill="#3b3727"/><path d="m35.74 83.5-.08-1.27c.33.15.38.52.18 1.26z" fill="#362f1e"/><path d="m31.46 84.36h-.15c.13-.31.26-.61.4-.92h.13l-.14.85h-.09z" fill="#362f1e"/><path d="m34.36 78.7.24.41s-.07.07-.07.09c.15.32-.05.6-.17.89z" fill="#3b3727"/><path d="m32.52 76.77v.48h-.12v-.47z" fill="#3b3727"/><path d="m33.22 83.46.13.26-.27.13-.1-.09z" fill="#3b3727"/><path d="m30.94 84.3h-.08l.05-.31h.14z" fill="#362f1e"/><path d="m36.66 82.7.15.23z" fill="#f0bb38"/><path d="m25.82 77.86h.08v.25a.13.13 0 0 1 0 .06l-.08-.06z" fill="#524010"/><path d="m32.45 76.47.08.13z" fill="#3b3727"/><path d="m32.92 77.51.08-.06h-.1z" fill="#524010"/><path d="m29.91 76.91a.09.09 0 0 1 0 .07z" fill="#eda12c"/><path d="m32.53 76.6.07.07z" fill="#3b3727"/><path d="m25.07 78 .11.41-.1-.12.59-.39.08.16-.24.67.09.92h-.14l-.12-.46h-.12v.66c.06 1 .13 2 .19 3a1.9 1.9 0 0 0 -.13.38 2 2 0 0 0 .07.4l-.16.61h-.53c-.06-.14-.11-.29-.16-.43v-.68a3.35 3.35 0 0 1 .07-.44 1.94 1.94 0 0 1 .13-.3l.12 1.18h.18c0-.32 0-.65 0-1s0-.94 0-1.41l.29 1.5h.08l-.35-3.87-.23.39h-.08l-.08-.73.16-.13z" fill="#524010"/><path d="m26.55 83.67-.07.58h-.35-.23v-.25-.33l-.06-.1v-.39-.13l-.05-.31-.06-1.26v-.1c0-.15-.18-.36.13-.41a.37.37 0 0 0 0 .18 1 1 0 0 0 .15.21c.05-.08.14-.15.14-.23s-.08-.14-.13-.22l-.22-2.11.1-.68c.09.59.19 1.18.28 1.76v.3l.08.69c0 .51 0 1 .08 1.52 0 .07.08.14.13.22a1.27 1.27 0 0 0 .08 1.06zm-.66-1.74.08 1v.16s0 0 0 0v.18l.13.72h.09l-.08-1.99a1.37 1.37 0 0 0 -.07-.29s-.16 0-.16 0a1.11 1.11 0 0 0 .01.22z" fill="#3b2e0a"/><path d="m24.31 80.64-.17-1.91.28-.21.26 2.65v1.07h-.23z" fill="#524010"/><path d="m23.2 79.65v.3.7l-.24.37a.1.1 0 0 0 0 .07l-.36.57h-.17v-.16l.06-.14c.08-.31.17-.62.26-.93l.24-.74z" fill="#524010"/><path d="m23.41 84.28h-.17l-.16-3.12.18.07v.3.15.26z" fill="#524010"/><path d="m24.49 82.24h.23v.23a1.94 1.94 0 0 0 -.13.3 3.35 3.35 0 0 0 -.07.44l-.4-.17z" fill="#3b3727"/><path d="m23.31 81.55v-.3z" fill="#e9a52d"/><path d="m25.88 84.3v-.07h.23z" fill="#524010"/><path d="m31.46 84.36h.15z" fill="#d08126"/><path d="m34.11 74.58.06.14c0 .17-.07.34-.11.51l-.38-.23v-.45l-.29-.55.43.34.09.06z" fill="#3b2e0a"/><path d="m33.39 74 .24.58v.42l-.63-.69-.55-.63-.3-.6c0-.2-.08-.39-.11-.58 0 0 .08-.06.12-.09l.51.81.29.28.09.13.24.29.09.08z" fill="#3b3727"/><path d="m33.39 74-.09-.08z" fill="#3b2e0a"/><path d="m31.24 70.87-.24-.37v-.08l.07-.2.15.11c.22.14.24.32.02.54z" fill="#3b2e0a"/><path d="m25.75 78.06-.08-.16h.15v.2a.09.09 0 0 0 -.07-.04z" fill="#3b2b07"/><path d="m29.94 76 .23-.22c0 .15-.09.4.23.38v.07l-.61.24z" fill="#524010"/><path d="m30.4 76.21v-.07l.08-.76.33-.14.13.35c-.08.18.18.51-.24.55z" fill="#3b2b07"/><path d="m30.87 77.26.05.09z" fill="#f6b933"/><path d="m25.51 80.26-.05-.61h.14v.12l.05.41.09.72h-.12l-.09-.29v-.06-.3z" fill="#3b2e0a"/><path d="m25.76 81 .15-.06c.05.08.13.15.13.22s-.09.15-.14.23a1 1 0 0 1 -.15-.21.37.37 0 0 1 .01-.18z" fill="#524010"/><path d="m26.11 82h-.22a1.11 1.11 0 0 1 0-.26s.15 0 .16 0a1.37 1.37 0 0 1 .06.26z" fill="#524010"/><path d="m25.89 84v-.33z" fill="#524010"/><path d="m26 82.93v.16z" fill="#524010"/><path d="m26 83.13v.18z" fill="#524010"/><path d="m25.8 83.21v-.13z" fill="#524010"/><path d="m23.18 80a.14.14 0 0 1 0 .06z" fill="#e9a52d"/><path d="m30.48 75.38-.08.76c-.32 0-.2-.23-.23-.38z" fill="#3b3727"/><path d="m31 70.42.06.08z" fill="#3b3727"/></g><path d="m17.77 71.97-.01.03-.02-.01z" fill="#f4b12f"/><path d="m25.66 80.18-.05-.41c.22.11.14.23.05.41z" fill="#524010" transform="translate(-6.98 -5.54)"/><path d="m25.53 80.56v.06z" fill="#524010" transform="translate(-6.98 -5.54)"/></svg>