<svg id="Layer_1" data-name="Layer 1" xmlns="http://www.w3.org/2000/svg" viewBox="0 0 209.43 815.1"><defs><style>.cls-1{fill:#fff;}.cls-2{fill:#c72721;}.cls-3{fill:#f9efc3;}.cls-4{fill:#f9eec2;}.cls-5{fill:#f8edc1;}.cls-6{fill:#f7eabf;}.cls-7{fill:#f7e6bc;}.cls-8{fill:#f4dbb2;}.cls-9{fill:#f5dfb6;}.cls-10{fill:#f2d5ae;}.cls-11{fill:#d0483c;}.cls-12{fill:#eab392;}.cls-13{fill:#eec4a0;}.cls-14{fill:#f0cda7;}.cls-15{fill:#c93028;}.cls-16{fill:#cc392f;}.cls-17{fill:#df876e;}.cls-18{fill:#6d482c;}.cls-19{fill:#c82c24;}.cls-20{fill:#6f4a2d;}.cls-21{fill:#724a2e;}.cls-22{fill:#805f41;}.cls-23{fill:#d9715c;}.cls-24{fill:#a28866;}.cls-25{fill:#9b805f;}.cls-26{fill:#c3b18b;}.cls-27{fill:#f2e9bd;}.cls-28{fill:#ac9471;}.cls-29{fill:#ece2b7;}.cls-30{fill:#b29c78;}</style></defs><path d="M0,650.08c.93-4.72,1.72-9.47,2.81-14.15,6.54-27.94,22.06-49.62,46-65.27,2.79-1.83,4-3.56,3.91-7-.3-11.16,0-22.34-.17-33.5-.07-4.28.91-6.29,5.85-6.16,11.06.3,16.16-6.49,14.26-17.32s-3.29-22-5-33.82h-6.8c-7.12,0-7.18,0-7.51-6.87-.77-16.47-1.47-33-2.23-49.44q-3.85-84.15-7.73-168.3Q40.18,178,37,107.86,34.74,57.92,32.37,8C32,0,31.89,0,40,0H177.16c0,2.19.07,4,0,5.7q-3.87,84.9-7.77,169.8Q166.7,234.42,164,293.36q-3.81,83.16-7.68,166.3c0,.5-.06,1-.08,1.5-.56,10.82-.57,10.71-11.49,11.81a5.22,5.22,0,0,0-3.51,3.43c-1.86,11-3.39,22-5,33.08-.92,6.36,6.07,14.33,12.82,14.58,2.44.09,4.89,0,7.95,0,0,9.4,0,18.19,0,27,0,5.17-1.66,11.09.35,15.28s7.61,6.34,11.63,9.42c61.91,47.49,50.8,144.84-20.44,178-4.13,1.92-5.64,4.16-5.74,8.53-.23,10.15-1.06,20.29-1.42,30.44-.26,7.6-4.53,12.62-10.73,15.65-5.89,2.88-12.39,4.51-18.63,6.69h-15c-5.84-1.81-12-3-17.45-5.58C72,806,67.88,800,68,790.87c.15-10-1.16-19.92-1.53-29.9-.13-3.58-1.83-5-4.86-6.42C30.82,740,11,716.37,2.85,683.18c-1.14-4.66-1.91-9.4-2.85-14.1ZM127.6,683l4.17-5.31c6.38-8.07,7.54-17.16,5-26.84a33.4,33.4,0,0,0-29.43-24.67c-14.14-1.1-27.19,6.36-32.91,18.82-5.61,12.19-2.58,27.68,7.41,37.19a30.08,30.08,0,0,0,4.93,3.17L97,689.52a10.53,10.53,0,0,0,2.85,1.56C110.4,693,119.63,690.15,127.6,683ZM36.29,4.18c0,2.71-.08,4.82,0,6.93Q38.64,62.31,41,113.49q2.67,58.19,5.3,116.37Q50.18,314,54.07,398.17c1,21.3,2.26,42.59,3.45,63.88.17,3,0,5.85,4.73,5.83,28.52-.18,57-.13,85.55-.05,3,0,4-1,4.14-4,.26-9.49.78-19,1.23-28.46q2.31-49.92,4.65-99.83c1.15-25,2.22-49.93,3.37-74.89q2.3-49.92,4.64-99.84c.81-17.47,1.49-35,2.31-52.42,1.52-32.28,3.13-64.55,4.61-96.83.33-7-.13-7.36-7.16-7.37H36.29Zm121,601.46c0,4.91.11,8.56,0,12.21a41.17,41.17,0,0,0,3.45,19.32c3.92,8.56,5.52,18,3.57,27.35-1.71,8.23-5,16.13-7,24.33-3.85,15.66-7.3,31.43-10.85,47.16a40.19,40.19,0,0,0-.44,5.19c1.61-.77,2.53-1.13,3.37-1.61,22.73-13.07,37.1-32.5,43.4-57.8,1.19-4.76,2.72-7.61,8.07-6.81,2.7.4,3.82-1,4.12-3.64,4.63-42-16.69-83.61-55.46-102-1.76-.84-3.92-.85-6.5-1.37,0,3.61.16,6.26,0,8.89-.26,3.37.9,4.86,4.46,4.76a93.76,93.76,0,0,1,9.64.69c0,5.27-.18,10.09.1,14.87a6.76,6.76,0,0,0,2.16,4.51c23.91,18.58,26.1,44.56,24.51,71.78,0,.87-1.9,1.63-2.91,2.44-.66-.93-1.87-1.84-1.9-2.79-.16-5.83.16-11.67-.1-17.49-.51-11.91-2.72-23.48-8.15-34.22A38.76,38.76,0,0,0,157.29,605.64Zm-105.1-12a91,91,0,0,0-25.93,36c-5.53,13.64-6.91,28-6.2,42.27-4.13,1.63-5.77-.21-5.73-3.42.1-8.45-.51-17.08,1-25.31,4.63-25.74,19.27-45.69,38.66-62.42,3.66-3.16,4-5.49.52-8.56C-.26,601.7-7.38,670.07,18.34,708.63L25,706c19.13,23.45,28,31.76,38.48,35.7-.54-3.49-.78-6.8-1.59-10-4.4-17.2-8.52-34.5-13.57-51.52-4-13.38-5.37-26.75-.17-39.66,3.56-8.86,4.23-17.6,4.06-26.77C52.1,607.5,52.19,601.22,52.19,593.64Zm17.89,51.28-1.56-1.26c-1.28,1.19-3.3,2.17-3.7,3.6a54,54,0,0,0-2,11.76c-.88,18.37,8.52,31.16,23.49,40,13.07,7.71,26.72,7.43,39.8-.67,20.5-12.68,27.4-35.6,17.76-58.39a46.15,46.15,0,0,1-1.43-4.5l1.43-.46a30.86,30.86,0,0,1,7.32,17.8c.49,6.53.11,13.13.11,19.81,7.38,1.2,8,.76,8.75-6.86,3.67-37.24-27.61-67-64.77-61.63s-58.36,48.45-39.5,80.66c3.12,5.33,4.61,5.48,10.75,1.12-9.46-15-10.43-30.37-3.19-47.12,1.35-3.12,2.88-5,6.67-4.12s6.68-.35,9.7-3.25c19-18.31,49.82-11.33,59.67,13.3,7.55,18.9-2.09,41.41-20.95,48.91s-40.79-1.42-48.29-19.9A37.69,37.69,0,0,1,70.08,644.92Zm79.05,53.44a30.6,30.6,0,0,0-2.09,5.1c-3.07,15-6,30-9.09,45-.3,1.43-1.65,2.64-2.52,3.95-.49-1.48-1.58-3-1.39-4.41,1-7.58,2.36-15.12,3.58-22.68,1.19-7.32-5.12-12.65-12-10A59.26,59.26,0,0,1,87.8,716.7c-1.74-.48-4.17-.58-5.61.27C75.94,720.68,72,726.28,72,733.67c.09,10.17,3.18,19.63,8.3,28.44,2,3.51,4.71,4.2,8.77,3.69a235.07,235.07,0,0,1,25.3-1.75c3.64-.06,7.29,1.34,10.72,2,.2,4.35-1.22,5.75-4.79,5.08a108.18,108.18,0,0,0-10.89-1.44c-8.89-.75-17.68-.39-25.94,3.42a34.44,34.44,0,0,0-5.11,3.56l.61,1c20.08-8.85,39.58-8.4,57.23,3.21C140.48,753.64,144.76,726.29,149.13,698.36ZM104.64,562.88c14.33,0,28.67-.09,43,.06,3.69,0,5.42-.74,5.24-5-.33-8-.26-16,0-24,.12-3.7-1.06-4.92-4.8-4.91q-43.26.2-86.51,0c-3.6,0-4.61,1.38-4.54,4.72.14,8,.18,16,0,24-.1,3.89,1.19,5.2,5.16,5.14C76.3,562.75,90.47,562.88,104.64,562.88ZM129,473.78a5.59,5.59,0,0,0-2-.78q-12.48-.08-25,0c-3,0-3.8,1.75-3.69,4.57.46,11.15.76,22.3,1.08,33.45.39,14.14-2.13,13,13.2,13h15.29C122.87,506.44,129.63,490.36,129,473.78ZM78.79,604.68c25.14-9.9,47.47-6.72,67.75,10.41V586.32c-21.77,0-43.07,0-64.37.14a4.49,4.49,0,0,0-3.22,3C78.58,594.23,78.79,599,78.79,604.68Zm22,206.3c13.16-.66,22.91-1.44,31.13-7.92,7-5.53,7.2-12.07.46-18-7-6.11-15.58-8.19-24.47-8.61-11.49-.55-22.65.94-31.73,9.09-5.12,4.6-5.58,9.26-1,14.3,2.29,2.52,5.06,5.2,8.15,6.3C90,808.56,97,810,100.8,811ZM93.4,581.85c12.77,0,25.19,0,37.61-.11a3.44,3.44,0,0,0,2.41-2.34c.28-3.58.12-7.19.12-10.92H93.4ZM76.78,705.55c14.56,11.37,42.64,11.24,58.39-.62-2.53-.49-4.54-1.58-5.9-1-16.62,6.72-32.78,6.1-48.75-2.83ZM73.06,523.2c5-2.83,8.2-7,7.63-12.67-.84-8.4-2.34-16.74-3.7-25.09-.66-4.05-1.64-8.05-2.48-12.08l-1.51.17a6.75,6.75,0,0,0-.41,2.16c1.29,9.38,2.4,18.78,4,28.1C77.87,510.76,78.38,517.35,73.06,523.2ZM61,700.83c4,26.72,8.24,54.46,12.31,81.39C76.31,777.58,65.71,706.78,61,700.83Zm-4.45-78.39c3.7-3.53,5-28.74,1.21-35.94C56.46,598.11,56.52,609.79,56.51,622.44ZM134.68,523c-.89-4.25-2.74-8.68-2.5-13,.42-7.41,2.25-14.73,3.31-22.11.64-4.48.95-9,1.41-13.52l-1.64-.15c-2,12.58-4,25.14-5.83,37.74C128.67,517.09,131.7,520.49,134.68,523ZM94,473.82l-2.63,0,3,48,1.31-.06Zm57.69,147.07.69.06V587l-.69,0ZM72.81,607.41l1.16,0V586.79H72.81Zm-1-39.61v13.92C75.16,578.07,75.13,571.07,71.76,567.8Zm16.7.9-.93,0v11.89l.93-.07Zm49.34,10.67.41-.11v-9.13l-.41.08Z"/><path class="cls-1" d="M36.29,4.18h129.3c7,0,7.49.32,7.16,7.37-1.48,32.28-3.09,64.55-4.61,96.83-.82,17.47-1.5,35-2.31,52.42q-2.29,49.92-4.64,99.84c-1.15,25-2.22,49.92-3.37,74.89q-2.3,49.92-4.65,99.83c-.45,9.49-1,19-1.23,28.46-.09,3-1.13,4-4.14,4-28.52-.08-57-.13-85.55.05-4.69,0-4.56-2.87-4.73-5.83-1.19-21.29-2.45-42.58-3.45-63.88q-4-84.15-7.75-168.31Q43.66,171.68,41,113.49,38.68,62.31,36.31,11.11C36.21,9,36.29,6.89,36.29,4.18Zm109.22,456.1c.2-1.64.38-2.6.41-3.56.5-13,.93-26,1.45-39q3.33-83.14,6.7-166.29c1.53-37.79,3-75.58,4.65-113.36Q161.33,78,164.29,17.86c.23-4.79-1.12-6.28-6-6.25q-53.76.29-107.52,0c-5,0-6.15,1.65-5.92,6.33,1.4,28.44,2.61,56.89,3.78,85.35q2.6,62.9,5,125.79,2,49.17,4,98.34,2.55,64.15,5,128.3c.15,4.07,1.34,5.63,5.49,5.46,11-.45,22-.76,32.93-.86C115.67,460.18,130.32,460.28,145.51,460.28Z"/><path class="cls-1" d="M157.29,605.64a38.76,38.76,0,0,1,13.47,15.73c5.43,10.74,7.64,22.31,8.15,34.22.26,5.82-.06,11.66.1,17.49,0,.95,1.24,1.86,1.9,2.79,1-.81,2.86-1.57,2.91-2.44,1.59-27.22-.6-53.2-24.51-71.78a6.76,6.76,0,0,1-2.16-4.51c-.28-4.78-.1-9.6-.1-14.87a93.76,93.76,0,0,0-9.64-.69c-3.56.1-4.72-1.39-4.46-4.76.2-2.63,0-5.28,0-8.89,2.58.52,4.74.53,6.5,1.37,38.77,18.43,60.09,60.09,55.46,102-.3,2.68-1.42,4-4.12,3.64-5.35-.8-6.88,2-8.07,6.81-6.3,25.3-20.67,44.73-43.4,57.8-.84.48-1.76.84-3.37,1.61a40.19,40.19,0,0,1,.44-5.19c3.55-15.73,7-31.5,10.85-47.16,2-8.2,5.29-16.1,7-24.33,1.95-9.35.35-18.79-3.57-27.35a41.17,41.17,0,0,1-3.45-19.32C157.4,614.2,157.29,610.55,157.29,605.64Z"/><path class="cls-1" d="M52.19,593.64c0,7.58-.09,13.86,0,20.13.17,9.17-.5,17.91-4.06,26.77-5.2,12.91-3.8,26.28.17,39.66,5,17,9.17,34.32,13.57,51.52.81,3.16,1,6.47,1.59,10C53,737.74,44.13,729.43,25,706l-6.66,2.65C-7.38,670.07-.26,601.7,54.49,572.17c3.46,3.07,3.14,5.4-.52,8.56-19.39,16.73-34,36.68-38.66,62.42-1.49,8.23-.88,16.86-1,25.31,0,3.21,1.6,5,5.73,3.42-.71-14.31.67-28.63,6.2-42.27A91,91,0,0,1,52.19,593.64Z"/><path class="cls-1" d="M70.08,644.92a37.69,37.69,0,0,0,.07,28.79c7.5,18.48,29.31,27.45,48.29,19.9s28.5-30,20.95-48.91c-9.85-24.63-40.63-31.61-59.67-13.3-3,2.9-5.93,4.11-9.7,3.25s-5.32,1-6.67,4.12c-7.24,16.75-6.27,32.07,3.19,47.12-6.14,4.36-7.63,4.21-10.75-1.12-18.86-32.21,2.23-75.29,39.5-80.66s68.44,24.39,64.77,61.63c-.75,7.62-1.37,8.06-8.75,6.86,0-6.68.38-13.28-.11-19.81a30.86,30.86,0,0,0-7.32-17.8l-1.43.46a46.15,46.15,0,0,0,1.43,4.5c9.64,22.79,2.74,45.71-17.76,58.39-13.08,8.1-26.73,8.38-39.8.67-15-8.83-24.37-21.62-23.49-40a54,54,0,0,1,2-11.76c.4-1.43,2.42-2.41,3.7-3.6Z"/><path class="cls-1" d="M149.13,698.36c-4.37,27.93-8.65,55.28-12.92,82.59-17.65-11.61-37.15-12.06-57.23-3.21l-.61-1a34.44,34.44,0,0,1,5.11-3.56c8.26-3.81,17-4.17,25.94-3.42a108.18,108.18,0,0,1,10.89,1.44c3.57.67,5-.73,4.79-5.08-3.43-.69-7.08-2.09-10.72-2a235.07,235.07,0,0,0-25.3,1.75c-4.06.51-6.73-.18-8.77-3.69-5.12-8.81-8.21-18.27-8.3-28.44-.06-7.39,3.93-13,10.18-16.7,1.44-.85,3.87-.75,5.61-.27a59.26,59.26,0,0,0,37.78-1.45c6.92-2.6,13.23,2.73,12,10-1.22,7.56-2.56,15.1-3.58,22.68-.19,1.38.9,2.93,1.39,4.41.87-1.31,2.22-2.52,2.52-3.95,3.11-15,6-30,9.09-45A30.6,30.6,0,0,1,149.13,698.36Z"/><path class="cls-1" d="M86.79,685.39a30.08,30.08,0,0,1-4.93-3.17c-10-9.51-13-25-7.41-37.19,5.72-12.46,18.77-19.92,32.91-18.82a33.4,33.4,0,0,1,29.43,24.67c2.52,9.68,1.36,18.77-5,26.84,1.27-4.16,2.53-8.33,4-13.06-1.49.33-1.94.29-2.09.48-.82,1-1.56,2.14-2.33,3.22a39.14,39.14,0,0,1-20.63,15c-13.41,4.14-21.6,1.71-30.59-9A27.65,27.65,0,0,0,78,672.31l-1.34,1.25Z"/><path class="cls-1" d="M104.64,562.88c-14.17,0-28.34-.13-42.51.08-4,.06-5.26-1.25-5.16-5.14.22-8,.18-16,0-24-.07-3.34.94-4.73,4.54-4.72q43.24.17,86.51,0c3.74,0,4.92,1.21,4.8,4.91-.24,8-.31,16,0,24,.18,4.21-1.55,5-5.24,5C133.31,562.79,119,562.88,104.64,562.88Zm-32.15-33.2c-3.34,0-5.83.18-8.28,0-3.57-.33-4.6,1.22-4.52,4.61q.29,11.71,0,23.42c-.08,3.55,1.38,4.82,4.72,4.58,1.65-.12,3.45.33,4.94-.18,1.23-.42,3-1.85,3-2.87C72.58,549.61,72.49,540,72.49,529.68Zm6.66,16.38h0c0-4.31.19-8.63-.12-12.92-.08-1.18-1.63-2.25-2.5-3.38-.77,1.07-2.19,2.11-2.21,3.19-.19,8.45-.21,16.91,0,25.37,0,1.25,1.5,2.47,2.3,3.7.85-1.34,2.33-2.62,2.45-4C79.37,554,79.15,550,79.15,546.06Zm67.63-.09c0,4-.2,8,.12,12,.11,1.4,1.53,2.68,2.35,4,.73-1.24,2.05-2.47,2.08-3.73q.28-12.48,0-25c0-1.18-1.49-2.31-2.29-3.47-.74,1.23-2.05,2.42-2.14,3.69C146.62,537.64,146.79,541.81,146.78,546Z"/><path class="cls-1" d="M129,473.78c.66,16.58-6.1,32.66-1.1,50.29H112.58c-15.33-.05-12.81,1.11-13.2-13-.32-11.15-.62-22.3-1.08-33.45C98.19,474.77,99,473,102,473q12.48-.07,25,0A5.59,5.59,0,0,1,129,473.78Z"/><path class="cls-1" d="M78.79,604.68c0-5.64-.21-10.45.16-15.21a4.49,4.49,0,0,1,3.22-3c21.3-.18,42.6-.14,64.37-.14v28.77C126.26,598,103.93,594.78,78.79,604.68Z"/><path class="cls-1" d="M100.8,811c-3.83-1-10.82-2.42-17.47-4.8-3.09-1.1-5.86-3.78-8.15-6.3-4.57-5-4.11-9.7,1-14.3,9.08-8.15,20.24-9.64,31.73-9.09,8.89.42,17.45,2.5,24.47,8.61,6.74,5.89,6.54,12.43-.46,18C123.71,809.54,114,810.32,100.8,811Zm2.14-1.28c8.72-1,17.16-3.11,21.83-6.54,7.37-5.43,7.38-14.15-.63-18.24-12.82-6.56-26.11-6.37-38.72.6-7.86,4.35-7.94,13.73-.08,18.08C90.7,806.57,97,807.73,102.94,809.7Z"/><path class="cls-1" d="M93.4,581.85V568.48h40.14c0,3.73.16,7.34-.12,10.92a3.44,3.44,0,0,1-2.41,2.34C118.59,581.9,106.17,581.85,93.4,581.85Z"/><path d="M86.79,685.39,76.62,673.56,78,672.31a27.65,27.65,0,0,1,2.13,2.06c9,10.73,17.18,13.16,30.59,9a39.14,39.14,0,0,0,20.63-15c.77-1.08,1.51-2.18,2.33-3.22.15-.19.6-.15,2.09-.48-1.43,4.73-2.69,8.9-4,13.06L127.6,683c-1.46.72-2.95,1.39-4.39,2.14-8.27,4.35-16.92,6.32-26.24,4.35Z"/><path class="cls-1" d="M76.78,705.55l3.74-4.49c16,8.93,32.13,9.55,48.75,2.83,1.36-.54,3.37.55,5.9,1C119.42,716.79,91.34,716.92,76.78,705.55Z"/><path class="cls-1" d="M73.06,523.2c5.32-5.85,4.81-12.44,3.58-19.41-1.65-9.32-2.76-18.72-4-28.1a6.75,6.75,0,0,1,.41-2.16l1.51-.17c.84,4,1.82,8,2.48,12.08,1.36,8.35,2.86,16.69,3.7,25.09C81.26,516.23,78,520.37,73.06,523.2Z"/><path class="cls-1" d="M61,700.83c4.75,5.95,15.35,76.75,12.31,81.39C69.2,755.29,65,727.55,61,700.83Z"/><path class="cls-1" d="M56.51,622.44c0-12.65,0-24.33,1.21-35.94C61.47,593.7,60.21,618.91,56.51,622.44Z"/><path class="cls-1" d="M134.68,523c-3-2.46-6-5.86-5.25-11,1.83-12.6,3.87-25.16,5.83-37.74l1.64.15c-.46,4.51-.77,9-1.41,13.52-1.06,7.38-2.89,14.7-3.31,22.11C131.94,514.27,133.79,518.7,134.68,523Z"/><path class="cls-1" d="M94,473.82l1.65,47.94-1.31.06-3-48Z"/><path class="cls-1" d="M151.69,620.89V587l.69,0v34Z"/><path class="cls-1" d="M72.81,607.41V586.8H74v20.66Z"/><path class="cls-1" d="M97,689.52c9.32,2,18,0,26.24-4.35,1.44-.75,2.93-1.42,4.39-2.14-8,7.12-17.2,10-27.78,8.05A10.53,10.53,0,0,1,97,689.52Z"/><path class="cls-1" d="M71.76,567.8c3.37,3.27,3.4,10.27,0,13.92Z"/><path class="cls-1" d="M88.46,568.7v11.85l-.93.07V568.73Z"/><path class="cls-1" d="M137.8,579.37v-9.16l.41-.08v9.13Z"/><path d="M145.51,460.28c-15.19,0-29.84-.1-44.49,0-11,.1-22,.41-32.93.86-4.15.17-5.34-1.39-5.49-5.46q-2.34-64.16-5-128.3-2-49.17-4-98.34-2.52-62.9-5-125.79c-1.17-28.46-2.38-56.91-3.78-85.35-.23-4.68.89-6.36,5.92-6.33q53.76.3,107.52,0c4.9,0,6.25,1.46,6,6.25q-3,60.12-5.57,120.25c-1.64,37.78-3.12,75.57-4.65,113.36q-3.36,83.14-6.7,166.29c-.52,13-1,26-1.45,39C145.89,457.68,145.71,458.64,145.51,460.28Z"/><path d="M72.49,529.68c0,10.34.09,19.93-.14,29.52,0,1-1.77,2.45-3,2.87-1.49.51-3.29.06-4.94.18-3.34.24-4.8-1-4.72-4.58q.29-11.7,0-23.42c-.08-3.39,1-4.94,4.52-4.61C66.66,529.86,69.15,529.68,72.49,529.68Z"/><path d="M79.15,546.06c0,4,.22,8-.12,11.93-.12,1.41-1.6,2.69-2.45,4-.8-1.23-2.27-2.45-2.3-3.7-.2-8.46-.18-16.92,0-25.37,0-1.08,1.44-2.12,2.21-3.19.87,1.13,2.42,2.2,2.5,3.38.31,4.29.12,8.61.12,12.92Z"/><path d="M146.79,546c0-4.16-.17-8.33.1-12.48.09-1.27,1.4-2.46,2.14-3.69.8,1.16,2.26,2.29,2.29,3.47q.3,12.48,0,25c0,1.26-1.35,2.49-2.08,3.73-.82-1.34-2.24-2.62-2.35-4C146.58,554,146.78,550,146.79,546Z"/><path d="M102.94,809.7c-5.9-2-12.24-3.13-17.6-6.1-7.86-4.35-7.78-13.73.08-18.08,12.61-7,25.9-7.16,38.72-.6,8,4.09,8,12.81.63,18.24C120.1,806.59,111.66,808.72,102.94,809.7Z"/><path class="cls-2" d="M208.59,649.49v18.8a9.93,9.93,0,0,0-.48,1.39c-1.08,5.61-1.65,11.37-3.33,16.79-2,6.58-5,12.86-7.58,19.27h-9.73v15.72q-3,3.45-5.92,6.91c0-2.52.09-5,0-7.56a76.82,76.82,0,0,0-.56-9.11c-.43-2.81-2.09-5.29-5-5.59-4-.41-8.14-.1-12.37-.1v2.23l.12,35.74a11.32,11.32,0,0,1-1.86,1.63c-5.27,2.9-10.42,6.08-15.89,8.52-11.31,5-23.07,8.28-35.66,7.66a115.21,115.21,0,0,0-11.9,0,68.06,68.06,0,0,1-29-5.17C62.69,754,56.42,750.34,50,747.15H59.9v-5.58H52.37V728.34h7v-5.19h-7V711h7.24v-5.22H45.84v38.64l-11.58-9.17V705.77H28V729l-8-9.39,2.79-.75c-.1-2-.1-4.13-.33-6.21-.69-6.09-4.51-8.63-10.57-7.13L8.7,699l.23-1.79,2.13-1.44L9,694.31v-2l2.37-1.81a21.06,21.06,0,0,0-2.43-.61A8.9,8.9,0,0,0,7.1,690l-.64,4a3.25,3.25,0,0,0-.07-.45q-14.68-43.31,6.31-83.92c1.73-3.33,4-6.36,6.07-9.53,4.3,5.54,8.56,11.1,12.91,16.61,4.58,5.8,9.35,11.46,13.81,17.37,1.3,1.73,1.92,4,2.62,6.14a37.15,37.15,0,0,1,1,5L48,647l2.14.72c.3,1,.3,2,.78,2.45a53.35,53.35,0,0,1,9.74,11.65c3.12,5,6.47,9.79,9.65,14.73,1.61,2.48,2.92,5.17,4.63,7.58,1.08,1.54,2.8,2.61,4,4.1,4.3,5.45,8.5,11,12.72,16.5a6.79,6.79,0,0,1,.54,1.11,7.83,7.83,0,0,1-1.09-.1c-8.2-2-13,1.64-13.14,10-.09,6.88-.21,13.76.08,20.63a17.93,17.93,0,0,0,2.08,7.81c2.48,4.45,8.46,4.51,11.51.48a5.76,5.76,0,0,1,.79-.73l.85,3h2.69V724.6H87.44v4.26l3.45.37c-.34,3.72-.52,7.3-1.1,10.8A3.31,3.31,0,0,1,87.23,742c-.85,0-1.93-1.17-2.44-2.08a7,7,0,0,1-.47-3.13c0-3.9,0-7.79,0-11.69,0-3.74,0-7.49.19-11.22.08-1.67.74-3.23,2.85-3.21S90,712.19,90,713.91c.07,2,0,4,0,6h6.17c-.23-3.39-.44-6.59-.71-10.52,2.12,3.08,4,5.57,5.56,8.2a7.34,7.34,0,0,1,1.07,3.61c.09,7.79.05,15.58.05,23.37V747h6.31V728h5.74v19h6.26c0-13.46.05-26.75-.09-40,0-1.11-1.31-2.21-2-3.3l-.31,1.93c-.68-7.27-1.34-14.28-2-21.68l-.87,1.56c-.42-5.08-.82-9.71-1.18-14.34-.05-.59-.08-1.56.23-1.73,2-1.1,1.3-2.88,1.33-4.48,0-.88,0-1.77,0-2.79l1.57.72c0-5.19,0-10.2,0-15.21,0-1.87.9-2.48,3-1.87-.81-2.41,1.71-4.6.19-7l.35-.31c3.79-1,4-1.07,2.79-4.45a22.6,22.6,0,0,1-1.66-9.5c.32-4.17-.22-8.41.24-12.55.34-3.12.06-5.64-2.2-7.93a2.51,2.51,0,0,1-.06-2.37c1.31-2,1.33-2.09-.9-2.44l-1-2.93c.88-2.15.58-2.77-1.33-2.7-.56-4-1.16-8-1.68-12-1.13-8.82-2.21-17.64-3.32-26.46,9.9-.11,19.32,2.37,28.53,5.65a85.05,85.05,0,0,1,22.6,11.66c-.4.31-1.15.61-1.16.92-.07,4.7-.05,9.41-.05,14.22h2.41v-5.91c3,.48,4.06-1,4.22-3.43,0-.61.1-1.22.15-1.82l1.48,1.12v9.92c4.52.7,5.23.47,5-1.59l-2.65-.23a13.36,13.36,0,0,1,.05-3,6.84,6.84,0,0,1,1.26-1.92l3.53,3.16v4.35l2.83-1.74,2.89,3.41a11.12,11.12,0,0,0,.3,2.18c.25.72,1.06,1.33,1.08,2,.12,3.2,0,6.41.12,9.62,0,.56.78,1.11,1.21,1.66.41-.57,1.14-1.12,1.17-1.7.15-3,.11-5.95.14-8.93l2.89,3.83v6.81h4.47q2.19,4.14,4.36,8.28v6.48l1.54-3.15q.94,2.26,1.88,4.53a.66.66,0,0,0-.34.06l-1.57,0c-.62.13-1.76.23-1.77.4-.13,2-.09,4-.09,5.94h.64l.52-2.64,1,2.57,1.15.09,1.16-.81,1.5.87c.94,3.69,2,7.35,2.79,11.07C207.51,642.5,208,646,208.59,649.49Zm-44.67-35.6a.21.21,0,0,0-.24-.16c-2.44-.92-1.8.95-1.93,2.12l-1.58-.21.77-2.37c-.64.21-1.65.36-1.66.58-.13,1.92-.07,3.86-.07,5.79,1.24-2.65,1.24-2.65,2.54-2.53l.63,2.62,1.62-.52.17-.82,1.25,1a15.44,15.44,0,0,0,2-.33c0-1.81-.23-3.61-.39-5.41l-2.89,1L164,614Zm23.54,5.81,1.66.11c-.29-.71-.86-1.59-.69-1.78,1.22-1.3-.61-2.64.15-3.88l-1.07-.41-.83.42-2.63-.27v5.76h.65c.17-.8.34-1.59.58-2.68l.92,2.74ZM191.12,632l.14.11a9.76,9.76,0,0,0-.76,2.33c0,.52.46,1.08.74,1.68.26-1.14.44-1.83.56-2.53a22.19,22.19,0,0,0,.38-3.24c0-.2-1-.7-1.2-.56a2.3,2.3,0,0,0-.83,1.4C190.11,631.42,190.78,631.76,191.12,632Zm-22-8.28-1.38-2.2c-.45.76-.94,1.51-1.34,2.3a1.61,1.61,0,0,0,0,.9c.2,1.21-.59,3.19,1.45,3.2,2.3,0,.89-2.05,1.28-3.15Zm-.19-8.81c-.05-.05-.09-.12-.16-.15s-.11,0-.17,0c0,1.28-.05,2.57.09,3.83.05.45.76,1.22,1,1.16.54-.16,1.45-.86,1.38-1a15.91,15.91,0,0,0-1.43-2.7Zm-22.36,10.25-2.32,2.11c-.19-1.88-.36-3.54-.52-5.19l-.58,0a12.28,12.28,0,0,0-.11,2.63,24.76,24.76,0,0,0,1,3.3l2.73-1.05,1.93.84c.19-1.73.39-3.47.5-5.21a14.4,14.4,0,0,0-1.64-.23l-2.3-.38-.33.43,1.68,1.79Zm22.57,8.73a25.63,25.63,0,0,0,0-3.16,1.59,1.59,0,0,0-1-1c-.29-.1-1,.27-1.07.51a7.61,7.61,0,0,0,0,3.08c.1.35,1.37.35,2.11.52L169,636l.37.16,2-4.35c.16,1.39.19,2.18.36,2.92a7.47,7.47,0,0,0,.7,1.49c.45-.4,1.23-.74,1.29-1.19.23-1.66.49-3.53-2.16-3.32l.15-2.42Zm-14.69-11.53-2.45-.32-.4,1.55-1.27-2c-.82,3-.64,5,.59,6.33.22-1,.4-1.83.58-2.66l2.06-.52a8.72,8.72,0,0,0-.07,2.53c.11.44.88.7,1.65,1.26l-.62-6.08.39-.27ZM127,705.88V747h6.08V727.73c4.32-.45,5.29.37,5.33,4.27,0,3.59,0,7.18.05,10.77,0,1.42.12,2.83.18,4.17h5.81c0-5.28,0-10.39,0-15.5,0-2.51-.61-4.83-2.45-6.07.85-1.64,2.11-3,2.24-4.51a55,55,0,0,0,0-10c-.23-2.53-1.76-4.69-4.42-4.88C135.56,705.66,131.3,705.88,127,705.88Zm23.93-.11V747h6.1V705.77ZM71.79,747V705.77H65.74V747ZM156.84,579.5l.46.07v8.54c.89-.58,1.83-.91,1.83-1.25.1-4.77.07-9.55.07-14.3h-2.82c-.64,3.29-1.26,6.47-1.87,9.66l-.42-.06c-.65-3.19-1.3-6.38-2-9.63H149.4v14.89c1.84.23,1.87.24,1.9-1.34,0-2,0-3.9,0-5.86a32,32,0,0,1,1.86,6.2c.11.46.68.81,1,1.21.42-.41,1.09-.76,1.21-1.24C156,584.11,156.38,581.8,156.84,579.5Zm8.85,18h.22c0,1.6-.1,3.2,0,4.79a3,3,0,0,0,3.22,3.12,2.9,2.9,0,0,0,3.26-3c.12-3.18.11-6.38,0-9.57a2.82,2.82,0,0,0-3.06-3,3,3,0,0,0-3.43,2.9C165.76,594.35,165.77,596,165.69,597.55Zm9-7.59v15.2c1.71.52,2.27-.07,2.19-1.62-.08-1.73,0-3.47,0-5.21l.76-.33c.38.59,1,1.15,1.09,1.78a22.83,22.83,0,0,1,.06,3.88c-.07,1.91.86,2,2.26,1.38a46.6,46.6,0,0,0-.06-5.56,11.76,11.76,0,0,1,0-4.27c.92-4-.37-5.29-4.47-5.25ZM41.08,689.8c0,4,0,7.61.05,11.26,0,.48.61,1,.94,1.42.34-.47.91-.93,1-1.43.13-1.44,0-2.9,0-4.35l1.11-.1c.15,1.12.26,2.26.49,3.37.17.9-.72,2.43,1.06,2.39.35,0,.86-1.58.93-2.46.19-2.27-.56-4.47-.07-6.85s-.6-3.23-3.14-3.25Zm116.83-99.71v15.29l2.27-.22V599.6c3.83-.82,4.75-2.28,4.16-6.28C163.88,590.18,162.94,589.69,157.91,590.09ZM39.14,702.65l.61-.53c-.53-3.38-1.18-6.75-1.54-10.15-.2-1.94-.88-2.62-3-1.88l-1.77,12.15.59.41c.46-.37,1-.72,1.4-1.11s.84-.83,1.27-1.25c.36.39.72.78,1.1,1.15S38.69,702.25,39.14,702.65ZM25,696.09h0a35.85,35.85,0,0,0,0-3.88,2.44,2.44,0,0,0-2.68-2.49c-1.64,0-2.72.76-2.79,2.36-.12,2.73-.11,5.47,0,8.19.09,1.61,1.24,2.4,2.84,2.35A2.47,2.47,0,0,0,25,700.19C25.13,698.84,25,697.46,25,696.09Zm2.09,6.81c1.86-.52,4.06-.49,4.73-1.49.81-1.2.34-3.27.38-5a15,15,0,0,0-.16-1.63c-.12-1.45.3-3.43-.48-4.22s-2.83-.67-4.47-1Zm-9.19-6.72c0-1.37.29-2.84-.1-4.09a4.06,4.06,0,0,0-2.3-2.26,2.12,2.12,0,0,0-2.9,1.82,65.94,65.94,0,0,0,0,8.89c.09,1.49,1.36,2.17,2.83,2.06a2.45,2.45,0,0,0,2.45-2.53C18,698.78,17.93,697.48,17.93,696.18Zm128.75-108.6V572.39l-2,.24v15Zm55.11,45.47c-.82-1.37-1.4-3.2-2-3.2-2.09,0-1.49,1.95-1.41,3.14a12.49,12.49,0,0,0,1.21,3.27Zm-21.92-5.14c3.22.43,2.49-1.81,2.57-3.36s.12-3.37-2.57-2.84Zm-19.36,4.3.56-.23-1.27-2.23c-.52.41-1.38.77-1.48,1.26a11.64,11.64,0,0,0-.07,3.77c.08.54.88,1,1.35,1.46.42-.54,1.08-1,1.2-1.63A7.77,7.77,0,0,0,160.51,632.21Zm-4.33-4.41.54.05c.1-.86.21-1.72.39-3.11l1.68,3.12V622l-1.26.92-1.35-1.45Zm24.63-14.28v6.3c3.84,0,1.78-2.92,2.3-4.36S182.7,613.19,180.81,613.52Zm-1,16.45c0,1.72,0,3.45,0,5.18,0,.36.49.8.86,1,.14.07.78-.37.87-.66a30.71,30.71,0,0,0,.77-3.52C182.61,630.16,181.88,629.4,179.79,630Zm-19.37-8.27H160v6.1h.43l.61-2.86.8,2.91.24-.11V621.8h-.41l-.56,2.8C160.79,623.2,160.61,622.45,160.42,621.7Zm14.87,6.69v-6.6l-.45,0-.36,2.21-1.55-2.81v6.62l.36,0,.61-2.06Zm19.77-6.24c-.29,2.08-.55,3.83-.8,5.58,1.06-1.79,2,.07,3.28.13C196.37,626,197.61,623.61,195.06,622.15Zm-2.37-8.7h-.89l-.87,5.57.72.13.66-2.37.58,2.13C195.43,616.58,192,615.3,192.69,613.45Zm-17.14,6.14.59,0c.24-.84.23-2,.78-2.45,1.32-1.18,1.72-2.68.43-3.44a2,2,0,0,0-1.72.57C175.48,616.06,175.55,617.83,175.55,619.59Zm11.17,7.47.74-1.11,1.18,2.47V621.5C186.19,623,186.59,625,186.72,627.06Zm-21.65,7.88-1.2-.46-.37.43,1.29,1.32c.4-.46,1.16-1,1.13-1.38a30.53,30.53,0,0,0-.82-4.24l.6-.52c-.8-.22-1.79-.13-1.91.25a4.82,4.82,0,0,0,.09,2.32C165.72,632.76,164.92,634,165.07,634.94Zm.83-7.2-.68-3.89c-2.1.44-2.13.49-2.14,4.77C163.92,626.6,164.72,626.86,165.9,627.74Zm30.81-14.17c-1.52,0-1.49,0-1.45,4.39,0,1.31.08,2.35,1.45,1.87Zm-3.48,8.12c-1.63,2.06-1.94,4.1,0,6.47Zm-9.9,11,.83,3.53L185,636c.11-1.23.23-2.45.33-3.5Zm-64,56.35.75,0-.64-5.05-.81.12C118.86,685.69,119.1,687.35,119.33,689Zm71.11-75.26-.3.3.58.55.35-.35Z"/><path class="cls-3" d="M18.77,600c3.76-6.54,8.83-12,14.27-17.15a101,101,0,0,1,26.49-18.16c13.08-6.11,26.69-10,41.28-9.68,3.56.07,7.13,0,10.69.06,1.11,8.82,2.19,17.64,3.32,26.46.52,4,1.12,8,1.68,12,.07.9.14,1.8.22,2.7,0,.17,0,.33,0,.5l.26,3.34.6-.08-.33-3.24a3.09,3.09,0,0,1,.14-.43.7.7,0,0,0,.4-.09l1,2.93c2.23.35,2.21.48.9,2.44a2.51,2.51,0,0,0,.06,2.37c2.26,2.29,2.54,4.81,2.2,7.93-.46,4.14.08,8.38-.24,12.55a22.6,22.6,0,0,0,1.66,9.5c1.2,3.38,1,3.48-2.79,4.45l-.29-.24-.06.55c1.52,2.4-1,4.59-.19,7-2.06-.61-3,0-3,1.87,0,5,0,10,0,15.21l-1.57-.72c0,1,0,1.91,0,2.79,0,1.6.65,3.38-1.33,4.48-.31.17-.28,1.14-.23,1.73.36,4.63.76,9.26,1.18,14.34l.87-1.56c.69,7.4,1.35,14.41,2,21.68l.31-1.93c.69,1.09,2,2.19,2,3.3.14,13.28.09,26.57.09,40h-6.26V728h-5.74v19h-6.31v-2.4c0-7.79,0-15.58-.05-23.37a7.34,7.34,0,0,0-1.07-3.61c-1.61-2.63-3.44-5.12-5.56-8.2.27,3.93.48,7.13.71,10.52H90c0-2,0-4,0-6-.07-1.72-.54-3.27-2.69-3.29s-2.77,1.54-2.85,3.21c-.18,3.73-.17,7.48-.19,11.22,0,3.9,0,7.79,0,11.69a7,7,0,0,0,.47,3.13c.51.91,1.59,2.07,2.44,2.08A3.31,3.31,0,0,0,89.79,740c.58-3.5.76-7.08,1.1-10.8l-3.45-.37V724.6h8.49v22.34H93.24l-.85-3a5.76,5.76,0,0,0-.79.73c-3,4-9,4-11.51-.48A17.93,17.93,0,0,1,78,736.38c-.29-6.87-.17-13.75-.08-20.63.1-8.38,4.94-12,13.14-10a7.83,7.83,0,0,0,1.09.1,6.79,6.79,0,0,0-.54-1.11c-4.22-5.51-8.42-11.05-12.72-16.5-1.17-1.49-2.89-2.56-4-4.1-1.71-2.41-3-5.1-4.63-7.58-3.18-4.94-6.53-9.76-9.65-14.73a53.35,53.35,0,0,0-9.74-11.65c-.48-.44-.48-1.43-.78-2.45L48,647l1.07-1.86a37.15,37.15,0,0,0-1-5c-.7-2.12-1.32-4.41-2.62-6.14-4.46-5.91-9.23-11.57-13.81-17.37C27.33,611.14,23.07,605.58,18.77,600Zm80.68-13.8,0,0c.81.75.81.75,1.85-1.18l-1.35-.69v0c2,.39,1.89-1.64,2.87-2.41l-3.24-3.15-1.55,3.68-3-.59-.49-2.87c-1.56,1.64-1.67,2.5.21,3.09,0,.26,0,.51,0,.77l-1.19.4-.65-.09.44.33-2.59,1.23L90,583.16c-.6,1-1.24,1.64-1.3,2.33,0,.38.93.83,1.44,1.26l.68-1.41,4.74.56-.6-2.82,3.48,2.71Zm8.28,31.62v-.5l1.79-1,1-.16,3.67-.16a8.83,8.83,0,0,0,.34,2.27c.6,1.37,1.38,2.67,2.11,4.05,2-.82,2.49-2.31,2-6.65a5.31,5.31,0,0,1-1.33-.16c-.1,0,0-.59,0-.91l.61-.43-1.56-.86a1.11,1.11,0,0,0-.32-.21c.34-3.43-1.67-5.87-3.56-8.34-.16-.2-.71-.1-1.08-.15-.18-2,.17-4.22-2.56-5.35l-1.49,1.62,2.14,1.39.5,1.87-1,.09-1.29-1.08-.87-.92c-1.49-1.41-2.7-3.47-5.31-2.28H101l-.5-.41c.14-.12.28-.24-.06,0,.26-.35.15-.19,0,0-5.42,1-7.82-.66-9.61-4.61a3.26,3.26,0,0,0-.81-1c-1.87-1.65-3.75-3.3-5.65-4.91a1.82,1.82,0,0,0-1.13-.46c-2.85.12-5.41.83-6.63,3.8A24.78,24.78,0,0,0,75.34,596c-.57,2.4-1,4.83-1.47,7.24a24.19,24.19,0,0,0-13.55,8L59,615.65l-2.75-2.31-.47.27,3.34,6.77.9,2.9c-.07.44-.33,1-.19,1.31,1.31,3.5,2.65,7,4.1,10.42.13.31,1,.29,1.59.42L66,636.6l-.44.89-3.46,4.68c0,2,0,4,.22,6a3.44,3.44,0,0,0,1.25,1.89,6.9,6.9,0,0,0,7.54,1.2c.15.66.25,1.33.46,2,1.85,5.68,3.56,11.41,5.66,17,1.46,3.9,2.83,8,7.15,10h0c.79.66,1.65,1.27,2.38,2a31.53,31.53,0,0,1,4.45,4.89c1,1.54,1.09,3.61,1.86,5.32,2.85,6.33,5.82,12.61,8.75,18.91l.33.49,1.66,3.64c-.62,1.47.39,5.44,1.64,6.37.08.06.29,0,.44-.06l.47.56-.87,1.12c.87.49,1.71,1.32,2.61,1.38a12.77,12.77,0,0,0,3.46-.63v-1.82a11.29,11.29,0,0,0,3-.07,16.13,16.13,0,0,0,3-1.62l-1.19-1.1-.35-.5,0,0c.83-3-.06-5.7-1.36-8.35-.51-2.56-1-5.13-1.54-7.69l0-2.75-.77-2.24h0q-.94-2.53-1.91-5.07l-1.23-4.74c-.45-1.59-1-3.16-1.34-4.78a29.38,29.38,0,0,1-.75-6.63,17.49,17.49,0,0,1,1.4-6.63c1.77-3.65.37-6.85-.65-10.18,1-.68,2-1.33,3-2.06,1.55-1.18,2.9-2.49,2.28-4.73.33-.82,1.12-1.82.88-2.41a15.62,15.62,0,0,0-2.31-3.26l-.58-2.73,1.28-.93,0,0c.37-1.23,1.49-2.44.07-3.69.08-.8.53-1.94.17-2.33-1.34-1.46-2.21-3.55-4.67-3.71a3.24,3.24,0,0,1-3.28-2.62l-.92.39-.27-2.06,1-.11.36.36-.14-.56-.2-.95.38-2.26a17.57,17.57,0,0,1,1,1.57,4.17,4.17,0,0,0,5.91,2.09,2.4,2.4,0,0,0,1-1.65,20.44,20.44,0,0,0-.11-5,10.36,10.36,0,0,0-1.67-2.94C110.94,618.34,109.46,618,107.73,617.86ZM56.36,651.35l0,1.85c.42,0,1,.06,1.23-.16a6.76,6.76,0,0,0,1.93-2c.43-.85,1.5-1.87.16-2.9l-.14-3.7c.51-1.56,1-3.12,1.54-4.69-1.84-1.1-2.51-.83-3,1-.36,1.43-.94,2.8-1.34,4.23a14.4,14.4,0,0,0-.26,2.19C55.52,648.54,54.62,649.91,56.36,651.35Zm37.23-77.76c-1-1.22-2.23-2.7-3.42-4.22-.82-1-1.55-2.17-2.38-3.22a2,2,0,0,0-1.06-.62c-.27-.06-.83.13-.9.33-.7,2.17-1.7,4.88,0,6.44,2.33,2.06,2.65,4.51,3.14,7.12,0,.06.21.09.24.1Zm24,64.25-.8,1.49-1.82-1.6-.36,4.25C116.37,641.94,117.67,640.33,117.6,637.84ZM95.18,587.93a10.73,10.73,0,0,0,1.43,1.92,2.1,2.1,0,0,0,1.55.5,1.45,1.45,0,0,0,.87-1.11,1.47,1.47,0,0,0-.94-1A19.92,19.92,0,0,0,95.18,587.93Zm18.12,57.22-.64-.28-.34,1.64.45.12Zm2.55,40.91h-.16v.76h.16Zm-12.7-102.43-.17.08.17.08Zm-13.58,3.72.1.07,0-.1Z"/><path class="cls-3" d="M127,705.88c4.27,0,8.53-.22,12.76.08,2.66.19,4.19,2.35,4.42,4.88a55,55,0,0,1,0,10c-.13,1.49-1.39,2.87-2.24,4.51,1.84,1.24,2.43,3.56,2.45,6.07,0,5.11,0,10.22,0,15.5h-5.81c-.06-1.34-.16-2.75-.18-4.17,0-3.59,0-7.18-.05-10.77,0-3.9-1-4.72-5.33-4.27V747H127Zm6.24,16.44c4.09.69,5,0,5.15-3.86.05-1.21.05-2.43,0-3.64-.09-4-1-4.73-5.18-4.18Z"/><path class="cls-3" d="M169.66,739.34,163.72,744l-.12-35.74V706c4.23,0,8.34-.31,12.37.1,2.94.3,4.6,2.78,5,5.59a76.82,76.82,0,0,1,.56,9.11c.08,2.52,0,5,0,7.56l-6.05,6c-.09-.9-.25-1.8-.26-2.7,0-5.65,0-11.29-.1-16.93-.1-3.62-1.77-4.76-5.31-3.87v3.36Q169.74,726.76,169.66,739.34Z"/><path class="cls-4" d="M50,747.15l-4.12-2.72c0-12.82,0-25.64,0-38.64H59.56V711H52.32v12.14h7v5.19h-7v13.23H59.9v5.58Z"/><path class="cls-5" d="M151,705.77h6.1V747H151Z"/><path class="cls-5" d="M71.79,747H65.74V705.77h6.05Z"/><path class="cls-5" d="M34.26,735.26,28,729v-23.2h6.28Z"/><path class="cls-6" d="M156.84,579.5c-.46,2.3-.86,4.61-1.42,6.89-.12.48-.79.83-1.21,1.24-.36-.4-.93-.75-1-1.21a32,32,0,0,0-1.86-6.2c0,2,0,3.91,0,5.86,0,1.58-.06,1.57-1.9,1.34V572.53h2.72c.67,3.25,1.32,6.44,2,9.63l.42.06c.61-3.19,1.23-6.37,1.87-9.66h2.82c0,4.75,0,9.53-.07,14.3,0,.34-.94.67-1.83,1.25v-8.54Z"/><path class="cls-5" d="M20,719.58c-2.36-3.78-4.75-7.53-7.06-11.34a15.94,15.94,0,0,1-1.05-2.75c6.06-1.5,9.88,1,10.57,7.13.23,2.08.23,4.19.33,6.21Z"/><path class="cls-4" d="M197.2,705.74c-2.27,5.84-6,10.8-9.73,15.72V705.74Z"/><path class="cls-7" d="M165.69,597.55c.08-1.59.07-3.2.25-4.78a3,3,0,0,1,3.43-2.9,2.82,2.82,0,0,1,3.06,3c.09,3.19.1,6.39,0,9.57a2.9,2.9,0,0,1-3.26,3,3,3,0,0,1-3.22-3.12c-.12-1.59,0-3.19,0-4.79Zm4.44.05h0c0-1.37.09-2.75,0-4.11-.06-.53-.62-1-1-1.51-.31.46-.87.9-.88,1.37-.08,2.89-.08,5.79,0,8.68,0,.44.61.86.94,1.29.31-.46.83-.9.87-1.38C170.21,600.5,170.13,599.05,170.13,597.6Z"/><path class="cls-7" d="M174.71,590h1.77c4.1,0,5.39,1.28,4.47,5.25a11.76,11.76,0,0,0,0,4.27,46.6,46.6,0,0,1,.06,5.56c-1.4.58-2.33.53-2.26-1.38a22.83,22.83,0,0,0-.06-3.88c-.09-.63-.71-1.19-1.09-1.78l-.76.33c0,1.74-.06,3.48,0,5.21.08,1.55-.48,2.14-2.19,1.62Zm2.31,6.35c2.15-.12,1.85-1.56,1.74-2.64a6.38,6.38,0,0,0-1-2l-.7.29Z"/><path class="cls-8" d="M41.08,689.8h2.37c2.54,0,3.64.82,3.14,3.25s.26,4.58.07,6.85c-.07.88-.58,2.45-.93,2.46-1.78,0-.89-1.49-1.06-2.39-.23-1.11-.34-2.25-.49-3.37l-1.11.1c0,1.45.09,2.91,0,4.35-.05.5-.62,1-1,1.43-.33-.47-.93-.94-.94-1.42C41.05,697.41,41.08,693.77,41.08,689.8Z"/><path class="cls-7" d="M157.91,590.09c5-.4,6,.09,6.43,3.23.59,4-.33,5.46-4.16,6.28v5.56l-2.27.22Zm2.32,7.06c2,.45,1.84-1.08,1.81-2.06,0-1.21.61-3-1.81-3.24Z"/><path class="cls-9" d="M39.14,702.65c-.45-.4-.9-.8-1.33-1.21s-.74-.76-1.1-1.15c-.43.42-.83.85-1.27,1.25s-.94.74-1.4,1.11l-.59-.41,1.77-12.15c2.11-.74,2.79-.06,3,1.88.36,3.4,1,6.77,1.54,10.15Z"/><path class="cls-9" d="M25,696.09c0,1.37.1,2.75,0,4.1a2.47,2.47,0,0,1-2.55,2.43c-1.6,0-2.75-.74-2.84-2.35-.14-2.72-.15-5.46,0-8.19.07-1.6,1.15-2.36,2.79-2.36a2.44,2.44,0,0,1,2.68,2.49,35.85,35.85,0,0,1,0,3.88Zm-2.79,4.69c1.46-1.6,1.44-7.8,0-9.33C21.06,693.11,21.07,699.23,22.24,700.78Z"/><path class="cls-7" d="M27.12,702.9V689.63c1.64.29,3.6.09,4.47,1s.36,2.77.48,4.22a15,15,0,0,1,.16,1.63c0,1.7.43,3.77-.38,5C31.18,702.41,29,702.38,27.12,702.9Zm2-1.95c2.38-.48,1.51-2.21,1.54-3.4,0-.4-.79-.82-1.54-1.54Zm0-6.25.81.33a6.67,6.67,0,0,0,.66-2.09c0-.59-.54-1.17-.84-1.76l-.63.26Z"/><path class="cls-6" d="M162.63,572.42l2.45,1.82c-.44.36-1.22.69-1.26,1.1a40,40,0,0,0-.06,4.38l.78.29c.38-.55,1-1,1.1-1.64a18.09,18.09,0,0,0,.15-3.13l2.41,1.16c0,.6-.11,1.21-.15,1.82-.16,2.46-1.26,3.91-4.22,3.43v5.91h-2.41c0-4.81,0-9.52.05-14.22C161.48,573,162.23,572.73,162.63,572.42Z"/><path class="cls-7" d="M17.93,696.18c0,1.3.05,2.6,0,3.89a2.45,2.45,0,0,1-2.45,2.53c-1.47.11-2.74-.57-2.83-2.06a65.94,65.94,0,0,1,0-8.89,2.12,2.12,0,0,1,2.9-1.82,4.06,4.06,0,0,1,2.3,2.26C18.22,693.34,17.93,694.81,17.93,696.18ZM15.31,701c1.17-2,1.09-8.06,0-9.51C13.9,692.89,13.83,699.12,15.31,701Z"/><path class="cls-10" d="M182.56,589.9l4,4.85c0,3,0,6-.14,8.93,0,.58-.76,1.13-1.17,1.7-.43-.55-1.19-1.1-1.21-1.66-.12-3.21,0-6.42-.12-9.62,0-.69-.83-1.3-1.08-2A11.12,11.12,0,0,1,182.56,589.9Z"/><path class="cls-7" d="M146.68,587.58h-2v-15l2-.24Z"/><path class="cls-6" d="M169.68,577.52l3.63,3.2a6.84,6.84,0,0,0-1.26,1.92,13.36,13.36,0,0,0-.05,3l2.65.23c.26,2.06-.45,2.29-5,1.59Z"/><path class="cls-7" d="M8.7,699q-1.12-2.53-2.24-5.07c.2-1.23.4-2.47.64-4a8.9,8.9,0,0,1,1.79-.13,21.06,21.06,0,0,1,2.43.61L9,692.26v2l2.11,1.47-2.13,1.44Z"/><path class="cls-11" d="M154.53,622.48l.62,6.08c-.77-.56-1.54-.82-1.65-1.26a8.72,8.72,0,0,1,.07-2.53l-2.06.52c-.18.83-.36,1.67-.58,2.66-1.23-1.28-1.41-3.33-.59-6.33l1.27,2,.4-1.55,2.45.32Z"/><path class="cls-12" d="M201.79,633.05l-2.2,3.21a12.49,12.49,0,0,1-1.21-3.27c-.08-1.19-.68-3.15,1.41-3.14C200.39,629.85,201,631.68,201.79,633.05Z"/><path class="cls-8" d="M189.47,598.58l4.47,6.81h-4.47Z"/><path class="cls-13" d="M179.87,627.91v-6.2c2.69-.53,2.65,1.21,2.57,2.84S183.09,628.34,179.87,627.91Z"/><path class="cls-13" d="M160.51,632.21a7.77,7.77,0,0,1,.29,2.4c-.12.6-.78,1.09-1.2,1.63-.47-.49-1.27-.92-1.35-1.46a11.64,11.64,0,0,1,.07-3.77c.1-.49,1-.85,1.48-1.26l1.27,2.23Z"/><path class="cls-12" d="M156.18,627.8v-6.35l1.35,1.45,1.26-.92v5.88l-1.68-3.12c-.18,1.39-.29,2.25-.39,3.11Z"/><path class="cls-14" d="M180.81,613.52c1.89-.33,2.83.47,2.3,1.94s1.54,4.38-2.3,4.36Z"/><path class="cls-12" d="M169.15,633.92l2.54-4.61-.15,2.42c2.65-.21,2.39,1.66,2.16,3.32-.06.45-.84.79-1.29,1.19a7.47,7.47,0,0,1-.7-1.49c-.17-.74-.2-1.53-.36-2.92l-2,4.35L169,636l.23-2.14Z"/><path class="cls-12" d="M186.2,619.72l-.92-2.74c-.24,1.09-.41,1.88-.58,2.68h-.65v-5.76l2.63.27Z"/><path class="cls-13" d="M179.79,630c2.09-.57,2.82.19,2.54,2a30.71,30.71,0,0,1-.77,3.52c-.09.29-.73.73-.87.66-.37-.21-.84-.65-.86-1C179.74,633.42,179.79,631.69,179.79,630Z"/><path class="cls-12" d="M160.42,621.7c.19.75.37,1.5.72,2.9l.56-2.8h.41v5.94l-.24.11-.8-2.91-.61,2.86H160v-6.1Z"/><path class="cls-10" d="M147.53,622.44a14.4,14.4,0,0,1,1.64.23c-.11,1.74-.31,3.48-.5,5.21l-1.93-.84c-.06-.62-.11-1.24-.16-1.85v-.91Z"/><path class="cls-12" d="M200.16,627.83l-1-2.57-.52,2.64H198c0-2,0-4,.09-5.94,0-.17,1.15-.27,1.77-.4Q200,624.69,200.16,627.83Z"/><path class="cls-13" d="M175.29,628.39l-1.39-2.62-.61,2.06-.36,0v-6.62l1.55,2.81.36-2.21.45,0Z"/><path class="cls-12" d="M195.06,622.15c2.55,1.46,1.31,3.86,2.48,5.71-1.33-.06-2.22-1.92-3.28-.13C194.51,626,194.77,624.23,195.06,622.15Z"/><path class="cls-12" d="M192.69,613.45c-.65,1.85,2.74,3.13.2,5.45l-.58-2.13-.66,2.37-.72-.13.87-5.57Z"/><path class="cls-12" d="M169.62,616a15.91,15.91,0,0,1,1.43,2.7c.07.19-.84.89-1.38,1-.21.06-.92-.71-1-1.16-.14-1.26-.07-2.55-.09-3.83.06,0,.13,0,.17,0s.11.1.16.14C169.17,615.28,169.4,615.65,169.62,616Zm.09,2.82.43,0-.08-1.55-.46,0Z"/><path class="cls-13" d="M169.13,624.8c-.39,1.1,1,3.17-1.28,3.15-2,0-1.25-2-1.45-3.2a1.61,1.61,0,0,1,0-.9c.4-.79.89-1.54,1.34-2.3l1.38,2.2-1.55-1.16v4.68c.32-.18.43-.21.44-.25a7,7,0,0,1,.11-1.72C168.21,625.06,168.78,625,169.13,624.8Z"/><path class="cls-13" d="M175.55,619.59c0-1.76-.07-3.53.08-5.28a2,2,0,0,1,1.72-.57c1.29.76.89,2.26-.43,3.44-.55.49-.54,1.61-.78,2.45Z"/><path class="cls-12" d="M186.72,627.06c-.13-2-.53-4.1,1.92-5.56v6.92L187.46,626Z"/><path class="cls-13" d="M165.42,619.37l-1.25-1,0-3.8,2.89-1c-.21.9-.39,1.81-.64,2.7S165.75,618.36,165.42,619.37Z"/><path class="cls-13" d="M201.72,621.53,204,628l-1.5-.87-1.16.81.07-6.33A.66.66,0,0,1,201.72,621.53Z"/><path class="cls-13" d="M165.07,634.94c-.15-.92.65-2.18-1.19-2.28a4.82,4.82,0,0,1-.09-2.32c.12-.38,1.11-.47,1.91-.25l-.6.52a30.53,30.53,0,0,1,.82,4.24c0,.43-.73.92-1.13,1.38l-1.29-1.32.37-.43Z"/><path class="cls-10" d="M161.75,615.85c.13-1.17-.51-3,1.93-2.12l.24.16,0,.15c-.08.19-.17.37-.26.55l0,4.17.34.45-1.62.52-.63-2.62Z"/><path class="cls-12" d="M169.19,633.88c-.74-.17-2-.17-2.11-.52a7.61,7.61,0,0,1,0-3.08c0-.24.78-.61,1.07-.51a1.59,1.59,0,0,1,1,1,25.63,25.63,0,0,1,0,3.16Z"/><path class="cls-15" d="M146.58,625.19c0,.61.1,1.23.16,1.85L144,628.09a24.76,24.76,0,0,1-1-3.3,12.28,12.28,0,0,1,.11-2.63l.58,0c.16,1.65.33,3.31.52,5.19Z"/><path class="cls-12" d="M165.9,627.74c-1.18-.88-2-1.14-2.82.88,0-4.28,0-4.33,2.14-4.77Z"/><path class="cls-12" d="M191.12,632c-.34-.27-1-.61-1-.81a2.3,2.3,0,0,1,.83-1.4c.19-.14,1.2.36,1.2.56a22.19,22.19,0,0,1-.38,3.24c-.12.7-.3,1.39-.56,2.53-.28-.6-.78-1.16-.74-1.68a9.76,9.76,0,0,1,.76-2.33c.05-.32.09-.63.14-.95l-.28,0Z"/><path class="cls-14" d="M165.42,619.37c.33-1,.69-2,1-3s.43-1.8.64-2.7c.16,1.8.35,3.6.39,5.41A15.44,15.44,0,0,1,165.42,619.37Z"/><path class="cls-13" d="M196.71,613.57v6.26c-1.37.48-1.44-.56-1.45-1.87C195.22,613.56,195.19,613.56,196.71,613.57Z"/><path class="cls-13" d="M161.75,615.85v1.26c-1.3-.12-1.3-.12-2.54,2.53,0-1.93-.06-3.87.07-5.79,0-.22,1-.37,1.66-.58l-.77,2.37Z"/><path class="cls-13" d="M193.23,621.69v6.47C191.29,625.79,191.6,623.75,193.23,621.69Z"/><path class="cls-6" d="M176.84,583.88l2.83,2.61-2.83,1.74Z"/><path class="cls-13" d="M187.51,613.74l1.07.41c-.76,1.24,1.07,2.58-.15,3.88-.17.19.4,1.07.69,1.78l-1.66-.11C187.48,617.71,187.5,615.72,187.51,613.74Z"/><path class="cls-11" d="M201.38,621.59l-.07,6.33-1.15-.09q-.18-3.14-.35-6.27Z"/><path class="cls-13" d="M183.33,632.66l2-.13c-.1,1.05-.22,2.27-.33,3.5l-.87.16Z"/><path class="cls-13" d="M198.3,613.67l1.54,3.33-1.54,3.15Z"/><path class="cls-12" d="M119.33,689c-.23-1.66-.47-3.32-.7-5l.81-.12.64,5.05Z"/><path class="cls-16" d="M187.51,613.74c0,2,0,4,0,6l-1.26,0,.48-5.56Z"/><path class="cls-16" d="M169.13,624.8c-.35.17-.92.26-1,.5A7,7,0,0,0,168,627s-.12.07-.44.25v-4.68l1.55,1.16Z"/><path class="cls-11" d="M117.83,596.24a.7.7,0,0,1-.4.09l-.71-.09-.22-2.7C118.41,593.47,118.71,594.09,117.83,596.24Z"/><path class="cls-15" d="M147.53,622.44l-.95,1.84-1.68-1.79.33-.43Z"/><path class="cls-7" d="M163.68,614.59c.09-.18.18-.36.26-.55l.21.55,0,3.8-.17.82-.34-.45Z"/><path class="cls-12" d="M190.44,613.75l.63.5-.35.35-.58-.55Z"/><path class="cls-17" d="M169.62,616c-.22-.37-.45-.74-.68-1.09Z"/><path class="cls-11" d="M154.46,622.39l.46-.18-.39.27Z"/><path class="cls-7" d="M163.92,613.89l-.24-.16A.21.21,0,0,1,163.92,613.89Z"/><path class="cls-15" d="M169.66,739.34q.09-12.57.17-25.15v-3.36c3.54-.89,5.21.25,5.31,3.87.15,5.64.06,11.28.1,16.93,0,.9.17,1.8.26,2.7Z"/><path class="cls-16" d="M165.79,575.24a18.09,18.09,0,0,1-.15,3.13c-.13.59-.72,1.09-1.1,1.64l-.78-.29a40,40,0,0,1,.06-4.38c0-.41.82-.74,1.26-1.1a.35.35,0,0,0,.28.12c.14.25.29.49.43.73Z"/><path class="cls-6" d="M165.79,575.09c-.14-.24-.29-.48-.43-.73C165.5,574.61,165.65,574.85,165.79,575.09Z"/><path class="cls-18" d="M112.34,698.14l.77,2.24q-1.76,1.38,0,2.75c.51,2.56,1,5.13,1.54,7.69-.26,2.2-1.44,2.83-3.51,2.13-.31-.1-.78.26-1.18.4l-4,1.71-2.15.44-1.66-3.64,1.48,0h.46l1.39,1.37.08.09-.1-.08.47-.92.9,0,.12.08-.08-.12c.08-1.31-.52-1.93-1.84-1.82,0-.29,0-.59,0-.88l.42-2c0-.28,0-.56,0-.83l1.9.07c.4,1.53.76,3.07,1.24,4.58.1.34.57.59.92.79.07,0,.57-.38.55-.54a23.33,23.33,0,0,0-.71-3.92c-.13-.42-.94-.64-1.44-.94.11-.92.23-1.83.35-2.74-1.22-1.8-2.74-.35-4.13-.39-1.34-.53-.51-1.5-.46-2.31l1.43-.11,1.84-1-.46,0-.67-.29-.79-.93.54-1,1-.54h-.94c-.39-.57-1.13-1.15-1.1-1.69a2.26,2.26,0,0,0-2.32-2.5c-1.5,0-2.17-.89-3-1.69,0-.3,0-.61,0-.92l-.63-6.54-1.25-.76c-.16-1.26.12-2,1.65-2s1.27-.67.21-1.28l0-.93.88-.42,2.39,0,4.19-.39c-.66-2.64-1.95-3.92-4.22-4.12a3.4,3.4,0,0,1-.12-.34l-.16-.47-.22.29-1.37.08c.43-1.65,1-3.28,1.26-5,.14-.81.06-2.12-.44-2.47s-1.71,0-2.6.07l-3-1.81-.76-1.37c-.64-1.81-.31-4.07-2.35-5.53l-.35,1.87-.47-1a23.65,23.65,0,0,0,.1-2.65,14.79,14.79,0,0,0-.48-2.25c.45-.69.89-1.39,1.2-1.87l-1.74-2.37A39.21,39.21,0,0,1,89,645.29c-.37-1.3-2.36-2.5-.42-4.11.15-.13-.21-1.12-.55-1.55-.86-1.08-1.84-2.07-2.77-3.09l0-.72c6-1.83,13,.15,15.56,6.66,2.31,5.88,4.68,11.75,7,17.62,1,3.33,2.42,6.53.65,10.18a17.49,17.49,0,0,0-1.4,6.63,29.38,29.38,0,0,0,.75,6.63c.3,1.62.89,3.19,1.34,4.78-.19,1.74-.79,3.58,1.23,4.74q1,2.54,1.91,5.07l-.06.19ZM97.25,648.35l.13-.36-.5,0h-.1c0-.11,0-.22,0-.32l.14-.48.16,0,.12-.55-1.7-1.25-.6,1.31c-.91,1.54-.86,2.87.83,3.87h.55l-.3-.2.78-1.76L97,649l.16-.31C97.22,648.58,97.23,648.47,97.25,648.35Zm-.48,9.33.47.53a15.17,15.17,0,0,0,1,2.51c.29.51.92.81,1.48,1.27a46.39,46.39,0,0,0-.57-5.24c-.11-.54-1-.9-1.56-1.34l-.79,1a2.54,2.54,0,0,1-.1.37l-1.14-.4-.31.62,1.57.64ZM105,684.9c-.18-4-.88-5.35-2.63-4.91.42,1.58.83,3.17,1.24,4.75l.5,1.55c.8,2.62,1.55,5.26,2.43,7.85.11.33.87.45,1.79.89-.68-2.25-1.11-3.93-1.68-5.55-.47-1.29-1.11-2.52-1.68-3.78ZM93.27,645.33c1.56-1.87,0-6.05-2.41-7.21a12.67,12.67,0,0,0,.36,1.76C91.84,641.62,92.51,643.34,93.27,645.33Zm3.7,9,.36-.14.54-2.7-2.76.68,1-.54Zm12.89,48.23-.7.18.66,1.89.58-.19ZM96.71,660.22l.39-.3-.76-.92-.35.28Zm3.71,24.06-.33.1.14.74.5-.13Zm10,22.35-.13.15.3.13c0-.06,0-.15,0-.19S110.5,706.66,110.43,706.63Zm.92,3.21-.13.15.29.13c0-.06,0-.15,0-.19S111.41,709.87,111.35,709.84Zm-.18-1.57c0-.06,0-.14-.07-.16s-.11,0-.17,0l.12.24Z"/><path class="cls-19" d="M107.83,660.1c-2.34-5.87-4.71-11.74-7-17.62-2.56-6.51-9.55-8.49-15.56-6.66l-3.13.93-2.42-2.89-1.33,1.4H78l-.51-.88-.89,0a7.38,7.38,0,0,0-1.49-.42c-1.13-.08-3-.5-3.27,0-1.11,1.88,1.35,1.77,2,2.77-1.3,1-2.65,2-2.91,3.8,0,.17-.47.28-.73.42l-1-2.9-1.5-1.8.08-.84a1.12,1.12,0,0,0-.37-.21c.44-1.45.88-2.91,1.33-4.37a26.09,26.09,0,0,0,2.95-4.25c.31-.69-.41-1.92-.84-2.81-.1-.2-1,0-1.48,0l0,0-.76-1.11c1.33-.33,2.76-1.15,4-.89,1.78.37,3.33,1.87,5.11,2.23a25.39,25.39,0,0,1,11.6,5c.25.21.91-.06,1.37-.11l.7,0-1,1.51,3.42,1.84,1-1.08.73,1.8a11.15,11.15,0,0,0,1.26-1.41,4.47,4.47,0,0,0,.4-1.25H98c.53-.56,1.06-1.13,1.6-1.68s1.11-1.1,1.67-1.66l2.11,3.07.27,2.06.5.45.42-.84a3.24,3.24,0,0,0,3.28,2.62c2.46.16,3.33,2.25,4.67,3.71.36.39-.09,1.53-.17,2.33l-.54,1.21L109,636.94l-1.75,1.1a.79.79,0,0,0-.14-.17s-.08,0-.13,0l.3.08a9,9,0,0,1,1.3,1.56,20.84,20.84,0,0,1,.93,2.58c-1.68,0-2.18.64-1.35,2.19.39.7.59,1.52,1,2.19.75,1.16,1.6,2.26,2.41,3.38l1.2,2.37.3,1-.06,0c.62,2.24-.73,3.55-2.28,4.73C109.82,658.77,108.81,659.42,107.83,660.1Zm2.93-8.7c-1.94,1.53-2.11,3.13-.67,5.58C110.49,654.84,112.55,653.57,110.76,651.4Zm-34.51-20,.62.16c.32-.69,1.08-1.63.86-2-.34-.62-1.34-.87-2.07-1.27l-.47.57Zm1.63.65-.6.29.71,1.07.38-.23Z"/><path class="cls-15" d="M73.87,603.22c.48-2.41.9-4.84,1.47-7.24a24.78,24.78,0,0,1,1.32-3.61c1.22-3,3.78-3.68,6.63-3.8a1.82,1.82,0,0,1,1.13.46c1.9,1.61,3.78,3.26,5.65,4.91a3.26,3.26,0,0,1,.81,1c1.79,3.95,4.19,5.58,9.61,4.61h0l.5.41c.07,1.53.14,3.06.22,4.59-.36-.31-1.08-.72-1-.9.5-1.59-.61-1.64-1.6-1.76s-1.81-.13-2.72-.18H91a11.17,11.17,0,0,1,.46,3.18c-.29,1.59.51,1.64,1.64,1.51l0,0c.22,1.82,1.64,1.28,2.74,1.4l4.43,3.8.48-.31-.16-1.64a1.91,1.91,0,0,0-.11-.41l.55-.47,0-.57-.53-.93.45-.89c1.77,1.25,1.82,4,0,6.46l1.83.18,2.75,2.56-.09,1,.38,0-.27-1-.45-1.75,1.85-3.72,2.39,1.83.32.5c-1,1.29-.23,2.61,0,3.92l-1.79,1-.37.5-1.4.48L104.3,617l-.46.31.77,2.38-1,.89-.48,0c.15-1.33-.11-2.27-1.78-1.82l-.46-2.76.86-1.7-.51-.3-.87,1.13c-1.88-1.12-3.77-2.21-5.61-3.37-1-.65-1.92-1.51-3-2.1s-2-.76-3-1.21c-2.58-1.2-3.32-3.67-4.06-6.11l0,0a.23.23,0,0,0,0-.36.46.46,0,0,0,0-.2,2.72,2.72,0,0,0-.11-.38c0-.6-.06-1.2,0-1.8.16-3.41-.63-4.14-4.4-3.93l2.16,3.43.12,1.37L79.48,597c.08,2,.58,3.29,2.22,3.87l.74,1.39,0,2.05v0l-.85.22-2.56.63,2.09,1.24c.15.77-.29,2.17,1.39,1.29l.83.07c0,1.95.6,3.25,2.84,3.23a7,7,0,0,1,1.69.44L82.05,619c-1.92-1.69-5.64,0-7.13-2.94h-3l.54-1.28,2.19-2.86.1-.52-1.51-3.1.15-2.76Zm29.39,13.22-.34-.14-.47,1.12.36.15Z"/><path class="cls-20" d="M101.79,711.37c-2.93-6.3-5.9-12.58-8.75-18.91-.77-1.71-.88-3.78-1.86-5.32a31.53,31.53,0,0,0-4.45-4.89c-.73-.74-1.59-1.35-2.38-2a13.11,13.11,0,0,1,1.4.06c.84.12,1.67.28,2.51.42l.2-.67-1.61-2.24-.81.74c-.48-1.22-.85-2.34-1.36-3.4a12.38,12.38,0,0,0-1.28-1.81c.17-.24.54-.6.48-.71-.42-.71-.93-1.37-1.3-1.89l-2.75.28-.53-.45.75-.92-.27-.36-1.23.91.77.34.45,1.86,1.38,1.39-.82.79.47.31.34-1.11,1,1c-.79,1.69.38,2.67,1.3,3.78a9.84,9.84,0,0,1,1,1.68c-4.32-1.93-5.69-6.08-7.15-10-2.1-5.59-3.81-11.32-5.66-17-.21-.64-.31-1.31-.46-2l.39-.17a1.77,1.77,0,0,0,.38.15L74,656.8q1,3.06,1.93,6.14l.88-.29q-1-2.91-2.08-5.82-1-3.09-2-6.19l1-2.13c.61-1.64,1.21-3.29,1.82-4.93l2-.79,1.86,2.15c0,.28,0,.56,0,.84,0,.9-.25,2,1.27,1.88l.12.93-1.33.26v.39l1.22.24.26,4.13,1.43-.51v.81l.93-.69.06,3.61a13.89,13.89,0,0,0,.49,2.6c.5,1.32,1.2,2.57,1.81,3.84a3.28,3.28,0,0,1,0,.43l-1.68.95,3.34,8.78h.73c.29-.68.57-1.37.89-2,.42-.87.88-1.71,1.32-2.57l.5,1.8c-.34.77-.73,1.52-1,2.31s-.46,1.64-.69,2.46l.77.37,3.15-3.35,1.49-1.84h.31l.59.15c.6.11,1.61,1,1.2-.69a.45.45,0,0,1,.09-.39l1.49.14-.14,1.7-.87.39.85.52,0,.9c-.61,0-1.22,0-1.82.06-4.24.62-7.12,4.61-6,8.25.13,2.08,1.16,1.39,2.18.71l.62-.3.45.93,0,0L93.06,684v.78c.79,2.13,1.57,4.27,2.36,6.4.55,1,1.09,2,1.63,3-.08,2.76,3.21,8.67,4.66,9.1.14,1.28.2,2.33.39,3.35a12.1,12.1,0,0,0,.71,1.9l-.73-.17Zm-.57-4.36-.11-.16L101,707a1.92,1.92,0,0,0,.18.22Z"/><path class="cls-21" d="M73.87,603.22c-.16.76-.31,1.52-.46,2.29l-3.23,1.2-2,1c-1.7.68-2.41,1.66-1,3.29l0,0-.94,2L70,616.65c-1,.38-2.19.5-2.82,1.18a61.38,61.38,0,0,0-4.2,5.53c-.07.09.15.42.29.59q2.71,3.42,5.47,6.82c-.45,1.46-.89,2.92-1.33,4.37l0,.17L66,636.6l-.46-1.17q-2.74-6.07-5.5-12.15l-.9-2.9L59,615.65l1.34-4.45A24.19,24.19,0,0,1,73.87,603.22Zm-9.51,23.11-1.11.35,2.08,6.06.85-.27Z"/><path class="cls-19" d="M71.46,651.11l-.39.17a6.9,6.9,0,0,1-7.54-1.2,3.44,3.44,0,0,1-1.25-1.89c-.21-2-.17-4-.22-6,3.35,1.28,1.51-2.69,3.55-2.7l1.3-1,.06-.87.42,0,.92.45c0,.06-.13.12-.12.16a2,2,0,0,0,.12.34l0,0,.07,3.12-.56,3.08-1.49.9-1.67-.68,1.34-.77L64.24,644l-.83-.31.75,1.27,1.37,1.79h0a.38.38,0,0,0-.26.34L66.84,649l2.45.5,2.22.12Z"/><path class="cls-16" d="M93.59,573.59l-4.33,5.93s-.23,0-.24-.1c-.49-2.61-.81-5.06-3.14-7.12-1.75-1.56-.75-4.27,0-6.44.07-.2.63-.39.9-.33a2,2,0,0,1,1.06.62c.83,1.05,1.56,2.17,2.38,3.22C91.36,570.89,92.59,572.37,93.59,573.59Z"/><path class="cls-7" d="M106.85,610.09,105,613.81l-2.32-.8-1.83-.18c1.85-2.41,1.8-5.21,0-6.46l.36-1.81c-.08-1.53-.15-3.06-.22-4.59h.54a10.49,10.49,0,0,1,5.67,8.21Z"/><path class="cls-11" d="M110.94,620.52a10.36,10.36,0,0,1,1.67,2.94,20.44,20.44,0,0,1,.11,5,2.4,2.4,0,0,1-1,1.65A4.17,4.17,0,0,1,105.8,628a17.57,17.57,0,0,0-1-1.57l-.38,2.26-1.3-4.87c1.27.62,2.77,1,3.74,1.93s1.69,1.06,2.67.27l1.32-1.32-.09-4.18Z"/><path class="cls-22" d="M110,713.35c.4-.14.87-.5,1.18-.4,2.07.7,3.25.07,3.51-2.13,1.3,2.65,2.19,5.36,1.36,8.35-.33-.38-.65-.77-1-1.13-1.05-1.11-1.27-.4-1.34.62l-3.21-1.78-.48-3.2A.46.46,0,0,1,110,713.35Z"/><path class="cls-23" d="M106.85,610.09l.38-1.91,1.8-3.93,1-.09v0l.05,1.37,0,1.15.15.56,1,2c-2,1.39.37,2.49.25,3.76l0,.8-.46.93-.43,1.53-1,.16c-.18-1.31-.92-2.63,0-3.92-.1-.17-.21-.33-.32-.5Z"/><path class="cls-16" d="M116.05,613.12a1.11,1.11,0,0,1,.32.21l.95,1.29c0,.32-.12.87,0,.91a5.31,5.31,0,0,0,1.33.16c.48,4.34,0,5.83-2,6.65-.73-1.38-1.51-2.68-2.11-4.05a8.83,8.83,0,0,1-.34-2.27h0l1-.49.44,0v-2.12Z"/><path class="cls-13" d="M103.15,623.85l1.3,4.87.2.95-.22.2-1,.11c-.7-1-1.41-2-2.11-3.07a7,7,0,0,0,.28-2.19c-.19-1.08-.64-2.17-2.06-1l-1-1.7,2.74-2.31,1.89.89.48,0Z"/><path class="cls-19" d="M115.52,613.37v2.12l-.44,0-1,.49h0l-3.67.16c.14-.51.29-1,.43-1.53.16-.31.31-.62.46-.93l0-.8c1.35-.56,1.18-1.42.48-2.39l-.43-3.29-.06-.2.49-.64c.43.28,1.15.49,1.25.86.46,1.75.75,3.55,1.17,5.66Z"/><path class="cls-11" d="M109,604.25l-1.8,3.93a10.49,10.49,0,0,0-5.67-8.21c2.61-1.19,3.82.87,5.31,2.28l.87.92Z"/><path class="cls-15" d="M56.47,647.18a14.4,14.4,0,0,1,.26-2.19c.4-1.43,1-2.8,1.34-4.23.46-1.87,1.13-2.14,3-1-.51,1.57-1,3.13-1.54,4.69Z"/><path class="cls-14" d="M107.28,638l1.75-1.1,2.81,4.58.54-1.21c1.42,1.25.3,2.46-.07,3.69l-1.06-.81-.22.42,1.3.37-1.28.93c-.51-.92-1-1.85-1.51-2.78a20.84,20.84,0,0,0-.93-2.58,9,9,0,0,0-1.3-1.56Zm4.15,4v-.13l-.13,0Z"/><path class="cls-24" d="M113.7,718.66c.07-1,.29-1.73,1.34-.62.34.36.66.75,1,1.13l0,0,.35.5,1.19,1.1a16.13,16.13,0,0,1-3,1.62,11.29,11.29,0,0,1-3,.07l-.61-.64.32-.67C112.16,720.39,114,720.59,113.7,718.66Z"/><path class="cls-21" d="M103.78,715.5l2.15-.44,1.31,3.68-.06,1.27-.36.37-.94.64,0,.79c-.15,0-.36.12-.44.06C104.17,720.94,103.16,717,103.78,715.5Z"/><path class="cls-15" d="M60,623.28q2.76,6.08,5.5,12.15c-.55-.13-1.46-.11-1.59-.42-1.45-3.44-2.79-6.92-4.1-10.42C59.67,624.23,59.93,623.72,60,623.28Z"/><path class="cls-12" d="M115.52,613.37l-1.2-.45c-.42-2.11-.71-3.91-1.17-5.66-.1-.37-.82-.58-1.25-.86h-.75l0,0,.24-1.43a2.41,2.41,0,0,0,0-.38c.37,0,.92,0,1.08.15,1.89,2.47,3.9,4.91,3.56,8.34Z"/><path class="cls-13" d="M56.47,647.18l3-2.77c0,1.24.09,2.47.14,3.7l-2.93,2.11.28.59-.35-1.52-.28,0v2C54.62,649.91,55.52,648.54,56.47,647.18Z"/><path class="cls-12" d="M98.05,582.55l1.55-3.68,3.24,3.15c-1,.77-.9,2.8-2.87,2.41C100.31,582.81,99.48,582.37,98.05,582.55Z"/><path class="cls-17" d="M109.54,642.13c.5.93,1,1.86,1.51,2.78l.57,2.73v2.25c-.81-1.12-1.66-2.22-2.41-3.38-.43-.67-.63-1.49-1-2.19C107.36,642.77,107.86,642.1,109.54,642.13Z"/><path class="cls-22" d="M110.92,721.78l.61.64v1.82a12.77,12.77,0,0,1-3.46.63c-.9-.06-1.74-.89-2.61-1.38l.87-1.12.85,0c1,1.6,1.43.43,1.93-.39Z"/><path class="cls-17" d="M56.36,651.35v-2l.28,0,.35,1.52-.28-.59,2.93-2.11c1.34,1,.27,2-.16,2.9a6.76,6.76,0,0,1-1.93,2c-.27.22-.81.12-1.23.16Z"/><path class="cls-10" d="M111.41,604.63a2.41,2.41,0,0,1,0,.38l-1.43-.9v0c-.17-.66-.35-1.32-.5-1.87l-2.14-1.39,1.49-1.62C111.58,600.41,111.23,602.64,111.41,604.63Z"/><path class="cls-13" d="M98.05,582.55c1.43-.18,2.26.26,1.92,1.88v0l-.5,1.87,0,0-1-.45L95,583.08l-.15-.13v-.77l.28-.22Z"/><path class="cls-22" d="M101.79,711.37l.3-3,.73.17.69-.11,1.45,1.11c0,.29,0,.59,0,.88l.9,1.84-.47.92h0l-1.39-1.37h-.46l-1.48,0Z"/><path class="cls-11" d="M59,615.65l.12,4.73q-1.66-3.37-3.34-6.77l.47-.27Z"/><path class="cls-17" d="M117.6,637.84c.07,2.49-1.23,4.1-3,4.14l.36-4.25,1.82,1.6Z"/><path class="cls-16" d="M66.91,638.46l-1.3,1c-2,0-.2,4-3.55,2.7l3.46-4.68,1,.07Z"/><path class="cls-14" d="M111.62,649.89v-2.25a15.31,15.31,0,0,1,2.32,3.26c.24.59-.55,1.59-.88,2.41l.06,0-.3-1Z"/><path class="cls-13" d="M90.83,584.82l2.59-1.23.21-.25,1.19-.39.15.13c.16.77.33,1.55.6,2.82l-4.74-.56Z"/><path class="cls-16" d="M95.18,587.93a19.92,19.92,0,0,1,2.91.29,1.47,1.47,0,0,1,.94,1,1.45,1.45,0,0,1-.87,1.11,2.1,2.1,0,0,1-1.55-.5A10.73,10.73,0,0,1,95.18,587.93Z"/><path class="cls-17" d="M90.83,584.82v.52c-.23.47-.46.94-.68,1.41-.51-.43-1.47-.88-1.44-1.26.06-.69.7-1.33,1.3-2.33Z"/><path class="cls-20" d="M110.4,693.06c-2-1.16-1.42-3-1.23-4.74Z"/><path class="cls-6" d="M107.73,617.86c1.73.09,3.21.48,3.21,2.66l-.15,0-3.06-2.69Z"/><path class="cls-13" d="M94.81,582.18c-1.88-.59-1.77-1.45-.21-3.09.23,1.33.36,2.1.49,2.87Z"/><path class="cls-11" d="M117.29,596.76l.33,3.24-.6.08c-.09-1.11-.17-2.23-.26-3.34Z"/><path class="cls-12" d="M99.48,586.26l.5-1.87,1.35.69C100.29,587,100.29,587,99.48,586.26Z"/><path class="cls-20" d="M113.13,703.13q-1.77-1.36,0-2.75Z"/><path class="cls-25" d="M107.18,722.41l-.85,0-.47-.56,0-.79.29,0h.71a1.64,1.64,0,0,0,.32,0l1,.24,0,0Z"/><path class="cls-12" d="M66.47,637.56l-1-.07c.14-.3.29-.59.44-.89l1.44-1.29h.21l.19.05c0,.28,0,.56-.08.84s-.21.64-.32,1a1.12,1.12,0,0,0-.45.07Z"/><path class="cls-14" d="M113.3,645.15l-.53,1.48-.45-.12.34-1.64Z"/><path class="cls-12" d="M117.32,614.62l-.95-1.29,1.56.86Z"/><path class="cls-10" d="M107.74,603.17l-.87-.92Z"/><path class="cls-11" d="M100.52,599.56h0c.12-.15.23-.31,0,0C100.8,599.32,100.66,599.44,100.52,599.56Z"/><path class="cls-2" d="M115.85,686.06v.76h-.16v-.76Z"/><path class="cls-13" d="M104.6,631.65l-.42.84-.5-.45Z"/><path class="cls-13" d="M93.42,583.59l-.44-.33.65.08Z"/><polygon class="cls-12" points="103.15 583.63 103.15 583.79 102.98 583.71 103.15 583.63"/><path class="cls-12" d="M98.45,585.79l1,.45Z"/><path class="cls-13" d="M104.65,629.67l.14.56-.36-.36Z"/><polygon class="cls-17" points="89.57 587.35 89.69 587.32 89.67 587.42 89.57 587.35"/><path class="cls-20" d="M112.34,698.14l-.09.18.06-.19Z"/><path class="cls-6" d="M107.35,617.86l.37-.5c0,.17,0,.33,0,.5h-.38Z"/><path class="cls-22" d="M116.34,719.63l-.35-.5Z"/><path class="cls-2" d="M120.29,638.72l.06-.55.29.24Z"/><path class="cls-2" d="M117.29,596.76l-.53,0c0-.17,0-.33,0-.5l.71.09A3.09,3.09,0,0,0,117.29,596.76Z"/><path class="cls-15" d="M133.27,722.32V710.64c4.21-.55,5.09.17,5.18,4.18,0,1.21,0,2.43,0,3.64C138.26,722.32,137.36,723,133.27,722.32Z"/><path class="cls-19" d="M170.13,597.6c0,1.45.08,2.9,0,4.34,0,.48-.56.92-.87,1.38-.33-.43-.93-.85-.94-1.29-.09-2.89-.09-5.79,0-8.68,0-.47.57-.91.88-1.37.34.5.9,1,1,1.51.13,1.36,0,2.74,0,4.11Z"/><path class="cls-16" d="M177,596.31v-4.37l.7-.29a6.38,6.38,0,0,1,1,2C178.87,594.75,179.17,596.19,177,596.31Z"/><path class="cls-16" d="M160.23,597.15v-5.3c2.42.24,1.79,2,1.81,3.24C162.07,596.07,162.23,597.6,160.23,597.15Z"/><path class="cls-16" d="M22.24,700.78c-1.17-1.55-1.18-7.67,0-9.33C23.68,693,23.7,699.18,22.24,700.78Z"/><path class="cls-16" d="M29.09,701V696c.75.72,1.54,1.14,1.54,1.54C30.6,698.74,31.47,700.47,29.09,701Z"/><path class="cls-11" d="M29.07,694.7v-3.26l.63-.26c.3.59.82,1.17.84,1.76a6.67,6.67,0,0,1-.66,2.09Z"/><path class="cls-16" d="M15.31,701c-1.48-1.83-1.41-8.06,0-9.51C16.4,692.89,16.48,699,15.31,701Z"/><path class="cls-19" d="M169.71,618.84l-.11-1.56.46,0,.08,1.55Z"/><path class="cls-23" d="M163.68,614.59l0,4.17C163.66,617.37,163.67,616,163.68,614.59Z"/><path class="cls-2" d="M191.12,632v-.86l.28,0c-.05.32-.09.63-.14.95Z"/><path class="cls-26" d="M83.33,653.22l-.93.69v-.81l.12-.86h2.36L81.58,649l-.77-.44-.12-.93h1.37l2.29-1.38,2.92,1.79-.29.54,1.61-.21c.15,1.17-2.33,1-1,2.48l.43,1.41,1.48,1.23.77-.35,0,0,1,.63a14.79,14.79,0,0,1,.48,2.25,23.65,23.65,0,0,1-.1,2.65L89,660.51l-.49-.62-.15.15.64.47,0,.9h0l-2.29.85-.93,1c-.61-1.27-1.31-2.52-1.81-3.84a13.89,13.89,0,0,1-.49-2.6,5.43,5.43,0,0,0,1.22-.56,15.26,15.26,0,0,0,1.46-1.44,19,19,0,0,0-1.66-1.33A3.3,3.3,0,0,0,83.33,653.22Zm3.06,7-.33-.28L85,661.12l.43.35Z"/><path class="cls-27" d="M90.26,681.62c-1.15-3.64,1.73-7.63,6-8.25.6-.08,1.21,0,1.82-.06l2.32.49,1.37-.08a.48.48,0,0,0,.38.18,3.4,3.4,0,0,0,.12.34l1.59,2.6-2.09,1.46-1.86.5-.88.42-1.44.36a.47.47,0,0,0-.36.13l-.47,0-2.64.83.08-.14h0l-.11.13.31.62-.76-.52-.52.11-1.78.84Z"/><path class="cls-28" d="M89.49,653.51,88,652.28c-.14-.47-.29-.94-.43-1.41-1.32-1.52,1.16-1.31,1-2.48L87,648.6l.29-.54-2.92-1.79v-.91h0l.45-.91,0,0L85,642l1-.36-.71-.17c-.11-1.19-.19-2.39-.36-3.57,0-.22-.43-.38-.66-.57l1-.79c.93,1,1.91,2,2.77,3.09.34.43.7,1.42.55,1.55-1.94,1.61,0,2.81.42,4.11a39.21,39.21,0,0,0,1.73,4.21c-2.14,1-1.91,2.21-.45,3.61l0,0Z"/><path class="cls-27" d="M103.51,708.47l-.69.11a12.1,12.1,0,0,1-.71-1.9c-.19-1-.25-2.07-.39-3.35-1.45-.43-4.74-6.34-4.66-9.1,1.34-.59,2.24-.36,2.5,1.25a4.35,4.35,0,0,0,.58,1.16l.87,1.93c.12.14.25.27.38.41l1.35,1.87.41.44a.57.57,0,0,0,.33.11l.07-.07c0,.81-.88,1.78.46,2.31l1.15,2.5c0,.07-.06.16,0,.22a3.47,3.47,0,0,0,.21.37l0,.83Z"/><path class="cls-25" d="M100.14,696.64a4.35,4.35,0,0,1-.58-1.16c-.26-1.61-1.16-1.84-2.5-1.25-.54-1-1.08-2-1.63-3,1.24-.16,2.2,1.87,3.6.46.88.8,1.55,1.66,3,1.69a2.26,2.26,0,0,1,2.32,2.5c0,.54.71,1.12,1.1,1.69l-.06.54-.54,1-1.29,0h0l-.45-.43h-.51l-.45.43-.82,0c-.13-.14-.26-.27-.38-.41l.82-.65Z"/><path class="cls-29" d="M107.24,718.74l-1.31-3.68,4-1.71a.46.46,0,0,0,0,.33,4.67,4.67,0,0,0-.88.7c-.45.58-1.31,1.47-1.14,1.78a1.58,1.58,0,0,0,2.5.72l3.21,1.78c.29,1.93-1.54,1.73-2.45,2.45a1,1,0,0,1-.3-.32l-1.41-1.66-.22-.79-.93.37Z"/><path class="cls-29" d="M100.37,673.8l-2.32-.49,0-.9,0-.91c0-.57.09-1.13.14-1.7h0c2-.92,1-2.16.35-3.36h0c.89-.06,2-.47,2.6-.07s.58,1.66.44,2.47C101.35,670.52,100.8,672.15,100.37,673.8Z"/><path class="cls-25" d="M97.17,683.44l1.25.76.63,6.54-1.49-.56-.75-.7-1.1-.94,1.3-1.66-2.11-1.2c.16-1.07.31-2.13.47-3.2Z"/><path class="cls-29" d="M105,685.7c.57,1.26,1.21,2.49,1.68,3.78.57,1.62,1,3.3,1.68,5.55-.92-.44-1.68-.56-1.79-.89-.88-2.59-1.63-5.23-2.43-7.85Z"/><path class="cls-24" d="M94.9,685.68l2.11,1.2-1.3,1.66,1.1.94,0-.08-.62.52.53.38.89-.12,1.49.56c0,.31,0,.62,0,.92-1.4,1.41-2.36-.62-3.6-.46-.79-2.13-1.57-4.27-2.36-6.4l1.76.36Z"/><path class="cls-30" d="M94.83,663.26l.76,1.37c0,.6.11,1.21.17,1.82a15.11,15.11,0,0,1-1.43-1.34c-.49-.58-.69-1.9-1.73-.49h0c-2.06-.38-2.17-1.4-.92-2.71l-2.77-.51h0C91.36,660.56,93.27,661.35,94.83,663.26Z"/><path class="cls-26" d="M101.74,678.3l2.09-1.46-1.59-2.6c2.27.2,3.56,1.48,4.22,4.12l-4.19.39Z"/><path class="cls-25" d="M94.83,663.26c-1.56-1.91-3.47-2.7-5.9-1.85l0-.9h0l2.7-1.87.47,1,.35-1.87C94.52,659.19,94.19,661.45,94.83,663.26Z"/><path class="cls-28" d="M97.56,655.41c.54.44,1.45.8,1.56,1.34a46.39,46.39,0,0,1,.57,5.24c-.56-.46-1.19-.76-1.48-1.27a15.17,15.17,0,0,1-1-2.51l-.47-.53,0,0-.12-.86a2.54,2.54,0,0,0,.1-.37Z"/><path class="cls-30" d="M93.27,645.33c-.76-2-1.43-3.71-2-5.45a12.67,12.67,0,0,1-.36-1.76C93.32,639.28,94.83,643.46,93.27,645.33Z"/><path class="cls-22" d="M97.17,683.44l-1.8-1-1.25-.9a1.3,1.3,0,0,0,.2-.41l-.3-.62h.07l2.64-.83.15.39.32-.41a.47.47,0,0,1,.36-.13l1.47.57c1.06.61,1.33,1.26-.21,1.28S97,682.18,97.17,683.44Z"/><path class="cls-22" d="M85.27,636.54l-1,.79c-1.64.68-3.42,1.22-3.55,3.45l-1.33-.46,0-1.34,2.75-2.23,3.13-.93C85.26,636.06,85.26,636.3,85.27,636.54Z"/><path class="cls-24" d="M90.29,653.11c-1.46-1.4-1.69-2.65.45-3.61l1.74,2.37c-.31.48-.75,1.18-1.2,1.87Z"/><path class="cls-29" d="M103.62,684.74c-.41-1.58-.82-3.17-1.24-4.75,1.75-.44,2.45.92,2.63,4.91Z"/><path class="cls-28" d="M107.79,706.77c.5.3,1.31.52,1.44.94a23.33,23.33,0,0,1,.71,3.92c0,.16-.48.58-.55.54-.35-.2-.82-.45-.92-.79-.48-1.51-.84-3-1.24-4.58Z"/><path class="cls-28" d="M105.16,706.14l-1.15-2.5c1.39,0,2.91-1.41,4.13.39Z"/><path class="cls-25" d="M105.16,706.14l3-2.11c-.12.91-.24,1.82-.35,2.74l-.56,0-1.9-.07a3.47,3.47,0,0,1-.21-.37C105.1,706.3,105.15,706.21,105.16,706.14Z"/><path class="cls-30" d="M96.75,648.66,96,650.42a.47.47,0,0,0-.25.21c-1.69-1-1.74-2.33-.83-3.87l1.37.92h0l.52.36h.09c0,.2-.06.39-.1.59Z"/><path class="cls-22" d="M97,654.34l-.9-2.7-1,.54,2.76-.68-.54,2.7Z"/><path class="cls-21" d="M95.76,666.45c-.06-.61-.12-1.22-.17-1.82l3,1.81h0l-2.18,1.4Z"/><path class="cls-30" d="M103.61,699l1.29,0,.79.93c-.24.42-.48.83-.71,1.25l-1.43.11-.07.07C103.53,700.59,103.57,699.79,103.61,699Z"/><path class="cls-22" d="M96.26,647.68l-1.37-.92.6-1.31,1.7,1.25-.12.55-.16,0a1.17,1.17,0,0,1-.3-.19.54.54,0,0,0-.28,0Z"/><path class="cls-20" d="M105.9,712.3l-.9-1.84c1.32-.11,1.92.51,1.84,1.82l0,0Z"/><path class="cls-20" d="M109.86,702.57l.54,1.88-.58.19-.66-1.89Z"/><path class="cls-20" d="M103.51,708.47l1.87-.91-.42,2Z"/><path class="cls-20" d="M101.74,678.3l.53.45-2.39,0Z"/><path class="cls-20" d="M99,680.15l-1.47-.57,1.44-.36Z"/><path class="cls-22" d="M96.67,656.8l.12.86L95.22,657l.31-.62Z"/><path class="cls-22" d="M96.71,660.22l-.72-.94.35-.28.76.92Z"/><path class="cls-28" d="M105,701.22c.23-.42.47-.83.71-1.25l.67.29.46,0Z"/><path class="cls-20" d="M103.62,684.74l1.39.16,0,.8-.86.59Z"/><path class="cls-20" d="M105.44,698.08l.06-.54h.94Z"/><path class="cls-20" d="M100.42,684.28l.31.71-.5.13-.14-.74Z"/><path class="cls-20" d="M110.43,706.63c.07,0,.15,0,.18.09s0,.13,0,.19l-.3-.13Z"/><path class="cls-20" d="M111.35,709.84c.06,0,.15,0,.18.09s0,.13,0,.19l-.29-.13Z"/><path class="cls-22" d="M97.56,655.41l-.79,1Z"/><path class="cls-20" d="M111.17,708.27l-.12.12-.12-.24c.06,0,.12-.06.17,0S111.15,708.21,111.17,708.27Z"/><path class="cls-21" d="M97.19,648.7,97,649l-.28-.35,0,0Z"/><path class="cls-22" d="M96.77,657.68l.47.53Z"/><path class="cls-25" d="M95.72,650.63a.47.47,0,0,1,.25-.21l.3.2Z"/><path class="cls-25" d="M102.12,673.9a.48.48,0,0,1-.38-.18l.22-.29Z"/><path class="cls-20" d="M106.82,700.21l-.46,0Z"/><path class="cls-25" d="M97.07,647.25l.12-.55Z"/><path class="cls-25" d="M96.26,647.68c0-.2,0-.41.07-.61l.28,0a1.17,1.17,0,0,0,.3.19c0,.16-.09.32-.14.48l-.51,0Z"/><path class="cls-22" d="M96.26,647.67l.51,0c0,.1,0,.21,0,.32Z"/><path class="cls-20" d="M103.6,711.83h0Z"/><polygon class="cls-20" points="106.84 712.28 106.92 712.4 106.8 712.32 106.84 712.28"/><polygon class="cls-22" points="105.43 713.22 105.53 713.3 105.44 713.21 105.43 713.22"/><path class="cls-25" d="M96.88,648l.5,0c0,.12-.09.24-.13.36Z"/><path class="cls-22" d="M97.19,648.7l-.42-.09c0-.2.07-.39.1-.59h0l.37.33C97.23,648.47,97.22,648.58,97.19,648.7Z"/><path class="cls-6" d="M101.26,619.7,98.52,622l-4.62-.93L95,619.73c.36-1.88-1-1.24-1.92-1.34l-.81-3c-3.41,1.52-5,4.88-3.42,7l3.28-2.65c-.61,1.27-1.22,2.53-1.84,3.79l1.46,1.67L91.67,628v0l-1,.89c-.46,0-1.12.32-1.37.11a25.39,25.39,0,0,0-11.6-5c-1.78-.36-3.33-1.86-5.11-2.23-1.21-.26-2.64.56-4,.89l.76,1.11c-.05.12-.08.24-.06.16,0,.09,0,0,0-.13.51,0,1.38-.17,1.48,0,.43.89,1.15,2.12.84,2.81a26.09,26.09,0,0,1-2.95,4.25Q66,627.37,63.29,624c-.14-.17-.36-.5-.29-.59a61.38,61.38,0,0,1,4.2-5.53c.63-.68,1.87-.8,2.82-1.18l1.92-.62h3c1.49,2.9,5.21,1.25,7.13,2.94l5.84-7.48c0-.46.24-1,0-1.37a5.15,5.15,0,0,0-4.57-2.3l-.83-.07-.9-1.36,3-1-2.2-1c0-.68,0-1.37,0-2.05h1l.06,0,1.32,0c.74,2.44,1.48,4.91,4.06,6.11,1,.45,2,.69,3,1.21s1.94,1.45,3,2.1c1.84,1.16,3.73,2.25,5.61,3.37l.52.87.46,2.76Z"/><path class="cls-13" d="M79.37,639l0,1.34-1.37.5-1.83,0c-1.93-.81-3.31.26-4.67,1.36l-1.29-1.27c.26-.14.7-.25.73-.42.26-1.83,1.61-2.8,2.91-3.8.9.07,1.94.47,2.67.16C78.92,635.78,79.24,637.17,79.37,639Z"/><path class="cls-17" d="M70.19,640.89l1.29,1.27c.44.89.89,1.77,1.26,2.5a6.43,6.43,0,0,0-2,1.11,15.28,15.28,0,0,0-1.57,2.8l-2.31.39-1.57-1.89a.88.88,0,0,0,.26-.34h0l.78-1.13,1.49-.9c.86.53,1.64.81,1.33-.71a18.7,18.7,0,0,0-.77-2.37c0-1,0-2.08-.07-3.12l.93-.5Z"/><path class="cls-17" d="M79.37,639c-.13-1.81-.45-3.2-2.87-2.15-.73.31-1.77-.09-2.67-.16-.64-1-3.1-.89-2-2.77.28-.48,2.14-.06,3.27,0a7.38,7.38,0,0,1,1.49.42l.89,0,.51.88h.37l1.33-1.4,2.42,2.89Z"/><path class="cls-9" d="M94.91,631.12l-1,1.08-3.42-1.84,1-1.51c.09-.31.17-.62.26-.92v0l.93-1.67,1.82,1.37,1.91-2.86,1.94-1v1.42l-1.08,2.77Z"/><path class="cls-10" d="M99.52,623.71c1.42-1.16,1.87-.07,2.06,1a7,7,0,0,1-.28,2.19c-.56.56-1.12,1.1-1.67,1.66s-1.07,1.12-1.6,1.68c.52-1.4,1-2.79,1.57-4.19-.07-.6-.13-1.21-.19-1.81Zm1,1.79h.16v-.66h-.16Z"/><path class="cls-10" d="M94.91,631.12l2.28-3.18.11,2.32a4.47,4.47,0,0,1-.4,1.25,11.15,11.15,0,0,1-1.26,1.41Z"/><path class="cls-11" d="M110.76,651.4c1.79,2.17-.27,3.44-.67,5.58C108.65,654.53,108.82,652.93,110.76,651.4Z"/><path class="cls-23" d="M76.25,631.38l-1.06-2.56.47-.57c.73.4,1.73.65,2.07,1.27.22.39-.54,1.33-.86,2Z"/><path class="cls-11" d="M97.3,630.26l-.11-2.32,1.08-2.77h.64l.69.89L98,630.25Z"/><path class="cls-11" d="M69.22,638l-.93.5,0,0V638l-.92-.45a3,3,0,0,1,0-.42c.11-.32.22-.64.32-1Z"/><path class="cls-11" d="M77.88,632l.49,1.13-.38.23-.71-1.07Z"/><path class="cls-23" d="M91.68,627.93c-.09.3-.17.61-.26.92l-.7,0Z"/><path class="cls-3" d="M112.82,652.26l.3,1Z"/><path class="cls-11" d="M77.49,634.37l-.89,0Z"/><path class="cls-11" d="M67.8,635.35l-.19-.05H67.4l0-.17A1.12,1.12,0,0,1,67.8,635.35Z"/><path class="cls-11" d="M78.37,635.26h0Z"/><path class="cls-14" d="M107.31,638l-.3-.08s.11-.06.13,0a.79.79,0,0,1,.14.17Z"/><path class="cls-17" d="M101.24,604.56l-.36,1.81-.45.89c.18.31.36.62.53.93,0,.19,0,.38,0,.57l-.55.47a1.91,1.91,0,0,1,.11.41c-.27-.25-.76-.49-.78-.75-.11-1.79-1.16-1.63-2.39-1.28a10.47,10.47,0,0,1-1.58.18c-1.1-.12-2.52.42-2.74-1.4l.35-.38-.16-.11-.15.52c-1.13.13-1.93.08-1.64-1.51a11.17,11.17,0,0,0-.46-3.18h4.29l.32.5.3-.51c.91,0,1.82.07,2.72.18s2.1.17,1.6,1.76C100.16,603.84,100.88,604.25,101.24,604.56Z"/><path class="cls-3" d="M107.35,617.86h.38l3.06,2.69.09,4.18-1.32,1.32c-1,.79-1.66.7-2.67-.27s-2.47-1.31-3.74-1.93l.48-3.23,1-.89,1.34-1.39Z"/><path class="cls-30" d="M71.94,616l-1.92.62-3.75-3.53.94-2,5.26,1.31,0,.88,0,1.49Zm-1.19-3.59v-.21l-.31.12s.08.14.13.15S70.69,612.46,70.75,612.44Z"/><path class="cls-28" d="M72.47,612.38l-5.26-1.31,0,0c1.69-.69.89-2.13,1-3.29l2-1L71.87,609l1.39-.68,1.51,3.1Z"/><path class="cls-14" d="M84.8,602a.23.23,0,0,1,0,.36h-1.3l-.06,0-.45-1.44v0l-.46-1.83-2.16-3.43c3.77-.21,4.56.52,4.4,3.93,0,.6,0,1.2,0,1.8l-.34.22Z"/><path class="cls-12" d="M83.36,607.82a5.15,5.15,0,0,1,4.57,2.3c.2.32,0,.91,0,1.37a7,7,0,0,0-1.69-.44C84,611.07,83.31,609.77,83.36,607.82Z"/><path class="cls-23" d="M95.79,607.79a10.47,10.47,0,0,0,1.58-.18c1.23-.35,2.28-.51,2.39,1.28,0,.26.51.5.78.75.06.55.11,1.1.16,1.64l-.48.31Z"/><path class="cls-22" d="M73.26,608.27l-1.39.68-1.69-2.24,3.23-1.2Z"/><path class="cls-8" d="M82.46,604.34l2.2,1-3,1-.49.07-2.09-1.24,2.56-.63.85-.22Z"/><path class="cls-17" d="M81.7,600.9c-1.64-.58-2.14-1.84-2.22-3.87l3.11,3.41.34.46v0Z"/><path class="cls-16" d="M102.68,613l2.32.8.45,1.75h0Z"/><path class="cls-16" d="M106,618.34l-1.34,1.39-.77-2.38.46-.31Z"/><path class="cls-16" d="M101.26,619.7l.11-.93c1.67-.45,1.93.49,1.78,1.82Z"/><path class="cls-16" d="M100.91,616l-.52-.87.87-1.13.51.3Z"/><path class="cls-28" d="M72.48,614.75l0-1.49,2.23-1.37Z"/><path class="cls-26" d="M74.67,611.89l-2.23,1.37,0-.88,2.3-1C74.74,611.54,74.7,611.72,74.67,611.89Z"/><path class="cls-8" d="M81.7,600.9l1.24,0,.45,1.44h-1Z"/><path class="cls-16" d="M81.14,606.46l.49-.07.9,1.36C80.85,608.63,81.29,607.23,81.14,606.46Z"/><path class="cls-16" d="M103.26,616.44l-.45,1.13-.36-.15.47-1.12Z"/><path class="cls-8" d="M82.93,600.9l-.34-.46-.12-1.37Z"/><path class="cls-16" d="M105.45,615.56l.27,1-.38,0,.09-1Z"/><path class="cls-12" d="M95.9,601.72l-.3.51-.32-.5Z"/><path class="cls-23" d="M101,608.19c-.17-.31-.35-.62-.53-.93C100.61,607.57,100.79,607.88,101,608.19Z"/><path class="cls-6" d="M82.46,604.37l-.85.22Z"/><path class="cls-8" d="M83.45,602.31h1.3l0,0Z"/><path class="cls-6" d="M84.8,602l-.4-.36.34-.22a2.72,2.72,0,0,1,.11.38A.46.46,0,0,1,84.8,602Z"/><path class="cls-23" d="M100.43,609.23l.55-.47Z"/><path class="cls-17" d="M109.24,611.92c.11.17.22.33.32.5C109.46,612.25,109.35,612.09,109.24,611.92Z"/><path class="cls-28" d="M95.76,666.45l.64,1.38.18,1,.16.84a.45.45,0,0,0-.09.39l-1.2.69-.59-.15h-.31l-1.49,1.84-2.23-1.79-.5-1.8-2.13-3,.74-1.22,1.24.73.19-.51-1.43-.22.57-1.56-.72-.37c-.54,1-1.09,2-1.64,3h-.56l0-3.41,2.29-.85,2.77.51c-1.25,1.31-1.14,2.33.92,2.71l.38.11-.38-.11c1-1.41,1.24-.09,1.73.49A15.11,15.11,0,0,0,95.76,666.45Z"/><path class="cls-9" d="M69.15,648.57a15.28,15.28,0,0,1,1.57-2.8,6.43,6.43,0,0,1,2-1.11c-.37-.73-.82-1.61-1.26-2.5,1.36-1.1,2.74-2.17,4.67-1.36L74.68,643l.9.58c-.61,1.64-1.21,3.29-1.82,4.93l-2.25,1.07-2.22-.12Z"/><path class="cls-27" d="M86.59,665.66h.56l1,.18,2.13,3c-.44.86-.9,1.7-1.32,2.57-.32.66-.6,1.35-.89,2h-.73l-3.34-8.78,1.68-.95Z"/><path class="cls-29" d="M84.34,680.23a9.84,9.84,0,0,0-1-1.68c-.92-1.11-2.09-2.09-1.3-3.78l1.31-1.43a12.38,12.38,0,0,1,1.28,1.81c.51,1.06.88,2.18,1.36,3.4l.81-.74,1.61,2.24-.2.67c-.84-.14-1.67-.3-2.51-.42a13.11,13.11,0,0,0-1.4-.06Z"/><path class="cls-28" d="M78,640.82l1.37-.5,1.33.46.54.51.83.35c.53.48,1.08.93,1.59,1.43s.79.91,1.18,1.36l0,0-.45.91h0c-1.67,0-3.14-2.13-5-.42l-1.86-2.15C77.69,642.13,77.84,641.48,78,640.82Z"/><path class="cls-22" d="M83.4,673.34l-1.31,1.43-1-1h0l-1.38-1.39.06-1.38,2.75-.28c.37.52.88,1.18,1.3,1.89C83.94,672.74,83.57,673.1,83.4,673.34Z"/><path class="cls-29" d="M90.83,670.63l2.23,1.79-3.15,3.35-.77-.37c.23-.82.4-1.66.69-2.46S90.49,671.4,90.83,670.63Z"/><path class="cls-30" d="M82.52,652.24l-.12.86-1.43.51c-.09-1.5-.18-2.81-.26-4.13l.87-.45,3.3,3.22H82.52l-.08-.09Z"/><path class="cls-28" d="M83.33,653.22a3.3,3.3,0,0,1,1.08.28,19,19,0,0,1,1.66,1.33,15.26,15.26,0,0,1-1.46,1.44,5.43,5.43,0,0,1-1.22.56Z"/><path class="cls-28" d="M81.17,647.65h-.48c-1.52.11-1.25-1-1.27-1.88l4.94.51v0l-2.29,1.38c0-.25,0-.49,0-.74Z"/><path class="cls-24" d="M74.7,656.83q1,2.91,2.08,5.82l-.88.29q-1-3.08-1.93-6.14Z"/><path class="cls-12" d="M78,640.82c-.14.66-.29,1.31-.43,2l-2,.79-.9-.58,1.47-2.2Z"/><path class="cls-26" d="M84.36,646.29l-4.94-.51v-.84c1.81-1.71,3.28.43,5,.42Z"/><path class="cls-28" d="M74.7,656.83l-.73,0-2.13-5.54.89-.62Z"/><path class="cls-28" d="M94.12,681.58l1.25.9c-.16,1.07-.31,2.13-.47,3.2,0-.18,0-.35-.07-.52L93.51,683l-.45-.93,0-.5v0Z"/><path class="cls-16" d="M72.73,650.64l-.89.62a1.77,1.77,0,0,1-.38-.15c0-.51,0-1,.05-1.53l2.25-1.07Z"/><path class="cls-30" d="M86.59,665.66l-.86-2a3.28,3.28,0,0,0,0-.43l.93-1Z"/><path class="cls-21" d="M93.51,683l1.32,2.2-1.76-.36V684l.48-1.08Z"/><path class="cls-26" d="M90.26,681.62l1,0,.75.27.43.46C91.42,683,90.39,683.7,90.26,681.62Z"/><path class="cls-28" d="M81.58,649l-.87.45-1.22-.24v-.39l1.33-.26Z"/><path class="cls-28" d="M79.32,670.54l-.77-.34,1.23-.91.27.36-.75.92Z"/><path class="cls-21" d="M95.45,670.74l1.2-.69C97.06,671.69,96.05,670.85,95.45,670.74Z"/><path class="cls-21" d="M96.74,669.66c-.06-.28-.11-.56-.16-.84l1.65,1h0Z"/><path class="cls-22" d="M81.14,673.78l-.34,1.11-.47-.31.82-.79Z"/><path class="cls-21" d="M98.09,671.5l0,.91-.85-.52Z"/><path class="cls-30" d="M79.83,671l-.06,1.38-.45-1.86,0,0Z"/><path class="cls-28" d="M93.54,682.94,93.06,684Z"/><path class="cls-22" d="M101.22,707l-.06.18A1.92,1.92,0,0,1,101,707l.13-.12Z"/><path class="cls-26" d="M93,681.53l0,.5-.62.3c-.14-.15-.28-.31-.43-.46Z"/><path class="cls-21" d="M94.55,670.58h0Z"/><path class="cls-24" d="M64.36,626.33l1.82,6.14-.85.27-2.08-6.06Z"/><path class="cls-30" d="M68.23,607.74c-.1,1.16.7,2.6-1,3.29C65.82,609.4,66.53,608.42,68.23,607.74Z"/><path class="cls-15" d="M68.36,641.61a18.7,18.7,0,0,1,.77,2.37c.31,1.52-.47,1.24-1.33.71C68,643.67,68.17,642.64,68.36,641.61Z"/><path class="cls-16" d="M66.31,645.59l-.78,1.13c-.46-.6-.92-1.19-1.37-1.79l0,0,.44,0Z"/><path class="cls-16" d="M69.15,648.57l.14.89-2.45-.5Z"/><path class="cls-16" d="M64.16,644.93l-.75-1.27.83.31c0,.31,0,.61,0,.92Z"/><path class="cls-15" d="M64.2,644.89c0-.31,0-.61,0-.92l1.74.17-1.34.77Z"/><path class="cls-11" d="M66.47,637.56l.48-.34c0,.12,0,.25,0,.37l-.06.87Z"/><path class="cls-16" d="M65.53,646.73a.88.88,0,0,1-.26.34A.38.38,0,0,1,65.53,646.73Z"/><path class="cls-16" d="M67,637.59c0-.12,0-.25,0-.37a1.12,1.12,0,0,1,.45-.07,3,3,0,0,0,0,.42Z"/><path class="cls-17" d="M68.31,638v.5a2,2,0,0,1-.12-.34S68.27,638.08,68.31,638Z"/><path class="cls-6" d="M109.56,626.05l1.32-1.32Z"/><path class="cls-26" d="M110.49,716.88a1.58,1.58,0,0,1-2.5-.72c-.17-.31.69-1.2,1.14-1.78a4.67,4.67,0,0,1,.88-.7Z"/><path class="cls-17" d="M111.9,610.53c.7,1,.87,1.83-.48,2.39.12-1.27-2.26-2.37-.25-3.76Z"/><path class="cls-10" d="M111.9,610.53l-.73-1.37c-.34-.66-.68-1.31-1-2l1.31,0Z"/><path class="cls-3" d="M110,604.11l1.43.9-.24,1.43-.89.2-.25-1.16Z"/><path class="cls-17" d="M110.29,606.64l.89-.2,0,0,.26.64.06.2-1.31,0-.15-.56.14,0Z"/><path class="cls-10" d="M110.29,606.64h-.14l-.14,0,0-1.15Z"/><path class="cls-16" d="M111.39,613.72c-.15.31-.3.62-.46.93C111.09,614.34,111.24,614,111.39,613.72Z"/><path class="cls-3" d="M114.12,616l1-.49Z"/><path class="cls-15" d="M98.91,625.17h-.64v-1.42l-1.94,1-4.59.37-1.46-1.67,1.84-3.79.95-1.31c.89.1,2.28-.54,1.92,1.34l-1.59.33.5,1,4.62.93,1,1.7c0,.18-.07.36-.11.54Z"/><path class="cls-3" d="M111.41,607l-.26-.64h.75Z"/><path class="cls-3" d="M112.33,644l-1.3-.37.22-.42,1.06.81Z"/><polygon class="cls-3" points="111.43 641.99 111.31 641.91 111.44 641.86 111.43 641.99"/><path class="cls-6" d="M111,720.79a1,1,0,0,0,.3.32l-.33.67-1.81.24a.68.68,0,0,0,0-.4c0-.06.12-.13.12-.18a1.64,1.64,0,0,0-.1-.38h0l.34-.48Z"/><path class="cls-26" d="M111,720.79l-1.48-.22-.34.48h0l-.8-.34-1.17-.71.06-1.27,1.15,0,1.15.42Z"/><path class="cls-27" d="M107.18,720l1.17.71c0,.19-.08.38-.11.57l-1-.24-.38-.67Z"/><path class="cls-30" d="M106.82,720.38l.38.67a1.64,1.64,0,0,1-.32,0h-.71l-.29,0Z"/><path class="cls-13" d="M109.13,721.62a.68.68,0,0,1,0,.4c-.5.82-.93,2-1.93.39l1-1.17Z"/><path class="cls-22" d="M109.13,721.62l-.91-.38,0,0c0-.19.07-.38.11-.57l.8.34a1.64,1.64,0,0,1,.1.38S109.17,721.56,109.13,721.62Z"/><path class="cls-27" d="M106.17,721h0Z"/><path class="cls-30" d="M86.39,660.18l-1,1.29-.43-.35,1.07-1.22Z"/><path class="cls-24" d="M87.58,650.87c.14.47.29.94.43,1.41C87.87,651.81,87.72,651.34,87.58,650.87Z"/><path class="cls-14" d="M81.17,647.65l.88-.74c0,.25,0,.49,0,.74Z"/><path class="cls-30" d="M89,660.51l-.64-.47.15-.15.49.62Z"/><path class="cls-24" d="M89.49,653.51l.77-.35Z"/><path class="cls-22" d="M93,681.53l-1,.34-.75-.27,1.78-.84c0,.12,0,.24,0,.37a.82.82,0,0,0,0,.44Z"/><path class="cls-14" d="M93,681.57a.82.82,0,0,1,0-.44l.5-.48.76.52a1.3,1.3,0,0,1-.2.41Z"/><path class="cls-18" d="M97.2,679.71l-.32.41-.15-.39Z"/><path class="cls-25" d="M93.56,680.65l-.5.48c0-.13,0-.25,0-.37Z"/><path class="cls-14" d="M94.09,680.56H94a.64.64,0,0,1,.1-.13h0Z"/><path class="cls-26" d="M81.22,641.29l-.54-.51c.13-2.23,1.91-2.77,3.55-3.45.23.19.63.35.66.57.17,1.18.25,2.38.36,3.57l.71.17L85,642l-.15,2.43c-.39-.45-.76-.94-1.18-1.36s-1.06-1-1.59-1.43Z"/><path class="cls-26" d="M84.35,645.37l.45-.91Z"/><path class="cls-28" d="M103.61,699c0,.8-.08,1.6-.13,2.41a.57.57,0,0,1-.33-.11l-.41-.44L101.39,699l.82,0,.45-.43h.51l.45.43Z"/><path class="cls-30" d="M100.14,696.64l1.69,1.28-.82.65Z"/><path class="cls-30" d="M102.74,700.85l.41.44Z"/><path class="cls-30" d="M103.62,699l-.45-.43Z"/><path class="cls-30" d="M102.66,698.57l-.45.43Z"/><path class="cls-22" d="M109.54,719.13l-1.15-.42.93-.37Z"/><path class="cls-20" d="M98.23,669.79l-1.65-1-.18-1,2.18-1.4C99.18,667.63,100.26,668.87,98.23,669.79Z"/><path class="cls-26" d="M97.56,690.18l-.89.12.09-.9,0,.08Z"/><path class="cls-25" d="M96.76,689.4l-.09.9-.53-.38Z"/><path class="cls-18" d="M96.61,647l-.28,0A.54.54,0,0,1,96.61,647Z"/><path class="cls-11" d="M93.07,618.39l-.95,1.31-3.28,2.65c-1.53-2.11,0-5.47,3.42-7Z"/><path class="cls-23" d="M91.74,625.16l4.59-.37-1.91,2.86-1.82-1.37L91.67,628Z"/><path class="cls-11" d="M93.9,621.08l-.5-1,1.59-.33Z"/><path class="cls-19" d="M69.39,623.68c0,.11,0,.22,0,.13,0,.08,0,0,.06-.16Z"/><path class="cls-13" d="M98.91,625.17l.5-.92c.06.6.12,1.21.19,1.81Z"/><path class="cls-13" d="M100.54,625.5v-.67h.16v.66Z"/><path class="cls-15" d="M93.09,606.42l.15-.52.16.11-.35.38Z"/><path class="cls-28" d="M70.75,612.44c-.06,0-.14.08-.19.06s-.09-.1-.13-.15l.31-.12Z"/><path class="cls-30" d="M88.2,665.84l-1-.18c.55-1,1.1-2,1.64-3l.72.37-.57,1.56h0Z"/><path class="cls-30" d="M88.94,664.62l1.43.22-.19.51-1.24-.73Z"/><path class="cls-30" d="M92.6,664.62l.38.11-.38-.11Z"/><path class="cls-13" d="M81.22,641.29l.83.35Z"/><polygon class="cls-26" points="82.52 652.24 82.44 652.16 82.52 652.25 82.52 652.24"/><path class="cls-22" d="M109.13,721.05l.34-.48Z"/></svg>