<svg id="Layer_1" data-name="Layer 1" xmlns="http://www.w3.org/2000/svg" viewBox="0 0 211.57 815.1"><defs><style>.cls-1{fill:#fff;}.cls-2{fill:#c72721;}.cls-3{fill:#f9efc3;}.cls-4{fill:#f9edc1;}.cls-5{fill:#f6e4ba;}.cls-6{fill:#cc3a30;}.cls-7{fill:#d45a4a;}.cls-8{fill:#f7e7bd;}.cls-9{fill:#f4dbb2;}.cls-10{fill:#f3d7b0;}.cls-11{fill:#ebb896;}.cls-12{fill:#d04b3e;}.cls-13{fill:#edc19d;}.cls-14{fill:#f1cea8;}.cls-15{fill:#e8ad8e;}.cls-16{fill:#ca322a;}.cls-17{fill:#de846c;}.cls-18{fill:#6e482c;}.cls-19{fill:#c82c24;}.cls-20{fill:#c93027;}.cls-21{fill:#6f4a2e;}.cls-22{fill:#764a2f;}.cls-23{fill:#d86b57;}.cls-24{fill:#795639;}.cls-25{fill:#a18764;}.cls-26{fill:#856647;}.cls-27{fill:#baa580;}.cls-28{fill:#af9874;}.cls-29{fill:#cab992;}</style></defs><path d="M0,650.08c.93-4.72,1.72-9.47,2.81-14.15,6.54-27.94,22.06-49.62,46-65.27,2.79-1.83,4-3.56,3.91-7-.3-11.16,0-22.34-.17-33.5-.07-4.28.91-6.29,5.85-6.16,11.06.3,16.16-6.49,14.26-17.32s-3.29-22-5-33.82h-6.8c-7.12,0-7.18,0-7.51-6.87-.77-16.47-1.47-33-2.23-49.44q-3.85-84.15-7.73-168.3Q40.18,178,37,107.86,34.74,57.92,32.37,8C32,0,31.89,0,40,0H177.16c0,2.19.07,4,0,5.7q-3.87,84.9-7.77,169.8Q166.7,234.42,164,293.36q-3.81,83.16-7.68,166.3c0,.5-.06,1-.08,1.5-.56,10.82-.57,10.71-11.49,11.81a5.22,5.22,0,0,0-3.51,3.43c-1.86,11-3.39,22-5,33.08-.92,6.36,6.07,14.33,12.82,14.58,2.44.09,4.89,0,7.95,0,0,9.4,0,18.19,0,27,0,5.17-1.66,11.09.35,15.28s7.61,6.34,11.63,9.42c61.91,47.49,50.8,144.84-20.44,178-4.13,1.92-5.64,4.16-5.74,8.53-.23,10.15-1.06,20.29-1.42,30.44-.26,7.6-4.53,12.62-10.73,15.65-5.89,2.88-12.39,4.51-18.63,6.69h-15c-5.84-1.81-12-3-17.45-5.58C72,806,67.88,800,68,790.87c.15-10-1.16-19.92-1.53-29.9-.13-3.58-1.83-5-4.86-6.42C30.82,740,11,716.37,2.85,683.18c-1.14-4.66-1.91-9.4-2.85-14.1ZM127.6,683l4.17-5.31c6.38-8.07,7.54-17.16,5-26.84a33.4,33.4,0,0,0-29.43-24.67c-14.14-1.1-27.19,6.36-32.91,18.82-5.61,12.19-2.58,27.68,7.41,37.19a30.08,30.08,0,0,0,4.93,3.17L97,689.52a10.53,10.53,0,0,0,2.85,1.56C110.4,693,119.63,690.15,127.6,683ZM36.29,4.18c0,2.71-.08,4.82,0,6.93Q38.64,62.31,41,113.49q2.67,58.19,5.3,116.37Q50.18,314,54.07,398.17c1,21.3,2.26,42.59,3.45,63.88.17,3,0,5.85,4.73,5.83,28.52-.18,57-.13,85.55-.05,3,0,4-1,4.14-4,.26-9.49.78-19,1.23-28.46q2.31-49.92,4.65-99.83c1.15-25,2.22-49.93,3.37-74.89q2.3-49.92,4.64-99.84c.81-17.47,1.49-35,2.31-52.42,1.52-32.28,3.13-64.55,4.61-96.83.33-7-.13-7.36-7.16-7.37H36.29Zm121,601.46c0,4.91.11,8.56,0,12.21a41.17,41.17,0,0,0,3.45,19.32c3.92,8.56,5.52,18,3.57,27.35-1.71,8.23-5,16.13-7,24.33-3.85,15.66-7.3,31.43-10.85,47.16a40.19,40.19,0,0,0-.44,5.19c1.61-.77,2.53-1.13,3.37-1.61,22.73-13.07,37.1-32.5,43.4-57.8,1.19-4.76,2.72-7.61,8.07-6.81,2.7.4,3.82-1,4.12-3.64,4.63-42-16.69-83.61-55.46-102-1.76-.84-3.92-.85-6.5-1.37,0,3.61.16,6.26,0,8.89-.26,3.37.9,4.86,4.46,4.76a93.76,93.76,0,0,1,9.64.69c0,5.27-.18,10.09.1,14.87a6.76,6.76,0,0,0,2.16,4.51c23.91,18.58,26.1,44.56,24.51,71.78,0,.87-1.9,1.63-2.91,2.44-.66-.93-1.87-1.84-1.9-2.79-.16-5.83.16-11.67-.1-17.49-.51-11.91-2.72-23.48-8.15-34.22A38.76,38.76,0,0,0,157.29,605.64Zm-105.1-12a91,91,0,0,0-25.93,36c-5.53,13.64-6.91,28-6.2,42.27-4.13,1.63-5.77-.21-5.73-3.42.1-8.45-.51-17.08,1-25.31,4.63-25.74,19.27-45.69,38.66-62.42,3.66-3.16,4-5.49.52-8.56C-.26,601.7-7.38,670.07,18.34,708.63L25,706c19.13,23.45,28,31.76,38.48,35.7-.54-3.49-.78-6.8-1.59-10-4.4-17.2-8.52-34.5-13.57-51.52-4-13.38-5.37-26.75-.17-39.66,3.56-8.86,4.23-17.6,4.06-26.77C52.1,607.5,52.19,601.22,52.19,593.64Zm17.89,51.28-1.56-1.26c-1.28,1.19-3.3,2.17-3.7,3.6a54,54,0,0,0-2,11.76c-.88,18.37,8.52,31.16,23.49,40,13.07,7.71,26.72,7.43,39.8-.67,20.5-12.68,27.4-35.6,17.76-58.39a46.15,46.15,0,0,1-1.43-4.5l1.43-.46a30.86,30.86,0,0,1,7.32,17.8c.49,6.53.11,13.13.11,19.81,7.38,1.2,8,.76,8.75-6.86,3.67-37.24-27.61-67-64.77-61.63s-58.36,48.45-39.5,80.66c3.12,5.33,4.61,5.48,10.75,1.12-9.46-15-10.43-30.37-3.19-47.12,1.35-3.12,2.88-5,6.67-4.12s6.68-.35,9.7-3.25c19-18.31,49.82-11.33,59.67,13.3,7.55,18.9-2.09,41.41-20.95,48.91s-40.79-1.42-48.29-19.9A37.69,37.69,0,0,1,70.08,644.92Zm79.05,53.44a30.6,30.6,0,0,0-2.09,5.1c-3.07,15-6,30-9.09,45-.3,1.43-1.65,2.64-2.52,3.95-.49-1.48-1.58-3-1.39-4.41,1-7.58,2.36-15.12,3.58-22.68,1.19-7.32-5.12-12.65-12-10A59.26,59.26,0,0,1,87.8,716.7c-1.74-.48-4.17-.58-5.61.27C75.94,720.68,72,726.28,72,733.67c.09,10.17,3.18,19.63,8.3,28.44,2,3.51,4.71,4.2,8.77,3.69a235.07,235.07,0,0,1,25.3-1.75c3.64-.06,7.29,1.34,10.72,2,.2,4.35-1.22,5.75-4.79,5.08a108.18,108.18,0,0,0-10.89-1.44c-8.89-.75-17.68-.39-25.94,3.42a34.44,34.44,0,0,0-5.11,3.56l.61,1c20.08-8.85,39.58-8.4,57.23,3.21C140.48,753.64,144.76,726.29,149.13,698.36ZM104.64,562.88c14.33,0,28.67-.09,43,.06,3.69,0,5.42-.74,5.24-5-.33-8-.26-16,0-24,.12-3.7-1.06-4.92-4.8-4.91q-43.26.2-86.51,0c-3.6,0-4.61,1.38-4.54,4.72.14,8,.18,16,0,24-.1,3.89,1.19,5.2,5.16,5.14C76.3,562.75,90.47,562.88,104.64,562.88ZM129,473.78a5.59,5.59,0,0,0-2-.78q-12.48-.08-25,0c-3,0-3.8,1.75-3.69,4.57.46,11.15.76,22.3,1.08,33.45.39,14.14-2.13,13,13.2,13h15.29C122.87,506.44,129.63,490.36,129,473.78ZM78.79,604.68c25.14-9.9,47.47-6.72,67.75,10.41V586.32c-21.77,0-43.07,0-64.37.14a4.49,4.49,0,0,0-3.22,3C78.58,594.23,78.79,599,78.79,604.68Zm22,206.3c13.16-.66,22.91-1.44,31.13-7.92,7-5.53,7.2-12.07.46-18-7-6.11-15.58-8.19-24.47-8.61-11.49-.55-22.65.94-31.73,9.09-5.12,4.6-5.58,9.26-1,14.3,2.29,2.52,5.06,5.2,8.15,6.3C90,808.56,97,810,100.8,811ZM93.4,581.85c12.77,0,25.19,0,37.61-.11a3.44,3.44,0,0,0,2.41-2.34c.28-3.58.12-7.19.12-10.92H93.4ZM76.78,705.55c14.56,11.37,42.64,11.24,58.39-.62-2.53-.49-4.54-1.58-5.9-1-16.62,6.72-32.78,6.1-48.75-2.83ZM73.06,523.2c5-2.83,8.2-7,7.63-12.67-.84-8.4-2.34-16.74-3.7-25.09-.66-4.05-1.64-8.05-2.48-12.08l-1.51.17a6.75,6.75,0,0,0-.41,2.16c1.29,9.38,2.4,18.78,4,28.1C77.87,510.76,78.38,517.35,73.06,523.2ZM61,700.83c4,26.72,8.24,54.46,12.31,81.39C76.31,777.58,65.71,706.78,61,700.83Zm-4.45-78.39c3.7-3.53,5-28.74,1.21-35.94C56.46,598.11,56.52,609.79,56.51,622.44ZM134.68,523c-.89-4.25-2.74-8.68-2.5-13,.42-7.41,2.25-14.73,3.31-22.11.64-4.48.95-9,1.41-13.52l-1.64-.15c-2,12.58-4,25.14-5.83,37.74C128.67,517.09,131.7,520.49,134.68,523ZM94,473.82l-2.63,0,3,48,1.31-.06Zm57.69,147.07.69.06V587l-.69,0ZM72.81,607.41l1.16,0V586.79H72.81Zm-1-39.61v13.92C75.16,578.07,75.13,571.07,71.76,567.8Zm16.7.9-.93,0v11.89l.93-.07Zm49.34,10.67.41-.11v-9.13l-.41.08Z" transform="translate(1.38)"/><path class="cls-1" d="M36.29,4.18h129.3c7,0,7.49.32,7.16,7.37-1.48,32.28-3.09,64.55-4.61,96.83-.82,17.47-1.5,35-2.31,52.42q-2.29,49.92-4.64,99.84c-1.15,25-2.22,49.92-3.37,74.89q-2.3,49.92-4.65,99.83c-.45,9.49-1,19-1.23,28.46-.09,3-1.13,4-4.14,4-28.52-.08-57-.13-85.55.05-4.69,0-4.56-2.87-4.73-5.83-1.19-21.29-2.45-42.58-3.45-63.88q-4-84.15-7.75-168.31Q43.66,171.68,41,113.49,38.68,62.31,36.31,11.11C36.21,9,36.29,6.89,36.29,4.18Zm109.22,456.1c.2-1.64.38-2.6.41-3.56.5-13,.93-26,1.45-39q3.33-83.14,6.7-166.29c1.53-37.79,3-75.58,4.65-113.36Q161.33,78,164.29,17.86c.23-4.79-1.12-6.28-6-6.25q-53.76.29-107.52,0c-5,0-6.15,1.65-5.92,6.33,1.4,28.44,2.61,56.89,3.78,85.35q2.6,62.9,5,125.79,2,49.17,4,98.34,2.55,64.15,5,128.3c.15,4.07,1.34,5.63,5.49,5.46,11-.45,22-.76,32.93-.86C115.67,460.18,130.32,460.28,145.51,460.28Z" transform="translate(1.38)"/><path class="cls-1" d="M157.29,605.64a38.76,38.76,0,0,1,13.47,15.73c5.43,10.74,7.64,22.31,8.15,34.22.26,5.82-.06,11.66.1,17.49,0,.95,1.24,1.86,1.9,2.79,1-.81,2.86-1.57,2.91-2.44,1.59-27.22-.6-53.2-24.51-71.78a6.76,6.76,0,0,1-2.16-4.51c-.28-4.78-.1-9.6-.1-14.87a93.76,93.76,0,0,0-9.64-.69c-3.56.1-4.72-1.39-4.46-4.76.2-2.63,0-5.28,0-8.89,2.58.52,4.74.53,6.5,1.37,38.77,18.43,60.09,60.09,55.46,102-.3,2.68-1.42,4-4.12,3.64-5.35-.8-6.88,2-8.07,6.81-6.3,25.3-20.67,44.73-43.4,57.8-.84.48-1.76.84-3.37,1.61a40.19,40.19,0,0,1,.44-5.19c3.55-15.73,7-31.5,10.85-47.16,2-8.2,5.29-16.1,7-24.33,1.95-9.35.35-18.79-3.57-27.35a41.17,41.17,0,0,1-3.45-19.32C157.4,614.2,157.29,610.55,157.29,605.64Z" transform="translate(1.38)"/><path class="cls-1" d="M52.19,593.64c0,7.58-.09,13.86,0,20.13.17,9.17-.5,17.91-4.06,26.77-5.2,12.91-3.8,26.28.17,39.66,5,17,9.17,34.32,13.57,51.52.81,3.16,1,6.47,1.59,10C53,737.74,44.13,729.43,25,706l-6.66,2.65C-7.38,670.07-.26,601.7,54.49,572.17c3.46,3.07,3.14,5.4-.52,8.56-19.39,16.73-34,36.68-38.66,62.42-1.49,8.23-.88,16.86-1,25.31,0,3.21,1.6,5,5.73,3.42-.71-14.31.67-28.63,6.2-42.27A91,91,0,0,1,52.19,593.64Z" transform="translate(1.38)"/><path class="cls-1" d="M70.08,644.92a37.69,37.69,0,0,0,.07,28.79c7.5,18.48,29.31,27.45,48.29,19.9s28.5-30,20.95-48.91c-9.85-24.63-40.63-31.61-59.67-13.3-3,2.9-5.93,4.11-9.7,3.25s-5.32,1-6.67,4.12c-7.24,16.75-6.27,32.07,3.19,47.12-6.14,4.36-7.63,4.21-10.75-1.12-18.86-32.21,2.23-75.29,39.5-80.66s68.44,24.39,64.77,61.63c-.75,7.62-1.37,8.06-8.75,6.86,0-6.68.38-13.28-.11-19.81a30.86,30.86,0,0,0-7.32-17.8l-1.43.46a46.15,46.15,0,0,0,1.43,4.5c9.64,22.79,2.74,45.71-17.76,58.39-13.08,8.1-26.73,8.38-39.8.67-15-8.83-24.37-21.62-23.49-40a54,54,0,0,1,2-11.76c.4-1.43,2.42-2.41,3.7-3.6Z" transform="translate(1.38)"/><path class="cls-1" d="M149.13,698.36c-4.37,27.93-8.65,55.28-12.92,82.59-17.65-11.61-37.15-12.06-57.23-3.21l-.61-1a34.44,34.44,0,0,1,5.11-3.56c8.26-3.81,17-4.17,25.94-3.42a108.18,108.18,0,0,1,10.89,1.44c3.57.67,5-.73,4.79-5.08-3.43-.69-7.08-2.09-10.72-2a235.07,235.07,0,0,0-25.3,1.75c-4.06.51-6.73-.18-8.77-3.69-5.12-8.81-8.21-18.27-8.3-28.44-.06-7.39,3.93-13,10.18-16.7,1.44-.85,3.87-.75,5.61-.27a59.26,59.26,0,0,0,37.78-1.45c6.92-2.6,13.23,2.73,12,10-1.22,7.56-2.56,15.1-3.58,22.68-.19,1.38.9,2.93,1.39,4.41.87-1.31,2.22-2.52,2.52-3.95,3.11-15,6-30,9.09-45A30.6,30.6,0,0,1,149.13,698.36Z" transform="translate(1.38)"/><path class="cls-1" d="M86.79,685.39a30.08,30.08,0,0,1-4.93-3.17c-10-9.51-13-25-7.41-37.19,5.72-12.46,18.77-19.92,32.91-18.82a33.4,33.4,0,0,1,29.43,24.67c2.52,9.68,1.36,18.77-5,26.84,1.27-4.16,2.53-8.33,4-13.06-1.49.33-1.94.29-2.09.48-.82,1-1.56,2.14-2.33,3.22a39.14,39.14,0,0,1-20.63,15c-13.41,4.14-21.6,1.71-30.59-9A27.65,27.65,0,0,0,78,672.31l-1.34,1.25Z" transform="translate(1.38)"/><path class="cls-1" d="M104.64,562.88c-14.17,0-28.34-.13-42.51.08-4,.06-5.26-1.25-5.16-5.14.22-8,.18-16,0-24-.07-3.34.94-4.73,4.54-4.72q43.24.17,86.51,0c3.74,0,4.92,1.21,4.8,4.91-.24,8-.31,16,0,24,.18,4.21-1.55,5-5.24,5C133.31,562.79,119,562.88,104.64,562.88Zm-32.15-33.2c-3.34,0-5.83.18-8.28,0-3.57-.33-4.6,1.22-4.52,4.61q.29,11.71,0,23.42c-.08,3.55,1.38,4.82,4.72,4.58,1.65-.12,3.45.33,4.94-.18,1.23-.42,3-1.85,3-2.87C72.58,549.61,72.49,540,72.49,529.68Zm6.66,16.38h0c0-4.31.19-8.63-.12-12.92-.08-1.18-1.63-2.25-2.5-3.38-.77,1.07-2.19,2.11-2.21,3.19-.19,8.45-.21,16.91,0,25.37,0,1.25,1.5,2.47,2.3,3.7.85-1.34,2.33-2.62,2.45-4C79.37,554,79.15,550,79.15,546.06Zm67.63-.09c0,4-.2,8,.12,12,.11,1.4,1.53,2.68,2.35,4,.73-1.24,2.05-2.47,2.08-3.73q.28-12.48,0-25c0-1.18-1.49-2.31-2.29-3.47-.74,1.23-2.05,2.42-2.14,3.69C146.62,537.64,146.79,541.81,146.78,546Z" transform="translate(1.38)"/><path class="cls-1" d="M129,473.78c.66,16.58-6.1,32.66-1.1,50.29H112.58c-15.33-.05-12.81,1.11-13.2-13-.32-11.15-.62-22.3-1.08-33.45C98.19,474.77,99,473,102,473q12.48-.07,25,0A5.59,5.59,0,0,1,129,473.78Z" transform="translate(1.38)"/><path class="cls-1" d="M78.79,604.68c0-5.64-.21-10.45.16-15.21a4.49,4.49,0,0,1,3.22-3c21.3-.18,42.6-.14,64.37-.14v28.77C126.26,598,103.93,594.78,78.79,604.68Z" transform="translate(1.38)"/><path class="cls-1" d="M100.8,811c-3.83-1-10.82-2.42-17.47-4.8-3.09-1.1-5.86-3.78-8.15-6.3-4.57-5-4.11-9.7,1-14.3,9.08-8.15,20.24-9.64,31.73-9.09,8.89.42,17.45,2.5,24.47,8.61,6.74,5.89,6.54,12.43-.46,18C123.71,809.54,114,810.32,100.8,811Zm2.14-1.28c8.72-1,17.16-3.11,21.83-6.54,7.37-5.43,7.38-14.15-.63-18.24-12.82-6.56-26.11-6.37-38.72.6-7.86,4.35-7.94,13.73-.08,18.08C90.7,806.57,97,807.73,102.94,809.7Z" transform="translate(1.38)"/><path class="cls-1" d="M93.4,581.85V568.48h40.14c0,3.73.16,7.34-.12,10.92a3.44,3.44,0,0,1-2.41,2.34C118.59,581.9,106.17,581.85,93.4,581.85Z" transform="translate(1.38)"/><path d="M86.79,685.39,76.62,673.56,78,672.31a27.65,27.65,0,0,1,2.13,2.06c9,10.73,17.18,13.16,30.59,9a39.14,39.14,0,0,0,20.63-15c.77-1.08,1.51-2.18,2.33-3.22.15-.19.6-.15,2.09-.48-1.43,4.73-2.69,8.9-4,13.06L127.6,683c-1.46.72-2.95,1.39-4.39,2.14-8.27,4.35-16.92,6.32-26.24,4.35Z" transform="translate(1.38)"/><path class="cls-1" d="M76.78,705.55l3.74-4.49c16,8.93,32.13,9.55,48.75,2.83,1.36-.54,3.37.55,5.9,1C119.42,716.79,91.34,716.92,76.78,705.55Z" transform="translate(1.38)"/><path class="cls-1" d="M73.06,523.2c5.32-5.85,4.81-12.44,3.58-19.41-1.65-9.32-2.76-18.72-4-28.1a6.75,6.75,0,0,1,.41-2.16l1.51-.17c.84,4,1.82,8,2.48,12.08,1.36,8.35,2.86,16.69,3.7,25.09C81.26,516.23,78,520.37,73.06,523.2Z" transform="translate(1.38)"/><path class="cls-1" d="M61,700.83c4.75,5.95,15.35,76.75,12.31,81.39C69.2,755.29,65,727.55,61,700.83Z" transform="translate(1.38)"/><path class="cls-1" d="M56.51,622.44c0-12.65,0-24.33,1.21-35.94C61.47,593.7,60.21,618.91,56.51,622.44Z" transform="translate(1.38)"/><path class="cls-1" d="M134.68,523c-3-2.46-6-5.86-5.25-11,1.83-12.6,3.87-25.16,5.83-37.74l1.64.15c-.46,4.51-.77,9-1.41,13.52-1.06,7.38-2.89,14.7-3.31,22.11C131.94,514.27,133.79,518.7,134.68,523Z" transform="translate(1.38)"/><path class="cls-1" d="M94,473.82l1.65,47.94-1.31.06-3-48Z" transform="translate(1.38)"/><path class="cls-1" d="M151.69,620.89V587l.69,0v34Z" transform="translate(1.38)"/><path class="cls-1" d="M72.81,607.41V586.8H74v20.66Z" transform="translate(1.38)"/><path class="cls-1" d="M97,689.52c9.32,2,18,0,26.24-4.35,1.44-.75,2.93-1.42,4.39-2.14-8,7.12-17.2,10-27.78,8.05A10.53,10.53,0,0,1,97,689.52Z" transform="translate(1.38)"/><path class="cls-1" d="M71.76,567.8c3.37,3.27,3.4,10.27,0,13.92Z" transform="translate(1.38)"/><path class="cls-1" d="M88.46,568.7v11.85l-.93.07V568.73Z" transform="translate(1.38)"/><path class="cls-1" d="M137.8,579.37v-9.16l.41-.08v9.13Z" transform="translate(1.38)"/><path d="M145.51,460.28c-15.19,0-29.84-.1-44.49,0-11,.1-22,.41-32.93.86-4.15.17-5.34-1.39-5.49-5.46q-2.34-64.16-5-128.3-2-49.17-4-98.34-2.52-62.9-5-125.79c-1.17-28.46-2.38-56.91-3.78-85.35-.23-4.68.89-6.36,5.92-6.33q53.76.3,107.52,0c4.9,0,6.25,1.46,6,6.25q-3,60.12-5.57,120.25c-1.64,37.78-3.12,75.57-4.65,113.36q-3.36,83.14-6.7,166.29c-.52,13-1,26-1.45,39C145.89,457.68,145.71,458.64,145.51,460.28Z" transform="translate(1.38)"/><path d="M72.49,529.68c0,10.34.09,19.93-.14,29.52,0,1-1.77,2.45-3,2.87-1.49.51-3.29.06-4.94.18-3.34.24-4.8-1-4.72-4.58q.29-11.7,0-23.42c-.08-3.39,1-4.94,4.52-4.61C66.66,529.86,69.15,529.68,72.49,529.68Z" transform="translate(1.38)"/><path d="M79.15,546.06c0,4,.22,8-.12,11.93-.12,1.41-1.6,2.69-2.45,4-.8-1.23-2.27-2.45-2.3-3.7-.2-8.46-.18-16.92,0-25.37,0-1.08,1.44-2.12,2.21-3.19.87,1.13,2.42,2.2,2.5,3.38.31,4.29.12,8.61.12,12.92Z" transform="translate(1.38)"/><path d="M146.79,546c0-4.16-.17-8.33.1-12.48.09-1.27,1.4-2.46,2.14-3.69.8,1.16,2.26,2.29,2.29,3.47q.3,12.48,0,25c0,1.26-1.35,2.49-2.08,3.73-.82-1.34-2.24-2.62-2.35-4C146.58,554,146.78,550,146.79,546Z" transform="translate(1.38)"/><path d="M102.94,809.7c-5.9-2-12.24-3.13-17.6-6.1-7.86-4.35-7.78-13.73.08-18.08,12.61-7,25.9-7.16,38.72-.6,8,4.09,8,12.81.63,18.24C120.1,806.59,111.66,808.72,102.94,809.7Z" transform="translate(1.38)"/><path class="cls-2" d="M110.84,561.61l47.62-.05a2.88,2.88,0,0,1,1.36.3,100.14,100.14,0,0,1,22.56,16.9q-.87,5.91-1.75,11.86c1.3.32,2.06.26,2.25-1.12a1.54,1.54,0,0,1,1.19-.92c.4,0,.85.59,1.15,1a4,4,0,0,1,.36,1.2l1.75-.1-1-8c.85.91,1.71,1.81,2.56,2.71v5.36h4.44a99.06,99.06,0,0,1,16.34,28.91c.83,2.33.47,5.12.47,7.7q0,35.05,0,70.1a8,8,0,0,1-.34,2.82,104.83,104.83,0,0,1-18.14,31.15c-.08-.86-.16-1.72-.27-2.77h-6.84v-11.8h6.21v-4.78h-6.2V701.23h6.57v-4.65H178.93v37h10.71c-4.22,4.25-8.42,8.52-12.71,12.69-.47.46-1.55.4-2.34.4q-44.94,0-89.87,0c-16.76,0-33.52,0-50.27-.05a5.17,5.17,0,0,1-3.24-1.24c-4.09-4-8-8.13-12-12.21.79.18,1.58.36,2.37.56,5.39,1.37,9-1,10-6.4a15.62,15.62,0,0,0-4.32-14.12c-1.53-1.65-3.07-3.3-4.53-5a5.24,5.24,0,0,1-1.1-5.36,3.59,3.59,0,0,1,2.15-2c1.29-.34,1.94.76,2.06,2,.18,1.81.27,3.64.41,5.56h5.42a72.43,72.43,0,0,0-1.31-8.51c-.78-2.89-3-4-6.62-4s-6.05,1.41-7,4.29c-1.57,4.94-.8,9.45,2.77,13.34,1.52,1.67,3.11,3.27,4.6,5a9.57,9.57,0,0,1,2,8.66,2.81,2.81,0,0,1-2,1.79c-.73,0-1.68-.83-2.21-1.54a4.06,4.06,0,0,1-.36-2.19c0-1.75,0-3.51,0-5.37H16c0,.87-.05,1.6,0,2.33.22,2.72.48,5.43.72,8.14A106.38,106.38,0,0,1-1.16,698.88a5.84,5.84,0,0,1-.21-2q0-36.81,0-73.63a13.06,13.06,0,0,1,1.12-4.5,110.25,110.25,0,0,1,20.29-33.2,11.09,11.09,0,0,1,1.55-1.24c1.07,2.61,3.31,4.75,3.67,8.06l-3.2-2.72-.37.41.51,1.05a5.42,5.42,0,0,0,1.85,5.35l2,3,.78,1.12c.59.91,1.13,1.87,1.8,2.72q11.76,14.74,23.56,29.46a4.84,4.84,0,0,1,.81,1.6c.71,2.58,1.35,5.18,2,7.74l-1.54,2,2.3.38a9.15,9.15,0,0,0,1,2.48c2,2.3,4.33,4.32,6.08,6.77,3.3,4.6,6.34,9.4,9.38,14.18,1.53,2.42,3.51,4.52,4.42,7.43.46,1.48,2.74,2.28,3.83,3.68,4.16,5.33,8.17,10.78,12.22,16.19a19.05,19.05,0,0,1,1.09,2c-6.08-2.88-11.32-.42-12.67,5.47a13.09,13.09,0,0,0-.35,2.63c0,6.3-.11,12.6,0,18.9A15.78,15.78,0,0,0,82,729.94c2.18,5,7.92,5.48,11.17,1.15.09-.13.33-.15.51-.23l.82,2.64h2.33v-20h-7.6v3.84l3.11.32c-.31,3.32-.47,6.52-1,9.65A2.93,2.93,0,0,1,89.09,729c-.75,0-1.75-1-2.17-1.86a6.93,6.93,0,0,1-.44-3c0-4.79,0-9.58,0-14.37,0-2,0-4.11.19-6.15.12-1.45.77-2.7,2.52-2.68s2.31,1.22,2.39,2.74c.1,1.88.18,3.76.27,5.63h5.32l-.67-9.44c1.8,2.62,3.41,4.71,4.73,7a8.44,8.44,0,0,1,1.21,4c.12,6.84.06,13.69.06,20.53v2.16h5.67v-17h5.12v17h5.62V731.2c0-8.76.08-17.53,0-26.29,0-3.53,1.13-7.35-1.88-10.33l-.22,2.09c-.64-6.91-1.23-13.32-1.85-20.1l-.77,1.75c-.37-4.42-.73-8.43-1-12.46a6.06,6.06,0,0,1,.37-2.09,18.77,18.77,0,0,0,1-2.87,36.12,36.12,0,0,0,0-4.29l1.38,1.95V644.5c0-1.71.82-2.29,2.85-1.66v-6.35l.27-.26c3.4-.89,3.45-.93,2.54-4-.52-1.75-1.54-3.47-1.59-5.23-.15-4.84.06-9.69.2-14.54,0-.9.74-1.93.48-2.66-.54-1.49-1.63-2.76-2.28-4.21a7,7,0,0,1-.2-2.35c.84.09,1.45-.19.94-1.07-.33-.56-1.07-.87-1.82-1.44l-.79-2.27.73-1.83-2-1c-.49-3.44-1-6.88-1.46-10.32C112.8,577.42,111.83,569.51,110.84,561.61Zm79.61,59.9-1.27-.36c-.32.15-.92.29-.93.44-.07,1.76,0,3.52,0,5.28l.48,0c.32-.84.63-1.68.94-2.52l.86,2.5.79,0,1.07-.78.89.68v-6l-.89,1.28-1-.85Zm-8.9,4.6,2-.1.49,1.17v-6l-.53-.06-.52,2.38-.71.41-.62-2.77-.52.09v5.42h.23Zm-37.48-4.65-.84-.28-.9.74-1.2-.53-.42.32,1.53,1.87v.8l-2.13,2.35c-.12-2.15-.21-3.71-.31-5.28l-.53,0a15.13,15.13,0,0,0-.16,2.84A16.08,16.08,0,0,0,140,627l2.36-1,.4.5c.61-.07,1.74-.14,1.74-.19,0-1.65-.2-3.3-.33-5Zm34.77-7.33-.65.37-2.39-.28v5.26h.6l.51-2.12,1.24,2.11h.74l1.32.17v-5.76Zm3.3,16.37.16.12c-.25.7-.5,1.39-.74,2.08-.48,1.37-.3,1.55.9,1.38.12-.84.2-1.48.29-2.12a26.16,26.16,0,0,0,.38-2.9c0-.18-.88-.64-1.07-.52a2.1,2.1,0,0,0-.79,1.24C181.23,629.94,181.83,630.25,182.14,630.5Zm-19.63,1.69-.18,1.93.33.07,1.9-3.85a23.72,23.72,0,0,0,0,3c0,.33.54.75.9.86s.94-.25,1-.46a6.67,6.67,0,0,0,0-2.78c-.12-.37-1.22-.42-1.88-.62l.21-1.75-.31,0-1.95,3.65c0-1,.08-1.92,0-2.86a1.2,1.2,0,0,0-.7-.86c-.31-.1-1,.12-1,.27a9,9,0,0,0-.11,3C160.68,632,161.85,632.05,162.51,632.19Zm-3.37-13,1.7.12c0-1.65.06-3.3,0-4.95a12,12,0,0,0-1.62-.11s-.07.1-.1.16Zm3.33,4-1.18-2a8.66,8.66,0,0,0-1.23,2,6.29,6.29,0,0,0,0,2.21c.12,1.73,1,2,2.43,1.24V623.1Zm.46-6.93-.54-1.42a3.61,3.61,0,0,0-.3-.25s-.14.06-.14.09a33,33,0,0,0,0,3.85c0,.45.6.86.93,1.28.48-.38,1.23-.67,1.4-1.16A1.66,1.66,0,0,0,162.93,616.17Zm-13.59,5.74-2.2-.42-.37,1.68-1.26-2.23v5.88l.64.06.48-2.42,1.94-.48c-.07,1-.14,2-.22,3.24l1.61-.12c-.21-1.87-.4-3.52-.59-5.16l.55-.18-.11-.15C149.65,621.7,149.5,621.81,149.34,621.91Zm9.85,2.89-.6-3.71-.77,0-.3,2-.57,2-.3,0-.35-3.87-.51,0c-.13.69-.25,1.38-.48,2.66l-.64-2.77-.45,0v5.63l.46.06.48-2.37h.24l.51,2.84,2-1.56h.53l.75,1.1.42-.21Zm-3.44-10.08-.32-.27-1.68-.9v6l.31,0,.76-2.68.56.11a5.1,5.1,0,0,0,.39,1.31,13.26,13.26,0,0,0,1.15,1.47c.43-.53,1.1-1,1.24-1.58a7.59,7.59,0,0,0,0-2.85,4.75,4.75,0,0,0-.83-1.52Zm-31,81.83v37h5.41V716.3c3.75-.55,4.77.28,4.81,3.71,0,1.78,0,3.56,0,5.34v8.15h5.51c0-4.34.06-8.56,0-12.78-.06-2.57-.14-5.21-2.28-6.6.77-1.43,1.89-2.61,2-3.88a49.28,49.28,0,0,0,0-9.17,4.67,4.67,0,0,0-4.8-4.47C131.87,696.4,128.38,696.55,124.75,696.55Zm32.92-.08v37.15h7.12c5.64,0,8.38-2.15,8.65-7.83.33-7.37.28-14.77,0-22.14-.17-4.57-2.54-6.86-6.68-7.14C163.78,696.31,160.78,696.47,157.67,696.47Zm-99.86,4.76h6.52v-4.68H52.17v37H64.6v-4.9H57.88V716.78h6.23v-4.63h-6.3Zm-21.62-4.71v37H48.84v-4.77h-7.2V696.52Zm115.4,37v-37h-5.42v37Zm-81.8-.09h5.52V696.58H69.79Zm82.06-142.14c.85-.71,1.65-1.07,1.66-1.44.09-4.21.06-8.42.06-12.66H151c-.57,3-1.13,5.91-1.69,8.83l-.31,0-1.8-8.76h-2.59c0,4.17,0,8.19,0,12.21,0,1.52.71,1.47,1.84,1v-7.63c.72,2.2,1.14,4.45,1.68,6.67.11.45.68.79,1,1.18.34-.4.89-.75,1-1.21.51-2.09.89-4.21,1.32-6.32l.33,0Zm17.59-14.2v13.69l2-.2v-6l.71-.29c.33.55.87,1.07,1,1.65a15.53,15.53,0,0,1,0,3.27c-.1,1.66.68,1.82,1.94,1.36A44.8,44.8,0,0,0,175,585a5.61,5.61,0,0,1,0-2.79c1.11-3.37-.25-5.1-3.73-5.1Zm-3.79,22.7c-.07-1.56-.1-3-.22-4.42a2.56,2.56,0,0,0-2.76-2.66c-1.78,0-3,.83-3,2.6-.13,2.92-.12,5.85,0,8.78a2.58,2.58,0,0,0,2.85,2.59,2.61,2.61,0,0,0,2.9-2.53C165.56,602.7,165.57,601.2,165.65,599.83Zm23.54.5.65-.31c.35.51.93,1,1,1.56.16,1.13,0,2.33.11,3.47.08.56.66,1.05,1,1.57.38-.48.76-1,1.13-1.46,0,0,0-.14,0-.21,0-3.12-.7-6.22-.2-9.38.29-1.83-.88-2.75-2.73-2.74h-3v13.68h2Zm-21.78,6.09c1.47.47,2.1.14,2-1.33s0-3.22,0-4.83l.79-.12c2.06,1.62.17,4.3,1.2,6.35h2.05c-.28-2.34-.56-4.52-.79-6.71a3.06,3.06,0,0,1,.2-1.26c1.38-3.78,0-5.75-4-5.69-.45,0-.91.09-1.45.14ZM52.07,693.87l.72-.52v-8.18c0-2.26-.63-2.89-2.93-2.89-.66,0-1.32.05-2.15.09,0,3.5,0,6.84,0,10.17,0,.38.53.75.82,1.12.32-.4.88-.78.92-1.2.12-1.32,0-2.65,0-4l.68-.17a6.1,6.1,0,0,1,.66,1.52c.12.81-.11,1.67.09,2.45C51.12,692.87,51.69,693.34,52.07,693.87ZM152.39,593v13.67l2-.13v-5c3.51-.81,4.36-2.16,3.78-5.74C157.72,593,156.84,592.56,152.39,593Zm28.38-.15v13.74h4.52c.84-2.55-1.45-1.46-2.26-2v-3.85c1.14-.26,2.93.14,1.92-2l-1.93-.33v-3.42a2.63,2.63,0,0,0,.87-.15c.52-.34,1-.74,1.48-1.11a5,5,0,0,0-1.51-.83A22.15,22.15,0,0,0,180.77,592.8Zm-23-7.13c3.5-.63,4.47-2.34,3.66-6.13-.52-2.38-2.26-3-5.7-2.09v13.37l2-.19ZM33.43,687.94h0c0-1.17.09-2.34,0-3.49a2.21,2.21,0,0,0-2.4-2.26c-1.48,0-2.48.66-2.55,2.09a69.5,69.5,0,0,0,0,7.36A2.21,2.21,0,0,0,31,693.77a2.3,2.3,0,0,0,2.37-2.35A33.64,33.64,0,0,0,33.43,687.94Zm1.82,5.54c4.49.53,6-1.35,4.59-5.3a5.92,5.92,0,0,1-.13-1.47c-.11-1.29.24-3.06-.47-3.75s-2.53-.59-4-.84Zm127.8-116.21v13.34c4.26.54,4.66.41,4.35-1.47l-2.25-.18v-4c.81-.61,2.84.31,2.08-1.87l-2.2-.39c0-.67,0-1.22,0-1.76s.08-1.18.12-1.83l2.22-.31C167.32,576.89,167.31,576.88,163.05,577.27Zm15,29.27c0-3.48-.05-6.74,0-10,0-.62.63-1.21.93-1.83.19-.38.5-.84.42-1.19a1.27,1.27,0,0,0-1-.7c-1.34-.08-2.69,0-4.33,0,.15.78.2,1.78.38,1.8,1.89.27,1.21,1.7,1.23,2.7.07,3,0,6.09,0,9.24ZM40.93,693.37l.53.45c.43-.43.85-.87,1.31-1.28s.71-.74,1.13-.81c.23,0,.57.53.87.82l1.31,1.24.48-.44c-.56-3.62-1.11-7.24-1.78-11.55-1,.63-2.23,1-2.34,1.52C41.79,686.64,41.4,690,40.93,693.37ZM27,688h0c0-1.16,0-2.33,0-3.49a2.09,2.09,0,0,0-2.08-2.31c-1.43-.1-2.63.43-2.73,1.87a59.26,59.26,0,0,0,0,7.77,2.11,2.11,0,0,0,2.52,1.88A2.18,2.18,0,0,0,27,691.51C27.05,690.35,27,689.19,27,688Zm152.21-97.31v-13.6l-1.83.17v13.43Zm-36.86,0V577.12l-1.84.16v13.43ZM17.19,682.28c-.05.65-.11,1.05-.11,1.44,0,2.94,0,5.87,0,8.8,0,.38.52.75.8,1.12.31-.41.84-.79.89-1.22.11-1.27,0-2.56,0-3.49l2-1.24L19,686.25V684a3.54,3.54,0,0,0,.87-.19,15.09,15.09,0,0,0,1.29-.85,6.13,6.13,0,0,0-1.47-.64A17.62,17.62,0,0,0,17.19,682.28ZM191.08,631.5h0a4.53,4.53,0,0,0,0-1.61,6,6,0,0,0-1.11-1.45c-.43.49-1.13.93-1.24,1.49a7.87,7.87,0,0,0,0,3c.1.5.75.9,1.15,1.35a6.91,6.91,0,0,0,1.16-1.4A3.43,3.43,0,0,0,191.08,631.5Zm-19-4.23c.94-.44,2-.67,2.06-1a18.55,18.55,0,0,0-.08-4.59c0-.28-1.16-.42-2-.69Zm.07,6.82c1.73.52,2.4-.16,2.32-1.78,0-.67-.1-1.35-.07-2,.08-1.59-.62-2.13-2.25-1.67Zm-19.19-7.56.28-.08v-5l-.36-.23-.74,1.15L151,621.07v5.66h.38l.35-2.83Zm-.22,6.68,1.09,1.06a5.79,5.79,0,0,0,1.2-1.71,5.28,5.28,0,0,0,0-2.53c-.15-.58-.73-1-1.12-1.57-.38.46-1,.88-1.1,1.4A19.46,19.46,0,0,0,152.7,633.21Zm20.18-13.84c1.73.75,2.06-.26,2.18-1.43.07-.72,0-1.45,0-2.17.14-1.66-.58-2.18-2.2-1.8Zm17.37,0,.58,0c0-1.22-.06-2.44,0-3.65.1-1.68-.62-2.22-2.22-1.83v5.49l.41,0,.44-2.3.34,0Zm-22.61,7.39.41-.11v-5.4l-.4,0-.4,2.07-1.37-2.62v6l.34,0,.53-2Zm18.05-5.35c-.28,2-.49,3.63-.68,5h2.57C187.11,625,187.81,623,185.69,621.46Zm-2.05-2.75.42.09c.29-.73.95-1.57.77-2.16a12.91,12.91,0,0,0-1.93-3c-.37,2-.71,3.81-1.05,5.61l.7.15.73-2.73Zm-18.79.55.29,1c.78-2.44,1.57-1.33,2.61-.5l-.92-5.44-.79-.07C165.64,615.93,165.24,617.6,164.85,619.26Zm4.32-2,.69.06c.24-.71.79-1.5.64-2.12s-1-1-1.6-1.43c-.05,0-.62.37-.62.58-.06,1.67,0,3.35,0,5h.65Zm6.58,16.91.89,0,.84-5.59-.66-.11-.57,3.15-.86-3.17-.57.14Zm3.83-7.43.43-.09v-5.53c-1.49,1-2.62,4.63-1.74,5.17l.64-1.46ZM159,633.32l-1.25-.66-.37.37,1.07,1.25c.39-.44,1.14-.9,1.12-1.32a22,22,0,0,0-.74-3.66l1-.73h-2.65C157.85,630.28,158.39,631.67,159,633.32Zm28.16-19.61c-.34.14-1.17.31-1.18.51a43.2,43.2,0,0,0,.07,5.09c0,.16,1,.24,1.11.27ZM193,634.25V629l-.34.08c-.34,1.63-.67,3.25-1,5Zm-1.68-20.1c.39,1.91.74,3.59,1.08,5.27l.32,0,.62-4.31ZM118,676.82l-.7.07.57,4.83.68-.08Z" transform="translate(1.38)"/><path class="cls-3" d="M118.76,636.49v6.35c-2-.63-2.85-.05-2.85,1.66v14.06l-1.38-1.95a36.12,36.12,0,0,1,0,4.29,18.77,18.77,0,0,1-1,2.87,6.06,6.06,0,0,0-.37,2.09c.28,4,.64,8,1,12.46l.77-1.75c.62,6.78,1.21,13.19,1.85,20.1l.22-2.09c3,3,1.83,6.8,1.88,10.33.12,8.76,0,17.53,0,26.29v2.31h-5.62v-17h-5.12v17h-5.67v-2.16c0-6.84.06-13.69-.06-20.53a8.44,8.44,0,0,0-1.21-4c-1.32-2.25-2.93-4.34-4.73-7l.67,9.44H91.84c-.09-1.87-.17-3.75-.27-5.63-.08-1.52-.62-2.72-2.39-2.74s-2.4,1.23-2.52,2.68c-.18,2-.18,4.1-.19,6.15,0,4.79,0,9.58,0,14.37a6.93,6.93,0,0,0,.44,3c.42.82,1.42,1.86,2.17,1.86a2.93,2.93,0,0,0,2.29-1.73c.53-3.13.69-6.33,1-9.65l-3.11-.32v-3.84h7.6v20H94.54l-.82-2.64c-.18.08-.42.1-.51.23-3.25,4.33-9,3.82-11.17-1.15a15.78,15.78,0,0,1-1.24-5.75c-.15-6.3-.07-12.6,0-18.9a13.09,13.09,0,0,1,.35-2.63c1.35-5.89,6.59-8.35,12.67-5.47a19.05,19.05,0,0,0-1.09-2c-4-5.41-8.06-10.86-12.22-16.19-1.09-1.4-3.37-2.2-3.83-3.68-.91-2.91-2.89-5-4.42-7.43-3-4.78-6.08-9.58-9.38-14.18-1.75-2.45-4.1-4.47-6.08-6.77a9.15,9.15,0,0,1-1-2.48l-2.3-.38,1.54-2c-.66-2.56-1.3-5.16-2-7.74a4.84,4.84,0,0,0-.81-1.6Q40.44,618,28.66,603.33c-.67-.85-1.21-1.81-1.8-2.72l.36-1.82-1.14.7c-.66-1-1.33-2-2-3l1.41-1.29-3.26-4.06-.51-1.05.37-.41,3.2,2.72c-.36-3.31-2.6-5.45-3.67-8.06,2.95-3.07,5.71-6.34,8.89-9.15a94,94,0,0,1,18.07-12.8l1.32,6,.66-.14q-.55-3-1.1-6.06a7.29,7.29,0,0,1,2-.59q27.18-.06,54.37,0c1.66,0,3.33,0,5,.07,1,7.9,2,15.81,3,23.71.44,3.44,1,6.88,1.46,10.32.08.94.16,1.87.25,2.81,0,.15,0,.3,0,.45l.54,2.89a.62.62,0,0,0,.1.16s.07,0,.11,0l-.23-.09c0-1,0-1.94,0-2.91,0-.13.08-.25.13-.38a.57.57,0,0,0,.36-.08l.79,2.27c.75.57,1.49.88,1.82,1.44.51.88-.1,1.16-.94,1.07a7,7,0,0,0,.2,2.35c.65,1.45,1.74,2.72,2.28,4.21.26.73-.46,1.76-.48,2.66-.14,4.85-.35,9.7-.2,14.54,0,1.76,1.07,3.48,1.59,5.23.91,3.08.86,3.12-2.54,4a2.75,2.75,0,0,1-.26-.22Zm-16.21-48.24.41-.44c0-.13,0-.26,0-.38.15-.21.42-.41.44-.64.18-2.23-1.91-2.48-3.21-3.58l-1,2.16-3.16.33-.25-2.23-.48-.12-1.1,1.76,1.67.73c0,.25,0,.49,0,.73l-3.6,1.66L91.78,587l-2,1.51,2.08,1.36.44-1.21,3.26.89.88-.64L96,586.65l3.16,2.45c1.43,1.49,2.67,1.19,3.38-.81Zm12.67,50.94c-.17-1.17.74-2.81-1.12-3.33-.31,1.26-.56,2.3-.82,3.34l-1.35-1.69c.27-2-1.55-4.3-4.1-4.89a5,5,0,0,1-4.2-3.94l.89-.12.25.52c0-.05.15-.11.14-.13-.07-.17-.16-.34-.25-.51l-.12-.87.33-2.07c.48.83.71,1.14.86,1.5a4,4,0,0,0,5,2c1.16-.4,1.33-1,1.15-2.12s0-2.5-.1-3.74A3.2,3.2,0,0,0,110,620c.29,1,.51,1.63.63,2.26.27,1.51-.52,2.41-1.77,3.11s-1.64-.3-2.4-1-2-.84-3.07-1.22l.42-2.9.89-.79,1.19-1.25,1.56,0,.08,0h-.11c0-1.11.37-1.9,1.67-1.84l.87-.12,3.13-.31.25.27a5.54,5.54,0,0,0,.14,1.84c.56,1.29,1.29,2.49,2,3.76,1.81-.86,2.28-2.28,1.74-6.14-.76.12-2.44-2.12-2.76-3.67l.14-1.06-.5.67-.76-2.07.59-.37-.66-.46h0c-.61-1-1.2-1.95-1.83-2.9-.25-.37-.91-.79-.84-1,.67-2-.74-2.79-2-4l-1.66,1.94c2.18-.1,2.51.81,2.19,2.33l-2.76-1.41c-1.49-2.34-2.3-2.7-4.37-1.94h-.48l-.33-.39a4.64,4.64,0,0,0,.4-.36,2.22,2.22,0,0,0-.18-.23l-.41.6c-3.31.85-6.2.2-7.88-2.94a9.51,9.51,0,0,0-2.82-3.05,12.91,12.91,0,0,1-3.29-2.92,1.86,1.86,0,0,0-2.16-.91c-3.39.38-5.28,2.23-6.24,6.22-.55,2.28-1,4.59-1.43,6.89a20.8,20.8,0,0,0-11.72,6.76l-2.23,4.68-.12.1-1.57-2.52c-.05-.14-.1-.27,0-.06-.15-.16,0-.06,0,0a12.74,12.74,0,0,0,.44,2.34c.87,2.25,1.85,4.46,2.78,6.68-.06.39-.28.84-.16,1.17,1.17,3.12,2.37,6.24,3.67,9.32.11.28.94.26,1.44.38l.48,1L70,635a.35.35,0,0,0-.31.08c-.42.17-1.05.22-1.22.52-.73,1.31-1.31,2.69-1.95,4l.48,6.94-1,.09.06.27,1-.35c2.44,1.06,4.79,2.59,7.61,1.19.13.58.22,1.19.4,1.76,1.67,5.09,3.19,10.23,5.08,15.23,1.32,3.49,2.51,7.23,6.42,8.93h0c.71.6,1.45,1.18,2.12,1.82,1.34,1.29,3,2.44,3.89,4s1,3.65,1.83,5.36c2.64,5.81,5.42,11.55,8.14,17.32a.2.2,0,0,0,.09.28l1.47,3.23c-1.38.93-.28,1.87,0,2.8.22.71.44,1.43.67,2.14,1,3.07,1.76,3.46,5.22,2.8,1-.19,1.22-.65,1-1.52l2.08-.59v.8l-.75.34.12.26.81-.38c1-.64,2-1.24,2.85-2,.18-.14.08-.85-.1-1.17a5.58,5.58,0,0,0-1.09-1.08l-.6-5.47a24.92,24.92,0,0,1-.81-2.49c-.44-2-.81-4-1.21-5.95v-2.46l-.7-1.92-.18-.05-1.54-4.59L108.75,681l-.13-.46a1.55,1.55,0,0,0-.05-.23c-2.63-5.07-2-10.42-.38-15.42,1.08-3.41.31-6.17-.65-9.16.77-.53,1.55-1,2.3-1.59,1.48-1.11,3-2.24,2.41-4.45,1.59-1.37,1.19-3-1.13-4.7l-.73-2.89,1.18-.82L112,640C113.07,639.79,114.54,641,115.22,639.19ZM60.7,645.77l.91,3.92c2.52-.06,2.7-1.91,3.14-3.53.22-.18.63-.39.61-.52-.15-.74-.4-1.46-.61-2.19s-.34-1.23-.5-1.84l1.38-4.19c-1.7-1-2.31-.74-2.71,1.12-.25,1.15-.76,2.25-1.07,3.4a19.19,19.19,0,0,0-.31,2.15Zm29.53-66.15.32,4.51.46.07.91-2.78,2.58-3.87L90,573.08l-.62-.63.07-1c.11-2,.37-4-1.3-5.56,0,.81.25,1.56.29,2.33a14,14,0,0,1-.25,2.39l0,1.21h0c-.32,1.19-1.17,2.57-.83,3.53C87.89,576.92,89.22,578.21,90.23,579.62Zm6.08,11.17,0,.48,2.7,2.91a13,13,0,0,0,.52-2.45A20.08,20.08,0,0,0,96.31,590.79ZM84.12,679.62l-3.38-2.81-.22.25,2.74,3.73Zm27.44-35.92.45.07.36-1.75-.6-.09Zm-27.41,37-.57.64,1,.85.5-.57ZM25.69,596.4l-.44.27.83,1.28.29-.17Zm89.11,82.43h-.21v.85h.17ZM29.33,602.21l-.09-.13-.11.23c.05,0,.11.05.13,0S29.31,602.25,29.33,602.21Zm61.94-11.79-.07.1.11,0Zm7-1.45.09-.13h-.15Z" transform="translate(1.38)"/><path class="cls-4" d="M16.71,730.37c-.24-2.71-.5-5.42-.72-8.14-.06-.73,0-1.46,0-2.33h5.55c0,1.86,0,3.62,0,5.37a4.06,4.06,0,0,0,.36,2.19c.53.71,1.48,1.58,2.21,1.54a2.81,2.81,0,0,0,2-1.79,9.57,9.57,0,0,0-2-8.66c-1.49-1.69-3.08-3.29-4.6-5-3.57-3.89-4.34-8.4-2.77-13.34.92-2.88,3.26-4.25,7-4.29s5.84,1.09,6.62,4a72.43,72.43,0,0,1,1.31,8.51H26.21c-.14-1.92-.23-3.75-.41-5.56-.12-1.22-.77-2.32-2.06-2a3.59,3.59,0,0,0-2.15,2,5.24,5.24,0,0,0,1.1,5.36c1.46,1.72,3,3.37,4.53,5a15.62,15.62,0,0,1,4.32,14.12c-1,5.38-4.61,7.77-10,6.4-.79-.2-1.58-.38-2.37-.56Z" transform="translate(1.38)"/><path class="cls-3" d="M189.64,733.63H178.93v-37H191.1v4.65h-6.57v10.83h6.2v4.78h-6.21v11.8h6.84c.11,1.05.19,1.91.27,2.77Z" transform="translate(1.38)"/><path class="cls-5" d="M186.3,582.66l1,8-1.75.1a4,4,0,0,0-.36-1.2c-.3-.41-.75-1-1.15-1a1.54,1.54,0,0,0-1.19.92c-.19,1.38-.95,1.44-2.25,1.12q.87-6,1.75-11.86l1.52,1.8c-.24,1.94-.47,3.88-.71,5.82l.58.36c.32-.42.92-.84.91-1.25,0-1.55-.26-3.1-.42-4.65Z" transform="translate(1.38)"/><path class="cls-4" d="M193.3,590.73h-4.44v-5.36Z" transform="translate(1.38)"/><path class="cls-6" d="M184.26,580.84c.16,1.55.39,3.1.42,4.65,0,.41-.59.83-.91,1.25l-.58-.36c.24-1.94.47-3.88.71-5.82Z" transform="translate(1.38)"/><path class="cls-7" d="M49.47,562.17q.54,3,1.1,6.06l-.66.14-1.32-6Z" transform="translate(1.38)"/><path class="cls-3" d="M124.75,696.55c3.63,0,7.12-.15,10.58.05a4.67,4.67,0,0,1,4.8,4.47,49.28,49.28,0,0,1,0,9.17c-.1,1.27-1.22,2.45-2,3.88,2.14,1.39,2.22,4,2.28,6.6.08,4.22,0,8.44,0,12.78H135v-8.15c0-1.78,0-3.56,0-5.34,0-3.43-1.06-4.26-4.81-3.71v17.21h-5.41Zm5.55,14.91c3.72.57,4.53-.07,4.66-3.55,0-1.09,0-2.19,0-3.28-.08-3.56-.94-4.25-4.68-3.65Z" transform="translate(1.38)"/><path class="cls-3" d="M157.67,696.47c3.11,0,6.11-.16,9.09,0,4.14.28,6.51,2.57,6.68,7.14.28,7.37.33,14.77,0,22.14-.27,5.68-3,7.82-8.65,7.83h-7.12Zm5.53,4.46V729c3.59.47,4.64-.24,4.69-3.6q.13-10.44,0-20.88C167.79,701.42,166.55,700.56,163.2,700.93Z" transform="translate(1.38)"/><path class="cls-4" d="M57.81,701.23v10.92h6.3v4.63H57.88v11.83H64.6v4.9H52.17v-37H64.33v4.68Z" transform="translate(1.38)"/><path class="cls-4" d="M36.19,696.52h5.45v32.21h7.2v4.77H36.19Z" transform="translate(1.38)"/><path class="cls-4" d="M151.59,733.56h-5.42v-37h5.42Z" transform="translate(1.38)"/><path class="cls-4" d="M69.79,733.47V696.58h5.52v36.89Z" transform="translate(1.38)"/><path class="cls-4" d="M151.85,591.33v-8.07l-.33,0c-.43,2.11-.81,4.23-1.32,6.32-.11.46-.66.81-1,1.21-.36-.39-.93-.73-1-1.18-.54-2.22-1-4.47-1.68-6.67v7.63c-1.13.44-1.85.49-1.84-1,0-4,0-8,0-12.21h2.59L149,586l.31,0c.56-2.92,1.12-5.84,1.69-8.83h2.53c0,4.24,0,8.45-.06,12.66C153.5,590.26,152.7,590.62,151.85,591.33Z" transform="translate(1.38)"/><path class="cls-8" d="M169.44,577.13h1.88c3.48,0,4.84,1.73,3.73,5.1a5.61,5.61,0,0,0,0,2.79,44.8,44.8,0,0,1,.06,5.57c-1.26.46-2,.3-1.94-1.36a15.53,15.53,0,0,0,0-3.27c-.08-.58-.62-1.1-1-1.65l-.71.29v6l-2,.2Zm2.1,5.71c1.94-.15,1.7-1.49,1.59-2.52-.07-.58-.67-1.11-1-1.66l-.57.33Z" transform="translate(1.38)"/><path class="cls-8" d="M165.65,599.83c-.08,1.37-.09,2.87-.26,4.36a2.61,2.61,0,0,1-2.9,2.53,2.58,2.58,0,0,1-2.85-2.59c-.13-2.93-.14-5.86,0-8.78.07-1.77,1.26-2.63,3-2.6a2.56,2.56,0,0,1,2.76,2.66C165.55,596.83,165.58,598.27,165.65,599.83Zm-2.31.06h0c0-1.37.06-2.74,0-4.1,0-.41-.54-.79-.82-1.18-.28.34-.79.66-.8,1-.07,2.73-.06,5.47,0,8.2,0,.33.53.65.81,1,.28-.34.76-.65.78-1C163.4,602.5,163.34,601.19,163.34,599.89Z" transform="translate(1.38)"/><path class="cls-8" d="M189.19,600.33v6.18h-2V592.83h3c1.85,0,3,.91,2.73,2.74-.5,3.16.22,6.26.2,9.38,0,.07,0,.16,0,.21-.37.49-.75,1-1.13,1.46-.35-.52-.93-1-1-1.57-.16-1.14,0-2.34-.11-3.47-.08-.56-.66-1.05-1-1.56Zm.12-1.94c1.74.28,1.59-.91,1.6-1.88s.2-2.19-1.6-1.9Z" transform="translate(1.38)"/><path class="cls-8" d="M167.41,606.42V593c.54-.05,1-.14,1.45-.14,4-.06,5.39,1.91,4,5.69a3.06,3.06,0,0,0-.2,1.26c.23,2.19.51,4.37.79,6.71h-2.05c-1-2,.86-4.73-1.2-6.35l-.79.12c0,1.61-.06,3.22,0,4.83S168.88,606.89,167.41,606.42Zm2.12-11.82v3.79c1.74.26,1.58-.92,1.59-1.89S171.28,594.36,169.53,594.6Z" transform="translate(1.38)"/><path class="cls-9" d="M52.07,693.87c-.38-.53-1-1-1.1-1.58-.2-.78,0-1.64-.09-2.45a6.1,6.1,0,0,0-.66-1.52l-.68.17c0,1.32.07,2.65,0,4,0,.42-.6.8-.92,1.2-.29-.37-.81-.74-.82-1.12-.07-3.33,0-6.67,0-10.17.83,0,1.49-.09,2.15-.09,2.3,0,2.92.63,2.93,2.89v8.18Z" transform="translate(1.38)"/><path class="cls-8" d="M152.39,593c4.45-.39,5.33,0,5.78,2.82.58,3.58-.27,4.93-3.78,5.74v5l-2,.13Zm2,1.13c0,2-.06,3.1,0,4.24,0,.37.4.71.61,1.06.35-.32,1-.61,1-1a9.67,9.67,0,0,0,0-3C155.87,595,155.17,594.74,154.35,594.08Z" transform="translate(1.38)"/><path class="cls-10" d="M180.77,592.8a22.15,22.15,0,0,1,3.09,0,5,5,0,0,1,1.51.83c-.49.37-1,.77-1.48,1.11a2.63,2.63,0,0,1-.87.15v3.42l1.93.33c1,2.1-.78,1.7-1.92,2v3.85c.81.59,3.1-.5,2.26,2h-4.52Z" transform="translate(1.38)"/><path class="cls-8" d="M157.73,585.67v5l-2,.19V577.45c3.44-.93,5.18-.29,5.7,2.09C162.2,583.33,161.23,585,157.73,585.67Zm0-2c2.12.17,1.71-1.43,1.71-2.47s.34-2.52-1.71-2.27Z" transform="translate(1.38)"/><path class="cls-9" d="M33.43,687.94a33.64,33.64,0,0,1,0,3.48A2.3,2.3,0,0,1,31,693.77a2.21,2.21,0,0,1-2.54-2.13,69.5,69.5,0,0,1,0-7.36c.07-1.43,1.07-2.09,2.55-2.09a2.21,2.21,0,0,1,2.4,2.26c.11,1.15,0,2.32,0,3.49Zm-2.17-4.69c-1.46,1.93-1.43,7.64,0,9.27A20.59,20.59,0,0,0,31.26,683.25Z" transform="translate(1.38)"/><path class="cls-5" d="M35.25,693.48V682.12c1.46.25,3.2.06,4,.84s.36,2.46.47,3.75a5.92,5.92,0,0,0,.13,1.47C41.26,692.13,39.74,694,35.25,693.48ZM37,688.06v4l.53.3c.32-.49.9-1,.91-1.47C38.43,689.9,39,688.5,37,688.06Zm.85-4.56-.83.21v3l.47.23c.3-.44.84-.88.85-1.34A7.83,7.83,0,0,0,37.82,683.5Z" transform="translate(1.38)"/><path class="cls-4" d="M163.05,577.27c4.26-.39,4.27-.38,4.32,1.51l-2.22.31c0,.65-.1,1.24-.12,1.83s0,1.09,0,1.76l2.2.39c.76,2.18-1.27,1.26-2.08,1.87v4l2.25.18c.31,1.88-.09,2-4.35,1.47Z" transform="translate(1.38)"/><path class="cls-10" d="M178,606.54h-2.26c0-3.15,0-6.2,0-9.24,0-1,.66-2.43-1.23-2.7-.18,0-.23-1-.38-1.8,1.64,0,3,0,4.33,0a1.27,1.27,0,0,1,1,.7c.08.35-.23.81-.42,1.19-.3.62-.91,1.21-.93,1.83C178,599.8,178,603.06,178,606.54Z" transform="translate(1.38)"/><path class="cls-5" d="M40.93,693.37c.47-3.36.86-6.73,1.51-10,.11-.55,1.32-.89,2.34-1.52.67,4.31,1.22,7.93,1.78,11.55l-.48.44-1.31-1.24c-.3-.29-.64-.86-.87-.82-.42.07-.78.5-1.13.81s-.88.85-1.31,1.28ZM44.44,690c-.09-.9-.14-1.65-.25-2.38s-.28-1.27-.43-1.91C43.06,689.91,43.06,689.91,44.44,690Z" transform="translate(1.38)"/><path class="cls-8" d="M27,688c0,1.17.05,2.33,0,3.49a2.18,2.18,0,0,1-2.23,2.23,2.11,2.11,0,0,1-2.52-1.88,59.26,59.26,0,0,1,0-7.77c.1-1.44,1.3-2,2.73-1.87A2.09,2.09,0,0,1,27,684.53c0,1.16,0,2.33,0,3.49Zm-1.81-4.34c-1.4,1-1.85,7.19-1.21,8.05.14.19.55.43.63.37.28-.21.66-.53.68-.84a29.69,29.69,0,0,0,.07-3.27C25.33,686.55,25.25,685.12,25.19,683.68Z" transform="translate(1.38)"/><path class="cls-8" d="M179.21,590.71h-1.83V577.28l1.83-.17Z" transform="translate(1.38)"/><path class="cls-8" d="M142.35,590.71h-1.84V577.28l1.84-.16Z" transform="translate(1.38)"/><path class="cls-5" d="M17.19,682.28a17.62,17.62,0,0,1,2.45,0,6.13,6.13,0,0,1,1.47.64,15.09,15.09,0,0,1-1.29.85A3.54,3.54,0,0,1,19,684v2.26l1.9,1.44-2,1.24c0,.93.07,2.22,0,3.49-.05.43-.58.81-.89,1.22-.28-.37-.79-.74-.8-1.12-.06-2.93,0-5.86,0-8.8C17.08,683.33,17.14,682.93,17.19,682.28Z" transform="translate(1.38)"/><path class="cls-11" d="M155.75,614.72l1.61-.93a4.75,4.75,0,0,1,.83,1.52,7.59,7.59,0,0,1,0,2.85c-.14.59-.81,1.05-1.24,1.58a13.26,13.26,0,0,1-1.15-1.47,5.1,5.1,0,0,1-.39-1.31l-.56-.11-.76,2.68-.31,0v-6l1.68.9-1.07,1,.7.72Z" transform="translate(1.38)"/><path class="cls-11" d="M157.92,625.81l-2,1.56-.51-2.84h-.24l-.48,2.37-.46-.06v-5.63l.45,0,.64,2.77c.23-1.28.35-2,.48-2.66l.51,0,.35,3.87.3,0,.57-2c.29.11.66.15.85.36a9.42,9.42,0,0,1,.82,1.29l.43,1.89-.42.21-.75-1.1Z" transform="translate(1.38)"/><path class="cls-12" d="M149.37,621.94c.19,1.64.38,3.29.59,5.16l-1.61.12c.08-1.2.15-2.2.22-3.24l-1.94.48-.48,2.42-.64-.06v-5.88l1.26,2.23.37-1.68,2.2.42Z" transform="translate(1.38)"/><path class="cls-13" d="M191.08,631.5a3.43,3.43,0,0,1,0,1.4,6.91,6.91,0,0,1-1.16,1.4c-.4-.45-1-.85-1.15-1.35a7.87,7.87,0,0,1,0-3c.11-.56.81-1,1.24-1.49a6,6,0,0,1,1.11,1.45,4.53,4.53,0,0,1,0,1.61Z" transform="translate(1.38)"/><path class="cls-13" d="M172,627.27V621c.82.27,1.94.41,2,.69a18.55,18.55,0,0,1,.08,4.59C174.07,626.6,173,626.83,172,627.27Z" transform="translate(1.38)"/><path class="cls-13" d="M172.11,634.09v-5.46c1.63-.46,2.33.08,2.25,1.67,0,.66,0,1.34.07,2C174.51,633.93,173.84,634.61,172.11,634.09Z" transform="translate(1.38)"/><path class="cls-11" d="M152.92,626.53l-1.23-2.63-.35,2.83H151v-5.66l1.14,1.29.74-1.15.36.23v5Z" transform="translate(1.38)"/><path class="cls-14" d="M152.7,633.21a19.46,19.46,0,0,1,.05-3.35c.11-.52.72-.94,1.1-1.4.39.52,1,1,1.12,1.57a5.28,5.28,0,0,1,0,2.53,5.79,5.79,0,0,1-1.2,1.71Z" transform="translate(1.38)"/><path class="cls-14" d="M172.88,619.37V614c1.62-.38,2.34.14,2.2,1.8-.06.72,0,1.45,0,2.17C174.94,619.11,174.61,620.12,172.88,619.37Z" transform="translate(1.38)"/><path class="cls-11" d="M178.15,619.48l-1.24-2.11-.51,2.12h-.6v-5.26l2.39.28C178.17,616.16,178.16,617.82,178.15,619.48Z" transform="translate(1.38)"/><path class="cls-13" d="M190.25,619.42l-.44-2.27-.34,0-.44,2.3-.41,0v-5.49c1.6-.39,2.32.15,2.22,1.83-.07,1.21,0,2.43,0,3.65Z" transform="translate(1.38)"/><path class="cls-13" d="M167.64,626.81l-.89-2-.53,2-.34,0v-6l1.37,2.62.4-2.07.4,0v5.4Z" transform="translate(1.38)"/><path class="cls-13" d="M191.35,621.15l1,.85.89-1.28v6l-.89-.68-1.07.78C191.3,624.94,191.32,623,191.35,621.15Z" transform="translate(1.38)"/><path class="cls-11" d="M185.69,621.46c2.12,1.53,1.42,3.55,1.89,5H185C185.2,625.09,185.41,623.51,185.69,621.46Z" transform="translate(1.38)"/><path class="cls-15" d="M162.93,616.17a1.66,1.66,0,0,1,1.31,2.39c-.17.49-.92.78-1.4,1.16-.33-.42-.9-.83-.93-1.28a33,33,0,0,1,0-3.85s.12-.1.14-.09a3.61,3.61,0,0,1,.3.25Zm0,2.54h.4l-.07-1.47H163Z" transform="translate(1.38)"/><path class="cls-11" d="M183.64,618.71l-.36-2.05-.73,2.73-.7-.15c.34-1.8.68-3.61,1.05-5.61a12.91,12.91,0,0,1,1.93,3c.18.59-.48,1.43-.77,2.16Z" transform="translate(1.38)"/><path class="cls-11" d="M164.85,619.26c.39-1.66.79-3.33,1.19-5l.79.07.92,5.44c-1-.83-1.83-1.94-2.61.5Z" transform="translate(1.38)"/><path class="cls-13" d="M162.47,624v2.5c-1.44.76-2.31.49-2.43-1.24a6.29,6.29,0,0,1,0-2.21,8.66,8.66,0,0,1,1.23-2l1.18,2-1.35-1v4.12l.51,0a8.14,8.14,0,0,1-.08-1.7C161.58,624.28,162.15,624.18,162.47,624Z" transform="translate(1.38)"/><path class="cls-13" d="M169.17,617.31l-.27,2.1h-.65c0-1.67,0-3.35,0-5,0-.21.57-.62.62-.58.59.43,1.45.85,1.6,1.43s-.4,1.41-.64,2.12Z" transform="translate(1.38)"/><path class="cls-13" d="M175.75,634.22l-.93-5.53.57-.14.86,3.17.57-3.15.66.11-.84,5.59Z" transform="translate(1.38)"/><path class="cls-15" d="M179.58,626.79l-.67-1.91-.64,1.46c-.88-.54.25-4.19,1.74-5.17v5.53Z" transform="translate(1.38)"/><path class="cls-9" d="M22.24,591.1l3.26,4.06-1.41,1.29A5.42,5.42,0,0,1,22.24,591.1Z" transform="translate(1.38)"/><path class="cls-11" d="M159,633.32c-.64-1.65-1.18-3-1.85-4.75h2.65l-1,.73a22,22,0,0,1,.74,3.66c0,.42-.73.88-1.12,1.32L157.41,633l.37-.37Z" transform="translate(1.38)"/><path class="cls-14" d="M159.11,614.37c0-.06.07-.17.1-.16a12,12,0,0,1,1.62.11c.07,1.65,0,3.3,0,4.95l-1.7-.12A3.44,3.44,0,0,0,159.11,614.37Z" transform="translate(1.38)"/><path class="cls-11" d="M164.54,630.38c.66.2,1.76.25,1.88.62a6.67,6.67,0,0,1,0,2.78c0,.21-.69.54-1,.46s-.87-.53-.9-.86a23.72,23.72,0,0,1,0-3Z" transform="translate(1.38)"/><path class="cls-11" d="M162.51,632.2c-.66-.15-1.83-.19-1.88-.45a9,9,0,0,1,.11-3c0-.15.74-.37,1-.27a1.2,1.2,0,0,1,.7.86c.08.94,0,1.9,0,2.86Z" transform="translate(1.38)"/><path class="cls-13" d="M182.14,630.5c-.31-.25-.91-.56-.87-.72a2.1,2.1,0,0,1,.79-1.24c.19-.12,1.07.34,1.07.52a26.16,26.16,0,0,1-.38,2.9c-.09.64-.17,1.28-.29,2.12-1.2.17-1.38,0-.9-1.38.24-.69.49-1.38.74-2.08.06-.33.13-.67.2-1l-.36,0Z" transform="translate(1.38)"/><path class="cls-16" d="M142.31,626,140,627a16.08,16.08,0,0,1-.84-2.78,15.13,15.13,0,0,1,.16-2.84l.53,0c.1,1.57.19,3.13.31,5.28l2.13-2.35C142.26,624.94,142.29,625.49,142.31,626Z" transform="translate(1.38)"/><path class="cls-13" d="M189.63,624.38l-.94,2.52-.48,0c0-1.76,0-3.52,0-5.28,0-.15.61-.29.93-.44-.18,1.09-1.21,2.59,1.18,2.43l0,.8Z" transform="translate(1.38)"/><path class="cls-13" d="M178.84,614.13l1.37-.25v5.76l-1.32-.17C178.87,617.69,178.86,615.91,178.84,614.13Z" transform="translate(1.38)"/><path class="cls-13" d="M187.19,613.71v5.87c-.15,0-1.1-.11-1.11-.27a43.2,43.2,0,0,1-.07-5.09C186,614,186.85,613.85,187.19,613.71Z" transform="translate(1.38)"/><path class="cls-14" d="M144.12,621.4c.13,1.65.29,3.3.33,5,0,0-1.13.12-1.74.19a17.91,17.91,0,0,0,.87-2.15C143.83,623.41,144,622.4,144.12,621.4Z" transform="translate(1.38)"/><path class="cls-11" d="M193,634.25l-1.38-.1c.37-1.78.7-3.4,1-5L193,629Z" transform="translate(1.38)"/><path class="cls-11" d="M144.12,621.4c-.17,1-.29,2-.54,3a17.91,17.91,0,0,1-.87,2.15l-.4-.5c0-.55-.05-1.1-.07-1.66v-.8l.09-1.66.9-.74.84.28Z" transform="translate(1.38)"/><path class="cls-13" d="M191.32,614.15l2,.91-.62,4.31-.32,0C192.06,617.74,191.71,616.06,191.32,614.15Z" transform="translate(1.38)"/><path class="cls-14" d="M183,623.53c.18-.79.35-1.58.52-2.38l.53.06v6c-.28-.67-.38-.92-.49-1.17C183.36,625.19,183.17,624.36,183,623.53Z" transform="translate(1.38)"/><path class="cls-15" d="M164.54,630.38l0,0-1.9,3.85-.33-.07.18-1.92,0,0,1.95-3.65.31,0Z" transform="translate(1.38)"/><path class="cls-13" d="M159.11,614.37a3.44,3.44,0,0,1,0,4.78Z" transform="translate(1.38)"/><path class="cls-17" d="M183,623.53c.19.83.38,1.66.56,2.48l-2,.1c-.05-.71-.11-1.42-.13-1.7l.85-.47Z" transform="translate(1.38)"/><path class="cls-9" d="M182.27,623.94l-.85.47c0,.28.08,1,.13,1.7-.06.19-.12.38-.19.57h-.23v-5.42l.52-.09Z" transform="translate(1.38)"/><path class="cls-15" d="M118,676.82l.55,4.82-.68.08-.57-4.83Z" transform="translate(1.38)"/><path class="cls-6" d="M190.39,624.38l0-.8.09-2.07.9-.36c0,1.89,0,3.79-.07,5.69l-.79,0C190.46,626.05,190.42,625.22,190.39,624.38Z" transform="translate(1.38)"/><path class="cls-6" d="M162.47,624c-.32.14-.89.24-.92.43a8.14,8.14,0,0,0,.08,1.7l-.51,0v-4.12l1.35,1Z" transform="translate(1.38)"/><path class="cls-6" d="M178.84,614.13c0,1.78,0,3.56,0,5.34h-.74c0-1.66,0-3.32,0-5Z" transform="translate(1.38)"/><path class="cls-12" d="M115.53,598.45c-.09-.94-.17-1.87-.25-2.81l2,1-.73,1.83a.57.57,0,0,1-.36.08Z" transform="translate(1.38)"/><path class="cls-15" d="M190.45,621.51l-.09,2.07c-2.39.16-1.36-1.34-1.18-2.43Z" transform="translate(1.38)"/><path class="cls-13" d="M159.19,624.8a9.42,9.42,0,0,0-.82-1.29c-.19-.21-.56-.25-.85-.36l.3-2,.77,0Z" transform="translate(1.38)"/><path class="cls-9" d="M26.08,599.49l1.14-.7-.36,1.82Z" transform="translate(1.38)"/><path class="cls-16" d="M142.33,621.92l-.09,1.66-1.53-1.87.42-.32Z" transform="translate(1.38)"/><path class="cls-15" d="M190.39,624.38c0,.84.07,1.67.1,2.5-.28-.83-.57-1.67-.86-2.5Z" transform="translate(1.38)"/><path class="cls-17" d="M162.93,616.17l-.54-1.42Z" transform="translate(1.38)"/><path class="cls-14" d="M144.07,621.46l-.84-.28Z" transform="translate(1.38)"/><path class="cls-12" d="M149.34,621.91c.16-.1.31-.21.47-.3l.11.15-.55.18Z" transform="translate(1.38)"/><path class="cls-13" d="M157.92,625.81h0Z" transform="translate(1.38)"/><path class="cls-18" d="M107.54,655.68c1,3,1.73,5.75.65,9.16-1.59,5-2.25,10.35.38,15.42l-.32.13.37.1.13.46c.09,1.35.17,2.71.31,4.06,0,.09.52.12.8.18.51,1.53,1,3.06,1.54,4.6,0,.11-.05.21-.07.32l.25-.28.7,1.92c-1.13.82-1.14,1.65,0,2.46.4,2,.77,4,1.21,5.95.19.85.53,1.66.8,2.49l-2.81.65-2.43.41-3.2,1.19-1.81.78-1.47-3.23,1.28-.43h.32l1.23,1.23.17.1-.18-.1.41-.81h.82l.19.08-.17-.1a1.61,1.61,0,0,0-1.66-2c0-.13,0-.25,0-.38.13-.6.25-1.21.38-1.81,0-.24-.07-.47-.11-.71h1l.82,0c.35,1.37.66,2.75,1.07,4.1.09.31.5.56.81.75.07,0,.54-.31.52-.44a22.6,22.6,0,0,0-.6-3.68c-.1-.35-.88-.5-1.35-.75l.69-3.64-2.4.54-1.65.3-.36-1.7,3.29-1.28-.39-1.12c-.15-1.37-.16-2.84-2.09-3l0,0L103.35,686l-.38-.39c-1.58-.25-2.93-.78-3.31-2.57a2.26,2.26,0,0,1,0-.26l-.31-5.4L98,676.56l-.38-1.65-.82-1.19,1.2-.8c.14.53.27,1.06.41,1.58.06.18.11.36.16.54l.16-.11-.31-.44v-1.57l2-.51,2.15,0,3.74-.34c-.58-2.38-1.7-3.58-3.78-3.67l-.11-.32,0-.57-.3.42-1.27,0c.4-1.47.9-2.93,1.16-4.43.12-.73.06-1.89-.39-2.21s-1.53,0-2.33.05l0,0-2.31-.45-2.58-4.51c1.92-1.23-.11-2.21-.08-3.28l-1.11.84-.09-2.08a13.11,13.11,0,0,0-2.64-9.44c-1-1.34-1.7-2.58.09-3.83l-.93-1.8-.26.44c-.38-.21-1.11-.43-1.1-.62.08-1.89-1.14-2-2.52-2l.51-.8c2-.15,4.06-.44,6.09-.41a8.75,8.75,0,0,1,8.29,5.23C103.11,644.25,105.24,650,107.54,655.68Zm-9.92-2.16L98,654c1.17.75,0,3.39,2.42,3.19-.16-1.12-.31-2.16-.46-3.19l1.21.23a9.85,9.85,0,0,0-.27-2.15,19.82,19.82,0,0,0-1.21-2.33c-1,1.09-1.5-.37-2.55-.71l.81,3.23-.43.47-1.36-.6c.41.79-.24,2.1,1.45,1.41ZM105,677.88c-.14-3.41-.86-4.8-2.39-4.39l1.14,4.25,1,1c.56,2.62,1.1,5.25,1.72,7.86,0,.12.81.07,1.47.13-.58-1.85-1-3.47-1.62-5-.37-1-.89-2-1.34-3Zm-10.4-38.69A12,12,0,0,0,91.87,634l-.56.31,2.19,5.27,1.13,4.22.9-.61.9,1.34-1.31,1,.11.5,3,.14v-3l-2.66-.25Zm.19,12-.68.3,1.06,1.75.38-.21Zm14.63,44.06.4-.18-.64-1.56-.5.23ZM97.57,655.92l.43-.3-.77-1.06-.39.26Zm3.27,21.29-.34.15.45,1,.33-.15Zm-3.93-29.94.11-.5-1.06-.1,0,.27Zm3,27.26c-.09-.12-.14-.27-.22-.28s-.2.08-.31.12l.28.36Zm11.08,26c-.05-.11-.07-.29-.15-.33s-.22.08-.34.12c0,.12.06.3.14.33S110.89,700.53,111,700.48ZM110.3,699c.11,0,.25-.08.3-.16s0-.21-.08-.31-.24.09-.29.17S110.27,698.93,110.3,699ZM95.36,639.3l-.07.1.11,0Z" transform="translate(1.38)"/><path class="cls-19" d="M107.54,655.68c-2.3-5.68-4.43-11.43-7-17a8.75,8.75,0,0,0-8.29-5.23c-2,0-4.06.26-6.09.41-1-.78-1.37-.37-1.38.73a.75.75,0,0,1-.26,0l-2.25-2.79-1.5,1.89a1.36,1.36,0,0,0-2-1.19c-1.09.74-1.3.08-1.89-.53-.3-.31-1.07-.17-1.63-.23a5.6,5.6,0,0,0,.08,1.84c.13.33.79.44,1.22.65a2.62,2.62,0,0,0-1.11,3l-2.09.83-.48-2.27-.77-.31h0c.67-1.08-.18-1.34-.91-1.66l0-1.14,1.33-3.33a22.78,22.78,0,0,0,2.62-3.8c.28-.62-.37-1.71-.78-2.5-.1-.17-1,.06-1.47.11l0,0-.58-1c1.24-.31,2.61-1.11,3.71-.84A58,58,0,0,1,83.45,624c1.84.74,3.67,1.5,5.47,2.33,1.15.52,2.23,1.17,3.34,1.76a5,5,0,0,0,.71,1.46c.33.35,1,.36,1.39.66,2.46,1.79,3,1.63,3.72-1.29h.71a.65.65,0,0,0,.13.16.28.28,0,0,0,.18,0c.73-1,1.46-2.05,2.2-3.07l.94-.06,1.38,2.71a5,5,0,0,0,4.21,3.94c2.55.59,4.37,2.84,4.1,4.89l-.74,2L108.76,635l-1.72.93-.26-.09.29.06a8.51,8.51,0,0,1,1.22,1.41,19,19,0,0,1,.9,2.24c-2.08-.61-2.61-.08-2.13,2.13l-.62.78.6.17v-1l1.65,1.65-.86.38-.15.22.22-.15.8-.44,2.06,3.28,1.24,2.06.27,1,0,0c.55,2.21-.93,3.34-2.41,4.45C109.09,654.64,108.31,655.15,107.54,655.68Zm3.32-7.53-.93-.27-1.63,2.4,1.82,1.6C110.43,650.34,110.65,649.24,110.86,648.15ZM78.87,627l-.63.49,1.14,2.71.74,0c.22-.63.8-1.45.59-1.85C80.38,627.77,79.51,627.45,78.87,627Zm25.45,4.07-.06.17.21,0a.52.52,0,0,0,0-.18S104.36,631.09,104.32,631.08Z" transform="translate(1.38)"/><path class="cls-20" d="M104.67,619.5l-.89.79-.42-.07c0-.57-.06-1.13-.1-1.71l-1.5.13-.41-2.48.81-1.67-.58-.23-.7,1.12c-1.62-1-3.26-1.91-4.84-2.94-.92-.59-1.69-1.42-2.63-2a28.79,28.79,0,0,0-3.17-1.36c-2.18-.94-2.53-3.15-3.47-5,0,0,.12-.11.11-.14a2.3,2.3,0,0,0-.15-.32l0-.05.11-.6c0-.48,0-.95,0-1.42.14-3.54-.22-3.89-3.94-3.74.66,1.05,1.3,2.08,1.93,3.1l.09,1.23-3.38-4.06-.61.46,3.19,4,.3.87.49.77-.12,1.5.06,0-1.6.19-1.24.62,1.24.86.2,0,.19,0,.42.07v3L89.67,612l-5.28,6.94c-1.49-2-5.1.06-6.24-2.74l-2.8-.38,1.72-1.48.84-.61h0c.42-.52,1.3-1.2,1.18-1.53-.35-1-.73-2.31-2.34-1.87l-.87-3.17c1.32-.37,1.26-1.43,1.22-2.47.47-2.3.88-4.61,1.43-6.89,1-4,2.85-5.84,6.24-6.22a1.86,1.86,0,0,1,2.16.91,12.91,12.91,0,0,0,3.29,2.92A9.51,9.51,0,0,1,93,598.47c1.68,3.14,4.57,3.79,7.88,2.94l.1,0,.09,0,.33.39c.06,1.37.13,2.74.19,4.12a11.45,11.45,0,0,1-1-.58c.84-1.88-.67-1.64-1.65-1.88a7.77,7.77,0,0,0-2.38-.62c-1.52.16-3.43-1-4.22,1.11a4.47,4.47,0,0,1,.49,2.32c-.18,1.07,0,1.49,1.11,1.86a18.39,18.39,0,0,1,5.94,3.23l1.1.86c.2-1.13.41-2,.49-2.84a6.11,6.11,0,0,0-.19-1.39c.41.22,1.19.48,1.17.67-.14,1.53-.43,3.06-.69,4.73l1.15.38,2.47,2h0L105,617h-.4C104.62,617.83,104.64,618.67,104.67,619.5ZM103,617.78c.16-.24.32-.38.33-.52s-.17-.25-.26-.38c-.12.13-.31.25-.35.4S102.83,617.55,103,617.78Zm.58-1.86s.11,0,.13-.08,0-.11,0-.16l-.2.11Z" transform="translate(1.38)"/><path class="cls-21" d="M86.52,673.69c-3.91-1.7-5.1-5.44-6.42-8.93-1.89-5-3.41-10.14-5.08-15.23-.18-.57-.27-1.18-.4-1.76l.06,0,.66,0L79,658.29l.57-.14c-.38-1.44-.71-2.88-1.13-4.3-.74-2.44-1.53-4.87-2.29-7.31q1.23-2.24,2.48-4.47l2.08-2.15c.44,1.23.84,2.48,1.35,3.68.16.4.11,1.64,1.11.57l.07,1.18-1.68.32,2,.92h0l.79,1.7c0,.11,0,.22,0,.33-1.33,1.32.44,1.53.7,2.28.24.92-1.4,2.44,1,2.7l.09,3.2,1.2,1.26h0c0,.38,0,.77-.07,1.15-.25.36-.77.81-.69,1.06.81,2.49,1.73,5,2.8,7.94l1.3-1.86,1.65-.07c-.9.9-2.24,1.65-.94,3.55l2.91-3.12,1.29-1.64H96l.44.07,1.12-.64c0-.35,0-.71,0-1.06l.92.45,0-.52-.94.09-.29-.84,1.94-1.23,0,0c.55,1,1.29,2-.07,3-.32.25-.25,1-.36,1.49l-1,.21v.32l1.2.2-.16.94a14.59,14.59,0,0,0-1.62,0c-3.7.42-6.44,4-5.48,7l0,1.05-.28.76.72-.2h0l.83-.42h0l.42-.42h0l.81,0a13.73,13.73,0,0,0,.39,3.54c1,2.57,2.17,5,3.28,7.56-.08,2.52,2.75,7.58,4.09,8,.13,1.14.17,2.09.34,3a11.11,11.11,0,0,0,.65,1.71l-.81-.2.23,3.27c-2.72-5.77-5.5-11.51-8.14-17.32-.78-1.71-.88-3.78-1.83-5.36s-2.55-2.7-3.89-4c-.67-.64-1.41-1.22-2.12-1.82a9.8,9.8,0,0,1,1.21.05c.76.12,1.52.28,2.28.43l.2-.6-1.8-2.51-.35,1.23c-.43-1.11-.77-2.14-1.24-3.11a10.83,10.83,0,0,0-1.16-1.64c.18-.18.56-.48.53-.52-.44-.7-.93-1.37-1.42-2.06l-1.57.92-1.29-3.59-1.6.63c.87,1.88,1.69,3.66,2.52,5.43.28.06.56.1.83.18s.57.2.85.3c-.74,1.47.39,2.31,1.09,3.31C85.94,672.63,86.21,673.17,86.52,673.69Zm15.07,23.71h-.16V698h.16Z" transform="translate(1.38)"/><path class="cls-22" d="M77.1,604.7c0,1,.1,2.1-1.22,2.47-.84.12-2.16-.62-2.1,1.15C72,608,70.29,609.55,70.55,611a17.27,17.27,0,0,1,0,2.83l3.07,2.9a27,27,0,0,0-2.56,1A4.84,4.84,0,0,0,69.77,619c-.73.84-1.4,1.74-2.1,2.61l-2.25-3.19a47.29,47.29,0,0,0,1.92,7c.81,2.38,1.66,4.74,2.5,7.11l-.24.19c-.38-.63-.82-1.23-1.14-1.89-1.27-2.68-2.51-5.37-3.76-8.06-.93-2.22-1.91-4.43-2.78-6.68a12.74,12.74,0,0,1-.44-2.34l0,0L63,616.24c.09.31.18.62.26.93l.3-.13-.44-.9,2.23-4.68A20.8,20.8,0,0,1,77.1,604.7Z" transform="translate(1.38)"/><path class="cls-19" d="M67,646.57c-.17-2.31-.33-4.63-.49-6.94l1.35.23,1.82-3.56.54,1,.67-1,1.26-.78h0l0,1.22.06,2.41-.48,2.82-1.27.81-1.55-.19,1-1.11-2.1-.72-.43.41,2.29,2.52c-.14,1.58.76,1.92,2.08,1.76l1.29.72,2,.88-.33.69-.06.06c-2.82,1.4-5.17-.13-7.61-1.19Z" transform="translate(1.38)"/><path class="cls-5" d="M101.63,605.91c-.06-1.38-.13-2.75-.19-4.12h.48l4.27,3.46c.06.75.16,1.5.17,2.25,0,1,0,2-.08,3-.06,1.36.77,3-1.27,3.71l-2.07-.41-1.15-.38c.26-1.67.55-3.2.69-4.73,0-.19-.76-.45-1.17-.67l.73-1.92Z" transform="translate(1.38)"/><path class="cls-6" d="M113.27,609.62l.76,2.07.36.39c.32,1.55,2,3.79,2.76,3.67.54,3.86.07,5.28-1.74,6.14-.67-1.27-1.4-2.47-2-3.76a5.54,5.54,0,0,1-.14-1.84l.66-.23-.08-.26-.83.22-3.13.31c0-1.84,1.27-2.31,2.5-2.32l-.86-2-.78-4.07.35-.44,2.06,1.25h0C113.22,609.07,113.24,609.34,113.27,609.62Z" transform="translate(1.38)"/><path class="cls-16" d="M90,573.08l4.48,4.47-2.58,3.87-1.69-1.8c-1-1.41-2.34-2.7-2.9-4.27-.34-1,.51-2.34.83-3.53,0-.4,0-.8,0-1.21l1.26.84-.06,1Z" transform="translate(1.38)"/><path class="cls-12" d="M102.24,626l-.94.06-.41-1.22c.57-.29,1.16-.56,1.7-.89a4.83,4.83,0,0,0,.77-.73c1,.38,2.3.53,3.07,1.22s1.09,1.72,2.4,1,2-1.6,1.77-3.11c-.12-.63-.34-1.25-.63-2.26a3.2,3.2,0,0,1,1.83,3.17c.09,1.24-.09,2.52.1,3.74s0,1.72-1.15,2.12a4,4,0,0,1-5-2c-.15-.36-.38-.67-.86-1.5-.16,1-.25,1.54-.33,2.07l-1.05-3.15-.49-.17Z" transform="translate(1.38)"/><path class="cls-23" d="M111.57,612.06l.86,2c-1.23,0-2.49.48-2.5,2.32l-.87.12c-.22-2.32-.64-4.55-2.78-6,0-1,.09-2,.08-3,0-.75-.11-1.5-.17-2.25,0-.51.07-1,.1-1.52l2.76,1.41,0,0,.42.43,0,0,0,1.22c-.1.27-.36.64-.27.8.69,1.12,1.75,2.08,1.15,3.65C110.34,611.3,111.15,611.76,111.57,612.06Z" transform="translate(1.38)"/><path class="cls-24" d="M111.49,703.3l2.81-.65q.32,2.73.61,5.47l-.47.47-.21-.2c0,.05,0,.11,0,.13a.85.85,0,0,0,.17.06l-2,.38a.94.94,0,0,1-.07-.37l-.45-1.21-1.21-.36c.1-1-.19-2.33,1.54-2.36Zm2.41,4.17,0-.16-.2,0a.94.94,0,0,0,.06.15Z" transform="translate(1.38)"/><path class="cls-16" d="M106.28,610.46c2.14,1.44,2.56,3.67,2.78,6-1.3-.06-1.67.73-1.67,1.84h0l-1.56,0L104.59,617h.4l.42-1.23h0l-.4-1.6C107.05,613.49,106.22,611.82,106.28,610.46Z" transform="translate(1.38)"/><path class="cls-13" d="M103.36,623.19a4.83,4.83,0,0,1-.77.73c-.54.33-1.13.6-1.7.89h0l-.82.16-.52-.6a2.17,2.17,0,0,0-.37-2.82c1.11-.35,2.24-.68,2.47-2.07l1.69.75.42.07Z" transform="translate(1.38)"/><path class="cls-23" d="M110.76,646.57l-2.06-3.28h0L107,641.63l0,0c-.48-2.21,0-2.74,2.13-2.13l.78.88c0,.26.1.52.14.79l.28.86c.24,1,.48,1.93.73,2.89Z" transform="translate(1.38)"/><path class="cls-15" d="M99.22,585.37l1-2.16c1.3,1.1,3.39,1.35,3.21,3.58,0,.23-.29.43-.44.64h0l-.42-1.23-.52-.66-.27.68h0c-1.44,1.35-.43,1.75.81,2.06-.71,2-2,2.3-3.38.81a6.92,6.92,0,0,1,.91-1.46c.91-.92.34-1.39-.43-1.87l1.29-.08v-.26H99.63Z" transform="translate(1.38)"/><path class="cls-16" d="M61.54,644.09a19.19,19.19,0,0,1,.31-2.15c.31-1.15.82-2.25,1.07-3.4.4-1.86,1-2.16,2.71-1.12l-1.38,4.19Z" transform="translate(1.38)"/><path class="cls-24" d="M104.05,705.68l1.81-.78c.28,1.45.2,3.09,2,3.7l.09.39,0,.44-1.26.22-.89,1-1.06,0c-.23-.71-.45-1.43-.67-2.14C103.77,707.55,102.67,706.61,104.05,705.68Z" transform="translate(1.38)"/><path class="cls-14" d="M113.2,608.8l-2.06-1.25-1.66-2,0,0-.42-.43,0,0c.32-1.52,0-2.43-2.19-2.33l1.66-1.94c1.27,1.23,2.68,2,2,4-.07.21.59.63.84,1C112,606.85,112.59,607.83,113.2,608.8Z" transform="translate(1.38)"/><path class="cls-25" d="M114.44,708.59l.47-.47A5.58,5.58,0,0,1,116,709.2c.18.32.28,1,.1,1.17-.89.72-1.89,1.32-2.85,2l-.18-.23v-.79l-2.08.59-.67-.77.46-.54c.56.11.15-1.81,1.24-.59l.44-1,2-.38Z" transform="translate(1.38)"/><path class="cls-16" d="M64.7,622.72c1.25,2.69,2.49,5.38,3.76,8.06.32.66.76,1.26,1.14,1.89,0,.31,0,.61.05.92-.5-.12-1.33-.1-1.44-.38-1.3-3.08-2.5-6.2-3.67-9.32C64.42,623.56,64.64,623.11,64.7,622.72Z" transform="translate(1.38)"/><path class="cls-26" d="M110.32,711.13l.67.77c.17.87,0,1.33-1,1.52-3.46.66-4.27.27-5.22-2.8l1.06,0h.86l.47-.09,0,.06,0,.43.48,1.12,1.18-1.06,1.17-.12Z" transform="translate(1.38)"/><path class="cls-13" d="M61.54,644.09l2.71-2.48c.16.61.33,1.23.5,1.84s.46,1.45.61,2.19c0,.13-.39.34-.61.52l-1.39-1L62,647.53l-.19-1.93-1.08.17Z" transform="translate(1.38)"/><path class="cls-15" d="M60.7,645.77l1.08-.17.19,1.93,1.39-2.39,1.39,1c-.44,1.62-.62,3.47-3.14,3.53Z" transform="translate(1.38)"/><path class="cls-14" d="M110,640.4l-.78-.88a19,19,0,0,0-.9-2.24,8.51,8.51,0,0,0-1.22-1.41l0,0,1.72-.93,2.43,4.49.79.55c-.14.41-.28.81-.41,1.22h0Z" transform="translate(1.38)"/><path class="cls-7" d="M72.15,635.48l-1.26.78-1.21,0-1.82,3.56-1.35-.23c.64-1.36,1.22-2.74,1.95-4,.17-.3.8-.35,1.22-.52l.3.58c.09-.07.27-.17.26-.22A2.16,2.16,0,0,0,70,635l.14-.39.68-.79.42,0C72,634.14,72.81,634.4,72.15,635.48Z" transform="translate(1.38)"/><path class="cls-14" d="M99.65,585.77c.77.48,1.34,1,.43,1.87a6.92,6.92,0,0,0-.91,1.46L96,586.65l-.1-.08v-.73l.16-.14,3.16-.33.41.06A1.94,1.94,0,0,1,99.65,585.77Z" transform="translate(1.38)"/><path class="cls-26" d="M102.49,702.17l-.23-3.27.81.2h.54l1.37.9c0,.13,0,.25,0,.38.27.69.55,1.37.82,2.06l-.41.81h0L104.18,702h-.32l-1.28.43A.2.2,0,0,1,102.49,702.17Z" transform="translate(1.38)"/><path class="cls-7" d="M106.29,603.74c0,.51-.07,1-.1,1.52l-4.27-3.46C104,601,104.8,601.4,106.29,603.74Z" transform="translate(1.38)"/><path class="cls-14" d="M92.32,588.23l3.6-1.66.09.08c.13.67.26,1.34.45,2.28l-.88.64-3.26-.89Z" transform="translate(1.38)"/><path class="cls-6" d="M96.31,590.79a20.08,20.08,0,0,1,3.18.94,13,13,0,0,1-.52,2.45l-2.7-2.91Z" transform="translate(1.38)"/><path class="cls-12" d="M89.47,571.45l-1.26-.84a14,14,0,0,0,.25-2.39c0-.77-.32-1.52-.29-2.33C89.84,567.46,89.58,569.47,89.47,571.45Z" transform="translate(1.38)"/><path class="cls-14" d="M110.76,646.57l.36-1.63c2.32,1.66,2.72,3.33,1.13,4.7l0,0-.27-1Z" transform="translate(1.38)"/><path class="cls-14" d="M102.24,626l.76-1.72.49.17,1.05,3.15.12.87-.14.12-.9.12Z" transform="translate(1.38)"/><path class="cls-7" d="M90.23,579.62l1.69,1.8c-.31.93-.61,1.85-.91,2.78l-.46-.07Z" transform="translate(1.38)"/><path class="cls-17" d="M113.28,639.2c.26-1,.51-2.08.82-3.34,1.86.52,1,2.16,1.12,3.33Z" transform="translate(1.38)"/><path class="cls-17" d="M84.12,679.62l-.86,1.17-2.74-3.73.22-.25Z" transform="translate(1.38)"/><path class="cls-17" d="M92.32,588.23v.45c-.14.41-.29.81-.44,1.21l-2.08-1.36,2-1.51Z" transform="translate(1.38)"/><path class="cls-7" d="M113.28,639.2h1.94c-.68,1.85-2.15.6-3.24.82l-.79-.55c.24-.65.49-1.3.74-2Z" transform="translate(1.38)"/><path class="cls-21" d="M109.86,685.19c-.28-.06-.79-.09-.8-.18-.14-1.35-.22-2.71-.31-4.06Z" transform="translate(1.38)"/><path class="cls-14" d="M95.9,585.84l-1.67-.73,1.1-1.76.48.12c.08.74.17,1.49.25,2.23Z" transform="translate(1.38)"/><path class="cls-6" d="M104.59,617l1.27,1.25c-.39.42-.79.84-1.19,1.25C104.64,618.67,104.62,617.83,104.59,617Z" transform="translate(1.38)"/><path class="cls-21" d="M112.29,694.21c-1.15-.81-1.14-1.64,0-2.46Z" transform="translate(1.38)"/><path class="cls-14" d="M102.55,588.29c-1.24-.31-2.25-.71-.81-2.06l1.21,1.2h0c0,.12,0,.25,0,.38s-.27.3-.41.44Z" transform="translate(1.38)"/><path class="cls-12" d="M116.09,601.79l-.54-2.89H116c0,1,0,1.94,0,2.91Z" transform="translate(1.38)"/><path class="cls-14" d="M111.56,643.7l.21-1.77.6.09-.36,1.75Z" transform="translate(1.38)"/><path class="cls-14" d="M110.39,642.05c-.09-.29-.18-.58-.28-.86l1.46,0h0Z" transform="translate(1.38)"/><path class="cls-17" d="M84.15,680.73l.9.92-.5.57-1-.85Z" transform="translate(1.38)"/><path class="cls-22" d="M70.81,633.8l-.68.79-.48-1c0-.31,0-.61-.05-.92l.24-.18Z" transform="translate(1.38)"/><path class="cls-9" d="M25.69,596.4l.68,1.38-.29.17-.83-1.28Z" transform="translate(1.38)"/><path class="cls-15" d="M114.39,612.08l-.36-.39.5-.67Z" transform="translate(1.38)"/><path class="cls-7" d="M101.11,601.4l-.09,0-.1,0,.41-.6a2.22,2.22,0,0,1,.18.23A4.64,4.64,0,0,1,101.11,601.4Z" transform="translate(1.38)"/><path class="cls-14" d="M113.27,609.62c0-.28,0-.55-.07-.83l.66.46Z" transform="translate(1.38)"/><path class="cls-12" d="M90,573.08l-.61-.63Z" transform="translate(1.38)"/><path class="cls-25" d="M113.25,712.33l-.81.38-.12-.26.75-.35Z" transform="translate(1.38)"/><path class="cls-2" d="M114.8,678.83l0,.85h-.17v-.85Z" transform="translate(1.38)"/><path class="cls-13" d="M67,646.58l-1,.35-.06-.27,1-.09Z" transform="translate(1.38)"/><path class="cls-16" d="M70,635a2.16,2.16,0,0,1,.25.44c0,.05-.17.15-.26.22l-.3-.58A.35.35,0,0,1,70,635Z" transform="translate(1.38)"/><path class="cls-14" d="M104.66,628.44c.09.17.18.34.25.51,0,0-.09.08-.14.13-.08-.17-.16-.35-.25-.52Z" transform="translate(1.38)"/><path class="cls-9" d="M29.33,602.21s0,.1-.07.13-.08,0-.13,0l.11-.23Z" transform="translate(1.38)"/><path class="cls-22" d="M61.48,613.7c-.1-.1-.2-.2,0,0-.07-.21,0-.08,0,.06Z" transform="translate(1.38)"/><path class="cls-2" d="M118.76,636.49V636a2.75,2.75,0,0,0,.26.22Z" transform="translate(1.38)"/><path class="cls-2" d="M116,598.91h-.47c0-.15,0-.3,0-.45l.62.08C116.1,598.66,116.06,598.78,116,598.91Z" transform="translate(1.38)"/><polygon class="cls-17" points="92.65 590.42 92.69 590.54 92.58 590.52 92.65 590.42"/><polygon class="cls-14" points="99.6 588.97 99.54 588.83 99.68 588.84 99.6 588.97"/><path class="cls-15" d="M102.55,588.25c.14-.14.27-.29.41-.44Z" transform="translate(1.38)"/><polygon class="cls-16" points="108.77 618.29 108.88 618.29 108.8 618.27 108.77 618.29"/><path class="cls-12" d="M116.07,601.82l.23.09s-.1.05-.11,0a.62.62,0,0,1-.1-.16Z" transform="translate(1.38)"/><path class="cls-21" d="M111.58,689.83l-.25.28c0-.11,0-.21.07-.32Z" transform="translate(1.38)"/><path class="cls-21" d="M108.62,680.49l-.37-.1.32-.13A1.55,1.55,0,0,1,108.62,680.49Z" transform="translate(1.38)"/><path class="cls-16" d="M130.3,711.46V701c3.74-.6,4.6.09,4.68,3.65,0,1.09,0,2.19,0,3.28C134.83,711.39,134,712,130.3,711.46Z" transform="translate(1.38)"/><path class="cls-20" d="M163.2,700.93c3.35-.37,4.59.49,4.65,3.6q.17,10.44,0,20.88c0,3.36-1.1,4.07-4.69,3.6Z" transform="translate(1.38)"/><path class="cls-6" d="M171.54,582.84V579l.57-.33c.35.55.95,1.08,1,1.66C173.24,581.35,173.48,582.69,171.54,582.84Z" transform="translate(1.38)"/><path class="cls-19" d="M163.34,599.89c0,1.3.06,2.61,0,3.9,0,.35-.5.66-.78,1-.28-.32-.8-.64-.81-1-.06-2.73-.07-5.47,0-8.2,0-.35.52-.67.8-1,.28.39.79.77.82,1.18.1,1.36,0,2.73,0,4.1Z" transform="translate(1.38)"/><path class="cls-16" d="M189.31,598.39v-3.78c1.8-.29,1.6.93,1.6,1.9S191.05,598.67,189.31,598.39Z" transform="translate(1.38)"/><path class="cls-16" d="M169.53,594.6c1.75-.24,1.6.92,1.59,1.9s.15,2.15-1.59,1.89Z" transform="translate(1.38)"/><path class="cls-6" d="M154.35,594.08c.82.66,1.52.94,1.6,1.34a9.67,9.67,0,0,1,0,3c-.05.36-.66.65-1,1-.21-.35-.58-.69-.61-1.06C154.29,597.18,154.35,596,154.35,594.08Z" transform="translate(1.38)"/><path class="cls-6" d="M157.75,583.65v-4.74c2.05-.25,1.71,1.28,1.71,2.27S159.87,583.82,157.75,583.65Z" transform="translate(1.38)"/><path class="cls-6" d="M31.26,683.25a20.59,20.59,0,0,1,0,9.27C29.83,690.89,29.8,685.18,31.26,683.25Z" transform="translate(1.38)"/><path class="cls-6" d="M37,688.06c2.07.44,1.46,1.84,1.44,2.83,0,.5-.59,1-.91,1.47l-.53-.3Z" transform="translate(1.38)"/><path class="cls-12" d="M37.82,683.5a7.83,7.83,0,0,1,.49,2.12c0,.46-.55.9-.85,1.34l-.47-.23v-3Z" transform="translate(1.38)"/><path class="cls-12" d="M44.44,690c-1.38,0-1.38,0-.68-4.29.15.64.33,1.27.43,1.91S44.35,689.05,44.44,690Z" transform="translate(1.38)"/><path class="cls-6" d="M25.19,683.68c.06,1.44.14,2.87.17,4.31a29.69,29.69,0,0,1-.07,3.27c0,.31-.4.63-.68.84-.08.06-.49-.18-.63-.37C23.34,690.87,23.79,684.68,25.19,683.68Z" transform="translate(1.38)"/><path class="cls-2" d="M155.75,614.72l-.69,1.45-.7-.72,1.07-1Z" transform="translate(1.38)"/><path class="cls-19" d="M163,618.71v-1.47h.33l.07,1.47Z" transform="translate(1.38)"/><path class="cls-2" d="M182.14,630.5v-.92l.36,0c-.07.34-.14.68-.2,1Z" transform="translate(1.38)"/><path class="cls-27" d="M84.4,648.61c0-.11,0-.22,0-.33l.87-.48.88.74.19-.53-1.07-.21-1.66-1.22h0c-.12-.42-.25-.83-.37-1.24s-.05-.78-.07-1.18c-.29-1.94,1.19-3.33,1.62-5l0,0,.39-.84,0-.81-1.58.87-.45,0,.09-1.61h0l.82-.43h0l.43-.42h0l1.25-1.24h0c1.38,0,2.6.08,2.52,2,0,.19.72.41,1.1.62l.26-.44.93,1.8c-1.79,1.25-1.12,2.49-.09,3.83a13.11,13.11,0,0,1,2.64,9.44l-4.89-.65.2-2c-.51,1.82-1.24.39-1.87.14Z" transform="translate(1.38)"/><path class="cls-25" d="M98,686.42c-1.11-2.51-2.32-5-3.28-7.56a13.73,13.73,0,0,1-.39-3.54.72.72,0,0,0,0-.41.53.53,0,0,0,.19-.06s0-.08,0-.13l-.24.18-.81.44h0l-.42.42h0l-.83.42h0c-.15-.18-.29-.37-.44-.56l0-1.05,3.51-.66.09,0,1.39-.14.82,1.19c.13.55.25,1.1.38,1.65l1.35.79.31,5.4-.67-.09a.79.79,0,0,0,0,.16l.66.19c.38,1.79,1.73,2.32,3.31,2.57l.38.39,1.25,1.68a.29.29,0,0,0-.13.08s0,.06,0,.09l.14-.19c1.93.11,1.94,1.58,2.09,3l-.79.64,1.18.48L103.77,693c-1.24-2-2.6-3.84-3.65-5.89C99.51,685.91,99,685.66,98,686.42Z" transform="translate(1.38)"/><path class="cls-4" d="M96.81,673.72l-1.39.14-.09-.32v.35l-3.51.66c-1-3,1.78-6.58,5.48-7a14.59,14.59,0,0,1,1.62,0l1.91.39,1.27,0a.39.39,0,0,0,.32.15l.11.32,1.44,2.33L102.09,672l-1.67.46-2,.51H98Z" transform="translate(1.38)"/><path class="cls-8" d="M98,686.42c1-.76,1.52-.51,2.13.67,1,2,2.41,3.94,3.65,5.89l.36,1.7,1.12,2.79.11.71-1.75.91h-.54a11.11,11.11,0,0,1-.65-1.71c-.17-.91-.21-1.86-.34-3C100.74,694,97.91,688.94,98,686.42Z" transform="translate(1.38)"/><path class="cls-28" d="M84.4,648.61l2.09.82c.63.25,1.36,1.68,1.87-.14l-.2,2,4.89.65.09,2.08-.19-.05-1.48-.68c-.62.34-.86,2.27-1.67.31l.63-.49-.13-.13-.5.62a5.83,5.83,0,0,1-1.45-.45c-1-.62-1.7-.54-2.28.49-2.37-.26-.73-1.78-1-2.7C84.84,650.14,83.07,649.93,84.4,648.61Z" transform="translate(1.38)"/><path class="cls-5" d="M100.83,667.93l-1.91-.39c.06-.31.11-.63.16-.94l-.24-.73c.11-.51,0-1.24.36-1.49,1.36-1,.62-2,.07-3,.8-.05,1.83-.41,2.33-.05s.51,1.48.39,2.21C101.73,665,101.23,666.46,100.83,667.93Z" transform="translate(1.38)"/><path class="cls-27" d="M94.33,656.41l2.58,4.51c-.07.14-.14.28-.2.42l-2.4-.78,1.2-.62-.18-.4-1.35.59-1.62.8a1.1,1.1,0,0,1-.08-.4l0,0,.43-.64,0-.46C93.33,658.47,92.26,656.61,94.33,656.41Z" transform="translate(1.38)"/><path class="cls-28" d="M111.49,703.3l.78,1.36c-1.73,0-1.44,1.31-1.54,2.36l-2.82.26,1.15-3.57Z" transform="translate(1.38)"/><path class="cls-9" d="M105,678.6c.45,1,1,2,1.34,3,.57,1.58,1,3.2,1.62,5-.66-.06-1.43,0-1.47-.13-.62-2.61-1.16-5.24-1.72-7.86A.18.18,0,0,0,105,678.6Z" transform="translate(1.38)"/><path class="cls-26" d="M98,652.24,97.17,649c1,.34,1.52,1.8,2.55.71a19.82,19.82,0,0,1,1.21,2.33,9.85,9.85,0,0,1,.27,2.15L100,654a8.57,8.57,0,0,0-.95-1.51C98.84,652.24,98.34,652.3,98,652.24Z" transform="translate(1.38)"/><path class="cls-29" d="M102.09,672l1.88-1.27-1.44-2.33c2.08.09,3.2,1.29,3.78,3.67l-3.74.34Z" transform="translate(1.38)"/><path class="cls-24" d="M95.59,642.86l2.66.25v3l-3-.14-.11-.5,1.31-1-.9-1.34A.66.66,0,0,1,95.59,642.86Z" transform="translate(1.38)"/><path class="cls-9" d="M109.06,703.71c-.38,1.19-.77,2.38-1.15,3.57,0,.44,0,.88,0,1.32-1.81-.61-1.73-2.25-2-3.7Z" transform="translate(1.38)"/><path class="cls-24" d="M94.33,656.41c-2.07.2-1,2.06-1.61,3l-.81-.91.9-3.79.26-.44a1.29,1.29,0,0,0-.12-.38l.19.05,1.11-.84C94.22,654.2,96.25,655.18,94.33,656.41Z" transform="translate(1.38)"/><path class="cls-28" d="M98,652.24c.36.06.86,0,1.06.22A8.57,8.57,0,0,1,100,654c.15,1,.3,2.07.46,3.19-2.43.2-1.25-2.44-2.42-3.19l-.41-.45h0c0-.27,0-.54-.08-.81Z" transform="translate(1.38)"/><path class="cls-25" d="M107,697.5l-.82,0c-.14-1-.29-2.06-.44-3.09l2.4-.54-.69,3.64Z" transform="translate(1.38)"/><path class="cls-27" d="M93.5,639.59l-2.19-5.27.56-.31a12.06,12.06,0,0,1,2.76,5.17Z" transform="translate(1.38)"/><path class="cls-9" d="M103.78,677.74l-1.14-4.25c1.53-.41,2.25,1,2.39,4.39Z" transform="translate(1.38)"/><path class="cls-28" d="M107,697.5l.45,0c.47.25,1.25.4,1.35.75a22.6,22.6,0,0,1,.6,3.68c0,.13-.45.48-.52.44-.31-.19-.72-.44-.81-.75C107.7,700.25,107.39,698.87,107,697.5Z" transform="translate(1.38)"/><path class="cls-28" d="M93.5,639.59l1.13-.41,1,3.68a.66.66,0,0,0-.06.34l-.9.61Z" transform="translate(1.38)"/><path class="cls-28" d="M105.78,694.38c.15,1,.3,2.06.44,3.09h-1l-1.12-2.79Z" transform="translate(1.38)"/><path class="cls-21" d="M105.81,702.43c-.27-.69-.55-1.37-.82-2.06a1.61,1.61,0,0,1,1.66,2l0,0Z" transform="translate(1.38)"/><path class="cls-24" d="M96.71,661.34c.06-.14.13-.28.2-.42l2.31.45-1.94,1.23Z" transform="translate(1.38)"/><path class="cls-24" d="M94.82,651.18l.76,1.84-.38.21-1.06-1.75Z" transform="translate(1.38)"/><path class="cls-21" d="M103.61,699.09l1.75-.91c-.13.6-.25,1.21-.38,1.81Z" transform="translate(1.38)"/><path class="cls-21" d="M109.45,695.24l-.74-1.51.5-.23.64,1.56Z" transform="translate(1.38)"/><path class="cls-21" d="M102.09,672l.48.41-2.15,0Z" transform="translate(1.38)"/><path class="cls-24" d="M97.55,652.71c0,.27.06.54.08.81-1.68.69-1-.62-1.44-1.41Z" transform="translate(1.38)"/><path class="cls-24" d="M97.57,655.92l-.73-1.1.39-.26.77,1.06Z" transform="translate(1.38)"/><path class="cls-23" d="M84.82,634.6c0-1.1.38-1.51,1.38-.73l-.51.8h0Z" transform="translate(1.38)"/><path class="cls-21" d="M107.06,691.7l-1.18-.48.79-.64Z" transform="translate(1.38)"/><path class="cls-24" d="M98,676.56c-.13-.55-.25-1.1-.38-1.65C97.76,675.46,97.88,676,98,676.56Z" transform="translate(1.38)"/><path class="cls-21" d="M100.84,677.21l.44,1-.33.15-.45-1Z" transform="translate(1.38)"/><path class="cls-21" d="M103.78,677.74l1.25.14,0,.72a.18.18,0,0,1-.23.09Z" transform="translate(1.38)"/><path class="cls-24" d="M96.91,647.27l-1-.33,0-.27,1.06.1Z" transform="translate(1.38)"/><path class="cls-24" d="M98,672.92h.42v1.57h0Z" transform="translate(1.38)"/><path class="cls-24" d="M99.93,674.53l-.25.2-.28-.36c.11,0,.22-.14.31-.12S99.84,674.41,99.93,674.53Z" transform="translate(1.38)"/><path class="cls-21" d="M111,700.49c-.12,0-.27.15-.35.11s-.09-.21-.14-.33c.12,0,.26-.15.34-.12S111,700.37,111,700.49Z" transform="translate(1.38)"/><path class="cls-21" d="M99.66,683l-.66-.19a.79.79,0,0,1,0-.16l.67.09A2.26,2.26,0,0,0,99.66,683Z" transform="translate(1.38)"/><path class="cls-21" d="M110.3,699c0-.11-.11-.24-.07-.3s.19-.12.29-.17.11.24.08.31S110.41,699,110.3,699Z" transform="translate(1.38)"/><path class="cls-24" d="M98.43,674.49l.31.44-.16.11c0-.18-.1-.36-.16-.54Z" transform="translate(1.38)"/><path class="cls-24" d="M97.62,653.52,98,654Z" transform="translate(1.38)"/><path class="cls-25" d="M102.42,668a.39.39,0,0,1-.32-.15l.3-.42Z" transform="translate(1.38)"/><path class="cls-21" d="M103.86,702h0Z" transform="translate(1.38)"/><path class="cls-21" d="M106.65,702.42l.17.1-.19-.08Z" transform="translate(1.38)"/><path class="cls-21" d="M105.4,703.24l.18.1-.17-.1Z" transform="translate(1.38)"/><path class="cls-21" d="M103.35,686l-.38-.39Z" transform="translate(1.38)"/><polygon class="cls-28" points="96.74 639.3 96.78 639.42 96.67 639.4 96.74 639.3"/><path class="cls-8" d="M101.67,619.47c-.23,1.39-1.36,1.72-2.47,2.07a3.83,3.83,0,0,1-4.18-1c1.56-1.76,1.5-2-.57-2.45-.07-.51-.15-1-.23-1.55l.09-1.23.74.06-.08-.52-1.21.39c-3.88,2.64-4.77,4.71-3,6.92.85-1.27,1.18-3.06,3.16-3.23l-2.19,4,2.17,1.94-1.65,3.23c-1.11-.59-2.19-1.24-3.34-1.76-1.8-.83-3.63-1.59-5.47-2.33a58,58,0,0,0-7.33-2.77c-1.1-.27-2.47.53-3.71.84l.58,1,.15.25s0-.1,0-.12a1.51,1.51,0,0,0-.17-.1c.51,0,1.37-.28,1.47-.11.41.79,1.06,1.88.78,2.5a22.78,22.78,0,0,1-2.62,3.8c-1.74-1.22-2.52-3.12-3.43-4.92a6.7,6.7,0,0,0-.38-1.06c-.34-.62-.73-1.21-1.11-1.81.7-.87,1.37-1.77,2.1-2.61a4.84,4.84,0,0,1,1.32-1.16,27,27,0,0,1,2.56-1l1.7-.92,2.8.38c1.14,2.8,4.75.71,6.24,2.74L89.67,612l-5.62-1.42v-3l2.81-.87-2.08-.91.12-1.5.4-.87.39-.36h1.17c0,.2-.07.4-.11.6l-1.06.22,1.08.29c.94,1.81,1.29,4,3.47,5a28.79,28.79,0,0,1,3.17,1.36c.94.54,1.71,1.37,2.63,2,1.58,1,3.22,2,4.84,2.94l.47.78.41,2.48Z" transform="translate(1.38)"/><path class="cls-13" d="M80.73,639.92l-2.08,2.15-1.43-.66c-.45,1.27-.45,1.27-1.39.62l-.53-1-.7.59,0,0-.57-.36c1.37-1,.81-2.75,1.44-4a2.62,2.62,0,0,1,1.11-3l3.49.92.72-1.07c.85.79,1.75,1.55.72,2.84,0,0,.27.39.41.59s.06.23.1.35Z" transform="translate(1.38)"/><path class="cls-5" d="M92.26,628.1l1.65-3.23.81.36.46,1.14,1.28-.65.32-.92.88-.78,1-.69a1.41,1.41,0,0,0,.25.29l.08.74-.89,4.57c-.77,2.92-1.26,3.08-3.72,1.29-.41-.3-1.06-.31-1.39-.66A5,5,0,0,1,92.26,628.1Z" transform="translate(1.38)"/><path class="cls-17" d="M75.49,637.24c-.63,1.29-.07,3-1.44,4l.57.36c-.47,1.29,0,3-1.74,3.7l-1.15.08c-1.32.16-2.22-.18-2.08-1.76l.78-.91,1.27-.8c.83.38,1.65.73,1.19-.79-.21-.69-.47-1.36-.71-2l-.06-2.41.8-.91.48,2.27Z" transform="translate(1.38)"/><path class="cls-28" d="M67.67,621.56c.38.6.77,1.19,1.11,1.81a6.7,6.7,0,0,1,.38,1.06c-1.63-.28-.77,1-.68,1.37a25.07,25.07,0,0,0,1.28,3.84c.43,1,1,2,1.5,3l0,1.14-.42,0-1-1.31c-.84-2.38-1.69-4.74-2.5-7.12a47.29,47.29,0,0,1-1.92-7Z" transform="translate(1.38)"/><path class="cls-22" d="M71.26,632.68c-.5-1-1.07-2-1.5-3a25.07,25.07,0,0,1-1.28-3.84c-.09-.37-1-1.65.68-1.37.91,1.8,1.69,3.7,3.43,4.92Z" transform="translate(1.38)"/><path class="cls-17" d="M80.81,634.14l-.72,1.07-3.49-.92c-.43-.21-1.09-.32-1.22-.65a5.6,5.6,0,0,1-.08-1.84c.56.06,1.33-.08,1.63.23.59.61.8,1.27,1.89.53a1.36,1.36,0,0,1,2,1.19A2.54,2.54,0,0,0,80.81,634.14Z" transform="translate(1.38)"/><path class="cls-23" d="M80.81,634.14a2.54,2.54,0,0,1,0-.39l1.5-1.89,2.25,2.79c0,.42-.07.84-.1,1.25h0l-.43.42h0l-.82.43h0l-1.31.85c-.14-.2-.45-.54-.41-.59C82.56,635.69,81.66,634.93,80.81,634.14Z" transform="translate(1.38)"/><path class="cls-7" d="M110.86,648.15c-.21,1.09-.43,2.19-.74,3.73l-1.82-1.6,1.63-2.4Z" transform="translate(1.38)"/><path class="cls-23" d="M78.87,627c.64.44,1.51.76,1.84,1.37.21.4-.37,1.22-.59,1.85l-.74,0-1.14-2.71Z" transform="translate(1.38)"/><path class="cls-10" d="M100.89,624.81l.41,1.22c-.74,1-1.47,2.05-2.2,3.07a.28.28,0,0,1-.18,0,.65.65,0,0,1-.13-.16c.43-1.22.86-2.44,1.3-3.65l.82-.48Z" transform="translate(1.38)"/><path class="cls-7" d="M100.09,625.28c-.44,1.21-.87,2.43-1.3,3.65h-.71c.3-1.52.59-3,.89-4.57h.6l.52.6Z" transform="translate(1.38)"/><path class="cls-18" d="M84.46,635.9c0-.41.06-.83.1-1.25a.75.75,0,0,0,.26,0l.89.06Z" transform="translate(1.38)"/><path class="cls-16" d="M72.92,635.8l-.8.91,0-1.22Z" transform="translate(1.38)"/><path class="cls-23" d="M107,641.63v1l-.6-.17.62-.78Z" transform="translate(1.38)"/><path class="cls-3" d="M112,648.63l.27,1Z" transform="translate(1.38)"/><path class="cls-23" d="M108.7,643.29l-.8.44-.07-.07.86-.38Z" transform="translate(1.38)"/><path class="cls-14" d="M104.32,631.08s.11,0,.13,0a.52.52,0,0,1,0,.18l-.21,0Z" transform="translate(1.38)"/><path class="cls-23" d="M107.9,643.73l-.22.15.15-.22Z" transform="translate(1.38)"/><path class="cls-14" d="M107.07,635.87l-.29-.06.26.09Z" transform="translate(1.38)"/><path class="cls-17" d="M101.63,605.91l.41.15-.73,1.92a6.11,6.11,0,0,1,.19,1.39c-.08.86-.29,1.71-.49,2.84l-1.1-.86A18.39,18.39,0,0,0,94,608.12c-1.12-.37-1.29-.79-1.11-1.86a4.47,4.47,0,0,0-.49-2.32c.79-2.11,2.7-1,4.22-1.11a7.77,7.77,0,0,1,2.38.62c1,.24,2.49,0,1.65,1.88A11.45,11.45,0,0,0,101.63,605.91Z" transform="translate(1.38)"/><path class="cls-28" d="M75.35,615.82l-1.7.92c-1.12-1.07-2.25-2.13-3.07-2.9a17.27,17.27,0,0,0,0-2.83c-.26-1.46,1.49-3,3.23-2.69a13.81,13.81,0,0,0,1.31,1.8c.24.24.76.21,1.16.3,1.66.55,1.53,2,1.66,3.32h0l-.84.61Z" transform="translate(1.38)"/><path class="cls-14" d="M86.86,603.05H85.69l-.87-2-1.93-3.1c3.72-.15,4.08.2,3.94,3.74C86.81,602.1,86.85,602.57,86.86,603.05Z" transform="translate(1.38)"/><path class="cls-26" d="M76.25,610.42c-.4-.09-.92-.06-1.16-.3a13.81,13.81,0,0,1-1.31-1.8c-.06-1.77,1.26-1,2.1-1.15l.87,3.17Z" transform="translate(1.38)"/><path class="cls-17" d="M84.11,602.63l-3.19-4,.61-.46q1.68,2,3.38,4.06Z" transform="translate(1.38)"/><path class="cls-14" d="M76.25,610.42l.5-.08c1.61-.44,2,.88,2.34,1.87.12.33-.76,1-1.18,1.53C77.78,612.42,77.91,611,76.25,610.42Z" transform="translate(1.38)"/><path class="cls-10" d="M84.78,605.77l2.08.91-2.81.87-.42-.07,1.21-1.68Z" transform="translate(1.38)"/><path class="cls-6" d="M105,614.17l.4,1.6-2.47-2Z" transform="translate(1.38)"/><path class="cls-10" d="M84.11,602.63l.8-.41L84.82,601l.87,2-.39.36-.89.1Z" transform="translate(1.38)"/><path class="cls-6" d="M101.35,616.16l-.47-.78.7-1.12.58.23Z" transform="translate(1.38)"/><path class="cls-6" d="M101.67,619.47l.09-.83,1.5-.13c0,.58.07,1.14.1,1.71Z" transform="translate(1.38)"/><path class="cls-8" d="M84.84,605.8l-1.21,1.68-.19,0-.2,0V606Z" transform="translate(1.38)"/><path class="cls-10" d="M83.24,606v1.48L82,606.61Z" transform="translate(1.38)"/><path class="cls-6" d="M103,617.78c-.13-.23-.3-.39-.28-.5s.23-.27.35-.4c.09.13.27.26.26.38S103.12,617.54,103,617.78Z" transform="translate(1.38)"/><path class="cls-17" d="M84.41,603.5l.89-.1-.4.87Z" transform="translate(1.38)"/><path class="cls-6" d="M105.41,615.77,105,617Z" transform="translate(1.38)"/><path class="cls-10" d="M86.77,604.16l-1.08-.29,1-.17a2.3,2.3,0,0,1,.15.32S86.81,604.11,86.77,604.16Z" transform="translate(1.38)"/><path class="cls-14" d="M86.73,603.7l-1,.17,1.06-.22Z" transform="translate(1.38)"/><path class="cls-14" d="M77.07,614.34l.84-.61Z" transform="translate(1.38)"/><path class="cls-6" d="M103.54,615.92l-.09-.13.2-.11c0,.05,0,.12,0,.16S103.59,615.89,103.54,615.92Z" transform="translate(1.38)"/><path class="cls-28" d="M96.71,661.34l.57,1.26c.1.28.2.56.29.84v0c0,.35,0,.71,0,1.06l-1.12.64-.44-.07-.19-.26-.16.27-1.29,1.64-1.53-1.15-.44.72-1.65.07a7.41,7.41,0,0,0,.79-4.62l.87-.79,1.62-.8.33.43Z" transform="translate(1.38)"/><path class="cls-29" d="M93,653.92a1.29,1.29,0,0,1,.12.38l-.26.44-.9,3.78c-.33-.46-1-1-.94-1.38.3-2.51-1-1.66-2.22-1.14l1,1.25-1.56.86-.8-.06h0l-1.2-1.26-.09-3.2c.58-1,1.32-1.11,2.28-.49a5.83,5.83,0,0,0,1.45.45h0c.81,2,1,0,1.67-.31Z" transform="translate(1.38)"/><path class="cls-5" d="M91.49,661.72a7.41,7.41,0,0,1-.79,4.62l-1.3,1.86c-1.07-3-2-5.45-2.8-7.94-.08-.25.44-.7.69-1.06l1.7,2.19,2.11-.45Z" transform="translate(1.38)"/><path class="cls-5" d="M85.65,667.53a10.83,10.83,0,0,1,1.16,1.64c.47,1,.81,2,1.24,3.11l.35-1.23,1.8,2.51-.2.6c-.76-.15-1.52-.31-2.28-.43a9.8,9.8,0,0,0-1.21-.05h0c-.31-.52-.58-1.06-.93-1.56-.7-1-1.83-1.84-1.09-3.31Z" transform="translate(1.38)"/><path class="cls-9" d="M72.88,645.34c1.76-.68,1.27-2.41,1.74-3.7l0,0,1.23.37c.94.65.94.65,1.39-.62l1.43.66q-1.25,2.23-2.48,4.47l-.72.46L75,647l-2-.88Z" transform="translate(1.38)"/><path class="cls-28" d="M80.73,639.92c.44-.66.87-1.33,1.31-2l1.12.41.45,0,1.2.76c-.43,1.71-1.91,3.1-1.62,5-1,1.07-1-.17-1.11-.57C81.57,642.4,81.17,641.15,80.73,639.92Z" transform="translate(1.38)"/><path class="cls-28" d="M75.45,647l.72-.46c.76,2.44,1.55,4.87,2.29,7.31.42,1.42.75,2.86,1.13,4.3l-.57.14q-1.84-5.25-3.68-10.52C75.37,647.51,75.41,647.25,75.45,647Z" transform="translate(1.38)"/><path class="cls-26" d="M85.65,667.53l-1.15,1.29c-.28-.1-.56-.21-.85-.3s-.55-.12-.83-.18a13.83,13.83,0,0,1,0-1.7c0-.27.27-.51.41-.77l1.57-.92c.49.69,1,1.36,1.42,2.06C86.21,667.05,85.83,667.35,85.65,667.53Z" transform="translate(1.38)"/><path class="cls-25" d="M83.19,665.87c-.14.26-.38.5-.41.77a13.83,13.83,0,0,0,0,1.7c-.83-1.77-1.65-3.55-2.52-5.43l1.6-.63Z" transform="translate(1.38)"/><path class="cls-10" d="M92.35,666.27l.44-.72,1.53,1.15-2.91,3.12C90.11,667.92,91.45,667.17,92.35,666.27Z" transform="translate(1.38)"/><path class="cls-25" d="M89,661.39l-1.7-2.19c0-.38,0-.77.07-1.15l.8.06c.45.39.9.77,1.28,1.11Z" transform="translate(1.38)"/><path class="cls-28" d="M83.62,646.58l1.66,1.22h0l-.87.48C84.15,647.72,83.88,647.15,83.62,646.58Z" transform="translate(1.38)"/><path class="cls-28" d="M83.26,645.35c.12.41.25.82.37,1.24l-2-.92Z" transform="translate(1.38)"/><path class="cls-25" d="M86.16,656.79l1.2,1.26Z" transform="translate(1.38)"/><path class="cls-24" d="M96.4,665.12l1.12-.64Z" transform="translate(1.38)"/><path class="cls-24" d="M98.84,665.87l.24.73-1.2-.2v-.32Z" transform="translate(1.38)"/><path class="cls-24" d="M97.57,663.44l.94-.09,0,.52-.92-.45Z" transform="translate(1.38)"/><path class="cls-29" d="M91.84,675.6c.15.19.29.38.44.56l-.72.2Z" transform="translate(1.38)"/><path class="cls-16" d="M75.45,647c0,.25-.08.51-.11.77l-.66,0L75,647Z" transform="translate(1.38)"/><path class="cls-26" d="M101.59,697.4V698h-.16v-.61Z" transform="translate(1.38)"/><path class="cls-29" d="M92.27,676.16l.83-.42Z" transform="translate(1.38)"/><path class="cls-29" d="M94.32,674.91a.72.72,0,0,1,0,.41l-.81,0,.81-.44Z" transform="translate(1.38)"/><path class="cls-24" d="M95.61,665.06l.16-.27.19.26Z" transform="translate(1.38)"/><path class="cls-29" d="M93.1,675.75l.42-.42Z" transform="translate(1.38)"/><path class="cls-3" d="M63.15,616.14l.44.9-.3.13c-.08-.31-.17-.62-.26-.93Z" transform="translate(1.38)"/><path class="cls-16" d="M70.43,642.75l-.78.91-2.29-2.52.43-.41,2.1.72-1,1.11Z" transform="translate(1.38)"/><path class="cls-16" d="M72.18,639.12c.24.68.5,1.35.71,2,.46,1.52-.36,1.17-1.19.79Z" transform="translate(1.38)"/><path class="cls-16" d="M69.68,636.3l1.21,0c-.23.34-.45.68-.67,1Z" transform="translate(1.38)"/><path class="cls-16" d="M72.88,645.34l.14.8-1.29-.72Z" transform="translate(1.38)"/><path class="cls-14" d="M111.57,612.06c-.42-.3-1.23-.76-1.18-.88.6-1.57-.46-2.53-1.15-3.65-.09-.16.17-.53.27-.8l1.28,1.26Z" transform="translate(1.38)"/><path class="cls-3" d="M110.79,608l-1.28-1.26,0-1.22,1.66,2Z" transform="translate(1.38)"/><path class="cls-3" d="M113.06,616l.83-.22.08.26-.66.23Z" transform="translate(1.38)"/><path class="cls-3" d="M109.08,605.1l.42.43Z" transform="translate(1.38)"/><path class="cls-10" d="M107.87,708.6c0-.44,0-.88,0-1.32l2.82-.26,1.21.36.45,1.21a.94.94,0,0,0,.07.37l-.44,1c-1.09-1.22-.68.7-1.24.59l-1.71-1.6H108Z" transform="translate(1.38)"/><path class="cls-25" d="M112.39,708.59l-.45-1.21Z" transform="translate(1.38)"/><path class="cls-25" d="M113.9,707.47l-.11,0a.94.94,0,0,1-.06-.15l.2,0Z" transform="translate(1.38)"/><path class="cls-25" d="M114.45,708.58a.85.85,0,0,1-.17-.06s0-.08,0-.13l.21.2Z" transform="translate(1.38)"/><path class="cls-20" d="M99.57,624.36H99c0-.25,0-.49-.08-.74l.24-.27-.49,0-1,.69-1-.71-.33.21.45,1.28c-.11.31-.22.61-.32.92l-.95-1.79-.79,1.3-.81-.36-2.17-1.94,2.19-4,0-.65.49-.19c2.07.45,2.13.69.57,2.45a3.83,3.83,0,0,0,4.18,1A2.17,2.17,0,0,1,99.57,624.36Z" transform="translate(1.38)"/><path class="cls-12" d="M100.09,625.28V625l.82-.16Z" transform="translate(1.38)"/><path class="cls-3" d="M111.57,641.23l-1.46,0c0-.27-.09-.53-.14-.79Z" transform="translate(1.38)"/><path class="cls-3" d="M103,587.43l-1.21-1.2h0l.79,0Z" transform="translate(1.38)"/><path class="cls-14" d="M102.53,586.2l-.79,0,.27-.68Z" transform="translate(1.38)"/><path class="cls-13" d="M99.65,585.77a1.94,1.94,0,0,0,0-.34h1.31v.26Z" transform="translate(1.38)"/><path class="cls-9" d="M106.67,709.65l1.26-.22.34.31v.9l-.32,0h-.89l0-.06Z" transform="translate(1.38)"/><path class="cls-8" d="M108.27,709.74l-.34-.31,0-.44h1.11c0,.27,0,.55,0,.82h0Z" transform="translate(1.38)"/><path class="cls-27" d="M106.67,709.65l.44.9-.47.09h-.86Z" transform="translate(1.38)"/><path class="cls-27" d="M109.11,709.81c0-.27,0-.55,0-.82l1.71,1.6-.46.54-.45-.15Z" transform="translate(1.38)"/><path class="cls-13" d="M108,710.62l.32,0,.44.14a.7.7,0,0,1,0,.32l-1.18,1.06L107,711Z" transform="translate(1.38)"/><path class="cls-4" d="M108.7,711.1a.7.7,0,0,0,0-.32c.13-.33.27-.65.4-1h0l.76,1.17Z" transform="translate(1.38)"/><path class="cls-25" d="M108,710.62,107,711l0-.43Z" transform="translate(1.38)"/><path class="cls-9" d="M106.22,710.65h0Z" transform="translate(1.38)"/><path class="cls-13" d="M84.81,639.13l-1.2-.76,1.58-.87c0,.27,0,.54,0,.81l-.39.84Z" transform="translate(1.38)"/><path class="cls-18" d="M83.16,638.33,82,637.92c0-.12-.07-.23-.1-.35l1.31-.85Z" transform="translate(1.38)"/><path class="cls-28" d="M85.28,647.8l1.07.21-.19.53-.88-.74Z" transform="translate(1.38)"/><path class="cls-28" d="M84.85,639.15l.39-.84Z" transform="translate(1.38)"/><path class="cls-18" d="M83.24,636.73l.82-.43Z" transform="translate(1.38)"/><path class="cls-18" d="M84.05,636.31l.43-.42Z" transform="translate(1.38)"/><path class="cls-14" d="M95.33,673.89v-.35l.09.32Z" transform="translate(1.38)"/><path class="cls-14" d="M94.32,674.9l.24-.18s0,.11,0,.13a.53.53,0,0,1-.19.06Z" transform="translate(1.38)"/><path class="cls-18" d="M104.58,687.63l-.14.19s0-.07,0-.09a.29.29,0,0,1,.13-.08Z" transform="translate(1.38)"/><path class="cls-29" d="M89.8,653.55l.5-.62.13.13-.63.49Z" transform="translate(1.38)"/><path class="cls-28" d="M89,661.39l.45-2.17c-.38-.34-.83-.72-1.28-1.11l1.56-.86-1-1.25c1.27-.52,2.52-1.37,2.22,1.14,0,.41.61.92.94,1.38l.81.92,0,.47c-.14.21-.29.42-.43.64l0,0-1.18.41Z" transform="translate(1.38)"/><path class="cls-14" d="M94.31,660.56l-.33-.43,1.35-.59.18.4Z" transform="translate(1.38)"/><path class="cls-18" d="M91.1,660.94l1.18-.41a1.1,1.1,0,0,0,.08.4l-.87.79Z" transform="translate(1.38)"/><path class="cls-18" d="M92.26,660.55c.14-.22.29-.43.43-.64C92.55,660.12,92.4,660.33,92.26,660.55Z" transform="translate(1.38)"/><path class="cls-18" d="M92.81,654.74l.26-.44Z" transform="translate(1.38)"/><path class="cls-12" d="M94,618.32l0,.65c-2,.17-2.31,2-3.16,3.23-1.78-2.21-.89-4.28,3-6.92l.55.07-.09,1.23c-.36.18-.72.36-1.07.55Z" transform="translate(1.38)"/><path class="cls-7" d="M94,618.32l-.81-1.19c.35-.19.71-.37,1.07-.55.08.52.16,1,.23,1.55Z" transform="translate(1.38)"/><path class="cls-7" d="M94.31,615.35l-.55-.07,1.21-.39.08.52Z" transform="translate(1.38)"/><path class="cls-19" d="M73,623.16a1.51,1.51,0,0,1,.17.1s0,.08,0,.12l-.15-.25Z" transform="translate(1.38)"/><path class="cls-17" d="M75.83,642l-1.23-.37.7-.59Z" transform="translate(1.38)"/><path class="cls-7" d="M94.72,625.23l.79-1.3.95,1.79-1.28.65Z" transform="translate(1.38)"/><path class="cls-7" d="M96.78,624.8l-.45-1.28.33-.21,1,.71Z" transform="translate(1.38)"/><path class="cls-5" d="M98.64,623.33l.49,0-.24.27A1.41,1.41,0,0,1,98.64,623.33Z" transform="translate(1.38)"/><path class="cls-26" d="M109.12,709.8c-.13.33-.27.65-.4,1l-.44-.14c0-.3,0-.6,0-.9Z" transform="translate(1.38)"/></svg>