<svg viewBox="0 0 209.43 578.16" xmlns="http://www.w3.org/2000/svg"><g transform="translate(0 -.48)"><path d="m169 339.28c-4-3.08-9.69-5.35-11.63-9.41s-.36-10.12-.35-15.28c0-8.79 0-17.57 0-27-3.06 0-5.51.07-7.95 0-6.75-.25-13.74-8.22-12.82-14.58 1.62-11 3.15-22.08 5-33.08a5.22 5.22 0 0 1 3.51-3.43c10.92-1.1 10.93-1 11.49-11.81 0-.5.06-1 .08-1.49q3.87-83.15 7.67-166.3 1.33-28.15 2.6-56.32h-4.31q-.56 11.82-1.1 23.63c-1.15 25-2.22 49.93-3.37 74.89q-2.3 49.92-4.65 99.83c-.45 9.49-1 19-1.23 28.46-.09 3-1.13 4-4.14 4-28.52-.09-57-.14-85.55 0-4.69 0-4.56-2.86-4.73-5.83-1.19-21.29-2.45-42.58-3.45-63.88q-3.79-80.31-7.4-160.68h-3.77q.24 5.37.49 10.73 3.84 84.16 7.73 168.27c.76 16.48 1.46 33 2.23 49.45.33 6.86.39 6.86 7.51 6.87h6.8c1.72 11.78 3.09 22.84 5 33.81s-3.2 17.63-14.26 17.32c-4.94-.13-5.92 1.88-5.85 6.16.17 11.17-.13 22.34.17 33.5.09 3.5-1.12 5.22-3.91 7.05-23.95 15.65-39.47 37.33-46 65.27-1.09 4.72-1.88 9.47-2.81 14.19v19c.94 4.7 1.71 9.45 2.85 14.1 8.15 33.19 28 56.86 58.79 71.37 3 1.43 4.73 2.84 4.86 6.42.37 10 1.68 20 1.53 29.91-.15 9.12 4 15.1 11.58 18.64 5.49 2.56 11.61 3.77 17.45 5.58h15c6.24-2.18 12.74-3.81 18.63-6.68 6.2-3 10.47-8.06 10.73-15.66.36-10.15 1.19-20.28 1.42-30.44.1-4.37 1.61-6.6 5.74-8.53 71.24-33.2 82.35-130.56 20.42-178.05zm-39.59-63.82c1.83-12.59 3.87-25.16 5.83-37.74l1.64.15c-.46 4.51-.77 9-1.41 13.52-1.06 7.38-2.89 14.7-3.31 22.11-.24 4.31 1.61 8.74 2.5 13-2.96-2.5-5.99-5.86-5.23-11.04zm-27.41-38.9q12.48-.08 25 0a5.78 5.78 0 0 1 2 .78c.66 16.58-6.1 32.66-1.1 50.29-5.2 0-10.25 0-15.29 0-15.33-.05-12.81 1.11-13.2-13-.32-11.15-.62-22.3-1.08-33.44-.14-2.88.67-4.61 3.67-4.63zm-8 .8 1.65 47.95-1.31.06-3-48zm-21.41 1.87a6.75 6.75 0 0 1 .41-2.15l1.51-.17c.84 4 1.82 8 2.48 12.08 1.36 8.34 2.86 16.68 3.7 25.08.57 5.7-2.68 9.84-7.63 12.67 5.32-5.85 4.81-12.43 3.58-19.41-1.64-9.33-2.76-18.72-4.05-28.1zm-15.59 82.14c.22-8 .18-16 0-24-.07-3.34.94-4.74 4.54-4.73q43.24.17 86.51 0c3.74 0 4.92 1.2 4.8 4.9-.24 8-.31 16 0 24 .18 4.22-1.55 5-5.24 5-14.33-.15-28.67-.06-43-.06-14.17 0-28.34-.13-42.51.08-3.94 0-5.23-1.31-5.1-5.19zm103.06 107.91c-.75 7.62-1.37 8.07-8.75 6.87 0-6.69.38-13.29-.11-19.82a30.86 30.86 0 0 0 -7.32-17.8l-1.43.47a46 46 0 0 0 1.43 4.49c9.64 22.79 2.74 45.71-17.76 58.4-13.08 8.09-26.73 8.37-39.8.67-15-8.83-24.37-21.63-23.49-40a54.08 54.08 0 0 1 2-11.76c.4-1.43 2.42-2.41 3.7-3.6l1.56 1.26a37.69 37.69 0 0 0 .07 28.79c7.5 18.48 29.31 27.45 48.29 19.9s28.5-30 20.95-48.9c-9.85-24.64-40.63-31.62-59.67-13.31-3 2.91-5.93 4.11-9.7 3.26s-5.32 1-6.67 4.11c-7.25 16.76-6.27 32.07 3.19 47.12-6.14 4.36-7.63 4.21-10.75-1.12-18.87-32.21 2.2-75.31 39.49-80.66s68.44 24.4 64.77 61.63zm-8.37-44.85v-33.89h.69v34zm-16.52 84c-15.75 11.86-43.83 12-58.39.62l3.74-4.49c16 8.93 32.13 9.55 48.75 2.84 1.36-.51 3.37.6 5.9 1.07zm-60.72-59.9c5.72-12.45 18.77-19.91 32.91-18.82a33.4 33.4 0 0 1 29.43 24.67c2.52 9.68 1.36 18.78-5 26.85l-4.17 5.31c-8 7.11-17.2 10-27.78 8a10.27 10.27 0 0 1 -2.84-1.48l-10.18-4.13c-1.66-1-3.54-1.84-4.93-3.17-10.02-9.51-13.05-25-7.44-37.19zm-17.94-22.53c0-12.64 0-24.33 1.21-35.93 3.75 7.17 2.49 32.38-1.21 35.93zm15.25-40.72v-13.94c3.37 3.28 3.4 10.27 0 13.92zm2.24 5.05v20.67h-1.19v-20.66zm72.57 28.31c-20.28-17.13-42.61-20.31-67.75-10.41 0-5.65-.21-10.46.16-15.22a4.51 4.51 0 0 1 3.22-3c21.3-.18 42.6-.13 64.37-.13zm-59-34.48v-11.89h.93v11.83zm5.87 1.23v-13.39h40.14c0 3.73.16 7.34-.12 10.92a3.45 3.45 0 0 1 -2.41 2.35c-12.46.17-24.88.12-37.65.12zm44.81-2.59-.41.11v-9.16l.41-.08zm-113.25 126.72-6.66 2.65c-25.72-38.55-18.6-106.93 36.15-136.46 3.46 3.07 3.14 5.4-.52 8.56-19.39 16.73-34.03 36.73-38.66 62.42-1.49 8.24-.88 16.86-1 25.31 0 3.22 1.6 5.05 5.73 3.42-.71-14.31.67-28.62 6.2-42.26a91.06 91.06 0 0 1 25.93-36c0 7.59-.09 13.86 0 20.14.17 9.16-.5 17.91-4.06 26.77-5.2 12.91-3.8 26.28.17 39.65 5 17 9.17 34.32 13.57 51.53.81 3.16 1 6.46 1.59 10-10.44-3.97-19.31-12.25-38.44-35.73zm36-5.14c4.75 5.94 15.35 76.75 12.31 81.39-4.11-26.94-8.31-54.68-12.31-81.39zm71 102.22c-8.22 6.48-18 7.26-31.13 7.93-3.83-1-10.82-2.42-17.47-4.8-3.09-1.11-5.86-3.78-8.15-6.31-4.57-5-4.11-9.7 1-14.29 9.08-8.16 20.24-9.64 31.73-9.1 8.89.42 17.45 2.5 24.47 8.62 6.68 5.88 6.48 12.42-.52 17.95zm4.28-22.11c-17.65-11.61-37.15-12.06-57.23-3.2l-.61-1c1.69-1.2 3.25-2.7 5.11-3.55 8.26-3.82 17-4.17 25.94-3.43a108.18 108.18 0 0 1 10.89 1.44c3.57.67 5-.73 4.79-5.08-3.43-.69-7.08-2.09-10.72-2a235.06 235.06 0 0 0 -25.3 1.74c-4.06.51-6.73-.18-8.77-3.69-5.12-8.81-8.21-18.27-8.3-28.43-.06-7.4 3.93-13 10.18-16.7 1.44-.86 3.87-.76 5.61-.27a59.33 59.33 0 0 0 37.78-1.46c6.92-2.59 13.23 2.73 12 10.06-1.22 7.55-2.56 15.09-3.58 22.67-.19 1.38.9 2.94 1.39 4.41.87-1.31 2.22-2.52 2.52-3.95 3.11-15 6-30 9.09-45a30.33 30.33 0 0 1 2.09-5.11c-4.4 27.9-8.68 55.24-12.95 82.55zm68.72-109.61c-.3 2.68-1.42 4-4.12 3.64-5.35-.79-6.88 2.05-8.07 6.81-6.3 25.3-20.67 44.73-43.4 57.8-.84.49-1.76.85-3.37 1.61a39.85 39.85 0 0 1 .44-5.18c3.55-15.74 7-31.5 10.85-47.17 2-8.19 5.29-16.09 7-24.33 1.95-9.34.35-18.78-3.57-27.34a41.21 41.21 0 0 1 -3.45-19.33c.14-3.65 0-7.3 0-12.21a38.76 38.76 0 0 1 13.47 15.73c5.43 10.74 7.64 22.32 8.15 34.22.26 5.82-.06 11.66.1 17.49 0 .95 1.24 1.86 1.9 2.8 1-.82 2.86-1.58 2.91-2.45 1.59-27.22-.6-53.2-24.51-71.78a6.76 6.76 0 0 1 -2.16-4.5c-.28-4.79-.1-9.61-.1-14.87a91.16 91.16 0 0 0 -9.64-.7c-3.56.1-4.72-1.39-4.46-4.76.2-2.63 0-5.28 0-8.89 2.58.52 4.74.53 6.5 1.37 38.79 18.43 60.11 60.1 55.53 102.04z"/><path d="m154.66.51q-.3 7.25-.59 14.5-3.36 83.15-6.7 166.29c-.52 13-1 26-1.45 39 0 1-.21 1.93-.41 3.57-15.19 0-29.84-.11-44.49 0q-16.47.16-32.93.87c-4.15.17-5.34-1.4-5.49-5.47q-2.34-64.15-5-128.3-1.8-44.97-3.6-89.97h-7.33q3.67 80.36 7.4 160.71c1 21.3 2.26 42.59 3.45 63.88.17 3 0 5.86 4.73 5.83 28.52-.18 57-.13 85.55 0 3 0 4-1 4.14-4 .26-9.49.78-19 1.23-28.46q2.33-49.92 4.65-99.83c1.15-25 2.22-49.93 3.37-74.89q.54-11.82 1.1-23.63z" fill="#fff"/><path d="m157.29 369.18a38.76 38.76 0 0 1 13.47 15.73c5.43 10.74 7.64 22.32 8.15 34.22.26 5.82-.06 11.66.1 17.49 0 .95 1.24 1.86 1.9 2.8 1-.82 2.86-1.58 2.91-2.45 1.59-27.22-.6-53.2-24.51-71.78a6.76 6.76 0 0 1 -2.16-4.5c-.28-4.79-.1-9.61-.1-14.87a91.16 91.16 0 0 0 -9.64-.7c-3.56.1-4.72-1.39-4.46-4.76.2-2.63 0-5.28 0-8.89 2.58.52 4.74.53 6.5 1.37 38.77 18.43 60.09 60.1 55.46 102-.3 2.68-1.42 4-4.12 3.64-5.35-.79-6.88 2.05-8.07 6.81-6.3 25.3-20.67 44.73-43.4 57.8-.84.49-1.76.85-3.37 1.61a39.85 39.85 0 0 1 .44-5.18c3.55-15.74 7-31.5 10.85-47.17 2-8.19 5.29-16.09 7-24.33 1.95-9.34.35-18.78-3.57-27.34a41.21 41.21 0 0 1 -3.45-19.33c.18-3.61.07-7.26.07-12.17z" fill="#fff"/><path d="m52.19 357.18c0 7.59-.09 13.86 0 20.14.17 9.16-.5 17.91-4.06 26.77-5.2 12.91-3.8 26.28.17 39.65 5 17 9.17 34.32 13.57 51.53.81 3.16 1 6.46 1.59 10-10.46-3.99-19.33-12.27-38.46-35.75l-6.66 2.65c-25.72-38.55-18.6-106.93 36.15-136.46 3.46 3.07 3.14 5.4-.52 8.56-19.39 16.73-34.03 36.73-38.66 62.42-1.49 8.24-.88 16.86-1 25.31 0 3.22 1.6 5.05 5.73 3.42-.71-14.31.67-28.62 6.2-42.26a91.06 91.06 0 0 1 25.95-35.98z" fill="#fff"/><path d="m70.08 408.46a37.69 37.69 0 0 0 .07 28.79c7.5 18.48 29.31 27.45 48.29 19.9s28.5-30 20.95-48.9c-9.85-24.64-40.63-31.62-59.67-13.3-3 2.9-5.93 4.1-9.7 3.25s-5.32 1-6.67 4.11c-7.24 16.76-6.27 32.07 3.19 47.12-6.14 4.36-7.63 4.21-10.75-1.12-18.86-32.21 2.21-75.31 39.5-80.66s68.44 24.4 64.77 61.63c-.75 7.62-1.37 8.07-8.75 6.87 0-6.69.38-13.29-.11-19.82a30.86 30.86 0 0 0 -7.32-17.8l-1.43.47a46 46 0 0 0 1.43 4.49c9.64 22.79 2.74 45.71-17.76 58.4-13.08 8.09-26.73 8.37-39.8.67-15-8.83-24.37-21.63-23.49-40a54.08 54.08 0 0 1 2-11.76c.4-1.43 2.42-2.41 3.7-3.6z" fill="#fff"/><path d="m149.13 461.9c-4.37 27.94-8.65 55.28-12.92 82.59-17.65-11.61-37.15-12.06-57.23-3.2-.21-.35-.41-.7-.61-1 1.69-1.2 3.25-2.7 5.11-3.55 8.26-3.82 17-4.17 25.94-3.43a108.18 108.18 0 0 1 10.89 1.44c3.57.67 5-.73 4.79-5.08-3.43-.69-7.08-2.09-10.72-2a235.06 235.06 0 0 0 -25.3 1.74c-4.06.51-6.73-.18-8.77-3.69-5.12-8.81-8.21-18.27-8.3-28.43-.06-7.4 3.93-13 10.18-16.7 1.44-.86 3.87-.76 5.61-.27a59.33 59.33 0 0 0 37.78-1.46c6.92-2.59 13.23 2.73 12 10.06-1.22 7.55-2.56 15.09-3.58 22.67-.19 1.38.9 2.94 1.39 4.41.87-1.31 2.22-2.52 2.52-3.95 3.11-15 6-30 9.09-45a30.33 30.33 0 0 1 2.13-5.15z" fill="#fff"/><path d="m86.79 448.93c-1.66-1-3.54-1.84-4.93-3.17-10-9.51-13-25-7.41-37.19 5.72-12.45 18.77-19.91 32.91-18.82a33.4 33.4 0 0 1 29.43 24.67c2.52 9.68 1.36 18.78-5 26.85 1.27-4.17 2.53-8.34 4-13.06-1.49.32-1.94.28-2.09.47-.82 1-1.56 2.15-2.33 3.22a39.14 39.14 0 0 1 -20.63 15c-13.41 4.14-21.6 1.72-30.59-9a27.53 27.53 0 0 0 -2.15-2.04l-1.34 1.24z" fill="#fff"/><path d="m104.64 326.42c-14.17 0-28.34-.13-42.51.08-4 .06-5.26-1.25-5.16-5.13.22-8 .18-16 0-24-.07-3.34.94-4.74 4.54-4.73q43.24.17 86.51 0c3.74 0 4.92 1.2 4.8 4.9-.24 8-.31 16 0 24 .18 4.22-1.55 5-5.24 5-14.27-.21-28.58-.12-42.94-.12zm-32.15-33.2c-3.34 0-5.83.18-8.28 0-3.57-.33-4.6 1.22-4.52 4.62q.29 11.7 0 23.41c-.08 3.55 1.38 4.82 4.72 4.58 1.65-.12 3.45.33 4.94-.18 1.23-.42 3-1.85 3-2.86.23-9.63.14-19.23.14-29.57zm6.66 16.39c0-4.31.19-8.64-.12-12.93-.08-1.18-1.63-2.25-2.5-3.37-.77 1.06-2.19 2.1-2.21 3.18-.19 8.46-.21 16.92 0 25.37 0 1.25 1.5 2.47 2.3 3.7.85-1.34 2.33-2.62 2.45-4 .3-3.97.08-7.97.08-11.95zm67.63-.09c0 4-.2 8 .12 12 .11 1.4 1.53 2.69 2.35 4 .73-1.24 2.05-2.47 2.08-3.73q.28-12.48 0-25c0-1.17-1.49-2.31-2.29-3.47-.74 1.23-2.05 2.42-2.14 3.7-.28 4.16-.11 8.33-.12 12.5z" fill="#fff"/><path d="m129 237.32c.66 16.58-6.1 32.66-1.1 50.29-5.2 0-10.25 0-15.29 0-15.33-.05-12.81 1.11-13.2-13-.32-11.15-.62-22.3-1.08-33.44-.11-2.83.66-4.56 3.69-4.58q12.48-.08 25 0a5.78 5.78 0 0 1 1.98.73z" fill="#fff"/><path d="m78.79 368.23c0-5.65-.21-10.46.16-15.22a4.51 4.51 0 0 1 3.22-3c21.3-.18 42.6-.13 64.37-.13v28.77c-20.28-17.14-42.61-20.32-67.75-10.42z" fill="#fff"/><path d="m100.8 574.53c-3.83-1-10.82-2.42-17.47-4.8-3.09-1.11-5.86-3.78-8.15-6.31-4.57-5-4.11-9.7 1-14.29 9.08-8.16 20.24-9.64 31.73-9.1 8.89.42 17.45 2.5 24.47 8.62 6.74 5.88 6.54 12.42-.46 18-8.21 6.43-17.92 7.21-31.12 7.88zm2.14-1.29c8.72-1 17.16-3.11 21.83-6.54 7.37-5.43 7.38-14.15-.63-18.24-12.82-6.56-26.11-6.36-38.72.61-7.86 4.34-7.94 13.72-.08 18.08 5.36 2.96 11.66 4.12 17.6 6.09z" fill="#fff"/><path d="m93.4 345.39v-13.39h40.14c0 3.73.16 7.34-.12 10.92a3.45 3.45 0 0 1 -2.41 2.35c-12.42.17-24.84.12-37.61.12z" fill="#fff"/><path d="m86.79 448.93-10.17-11.83 1.38-1.24a27.53 27.53 0 0 1 2.13 2.05c9 10.74 17.18 13.16 30.59 9a39.14 39.14 0 0 0 20.63-15c.77-1.07 1.51-2.18 2.33-3.22.15-.19.6-.15 2.09-.47-1.43 4.72-2.69 8.89-4 13.06l-4.17 5.31c-1.46.71-2.95 1.38-4.39 2.14-8.27 4.34-16.92 6.31-26.24 4.34z"/><path d="m76.78 469.09 3.74-4.49c16 8.93 32.13 9.55 48.75 2.84 1.36-.55 3.37.54 5.9 1-15.75 11.89-43.83 12.02-58.39.65z" fill="#fff"/><path d="m73.06 286.74c5.32-5.85 4.81-12.43 3.58-19.41-1.65-9.32-2.76-18.72-4-28.1a6.75 6.75 0 0 1 .41-2.15l1.51-.17c.84 4 1.82 8 2.48 12.08 1.36 8.34 2.86 16.68 3.7 25.08.52 5.7-2.74 9.84-7.68 12.67z" fill="#fff"/><path d="m61 464.38c4.75 5.94 15.35 76.75 12.31 81.39-4.11-26.94-8.31-54.68-12.31-81.39z" fill="#fff"/><path d="m56.51 386c0-12.64 0-24.33 1.21-35.93 3.75 7.17 2.49 32.38-1.21 35.93z" fill="#fff"/><path d="m134.68 286.5c-3-2.47-6-5.86-5.25-11 1.83-12.59 3.87-25.16 5.83-37.74l1.64.15c-.46 4.51-.77 9-1.41 13.52-1.06 7.38-2.89 14.7-3.31 22.11-.24 4.27 1.61 8.7 2.5 12.96z" fill="#fff"/><path d="m94 237.36 1.65 47.95-1.31.06-3-48z" fill="#fff"/><path d="m151.69 384.43v-33.89h.69v34z" fill="#fff"/><path d="m72.81 371v-20.66h1.19v20.66z" fill="#fff"/><path d="m97 453.06c9.32 2 18 0 26.24-4.34 1.44-.76 2.93-1.43 4.39-2.14-8 7.11-17.2 10-27.78 8a10.27 10.27 0 0 1 -2.85-1.52z" fill="#fff"/><path d="m71.76 331.34c3.37 3.28 3.4 10.27 0 13.92z" fill="#fff"/><path d="m88.46 332.24v11.86l-.93.06v-11.89z" fill="#fff"/><path d="m137.8 342.91v-9.16l.41-.08v9.13z" fill="#fff"/><path d="m54 1q1.8 45 3.6 90 2.55 64.16 5 128.3c.15 4.07 1.34 5.64 5.49 5.47q16.45-.69 32.93-.87c14.65-.14 29.3 0 44.49 0 .2-1.64.38-2.61.41-3.57.5-13 .93-26 1.45-39q3.33-83.17 6.7-166.33.3-7.26.59-14.5c-33.56-.13-67.12.34-100.66.5z"/><path d="m72.49 293.22c0 10.34.09 19.94-.14 29.53 0 1-1.77 2.44-3 2.86-1.49.51-3.29.06-4.94.18-3.34.24-4.8-1-4.72-4.58q.29-11.7 0-23.41c-.08-3.4 1-4.95 4.52-4.62 2.45.22 4.94.04 8.28.04z"/><path d="m79.15 309.61c0 4 .22 8-.12 11.93-.12 1.4-1.6 2.68-2.45 4-.8-1.23-2.27-2.45-2.3-3.7-.2-8.45-.18-16.91 0-25.37 0-1.08 1.44-2.12 2.21-3.18.87 1.12 2.42 2.19 2.5 3.37.31 4.29.12 8.62.12 12.93z"/><path d="m146.79 309.52c0-4.17-.17-8.34.1-12.48.09-1.28 1.4-2.47 2.14-3.7.8 1.16 2.26 2.3 2.29 3.47q.3 12.48 0 25c0 1.26-1.35 2.49-2.08 3.73-.82-1.33-2.24-2.62-2.35-4-.31-4.02-.11-8.03-.1-12.02z"/><path d="m102.94 573.24c-5.9-2-12.24-3.13-17.6-6.09-7.86-4.36-7.78-13.74.08-18.08 12.61-7 25.9-7.17 38.72-.61 8 4.09 8 12.81.63 18.24-4.67 3.43-13.11 5.56-21.83 6.54z"/><path d="m208.59 413v18.8a9.93 9.93 0 0 0 -.48 1.39c-1.08 5.61-1.65 11.38-3.33 16.8-2 6.57-5 12.85-7.58 19.26h-9.73v15.75q-3 3.47-5.92 6.91c0-2.52.09-5 0-7.56a76.82 76.82 0 0 0 -.56-9.11c-.43-2.8-2.09-5.28-5-5.58-4-.42-8.14-.11-12.37-.11v2.24l.12 35.73a11.88 11.88 0 0 1 -1.86 1.64c-5.27 2.89-10.42 6.08-15.89 8.51-11.31 5-23.07 8.28-35.66 7.66a112.47 112.47 0 0 0 -11.9 0 68.07 68.07 0 0 1 -29-5.18c-6.67-2.65-12.94-6.27-19.39-9.46h9.86v-5.58h-7.53v-13.22h7v-5.2h-7v-12.14h7.24v-5.22h-13.77v38.67l-11.58-9.2v-29.49h-6.26v23.21l-8-9.4 2.79-.74c-.1-2-.1-4.14-.33-6.22-.69-6.09-4.51-8.63-10.57-7.13l-3.19-6.48.23-1.79 2.13-1.44-2.06-1.47v-2.05l2.32-1.8a19.15 19.15 0 0 0 -2.43-.6 8.26 8.26 0 0 0 -1.79.12l-.64 4a3.25 3.25 0 0 0 -.07-.45q-14.68-43.31 6.31-83.92c1.73-3.34 4-6.37 6.07-9.54 4.3 5.54 8.56 11.11 12.91 16.61 4.58 5.78 9.32 11.44 13.81 17.34 1.3 1.73 1.92 4 2.62 6.14a37.31 37.31 0 0 1 1 5l-1.11 1.83 2.14.72c.3 1 .3 2 .78 2.45a53.35 53.35 0 0 1 9.74 11.65c3.12 5 6.47 9.79 9.65 14.73 1.61 2.49 2.92 5.17 4.63 7.58 1.08 1.54 2.8 2.62 4 4.1 4.3 5.45 8.5 11 12.72 16.5a7.22 7.22 0 0 1 .54 1.11 7.83 7.83 0 0 1 -1.09-.1c-8.2-2-13 1.64-13.14 10-.09 6.88-.21 13.76.08 20.63a18 18 0 0 0 2.08 7.82c2.48 4.44 8.46 4.5 11.51.47a5.76 5.76 0 0 1 .79-.73l.85 3h2.69v-22.32h-8.53v4.26l3.45.38c-.34 3.72-.52 7.29-1.1 10.79a3.31 3.31 0 0 1 -2.56 1.92c-.85 0-1.93-1.16-2.44-2.08a7 7 0 0 1 -.47-3.13c0-3.89 0-7.79 0-11.69 0-3.74 0-7.48.19-11.22.08-1.67.74-3.22 2.85-3.21s2.64 1.57 2.64 3.29c.07 2 0 4 0 6h6.17c-.23-3.39-.44-6.59-.71-10.51 2.12 3.08 4 5.57 5.56 8.2a7.33 7.33 0 0 1 1.07 3.6c.09 7.79.05 15.58.05 23.38v2.4h6.31v-19h5.74v19h6.26c0-13.46.05-26.74-.09-40 0-1.11-1.31-2.21-2-3.3l-.31 1.93c-.68-7.27-1.34-14.27-2-21.68l-.87 1.57c-.42-5.08-.82-9.71-1.18-14.35-.05-.58-.08-1.55.23-1.72 2-1.1 1.3-2.88 1.33-4.49 0-.88 0-1.77 0-2.79l1.57.72c0-5.18 0-10.19 0-15.21 0-1.86.9-2.48 3-1.87-.81-2.4 1.71-4.6.19-7l.35-.31c3.79-1 4-1.07 2.79-4.44a22.64 22.64 0 0 1 -1.66-9.51c.32-4.16-.22-8.41.24-12.55.34-3.12.06-5.64-2.2-7.93a2.49 2.49 0 0 1 -.06-2.36c1.31-2 1.33-2.1-.9-2.45l-1-2.93c.88-2.15.58-2.77-1.33-2.7-.56-4-1.16-8-1.68-12-1.13-8.81-2.21-17.64-3.32-26.46 9.9-.11 19.32 2.37 28.53 5.65a85.08 85.08 0 0 1 22.55 11.66c-.4.3-1.15.6-1.16.91-.07 4.71-.05 9.41-.05 14.22h2.41v-5.91c3 .48 4.06-1 4.22-3.43 0-.61.1-1.21.15-1.82l1.48 1.12v9.91c4.52.71 5.23.47 5-1.59l-2.65-.23a13.28 13.28 0 0 1 .05-3 6.7 6.7 0 0 1 1.26-1.92l3.53 3.15v4.36l2.83-1.75 2.89 3.42a11 11 0 0 0 .3 2.17c.25.72 1.06 1.34 1.08 2 .12 3.2 0 6.42.12 9.62 0 .57.78 1.11 1.21 1.66.41-.56 1.14-1.11 1.17-1.7.15-3 .11-6 .14-8.93l2.89 3.83v6.81h4.47q2.19 4.14 4.36 8.29v6.47l1.54-3.15q.94 2.26 1.88 4.53a1 1 0 0 0 -.34.06h-1.57c-.62.13-1.76.23-1.77.4-.13 2-.09 4-.09 5.95h.64l.52-2.65 1 2.58 1.15.08 1.16-.81 1.5.88c.94 3.68 2 7.35 2.79 11.06.77 3.41 1.26 6.96 1.85 10.41zm-44.67-35.6a.21.21 0 0 0 -.24-.16c-2.44-.92-1.8 1-1.93 2.12l-1.58-.2.77-2.38c-.64.21-1.65.36-1.66.58-.13 1.93-.07 3.86-.07 5.79 1.24-2.65 1.24-2.65 2.54-2.52l.63 2.61 1.62-.52.17-.81 1.25 1a13.82 13.82 0 0 0 2-.33c0-1.81-.23-3.61-.39-5.41l-2.89 1-.2-.56zm23.54 5.81 1.66.12c-.29-.72-.86-1.6-.69-1.78 1.22-1.31-.61-2.64.15-3.88l-1.07-.42-.83.42-2.63-.27v5.77h.65c.17-.8.34-1.59.58-2.68l.92 2.75zm3.66 12.33.14.11a9.84 9.84 0 0 0 -.76 2.34c0 .51.46 1.07.74 1.67.26-1.14.44-1.82.56-2.52a22.32 22.32 0 0 0 .38-3.25c0-.2-1-.69-1.2-.56a2.33 2.33 0 0 0 -.83 1.41c-.04.26.63.56.97.83zm-22-8.28-1.38-2.2c-.45.76-.94 1.51-1.34 2.3a1.61 1.61 0 0 0 0 .9c.2 1.22-.59 3.19 1.45 3.21 2.3 0 .89-2.06 1.28-3.15zm-.19-8.8c-.05-.06-.09-.13-.16-.16s-.11 0-.17 0c0 1.28-.05 2.57.09 3.84.05.44.76 1.21 1 1.15.54-.16 1.45-.85 1.38-1.05a15.83 15.83 0 0 0 -1.43-2.69zm-22.36 10.24-2.32 2.11c-.19-1.88-.36-3.53-.52-5.19l-.58.05a12.37 12.37 0 0 0 -.11 2.64 24.2 24.2 0 0 0 1 3.29l2.73-1.05 1.93.85c.19-1.74.39-3.48.5-5.22 0 0-1.07-.15-1.64-.23l-2.3-.38-.33.43 1.68 1.8zm22.57 8.73a25.63 25.63 0 0 0 0-3.16 1.59 1.59 0 0 0 -1-1c-.29-.09-1 .28-1.07.51a7.61 7.61 0 0 0 0 3.08c.1.35 1.37.36 2.11.52l-.23 2.14.37.16 2-4.35c.16 1.39.19 2.18.36 2.93a7.39 7.39 0 0 0 .7 1.48c.45-.39 1.23-.74 1.29-1.19.23-1.66.49-3.53-2.16-3.32l.15-2.42zm-14.69-11.52-2.45-.33-.4 1.55-1.27-2c-.82 3-.64 5 .59 6.32.22-1 .4-1.82.58-2.66l2.06-.51a8.66 8.66 0 0 0 -.07 2.52c.11.44.88.71 1.65 1.26l-.62-6.08.39-.27zm-27.45 83.51v41.1h6.08v-19.24c4.32-.46 5.29.36 5.33 4.27 0 3.59 0 7.18.05 10.77 0 1.41.12 2.82.18 4.16h5.81c0-5.28 0-10.39 0-15.5 0-2.51-.61-4.82-2.45-6.07.85-1.63 2.11-3 2.24-4.51a55 55 0 0 0 0-10c-.23-2.53-1.76-4.69-4.42-4.88-4.26-.32-8.52-.1-12.82-.1zm23.93-.1v41.18h6.1v-41.18zm-79.14 41.26v-41.26h-6.05v41.26zm85.05-167.58.46.07v8.55c.89-.59 1.83-.91 1.83-1.26.1-4.77.07-9.55.07-14.3h-2.82c-.64 3.29-1.26 6.47-1.87 9.66l-.42-.06c-.65-3.19-1.3-6.38-2-9.62h-2.69v14.96c1.84.24 1.87.24 1.9-1.33 0-2 0-3.91 0-5.86a31.68 31.68 0 0 1 1.86 6.19c.11.46.68.81 1 1.21.42-.41 1.09-.76 1.21-1.24.63-2.32 1.01-4.63 1.47-6.97zm8.85 18h.22c0 1.6-.1 3.2 0 4.79a3 3 0 0 0 3.22 3.13 2.91 2.91 0 0 0 3.26-3c.12-3.19.11-6.39 0-9.58a2.82 2.82 0 0 0 -3.06-3 3 3 0 0 0 -3.43 2.9c-.14 1.65-.13 3.26-.21 4.85zm9-7.59v15.2c1.71.52 2.27-.07 2.19-1.62-.08-1.73 0-3.47 0-5.21l.76-.33c.38.59 1 1.15 1.09 1.79a22.81 22.81 0 0 1 .06 3.88c-.07 1.9.86 2 2.26 1.38a46.77 46.77 0 0 0 -.05-5.5 11.76 11.76 0 0 1 0-4.27c.92-4-.37-5.28-4.47-5.25zm-133.61 99.93c0 4 0 7.62.05 11.26 0 .48.61.95.94 1.42.34-.47.91-.92 1-1.43.13-1.44 0-2.89 0-4.35l1.11-.1c.15 1.13.26 2.26.49 3.38.17.89-.72 2.43 1.06 2.38.35 0 .86-1.57.93-2.45.19-2.27-.56-4.48-.07-6.86s-.6-3.22-3.14-3.25zm116.83-99.71v15.29l2.27-.22v-5.56c3.83-.82 4.75-2.27 4.16-6.27-.46-3.15-1.4-3.64-6.43-3.24zm-118.77 112.56.61-.53c-.53-3.38-1.18-6.75-1.54-10.15-.2-1.94-.88-2.62-3-1.87l-1.77 12.15.59.4c.46-.37 1-.72 1.4-1.11s.84-.83 1.27-1.24c.36.38.72.77 1.1 1.14s.89.81 1.34 1.21zm-14.14-6.55a35.67 35.67 0 0 0 0-3.87 2.45 2.45 0 0 0 -2.68-2.5c-1.64 0-2.72.76-2.79 2.37-.12 2.72-.11 5.46 0 8.19.09 1.61 1.24 2.39 2.84 2.34a2.46 2.46 0 0 0 2.63-2.43c.13-1.36 0-2.74 0-4.1zm2.09 6.81c1.86-.53 4.06-.5 4.73-1.5.81-1.19.34-3.27.38-5a15.17 15.17 0 0 0 -.16-1.64c-.12-1.45.3-3.43-.48-4.22s-2.83-.67-4.47-1zm-9.19-6.73c0-1.37.29-2.84-.1-4.09a4 4 0 0 0 -2.3-2.25 2.11 2.11 0 0 0 -2.9 1.81 65.94 65.94 0 0 0 0 8.89c.09 1.49 1.36 2.17 2.83 2.06a2.44 2.44 0 0 0 2.45-2.53c.12-1.29.05-2.61.05-3.89zm128.78-108.59v-15.2l-2 .24v15zm55.11 45.46c-.82-1.36-1.4-3.19-2-3.2-2.09 0-1.49 1.95-1.41 3.14a12.36 12.36 0 0 0 1.21 3.27zm-21.92-5.14c3.22.44 2.49-1.81 2.57-3.36s.12-3.37-2.57-2.84zm-19.36 4.3.56-.23c-.43-.74-.85-1.49-1.27-2.23-.52.42-1.38.77-1.48 1.27a11.57 11.57 0 0 0 -.07 3.76c.08.54.88 1 1.35 1.46.42-.54 1.08-1 1.2-1.63a7.8 7.8 0 0 0 -.29-2.4zm-4.33-4.41.54.05c.1-.86.21-1.72.39-3.11l1.68 3.13v-5.89l-1.26.93-1.35-1.45zm24.63-14.28v6.3c3.84 0 1.78-2.91 2.3-4.36s-.41-2.27-2.3-1.94zm-1 16.45v5.18c0 .37.49.8.86 1 .14.08.78-.36.87-.66a29.81 29.81 0 0 0 .77-3.52c.3-1.8-.43-2.57-2.52-2zm-19.37-8.27h-.44v6.11h.43l.61-2.86.8 2.91.24-.12v-5.93h-.41l-.56 2.79c-.32-1.39-.5-2.14-.69-2.9zm14.87 6.69v-6.6h-.45l-.36 2.2-1.55-2.81v6.62h.36l.61-2.06zm19.77-6.23c-.29 2.07-.55 3.82-.8 5.58 1.06-1.8 2 .06 3.28.12-1.19-1.85.05-4.25-2.5-5.7zm-2.39-8.7h-.89l-.87 5.58.72.12.66-2.37.58 2.13c2.54-2.34-.89-3.62-.2-5.46zm-17.14 6.14h.59c.24-.83.23-2 .78-2.45 1.32-1.18 1.72-2.68.43-3.44-.37-.21-1.69.31-1.72.58-.15 1.77-.08 3.54-.08 5.3zm11.17 7.48.74-1.12 1.18 2.48v-6.98c-2.45 1.5-2.05 3.58-1.92 5.61zm-21.65 7.88-1.2-.46-.37.43 1.29 1.31c.4-.46 1.16-.94 1.13-1.38a30.42 30.42 0 0 0 -.82-4.23c-.11.1.25-.21.6-.53-.8-.22-1.79-.12-1.91.25a4.82 4.82 0 0 0 .09 2.32c1.84.09 1.04 1.35 1.19 2.28zm.83-7.21-.68-3.89c-2.1.44-2.13.49-2.14 4.77.84-2.03 1.64-1.77 2.82-.89zm30.81-14.17c-1.52 0-1.49 0-1.45 4.39 0 1.31.08 2.35 1.45 1.87zm-3.48 8.12c-1.63 2.06-1.94 4.11 0 6.47zm-9.9 11 .83 3.54.87-.16c.11-1.23.23-2.46.33-3.51zm-64 56.35h.75l-.64-5.06-.81.12c.23 1.58.47 3.24.7 4.9zm71.11-75.26-.3.3.58.55.35-.35z" fill="#c72721"/><path d="m18.77 363.58c3.76-6.54 8.83-12 14.27-17.15a101 101 0 0 1 26.49-18.16c13.08-6.11 26.69-10 41.28-9.68 3.56.08 7.13.05 10.69.06 1.11 8.82 2.19 17.65 3.32 26.46.52 4 1.12 8 1.68 12 .07.9.14 1.8.22 2.7v.5l.26 3.34.6-.07-.33-3.25a3.09 3.09 0 0 1 .14-.43.7.7 0 0 0 .4-.09l1 2.93c2.23.35 2.21.49.9 2.45a2.49 2.49 0 0 0 .06 2.36c2.26 2.29 2.54 4.81 2.2 7.93-.46 4.14.08 8.39-.24 12.55a22.64 22.64 0 0 0 1.66 9.51c1.2 3.37 1 3.47-2.79 4.44l-.29-.24-.06.55c1.52 2.4-1 4.6-.19 7-2.06-.61-3 0-3 1.87v15.21l-1.57-.72v2.79c0 1.61.65 3.39-1.33 4.49-.31.17-.28 1.14-.23 1.72.36 4.64.76 9.27 1.18 14.35l.87-1.57c.69 7.41 1.35 14.41 2 21.68l.31-1.93c.69 1.09 2 2.19 2 3.3.14 13.29.09 26.57.09 40h-6.26v-19h-5.74v19h-6.31v-2.4c0-7.8 0-15.59-.05-23.38a7.33 7.33 0 0 0 -1.07-3.6c-1.61-2.63-3.44-5.12-5.56-8.2.27 3.92.48 7.12.71 10.51h-6.08c0-2 0-4 0-6-.07-1.72-.54-3.27-2.69-3.29s-2.77 1.54-2.85 3.21c-.18 3.74-.17 7.48-.19 11.22v11.69a7 7 0 0 0 .47 3.13c.51.92 1.59 2.07 2.44 2.08a3.31 3.31 0 0 0 2.56-1.92c.58-3.5.76-7.07 1.1-10.79l-3.45-.38v-4.26h8.49v22.34h-2.64l-.85-3a5.76 5.76 0 0 0 -.79.73c-3 4-9 4-11.51-.47a18 18 0 0 1 -2.09-7.78c-.29-6.87-.17-13.75-.08-20.63.1-8.38 4.94-12 13.14-10a7.83 7.83 0 0 0 1.09.1 7.22 7.22 0 0 0 -.54-1.11c-4.22-5.51-8.42-11.05-12.72-16.5-1.17-1.48-2.89-2.56-4-4.1-1.71-2.41-3-5.09-4.63-7.58-3.18-4.94-6.53-9.76-9.65-14.73a53.35 53.35 0 0 0 -9.74-11.65c-.48-.43-.48-1.42-.78-2.45l-2.09-.74 1.07-1.85a37.31 37.31 0 0 0 -1-5c-.7-2.11-1.32-4.41-2.62-6.14-4.45-5.88-9.19-11.54-13.77-17.35-4.35-5.5-8.61-11.07-12.91-16.61zm80.68-13.8c.81.74.81.74 1.85-1.19l-1.35-.69c2 .4 1.89-1.63 2.87-2.41l-3.24-3.15-1.55 3.68-3-.59-.49-2.87c-1.56 1.64-1.67 2.5.21 3.1v.76l-1.19.4-.56-.02.44.33-2.59 1.23-.85-1.66c-.6 1-1.24 1.64-1.3 2.33 0 .38.93.84 1.44 1.26l.68-1.4 4.74.56-.6-2.83 3.48 2.71zm8.28 31.62v-.5l1.79-1 1-.15 3.67-.16a8.75 8.75 0 0 0 .34 2.26c.6 1.38 1.38 2.67 2.11 4.05 2-.82 2.49-2.31 2-6.65a5.31 5.31 0 0 1 -1.33-.16c-.1 0 0-.59 0-.91l.61-.42-1.56-.87a1.77 1.77 0 0 0 -.32-.21c.34-3.43-1.67-5.86-3.56-8.33-.16-.21-.71-.11-1.08-.15-.18-2 .17-4.23-2.56-5.36l-1.49 1.62 2.14 1.4.5 1.86-1 .09-1.29-1.08-.87-.92c-1.49-1.41-2.7-3.47-5.31-2.27h-.52l-.5-.41h-.06c-5.42 1-7.82-.67-9.61-4.62a3.11 3.11 0 0 0 -.81-1c-1.87-1.66-3.75-3.31-5.65-4.92a1.81 1.81 0 0 0 -1.13-.45c-2.85.12-5.41.83-6.63 3.79a24.9 24.9 0 0 0 -1.32 3.62c-.57 2.39-1 4.82-1.47 7.23a24.25 24.25 0 0 0 -13.55 8l-1.27 4.42-2.75-2.32-.47.28 3.34 6.77.9 2.9c-.07.44-.33.95-.19 1.31 1.31 3.49 2.65 7 4.1 10.41.13.31 1 .29 1.59.42.15.39.31.78.46 1.18l-.44.88-3.46 4.69c0 2 0 4 .22 6a3.41 3.41 0 0 0 1.25 1.89 6.9 6.9 0 0 0 7.54 1.2c.15.66.25 1.33.46 2 1.85 5.68 3.56 11.41 5.66 17 1.46 3.9 2.83 8.06 7.15 10 .79.67 1.65 1.27 2.38 2a31.53 31.53 0 0 1 4.45 4.89c1 1.54 1.09 3.61 1.86 5.32 2.85 6.33 5.82 12.61 8.75 18.91l.33.5 1.66 3.63c-.62 1.47.39 5.45 1.64 6.37.08.07.29 0 .44-.05l.47.55-.87 1.13c.87.48 1.71 1.32 2.61 1.37a12.77 12.77 0 0 0 3.46-.63v-1.8a11.29 11.29 0 0 0 3-.07 16.67 16.67 0 0 0 3-1.61l-1.19-1.11-.35-.5c.83-3-.06-5.7-1.36-8.34-.51-2.57-1-5.13-1.54-7.7v-2.75l-.77-2.23q-.94-2.55-1.91-5.08l-1.23-4.74c-.45-1.59-1-3.15-1.34-4.77a29.46 29.46 0 0 1 -.75-6.64 17.4 17.4 0 0 1 1.4-6.62c1.77-3.66.37-6.85-.65-10.19 1-.68 2-1.33 3-2.05 1.55-1.18 2.9-2.49 2.28-4.73.33-.82 1.12-1.83.88-2.42a15.83 15.83 0 0 0 -2.31-3.25l-.58-2.73 1.28-.94c.37-1.22 1.49-2.43.07-3.69.08-.8.53-1.94.17-2.33-1.34-1.45-2.21-3.55-4.67-3.7a3.26 3.26 0 0 1 -3.28-2.62l-.92.38-.27-2.06 1-.11.36.36-.14-.55-.2-1 .38-2.27a17.29 17.29 0 0 1 1 1.58 4.18 4.18 0 0 0 5.91 2.08 2.38 2.38 0 0 0 1-1.65 20.47 20.47 0 0 0 -.11-5c-.2-1.05-1.09-2-1.67-2.94-.09-2.13-1.57-2.52-3.3-2.61zm-51.37 33.49v1.86c.42-.05 1 .06 1.23-.17a6.85 6.85 0 0 0 1.93-2c.43-.85 1.5-1.88.16-2.9l-.18-3.68c.51-1.57 1-3.13 1.54-4.69-1.84-1.11-2.51-.84-3 1-.36 1.43-.94 2.81-1.34 4.23a14.4 14.4 0 0 0 -.26 2.19c-.92 1.36-1.82 2.72-.08 4.16zm37.23-77.76c-1-1.22-2.23-2.7-3.42-4.21-.82-1.05-1.55-2.18-2.38-3.22a2 2 0 0 0 -1.06-.63c-.27-.06-.83.13-.9.33-.7 2.18-1.7 4.88 0 6.44 2.33 2.06 2.65 4.51 3.14 7.12 0 .06.21.09.24.1zm24 64.26-.8 1.49-1.79-1.61-.36 4.25c1.73-.03 3.03-1.65 2.96-4.13zm-22.41-49.92a10 10 0 0 0 1.43 1.92 2.1 2.1 0 0 0 1.55.5 1.44 1.44 0 0 0 .87-1.11 1.47 1.47 0 0 0 -.94-1 21.41 21.41 0 0 0 -2.91-.31zm18.12 57.22-.64-.28-.34 1.64.45.13zm2.55 40.92h-.16v.76h.16zm-12.7-102.44-.17.08.17.08zm-13.58 3.72.1.08v-.11z" fill="#f9efc3"/><path d="m127 469.42c4.27 0 8.53-.22 12.76.08 2.66.19 4.19 2.35 4.42 4.88a55 55 0 0 1 0 10c-.13 1.49-1.39 2.88-2.24 4.51 1.84 1.25 2.43 3.56 2.45 6.07v15.5h-5.81c-.06-1.34-.16-2.75-.18-4.16 0-3.59 0-7.18-.05-10.77 0-3.91-1-4.73-5.33-4.27v19.24h-6.02zm6.24 16.44c4.09.69 5 0 5.15-3.85.05-1.22.05-2.44 0-3.65-.09-4-1-4.73-5.18-4.17z" fill="#f9efc3"/><path d="m169.66 502.88-5.94 4.64-.12-35.73v-2.24c4.23 0 8.34-.31 12.37.11 2.94.3 4.6 2.78 5 5.58a76.82 76.82 0 0 1 .56 9.11c.08 2.52 0 5 0 7.56l-6.05 6c-.09-.9-.25-1.8-.26-2.7 0-5.64 0-11.29-.1-16.93-.1-3.62-1.77-4.76-5.31-3.87v3.36q-.07 12.55-.15 25.11z" fill="#f9efc3"/><path d="m50 510.69-4.15-2.69c0-12.83 0-25.65 0-38.65h13.71v5.22h-7.24v12.14h7v5.2h-7v13.22h7.58v5.58z" fill="#f9eec2"/><path d="m151 469.32h6.1v41.18h-6.1z" fill="#f8edc1"/><path d="m71.79 510.58h-6.05v-41.26h6.05z" fill="#f8edc1"/><path d="m34.26 498.8-6.26-6.28v-23.21h6.28z" fill="#f8edc1"/><path d="m156.84 343c-.46 2.3-.86 4.61-1.42 6.89-.12.48-.79.83-1.21 1.24-.36-.4-.93-.75-1-1.21a31.68 31.68 0 0 0 -1.86-6.19v5.86c0 1.57-.06 1.57-1.9 1.33v-14.84h2.72c.67 3.24 1.32 6.43 2 9.62l.42.06c.61-3.19 1.23-6.37 1.87-9.66h2.82c0 4.75 0 9.53-.07 14.3 0 .35-.94.67-1.83 1.26v-8.55z" fill="#f7eabf"/><path d="m20 483.12c-2.36-3.77-4.75-7.53-7.06-11.34a15.94 15.94 0 0 1 -1.07-2.78c6.06-1.5 9.88 1 10.57 7.13.23 2.08.23 4.2.33 6.22z" fill="#f8edc1"/><path d="m197.2 469.28c-2.27 5.84-6 10.81-9.73 15.72v-15.72z" fill="#f9eec2"/><path d="m165.69 361.09c.08-1.59.07-3.2.25-4.78a3 3 0 0 1 3.43-2.9 2.82 2.82 0 0 1 3.06 3c.09 3.19.1 6.39 0 9.58a2.91 2.91 0 0 1 -3.26 3 3 3 0 0 1 -3.22-3.13c-.12-1.59 0-3.19 0-4.79zm4.44.05c0-1.37.09-2.75 0-4.11-.06-.53-.62-1-1-1.51-.31.46-.87.91-.88 1.37q-.12 4.33 0 8.69c0 .43.61.85.94 1.28.31-.46.83-.9.87-1.38.15-1.43.07-2.89.07-4.34z" fill="#f7e6bc"/><path d="m174.71 353.5h1.77c4.1 0 5.39 1.28 4.47 5.25a11.76 11.76 0 0 0 0 4.27 46.77 46.77 0 0 1 .06 5.57c-1.4.57-2.33.52-2.26-1.38a22.81 22.81 0 0 0 -.06-3.88c-.09-.64-.71-1.2-1.09-1.79l-.76.33c0 1.74-.06 3.48 0 5.21.08 1.55-.48 2.14-2.19 1.62zm2.31 6.35c2.15-.11 1.85-1.56 1.74-2.63a6.32 6.32 0 0 0 -1-2l-.7.3z" fill="#f7e6bc"/><path d="m41.08 453.34h2.37c2.54 0 3.64.83 3.14 3.25s.26 4.59.07 6.86c-.07.88-.58 2.44-.93 2.45-1.78.05-.89-1.49-1.06-2.38-.23-1.12-.34-2.25-.49-3.38l-1.11.1c0 1.46.09 2.91 0 4.35-.05.51-.62 1-1 1.43-.33-.47-.93-.94-.94-1.42-.08-3.6-.05-7.29-.05-11.26z" fill="#f4dbb2"/><path d="m157.91 353.63c5-.4 6 .09 6.43 3.24.59 4-.33 5.45-4.16 6.27v5.56l-2.27.22zm2.32 7.06c2 .45 1.84-1.08 1.81-2.06 0-1.21.61-3-1.81-3.24z" fill="#f7e6bc"/><path d="m39.14 466.19c-.45-.4-.9-.79-1.33-1.21s-.74-.76-1.1-1.14c-.43.41-.83.85-1.27 1.24s-.94.74-1.4 1.11l-.59-.4 1.77-12.15c2.11-.75 2.79-.07 3 1.87.36 3.4 1 6.77 1.54 10.15z" fill="#f5dfb6"/><path d="m25 459.64c0 1.36.1 2.74 0 4.1a2.46 2.46 0 0 1 -2.55 2.42c-1.6 0-2.75-.73-2.84-2.34-.14-2.73-.15-5.47 0-8.19.07-1.61 1.15-2.37 2.79-2.37a2.45 2.45 0 0 1 2.68 2.5 35.67 35.67 0 0 1 0 3.87zm-2.79 4.68c1.46-1.6 1.44-7.8 0-9.33-1.15 1.66-1.14 7.78.03 9.33z" fill="#f5dfb6"/><path d="m27.12 466.45v-13.28c1.64.29 3.6.09 4.47 1s.36 2.77.48 4.22a15.17 15.17 0 0 1 .16 1.64c0 1.69.43 3.77-.38 5-.67.97-2.85.89-4.73 1.42zm2-2c2.38-.48 1.51-2.21 1.54-3.39 0-.41-.79-.83-1.54-1.55zm0-6.25.81.34a6.84 6.84 0 0 0 .66-2.09c0-.6-.54-1.18-.84-1.77l-.63.26z" fill="#f7e6bc"/><path d="m162.63 336 2.45 1.81c-.44.36-1.22.7-1.26 1.1a40 40 0 0 0 -.06 4.38l.78.29c.38-.54 1-1 1.1-1.64a18 18 0 0 0 .15-3.13l2.41 1.16c0 .61-.11 1.21-.15 1.82-.16 2.47-1.26 3.91-4.22 3.43v5.91h-2.41c0-4.81 0-9.51.05-14.22.01-.34.76-.64 1.16-.91z" fill="#f7eabf"/><path d="m17.93 459.72c0 1.3.05 2.6 0 3.89a2.44 2.44 0 0 1 -2.45 2.53c-1.47.11-2.74-.57-2.83-2.06a65.94 65.94 0 0 1 0-8.89 2.11 2.11 0 0 1 2.9-1.81 4 4 0 0 1 2.3 2.25c.37 1.25.08 2.72.08 4.09zm-2.62 4.78c1.17-2 1.09-8.07 0-9.52-1.41 1.45-1.48 7.69 0 9.52z" fill="#f7e6bc"/><path d="m182.56 353.45 4 4.84c0 3 0 6-.14 8.93 0 .59-.76 1.14-1.17 1.7-.43-.55-1.19-1.09-1.21-1.66-.12-3.2 0-6.42-.12-9.62 0-.68-.83-1.3-1.08-2a11 11 0 0 1 -.28-2.19z" fill="#f2d5ae"/><path d="m146.68 351.13h-2v-15l2-.24z" fill="#f7e6bc"/><path d="m169.68 341.06 3.63 3.21a6.7 6.7 0 0 0 -1.26 1.92 13.28 13.28 0 0 0 -.05 3l2.65.23c.26 2.06-.45 2.3-5 1.59z" fill="#f7eabf"/><path d="m8.7 462.55-2.24-5.06.64-4a8.26 8.26 0 0 1 1.79-.12 19.15 19.15 0 0 1 2.43.6l-2.32 1.83v2.05l2.11 1.47-2.13 1.44z" fill="#f7e6bc"/><path d="m154.53 386 .62 6.08c-.77-.55-1.54-.82-1.65-1.26a8.66 8.66 0 0 1 .07-2.52l-2.06.51c-.18.84-.36 1.67-.58 2.66-1.23-1.28-1.41-3.33-.59-6.32l1.27 2 .4-1.55 2.45.33z" fill="#d0483c"/><path d="m201.79 396.59-2.2 3.21a12.36 12.36 0 0 1 -1.21-3.27c-.08-1.19-.68-3.15 1.41-3.14.6.01 1.21 1.84 2 3.2z" fill="#eab392"/><path d="m189.47 362.12 4.47 6.81h-4.47z" fill="#f4dbb2"/><path d="m179.87 391.45v-6.2c2.69-.53 2.65 1.21 2.57 2.84s.65 3.8-2.57 3.36z" fill="#eec4a0"/><path d="m160.51 395.75a7.8 7.8 0 0 1 .29 2.4c-.12.6-.78 1.09-1.2 1.63-.47-.48-1.27-.92-1.35-1.46a11.57 11.57 0 0 1 .07-3.76c.1-.5 1-.85 1.48-1.27.42.74.84 1.49 1.27 2.23z" fill="#eec4a0"/><path d="m156.18 391.34v-6.34l1.35 1.46 1.26-.93v5.89l-1.68-3.13c-.18 1.39-.29 2.25-.39 3.11z" fill="#eab392"/><path d="m180.81 377.06c1.89-.33 2.83.48 2.3 1.94s1.54 4.38-2.3 4.36z" fill="#f0cda7"/><path d="m169.15 397.46 2.54-4.61-.15 2.42c2.65-.21 2.39 1.66 2.16 3.32-.06.45-.84.8-1.29 1.19a7.39 7.39 0 0 1 -.7-1.48c-.17-.75-.2-1.54-.36-2.93l-2 4.35-.37-.16.23-2.14z" fill="#eab392"/><path d="m186.2 383.27-.92-2.75c-.24 1.09-.41 1.88-.58 2.68h-.65v-5.77l2.63.27z" fill="#eab392"/><path d="m179.79 393.51c2.09-.57 2.82.2 2.54 2a29.81 29.81 0 0 1 -.77 3.52c-.09.3-.73.74-.87.66-.37-.21-.84-.64-.86-1-.09-1.69-.04-3.45-.04-5.18z" fill="#eec4a0"/><path d="m160.42 385.24c.19.75.37 1.51.72 2.9l.56-2.79h.41v5.93l-.24.12-.8-2.91-.61 2.86h-.46v-6.11z" fill="#eab392"/><path d="m147.53 386c.57.08 1.64.19 1.64.23-.11 1.74-.31 3.48-.5 5.22l-1.93-.85c-.06-.62-.11-1.23-.16-1.85v-.9z" fill="#f2d5ae"/><path d="m200.16 391.38-1-2.58-.52 2.65h-.64c0-2 0-4 .09-5.95 0-.17 1.15-.27 1.77-.4q.14 3.14.3 6.28z" fill="#eab392"/><path d="m175.29 391.93-1.39-2.62-.61 2.06h-.36v-6.62l1.55 2.81.36-2.2h.45z" fill="#eec4a0"/><path d="m195.06 385.7c2.55 1.45 1.31 3.85 2.48 5.7-1.33-.06-2.22-1.92-3.28-.12.25-1.76.51-3.51.8-5.58z" fill="#eab392"/><path d="m192.69 377c-.65 1.85 2.74 3.13.2 5.45l-.58-2.13-.66 2.37-.72-.12.87-5.58z" fill="#eab392"/><path d="m169.62 379.57a15.83 15.83 0 0 1 1.43 2.69c.07.2-.84.89-1.38 1.05-.21.06-.92-.71-1-1.15-.14-1.27-.07-2.56-.09-3.84h.17s.11.1.16.14c.26.37.49.74.71 1.11zm.09 2.81h.43l-.08-1.56h-.46z" fill="#eab392"/><path d="m169.13 388.35c-.39 1.09 1 3.17-1.28 3.15-2 0-1.25-2-1.45-3.21a1.61 1.61 0 0 1 0-.9c.4-.79.89-1.54 1.34-2.3l1.38 2.2-1.55-1.15v4.67c.32-.17.43-.2.44-.24a7 7 0 0 1 .11-1.72c.09-.25.66-.34 1.01-.5z" fill="#eec4a0"/><path d="m175.55 383.13c0-1.76-.07-3.53.08-5.27 0-.27 1.35-.79 1.72-.58 1.29.76.89 2.26-.43 3.44-.55.49-.54 1.62-.78 2.45z" fill="#eec4a0"/><path d="m186.72 390.61c-.13-2-.53-4.11 1.92-5.57v6.96l-1.18-2.48z" fill="#eab392"/><path d="m165.42 382.91-1.25-1v-3.8l2.89-1c-.21.9-.39 1.81-.64 2.71s-.67 2.08-1 3.09z" fill="#eec4a0"/><path d="m201.72 385.07 2.25 6.46-1.5-.88-1.16.81.07-6.33a1 1 0 0 1 .34-.06z" fill="#eec4a0"/><path d="m165.07 398.49c-.15-.93.65-2.19-1.19-2.29a4.82 4.82 0 0 1 -.09-2.32c.12-.37 1.11-.47 1.91-.25-.35.32-.71.63-.6.53a30.42 30.42 0 0 1 .82 4.23c0 .44-.73.92-1.13 1.38l-1.29-1.31.37-.43z" fill="#eec4a0"/><path d="m161.75 379.39c.13-1.17-.51-3 1.93-2.12l.24.16v.15c-.08.19-.17.37-.26.56v4.16l.34.45-1.62.52-.63-2.61z" fill="#f2d5ae"/><path d="m169.19 397.42c-.74-.16-2-.17-2.11-.52a7.61 7.61 0 0 1 0-3.08c0-.23.78-.6 1.07-.51a1.59 1.59 0 0 1 1 1 25.63 25.63 0 0 1 0 3.16z" fill="#eab392"/><path d="m146.58 388.73c0 .62.1 1.23.16 1.85l-2.74 1.05a24.2 24.2 0 0 1 -1-3.29 12.37 12.37 0 0 1 .11-2.64l.58-.05c.16 1.66.33 3.31.52 5.19z" fill="#c93028"/><path d="m165.9 391.28c-1.18-.88-2-1.14-2.82.88 0-4.28 0-4.33 2.14-4.77z" fill="#eab392"/><path d="m191.12 395.57c-.34-.27-1-.6-1-.8a2.33 2.33 0 0 1 .83-1.41c.19-.13 1.2.36 1.2.56a22.32 22.32 0 0 1 -.38 3.25c-.12.7-.3 1.38-.56 2.52-.28-.6-.78-1.16-.74-1.67a9.84 9.84 0 0 1 .76-2.34c.05-.32.09-.63.14-.94h-.28z" fill="#eab392"/><path d="m165.42 382.91c.33-1 .69-2 1-3s.43-1.81.64-2.71c.16 1.8.35 3.6.39 5.41a13.82 13.82 0 0 1 -2.03.3z" fill="#f0cda7"/><path d="m196.71 377.11v6.26c-1.37.48-1.44-.56-1.45-1.87-.04-4.4-.07-4.39 1.45-4.39z" fill="#eec4a0"/><path d="m161.75 379.39v1.27c-1.3-.13-1.3-.13-2.54 2.52 0-1.93-.06-3.86.07-5.79 0-.22 1-.37 1.66-.58l-.77 2.38z" fill="#eec4a0"/><path d="m193.23 385.23v6.47c-1.94-2.36-1.63-4.41 0-6.47z" fill="#eec4a0"/><path d="m176.84 347.42 2.83 2.61-2.83 1.75z" fill="#f7eabf"/><path d="m187.51 377.28 1.07.42c-.76 1.24 1.07 2.57-.15 3.88-.17.18.4 1.06.69 1.78l-1.66-.12c.02-1.99.04-3.97.05-5.96z" fill="#eec4a0"/><path d="m201.38 385.13-.07 6.33-1.15-.08q-.18-3.15-.35-6.28z" fill="#d0483c"/><path d="m183.33 396.2 2-.13c-.1 1.05-.22 2.28-.33 3.51l-.87.16z" fill="#eec4a0"/><path d="m198.3 377.22 1.54 3.32-1.54 3.15z" fill="#eec4a0"/><path d="m119.33 452.55c-.23-1.66-.47-3.32-.7-5l.81-.12.64 5.06z" fill="#eab392"/><path d="m187.51 377.28v6h-1.26l.48-5.57z" fill="#cc392f"/><path d="m169.13 388.35c-.35.16-.92.25-1 .5a7 7 0 0 0 -.11 1.72s-.12.07-.44.24v-4.67l1.55 1.15z" fill="#cc392f"/><path d="m117.83 359.78a.7.7 0 0 1 -.4.09l-.71-.09-.22-2.7c1.91-.08 2.21.55 1.33 2.7z" fill="#d0483c"/><path d="m147.53 386-.95 1.85-1.68-1.85.33-.43z" fill="#c93028"/><path d="m163.68 378.14c.09-.19.18-.37.26-.56l.21.56v3.8l-.17.81-.34-.45z" fill="#f7e6bc"/><path d="m190.44 377.29.63.5-.35.35-.58-.55z" fill="#eab392"/><path d="m169.62 379.57c-.22-.37-.45-.74-.68-1.1.23.38.45.74.68 1.1z" fill="#df876e"/><path d="m154.46 385.94.46-.19-.39.27z" fill="#d0483c"/><path d="m163.92 377.43-.24-.16a.21.21 0 0 1 .24.16z" fill="#f7e6bc"/><path d="m169.66 502.88q.09-12.57.17-25.15v-3.36c3.54-.89 5.21.25 5.31 3.87.15 5.64.06 11.29.1 16.93 0 .9.17 1.8.26 2.7z" fill="#c93028"/><path d="m165.79 338.78a18 18 0 0 1 -.15 3.13c-.13.6-.72 1.1-1.1 1.64l-.78-.29a40 40 0 0 1 .06-4.38c0-.4.82-.74 1.26-1.1a.32.32 0 0 0 .28.12l.43.74z" fill="#cc392f"/><path d="m165.79 338.64-.43-.74z" fill="#f7eabf"/><path d="m112.34 461.69.77 2.23q-1.76 1.38 0 2.75c.51 2.57 1 5.13 1.54 7.7-.26 2.19-1.44 2.82-3.51 2.13-.31-.11-.78.25-1.18.39l-4 1.71-2.15.44-1.66-3.63h1.48.46l1.39 1.37.08.1-.1-.09.47-.92h.9l.12.08-.08-.12c.08-1.31-.52-1.93-1.84-1.82 0-.29 0-.58 0-.88l.42-2c0-.27 0-.55 0-.83l1.9.08c.4 1.53.76 3.07 1.24 4.58.1.33.57.58.92.78.07 0 .57-.37.55-.54a23.33 23.33 0 0 0 -.71-3.92c-.13-.42-.94-.63-1.44-.94.11-.91.23-1.83.35-2.74-1.22-1.8-2.74-.35-4.13-.38-1.34-.54-.51-1.5-.46-2.32l1.43-.11 1.84-1-.46.06-.67-.3-.79-.93.54-.95 1-.55h-.94c-.39-.56-1.13-1.15-1.1-1.69a2.26 2.26 0 0 0 -2.32-2.5c-1.5 0-2.17-.89-3-1.68 0-.31 0-.62 0-.93l-.63-6.54-1.4-.78c-.16-1.26.12-2 1.65-2s1.27-.66.21-1.28v-.92l.88-.43h2.39l4.19-.4c-.66-2.64-1.95-3.92-4.22-4.12 0-.11-.08-.22-.12-.33l-.15-.52-.22.29-1.37.08c.43-1.65 1-3.28 1.26-5 .14-.81.06-2.11-.44-2.47s-1.71 0-2.6.07l-3-1.81-.76-1.37c-.64-1.81-.31-4.07-2.35-5.53l-.35 1.87-.47-1a23.48 23.48 0 0 0 .1-2.65 14.79 14.79 0 0 0 -.48-2.25c.45-.69.89-1.38 1.2-1.87l-1.74-2.36a39.37 39.37 0 0 1 -1.78-4.17c-.37-1.29-2.36-2.49-.42-4.11.15-.13-.21-1.12-.55-1.54-.86-1.09-1.84-2.07-2.77-3.1v-.72c6-1.83 13 .15 15.56 6.66 2.31 5.88 4.68 11.75 7 17.62 1 3.34 2.42 6.53.65 10.19a17.4 17.4 0 0 0 -1.4 6.62 29.46 29.46 0 0 0 .75 6.64c.3 1.62.89 3.18 1.34 4.77-.19 1.74-.79 3.58 1.23 4.74q1 2.53 1.91 5.08l-.06.18zm-15.09-49.8.13-.35h-.5-.1c0-.11 0-.21 0-.32l.14-.48h.16l.12-.54-1.71-1.2-.6 1.3c-.91 1.54-.86 2.88.83 3.87h.55l-.27-.17.78-1.76.28.35.16-.31c0-.15.01-.28.03-.39zm-.48 9.34.47.52a15.63 15.63 0 0 0 1 2.52 5.92 5.92 0 0 0 1.48 1.26 46.65 46.65 0 0 0 -.57-5.24c-.11-.54-1-.9-1.56-1.34l-.79 1a2.24 2.24 0 0 1 -.1.37l-1.14-.4-.31.62 1.57.65zm8.23 27.22c-.18-4-.88-5.35-2.63-4.92.42 1.59.83 3.17 1.24 4.76l.5 1.54c.8 2.62 1.55 5.26 2.43 7.85.11.34.87.46 1.79.9-.68-2.26-1.11-3.93-1.68-5.55-.47-1.3-1.11-2.53-1.68-3.79zm-11.73-39.57c1.56-1.88 0-6.06-2.41-7.22a12.37 12.37 0 0 0 .36 1.76c.62 1.74 1.29 3.47 2.05 5.46zm3.7 9 .36-.14.54-2.7-2.76.68 1-.54zm12.89 48.23-.7.19.66 1.89.58-.19zm-13.15-42.34.39-.31-.76-.91-.35.27zm3.71 24.05-.33.1.14.74.5-.13zm10 22.35-.13.15.3.13c0-.06 0-.14 0-.19s-.09-.06-.16-.09zm.92 3.21-.13.15.29.13c0-.06 0-.15 0-.19s-.09-.06-.15-.09zm-.18-1.57c0-.06 0-.14-.07-.16s-.11 0-.17.05l.12.24z" fill="#6d482c"/><path d="m107.83 423.64c-2.34-5.87-4.71-11.74-7-17.62-2.56-6.51-9.55-8.49-15.56-6.66l-3.13.93-2.44-2.89-1.33 1.41h-.37l-.51-.87h-.89a8.09 8.09 0 0 0 -1.49-.42c-1.13-.08-3-.49-3.27 0-1.11 1.88 1.35 1.78 2 2.77-1.3 1-2.65 2-2.91 3.8 0 .17-.47.28-.73.42l-1-2.9-1.5-1.8.08-.84a1 1 0 0 0 -.37-.2c.44-1.46.88-2.92 1.33-4.38a25.67 25.67 0 0 0 2.95-4.25c.31-.69-.41-1.91-.84-2.81-.1-.2-1 0-1.48 0l-.76-1.11c1.33-.33 2.76-1.14 4-.89 1.78.37 3.33 1.87 5.11 2.23a25.49 25.49 0 0 1 11.6 5.05c.25.21.91-.06 1.37-.1h.7l-1 1.51 3.42 1.84 1-1.08.73 1.8a11.07 11.07 0 0 0 1.26-1.4 4.54 4.54 0 0 0 .4-1.26h.8c.53-.57 1.06-1.13 1.6-1.69s1.11-1.1 1.67-1.65l2.11 3.06.27 2.06.5.45.42-.83a3.26 3.26 0 0 0 3.28 2.62c2.46.15 3.33 2.25 4.67 3.7.36.39-.09 1.53-.17 2.33l-.54 1.21-2.81-4.7-1.75 1.1a1.15 1.15 0 0 0 -.14-.17s-.08 0-.13 0l.3.08a9 9 0 0 1 1.3 1.56 20.84 20.84 0 0 1 .93 2.58c-1.68 0-2.18.64-1.35 2.19.39.71.59 1.52 1 2.19.75 1.17 1.6 2.26 2.41 3.38l1.2 2.37.3 1h-.06c.62 2.25-.73 3.56-2.28 4.74-.91.81-1.92 1.5-2.9 2.14zm2.93-8.7c-1.94 1.53-2.11 3.13-.67 5.58.4-2.13 2.46-3.41.67-5.58zm-34.51-20 .62.16c.32-.69 1.08-1.62.86-2-.34-.62-1.34-.87-2.07-1.27l-.47.58zm1.63.65-.6.29.71 1.07.38-.23z" fill="#c82c24"/><path d="m73.87 366.76c.48-2.41.9-4.84 1.47-7.23a24.9 24.9 0 0 1 1.32-3.62c1.22-3 3.78-3.67 6.63-3.79a1.81 1.81 0 0 1 1.13.45c1.9 1.61 3.78 3.26 5.65 4.92a3.11 3.11 0 0 1 .81 1c1.79 3.95 4.19 5.59 9.61 4.62l.5.41c.07 1.53.14 3.06.22 4.59-.36-.3-1.08-.72-1-.9.5-1.59-.61-1.64-1.6-1.76s-1.81-.12-2.72-.18h-4.89a11.17 11.17 0 0 1 .46 3.18c-.29 1.59.51 1.64 1.64 1.51.22 1.82 1.64 1.29 2.74 1.4l4.43 3.8.48-.3-.16-1.64a2 2 0 0 0 -.11-.42l.55-.47v-.57l-.53-.93.45-.89c1.77 1.26 1.82 4 0 6.46l1.83.18 2.75 2.57-.09 1h.38l-.27-1-.45-1.76 1.85-3.72 2.39 1.84.32.49c-1 1.29-.23 2.61 0 3.92l-1.79 1-.37.5-1.4.48-1.65-1.3-.46.31.77 2.39-1 .88h-.48c.15-1.33-.11-2.27-1.78-1.82l-.46-2.76.86-1.7-.51-.3-.87 1.13c-1.88-1.12-3.77-2.2-5.61-3.37-1-.64-1.92-1.51-3-2.1s-2-.75-3-1.21c-2.58-1.2-3.32-3.66-4.06-6.11a.22.22 0 0 0 0-.35.53.53 0 0 0 0-.2 2.85 2.85 0 0 0 -.11-.39c0-.6-.06-1.2 0-1.8.16-3.4-.63-4.14-4.4-3.93l2.16 3.43.12 1.38-3.11-3.42c.08 2 .58 3.29 2.22 3.87l.74 1.39v2.05l-.85.22-2.56.63 2.08 1.18c.15.76-.29 2.17 1.39 1.28l.83.07c0 1.95.6 3.25 2.84 3.24a6.21 6.21 0 0 1 1.69.44l-5.84 7.47c-1.92-1.69-5.64 0-7.13-2.94h-3l.54-1.28 2.19-2.86.1-.52-1.51-3.1.15-2.76zm29.39 13.24-.34-.14-.47 1.13.36.14z" fill="#c93028"/><path d="m101.79 474.91c-2.93-6.3-5.9-12.58-8.75-18.91-.77-1.71-.88-3.78-1.86-5.32a31.53 31.53 0 0 0 -4.45-4.89c-.73-.74-1.59-1.34-2.38-2 .46 0 .94 0 1.4.06.84.12 1.67.28 2.51.42l.2-.67-1.61-2.24-.81.74c-.48-1.21-.85-2.34-1.36-3.4a12.94 12.94 0 0 0 -1.28-1.81c.17-.24.54-.6.48-.7-.42-.72-.93-1.38-1.3-1.9l-2.75.28-.53-.45.75-.92-.27-.36-1.23.91.77.35.45 1.85 1.38 1.39-.82.79.47.32.34-1.11 1 1c-.79 1.69.38 2.67 1.3 3.78a9.94 9.94 0 0 1 1 1.69c-4.32-1.93-5.69-6.09-7.15-10-2.1-5.59-3.81-11.32-5.66-17-.21-.64-.31-1.31-.46-2l.39-.17a1.37 1.37 0 0 0 .38.15l2.06 5.55c.64 2.05 1.28 4.09 1.93 6.14l.88-.29q-1-2.91-2.08-5.82-1-3.09-2-6.18l1-2.14c.61-1.64 1.21-3.28 1.82-4.93l2-.79 1.86 2.15v.85c0 .89-.25 2 1.27 1.87l.12.93-1.33.26v.39l1.22.24.26 4.13 1.43-.51v.81l.93-.68.06 3.61a13.79 13.79 0 0 0 .49 2.59c.5 1.32 1.2 2.57 1.81 3.84a3.27 3.27 0 0 1 0 .44l-1.68.95 3.4 8.8h.73c.29-.68.57-1.37.89-2 .42-.87.88-1.71 1.32-2.56l.5 1.79c-.34.77-.73 1.52-1 2.31s-.46 1.64-.69 2.47l.77.36 3.15-3.37 1.49-1.83h.31l.59.15c.6.12 1.61 1 1.2-.69a.46.46 0 0 1 .09-.39l1.49.15-.14 1.61-.87.39.85.52v.9a15.74 15.74 0 0 0 -1.82.07c-4.24.61-7.12 4.6-6 8.24.13 2.09 1.16 1.4 2.18.71l.62-.3.45.93-.48 1.08v.78c.79 2.14 1.57 4.27 2.36 6.4.55 1 1.09 2 1.63 3-.08 2.76 3.21 8.68 4.66 9.1.14 1.28.2 2.33.39 3.35a12.59 12.59 0 0 0 .71 1.91l-.73-.18zm-.57-4.36-.11-.16s-.14.12-.13.13a1.81 1.81 0 0 0 .18.21z" fill="#6f4a2d"/><path d="m73.87 366.76c-.16.77-.31 1.53-.46 2.29l-3.23 1.21-2 1c-1.7.68-2.41 1.66-1 3.29v.05l-.94 2 3.76 3.6c-1 .37-2.19.49-2.82 1.18a61.23 61.23 0 0 0 -4.18 5.52c-.07.09.15.42.29.59q2.71 3.42 5.47 6.82c-.45 1.46-.89 2.92-1.33 4.38v.16l-1.43 1.29-.5-1.14q-2.74-6.08-5.5-12.14l-.9-2.91-.1-4.75 1.34-4.46a24.25 24.25 0 0 1 13.53-7.98zm-9.51 23.11-1.11.35 2.08 6.06.85-.27z" fill="#724a2e"/><path d="m71.46 414.65-.39.17a6.9 6.9 0 0 1 -7.54-1.2 3.41 3.41 0 0 1 -1.25-1.89c-.21-2-.17-4-.22-6 3.35 1.27 1.51-2.7 3.55-2.7l1.3-1 .06-.86h.42l.92.45c0 .05-.13.11-.12.15a2 2 0 0 0 .12.34l.07 3.13-.56 3.07-1.49.91-1.67-.69 1.34-.77-1.74-.16-.83-.31.75 1.26 1.37 1.79a.38.38 0 0 0 -.26.34l1.57 1.89 2.45.5 2.22.12z" fill="#c82c24"/><path d="m93.59 337.13-4.33 5.93s-.26-.06-.26-.06c-.49-2.61-.81-5.06-3.14-7.12-1.75-1.56-.75-4.26 0-6.44.07-.2.63-.39.9-.33a2 2 0 0 1 1.06.63c.83 1 1.56 2.17 2.38 3.22 1.16 1.47 2.39 2.95 3.39 4.17z" fill="#cc392f"/><path d="m106.85 373.63-1.85 3.72-2.32-.8-1.83-.18c1.85-2.41 1.8-5.2 0-6.46l.36-1.81c-.08-1.53-.15-3.06-.22-4.59h.54a10.48 10.48 0 0 1 5.67 8.2z" fill="#f7e6bc"/><path d="m110.94 384.06c.58 1 1.47 1.89 1.67 2.94a20.47 20.47 0 0 1 .11 5 2.38 2.38 0 0 1 -1 1.65 4.18 4.18 0 0 1 -5.91-2.08 17.29 17.29 0 0 0 -1-1.58l-.38 2.27-1.3-4.88c1.27.62 2.77 1 3.74 1.94s1.69 1.05 2.67.26l1.32-1.32-.09-4.18z" fill="#d0483c"/><path d="m110 476.89c.4-.14.87-.5 1.18-.39 2.07.69 3.25.06 3.51-2.13 1.3 2.64 2.19 5.35 1.36 8.34-.33-.38-.65-.77-1-1.13-1.05-1.1-1.27-.4-1.34.63l-3.21-1.79-.48-3.19a.5.5 0 0 1 -.02-.34z" fill="#805f41"/><path d="m106.85 373.63.38-1.91 1.8-3.93 1-.09v-.05l-.03 1.35v1.14l.15.56 1 2c-2 1.39.37 2.49.25 3.76v.8l-.46.93-.43 1.54-1 .15c-.18-1.31-.92-2.63 0-3.92-.1-.17-.21-.33-.32-.49z" fill="#d9715c"/><path d="m116.05 376.66a1.77 1.77 0 0 1 .32.21l.95 1.29c0 .32-.12.88 0 .91a5.31 5.31 0 0 0 1.33.16c.48 4.34 0 5.83-2 6.65-.73-1.38-1.51-2.67-2.11-4.05a8.75 8.75 0 0 1 -.34-2.26l1-.5.44-.05v-2.12z" fill="#cc392f"/><path d="m103.15 387.39 1.3 4.88.2 1-.22.19-1 .11-2.11-3.06a7.08 7.08 0 0 0 .28-2.2c-.19-1.08-.64-2.17-2.06-1l-1-1.7 2.74-2.31 1.89.89h.48z" fill="#eec4a0"/><path d="m115.52 376.91v2.09l-.44.05-1 .5-3.67.16.43-1.54c.16-.31.31-.62.46-.93v-.8c1.35-.56 1.18-1.42.48-2.39l-.43-3.29-.06-.2.49-.63c.43.28 1.15.48 1.25.85.46 1.75.75 3.55 1.17 5.66z" fill="#c82c24"/><path d="m109 367.79-1.8 3.93a10.48 10.48 0 0 0 -5.67-8.2c2.61-1.2 3.82.86 5.31 2.27l.87.92z" fill="#d0483c"/><path d="m56.47 410.72a14.4 14.4 0 0 1 .26-2.19c.4-1.42 1-2.8 1.34-4.23.46-1.87 1.13-2.14 3-1-.51 1.56-1 3.12-1.54 4.69z" fill="#c93028"/><path d="m107.28 401.58 1.75-1.1 2.81 4.58.54-1.21c1.42 1.26.3 2.47-.07 3.69l-1.06-.81-.22.43 1.3.36-1.28.94c-.51-.93-1-1.86-1.51-2.79a20.84 20.84 0 0 0 -.93-2.58 9 9 0 0 0 -1.3-1.56zm4.15 3.95v-.12h-.13z" fill="#f0cda7"/><path d="m113.7 482.21c.07-1 .29-1.73 1.34-.63.34.36.66.75 1 1.13.12.17.23.34.35.5l1.19 1.11a16.67 16.67 0 0 1 -3 1.61 11.29 11.29 0 0 1 -3 .07l-.61-.64.32-.66c.87-.76 2.71-.57 2.41-2.49z" fill="#a28866"/><path d="m103.78 479 2.15-.44 1.31 3.69-.06 1.26-.36.37-.94.64v.8c-.15 0-.36.12-.44.05-1.27-.88-2.28-4.86-1.66-6.37z" fill="#724a2e"/><path d="m60 386.83q2.76 6.06 5.5 12.14c-.55-.13-1.46-.11-1.59-.42-1.45-3.44-2.79-6.92-4.1-10.41-.14-.36.12-.87.19-1.31z" fill="#c93028"/><path d="m115.52 376.91-1.2-.45c-.42-2.11-.71-3.91-1.17-5.66-.1-.37-.82-.57-1.25-.85h-.75l.24-1.43a2.29 2.29 0 0 0 0-.37c.37 0 .92-.06 1.08.15 1.89 2.47 3.9 4.9 3.56 8.33z" fill="#eab392"/><path d="m56.47 410.72 3-2.76c0 1.23.09 2.46.14 3.7l-2.93 2.1.28.59-.35-1.51h-.28v2c-1.71-1.39-.81-2.75.14-4.12z" fill="#eec4a0"/><path d="m98.05 346.09 1.55-3.68 3.24 3.15c-1 .78-.9 2.81-2.87 2.41.34-1.62-.49-2.05-1.92-1.88z" fill="#eab392"/><path d="m109.54 405.67c.5.93 1 1.86 1.51 2.79l.57 2.73v2.24c-.81-1.12-1.66-2.21-2.41-3.38-.43-.67-.63-1.48-1-2.19-.85-1.55-.35-2.22 1.33-2.19z" fill="#df876e"/><path d="m110.92 485.32.61.64v1.82a12.77 12.77 0 0 1 -3.46.63c-.9-.05-1.74-.89-2.61-1.37l.87-1.13h.85c1 1.59 1.43.42 1.93-.4z" fill="#805f41"/><path d="m56.36 414.89v-2h.28l.35 1.51-.28-.59 2.93-2.1c1.34 1 .27 2-.16 2.9a6.85 6.85 0 0 1 -1.93 2c-.27.23-.81.12-1.23.17z" fill="#df876e"/><path d="m111.41 368.18a2.29 2.29 0 0 1 0 .37l-1.43-.9v.05c-.17-.66-.35-1.31-.5-1.86l-2.14-1.4 1.49-1.62c2.75 1.18 2.4 3.36 2.58 5.36z" fill="#f2d5ae"/><path d="m98.05 346.09c1.43-.17 2.26.26 1.92 1.88l-.5 1.88-1-.45-3.47-2.78-.15-.13v-.76a3.11 3.11 0 0 1 .28-.23z" fill="#eec4a0"/><path d="m101.79 474.91.3-3 .73.18.69-.12 1.45 1.11v.88l.9 1.84-.47.92-1.39-1.37h-.46-1.48z" fill="#805f41"/><path d="m59 379.2.12 4.72c-1.11-2.25-2.22-4.51-3.34-6.76l.47-.28z" fill="#d0483c"/><path d="m117.6 401.39c.07 2.48-1.23 4.1-3 4.13l.36-4.25 1.82 1.61z" fill="#df876e"/><path d="m66.91 402-1.3 1c-2 0-.2 4-3.55 2.7q1.72-2.36 3.46-4.69l1 .07z" fill="#cc392f"/><path d="m111.62 413.43v-2.24a15.51 15.51 0 0 1 2.32 3.25c.24.59-.55 1.6-.88 2.42h.06l-.3-1z" fill="#f0cda7"/><path d="m90.83 348.36 2.59-1.23.21-.24 1.19-.4.15.13c.16.78.33 1.55.6 2.83l-4.74-.56z" fill="#eec4a0"/><path d="m95.18 351.47a21.41 21.41 0 0 1 2.91.29 1.47 1.47 0 0 1 .94 1 1.44 1.44 0 0 1 -.87 1.11 2.1 2.1 0 0 1 -1.55-.5 10 10 0 0 1 -1.43-1.9z" fill="#cc392f"/><path d="m90.83 348.36v.53c-.23.46-.46.93-.68 1.4-.51-.42-1.47-.88-1.44-1.26.06-.69.7-1.33 1.3-2.33z" fill="#df876e"/><path d="m110.4 456.6c-2-1.16-1.42-3-1.23-4.74z" fill="#6f4a2d"/><path d="m107.73 381.4c1.73.09 3.21.48 3.21 2.66h-.15l-3.06-2.69z" fill="#f7eabf"/><path d="m94.81 345.73c-1.88-.6-1.77-1.46-.21-3.1.23 1.33.36 2.1.49 2.87a3.11 3.11 0 0 0 -.28.23z" fill="#eec4a0"/><path d="m117.29 360.3.33 3.25-.6.07c-.09-1.11-.17-2.22-.26-3.34z" fill="#d0483c"/><path d="m99.48 349.81.5-1.88 1.35.69c-1.04 1.93-1.04 1.93-1.85 1.19z" fill="#eab392"/><path d="m113.13 466.67q-1.77-1.37 0-2.75z" fill="#6f4a2d"/><path d="m107.18 486h-.85l-.47-.55v-.8h.29.71a1.13 1.13 0 0 0 .32 0l1 .24v-.05z" fill="#9b805f"/><path d="m66.47 401.1-1-.07c.14-.3.29-.59.44-.89l1.44-1.29h.21l.19.05c0 .28 0 .56-.08.84s-.21.64-.32 1a1.33 1.33 0 0 0 -.45.07z" fill="#eab392"/><path d="m113.3 408.69-.53 1.49-.45-.13.34-1.64z" fill="#f0cda7"/><path d="m117.32 378.16-.95-1.29 1.56.87z" fill="#eab392"/><path d="m107.74 366.71-.87-.92z" fill="#f2d5ae"/><path d="m115.85 449.61v.76h-.16v-.76z" fill="#c72721"/><path d="m104.6 395.2-.42.83-.5-.45z" fill="#eec4a0"/><path d="m93.42 347.13-.42-.33.65.09z" fill="#eec4a0"/></g><path d="m103.15 346.69v.16l-.17-.08z" fill="#eab392"/><path d="m98.45 349.33 1 .45z" fill="#eab392" transform="translate(0 -.48)"/><path d="m104.65 393.22.14.55-.36-.36z" fill="#eec4a0" transform="translate(0 -.48)"/><path d="m89.57 350.41.12-.03-.02.1z" fill="#df876e"/><path d="m112.34 461.69-.09.17.06-.18z" fill="#6f4a2d" transform="translate(0 -.48)"/><path d="m107.35 381.4.37-.5v.5h-.38z" fill="#f7eabf" transform="translate(0 -.48)"/><path d="m116.34 483.17c-.12-.16-.23-.33-.35-.5.12.17.23.33.35.5z" fill="#805f41" transform="translate(0 -.48)"/><path d="m120.29 402.26.06-.55.29.24z" fill="#c72721" transform="translate(0 -.48)"/><path d="m117.29 360.3h-.53c0-.17 0-.33 0-.5l.71.09a3.09 3.09 0 0 0 -.18.41z" fill="#c72721" transform="translate(0 -.48)"/><path d="m133.27 485.86v-11.67c4.21-.56 5.09.16 5.18 4.17v3.65c-.19 3.86-1.09 4.54-5.18 3.85z" fill="#c93028" transform="translate(0 -.48)"/><path d="m170.13 361.14c0 1.45.08 2.91 0 4.34 0 .48-.56.92-.87 1.38-.33-.43-.93-.85-.94-1.28q-.14-4.35 0-8.69c0-.46.57-.91.88-1.37.34.5.9 1 1 1.51.13 1.36 0 2.74 0 4.11z" fill="#c82c24" transform="translate(0 -.48)"/><path d="m177 359.85v-4.36l.7-.3a6.32 6.32 0 0 1 1 2c.17 1.1.47 2.55-1.7 2.66z" fill="#cc392f" transform="translate(0 -.48)"/><path d="m160.23 360.69v-5.3c2.42.24 1.79 2 1.81 3.24.03.98.19 2.51-1.81 2.06z" fill="#cc392f" transform="translate(0 -.48)"/><path d="m22.24 464.32c-1.17-1.55-1.18-7.67 0-9.33 1.44 1.53 1.46 7.73 0 9.33z" fill="#cc392f" transform="translate(0 -.48)"/><path d="m29.09 464.49v-4.94c.75.72 1.54 1.14 1.54 1.55-.03 1.18.84 2.9-1.54 3.39z" fill="#cc392f" transform="translate(0 -.48)"/><path d="m29.07 458.24v-3.24l.63-.26c.3.59.82 1.17.84 1.77a6.84 6.84 0 0 1 -.66 2.09z" fill="#d0483c" transform="translate(0 -.48)"/><path d="m15.31 464.5c-1.48-1.83-1.41-8.07 0-9.52 1.09 1.45 1.17 7.51 0 9.52z" fill="#cc392f" transform="translate(0 -.48)"/><path d="m169.71 382.38-.11-1.56h.46l.08 1.56z" fill="#c82c24" transform="translate(0 -.48)"/><path d="m163.68 378.14v4.16c-.02-1.39-.01-2.77 0-4.16z" fill="#d9715c" transform="translate(0 -.48)"/><path d="m191.12 395.57v-.85h.28c-.05.31-.09.62-.14.94z" fill="#c72721" transform="translate(0 -.48)"/><path d="m83.33 416.77-.93.68v-.81l.12-.86h2.36l-3.3-3.22-.77-.44-.12-.93h1.37l2.29-1.37 2.92 1.78-.29.54 1.61-.21c.15 1.17-2.33 1-1 2.48l.43 1.41 1.48 1.23.77-.35 1 .62a14.79 14.79 0 0 1 .48 2.25 23.48 23.48 0 0 1 -.1 2.65l-2.65 1.84-.49-.63-.15.16.64.47v.89l-2.29.86-.93 1c-.61-1.27-1.31-2.52-1.81-3.84a13.79 13.79 0 0 1 -.49-2.59 5.94 5.94 0 0 0 1.22-.57 15.26 15.26 0 0 0 1.46-1.44 21 21 0 0 0 -1.75-1.37 3.3 3.3 0 0 0 -1.08-.23zm3.06 7-.33-.28-1.06 1.17.43.35z" fill="#c3b18b" transform="translate(0 -.48)"/><path d="m90.26 445.16c-1.15-3.64 1.73-7.63 6-8.24a15.74 15.74 0 0 1 1.82-.07l2.32.49 1.37-.08a.52.52 0 0 0 .38.19c0 .11.07.22.12.33l1.59 2.61-2.09 1.45-1.86.5-.88.43-1.44.35a.52.52 0 0 0 -.36.13h-.47l-2.64.83.08-.14s0 0 0 0l-.11.13c.11.21.21.42.31.63l-.76-.52-.52.1-1.78.84z" fill="#f2e9bd" transform="translate(0 -.48)"/><path d="m89.49 417.05-1.49-1.23c-.14-.47-.29-.94-.43-1.41-1.32-1.52 1.16-1.31 1-2.48l-1.61.21.29-.54-2.92-1.78v-.93l.45-.9.15-2.42 1-.37-.71-.17c-.11-1.19-.19-2.38-.36-3.57 0-.22-.43-.38-.66-.57l1-.79c.93 1 1.91 2 2.77 3.1.34.42.7 1.41.55 1.54-1.94 1.62 0 2.82.42 4.11a39.37 39.37 0 0 0 1.73 4.22c-2.14.95-1.91 2.2-.45 3.61z" fill="#ac9471" transform="translate(0 -.48)"/><path d="m103.51 472-.69.12a12.59 12.59 0 0 1 -.71-1.91c-.19-1-.25-2.07-.39-3.35-1.45-.42-4.74-6.34-4.66-9.1 1.34-.59 2.24-.36 2.5 1.26a4.66 4.66 0 0 0 .58 1.16l.87 1.92c.12.14.25.28.38.41l1.35 1.87.41.44a.57.57 0 0 0 .33.11l.07-.07c0 .82-.88 1.78.46 2.32l1.15 2.49c0 .07-.06.16 0 .22a2.71 2.71 0 0 0 .21.37v.83z" fill="#f2e9bd" transform="translate(0 -.48)"/><path d="m100.14 460.19a4.66 4.66 0 0 1 -.58-1.16c-.26-1.62-1.16-1.85-2.5-1.26-.54-1-1.08-2-1.63-3 1.24-.16 2.2 1.87 3.6.47.88.79 1.55 1.66 3 1.68a2.26 2.26 0 0 1 2.32 2.5c0 .54.71 1.13 1.1 1.69l-.06.55-.54.95-1.29-.05-.45-.43h-.51l-.45.43h-.82c-.13-.13-.26-.27-.38-.41l.82-.64z" fill="#9b805f" transform="translate(0 -.48)"/><path d="m107.24 482.29-1.31-3.69 4-1.71a.5.5 0 0 0 0 .34 4.63 4.63 0 0 0 -.88.69c-.45.58-1.31 1.47-1.14 1.78a1.57 1.57 0 0 0 2.5.72l3.21 1.79c.29 1.92-1.54 1.73-2.45 2.45a1.3 1.3 0 0 1 -.3-.32l-1.41-1.66-.22-.79-.93.36z" fill="#ece2b7" transform="translate(0 -.48)"/><path d="m100.37 437.34-2.32-.49v-.9-.91c0-.57.09-1.13.14-1.69 2-.92 1-2.17.35-3.36.89-.06 2-.47 2.6-.07s.58 1.66.44 2.47c-.23 1.67-.78 3.3-1.21 4.95z" fill="#ece2b7" transform="translate(0 -.48)"/><path d="m97.17 447 1.25.76.63 6.54-1.49-.56-.75-.7-1.1-.94 1.3-1.66-2.11-1.2c.16-1.06.31-2.13.47-3.19z" fill="#9b805f" transform="translate(0 -.48)"/><path d="m105 449.24c.57 1.26 1.21 2.49 1.68 3.79.57 1.62 1 3.29 1.68 5.55-.92-.44-1.68-.56-1.79-.9-.88-2.59-1.63-5.23-2.43-7.85z" fill="#ece2b7" transform="translate(0 -.48)"/><path d="m94.9 449.22 2.11 1.2-1.3 1.66 1.1.94v-.07l-.62.51.53.38.89-.12 1.49.56v.93c-1.4 1.4-2.36-.63-3.6-.47-.79-2.13-1.57-4.26-2.36-6.4l1.76.36z" fill="#a28866" transform="translate(0 -.48)"/><path d="m94.83 426.8c.25.46.5.92.76 1.37 0 .61.11 1.21.17 1.82a15.11 15.11 0 0 1 -1.43-1.34c-.49-.58-.69-1.89-1.73-.49-2.06-.38-2.17-1.39-.92-2.7l-2.77-.52c2.45-.84 4.36-.05 5.92 1.86z" fill="#b29c78" transform="translate(0 -.48)"/><path d="m101.74 441.84 2.09-1.45-1.59-2.61c2.27.2 3.56 1.48 4.22 4.12l-4.19.4z" fill="#c3b18b" transform="translate(0 -.48)"/><path d="m94.83 426.8c-1.56-1.91-3.47-2.7-5.9-1.85v-.89l2.7-1.88.47 1 .35-1.87c2.07 1.42 1.74 3.69 2.38 5.49z" fill="#9b805f" transform="translate(0 -.48)"/><path d="m97.56 419c.54.44 1.45.8 1.56 1.34a46.65 46.65 0 0 1 .57 5.24 5.92 5.92 0 0 1 -1.48-1.26 15.63 15.63 0 0 1 -1-2.52l-.47-.52-.12-.87a2.24 2.24 0 0 0 .1-.37z" fill="#ac9471" transform="translate(0 -.48)"/><path d="m93.27 408.88c-.76-2-1.43-3.72-2-5.46a12.37 12.37 0 0 1 -.36-1.76c2.41 1.16 3.92 5.34 2.36 7.22z" fill="#b29c78" transform="translate(0 -.48)"/><path d="m97.17 447-1.8-1-1.25-.91a1.25 1.25 0 0 0 .2-.4l-.3-.63h.07l2.64-.83.15.38.32-.41a.52.52 0 0 1 .36-.13l1.47.57c1.06.62 1.33 1.26-.21 1.28s-1.82.8-1.65 2.08z" fill="#805f41" transform="translate(0 -.48)"/><path d="m85.27 400.08c-.34.27-.69.53-1 .79-1.64.68-3.42 1.22-3.55 3.45l-1.33-.45v-1.35l2.75-2.23 3.13-.93c-.01.24-.01.48 0 .72z" fill="#805f41" transform="translate(0 -.48)"/><path d="m90.29 416.66c-1.46-1.41-1.69-2.66.45-3.61l1.74 2.36c-.31.49-.75 1.18-1.2 1.87z" fill="#a28866" transform="translate(0 -.48)"/><path d="m103.62 448.29c-.41-1.59-.82-3.17-1.24-4.76 1.75-.43 2.45.92 2.63 4.92z" fill="#ece2b7" transform="translate(0 -.48)"/><path d="m107.79 470.31c.5.31 1.31.52 1.44.94a23.33 23.33 0 0 1 .71 3.92c0 .17-.48.58-.55.54-.35-.2-.82-.45-.92-.78-.48-1.51-.84-3.05-1.24-4.58z" fill="#ac9471" transform="translate(0 -.48)"/><path d="m105.16 469.68-1.16-2.49c1.39 0 2.91-1.42 4.13.38z" fill="#ac9471" transform="translate(0 -.48)"/><path d="m105.16 469.68 3-2.11c-.12.91-.24 1.83-.35 2.74h-.56l-1.9-.08a2.71 2.71 0 0 1 -.21-.37c-.04-.02.01-.11.02-.18z" fill="#9b805f" transform="translate(0 -.48)"/><path d="m96.75 412.2-.75 1.8a.47.47 0 0 0 -.25.21c-1.69-1-1.74-2.33-.83-3.87l1.37.93.52.36h.09c0 .2-.06.39-.1.59z" fill="#b29c78" transform="translate(0 -.48)"/><path d="m97 417.88-.9-2.7-1 .54 2.76-.68-.54 2.7z" fill="#805f41" transform="translate(0 -.48)"/><path d="m95.76 430c-.06-.61-.12-1.21-.17-1.82l3 1.81-2.18 1.39z" fill="#724a2e" transform="translate(0 -.48)"/><path d="m103.61 462.53 1.29.05.79.93c-.24.42-.48.83-.71 1.25l-1.43.11-.07.07c.05-.8.09-1.61.13-2.41z" fill="#b29c78" transform="translate(0 -.48)"/><path d="m96.26 411.23-1.37-.93.6-1.3 1.7 1.25-.12.54h-.16a1.17 1.17 0 0 1 -.3-.19.67.67 0 0 0 -.28 0z" fill="#805f41" transform="translate(0 -.48)"/><path d="m105.9 475.84-.9-1.84c1.32-.11 1.92.51 1.84 1.82z" fill="#6f4a2d" transform="translate(0 -.48)"/><path d="m109.86 466.11.54 1.89-.58.19-.66-1.89z" fill="#6f4a2d" transform="translate(0 -.48)"/><path d="m103.51 472 1.87-.91-.42 2z" fill="#6f4a2d" transform="translate(0 -.48)"/><path d="m101.74 441.84.53.46h-2.39z" fill="#6f4a2d" transform="translate(0 -.48)"/><path d="m99 443.69-1.47-.57 1.44-.35z" fill="#6f4a2d" transform="translate(0 -.48)"/><path d="m96.67 420.34.12.87-1.57-.65.31-.62z" fill="#805f41" transform="translate(0 -.48)"/><path d="m96.71 423.77-.72-.95.35-.27.76.91z" fill="#805f41" transform="translate(0 -.48)"/><path d="m105 464.76c.23-.42.47-.83.71-1.25l.67.3.46-.06z" fill="#ac9471" transform="translate(0 -.48)"/><path d="m103.62 448.29 1.39.16v.79l-.86.59z" fill="#6f4a2d" transform="translate(0 -.48)"/><path d="m105.44 461.63.06-.55h.94z" fill="#6f4a2d" transform="translate(0 -.48)"/><path d="m100.42 447.82.31.71-.5.13-.14-.74z" fill="#6f4a2d" transform="translate(0 -.48)"/><path d="m110.43 470.17c.07 0 .15 0 .18.09s0 .13 0 .19l-.3-.13z" fill="#6f4a2d" transform="translate(0 -.48)"/><path d="m111.35 473.38c.06 0 .15 0 .18.09s0 .13 0 .19l-.29-.13z" fill="#6f4a2d" transform="translate(0 -.48)"/><path d="m97.56 419-.79 1z" fill="#805f41" transform="translate(0 -.48)"/><path d="m111.17 471.81-.12.13-.12-.24c.06 0 .12-.06.17-.05s.05.1.07.16z" fill="#6f4a2d" transform="translate(0 -.48)"/><path d="m97.19 412.24-.16.31-.28-.35v-.05z" fill="#724a2e" transform="translate(0 -.48)"/><path d="m96.77 421.23.47.52z" fill="#805f41" transform="translate(0 -.48)"/><path d="m95.72 414.17a.47.47 0 0 1 .28-.17l.3.2z" fill="#9b805f" transform="translate(0 -.48)"/><path d="m102.12 437.45a.52.52 0 0 1 -.38-.19l.26-.26z" fill="#9b805f" transform="translate(0 -.48)"/><path d="m106.82 463.75-.46.06z" fill="#6f4a2d" transform="translate(0 -.48)"/><path d="m97.07 410.79.12-.54z" fill="#9b805f" transform="translate(0 -.48)"/><path d="m96.26 411.23c0-.21 0-.42.07-.62a1.33 1.33 0 0 0 .28 0 1.17 1.17 0 0 0 .3.19c0 .16-.09.32-.14.48h-.51z" fill="#9b805f" transform="translate(0 -.48)"/><path d="m96.26 411.21h.51v.32z" fill="#805f41" transform="translate(0 -.48)"/><path d="m106.84 475.34.08.12-.12-.08z" fill="#6f4a2d"/><path d="m105.43 476.28.1.09-.09-.1z" fill="#805f41"/><path d="m96.88 411.56h.5a3.62 3.62 0 0 0 -.13.35z" fill="#9b805f" transform="translate(0 -.48)"/><path d="m97.19 412.24-.42-.09c0-.2.07-.39.1-.59l.37.33c-.01.11-.02.24-.05.35z" fill="#805f41" transform="translate(0 -.48)"/><path d="m101.26 383.24-2.74 2.31-4.62-.93 1.1-1.35c.36-1.88-1-1.24-1.92-1.34l-.81-3c-3.41 1.52-5 4.87-3.42 7l3.28-2.65c-.61 1.27-1.22 2.53-1.84 3.79l1.46 1.68-.07 2.78-1 .9c-.46 0-1.12.31-1.37.1a25.49 25.49 0 0 0 -11.6-5.05c-1.78-.36-3.33-1.86-5.11-2.23-1.21-.25-2.64.56-4 .89.26.37.51.74.76 1.12-.05.12-.08.23-.06.15 0 .09 0 0 0-.13.51 0 1.38-.17 1.48 0 .43.9 1.15 2.12.84 2.81a25.67 25.67 0 0 1 -2.95 4.25q-2.74-3.4-5.47-6.82c-.14-.17-.36-.5-.29-.59a61.23 61.23 0 0 1 4.2-5.52c.63-.69 1.87-.81 2.82-1.18l1.92-.63h3c1.49 2.9 5.21 1.25 7.13 2.94l5.91-7.54c0-.47.24-1.06 0-1.38a5.17 5.17 0 0 0 -4.57-2.3l-.83-.07-.9-1.36 3-1-2.2-1c0-.68 0-1.36 0-2.05h1 .06 1.32c.74 2.45 1.48 4.91 4.06 6.11 1 .46 2 .69 3 1.21s1.94 1.46 3 2.1c1.84 1.17 3.73 2.25 5.61 3.37l.52.87.46 2.76z" fill="#f7eabf" transform="translate(0 -.48)"/><path d="m79.37 402.52v1.35l-1.37.49h-1.83c-1.93-.8-3.31.26-4.67 1.37l-1.29-1.28c.26-.14.7-.25.73-.42.26-1.83 1.61-2.79 2.91-3.8.9.07 1.94.48 2.67.16 2.4-1.07 2.72.32 2.85 2.13z" fill="#eec4a0" transform="translate(0 -.48)"/><path d="m70.19 404.43 1.29 1.28 1.26 2.5a6.21 6.21 0 0 0 -2 1.1 15 15 0 0 0 -1.57 2.81l-2.31.38-1.57-1.89a.88.88 0 0 0 .26-.34l.78-1.12c.5-.3 1-.61 1.49-.9.86.52 1.64.8 1.33-.72a18.06 18.06 0 0 0 -.77-2.36c0-1.05 0-2.09-.07-3.13l.93-.5z" fill="#df876e" transform="translate(0 -.48)"/><path d="m79.37 402.52c-.13-1.81-.45-3.2-2.87-2.15-.73.32-1.77-.09-2.67-.16-.64-1-3.1-.89-2-2.77.28-.47 2.14-.06 3.27 0a8.09 8.09 0 0 1 1.49.42h.89l.51.87h.37l1.33-1.41 2.42 2.89z" fill="#df876e" transform="translate(0 -.48)"/><path d="m94.91 394.66-1 1.08-3.42-1.84c.35-.54.65-1 1-1.51.09-.3.17-.61.26-.92l.93-1.67 1.82 1.37 1.91-2.86 1.94-1v1.41l-1.08 2.78z" fill="#f5dfb6" transform="translate(0 -.48)"/><path d="m99.52 387.25c1.42-1.16 1.87-.07 2.06 1a7.08 7.08 0 0 1 -.28 2.2c-.56.55-1.12 1.09-1.67 1.65s-1.07 1.12-1.6 1.69c.52-1.4 1-2.8 1.57-4.2-.07-.6-.13-1.2-.19-1.81zm1 1.79h.16v-.67h-.16z" fill="#f2d5ae" transform="translate(0 -.48)"/><path d="m94.91 394.66 2.28-3.17.11 2.31a4.54 4.54 0 0 1 -.4 1.26 11.07 11.07 0 0 1 -1.26 1.4z" fill="#f2d5ae" transform="translate(0 -.48)"/><path d="m110.76 414.94c1.79 2.17-.27 3.45-.67 5.58-1.44-2.45-1.27-4.05.67-5.58z" fill="#d0483c" transform="translate(0 -.48)"/><path d="m76.25 394.92-1.06-2.55.47-.58c.73.4 1.73.65 2.07 1.27.22.4-.54 1.33-.86 2z" fill="#d9715c" transform="translate(0 -.48)"/><path d="m97.3 393.8-.11-2.31 1.08-2.78h.64l.69.88-1.6 4.21z" fill="#d0483c" transform="translate(0 -.48)"/><path d="m69.22 401.53-.93.5v-.49l-.92-.45a3.05 3.05 0 0 1 0-.43c.11-.32.22-.64.32-1z" fill="#d0483c" transform="translate(0 -.48)"/><path d="m77.88 395.57.49 1.13-.38.23-.71-1.07z" fill="#d0483c" transform="translate(0 -.48)"/><path d="m91.68 391.47c-.09.31-.17.62-.26.92h-.7z" fill="#d9715c" transform="translate(0 -.48)"/><path d="m112.82 415.8.3 1z" fill="#f9efc3" transform="translate(0 -.48)"/><path d="m77.49 397.92h-.89z" fill="#d0483c" transform="translate(0 -.48)"/><path d="m67.8 398.89-.19-.05h-.21v-.16a1 1 0 0 1 .4.21z" fill="#d0483c" transform="translate(0 -.48)"/><path d="m78.37 398.81h-.37z" fill="#d0483c" transform="translate(0 -.48)"/><path d="m107.31 401.53-.3-.08s.11-.05.13 0a1.15 1.15 0 0 1 .14.17z" fill="#f0cda7" transform="translate(0 -.48)"/><path d="m101.24 368.1-.36 1.81-.45.89c.18.31.36.62.53.93v.57l-.55.47a2 2 0 0 1 .11.42c-.27-.26-.76-.49-.78-.76-.11-1.79-1.16-1.63-2.39-1.28a9.33 9.33 0 0 1 -1.58.18c-1.1-.11-2.52.42-2.74-1.4l.35-.37-.16-.11-.15.51c-1.13.13-1.93.08-1.64-1.51a11.17 11.17 0 0 0 -.46-3.18h4.29l.32.51.3-.52c.91.06 1.82.07 2.72.18s2.1.17 1.6 1.76c-.04.18.68.6 1.04.9z" fill="#df876e" transform="translate(0 -.48)"/><path d="m107.35 381.4h.38l3.06 2.69.09 4.18-1.32 1.32c-1 .79-1.66.7-2.67-.26s-2.47-1.32-3.74-1.94l.48-3.23 1-.88 1.34-1.4z" fill="#f9efc3" transform="translate(0 -.48)"/><path d="m71.94 379.57-1.94.63-3.75-3.54.94-2 5.26 1.3v.88 1.49zm-1.19-3.57v-.2l-.31.11c0 .06.08.14.13.15s.12-.06.18-.06z" fill="#b29c78" transform="translate(0 -.48)"/><path d="m72.47 375.92-5.26-1.3v-.05c1.69-.69.89-2.13 1-3.29l2-1 1.69 2.23 1.39-.68c.5 1 1 2.07 1.51 3.1z" fill="#ac9471" transform="translate(0 -.48)"/><path d="m84.8 365.5a.23.23 0 0 1 0 .36h-1.3-.06l-.45-1.44v.05l-.46-1.83-2.16-3.43c3.77-.21 4.56.53 4.4 3.93v1.8l-.34.22z" fill="#f0cda7" transform="translate(0 -.48)"/><path d="m83.36 371.36a5.17 5.17 0 0 1 4.57 2.3c.2.32 0 .91 0 1.38a6.21 6.21 0 0 0 -1.69-.44c-2.24.01-2.93-1.29-2.88-3.24z" fill="#eab392" transform="translate(0 -.48)"/><path d="m95.79 371.33a9.33 9.33 0 0 0 1.58-.18c1.23-.35 2.28-.51 2.39 1.28 0 .27.51.5.78.76.06.54.11 1.09.16 1.64l-.48.3z" fill="#d9715c" transform="translate(0 -.48)"/><path d="m73.26 371.81-1.39.68-1.69-2.23 3.23-1.21z" fill="#805f41" transform="translate(0 -.48)"/><path d="m82.46 367.88 2.2 1-3 1-.49.08-2.09-1.25 2.56-.63.85-.22z" fill="#f4dbb2" transform="translate(0 -.48)"/><path d="m81.7 364.44c-1.64-.58-2.14-1.84-2.22-3.87l3.11 3.43.34.45v-.05z" fill="#df876e" transform="translate(0 -.48)"/><path d="m102.68 376.55 2.32.8.45 1.76z" fill="#cc392f" transform="translate(0 -.48)"/><path d="m106 381.88-1.34 1.4-.77-2.39.46-.31z" fill="#cc392f" transform="translate(0 -.48)"/><path d="m101.26 383.24.11-.93c1.67-.45 1.93.49 1.78 1.82z" fill="#cc392f" transform="translate(0 -.48)"/><path d="m100.91 379.55-.52-.87.87-1.13.51.3z" fill="#cc392f" transform="translate(0 -.48)"/><path d="m72.48 378.29v-1.49l2.23-1.37z" fill="#ac9471" transform="translate(0 -.48)"/><path d="m74.67 375.43-2.23 1.37v-.88l2.3-1c0 .17-.04.34-.07.51z" fill="#c3b18b" transform="translate(0 -.48)"/><path d="m81.7 364.44 1.24-.05.45 1.44h-1c-.2-.46-.45-.92-.69-1.39z" fill="#f4dbb2" transform="translate(0 -.48)"/><path d="m81.14 370 .49-.08.9 1.36c-1.68.9-1.24-.51-1.39-1.28z" fill="#cc392f" transform="translate(0 -.48)"/><path d="m103.26 380-.45 1.13-.36-.14.47-1.13z" fill="#cc392f" transform="translate(0 -.48)"/><path d="m82.93 364.44-.34-.45-.12-1.38z" fill="#f4dbb2" transform="translate(0 -.48)"/><path d="m105.45 379.11.27 1h-.38l.09-1z" fill="#cc392f" transform="translate(0 -.48)"/><path d="m95.9 365.26-.3.52-.32-.51z" fill="#eab392" transform="translate(0 -.48)"/><path d="m101 371.73c-.17-.31-.35-.62-.53-.93.14.31.32.62.53.93z" fill="#d9715c" transform="translate(0 -.48)"/><path d="m82.46 367.91-.85.22z" fill="#f7eabf" transform="translate(0 -.48)"/><path d="m83.45 365.85h1.3z" fill="#f4dbb2" transform="translate(0 -.48)"/><path d="m84.8 365.5-.4-.37.34-.22a2.85 2.85 0 0 1 .11.39.53.53 0 0 1 -.05.2z" fill="#f7eabf" transform="translate(0 -.48)"/><path d="m100.43 372.77.55-.47z" fill="#d9715c" transform="translate(0 -.48)"/><path d="m109.24 375.47c.11.16.22.32.32.49-.1-.17-.21-.33-.32-.49z" fill="#df876e" transform="translate(0 -.48)"/><path d="m95.76 430 .64 1.38.18 1 .16.84a.46.46 0 0 0 -.09.39l-1.2.69-.59-.15h-.31l-1.49 1.85-2.23-1.79-.5-1.79-2.13-3 .74-1.22 1.24.73.19-.5-1.43-.23.57-1.56-.72-.37c-.54 1-1.09 2-1.64 3h-.56v-3.41l2.29-.86 2.77.52c-1.25 1.31-1.14 2.32.92 2.7l.38.12-.38-.12c1-1.4 1.24-.09 1.73.49a15.11 15.11 0 0 0 1.46 1.29z" fill="#ac9471" transform="translate(0 -.48)"/><path d="m69.15 412.12a15 15 0 0 1 1.57-2.81 6.21 6.21 0 0 1 2-1.1l-1.26-2.5c1.36-1.11 2.74-2.17 4.67-1.37l-1.47 2.2.9.58c-.61 1.65-1.21 3.29-1.82 4.93l-2.25 1.07-2.2-.12z" fill="#f5dfb6" transform="translate(0 -.48)"/><path d="m86.59 429.21h.56l1 .18 2.13 3c-.44.85-.9 1.69-1.32 2.56-.32.67-.6 1.36-.89 2h-.73l-3.34-8.77 1.68-.95z" fill="#f2e9bd" transform="translate(0 -.48)"/><path d="m84.34 443.78a9.94 9.94 0 0 0 -1-1.69c-.92-1.11-2.09-2.09-1.3-3.78l1.31-1.43a12.94 12.94 0 0 1 1.28 1.81c.51 1.06.88 2.19 1.36 3.4l.81-.74 1.61 2.24-.2.67c-.84-.14-1.67-.3-2.51-.42-.46-.06-.94 0-1.4-.06z" fill="#ece2b7" transform="translate(0 -.48)"/><path d="m78 404.36 1.37-.49 1.33.45.54.51.83.36c.53.47 1.08.92 1.59 1.42s.79.91 1.18 1.36l-.45.9c-1.67 0-3.14-2.13-5-.42l-1.86-2.15c.16-.62.31-1.3.47-1.94z" fill="#ac9471" transform="translate(0 -.48)"/><path d="m83.4 436.88-1.31 1.43-1-1-1.38-1.39.06-1.38 2.75-.28c.37.52.88 1.18 1.3 1.9.12.12-.25.48-.42.72z" fill="#805f41" transform="translate(0 -.48)"/><path d="m90.83 434.17 2.23 1.83-3.15 3.35-.77-.36c.23-.83.4-1.67.69-2.47s.66-1.58 1-2.35z" fill="#ece2b7" transform="translate(0 -.48)"/><path d="m82.52 415.78-.12.86-1.43.51c-.09-1.5-.18-2.81-.26-4.13l.87-.45 3.3 3.22h-2.36l-.08-.09z" fill="#b29c78" transform="translate(0 -.48)"/><path d="m83.33 416.77a3.3 3.3 0 0 1 1.08.27 21 21 0 0 1 1.66 1.33 15.26 15.26 0 0 1 -1.46 1.44 5.94 5.94 0 0 1 -1.22.57z" fill="#ac9471" transform="translate(0 -.48)"/><path d="m81.17 411.19h-.48c-1.52.11-1.25-1-1.27-1.87l4.94.5-2.29 1.37c0-.24 0-.49 0-.73z" fill="#ac9471" transform="translate(0 -.48)"/><path d="m74.7 420.37q1 2.91 2.08 5.82l-.88.29c-.65-2.05-1.29-4.09-1.93-6.14z" fill="#a28866" transform="translate(0 -.48)"/><path d="m78 404.36c-.14.66-.29 1.32-.43 2l-2 .79-.9-.58 1.47-2.2z" fill="#eab392" transform="translate(0 -.48)"/><path d="m84.36 409.83-4.94-.5v-.85c1.81-1.71 3.28.44 5 .42z" fill="#c3b18b" transform="translate(0 -.48)"/><path d="m74.7 420.37h-.73l-2.13-5.54.89-.61z" fill="#ac9471" transform="translate(0 -.48)"/><path d="m94.12 445.12 1.25.91c-.16 1.06-.31 2.13-.47 3.19 0-.17 0-.34-.07-.52l-1.32-2.2-.45-.93v-.5.05z" fill="#ac9471" transform="translate(0 -.48)"/><path d="m72.73 414.19-.89.61a1.37 1.37 0 0 1 -.38-.15c0-.51 0-1 .05-1.53l2.25-1.07z" fill="#cc392f" transform="translate(0 -.48)"/><path d="m86.59 429.21-.86-2a3.27 3.27 0 0 0 0-.44l.93-1z" fill="#b29c78" transform="translate(0 -.48)"/><path d="m93.51 446.5 1.32 2.2-1.76-.36v-.78l.48-1.08z" fill="#724a2e" transform="translate(0 -.48)"/><path d="m90.26 445.16h1l.75.27.43.46c-1.02.67-2.05 1.36-2.18-.73z" fill="#c3b18b" transform="translate(0 -.48)"/><path d="m81.58 412.57-.87.45-1.22-.24v-.39l1.33-.26z" fill="#ac9471" transform="translate(0 -.48)"/><path d="m79.32 434.09-.77-.35 1.23-.91.27.36-.75.92z" fill="#ac9471" transform="translate(0 -.48)"/><path d="m95.45 434.28 1.2-.69c.41 1.64-.6.81-1.2.69z" fill="#724a2e" transform="translate(0 -.48)"/><path d="m96.74 433.2c-.06-.28-.11-.56-.16-.84l1.65 1z" fill="#724a2e" transform="translate(0 -.48)"/><path d="m81.14 437.33-.34 1.11-.47-.32.82-.79z" fill="#805f41" transform="translate(0 -.48)"/><path d="m98.09 435v.91l-.85-.52z" fill="#724a2e" transform="translate(0 -.48)"/><path d="m79.83 434.56-.06 1.38-.45-1.85z" fill="#b29c78" transform="translate(0 -.48)"/><path d="m93.54 446.48-.48 1.08z" fill="#ac9471" transform="translate(0 -.48)"/><path d="m101.22 470.55-.06.18a1.81 1.81 0 0 1 -.18-.21s.08-.09.13-.13z" fill="#805f41" transform="translate(0 -.48)"/><path d="m93 445.07v.5l-.62.3-.43-.46z" fill="#c3b18b" transform="translate(0 -.48)"/><path d="m64.36 389.87 1.82 6.13-.85.27-2.08-6.06z" fill="#a28866" transform="translate(0 -.48)"/><path d="m68.23 371.28c-.1 1.16.7 2.6-1 3.29-1.41-1.63-.7-2.57 1-3.29z" fill="#b29c78" transform="translate(0 -.48)"/><path d="m68.36 405.16a18.06 18.06 0 0 1 .77 2.36c.31 1.52-.47 1.24-1.33.72.2-1.03.37-2.06.56-3.08z" fill="#c93028" transform="translate(0 -.48)"/><path d="m66.31 409.14-.78 1.12c-.46-.59-.92-1.19-1.37-1.79h.44z" fill="#cc392f" transform="translate(0 -.48)"/><path d="m69.15 412.12.14.88-2.45-.5z" fill="#cc392f" transform="translate(0 -.48)"/><path d="m64.16 408.47-.75-1.26.83.31v.91z" fill="#cc392f" transform="translate(0 -.48)"/><path d="m64.2 408.43c0-.3 0-.61 0-.91l1.74.16-1.34.77z" fill="#c93028" transform="translate(0 -.48)"/><path d="m66.47 401.1.48-.34v.38l-.06.86z" fill="#d0483c" transform="translate(0 -.48)"/><path d="m65.53 410.27a.88.88 0 0 1 -.26.34.38.38 0 0 1 .26-.34z" fill="#cc392f" transform="translate(0 -.48)"/><path d="m67 401.14c0-.13 0-.25 0-.38a1.33 1.33 0 0 1 .45-.07 3.05 3.05 0 0 0 0 .43z" fill="#cc392f" transform="translate(0 -.48)"/><path d="m68.31 401.57v.49a2 2 0 0 1 -.12-.34s.08-.1.12-.15z" fill="#df876e" transform="translate(0 -.48)"/><path d="m109.56 389.59 1.32-1.32z" fill="#f7eabf" transform="translate(0 -.48)"/><path d="m110.49 480.42a1.57 1.57 0 0 1 -2.5-.72c-.17-.31.69-1.2 1.14-1.78a4.63 4.63 0 0 1 .88-.69z" fill="#c3b18b" transform="translate(0 -.48)"/><path d="m111.9 374.07c.7 1 .87 1.83-.48 2.39.12-1.27-2.26-2.37-.25-3.76z" fill="#df876e" transform="translate(0 -.48)"/><path d="m111.9 374.07-.73-1.37c-.34-.65-.68-1.31-1-2h1.31z" fill="#f2d5ae" transform="translate(0 -.48)"/><path d="m110 367.65 1.43.9-.24 1.43-.89.21-.3-1.19z" fill="#f9efc3" transform="translate(0 -.48)"/><path d="m110.29 370.19.89-.21.26.63.06.2h-1.31l-.15-.56h.14z" fill="#df876e" transform="translate(0 -.48)"/><path d="m110.29 370.19h-.14-.14v-1.14z" fill="#f2d5ae" transform="translate(0 -.48)"/><path d="m111.39 377.26c-.15.31-.3.62-.46.93.16-.31.31-.62.46-.93z" fill="#cc392f" transform="translate(0 -.48)"/><path d="m114.12 379.58 1-.5z" fill="#f9efc3" transform="translate(0 -.48)"/><path d="m98.91 388.72h-.64v-1.42l-1.94 1-4.59.38-1.46-1.68 1.84-3.79.95-1.31c.89.1 2.28-.54 1.92 1.34l-1.59.33.5 1 4.62.93 1 1.7c0 .18-.07.36-.11.54z" fill="#c93028" transform="translate(0 -.48)"/><path d="m111.41 370.58-.26-.63h.75z" fill="#f9efc3" transform="translate(0 -.48)"/><path d="m112.33 407.52-1.3-.36.22-.43 1.06.81z" fill="#f9efc3" transform="translate(0 -.48)"/><path d="m111.43 405.05-.12-.07.13-.06z" fill="#f9efc3"/><path d="m111 484.34a1.3 1.3 0 0 0 .3.32l-.33.66-1.81.24a.68.68 0 0 0 0-.4c0-.06.12-.12.12-.18a1.78 1.78 0 0 0 -.1-.38l.34-.47z" fill="#f7eabf" transform="translate(0 -.48)"/><path d="m111 484.34-1.48-.22-.34.47-.8-.34-1.17-.71.06-1.26h1.15l1.15.43z" fill="#c3b18b" transform="translate(0 -.48)"/><path d="m107.18 483.55 1.17.71c0 .19-.08.38-.11.57l-1-.24c-.13-.22-.26-.44-.38-.67z" fill="#f2e9bd" transform="translate(0 -.48)"/><path d="m106.82 483.92c.12.23.25.45.38.67a1.13 1.13 0 0 1 -.32 0h-.71-.29z" fill="#b29c78" transform="translate(0 -.48)"/><path d="m109.13 485.16a.68.68 0 0 1 0 .4c-.5.82-.93 2-1.93.4l1-1.18z" fill="#eec4a0" transform="translate(0 -.48)"/><path d="m109.13 485.16-.91-.38v.05c0-.19.07-.38.11-.57l.8.34a1.78 1.78 0 0 1 .1.38c.02.02-.06.12-.1.18z" fill="#805f41" transform="translate(0 -.48)"/><path d="m86.39 423.72-1 1.29-.43-.35 1.07-1.22z" fill="#b29c78" transform="translate(0 -.48)"/><path d="m87.58 414.41c.14.47.29.94.43 1.41-.14-.47-.29-.94-.43-1.41z" fill="#a28866" transform="translate(0 -.48)"/><path d="m81.17 411.19.88-.73v.73z" fill="#f0cda7" transform="translate(0 -.48)"/><path d="m89 424.06-.64-.47.15-.16z" fill="#b29c78" transform="translate(0 -.48)"/><path d="m89.49 417.05.77-.35z" fill="#a28866" transform="translate(0 -.48)"/><path d="m93 445.07-1 .34-.75-.27 1.75-.84v.37a.85.85 0 0 0 0 .45z" fill="#805f41" transform="translate(0 -.48)"/><path d="m93 445.12a.85.85 0 0 1 0-.45l.5-.47.76.52a1.25 1.25 0 0 1 -.2.4z" fill="#f0cda7" transform="translate(0 -.48)"/><path d="m97.2 443.25-.32.41-.15-.38z" fill="#6d482c" transform="translate(0 -.48)"/><path d="m93.56 444.2-.5.47c0-.12 0-.25 0-.37z" fill="#9b805f" transform="translate(0 -.48)"/><path d="m94.09 444.11h-.07a1.13 1.13 0 0 1 .1-.13s0 0 0 0z" fill="#f0cda7" transform="translate(0 -.48)"/><path d="m81.22 404.83-.54-.51c.13-2.23 1.91-2.77 3.55-3.45.23.19.63.35.66.57.17 1.19.25 2.38.36 3.57l.71.17-1 .37-.14 2.45c-.39-.45-.76-.93-1.18-1.36s-1.06-.95-1.59-1.42z" fill="#c3b18b" transform="translate(0 -.48)"/><path d="m84.35 408.91.45-.9z" fill="#c3b18b" transform="translate(0 -.48)"/><path d="m103.61 462.53c0 .8-.08 1.61-.13 2.41a.57.57 0 0 1 -.33-.11l-.41-.44-1.35-1.87h.82l.45-.43h.51l.45.43z" fill="#ac9471" transform="translate(0 -.48)"/><path d="m100.14 460.19 1.69 1.28-.82.64z" fill="#b29c78" transform="translate(0 -.48)"/><path d="m102.74 464.39.41.44z" fill="#b29c78" transform="translate(0 -.48)"/><path d="m103.62 462.54-.45-.43z" fill="#b29c78" transform="translate(0 -.48)"/><path d="m102.66 462.12-.45.43z" fill="#b29c78" transform="translate(0 -.48)"/><path d="m109.54 482.68-1.15-.43.93-.36z" fill="#805f41" transform="translate(0 -.48)"/><path d="m98.23 433.34-1.65-1-.18-1 2.18-1.34c.6 1.17 1.68 2.42-.35 3.34z" fill="#6f4a2d" transform="translate(0 -.48)"/><path d="m97.56 453.72-.89.12.09-.89v.07z" fill="#c3b18b" transform="translate(0 -.48)"/><path d="m96.76 453-.09.89-.53-.38z" fill="#9b805f" transform="translate(0 -.48)"/><path d="m96.61 410.58a1.33 1.33 0 0 1 -.28 0 .67.67 0 0 1 .28 0z" fill="#6d482c" transform="translate(0 -.48)"/><path d="m93.07 381.93-.95 1.31-3.28 2.65c-1.53-2.11 0-5.46 3.42-7z" fill="#d0483c" transform="translate(0 -.48)"/><path d="m91.74 388.71 4.59-.38-1.91 2.86-1.82-1.37-.93 1.67z" fill="#d9715c" transform="translate(0 -.48)"/><path d="m93.9 384.62-.5-1 1.59-.33z" fill="#d0483c" transform="translate(0 -.48)"/><path d="m69.39 387.22c0 .11 0 .22 0 .13 0 .08 0 0 .06-.15z" fill="#c82c24" transform="translate(0 -.48)"/><path d="m98.91 388.72.5-.93c.06.61.12 1.21.19 1.81z" fill="#eec4a0" transform="translate(0 -.48)"/><path d="m100.54 389v-.66h.16v.67z" fill="#eec4a0" transform="translate(0 -.48)"/><path d="m93.09 370 .15-.51.16.11-.35.37z" fill="#c93028" transform="translate(0 -.48)"/><path d="m70.75 376c-.06 0-.14.08-.19.06s-.09-.09-.13-.15l.31-.11z" fill="#ac9471" transform="translate(0 -.48)"/><path d="m88.2 429.38-1-.18c.55-1 1.1-2 1.64-3l.72.37-.57 1.56z" fill="#b29c78" transform="translate(0 -.48)"/><path d="m88.94 428.16 1.43.23-.19.5z" fill="#b29c78" transform="translate(0 -.48)"/><path d="m92.6 428.16.38.12z" fill="#b29c78" transform="translate(0 -.48)"/><path d="m81.22 404.83.83.36z" fill="#eec4a0" transform="translate(0 -.48)"/><path d="m82.52 415.3-.08-.08.08.09z" fill="#c3b18b"/><path d="m109.13 484.59.34-.47z" fill="#805f41" transform="translate(0 -.48)"/></svg>