<svg id="Layer_1" data-name="Layer 1" xmlns="http://www.w3.org/2000/svg" viewBox="0 0 209.43 578.16"><defs><style>.cls-1{fill:#fff;}.cls-2{fill:#c72721;}.cls-3{fill:#f9efc3;}.cls-4{fill:#f9eec2;}.cls-5{fill:#f8edc1;}.cls-6{fill:#f7eabf;}.cls-7{fill:#f7e6bc;}.cls-8{fill:#f4dbb2;}.cls-9{fill:#f5dfb6;}.cls-10{fill:#f2d5ae;}.cls-11{fill:#d0483c;}.cls-12{fill:#eab392;}.cls-13{fill:#eec4a0;}.cls-14{fill:#f0cda7;}.cls-15{fill:#c93028;}.cls-16{fill:#cc392f;}.cls-17{fill:#df876e;}.cls-18{fill:#6d482c;}.cls-19{fill:#c82c24;}.cls-20{fill:#6f4a2d;}.cls-21{fill:#724a2e;}.cls-22{fill:#805f41;}.cls-23{fill:#d9715c;}.cls-24{fill:#a28866;}.cls-25{fill:#9b805f;}.cls-26{fill:#c3b18b;}.cls-27{fill:#f2e9bd;}.cls-28{fill:#ac9471;}.cls-29{fill:#ece2b7;}.cls-30{fill:#b29c78;}</style></defs><path d="M169,339.28c-4-3.08-9.69-5.35-11.63-9.41s-.36-10.12-.35-15.28c0-8.79,0-17.57,0-27-3.06,0-5.51.07-7.95,0-6.75-.25-13.74-8.22-12.82-14.58,1.62-11,3.15-22.08,5-33.08a5.22,5.22,0,0,1,3.51-3.43c10.92-1.1,10.93-1,11.49-11.81,0-.5.06-1,.08-1.49Q160.2,140.05,164,56.9,165.33,28.75,166.6.58l-4.31,0q-.56,11.82-1.1,23.63c-1.15,25-2.22,49.93-3.37,74.89q-2.3,49.92-4.65,99.83c-.45,9.49-1,19-1.23,28.46-.09,3-1.13,4-4.14,4-28.52-.09-57-.14-85.55,0-4.69,0-4.56-2.86-4.73-5.83-1.19-21.29-2.45-42.58-3.45-63.88Q50.28,81.37,46.67,1H42.9q.24,5.37.49,10.73Q47.23,95.89,51.12,180c.76,16.48,1.46,33,2.23,49.45.33,6.86.39,6.86,7.51,6.87h6.8c1.72,11.78,3.09,22.84,5,33.81s-3.2,17.63-14.26,17.32c-4.94-.13-5.92,1.88-5.85,6.16.17,11.17-.13,22.34.17,33.5.09,3.5-1.12,5.22-3.91,7.05-23.95,15.65-39.47,37.33-46,65.27C1.72,404.15.93,408.9,0,413.62v19c.94,4.7,1.71,9.45,2.85,14.1,8.15,33.19,28,56.86,58.79,71.37,3,1.43,4.73,2.84,4.86,6.42.37,10,1.68,20,1.53,29.91-.15,9.12,4,15.1,11.58,18.64,5.49,2.56,11.61,3.77,17.45,5.58h15c6.24-2.18,12.74-3.81,18.63-6.68,6.2-3,10.47-8.06,10.73-15.66.36-10.15,1.19-20.28,1.42-30.44.1-4.37,1.61-6.6,5.74-8.53C219.82,484.13,230.93,386.77,169,339.28Zm-39.59-63.82c1.83-12.59,3.87-25.16,5.83-37.74l1.64.15c-.46,4.51-.77,9-1.41,13.52-1.06,7.38-2.89,14.7-3.31,22.11-.24,4.31,1.61,8.74,2.5,13C131.7,284,128.67,280.64,129.43,275.46ZM102,236.56q12.48-.08,25,0a5.78,5.78,0,0,1,2,.78c.66,16.58-6.1,32.66-1.1,50.29-5.2,0-10.25,0-15.29,0-15.33-.05-12.81,1.11-13.2-13-.32-11.15-.62-22.3-1.08-33.44C98.19,238.31,99,236.58,102,236.56Zm-8,.8,1.65,47.95-1.31.06-3-48Zm-21.41,1.87a6.75,6.75,0,0,1,.41-2.15l1.51-.17c.84,4,1.82,8,2.48,12.08,1.36,8.34,2.86,16.68,3.7,25.08.57,5.7-2.68,9.84-7.63,12.67,5.32-5.85,4.81-12.43,3.58-19.41C75,258,73.88,248.61,72.59,239.23ZM57,321.37c.22-8,.18-16,0-24-.07-3.34.94-4.74,4.54-4.73q43.24.17,86.51,0c3.74,0,4.92,1.2,4.8,4.9-.24,8-.31,16,0,24,.18,4.22-1.55,5-5.24,5-14.33-.15-28.67-.06-43-.06-14.17,0-28.34-.13-42.51.08C58.16,326.56,56.87,325.25,57,321.37ZM160.06,429.28c-.75,7.62-1.37,8.07-8.75,6.87,0-6.69.38-13.29-.11-19.82a30.86,30.86,0,0,0-7.32-17.8l-1.43.47a46,46,0,0,0,1.43,4.49c9.64,22.79,2.74,45.71-17.76,58.4-13.08,8.09-26.73,8.37-39.8.67-15-8.83-24.37-21.63-23.49-40a54.08,54.08,0,0,1,2-11.76c.4-1.43,2.42-2.41,3.7-3.6l1.56,1.26a37.69,37.69,0,0,0,.07,28.79c7.5,18.48,29.31,27.45,48.29,19.9s28.5-30,20.95-48.9c-9.85-24.64-40.63-31.62-59.67-13.31-3,2.91-5.93,4.11-9.7,3.26s-5.32,1-6.67,4.11c-7.25,16.76-6.27,32.07,3.19,47.12-6.14,4.36-7.63,4.21-10.75-1.12C36.93,416.1,58,373,95.29,367.65S163.73,392.05,160.06,429.28Zm-8.37-44.85V350.54l.69,0v34Zm-16.52,84c-15.75,11.86-43.83,12-58.39.62l3.74-4.49c16,8.93,32.13,9.55,48.75,2.84C130.63,466.89,132.64,468,135.17,468.47Zm-60.72-59.9c5.72-12.45,18.77-19.91,32.91-18.82a33.4,33.4,0,0,1,29.43,24.67c2.52,9.68,1.36,18.78-5,26.85l-4.17,5.31c-8,7.11-17.2,10-27.78,8A10.27,10.27,0,0,1,97,453.06l-10.18-4.13c-1.66-1-3.54-1.84-4.93-3.17C71.87,436.25,68.84,420.76,74.45,408.57ZM56.51,386c0-12.64,0-24.33,1.21-35.93C61.47,357.24,60.21,382.45,56.51,386Zm15.25-40.72V331.34C75.13,334.62,75.16,341.61,71.76,345.26ZM74,350.33V371L72.81,371V350.34Zm72.57,28.31c-20.28-17.13-42.61-20.31-67.75-10.41,0-5.65-.21-10.46.16-15.22a4.51,4.51,0,0,1,3.22-3c21.3-.18,42.6-.13,64.37-.13Zm-59-34.48V332.27l.93,0V344.1Zm5.87,1.23V332h40.14c0,3.73.16,7.34-.12,10.92a3.45,3.45,0,0,1-2.41,2.35C118.59,345.44,106.17,345.39,93.4,345.39Zm44.81-2.59-.41.11v-9.16l.41-.08ZM25,469.52l-6.66,2.65C-7.38,433.62-.26,365.24,54.49,335.71c3.46,3.07,3.14,5.4-.52,8.56C34.58,361,19.94,381,15.31,406.69c-1.49,8.24-.88,16.86-1,25.31,0,3.22,1.6,5.05,5.73,3.42-.71-14.31.67-28.62,6.2-42.26a91.06,91.06,0,0,1,25.93-36c0,7.59-.09,13.86,0,20.14.17,9.16-.5,17.91-4.06,26.77-5.2,12.91-3.8,26.28.17,39.65,5,17,9.17,34.32,13.57,51.53.81,3.16,1,6.46,1.59,10C53,501.28,44.13,493,25,469.52Zm36-5.14c4.75,5.94,15.35,76.75,12.31,81.39C69.2,518.83,65,491.09,61,464.38Zm71,102.22c-8.22,6.48-18,7.26-31.13,7.93-3.83-1-10.82-2.42-17.47-4.8-3.09-1.11-5.86-3.78-8.15-6.31-4.57-5-4.11-9.7,1-14.29,9.08-8.16,20.24-9.64,31.73-9.1,8.89.42,17.45,2.5,24.47,8.62C139.13,554.53,138.93,561.07,131.93,566.6Zm4.28-22.11c-17.65-11.61-37.15-12.06-57.23-3.2l-.61-1c1.69-1.2,3.25-2.7,5.11-3.55,8.26-3.82,17-4.17,25.94-3.43a108.18,108.18,0,0,1,10.89,1.44c3.57.67,5-.73,4.79-5.08-3.43-.69-7.08-2.09-10.72-2a235.06,235.06,0,0,0-25.3,1.74c-4.06.51-6.73-.18-8.77-3.69-5.12-8.81-8.21-18.27-8.3-28.43-.06-7.4,3.93-13,10.18-16.7,1.44-.86,3.87-.76,5.61-.27a59.33,59.33,0,0,0,37.78-1.46c6.92-2.59,13.23,2.73,12,10.06-1.22,7.55-2.56,15.09-3.58,22.67-.19,1.38.9,2.94,1.39,4.41.87-1.31,2.22-2.52,2.52-3.95,3.11-15,6-30,9.09-45a30.33,30.33,0,0,1,2.09-5.11C144.76,489.84,140.48,517.18,136.21,544.49ZM205,434.88c-.3,2.68-1.42,4-4.12,3.64-5.35-.79-6.88,2.05-8.07,6.81-6.3,25.3-20.67,44.73-43.4,57.8-.84.49-1.76.85-3.37,1.61a39.85,39.85,0,0,1,.44-5.18c3.55-15.74,7-31.5,10.85-47.17,2-8.19,5.29-16.09,7-24.33,1.95-9.34.35-18.78-3.57-27.34a41.21,41.21,0,0,1-3.45-19.33c.14-3.65,0-7.3,0-12.21a38.76,38.76,0,0,1,13.47,15.73c5.43,10.74,7.64,22.32,8.15,34.22.26,5.82-.06,11.66.1,17.49,0,.95,1.24,1.86,1.9,2.8,1-.82,2.86-1.58,2.91-2.45,1.59-27.22-.6-53.2-24.51-71.78a6.76,6.76,0,0,1-2.16-4.5c-.28-4.79-.1-9.61-.1-14.87a91.16,91.16,0,0,0-9.64-.7c-3.56.1-4.72-1.39-4.46-4.76.2-2.63,0-5.28,0-8.89,2.58.52,4.74.53,6.5,1.37C188.26,351.27,209.58,392.94,205,434.88Z" transform="translate(0 -0.48)"/><path class="cls-1" d="M154.66.51q-.3,7.25-.59,14.5-3.36,83.15-6.7,166.29c-.52,13-1,26-1.45,39,0,1-.21,1.93-.41,3.57-15.19,0-29.84-.11-44.49,0q-16.47.16-32.93.87c-4.15.17-5.34-1.4-5.49-5.47q-2.34-64.15-5-128.3Q55.8,46,54,1L46.67,1q3.67,80.36,7.4,160.71c1,21.3,2.26,42.59,3.45,63.88.17,3,0,5.86,4.73,5.83,28.52-.18,57-.13,85.55,0,3,0,4-1,4.14-4,.26-9.49.78-19,1.23-28.46q2.33-49.92,4.65-99.83c1.15-25,2.22-49.93,3.37-74.89q.54-11.82,1.1-23.63Z" transform="translate(0 -0.48)"/><path class="cls-1" d="M157.29,369.18a38.76,38.76,0,0,1,13.47,15.73c5.43,10.74,7.64,22.32,8.15,34.22.26,5.82-.06,11.66.1,17.49,0,.95,1.24,1.86,1.9,2.8,1-.82,2.86-1.58,2.91-2.45,1.59-27.22-.6-53.2-24.51-71.78a6.76,6.76,0,0,1-2.16-4.5c-.28-4.79-.1-9.61-.1-14.87a91.16,91.16,0,0,0-9.64-.7c-3.56.1-4.72-1.39-4.46-4.76.2-2.63,0-5.28,0-8.89,2.58.52,4.74.53,6.5,1.37,38.77,18.43,60.09,60.1,55.46,102-.3,2.68-1.42,4-4.12,3.64-5.35-.79-6.88,2.05-8.07,6.81-6.3,25.3-20.67,44.73-43.4,57.8-.84.49-1.76.85-3.37,1.61a39.85,39.85,0,0,1,.44-5.18c3.55-15.74,7-31.5,10.85-47.17,2-8.19,5.29-16.09,7-24.33,1.95-9.34.35-18.78-3.57-27.34a41.21,41.21,0,0,1-3.45-19.33C157.4,377.74,157.29,374.09,157.29,369.18Z" transform="translate(0 -0.48)"/><path class="cls-1" d="M52.19,357.18c0,7.59-.09,13.86,0,20.14.17,9.16-.5,17.91-4.06,26.77-5.2,12.91-3.8,26.28.17,39.65,5,17,9.17,34.32,13.57,51.53.81,3.16,1,6.46,1.59,10C53,501.28,44.13,493,25,469.52l-6.66,2.65C-7.38,433.62-.26,365.24,54.49,335.71c3.46,3.07,3.14,5.4-.52,8.56C34.58,361,19.94,381,15.31,406.69c-1.49,8.24-.88,16.86-1,25.31,0,3.22,1.6,5.05,5.73,3.42-.71-14.31.67-28.62,6.2-42.26A91.06,91.06,0,0,1,52.19,357.18Z" transform="translate(0 -0.48)"/><path class="cls-1" d="M70.08,408.46a37.69,37.69,0,0,0,.07,28.79c7.5,18.48,29.31,27.45,48.29,19.9s28.5-30,20.95-48.9c-9.85-24.64-40.63-31.62-59.67-13.3-3,2.9-5.93,4.1-9.7,3.25s-5.32,1-6.67,4.11c-7.24,16.76-6.27,32.07,3.19,47.12-6.14,4.36-7.63,4.21-10.75-1.12C36.93,416.1,58,373,95.29,367.65s68.44,24.4,64.77,61.63c-.75,7.62-1.37,8.07-8.75,6.87,0-6.69.38-13.29-.11-19.82a30.86,30.86,0,0,0-7.32-17.8l-1.43.47a46,46,0,0,0,1.43,4.49c9.64,22.79,2.74,45.71-17.76,58.4-13.08,8.09-26.73,8.37-39.8.67-15-8.83-24.37-21.63-23.49-40a54.08,54.08,0,0,1,2-11.76c.4-1.43,2.42-2.41,3.7-3.6Z" transform="translate(0 -0.48)"/><path class="cls-1" d="M149.13,461.9c-4.37,27.94-8.65,55.28-12.92,82.59-17.65-11.61-37.15-12.06-57.23-3.2-.21-.35-.41-.7-.61-1,1.69-1.2,3.25-2.7,5.11-3.55,8.26-3.82,17-4.17,25.94-3.43a108.18,108.18,0,0,1,10.89,1.44c3.57.67,5-.73,4.79-5.08-3.43-.69-7.08-2.09-10.72-2a235.06,235.06,0,0,0-25.3,1.74c-4.06.51-6.73-.18-8.77-3.69-5.12-8.81-8.21-18.27-8.3-28.43-.06-7.4,3.93-13,10.18-16.7,1.44-.86,3.87-.76,5.61-.27a59.33,59.33,0,0,0,37.78-1.46c6.92-2.59,13.23,2.73,12,10.06-1.22,7.55-2.56,15.09-3.58,22.67-.19,1.38.9,2.94,1.39,4.41.87-1.31,2.22-2.52,2.52-3.95,3.11-15,6-30,9.09-45A30.33,30.33,0,0,1,149.13,461.9Z" transform="translate(0 -0.48)"/><path class="cls-1" d="M86.79,448.93c-1.66-1-3.54-1.84-4.93-3.17-10-9.51-13-25-7.41-37.19,5.72-12.45,18.77-19.91,32.91-18.82a33.4,33.4,0,0,1,29.43,24.67c2.52,9.68,1.36,18.78-5,26.85,1.27-4.17,2.53-8.34,4-13.06-1.49.32-1.94.28-2.09.47-.82,1-1.56,2.15-2.33,3.22a39.14,39.14,0,0,1-20.63,15c-13.41,4.14-21.6,1.72-30.59-9A27.53,27.53,0,0,0,78,435.86l-1.34,1.24Z" transform="translate(0 -0.48)"/><path class="cls-1" d="M104.64,326.42c-14.17,0-28.34-.13-42.51.08-4,.06-5.26-1.25-5.16-5.13.22-8,.18-16,0-24-.07-3.34.94-4.74,4.54-4.73q43.24.17,86.51,0c3.74,0,4.92,1.2,4.8,4.9-.24,8-.31,16,0,24,.18,4.22-1.55,5-5.24,5C133.31,326.33,119,326.42,104.64,326.42Zm-32.15-33.2c-3.34,0-5.83.18-8.28,0-3.57-.33-4.6,1.22-4.52,4.62q.29,11.7,0,23.41c-.08,3.55,1.38,4.82,4.72,4.58,1.65-.12,3.45.33,4.94-.18,1.23-.42,3-1.85,3-2.86C72.58,313.16,72.49,303.56,72.49,293.22Zm6.66,16.39h0c0-4.31.19-8.64-.12-12.93-.08-1.18-1.63-2.25-2.5-3.37-.77,1.06-2.19,2.1-2.21,3.18-.19,8.46-.21,16.92,0,25.37,0,1.25,1.5,2.47,2.3,3.7.85-1.34,2.33-2.62,2.45-4C79.37,317.59,79.15,313.59,79.15,309.61Zm67.63-.09c0,4-.2,8,.12,12,.11,1.4,1.53,2.69,2.35,4,.73-1.24,2.05-2.47,2.08-3.73q.28-12.48,0-25c0-1.17-1.49-2.31-2.29-3.47-.74,1.23-2.05,2.42-2.14,3.7C146.62,301.18,146.79,305.35,146.78,309.52Z" transform="translate(0 -0.48)"/><path class="cls-1" d="M129,237.32c.66,16.58-6.1,32.66-1.1,50.29-5.2,0-10.25,0-15.29,0-15.33-.05-12.81,1.11-13.2-13-.32-11.15-.62-22.3-1.08-33.44-.11-2.83.66-4.56,3.69-4.58q12.48-.08,25,0A5.78,5.78,0,0,1,129,237.32Z" transform="translate(0 -0.48)"/><path class="cls-1" d="M78.79,368.23c0-5.65-.21-10.46.16-15.22a4.51,4.51,0,0,1,3.22-3c21.3-.18,42.6-.13,64.37-.13v28.77C126.26,361.51,103.93,358.33,78.79,368.23Z" transform="translate(0 -0.48)"/><path class="cls-1" d="M100.8,574.53c-3.83-1-10.82-2.42-17.47-4.8-3.09-1.11-5.86-3.78-8.15-6.31-4.57-5-4.11-9.7,1-14.29,9.08-8.16,20.24-9.64,31.73-9.1,8.89.42,17.45,2.5,24.47,8.62,6.74,5.88,6.54,12.42-.46,18C123.71,573.08,114,573.86,100.8,574.53Zm2.14-1.29c8.72-1,17.16-3.11,21.83-6.54,7.37-5.43,7.38-14.15-.63-18.24-12.82-6.56-26.11-6.36-38.72.61-7.86,4.34-7.94,13.72-.08,18.08C90.7,570.11,97,571.27,102.94,573.24Z" transform="translate(0 -0.48)"/><path class="cls-1" d="M93.4,345.39V332h40.14c0,3.73.16,7.34-.12,10.92a3.45,3.45,0,0,1-2.41,2.35C118.59,345.44,106.17,345.39,93.4,345.39Z" transform="translate(0 -0.48)"/><path d="M86.79,448.93,76.62,437.1,78,435.86a27.53,27.53,0,0,1,2.13,2.05c9,10.74,17.18,13.16,30.59,9a39.14,39.14,0,0,0,20.63-15c.77-1.07,1.51-2.18,2.33-3.22.15-.19.6-.15,2.09-.47-1.43,4.72-2.69,8.89-4,13.06l-4.17,5.31c-1.46.71-2.95,1.38-4.39,2.14-8.27,4.34-16.92,6.31-26.24,4.34Z" transform="translate(0 -0.48)"/><path class="cls-1" d="M76.78,469.09l3.74-4.49c16,8.93,32.13,9.55,48.75,2.84,1.36-.55,3.37.54,5.9,1C119.42,480.33,91.34,480.46,76.78,469.09Z" transform="translate(0 -0.48)"/><path class="cls-1" d="M73.06,286.74c5.32-5.85,4.81-12.43,3.58-19.41-1.65-9.32-2.76-18.72-4-28.1a6.75,6.75,0,0,1,.41-2.15l1.51-.17c.84,4,1.82,8,2.48,12.08,1.36,8.34,2.86,16.68,3.7,25.08C81.26,279.77,78,283.91,73.06,286.74Z" transform="translate(0 -0.48)"/><path class="cls-1" d="M61,464.38c4.75,5.94,15.35,76.75,12.31,81.39C69.2,518.83,65,491.09,61,464.38Z" transform="translate(0 -0.48)"/><path class="cls-1" d="M56.51,386c0-12.64,0-24.33,1.21-35.93C61.47,357.24,60.21,382.45,56.51,386Z" transform="translate(0 -0.48)"/><path class="cls-1" d="M134.68,286.5c-3-2.47-6-5.86-5.25-11,1.83-12.59,3.87-25.16,5.83-37.74l1.64.15c-.46,4.51-.77,9-1.41,13.52-1.06,7.38-2.89,14.7-3.31,22.11C131.94,277.81,133.79,282.24,134.68,286.5Z" transform="translate(0 -0.48)"/><path class="cls-1" d="M94,237.36l1.65,47.95-1.31.06-3-48Z" transform="translate(0 -0.48)"/><path class="cls-1" d="M151.69,384.43V350.54l.69,0v34Z" transform="translate(0 -0.48)"/><path class="cls-1" d="M72.81,371V350.34H74V371Z" transform="translate(0 -0.48)"/><path class="cls-1" d="M97,453.06c9.32,2,18,0,26.24-4.34,1.44-.76,2.93-1.43,4.39-2.14-8,7.11-17.2,10-27.78,8A10.27,10.27,0,0,1,97,453.06Z" transform="translate(0 -0.48)"/><path class="cls-1" d="M71.76,331.34c3.37,3.28,3.4,10.27,0,13.92Z" transform="translate(0 -0.48)"/><path class="cls-1" d="M88.46,332.24V344.1l-.93.06V332.27Z" transform="translate(0 -0.48)"/><path class="cls-1" d="M137.8,342.91v-9.16l.41-.08v9.13Z" transform="translate(0 -0.48)"/><path d="M54,1Q55.8,46,57.6,91q2.55,64.16,5,128.3c.15,4.07,1.34,5.64,5.49,5.47q16.45-.69,32.93-.87c14.65-.14,29.3,0,44.49,0,.2-1.64.38-2.61.41-3.57.5-13,.93-26,1.45-39Q150.7,98.16,154.07,15q.3-7.26.59-14.5C121.1.37,87.54.84,54,1Z" transform="translate(0 -0.48)"/><path d="M72.49,293.22c0,10.34.09,19.94-.14,29.53,0,1-1.77,2.44-3,2.86-1.49.51-3.29.06-4.94.18-3.34.24-4.8-1-4.72-4.58q.29-11.7,0-23.41c-.08-3.4,1-4.95,4.52-4.62C66.66,293.4,69.15,293.22,72.49,293.22Z" transform="translate(0 -0.48)"/><path d="M79.15,309.61c0,4,.22,8-.12,11.93-.12,1.4-1.6,2.68-2.45,4-.8-1.23-2.27-2.45-2.3-3.7-.2-8.45-.18-16.91,0-25.37,0-1.08,1.44-2.12,2.21-3.18.87,1.12,2.42,2.19,2.5,3.37.31,4.29.12,8.62.12,12.93Z" transform="translate(0 -0.48)"/><path d="M146.79,309.52c0-4.17-.17-8.34.1-12.48.09-1.28,1.4-2.47,2.14-3.7.8,1.16,2.26,2.3,2.29,3.47q.3,12.48,0,25c0,1.26-1.35,2.49-2.08,3.73-.82-1.33-2.24-2.62-2.35-4C146.58,317.52,146.78,313.51,146.79,309.52Z" transform="translate(0 -0.48)"/><path d="M102.94,573.24c-5.9-2-12.24-3.13-17.6-6.09-7.86-4.36-7.78-13.74.08-18.08,12.61-7,25.9-7.17,38.72-.61,8,4.09,8,12.81.63,18.24C120.1,570.13,111.66,572.26,102.94,573.24Z" transform="translate(0 -0.48)"/><path class="cls-2" d="M208.59,413v18.8a9.93,9.93,0,0,0-.48,1.39c-1.08,5.61-1.65,11.38-3.33,16.8-2,6.57-5,12.85-7.58,19.26h-9.73V485q-3,3.47-5.92,6.91c0-2.52.09-5,0-7.56a76.82,76.82,0,0,0-.56-9.11c-.43-2.8-2.09-5.28-5-5.58-4-.42-8.14-.11-12.37-.11v2.24l.12,35.73a11.88,11.88,0,0,1-1.86,1.64c-5.27,2.89-10.42,6.08-15.89,8.51-11.31,5-23.07,8.28-35.66,7.66a112.47,112.47,0,0,0-11.9,0,68.07,68.07,0,0,1-29-5.18c-6.67-2.65-12.94-6.27-19.39-9.46H59.9v-5.58H52.37V491.89h7v-5.2h-7V474.55h7.24v-5.22H45.84V508L34.26,498.8V469.31H28v23.21l-8-9.4,2.79-.74c-.1-2-.1-4.14-.33-6.22-.69-6.09-4.51-8.63-10.57-7.13L8.7,462.55l.23-1.79,2.13-1.44L9,457.85V455.8L11.32,454a19.15,19.15,0,0,0-2.43-.6,8.26,8.26,0,0,0-1.79.12l-.64,4a3.25,3.25,0,0,0-.07-.45q-14.68-43.31,6.31-83.92c1.73-3.34,4-6.37,6.07-9.54,4.3,5.54,8.56,11.11,12.91,16.61C36.26,386,41,391.66,45.49,397.56c1.3,1.73,1.92,4,2.62,6.14a37.31,37.31,0,0,1,1,5L48,410.53l2.14.72c.3,1,.3,2,.78,2.45a53.35,53.35,0,0,1,9.74,11.65c3.12,5,6.47,9.79,9.65,14.73,1.61,2.49,2.92,5.17,4.63,7.58,1.08,1.54,2.8,2.62,4,4.1,4.3,5.45,8.5,11,12.72,16.5a7.22,7.22,0,0,1,.54,1.11,7.83,7.83,0,0,1-1.09-.1c-8.2-2-13,1.64-13.14,10-.09,6.88-.21,13.76.08,20.63a18,18,0,0,0,2.08,7.82c2.48,4.44,8.46,4.5,11.51.47a5.76,5.76,0,0,1,.79-.73l.85,3h2.69V488.14H87.44v4.26l3.45.38c-.34,3.72-.52,7.29-1.1,10.79a3.31,3.31,0,0,1-2.56,1.92c-.85,0-1.93-1.16-2.44-2.08a7,7,0,0,1-.47-3.13c0-3.89,0-7.79,0-11.69,0-3.74,0-7.48.19-11.22.08-1.67.74-3.22,2.85-3.21S90,475.73,90,477.45c.07,2,0,4,0,6h6.17c-.23-3.39-.44-6.59-.71-10.51,2.12,3.08,4,5.57,5.56,8.2a7.33,7.33,0,0,1,1.07,3.6c.09,7.79.05,15.58.05,23.38v2.4h6.31v-19h5.74v19h6.26c0-13.46.05-26.74-.09-40,0-1.11-1.31-2.21-2-3.3l-.31,1.93c-.68-7.27-1.34-14.27-2-21.68l-.87,1.57c-.42-5.08-.82-9.71-1.18-14.35-.05-.58-.08-1.55.23-1.72,2-1.1,1.3-2.88,1.33-4.49,0-.88,0-1.77,0-2.79l1.57.72c0-5.18,0-10.19,0-15.21,0-1.86.9-2.48,3-1.87-.81-2.4,1.71-4.6.19-7l.35-.31c3.79-1,4-1.07,2.79-4.44a22.64,22.64,0,0,1-1.66-9.51c.32-4.16-.22-8.41.24-12.55.34-3.12.06-5.64-2.2-7.93a2.49,2.49,0,0,1-.06-2.36c1.31-2,1.33-2.1-.9-2.45l-1-2.93c.88-2.15.58-2.77-1.33-2.7-.56-4-1.16-8-1.68-12-1.13-8.81-2.21-17.64-3.32-26.46,9.9-.11,19.32,2.37,28.53,5.65A85.08,85.08,0,0,1,162.63,336c-.4.3-1.15.6-1.16.91-.07,4.71-.05,9.41-.05,14.22h2.41v-5.91c3,.48,4.06-1,4.22-3.43,0-.61.1-1.21.15-1.82l1.48,1.12V351c4.52.71,5.23.47,5-1.59l-2.65-.23a13.28,13.28,0,0,1,.05-3,6.7,6.7,0,0,1,1.26-1.92l3.53,3.15v4.36l2.83-1.75,2.89,3.42a11,11,0,0,0,.3,2.17c.25.72,1.06,1.34,1.08,2,.12,3.2,0,6.42.12,9.62,0,.57.78,1.11,1.21,1.66.41-.56,1.14-1.11,1.17-1.7.15-3,.11-6,.14-8.93l2.89,3.83v6.81h4.47q2.19,4.14,4.36,8.29v6.47l1.54-3.15q.94,2.26,1.88,4.53a1,1,0,0,0-.34.06l-1.57,0c-.62.13-1.76.23-1.77.4-.13,2-.09,4-.09,5.95h.64l.52-2.65,1,2.58,1.15.08,1.16-.81,1.5.88c.94,3.68,2,7.35,2.79,11.06C207.51,406,208,409.55,208.59,413Zm-44.67-35.6a.21.21,0,0,0-.24-.16c-2.44-.92-1.8,1-1.93,2.12l-1.58-.2.77-2.38c-.64.21-1.65.36-1.66.58-.13,1.93-.07,3.86-.07,5.79,1.24-2.65,1.24-2.65,2.54-2.52l.63,2.61,1.62-.52.17-.81,1.25,1a13.82,13.82,0,0,0,2-.33c0-1.81-.23-3.61-.39-5.41l-2.89,1-.2-.56Zm23.54,5.81,1.66.12c-.29-.72-.86-1.6-.69-1.78,1.22-1.31-.61-2.64.15-3.88l-1.07-.42-.83.42-2.63-.27v5.77h.65c.17-.8.34-1.59.58-2.68l.92,2.75Zm3.66,12.33.14.11a9.84,9.84,0,0,0-.76,2.34c0,.51.46,1.07.74,1.67.26-1.14.44-1.82.56-2.52a22.32,22.32,0,0,0,.38-3.25c0-.2-1-.69-1.2-.56a2.33,2.33,0,0,0-.83,1.41C190.11,395,190.78,395.3,191.12,395.57Zm-22-8.28-1.38-2.2c-.45.76-.94,1.51-1.34,2.3a1.61,1.61,0,0,0,0,.9c.2,1.22-.59,3.19,1.45,3.21,2.3,0,.89-2.06,1.28-3.15Zm-.19-8.8c-.05-.06-.09-.13-.16-.16s-.11,0-.17,0c0,1.28-.05,2.57.09,3.84.05.44.76,1.21,1,1.15.54-.16,1.45-.85,1.38-1.05a15.83,15.83,0,0,0-1.43-2.69Zm-22.36,10.24-2.32,2.11c-.19-1.88-.36-3.53-.52-5.19l-.58.05a12.37,12.37,0,0,0-.11,2.64,24.2,24.2,0,0,0,1,3.29l2.73-1.05,1.93.85c.19-1.74.39-3.48.5-5.22,0,0-1.07-.15-1.64-.23l-2.3-.38-.33.43,1.68,1.8Zm22.57,8.73a25.63,25.63,0,0,0,0-3.16,1.59,1.59,0,0,0-1-1c-.29-.09-1,.28-1.07.51a7.61,7.61,0,0,0,0,3.08c.1.35,1.37.36,2.11.52l-.23,2.14.37.16,2-4.35c.16,1.39.19,2.18.36,2.93a7.39,7.39,0,0,0,.7,1.48c.45-.39,1.23-.74,1.29-1.19.23-1.66.49-3.53-2.16-3.32l.15-2.42Zm-14.69-11.52-2.45-.33-.4,1.55-1.27-2c-.82,3-.64,5,.59,6.32.22-1,.4-1.82.58-2.66l2.06-.51a8.66,8.66,0,0,0-.07,2.52c.11.44.88.71,1.65,1.26l-.62-6.08.39-.27ZM127,469.42v41.1h6.08V491.28c4.32-.46,5.29.36,5.33,4.27,0,3.59,0,7.18.05,10.77,0,1.41.12,2.82.18,4.16h5.81c0-5.28,0-10.39,0-15.5,0-2.51-.61-4.82-2.45-6.07.85-1.63,2.11-3,2.24-4.51a55,55,0,0,0,0-10c-.23-2.53-1.76-4.69-4.42-4.88C135.56,469.2,131.3,469.42,127,469.42Zm23.93-.1V510.5h6.1V469.32ZM71.79,510.58V469.32H65.74v41.26ZM156.84,343l.46.07v8.55c.89-.59,1.83-.91,1.83-1.26.1-4.77.07-9.55.07-14.3h-2.82c-.64,3.29-1.26,6.47-1.87,9.66l-.42-.06c-.65-3.19-1.3-6.38-2-9.62H149.4V351c1.84.24,1.87.24,1.9-1.33,0-2,0-3.91,0-5.86a31.68,31.68,0,0,1,1.86,6.19c.11.46.68.81,1,1.21.42-.41,1.09-.76,1.21-1.24C156,347.65,156.38,345.34,156.84,343Zm8.85,18h.22c0,1.6-.1,3.2,0,4.79a3,3,0,0,0,3.22,3.13,2.91,2.91,0,0,0,3.26-3c.12-3.19.11-6.39,0-9.58a2.82,2.82,0,0,0-3.06-3,3,3,0,0,0-3.43,2.9C165.76,357.89,165.77,359.5,165.69,361.09Zm9-7.59v15.2c1.71.52,2.27-.07,2.19-1.62-.08-1.73,0-3.47,0-5.21l.76-.33c.38.59,1,1.15,1.09,1.79a22.81,22.81,0,0,1,.06,3.88c-.07,1.9.86,2,2.26,1.38A46.77,46.77,0,0,0,181,363a11.76,11.76,0,0,1,0-4.27c.92-4-.37-5.28-4.47-5.25ZM41.08,453.34c0,4,0,7.62.05,11.26,0,.48.61.95.94,1.42.34-.47.91-.92,1-1.43.13-1.44,0-2.89,0-4.35l1.11-.1c.15,1.13.26,2.26.49,3.38.17.89-.72,2.43,1.06,2.38.35,0,.86-1.57.93-2.45.19-2.27-.56-4.48-.07-6.86s-.6-3.22-3.14-3.25Zm116.83-99.71v15.29l2.27-.22v-5.56c3.83-.82,4.75-2.27,4.16-6.27C163.88,353.72,162.94,353.23,157.91,353.63ZM39.14,466.19l.61-.53c-.53-3.38-1.18-6.75-1.54-10.15-.2-1.94-.88-2.62-3-1.87l-1.77,12.15.59.4c.46-.37,1-.72,1.4-1.11s.84-.83,1.27-1.24c.36.38.72.77,1.1,1.14S38.69,465.79,39.14,466.19ZM25,459.64h0a35.67,35.67,0,0,0,0-3.87,2.45,2.45,0,0,0-2.68-2.5c-1.64,0-2.72.76-2.79,2.37-.12,2.72-.11,5.46,0,8.19.09,1.61,1.24,2.39,2.84,2.34A2.46,2.46,0,0,0,25,463.74C25.13,462.38,25,461,25,459.64Zm2.09,6.81c1.86-.53,4.06-.5,4.73-1.5.81-1.19.34-3.27.38-5a15.17,15.17,0,0,0-.16-1.64c-.12-1.45.3-3.43-.48-4.22s-2.83-.67-4.47-1Zm-9.19-6.73c0-1.37.29-2.84-.1-4.09a4,4,0,0,0-2.3-2.25,2.11,2.11,0,0,0-2.9,1.81,65.94,65.94,0,0,0,0,8.89c.09,1.49,1.36,2.17,2.83,2.06a2.44,2.44,0,0,0,2.45-2.53C18,462.32,17.93,461,17.93,459.72ZM146.68,351.13v-15.2l-2,.24v15Zm55.11,45.46c-.82-1.36-1.4-3.19-2-3.2-2.09,0-1.49,1.95-1.41,3.14a12.36,12.36,0,0,0,1.21,3.27Zm-21.92-5.14c3.22.44,2.49-1.81,2.57-3.36s.12-3.37-2.57-2.84Zm-19.36,4.3.56-.23c-.43-.74-.85-1.49-1.27-2.23-.52.42-1.38.77-1.48,1.27a11.57,11.57,0,0,0-.07,3.76c.08.54.88,1,1.35,1.46.42-.54,1.08-1,1.2-1.63A7.8,7.8,0,0,0,160.51,395.75Zm-4.33-4.41.54.05c.1-.86.21-1.72.39-3.11l1.68,3.13v-5.89l-1.26.93L156.18,385Zm24.63-14.28v6.3c3.84,0,1.78-2.91,2.3-4.36S182.7,376.73,180.81,377.06Zm-1,16.45c0,1.73,0,3.46,0,5.18,0,.37.49.8.86,1,.14.08.78-.36.87-.66a29.81,29.81,0,0,0,.77-3.52C182.61,393.71,181.88,392.94,179.79,393.51Zm-19.37-8.27H160v6.11h.43l.61-2.86.8,2.91.24-.12v-5.93h-.41l-.56,2.79C160.79,386.75,160.61,386,160.42,385.24Zm14.87,6.69v-6.6h-.45l-.36,2.2-1.55-2.81v6.62l.36,0,.61-2.06Zm19.77-6.23c-.29,2.07-.55,3.82-.8,5.58,1.06-1.8,2,.06,3.28.12C196.37,389.55,197.61,387.15,195.06,385.7ZM192.69,377h-.89l-.87,5.58.72.12.66-2.37.58,2.13C195.43,380.12,192,378.84,192.69,377Zm-17.14,6.14.59,0c.24-.83.23-2,.78-2.45,1.32-1.18,1.72-2.68.43-3.44-.37-.21-1.69.31-1.72.58C175.48,379.6,175.55,381.37,175.55,383.13Zm11.17,7.48.74-1.12,1.18,2.48V385C186.19,386.5,186.59,388.58,186.72,390.61Zm-21.65,7.88-1.2-.46-.37.43,1.29,1.31c.4-.46,1.16-.94,1.13-1.38a30.42,30.42,0,0,0-.82-4.23c-.11.1.25-.21.6-.53-.8-.22-1.79-.12-1.91.25a4.82,4.82,0,0,0,.09,2.32C165.72,396.3,164.92,397.56,165.07,398.49Zm.83-7.21-.68-3.89c-2.1.44-2.13.49-2.14,4.77C163.92,390.14,164.72,390.4,165.9,391.28Zm30.81-14.17c-1.52,0-1.49,0-1.45,4.39,0,1.31.08,2.35,1.45,1.87Zm-3.48,8.12c-1.63,2.06-1.94,4.11,0,6.47Zm-9.9,11,.83,3.54.87-.16c.11-1.23.23-2.46.33-3.51Zm-64,56.35.75,0-.64-5.06-.81.12C118.86,449.23,119.1,450.89,119.33,452.55Zm71.11-75.26-.3.3.58.55.35-.35Z" transform="translate(0 -0.48)"/><path class="cls-3" d="M18.77,363.58c3.76-6.54,8.83-12,14.27-17.15a101,101,0,0,1,26.49-18.16c13.08-6.11,26.69-10,41.28-9.68,3.56.08,7.13.05,10.69.06,1.11,8.82,2.19,17.65,3.32,26.46.52,4,1.12,8,1.68,12,.07.9.14,1.8.22,2.7,0,.17,0,.33,0,.5l.26,3.34.6-.07-.33-3.25a3.09,3.09,0,0,1,.14-.43.7.7,0,0,0,.4-.09l1,2.93c2.23.35,2.21.49.9,2.45a2.49,2.49,0,0,0,.06,2.36c2.26,2.29,2.54,4.81,2.2,7.93-.46,4.14.08,8.39-.24,12.55a22.64,22.64,0,0,0,1.66,9.51c1.2,3.37,1,3.47-2.79,4.44l-.29-.24-.06.55c1.52,2.4-1,4.6-.19,7-2.06-.61-3,0-3,1.87,0,5,0,10,0,15.21l-1.57-.72c0,1,0,1.91,0,2.79,0,1.61.65,3.39-1.33,4.49-.31.17-.28,1.14-.23,1.72.36,4.64.76,9.27,1.18,14.35l.87-1.57c.69,7.41,1.35,14.41,2,21.68l.31-1.93c.69,1.09,2,2.19,2,3.3.14,13.29.09,26.57.09,40h-6.26v-19h-5.74v19h-6.31v-2.4c0-7.8,0-15.59-.05-23.38a7.33,7.33,0,0,0-1.07-3.6c-1.61-2.63-3.44-5.12-5.56-8.2.27,3.92.48,7.12.71,10.51H90c0-2,0-4,0-6-.07-1.72-.54-3.27-2.69-3.29s-2.77,1.54-2.85,3.21c-.18,3.74-.17,7.48-.19,11.22,0,3.9,0,7.8,0,11.69a7,7,0,0,0,.47,3.13c.51.92,1.59,2.07,2.44,2.08a3.31,3.31,0,0,0,2.56-1.92c.58-3.5.76-7.07,1.1-10.79l-3.45-.38v-4.26h8.49v22.34H93.24l-.85-3a5.76,5.76,0,0,0-.79.73c-3,4-9,4-11.51-.47A18,18,0,0,1,78,499.92c-.29-6.87-.17-13.75-.08-20.63.1-8.38,4.94-12,13.14-10a7.83,7.83,0,0,0,1.09.1,7.22,7.22,0,0,0-.54-1.11c-4.22-5.51-8.42-11.05-12.72-16.5-1.17-1.48-2.89-2.56-4-4.1-1.71-2.41-3-5.09-4.63-7.58-3.18-4.94-6.53-9.76-9.65-14.73a53.35,53.35,0,0,0-9.74-11.65c-.48-.43-.48-1.42-.78-2.45L48,410.53l1.07-1.85a37.31,37.31,0,0,0-1-5c-.7-2.11-1.32-4.41-2.62-6.14C41,391.66,36.26,386,31.68,380.19,27.33,374.69,23.07,369.12,18.77,363.58Zm80.68-13.8,0,0c.81.74.81.74,1.85-1.19l-1.35-.69v0c2,.4,1.89-1.63,2.87-2.41l-3.24-3.15-1.55,3.68-3-.59-.49-2.87c-1.56,1.64-1.67,2.5.21,3.1,0,.25,0,.51,0,.76l-1.19.4L93,346.8l.44.33-2.59,1.23L90,346.7c-.6,1-1.24,1.64-1.3,2.33,0,.38.93.84,1.44,1.26l.68-1.4,4.74.56-.6-2.83,3.48,2.71Zm8.28,31.62v-.5l1.79-1,1-.15,3.67-.16a8.75,8.75,0,0,0,.34,2.26c.6,1.38,1.38,2.67,2.11,4.05,2-.82,2.49-2.31,2-6.65a5.31,5.31,0,0,1-1.33-.16c-.1,0,0-.59,0-.91l.61-.42-1.56-.87a1.77,1.77,0,0,0-.32-.21c.34-3.43-1.67-5.86-3.56-8.33-.16-.21-.71-.11-1.08-.15-.18-2,.17-4.23-2.56-5.36l-1.49,1.62,2.14,1.4.5,1.86-1,.09-1.29-1.08-.87-.92c-1.49-1.41-2.7-3.47-5.31-2.27H101l-.5-.41-.06,0,0,0c-5.42,1-7.82-.67-9.61-4.62a3.11,3.11,0,0,0-.81-1c-1.87-1.66-3.75-3.31-5.65-4.92a1.81,1.81,0,0,0-1.13-.45c-2.85.12-5.41.83-6.63,3.79a24.9,24.9,0,0,0-1.32,3.62c-.57,2.39-1,4.82-1.47,7.23a24.25,24.25,0,0,0-13.55,8L59,379.2l-2.75-2.32-.47.28,3.34,6.77.9,2.9c-.07.44-.33.95-.19,1.31,1.31,3.49,2.65,7,4.1,10.41.13.31,1,.29,1.59.42.15.39.31.78.46,1.18l-.44.88-3.46,4.69c0,2,0,4,.22,6a3.41,3.41,0,0,0,1.25,1.89,6.9,6.9,0,0,0,7.54,1.2c.15.66.25,1.33.46,2,1.85,5.68,3.56,11.41,5.66,17,1.46,3.9,2.83,8.06,7.15,10h0c.79.67,1.65,1.27,2.38,2a31.53,31.53,0,0,1,4.45,4.89c1,1.54,1.09,3.61,1.86,5.32,2.85,6.33,5.82,12.61,8.75,18.91l.33.5,1.66,3.63c-.62,1.47.39,5.45,1.64,6.37.08.07.29,0,.44-.05l.47.55-.87,1.13c.87.48,1.71,1.32,2.61,1.37a12.77,12.77,0,0,0,3.46-.63V486a11.29,11.29,0,0,0,3-.07,16.67,16.67,0,0,0,3-1.61l-1.19-1.11-.35-.5,0,0c.83-3-.06-5.7-1.36-8.34-.51-2.57-1-5.13-1.54-7.7l0-2.75-.77-2.23h0q-.94-2.55-1.91-5.08l-1.23-4.74c-.45-1.59-1-3.15-1.34-4.77a29.46,29.46,0,0,1-.75-6.64,17.4,17.4,0,0,1,1.4-6.62c1.77-3.66.37-6.85-.65-10.19,1-.68,2-1.33,3-2.05,1.55-1.18,2.9-2.49,2.28-4.73.33-.82,1.12-1.83.88-2.42a15.83,15.83,0,0,0-2.31-3.25l-.58-2.73,1.28-.94,0,0c.37-1.22,1.49-2.43.07-3.69.08-.8.53-1.94.17-2.33-1.34-1.45-2.21-3.55-4.67-3.7a3.26,3.26,0,0,1-3.28-2.62l-.92.38-.27-2.06,1-.11.36.36-.14-.55-.2-1,.38-2.27a17.29,17.29,0,0,1,1,1.58,4.18,4.18,0,0,0,5.91,2.08,2.38,2.38,0,0,0,1-1.65,20.47,20.47,0,0,0-.11-5c-.2-1.05-1.09-2-1.67-2.94C110.94,381.88,109.46,381.49,107.73,381.4ZM56.36,414.89l0,1.86c.42-.05,1,.06,1.23-.17a6.85,6.85,0,0,0,1.93-2c.43-.85,1.5-1.88.16-2.9L59.5,408c.51-1.57,1-3.13,1.54-4.69-1.84-1.11-2.51-.84-3,1-.36,1.43-.94,2.81-1.34,4.23a14.4,14.4,0,0,0-.26,2.19C55.52,412.09,54.62,413.45,56.36,414.89Zm37.23-77.76c-1-1.22-2.23-2.7-3.42-4.21-.82-1.05-1.55-2.18-2.38-3.22a2,2,0,0,0-1.06-.63c-.27-.06-.83.13-.9.33-.7,2.18-1.7,4.88,0,6.44,2.33,2.06,2.65,4.51,3.14,7.12,0,.06.21.09.24.1Zm24,64.26-.8,1.49L115,401.27l-.36,4.25C116.37,405.49,117.67,403.87,117.6,401.39ZM95.18,351.47a10,10,0,0,0,1.43,1.92,2.1,2.1,0,0,0,1.55.5,1.44,1.44,0,0,0,.87-1.11,1.47,1.47,0,0,0-.94-1A21.41,21.41,0,0,0,95.18,351.47Zm18.12,57.22-.64-.28-.34,1.64.45.13Zm2.55,40.92h-.16v.76h.16Zm-12.7-102.44-.17.08.17.08Zm-13.58,3.72.1.08,0-.11Z" transform="translate(0 -0.48)"/><path class="cls-3" d="M127,469.42c4.27,0,8.53-.22,12.76.08,2.66.19,4.19,2.35,4.42,4.88a55,55,0,0,1,0,10c-.13,1.49-1.39,2.88-2.24,4.51,1.84,1.25,2.43,3.56,2.45,6.07,0,5.11,0,10.22,0,15.5h-5.81c-.06-1.34-.16-2.75-.18-4.16,0-3.59,0-7.18-.05-10.77,0-3.91-1-4.73-5.33-4.27v19.24H127Zm6.24,16.44c4.09.69,5,0,5.15-3.85.05-1.22.05-2.44,0-3.65-.09-4-1-4.73-5.18-4.17Z" transform="translate(0 -0.48)"/><path class="cls-3" d="M169.66,502.88l-5.94,4.64-.12-35.73v-2.24c4.23,0,8.34-.31,12.37.11,2.94.3,4.6,2.78,5,5.58a76.82,76.82,0,0,1,.56,9.11c.08,2.52,0,5,0,7.56l-6.05,6c-.09-.9-.25-1.8-.26-2.7,0-5.64,0-11.29-.1-16.93-.1-3.62-1.77-4.76-5.31-3.87v3.36Q169.74,490.32,169.66,502.88Z" transform="translate(0 -0.48)"/><path class="cls-4" d="M50,510.69,45.85,508c0-12.83,0-25.65,0-38.65H59.56v5.22H52.32v12.14h7v5.2h-7v13.22H59.9v5.58Z" transform="translate(0 -0.48)"/><path class="cls-5" d="M151,469.32h6.1V510.5H151Z" transform="translate(0 -0.48)"/><path class="cls-5" d="M71.79,510.58H65.74V469.32h6.05Z" transform="translate(0 -0.48)"/><path class="cls-5" d="M34.26,498.8,28,492.52V469.31h6.28Z" transform="translate(0 -0.48)"/><path class="cls-6" d="M156.84,343c-.46,2.3-.86,4.61-1.42,6.89-.12.48-.79.83-1.21,1.24-.36-.4-.93-.75-1-1.21a31.68,31.68,0,0,0-1.86-6.19c0,2,0,3.9,0,5.86,0,1.57-.06,1.57-1.9,1.33V336.08h2.72c.67,3.24,1.32,6.43,2,9.62l.42.06c.61-3.19,1.23-6.37,1.87-9.66h2.82c0,4.75,0,9.53-.07,14.3,0,.35-.94.67-1.83,1.26v-8.55Z" transform="translate(0 -0.48)"/><path class="cls-5" d="M20,483.12c-2.36-3.77-4.75-7.53-7.06-11.34A15.94,15.94,0,0,1,11.87,469c6.06-1.5,9.88,1,10.57,7.13.23,2.08.23,4.2.33,6.22Z" transform="translate(0 -0.48)"/><path class="cls-4" d="M197.2,469.28c-2.27,5.84-6,10.81-9.73,15.72V469.28Z" transform="translate(0 -0.48)"/><path class="cls-7" d="M165.69,361.09c.08-1.59.07-3.2.25-4.78a3,3,0,0,1,3.43-2.9,2.82,2.82,0,0,1,3.06,3c.09,3.19.1,6.39,0,9.58a2.91,2.91,0,0,1-3.26,3,3,3,0,0,1-3.22-3.13c-.12-1.59,0-3.19,0-4.79Zm4.44.05h0c0-1.37.09-2.75,0-4.11-.06-.53-.62-1-1-1.51-.31.46-.87.91-.88,1.37q-.12,4.33,0,8.69c0,.43.61.85.94,1.28.31-.46.83-.9.87-1.38C170.21,364.05,170.13,362.59,170.13,361.14Z" transform="translate(0 -0.48)"/><path class="cls-7" d="M174.71,353.5h1.77c4.1,0,5.39,1.28,4.47,5.25a11.76,11.76,0,0,0,0,4.27,46.77,46.77,0,0,1,.06,5.57c-1.4.57-2.33.52-2.26-1.38a22.81,22.81,0,0,0-.06-3.88c-.09-.64-.71-1.2-1.09-1.79l-.76.33c0,1.74-.06,3.48,0,5.21.08,1.55-.48,2.14-2.19,1.62Zm2.31,6.35c2.15-.11,1.85-1.56,1.74-2.63a6.32,6.32,0,0,0-1-2l-.7.3Z" transform="translate(0 -0.48)"/><path class="cls-8" d="M41.08,453.34h2.37c2.54,0,3.64.83,3.14,3.25s.26,4.59.07,6.86c-.07.88-.58,2.44-.93,2.45-1.78.05-.89-1.49-1.06-2.38-.23-1.12-.34-2.25-.49-3.38l-1.11.1c0,1.46.09,2.91,0,4.35-.05.51-.62,1-1,1.43-.33-.47-.93-.94-.94-1.42C41.05,461,41.08,457.31,41.08,453.34Z" transform="translate(0 -0.48)"/><path class="cls-7" d="M157.91,353.63c5-.4,6,.09,6.43,3.24.59,4-.33,5.45-4.16,6.27v5.56l-2.27.22Zm2.32,7.06c2,.45,1.84-1.08,1.81-2.06,0-1.21.61-3-1.81-3.24Z" transform="translate(0 -0.48)"/><path class="cls-9" d="M39.14,466.19c-.45-.4-.9-.79-1.33-1.21s-.74-.76-1.1-1.14c-.43.41-.83.85-1.27,1.24s-.94.74-1.4,1.11l-.59-.4,1.77-12.15c2.11-.75,2.79-.07,3,1.87.36,3.4,1,6.77,1.54,10.15Z" transform="translate(0 -0.48)"/><path class="cls-9" d="M25,459.64c0,1.36.1,2.74,0,4.1a2.46,2.46,0,0,1-2.55,2.42c-1.6,0-2.75-.73-2.84-2.34-.14-2.73-.15-5.47,0-8.19.07-1.61,1.15-2.37,2.79-2.37a2.45,2.45,0,0,1,2.68,2.5,35.67,35.67,0,0,1,0,3.87Zm-2.79,4.68c1.46-1.6,1.44-7.8,0-9.33C21.06,456.65,21.07,462.77,22.24,464.32Z" transform="translate(0 -0.48)"/><path class="cls-7" d="M27.12,466.45V453.17c1.64.29,3.6.09,4.47,1s.36,2.77.48,4.22a15.17,15.17,0,0,1,.16,1.64c0,1.69.43,3.77-.38,5C31.18,466,29,465.92,27.12,466.45Zm2-2c2.38-.48,1.51-2.21,1.54-3.39,0-.41-.79-.83-1.54-1.55Zm0-6.25.81.34a6.84,6.84,0,0,0,.66-2.09c0-.6-.54-1.18-.84-1.77l-.63.26Z" transform="translate(0 -0.48)"/><path class="cls-6" d="M162.63,336l2.45,1.81c-.44.36-1.22.7-1.26,1.1a40,40,0,0,0-.06,4.38l.78.29c.38-.54,1-1,1.1-1.64a18,18,0,0,0,.15-3.13l2.41,1.16c0,.61-.11,1.21-.15,1.82-.16,2.47-1.26,3.91-4.22,3.43v5.91h-2.41c0-4.81,0-9.51.05-14.22C161.48,336.57,162.23,336.27,162.63,336Z" transform="translate(0 -0.48)"/><path class="cls-7" d="M17.93,459.72c0,1.3.05,2.6,0,3.89a2.44,2.44,0,0,1-2.45,2.53c-1.47.11-2.74-.57-2.83-2.06a65.94,65.94,0,0,1,0-8.89,2.11,2.11,0,0,1,2.9-1.81,4,4,0,0,1,2.3,2.25C18.22,456.88,17.93,458.35,17.93,459.72Zm-2.62,4.78c1.17-2,1.09-8.07,0-9.52C13.9,456.43,13.83,462.67,15.31,464.5Z" transform="translate(0 -0.48)"/><path class="cls-10" d="M182.56,353.45l4,4.84c0,3,0,6-.14,8.93,0,.59-.76,1.14-1.17,1.7-.43-.55-1.19-1.09-1.21-1.66-.12-3.2,0-6.42-.12-9.62,0-.68-.83-1.3-1.08-2A11,11,0,0,1,182.56,353.45Z" transform="translate(0 -0.48)"/><path class="cls-7" d="M146.68,351.13h-2v-15l2-.24Z" transform="translate(0 -0.48)"/><path class="cls-6" d="M169.68,341.06l3.63,3.21a6.7,6.7,0,0,0-1.26,1.92,13.28,13.28,0,0,0-.05,3l2.65.23c.26,2.06-.45,2.3-5,1.59Z" transform="translate(0 -0.48)"/><path class="cls-7" d="M8.7,462.55l-2.24-5.06.64-4a8.26,8.26,0,0,1,1.79-.12,19.15,19.15,0,0,1,2.43.6L9,455.8v2.05l2.11,1.47-2.13,1.44Z" transform="translate(0 -0.48)"/><path class="cls-11" d="M154.53,386l.62,6.08c-.77-.55-1.54-.82-1.65-1.26a8.66,8.66,0,0,1,.07-2.52l-2.06.51c-.18.84-.36,1.67-.58,2.66-1.23-1.28-1.41-3.33-.59-6.32l1.27,2,.4-1.55,2.45.33Z" transform="translate(0 -0.48)"/><path class="cls-12" d="M201.79,396.59l-2.2,3.21a12.36,12.36,0,0,1-1.21-3.27c-.08-1.19-.68-3.15,1.41-3.14C200.39,393.4,201,395.23,201.79,396.59Z" transform="translate(0 -0.48)"/><path class="cls-8" d="M189.47,362.12l4.47,6.81h-4.47Z" transform="translate(0 -0.48)"/><path class="cls-13" d="M179.87,391.45v-6.2c2.69-.53,2.65,1.21,2.57,2.84S183.09,391.89,179.87,391.45Z" transform="translate(0 -0.48)"/><path class="cls-13" d="M160.51,395.75a7.8,7.8,0,0,1,.29,2.4c-.12.6-.78,1.09-1.2,1.63-.47-.48-1.27-.92-1.35-1.46a11.57,11.57,0,0,1,.07-3.76c.1-.5,1-.85,1.48-1.27.42.74.84,1.49,1.27,2.23Z" transform="translate(0 -0.48)"/><path class="cls-12" d="M156.18,391.34V385l1.35,1.46,1.26-.93v5.89l-1.68-3.13c-.18,1.39-.29,2.25-.39,3.11Z" transform="translate(0 -0.48)"/><path class="cls-14" d="M180.81,377.06c1.89-.33,2.83.48,2.3,1.94s1.54,4.38-2.3,4.36Z" transform="translate(0 -0.48)"/><path class="cls-12" d="M169.15,397.46l2.54-4.61-.15,2.42c2.65-.21,2.39,1.66,2.16,3.32-.06.45-.84.8-1.29,1.19a7.39,7.39,0,0,1-.7-1.48c-.17-.75-.2-1.54-.36-2.93l-2,4.35-.37-.16.23-2.14Z" transform="translate(0 -0.48)"/><path class="cls-12" d="M186.2,383.27l-.92-2.75c-.24,1.09-.41,1.88-.58,2.68h-.65v-5.77l2.63.27Z" transform="translate(0 -0.48)"/><path class="cls-13" d="M179.79,393.51c2.09-.57,2.82.2,2.54,2a29.81,29.81,0,0,1-.77,3.52c-.09.3-.73.74-.87.66-.37-.21-.84-.64-.86-1C179.74,397,179.79,395.24,179.79,393.51Z" transform="translate(0 -0.48)"/><path class="cls-12" d="M160.42,385.24c.19.75.37,1.51.72,2.9l.56-2.79h.41v5.93l-.24.12-.8-2.91-.61,2.86H160v-6.11Z" transform="translate(0 -0.48)"/><path class="cls-10" d="M147.53,386c.57.08,1.64.19,1.64.23-.11,1.74-.31,3.48-.5,5.22l-1.93-.85c-.06-.62-.11-1.23-.16-1.85v-.9Z" transform="translate(0 -0.48)"/><path class="cls-12" d="M200.16,391.38l-1-2.58-.52,2.65H198c0-2,0-4,.09-5.95,0-.17,1.15-.27,1.77-.4Q200,388.24,200.16,391.38Z" transform="translate(0 -0.48)"/><path class="cls-13" d="M175.29,391.93l-1.39-2.62-.61,2.06-.36,0v-6.62l1.55,2.81.36-2.2h.45Z" transform="translate(0 -0.48)"/><path class="cls-12" d="M195.06,385.7c2.55,1.45,1.31,3.85,2.48,5.7-1.33-.06-2.22-1.92-3.28-.12C194.51,389.52,194.77,387.77,195.06,385.7Z" transform="translate(0 -0.48)"/><path class="cls-12" d="M192.69,377c-.65,1.85,2.74,3.13.2,5.45l-.58-2.13-.66,2.37-.72-.12.87-5.58Z" transform="translate(0 -0.48)"/><path class="cls-12" d="M169.62,379.57a15.83,15.83,0,0,1,1.43,2.69c.07.2-.84.89-1.38,1.05-.21.06-.92-.71-1-1.15-.14-1.27-.07-2.56-.09-3.84.06,0,.13,0,.17,0s.11.1.16.14C169.17,378.83,169.4,379.2,169.62,379.57Zm.09,2.81.43,0-.08-1.56-.46,0Z" transform="translate(0 -0.48)"/><path class="cls-13" d="M169.13,388.35c-.39,1.09,1,3.17-1.28,3.15-2,0-1.25-2-1.45-3.21a1.61,1.61,0,0,1,0-.9c.4-.79.89-1.54,1.34-2.3l1.38,2.2-1.55-1.15v4.67c.32-.17.43-.2.44-.24a7,7,0,0,1,.11-1.72C168.21,388.6,168.78,388.51,169.13,388.35Z" transform="translate(0 -0.48)"/><path class="cls-13" d="M175.55,383.13c0-1.76-.07-3.53.08-5.27,0-.27,1.35-.79,1.72-.58,1.29.76.89,2.26-.43,3.44-.55.49-.54,1.62-.78,2.45Z" transform="translate(0 -0.48)"/><path class="cls-12" d="M186.72,390.61c-.13-2-.53-4.11,1.92-5.57V392l-1.18-2.48Z" transform="translate(0 -0.48)"/><path class="cls-13" d="M165.42,382.91l-1.25-1,0-3.8,2.89-1c-.21.9-.39,1.81-.64,2.71S165.75,381.9,165.42,382.91Z" transform="translate(0 -0.48)"/><path class="cls-13" d="M201.72,385.07l2.25,6.46-1.5-.88-1.16.81.07-6.33A1,1,0,0,1,201.72,385.07Z" transform="translate(0 -0.48)"/><path class="cls-13" d="M165.07,398.49c-.15-.93.65-2.19-1.19-2.29a4.82,4.82,0,0,1-.09-2.32c.12-.37,1.11-.47,1.91-.25-.35.32-.71.63-.6.53a30.42,30.42,0,0,1,.82,4.23c0,.44-.73.92-1.13,1.38l-1.29-1.31.37-.43Z" transform="translate(0 -0.48)"/><path class="cls-10" d="M161.75,379.39c.13-1.17-.51-3,1.93-2.12l.24.16,0,.15c-.08.19-.17.37-.26.56l0,4.16.34.45-1.62.52-.63-2.61Z" transform="translate(0 -0.48)"/><path class="cls-12" d="M169.19,397.42c-.74-.16-2-.17-2.11-.52a7.61,7.61,0,0,1,0-3.08c0-.23.78-.6,1.07-.51a1.59,1.59,0,0,1,1,1,25.63,25.63,0,0,1,0,3.16Z" transform="translate(0 -0.48)"/><path class="cls-15" d="M146.58,388.73c0,.62.1,1.23.16,1.85L144,391.63a24.2,24.2,0,0,1-1-3.29,12.37,12.37,0,0,1,.11-2.64l.58-.05c.16,1.66.33,3.31.52,5.19Z" transform="translate(0 -0.48)"/><path class="cls-12" d="M165.9,391.28c-1.18-.88-2-1.14-2.82.88,0-4.28,0-4.33,2.14-4.77Z" transform="translate(0 -0.48)"/><path class="cls-12" d="M191.12,395.57c-.34-.27-1-.6-1-.8a2.33,2.33,0,0,1,.83-1.41c.19-.13,1.2.36,1.2.56a22.32,22.32,0,0,1-.38,3.25c-.12.7-.3,1.38-.56,2.52-.28-.6-.78-1.16-.74-1.67a9.84,9.84,0,0,1,.76-2.34c.05-.32.09-.63.14-.94l-.28,0Z" transform="translate(0 -0.48)"/><path class="cls-14" d="M165.42,382.91c.33-1,.69-2,1-3s.43-1.81.64-2.71c.16,1.8.35,3.6.39,5.41A13.82,13.82,0,0,1,165.42,382.91Z" transform="translate(0 -0.48)"/><path class="cls-13" d="M196.71,377.11v6.26c-1.37.48-1.44-.56-1.45-1.87C195.22,377.1,195.19,377.11,196.71,377.11Z" transform="translate(0 -0.48)"/><path class="cls-13" d="M161.75,379.39v1.27c-1.3-.13-1.3-.13-2.54,2.52,0-1.93-.06-3.86.07-5.79,0-.22,1-.37,1.66-.58l-.77,2.38Z" transform="translate(0 -0.48)"/><path class="cls-13" d="M193.23,385.23v6.47C191.29,389.34,191.6,387.29,193.23,385.23Z" transform="translate(0 -0.48)"/><path class="cls-6" d="M176.84,347.42l2.83,2.61-2.83,1.75Z" transform="translate(0 -0.48)"/><path class="cls-13" d="M187.51,377.28l1.07.42c-.76,1.24,1.07,2.57-.15,3.88-.17.18.4,1.06.69,1.78l-1.66-.12C187.48,381.25,187.5,379.27,187.51,377.28Z" transform="translate(0 -0.48)"/><path class="cls-11" d="M201.38,385.13l-.07,6.33-1.15-.08q-.18-3.15-.35-6.28Z" transform="translate(0 -0.48)"/><path class="cls-13" d="M183.33,396.2l2-.13c-.1,1.05-.22,2.28-.33,3.51l-.87.16Z" transform="translate(0 -0.48)"/><path class="cls-13" d="M198.3,377.22l1.54,3.32-1.54,3.15Z" transform="translate(0 -0.48)"/><path class="cls-12" d="M119.33,452.55c-.23-1.66-.47-3.32-.7-5l.81-.12.64,5.06Z" transform="translate(0 -0.48)"/><path class="cls-16" d="M187.51,377.28c0,2,0,4,0,6l-1.26,0,.48-5.57Z" transform="translate(0 -0.48)"/><path class="cls-16" d="M169.13,388.35c-.35.16-.92.25-1,.5a7,7,0,0,0-.11,1.72s-.12.07-.44.24v-4.67l1.55,1.15Z" transform="translate(0 -0.48)"/><path class="cls-11" d="M117.83,359.78a.7.7,0,0,1-.4.09l-.71-.09-.22-2.7C118.41,357,118.71,357.63,117.83,359.78Z" transform="translate(0 -0.48)"/><path class="cls-15" d="M147.53,386l-.95,1.85L144.9,386l.33-.43Z" transform="translate(0 -0.48)"/><path class="cls-7" d="M163.68,378.14c.09-.19.18-.37.26-.56l.21.56,0,3.8-.17.81-.34-.45Z" transform="translate(0 -0.48)"/><path class="cls-12" d="M190.44,377.29l.63.5-.35.35-.58-.55Z" transform="translate(0 -0.48)"/><path class="cls-17" d="M169.62,379.57c-.22-.37-.45-.74-.68-1.1C169.17,378.85,169.39,379.21,169.62,379.57Z" transform="translate(0 -0.48)"/><path class="cls-11" d="M154.46,385.94l.46-.19-.39.27Z" transform="translate(0 -0.48)"/><path class="cls-7" d="M163.92,377.43l-.24-.16A.21.21,0,0,1,163.92,377.43Z" transform="translate(0 -0.48)"/><path class="cls-15" d="M169.66,502.88q.09-12.57.17-25.15v-3.36c3.54-.89,5.21.25,5.31,3.87.15,5.64.06,11.29.1,16.93,0,.9.17,1.8.26,2.7Z" transform="translate(0 -0.48)"/><path class="cls-16" d="M165.79,338.78a18,18,0,0,1-.15,3.13c-.13.6-.72,1.1-1.1,1.64l-.78-.29a40,40,0,0,1,.06-4.38c0-.4.82-.74,1.26-1.1a.32.32,0,0,0,.28.12l.43.74Z" transform="translate(0 -0.48)"/><path class="cls-6" d="M165.79,338.64l-.43-.74Z" transform="translate(0 -0.48)"/><path class="cls-18" d="M112.34,461.69l.77,2.23q-1.76,1.38,0,2.75c.51,2.57,1,5.13,1.54,7.7-.26,2.19-1.44,2.82-3.51,2.13-.31-.11-.78.25-1.18.39l-4,1.71-2.15.44-1.66-3.63,1.48,0h.46l1.39,1.37.08.1-.1-.09.47-.92.9,0,.12.08-.08-.12c.08-1.31-.52-1.93-1.84-1.82,0-.29,0-.58,0-.88l.42-2c0-.27,0-.55,0-.83l1.9.08c.4,1.53.76,3.07,1.24,4.58.1.33.57.58.92.78.07,0,.57-.37.55-.54a23.33,23.33,0,0,0-.71-3.92c-.13-.42-.94-.63-1.44-.94.11-.91.23-1.83.35-2.74-1.22-1.8-2.74-.35-4.13-.38-1.34-.54-.51-1.5-.46-2.32l1.43-.11,1.84-1-.46.06-.67-.3-.79-.93.54-.95,1-.55h-.94c-.39-.56-1.13-1.15-1.1-1.69a2.26,2.26,0,0,0-2.32-2.5c-1.5,0-2.17-.89-3-1.68,0-.31,0-.62,0-.93l-.63-6.54L97.17,447c-.16-1.26.12-2,1.65-2s1.27-.66.21-1.28l0-.92.88-.43,2.39,0,4.19-.4c-.66-2.64-1.95-3.92-4.22-4.12,0-.11-.08-.22-.12-.33L102,437l-.22.29-1.37.08c.43-1.65,1-3.28,1.26-5,.14-.81.06-2.11-.44-2.47s-1.71,0-2.6.07l-3-1.81-.76-1.37c-.64-1.81-.31-4.07-2.35-5.53l-.35,1.87-.47-1a23.48,23.48,0,0,0,.1-2.65,14.79,14.79,0,0,0-.48-2.25c.45-.69.89-1.38,1.2-1.87l-1.74-2.36A39.37,39.37,0,0,1,89,408.83c-.37-1.29-2.36-2.49-.42-4.11.15-.13-.21-1.12-.55-1.54-.86-1.09-1.84-2.07-2.77-3.1l0-.72c6-1.83,13,.15,15.56,6.66,2.31,5.88,4.68,11.75,7,17.62,1,3.34,2.42,6.53.65,10.19a17.4,17.4,0,0,0-1.4,6.62,29.46,29.46,0,0,0,.75,6.64c.3,1.62.89,3.18,1.34,4.77-.19,1.74-.79,3.58,1.23,4.74q1,2.53,1.91,5.08l-.06.18Zm-15.09-49.8.13-.35-.5,0h-.1c0-.11,0-.21,0-.32l.14-.48.16,0,.12-.54L95.49,409l-.6,1.3c-.91,1.54-.86,2.88.83,3.87h.55L96,414l.78-1.76.28.35.16-.31C97.22,412.13,97.23,412,97.25,411.89Zm-.48,9.34.47.52a15.63,15.63,0,0,0,1,2.52,5.92,5.92,0,0,0,1.48,1.26,46.65,46.65,0,0,0-.57-5.24c-.11-.54-1-.9-1.56-1.34l-.79,1a2.24,2.24,0,0,1-.1.37l-1.14-.4-.31.62,1.57.65ZM105,448.45c-.18-4-.88-5.35-2.63-4.92.42,1.59.83,3.17,1.24,4.76l.5,1.54c.8,2.62,1.55,5.26,2.43,7.85.11.34.87.46,1.79.9-.68-2.26-1.11-3.93-1.68-5.55-.47-1.3-1.11-2.53-1.68-3.79ZM93.27,408.88c1.56-1.88,0-6.06-2.41-7.22a12.37,12.37,0,0,0,.36,1.76C91.84,405.16,92.51,406.89,93.27,408.88Zm3.7,9,.36-.14.54-2.7-2.76.68,1-.54Zm12.89,48.23-.7.19.66,1.89.58-.19ZM96.71,423.77l.39-.31-.76-.91-.35.27Zm3.71,24.05-.33.1.14.74.5-.13Zm10,22.35-.13.15.3.13c0-.06,0-.14,0-.19S110.5,470.2,110.43,470.17Zm.92,3.21-.13.15.29.13c0-.06,0-.15,0-.19S111.41,473.41,111.35,473.38Zm-.18-1.57c0-.06,0-.14-.07-.16s-.11,0-.17.05l.12.24Z" transform="translate(0 -0.48)"/><path class="cls-19" d="M107.83,423.64c-2.34-5.87-4.71-11.74-7-17.62-2.56-6.51-9.55-8.49-15.56-6.66l-3.13.93L79.7,397.4l-1.33,1.41-.37,0-.51-.87-.89,0a8.09,8.09,0,0,0-1.49-.42c-1.13-.08-3-.49-3.27,0-1.11,1.88,1.35,1.78,2,2.77-1.3,1-2.65,2-2.91,3.8,0,.17-.47.28-.73.42l-1-2.9-1.5-1.8.08-.84a1,1,0,0,0-.37-.2c.44-1.46.88-2.92,1.33-4.38a25.67,25.67,0,0,0,2.95-4.25c.31-.69-.41-1.91-.84-2.81-.1-.2-1,0-1.48,0l0,0-.76-1.11c1.33-.33,2.76-1.14,4-.89,1.78.37,3.33,1.87,5.11,2.23a25.49,25.49,0,0,1,11.6,5.05c.25.21.91-.06,1.37-.1l.7,0-1,1.51,3.42,1.84,1-1.08.73,1.8a11.07,11.07,0,0,0,1.26-1.4,4.54,4.54,0,0,0,.4-1.26H98c.53-.57,1.06-1.13,1.6-1.69s1.11-1.1,1.67-1.65l2.11,3.06.27,2.06.5.45.42-.83a3.26,3.26,0,0,0,3.28,2.62c2.46.15,3.33,2.25,4.67,3.7.36.39-.09,1.53-.17,2.33l-.54,1.21L109,400.48l-1.75,1.1a1.15,1.15,0,0,0-.14-.17s-.08,0-.13,0l.3.08a9,9,0,0,1,1.3,1.56,20.84,20.84,0,0,1,.93,2.58c-1.68,0-2.18.64-1.35,2.19.39.71.59,1.52,1,2.19.75,1.17,1.6,2.26,2.41,3.38l1.2,2.37.3,1-.06,0c.62,2.25-.73,3.56-2.28,4.74C109.82,422.31,108.81,423,107.83,423.64Zm2.93-8.7c-1.94,1.53-2.11,3.13-.67,5.58C110.49,418.39,112.55,417.11,110.76,414.94Zm-34.51-20,.62.16c.32-.69,1.08-1.62.86-2-.34-.62-1.34-.87-2.07-1.27l-.47.58Zm1.63.65-.6.29.71,1.07.38-.23Z" transform="translate(0 -0.48)"/><path class="cls-15" d="M73.87,366.76c.48-2.41.9-4.84,1.47-7.23a24.9,24.9,0,0,1,1.32-3.62c1.22-3,3.78-3.67,6.63-3.79a1.81,1.81,0,0,1,1.13.45c1.9,1.61,3.78,3.26,5.65,4.92a3.11,3.11,0,0,1,.81,1c1.79,3.95,4.19,5.59,9.61,4.62h0l.5.41c.07,1.53.14,3.06.22,4.59-.36-.3-1.08-.72-1-.9.5-1.59-.61-1.64-1.6-1.76s-1.81-.12-2.72-.18H91a11.17,11.17,0,0,1,.46,3.18c-.29,1.59.51,1.64,1.64,1.51l0,0c.22,1.82,1.64,1.29,2.74,1.4l4.43,3.8.48-.3-.16-1.64a2,2,0,0,0-.11-.42l.55-.47,0-.57-.53-.93.45-.89c1.77,1.26,1.82,4,0,6.46l1.83.18,2.75,2.57-.09,1h.38l-.27-1-.45-1.76,1.85-3.72,2.39,1.84.32.49c-1,1.29-.23,2.61,0,3.92l-1.79,1-.37.5-1.4.48-1.65-1.3-.46.31.77,2.39-1,.88-.48,0c.15-1.33-.11-2.27-1.78-1.82l-.46-2.76.86-1.7-.51-.3-.87,1.13c-1.88-1.12-3.77-2.2-5.61-3.37-1-.64-1.92-1.51-3-2.1s-2-.75-3-1.21c-2.58-1.2-3.32-3.66-4.06-6.11l0,0a.22.22,0,0,0,0-.35.53.53,0,0,0,0-.2,2.85,2.85,0,0,0-.11-.39c0-.6-.06-1.2,0-1.8.16-3.4-.63-4.14-4.4-3.93l2.16,3.43.12,1.38-3.11-3.42c.08,2,.58,3.29,2.22,3.87l.74,1.39,0,2.05v0l-.85.22-2.56.63L81.14,370c.15.76-.29,2.17,1.39,1.28l.83.07c0,1.95.6,3.25,2.84,3.24a6.21,6.21,0,0,1,1.69.44l-5.84,7.47c-1.92-1.69-5.64,0-7.13-2.94h-3l.54-1.28,2.19-2.86.1-.52-1.51-3.1.15-2.76ZM103.26,380l-.34-.14-.47,1.13.36.14Z" transform="translate(0 -0.48)"/><path class="cls-20" d="M101.79,474.91c-2.93-6.3-5.9-12.58-8.75-18.91-.77-1.71-.88-3.78-1.86-5.32a31.53,31.53,0,0,0-4.45-4.89c-.73-.74-1.59-1.34-2.38-2,.46,0,.94,0,1.4.06.84.12,1.67.28,2.51.42l.2-.67-1.61-2.24-.81.74c-.48-1.21-.85-2.34-1.36-3.4a12.94,12.94,0,0,0-1.28-1.81c.17-.24.54-.6.48-.7-.42-.72-.93-1.38-1.3-1.9l-2.75.28-.53-.45.75-.92-.27-.36-1.23.91.77.35.45,1.85,1.38,1.39-.82.79.47.32.34-1.11,1,1c-.79,1.69.38,2.67,1.3,3.78a9.94,9.94,0,0,1,1,1.69c-4.32-1.93-5.69-6.09-7.15-10-2.1-5.59-3.81-11.32-5.66-17-.21-.64-.31-1.31-.46-2l.39-.17a1.37,1.37,0,0,0,.38.15L74,420.34c.64,2.05,1.28,4.09,1.93,6.14l.88-.29q-1-2.91-2.08-5.82-1-3.09-2-6.18l1-2.14c.61-1.64,1.21-3.28,1.82-4.93l2-.79,1.86,2.15c0,.28,0,.56,0,.85,0,.89-.25,2,1.27,1.87l.12.93-1.33.26v.39l1.22.24.26,4.13,1.43-.51v.81l.93-.68.06,3.61a13.79,13.79,0,0,0,.49,2.59c.5,1.32,1.2,2.57,1.81,3.84a3.27,3.27,0,0,1,0,.44l-1.68.95L87.39,437h.73c.29-.68.57-1.37.89-2,.42-.87.88-1.71,1.32-2.56l.5,1.79c-.34.77-.73,1.52-1,2.31s-.46,1.64-.69,2.47l.77.36L93.06,436l1.49-1.83h.31l.59.15c.6.12,1.61,1,1.2-.69a.46.46,0,0,1,.09-.39l1.49.15L98.09,435l-.87.39.85.52,0,.9a15.74,15.74,0,0,0-1.82.07c-4.24.61-7.12,4.6-6,8.24.13,2.09,1.16,1.4,2.18.71l.62-.3.45.93,0,0-.48,1.08v.78c.79,2.14,1.57,4.27,2.36,6.4.55,1,1.09,2,1.63,3-.08,2.76,3.21,8.68,4.66,9.1.14,1.28.2,2.33.39,3.35a12.59,12.59,0,0,0,.71,1.91l-.73-.18Zm-.57-4.36-.11-.16s-.14.12-.13.13a1.81,1.81,0,0,0,.18.21Z" transform="translate(0 -0.48)"/><path class="cls-21" d="M73.87,366.76c-.16.77-.31,1.53-.46,2.29l-3.23,1.21-2,1c-1.7.68-2.41,1.66-1,3.29l0,.05-.94,2L70,380.2c-1,.37-2.19.49-2.82,1.18A61.23,61.23,0,0,0,63,386.9c-.07.09.15.42.29.59q2.71,3.42,5.47,6.82c-.45,1.46-.89,2.92-1.33,4.38l0,.16L66,400.14,65.5,399q-2.74-6.08-5.5-12.14l-.9-2.91L59,379.2l1.34-4.46A24.25,24.25,0,0,1,73.87,366.76Zm-9.51,23.11-1.11.35,2.08,6.06.85-.27Z" transform="translate(0 -0.48)"/><path class="cls-19" d="M71.46,414.65l-.39.17a6.9,6.9,0,0,1-7.54-1.2,3.41,3.41,0,0,1-1.25-1.89c-.21-2-.17-4-.22-6,3.35,1.27,1.51-2.7,3.55-2.7l1.3-1,.06-.86.42,0,.92.45c0,.05-.13.11-.12.15a2,2,0,0,0,.12.34l0,0,.07,3.13-.56,3.07-1.49.91-1.67-.69,1.34-.77-1.74-.16-.83-.31.75,1.26,1.37,1.79h0a.38.38,0,0,0-.26.34l1.57,1.89,2.45.5,2.22.12Z" transform="translate(0 -0.48)"/><path class="cls-16" d="M93.59,337.13l-4.33,5.93S89,343,89,343c-.49-2.61-.81-5.06-3.14-7.12-1.75-1.56-.75-4.26,0-6.44.07-.2.63-.39.9-.33a2,2,0,0,1,1.06.63c.83,1,1.56,2.17,2.38,3.22C91.36,334.43,92.59,335.91,93.59,337.13Z" transform="translate(0 -0.48)"/><path class="cls-7" d="M106.85,373.63,105,377.35l-2.32-.8-1.83-.18c1.85-2.41,1.8-5.2,0-6.46l.36-1.81c-.08-1.53-.15-3.06-.22-4.59h.54a10.48,10.48,0,0,1,5.67,8.2Z" transform="translate(0 -0.48)"/><path class="cls-11" d="M110.94,384.06c.58,1,1.47,1.89,1.67,2.94a20.47,20.47,0,0,1,.11,5,2.38,2.38,0,0,1-1,1.65,4.18,4.18,0,0,1-5.91-2.08,17.29,17.29,0,0,0-1-1.58l-.38,2.27-1.3-4.88c1.27.62,2.77,1,3.74,1.94s1.69,1.05,2.67.26l1.32-1.32-.09-4.18Z" transform="translate(0 -0.48)"/><path class="cls-22" d="M110,476.89c.4-.14.87-.5,1.18-.39,2.07.69,3.25.06,3.51-2.13,1.3,2.64,2.19,5.35,1.36,8.34-.33-.38-.65-.77-1-1.13-1.05-1.1-1.27-.4-1.34.63l-3.21-1.79-.48-3.19A.5.5,0,0,1,110,476.89Z" transform="translate(0 -0.48)"/><path class="cls-23" d="M106.85,373.63l.38-1.91,1.8-3.93,1-.09v-.05L110,369l0,1.14.15.56,1,2c-2,1.39.37,2.49.25,3.76l0,.8-.46.93-.43,1.54-1,.15c-.18-1.31-.92-2.63,0-3.92-.1-.17-.21-.33-.32-.49Z" transform="translate(0 -0.48)"/><path class="cls-16" d="M116.05,376.66a1.77,1.77,0,0,1,.32.21l.95,1.29c0,.32-.12.88,0,.91a5.31,5.31,0,0,0,1.33.16c.48,4.34,0,5.83-2,6.65-.73-1.38-1.51-2.67-2.11-4.05a8.75,8.75,0,0,1-.34-2.26h0l1-.5.44-.05v-2.12Z" transform="translate(0 -0.48)"/><path class="cls-13" d="M103.15,387.39l1.3,4.88.2,1-.22.19-1,.11-2.11-3.06a7.08,7.08,0,0,0,.28-2.2c-.19-1.08-.64-2.17-2.06-1l-1-1.7,2.74-2.31,1.89.89.48,0Z" transform="translate(0 -0.48)"/><path class="cls-19" d="M115.52,376.91V379l-.44.05-1,.5h0l-3.67.16.43-1.54c.16-.31.31-.62.46-.93l0-.8c1.35-.56,1.18-1.42.48-2.39l-.43-3.29-.06-.2.49-.63c.43.28,1.15.48,1.25.85.46,1.75.75,3.55,1.17,5.66Z" transform="translate(0 -0.48)"/><path class="cls-11" d="M109,367.79l-1.8,3.93a10.48,10.48,0,0,0-5.67-8.2c2.61-1.2,3.82.86,5.31,2.27l.87.92Z" transform="translate(0 -0.48)"/><path class="cls-15" d="M56.47,410.72a14.4,14.4,0,0,1,.26-2.19c.4-1.42,1-2.8,1.34-4.23.46-1.87,1.13-2.14,3-1-.51,1.56-1,3.12-1.54,4.69Z" transform="translate(0 -0.48)"/><path class="cls-14" d="M107.28,401.58l1.75-1.1,2.81,4.58.54-1.21c1.42,1.26.3,2.47-.07,3.69l-1.06-.81-.22.43,1.3.36-1.28.94c-.51-.93-1-1.86-1.51-2.79a20.84,20.84,0,0,0-.93-2.58,9,9,0,0,0-1.3-1.56Zm4.15,3.95v-.12l-.13,0Z" transform="translate(0 -0.48)"/><path class="cls-24" d="M113.7,482.21c.07-1,.29-1.73,1.34-.63.34.36.66.75,1,1.13l0,0c.12.17.23.34.35.5l1.19,1.11a16.67,16.67,0,0,1-3,1.61,11.29,11.29,0,0,1-3,.07l-.61-.64.32-.66C112.16,483.94,114,484.13,113.7,482.21Z" transform="translate(0 -0.48)"/><path class="cls-21" d="M103.78,479l2.15-.44,1.31,3.69-.06,1.26-.36.37-.94.64,0,.8c-.15,0-.36.12-.44.05C104.17,484.49,103.16,480.51,103.78,479Z" transform="translate(0 -0.48)"/><path class="cls-15" d="M60,386.83q2.76,6.06,5.5,12.14c-.55-.13-1.46-.11-1.59-.42-1.45-3.44-2.79-6.92-4.1-10.41C59.67,387.78,59.93,387.27,60,386.83Z" transform="translate(0 -0.48)"/><path class="cls-12" d="M115.52,376.91l-1.2-.45c-.42-2.11-.71-3.91-1.17-5.66-.1-.37-.82-.57-1.25-.85h-.75l0,0,.24-1.43a2.29,2.29,0,0,0,0-.37c.37,0,.92-.06,1.08.15,1.89,2.47,3.9,4.9,3.56,8.33Z" transform="translate(0 -0.48)"/><path class="cls-13" d="M56.47,410.72l3-2.76c0,1.23.09,2.46.14,3.7l-2.93,2.1.28.59-.35-1.51-.28,0v2C54.62,413.45,55.52,412.09,56.47,410.72Z" transform="translate(0 -0.48)"/><path class="cls-12" d="M98.05,346.09l1.55-3.68,3.24,3.15c-1,.78-.9,2.81-2.87,2.41C100.31,346.35,99.48,345.92,98.05,346.09Z" transform="translate(0 -0.48)"/><path class="cls-17" d="M109.54,405.67c.5.93,1,1.86,1.51,2.79l.57,2.73v2.24c-.81-1.12-1.66-2.21-2.41-3.38-.43-.67-.63-1.48-1-2.19C107.36,406.31,107.86,405.64,109.54,405.67Z" transform="translate(0 -0.48)"/><path class="cls-22" d="M110.92,485.32l.61.64v1.82a12.77,12.77,0,0,1-3.46.63c-.9-.05-1.74-.89-2.61-1.37l.87-1.13.85,0c1,1.59,1.43.42,1.93-.4Z" transform="translate(0 -0.48)"/><path class="cls-17" d="M56.36,414.89v-2l.28,0,.35,1.51-.28-.59,2.93-2.1c1.34,1,.27,2-.16,2.9a6.85,6.85,0,0,1-1.93,2c-.27.23-.81.12-1.23.17Z" transform="translate(0 -0.48)"/><path class="cls-10" d="M111.41,368.18a2.29,2.29,0,0,1,0,.37l-1.43-.9v.05c-.17-.66-.35-1.31-.5-1.86l-2.14-1.4,1.49-1.62C111.58,364,111.23,366.18,111.41,368.18Z" transform="translate(0 -0.48)"/><path class="cls-13" d="M98.05,346.09c1.43-.17,2.26.26,1.92,1.88v0l-.5,1.88,0,0-1-.45L95,346.62l-.15-.13v-.76a3.11,3.11,0,0,1,.28-.23Z" transform="translate(0 -0.48)"/><path class="cls-22" d="M101.79,474.91l.3-3,.73.18.69-.12,1.45,1.11c0,.3,0,.59,0,.88l.9,1.84-.47.92h0l-1.39-1.37h-.46l-1.48,0Z" transform="translate(0 -0.48)"/><path class="cls-11" d="M59,379.2l.12,4.72c-1.11-2.25-2.22-4.51-3.34-6.76l.47-.28Z" transform="translate(0 -0.48)"/><path class="cls-17" d="M117.6,401.39c.07,2.48-1.23,4.1-3,4.13l.36-4.25,1.82,1.61Z" transform="translate(0 -0.48)"/><path class="cls-16" d="M66.91,402l-1.3,1c-2,0-.2,4-3.55,2.7q1.72-2.36,3.46-4.69l1,.07Z" transform="translate(0 -0.48)"/><path class="cls-14" d="M111.62,413.43v-2.24a15.51,15.51,0,0,1,2.32,3.25c.24.59-.55,1.6-.88,2.42l.06,0-.3-1Z" transform="translate(0 -0.48)"/><path class="cls-13" d="M90.83,348.36l2.59-1.23.21-.24,1.19-.4.15.13c.16.78.33,1.55.6,2.83l-4.74-.56Z" transform="translate(0 -0.48)"/><path class="cls-16" d="M95.18,351.47a21.41,21.41,0,0,1,2.91.29,1.47,1.47,0,0,1,.94,1,1.44,1.44,0,0,1-.87,1.11,2.1,2.1,0,0,1-1.55-.5A10,10,0,0,1,95.18,351.47Z" transform="translate(0 -0.48)"/><path class="cls-17" d="M90.83,348.36v.53c-.23.46-.46.93-.68,1.4-.51-.42-1.47-.88-1.44-1.26.06-.69.7-1.33,1.3-2.33Z" transform="translate(0 -0.48)"/><path class="cls-20" d="M110.4,456.6c-2-1.16-1.42-3-1.23-4.74Z" transform="translate(0 -0.48)"/><path class="cls-6" d="M107.73,381.4c1.73.09,3.21.48,3.21,2.66l-.15,0-3.06-2.69Z" transform="translate(0 -0.48)"/><path class="cls-13" d="M94.81,345.73c-1.88-.6-1.77-1.46-.21-3.1.23,1.33.36,2.1.49,2.87A3.11,3.11,0,0,0,94.81,345.73Z" transform="translate(0 -0.48)"/><path class="cls-11" d="M117.29,360.3l.33,3.25-.6.07c-.09-1.11-.17-2.22-.26-3.34Z" transform="translate(0 -0.48)"/><path class="cls-12" d="M99.48,349.81l.5-1.88,1.35.69C100.29,350.55,100.29,350.55,99.48,349.81Z" transform="translate(0 -0.48)"/><path class="cls-20" d="M113.13,466.67q-1.77-1.37,0-2.75Z" transform="translate(0 -0.48)"/><path class="cls-25" d="M107.18,486l-.85,0-.47-.55,0-.8.29,0h.71a1.13,1.13,0,0,0,.32,0l1,.24,0-.05Z" transform="translate(0 -0.48)"/><path class="cls-12" d="M66.47,401.1l-1-.07c.14-.3.29-.59.44-.89l1.44-1.29h.21l.19.05c0,.28,0,.56-.08.84s-.21.64-.32,1a1.33,1.33,0,0,0-.45.07Z" transform="translate(0 -0.48)"/><path class="cls-14" d="M113.3,408.69l-.53,1.49-.45-.13.34-1.64Z" transform="translate(0 -0.48)"/><path class="cls-12" d="M117.32,378.16l-.95-1.29,1.56.87Z" transform="translate(0 -0.48)"/><path class="cls-10" d="M107.74,366.71l-.87-.92Z" transform="translate(0 -0.48)"/><path class="cls-11" d="M100.52,363.1h0l0,0Z" transform="translate(0 -0.48)"/><path class="cls-2" d="M115.85,449.61v.76h-.16v-.76Z" transform="translate(0 -0.48)"/><path class="cls-13" d="M104.6,395.2l-.42.83-.5-.45Z" transform="translate(0 -0.48)"/><path class="cls-13" d="M93.42,347.13,93,346.8l.65.09Z" transform="translate(0 -0.48)"/><polygon class="cls-12" points="103.15 346.69 103.15 346.85 102.98 346.77 103.15 346.69"/><path class="cls-12" d="M98.45,349.33l1,.45Z" transform="translate(0 -0.48)"/><path class="cls-13" d="M104.65,393.22l.14.55-.36-.36Z" transform="translate(0 -0.48)"/><polygon class="cls-17" points="89.57 350.41 89.69 350.38 89.67 350.48 89.57 350.41"/><path class="cls-20" d="M112.34,461.69l-.09.17.06-.18Z" transform="translate(0 -0.48)"/><path class="cls-6" d="M107.35,381.4l.37-.5c0,.17,0,.33,0,.5h-.38Z" transform="translate(0 -0.48)"/><path class="cls-22" d="M116.34,483.17c-.12-.16-.23-.33-.35-.5C116.11,482.84,116.22,483,116.34,483.17Z" transform="translate(0 -0.48)"/><path class="cls-2" d="M120.29,402.26l.06-.55.29.24Z" transform="translate(0 -0.48)"/><path class="cls-2" d="M117.29,360.3l-.53,0c0-.17,0-.33,0-.5l.71.09A3.09,3.09,0,0,0,117.29,360.3Z" transform="translate(0 -0.48)"/><path class="cls-15" d="M133.27,485.86V474.19c4.21-.56,5.09.16,5.18,4.17,0,1.21,0,2.43,0,3.65C138.26,485.87,137.36,486.55,133.27,485.86Z" transform="translate(0 -0.48)"/><path class="cls-19" d="M170.13,361.14c0,1.45.08,2.91,0,4.34,0,.48-.56.92-.87,1.38-.33-.43-.93-.85-.94-1.28q-.14-4.35,0-8.69c0-.46.57-.91.88-1.37.34.5.9,1,1,1.51.13,1.36,0,2.74,0,4.11Z" transform="translate(0 -0.48)"/><path class="cls-16" d="M177,359.85v-4.36l.7-.3a6.32,6.32,0,0,1,1,2C178.87,358.29,179.17,359.74,177,359.85Z" transform="translate(0 -0.48)"/><path class="cls-16" d="M160.23,360.69v-5.3c2.42.24,1.79,2,1.81,3.24C162.07,359.61,162.23,361.14,160.23,360.69Z" transform="translate(0 -0.48)"/><path class="cls-16" d="M22.24,464.32c-1.17-1.55-1.18-7.67,0-9.33C23.68,456.52,23.7,462.72,22.24,464.32Z" transform="translate(0 -0.48)"/><path class="cls-16" d="M29.09,464.49v-4.94c.75.72,1.54,1.14,1.54,1.55C30.6,462.28,31.47,464,29.09,464.49Z" transform="translate(0 -0.48)"/><path class="cls-11" d="M29.07,458.24V455l.63-.26c.3.59.82,1.17.84,1.77a6.84,6.84,0,0,1-.66,2.09Z" transform="translate(0 -0.48)"/><path class="cls-16" d="M15.31,464.5c-1.48-1.83-1.41-8.07,0-9.52C16.4,456.43,16.48,462.49,15.31,464.5Z" transform="translate(0 -0.48)"/><path class="cls-19" d="M169.71,382.38l-.11-1.56.46,0,.08,1.56Z" transform="translate(0 -0.48)"/><path class="cls-23" d="M163.68,378.14l0,4.16C163.66,380.91,163.67,379.53,163.68,378.14Z" transform="translate(0 -0.48)"/><path class="cls-2" d="M191.12,395.57v-.85l.28,0c-.05.31-.09.62-.14.94Z" transform="translate(0 -0.48)"/><path class="cls-26" d="M83.33,416.77l-.93.68v-.81l.12-.86h2.36l-3.3-3.22-.77-.44-.12-.93h1.37l2.29-1.37,2.92,1.78-.29.54,1.61-.21c.15,1.17-2.33,1-1,2.48l.43,1.41,1.48,1.23.77-.35,0,0,1,.62a14.79,14.79,0,0,1,.48,2.25,23.48,23.48,0,0,1-.1,2.65L89,424.06l-.49-.63-.15.16.64.47,0,.89h0l-2.29.86-.93,1c-.61-1.27-1.31-2.52-1.81-3.84a13.79,13.79,0,0,1-.49-2.59,5.94,5.94,0,0,0,1.22-.57,15.26,15.26,0,0,0,1.46-1.44A21,21,0,0,0,84.41,417,3.3,3.3,0,0,0,83.33,416.77Zm3.06,7-.33-.28L85,424.66l.43.35Z" transform="translate(0 -0.48)"/><path class="cls-27" d="M90.26,445.16c-1.15-3.64,1.73-7.63,6-8.24a15.74,15.74,0,0,1,1.82-.07l2.32.49,1.37-.08a.52.52,0,0,0,.38.19c0,.11.07.22.12.33l1.59,2.61-2.09,1.45-1.86.5-.88.43-1.44.35a.52.52,0,0,0-.36.13l-.47,0-2.64.83.08-.14s0,0,0,0l-.11.13c.11.21.21.42.31.63l-.76-.52-.52.1-1.78.84Z" transform="translate(0 -0.48)"/><path class="cls-28" d="M89.49,417.05,88,415.82c-.14-.47-.29-.94-.43-1.41-1.32-1.52,1.16-1.31,1-2.48l-1.61.21.29-.54-2.92-1.78h0v-.93h0l.45-.9,0,0,.15-2.42,1-.37-.71-.17c-.11-1.19-.19-2.38-.36-3.57,0-.22-.43-.38-.66-.57l1-.79c.93,1,1.91,2,2.77,3.1.34.42.7,1.41.55,1.54-1.94,1.62,0,2.82.42,4.11a39.37,39.37,0,0,0,1.73,4.22c-2.14.95-1.91,2.2-.45,3.61l0,0Z" transform="translate(0 -0.48)"/><path class="cls-27" d="M103.51,472l-.69.12a12.59,12.59,0,0,1-.71-1.91c-.19-1-.25-2.07-.39-3.35-1.45-.42-4.74-6.34-4.66-9.1,1.34-.59,2.24-.36,2.5,1.26a4.66,4.66,0,0,0,.58,1.16l.87,1.92c.12.14.25.28.38.41l1.35,1.87.41.44a.57.57,0,0,0,.33.11l.07-.07c0,.82-.88,1.78.46,2.32l1.15,2.49c0,.07-.06.16,0,.22a2.71,2.71,0,0,0,.21.37l0,.83Z" transform="translate(0 -0.48)"/><path class="cls-25" d="M100.14,460.19a4.66,4.66,0,0,1-.58-1.16c-.26-1.62-1.16-1.85-2.5-1.26-.54-1-1.08-2-1.63-3,1.24-.16,2.2,1.87,3.6.47.88.79,1.55,1.66,3,1.68a2.26,2.26,0,0,1,2.32,2.5c0,.54.71,1.13,1.1,1.69l-.06.55-.54.95-1.29-.05h0l-.45-.43h-.51l-.45.43-.82,0c-.13-.13-.26-.27-.38-.41l.82-.64Z" transform="translate(0 -0.48)"/><path class="cls-29" d="M107.24,482.29l-1.31-3.69,4-1.71a.5.5,0,0,0,0,.34,4.63,4.63,0,0,0-.88.69c-.45.58-1.31,1.47-1.14,1.78a1.57,1.57,0,0,0,2.5.72l3.21,1.79c.29,1.92-1.54,1.73-2.45,2.45a1.3,1.3,0,0,1-.3-.32l-1.41-1.66-.22-.79-.93.36Z" transform="translate(0 -0.48)"/><path class="cls-29" d="M100.37,437.34l-2.32-.49,0-.9,0-.91c0-.57.09-1.13.14-1.69h0c2-.92,1-2.17.35-3.36h0c.89-.06,2-.47,2.6-.07s.58,1.66.44,2.47C101.35,434.06,100.8,435.69,100.37,437.34Z" transform="translate(0 -0.48)"/><path class="cls-25" d="M97.17,447l1.25.76.63,6.54-1.49-.56-.75-.7-1.1-.94,1.3-1.66-2.11-1.2c.16-1.06.31-2.13.47-3.19Z" transform="translate(0 -0.48)"/><path class="cls-29" d="M105,449.24c.57,1.26,1.21,2.49,1.68,3.79.57,1.62,1,3.29,1.68,5.55-.92-.44-1.68-.56-1.79-.9-.88-2.59-1.63-5.23-2.43-7.85Z" transform="translate(0 -0.48)"/><path class="cls-24" d="M94.9,449.22l2.11,1.2-1.3,1.66,1.1.94,0-.07-.62.51.53.38.89-.12,1.49.56c0,.31,0,.62,0,.93-1.4,1.4-2.36-.63-3.6-.47-.79-2.13-1.57-4.26-2.36-6.4l1.76.36Z" transform="translate(0 -0.48)"/><path class="cls-30" d="M94.83,426.8c.25.46.5.92.76,1.37,0,.61.11,1.21.17,1.82a15.11,15.11,0,0,1-1.43-1.34c-.49-.58-.69-1.89-1.73-.49h0c-2.06-.38-2.17-1.39-.92-2.7l-2.77-.52h0C91.36,424.1,93.27,424.89,94.83,426.8Z" transform="translate(0 -0.48)"/><path class="cls-26" d="M101.74,441.84l2.09-1.45-1.59-2.61c2.27.2,3.56,1.48,4.22,4.12l-4.19.4Z" transform="translate(0 -0.48)"/><path class="cls-25" d="M94.83,426.8c-1.56-1.91-3.47-2.7-5.9-1.85l0-.89h0l2.7-1.88.47,1,.35-1.87C94.52,422.73,94.19,425,94.83,426.8Z" transform="translate(0 -0.48)"/><path class="cls-28" d="M97.56,419c.54.44,1.45.8,1.56,1.34a46.65,46.65,0,0,1,.57,5.24,5.92,5.92,0,0,1-1.48-1.26,15.63,15.63,0,0,1-1-2.52l-.47-.52,0,0-.12-.87a2.24,2.24,0,0,0,.1-.37Z" transform="translate(0 -0.48)"/><path class="cls-30" d="M93.27,408.88c-.76-2-1.43-3.72-2-5.46a12.37,12.37,0,0,1-.36-1.76C93.32,402.82,94.83,407,93.27,408.88Z" transform="translate(0 -0.48)"/><path class="cls-22" d="M97.17,447l-1.8-1-1.25-.91a1.25,1.25,0,0,0,.2-.4l-.3-.63.07,0,2.64-.83.15.38.32-.41a.52.52,0,0,1,.36-.13l1.47.57c1.06.62,1.33,1.26-.21,1.28S97,445.72,97.17,447Z" transform="translate(0 -0.48)"/><path class="cls-22" d="M85.27,400.08c-.34.27-.69.53-1,.79-1.64.68-3.42,1.22-3.55,3.45l-1.33-.45,0-1.35,2.75-2.23,3.13-.93C85.26,399.6,85.26,399.84,85.27,400.08Z" transform="translate(0 -0.48)"/><path class="cls-24" d="M90.29,416.66c-1.46-1.41-1.69-2.66.45-3.61l1.74,2.36c-.31.49-.75,1.18-1.2,1.87Z" transform="translate(0 -0.48)"/><path class="cls-29" d="M103.62,448.29c-.41-1.59-.82-3.17-1.24-4.76,1.75-.43,2.45.92,2.63,4.92Z" transform="translate(0 -0.48)"/><path class="cls-28" d="M107.79,470.31c.5.31,1.31.52,1.44.94a23.33,23.33,0,0,1,.71,3.92c0,.17-.48.58-.55.54-.35-.2-.82-.45-.92-.78-.48-1.51-.84-3.05-1.24-4.58Z" transform="translate(0 -0.48)"/><path class="cls-28" d="M105.16,469.68,104,467.19c1.39,0,2.91-1.42,4.13.38Z" transform="translate(0 -0.48)"/><path class="cls-25" d="M105.16,469.68l3-2.11c-.12.91-.24,1.83-.35,2.74l-.56,0-1.9-.08a2.71,2.71,0,0,1-.21-.37C105.1,469.84,105.15,469.75,105.16,469.68Z" transform="translate(0 -0.48)"/><path class="cls-30" d="M96.75,412.2,96,414a.47.47,0,0,0-.25.21c-1.69-1-1.74-2.33-.83-3.87l1.37.93v0l.52.36h.09c0,.2-.06.39-.1.59Z" transform="translate(0 -0.48)"/><path class="cls-22" d="M97,417.88l-.9-2.7-1,.54,2.76-.68-.54,2.7Z" transform="translate(0 -0.48)"/><path class="cls-21" d="M95.76,430c-.06-.61-.12-1.21-.17-1.82l3,1.81h0l-2.18,1.39Z" transform="translate(0 -0.48)"/><path class="cls-30" d="M103.61,462.53l1.29.05.79.93c-.24.42-.48.83-.71,1.25l-1.43.11-.07.07C103.53,464.14,103.57,463.33,103.61,462.53Z" transform="translate(0 -0.48)"/><path class="cls-22" d="M96.26,411.23l-1.37-.93.6-1.3,1.7,1.25-.12.54-.16,0a1.17,1.17,0,0,1-.3-.19.67.67,0,0,0-.28,0Z" transform="translate(0 -0.48)"/><path class="cls-20" d="M105.9,475.84,105,474c1.32-.11,1.92.51,1.84,1.82l0,0Z" transform="translate(0 -0.48)"/><path class="cls-20" d="M109.86,466.11l.54,1.89-.58.19-.66-1.89Z" transform="translate(0 -0.48)"/><path class="cls-20" d="M103.51,472l1.87-.91-.42,2Z" transform="translate(0 -0.48)"/><path class="cls-20" d="M101.74,441.84l.53.46-2.39,0Z" transform="translate(0 -0.48)"/><path class="cls-20" d="M99,443.69l-1.47-.57,1.44-.35Z" transform="translate(0 -0.48)"/><path class="cls-22" d="M96.67,420.34l.12.87-1.57-.65.31-.62Z" transform="translate(0 -0.48)"/><path class="cls-22" d="M96.71,423.77l-.72-.95.35-.27.76.91Z" transform="translate(0 -0.48)"/><path class="cls-28" d="M105,464.76c.23-.42.47-.83.71-1.25l.67.3.46-.06Z" transform="translate(0 -0.48)"/><path class="cls-20" d="M103.62,448.29l1.39.16,0,.79-.86.59Z" transform="translate(0 -0.48)"/><path class="cls-20" d="M105.44,461.63l.06-.55h.94Z" transform="translate(0 -0.48)"/><path class="cls-20" d="M100.42,447.82l.31.71-.5.13-.14-.74Z" transform="translate(0 -0.48)"/><path class="cls-20" d="M110.43,470.17c.07,0,.15,0,.18.09s0,.13,0,.19l-.3-.13Z" transform="translate(0 -0.48)"/><path class="cls-20" d="M111.35,473.38c.06,0,.15,0,.18.09s0,.13,0,.19l-.29-.13Z" transform="translate(0 -0.48)"/><path class="cls-22" d="M97.56,419l-.79,1Z" transform="translate(0 -0.48)"/><path class="cls-20" d="M111.17,471.81l-.12.13-.12-.24c.06,0,.12-.06.17-.05S111.15,471.75,111.17,471.81Z" transform="translate(0 -0.48)"/><path class="cls-21" d="M97.19,412.24l-.16.31-.28-.35,0-.05Z" transform="translate(0 -0.48)"/><path class="cls-22" d="M96.77,421.23l.47.52Z" transform="translate(0 -0.48)"/><path class="cls-25" d="M95.72,414.17A.47.47,0,0,1,96,414l.3.2Z" transform="translate(0 -0.48)"/><path class="cls-25" d="M102.12,437.45a.52.52,0,0,1-.38-.19L102,437Z" transform="translate(0 -0.48)"/><path class="cls-20" d="M106.82,463.75l-.46.06Z" transform="translate(0 -0.48)"/><path class="cls-25" d="M97.07,410.79l.12-.54Z" transform="translate(0 -0.48)"/><path class="cls-25" d="M96.26,411.23c0-.21,0-.42.07-.62a1.33,1.33,0,0,0,.28,0,1.17,1.17,0,0,0,.3.19c0,.16-.09.32-.14.48l-.51,0Z" transform="translate(0 -0.48)"/><path class="cls-22" d="M96.26,411.21l.51,0c0,.11,0,.21,0,.32Z" transform="translate(0 -0.48)"/><path class="cls-20" d="M103.6,475.38h0Z" transform="translate(0 -0.48)"/><polygon class="cls-20" points="106.84 475.34 106.92 475.46 106.8 475.38 106.84 475.34"/><polygon class="cls-22" points="105.43 476.28 105.53 476.37 105.44 476.27 105.43 476.28"/><path class="cls-25" d="M96.88,411.56l.5,0a3.62,3.62,0,0,0-.13.35Z" transform="translate(0 -0.48)"/><path class="cls-22" d="M97.19,412.24l-.42-.09c0-.2.07-.39.1-.59h0l.37.33C97.23,412,97.22,412.13,97.19,412.24Z" transform="translate(0 -0.48)"/><path class="cls-6" d="M101.26,383.24l-2.74,2.31-4.62-.93L95,383.27c.36-1.88-1-1.24-1.92-1.34l-.81-3c-3.41,1.52-5,4.87-3.42,7l3.28-2.65c-.61,1.27-1.22,2.53-1.84,3.79l1.46,1.68-.07,2.78v0l-1,.9c-.46,0-1.12.31-1.37.1a25.49,25.49,0,0,0-11.6-5.05c-1.78-.36-3.33-1.86-5.11-2.23-1.21-.25-2.64.56-4,.89.26.37.51.74.76,1.12-.05.12-.08.23-.06.15,0,.09,0,0,0-.13.51,0,1.38-.17,1.48,0,.43.9,1.15,2.12.84,2.81a25.67,25.67,0,0,1-2.95,4.25q-2.74-3.4-5.47-6.82c-.14-.17-.36-.5-.29-.59a61.23,61.23,0,0,1,4.2-5.52c.63-.69,1.87-.81,2.82-1.18l1.92-.63h3c1.49,2.9,5.21,1.25,7.13,2.94L87.89,375c0-.47.24-1.06,0-1.38a5.17,5.17,0,0,0-4.57-2.3l-.83-.07-.9-1.36,3-1-2.2-1c0-.68,0-1.36,0-2.05h1l.06,0,1.32,0c.74,2.45,1.48,4.91,4.06,6.11,1,.46,2,.69,3,1.21s1.94,1.46,3,2.1c1.84,1.17,3.73,2.25,5.61,3.37l.52.87.46,2.76Z" transform="translate(0 -0.48)"/><path class="cls-13" d="M79.37,402.52l0,1.35-1.37.49-1.83,0c-1.93-.8-3.31.26-4.67,1.37l-1.29-1.28c.26-.14.7-.25.73-.42.26-1.83,1.61-2.79,2.91-3.8.9.07,1.94.48,2.67.16C78.92,399.32,79.24,400.71,79.37,402.52Z" transform="translate(0 -0.48)"/><path class="cls-17" d="M70.19,404.43l1.29,1.28,1.26,2.5a6.21,6.21,0,0,0-2,1.1,15,15,0,0,0-1.57,2.81l-2.31.38-1.57-1.89a.88.88,0,0,0,.26-.34h0l.78-1.12c.5-.3,1-.61,1.49-.9.86.52,1.64.8,1.33-.72a18.06,18.06,0,0,0-.77-2.36c0-1.05,0-2.09-.07-3.13l.93-.5Z" transform="translate(0 -0.48)"/><path class="cls-17" d="M79.37,402.52c-.13-1.81-.45-3.2-2.87-2.15-.73.32-1.77-.09-2.67-.16-.64-1-3.1-.89-2-2.77.28-.47,2.14-.06,3.27,0a8.09,8.09,0,0,1,1.49.42l.89,0,.51.87.37,0,1.33-1.41,2.42,2.89Z" transform="translate(0 -0.48)"/><path class="cls-9" d="M94.91,394.66l-1,1.08-3.42-1.84c.35-.54.65-1,1-1.51.09-.3.17-.61.26-.92v0l.93-1.67,1.82,1.37,1.91-2.86,1.94-1v1.41l-1.08,2.78Z" transform="translate(0 -0.48)"/><path class="cls-10" d="M99.52,387.25c1.42-1.16,1.87-.07,2.06,1a7.08,7.08,0,0,1-.28,2.2c-.56.55-1.12,1.09-1.67,1.65s-1.07,1.12-1.6,1.69c.52-1.4,1-2.8,1.57-4.2-.07-.6-.13-1.2-.19-1.81Zm1,1.79h.16v-.67h-.16Z" transform="translate(0 -0.48)"/><path class="cls-10" d="M94.91,394.66l2.28-3.17.11,2.31a4.54,4.54,0,0,1-.4,1.26,11.07,11.07,0,0,1-1.26,1.4Z" transform="translate(0 -0.48)"/><path class="cls-11" d="M110.76,414.94c1.79,2.17-.27,3.45-.67,5.58C108.65,418.07,108.82,416.47,110.76,414.94Z" transform="translate(0 -0.48)"/><path class="cls-23" d="M76.25,394.92l-1.06-2.55.47-.58c.73.4,1.73.65,2.07,1.27.22.4-.54,1.33-.86,2Z" transform="translate(0 -0.48)"/><path class="cls-11" d="M97.3,393.8l-.11-2.31,1.08-2.78h.64l.69.88L98,393.8Z" transform="translate(0 -0.48)"/><path class="cls-11" d="M69.22,401.53l-.93.5,0,0v-.49l-.92-.45a3.05,3.05,0,0,1,0-.43c.11-.32.22-.64.32-1Z" transform="translate(0 -0.48)"/><path class="cls-11" d="M77.88,395.57l.49,1.13-.38.23-.71-1.07Z" transform="translate(0 -0.48)"/><path class="cls-23" d="M91.68,391.47c-.09.31-.17.62-.26.92l-.7,0Z" transform="translate(0 -0.48)"/><path class="cls-3" d="M112.82,415.8l.3,1Z" transform="translate(0 -0.48)"/><path class="cls-11" d="M77.49,397.92l-.89,0Z" transform="translate(0 -0.48)"/><path class="cls-11" d="M67.8,398.89l-.19-.05H67.4l0-.16A1,1,0,0,1,67.8,398.89Z" transform="translate(0 -0.48)"/><path class="cls-11" d="M78.37,398.81l-.37,0Z" transform="translate(0 -0.48)"/><path class="cls-14" d="M107.31,401.53l-.3-.08s.11-.05.13,0a1.15,1.15,0,0,1,.14.17Z" transform="translate(0 -0.48)"/><path class="cls-17" d="M101.24,368.1l-.36,1.81-.45.89c.18.31.36.62.53.93,0,.19,0,.38,0,.57l-.55.47a2,2,0,0,1,.11.42c-.27-.26-.76-.49-.78-.76-.11-1.79-1.16-1.63-2.39-1.28a9.33,9.33,0,0,1-1.58.18c-1.1-.11-2.52.42-2.74-1.4l.35-.37-.16-.11-.15.51c-1.13.13-1.93.08-1.64-1.51a11.17,11.17,0,0,0-.46-3.18h4.29l.32.51.3-.52c.91.06,1.82.07,2.72.18s2.1.17,1.6,1.76C100.16,367.38,100.88,367.8,101.24,368.1Z" transform="translate(0 -0.48)"/><path class="cls-3" d="M107.35,381.4h.38l3.06,2.69.09,4.18-1.32,1.32c-1,.79-1.66.7-2.67-.26s-2.47-1.32-3.74-1.94l.48-3.23,1-.88,1.34-1.4Z" transform="translate(0 -0.48)"/><path class="cls-30" d="M71.94,379.57,70,380.2l-3.75-3.54.94-2,5.26,1.3,0,.88,0,1.49ZM70.75,376v-.2l-.31.11c0,.06.08.14.13.15S70.69,376,70.75,376Z" transform="translate(0 -0.48)"/><path class="cls-28" d="M72.47,375.92l-5.26-1.3,0-.05c1.69-.69.89-2.13,1-3.29l2-1,1.69,2.23,1.39-.68c.5,1,1,2.07,1.51,3.1Z" transform="translate(0 -0.48)"/><path class="cls-14" d="M84.8,365.5a.23.23,0,0,1,0,.36h-1.3l-.06,0-.45-1.44v.05l-.46-1.83-2.16-3.43c3.77-.21,4.56.53,4.4,3.93,0,.6,0,1.2,0,1.8l-.34.22Z" transform="translate(0 -0.48)"/><path class="cls-12" d="M83.36,371.36a5.17,5.17,0,0,1,4.57,2.3c.2.32,0,.91,0,1.38a6.21,6.21,0,0,0-1.69-.44C84,374.61,83.31,373.31,83.36,371.36Z" transform="translate(0 -0.48)"/><path class="cls-23" d="M95.79,371.33a9.33,9.33,0,0,0,1.58-.18c1.23-.35,2.28-.51,2.39,1.28,0,.27.51.5.78.76.06.54.11,1.09.16,1.64l-.48.3Z" transform="translate(0 -0.48)"/><path class="cls-22" d="M73.26,371.81l-1.39.68-1.69-2.23,3.23-1.21Z" transform="translate(0 -0.48)"/><path class="cls-8" d="M82.46,367.88l2.2,1-3,1-.49.08-2.09-1.25,2.56-.63.85-.22Z" transform="translate(0 -0.48)"/><path class="cls-17" d="M81.7,364.44c-1.64-.58-2.14-1.84-2.22-3.87L82.59,364l.34.45v-.05Z" transform="translate(0 -0.48)"/><path class="cls-16" d="M102.68,376.55l2.32.8.45,1.76h0Z" transform="translate(0 -0.48)"/><path class="cls-16" d="M106,381.88l-1.34,1.4-.77-2.39.46-.31Z" transform="translate(0 -0.48)"/><path class="cls-16" d="M101.26,383.24l.11-.93c1.67-.45,1.93.49,1.78,1.82Z" transform="translate(0 -0.48)"/><path class="cls-16" d="M100.91,379.55l-.52-.87.87-1.13.51.3Z" transform="translate(0 -0.48)"/><path class="cls-28" d="M72.48,378.29l0-1.49,2.23-1.37Z" transform="translate(0 -0.48)"/><path class="cls-26" d="M74.67,375.43l-2.23,1.37,0-.88,2.3-1C74.74,375.09,74.7,375.26,74.67,375.43Z" transform="translate(0 -0.48)"/><path class="cls-8" d="M81.7,364.44l1.24-.05.45,1.44h-1C82.19,365.37,81.94,364.91,81.7,364.44Z" transform="translate(0 -0.48)"/><path class="cls-16" d="M81.14,370l.49-.08.9,1.36C80.85,372.18,81.29,370.77,81.14,370Z" transform="translate(0 -0.48)"/><path class="cls-16" d="M103.26,380l-.45,1.13-.36-.14.47-1.13Z" transform="translate(0 -0.48)"/><path class="cls-8" d="M82.93,364.44l-.34-.45-.12-1.38Z" transform="translate(0 -0.48)"/><path class="cls-16" d="M105.45,379.11l.27,1h-.38l.09-1Z" transform="translate(0 -0.48)"/><path class="cls-12" d="M95.9,365.26l-.3.52-.32-.51Z" transform="translate(0 -0.48)"/><path class="cls-23" d="M101,371.73c-.17-.31-.35-.62-.53-.93C100.61,371.11,100.79,371.42,101,371.73Z" transform="translate(0 -0.48)"/><path class="cls-6" d="M82.46,367.91l-.85.22Z" transform="translate(0 -0.48)"/><path class="cls-8" d="M83.45,365.85h1.3l0,0Z" transform="translate(0 -0.48)"/><path class="cls-6" d="M84.8,365.5l-.4-.37.34-.22a2.85,2.85,0,0,1,.11.39A.53.53,0,0,1,84.8,365.5Z" transform="translate(0 -0.48)"/><path class="cls-23" d="M100.43,372.77l.55-.47Z" transform="translate(0 -0.48)"/><path class="cls-17" d="M109.24,375.47c.11.16.22.32.32.49C109.46,375.79,109.35,375.63,109.24,375.47Z" transform="translate(0 -0.48)"/><path class="cls-28" d="M95.76,430l.64,1.38.18,1,.16.84a.46.46,0,0,0-.09.39l-1.2.69-.59-.15h-.31L93.06,436l-2.23-1.79-.5-1.79-2.13-3,.74-1.22,1.24.73.19-.5-1.43-.23.57-1.56-.72-.37c-.54,1-1.09,2-1.64,3h-.56l0-3.41,2.29-.86,2.77.52c-1.25,1.31-1.14,2.32.92,2.7l.38.12-.38-.12c1-1.4,1.24-.09,1.73.49A15.11,15.11,0,0,0,95.76,430Z" transform="translate(0 -0.48)"/><path class="cls-9" d="M69.15,412.12a15,15,0,0,1,1.57-2.81,6.21,6.21,0,0,1,2-1.1l-1.26-2.5c1.36-1.11,2.74-2.17,4.67-1.37l-1.47,2.2.9.58c-.61,1.65-1.21,3.29-1.82,4.93l-2.25,1.07L69.29,413Z" transform="translate(0 -0.48)"/><path class="cls-27" d="M86.59,429.21h.56l1,.18,2.13,3c-.44.85-.9,1.69-1.32,2.56-.32.67-.6,1.36-.89,2h-.73l-3.34-8.77,1.68-.95Z" transform="translate(0 -0.48)"/><path class="cls-29" d="M84.34,443.78a9.94,9.94,0,0,0-1-1.69c-.92-1.11-2.09-2.09-1.3-3.78l1.31-1.43a12.94,12.94,0,0,1,1.28,1.81c.51,1.06.88,2.19,1.36,3.4l.81-.74,1.61,2.24-.2.67c-.84-.14-1.67-.3-2.51-.42-.46-.06-.94,0-1.4-.06Z" transform="translate(0 -0.48)"/><path class="cls-28" d="M78,404.36l1.37-.49,1.33.45.54.51.83.36c.53.47,1.08.92,1.59,1.42s.79.91,1.18,1.36l0,0-.45.9h0c-1.67,0-3.14-2.13-5-.42l-1.86-2.15C77.69,405.68,77.84,405,78,404.36Z" transform="translate(0 -0.48)"/><path class="cls-22" d="M83.4,436.88l-1.31,1.43-1-1h0l-1.38-1.39.06-1.38,2.75-.28c.37.52.88,1.18,1.3,1.9C83.94,436.28,83.57,436.64,83.4,436.88Z" transform="translate(0 -0.48)"/><path class="cls-29" d="M90.83,434.17,93.06,436l-3.15,3.35-.77-.36c.23-.83.4-1.67.69-2.47S90.49,434.94,90.83,434.17Z" transform="translate(0 -0.48)"/><path class="cls-30" d="M82.52,415.78l-.12.86-1.43.51c-.09-1.5-.18-2.81-.26-4.13l.87-.45,3.3,3.22H82.52l-.08-.09Z" transform="translate(0 -0.48)"/><path class="cls-28" d="M83.33,416.77a3.3,3.3,0,0,1,1.08.27,21,21,0,0,1,1.66,1.33,15.26,15.26,0,0,1-1.46,1.44,5.94,5.94,0,0,1-1.22.57Z" transform="translate(0 -0.48)"/><path class="cls-28" d="M81.17,411.19h-.48c-1.52.11-1.25-1-1.27-1.87l4.94.5h0l-2.29,1.37c0-.24,0-.49,0-.73Z" transform="translate(0 -0.48)"/><path class="cls-24" d="M74.7,420.37q1,2.91,2.08,5.82l-.88.29c-.65-2.05-1.29-4.09-1.93-6.14Z" transform="translate(0 -0.48)"/><path class="cls-12" d="M78,404.36c-.14.66-.29,1.32-.43,2l-2,.79-.9-.58,1.47-2.2Z" transform="translate(0 -0.48)"/><path class="cls-26" d="M84.36,409.83l-4.94-.5v-.85c1.81-1.71,3.28.44,5,.42Z" transform="translate(0 -0.48)"/><path class="cls-28" d="M74.7,420.37l-.73,0-2.13-5.54.89-.61Z" transform="translate(0 -0.48)"/><path class="cls-28" d="M94.12,445.12l1.25.91c-.16,1.06-.31,2.13-.47,3.19,0-.17,0-.34-.07-.52l-1.32-2.2-.45-.93,0-.5v.05Z" transform="translate(0 -0.48)"/><path class="cls-16" d="M72.73,414.19l-.89.61a1.37,1.37,0,0,1-.38-.15c0-.51,0-1,.05-1.53l2.25-1.07Z" transform="translate(0 -0.48)"/><path class="cls-30" d="M86.59,429.21l-.86-2a3.27,3.27,0,0,0,0-.44l.93-1Z" transform="translate(0 -0.48)"/><path class="cls-21" d="M93.51,446.5l1.32,2.2-1.76-.36v-.78l.48-1.08Z" transform="translate(0 -0.48)"/><path class="cls-26" d="M90.26,445.16l1,0,.75.27.43.46C91.42,446.56,90.39,447.25,90.26,445.16Z" transform="translate(0 -0.48)"/><path class="cls-28" d="M81.58,412.57l-.87.45-1.22-.24v-.39l1.33-.26Z" transform="translate(0 -0.48)"/><path class="cls-28" d="M79.32,434.09l-.77-.35,1.23-.91.27.36-.75.92Z" transform="translate(0 -0.48)"/><path class="cls-21" d="M95.45,434.28l1.2-.69C97.06,435.23,96.05,434.4,95.45,434.28Z" transform="translate(0 -0.48)"/><path class="cls-21" d="M96.74,433.2c-.06-.28-.11-.56-.16-.84l1.65,1h0Z" transform="translate(0 -0.48)"/><path class="cls-22" d="M81.14,437.33l-.34,1.11-.47-.32.82-.79Z" transform="translate(0 -0.48)"/><path class="cls-21" d="M98.09,435l0,.91-.85-.52Z" transform="translate(0 -0.48)"/><path class="cls-30" d="M79.83,434.56l-.06,1.38-.45-1.85,0,0Z" transform="translate(0 -0.48)"/><path class="cls-28" d="M93.54,446.48l-.48,1.08Z" transform="translate(0 -0.48)"/><path class="cls-22" d="M101.22,470.55l-.06.18a1.81,1.81,0,0,1-.18-.21s.08-.09.13-.13Z" transform="translate(0 -0.48)"/><path class="cls-26" d="M93,445.07l0,.5-.62.3-.43-.46Z" transform="translate(0 -0.48)"/><path class="cls-21" d="M94.55,434.13h0Z" transform="translate(0 -0.48)"/><path class="cls-24" d="M64.36,389.87,66.18,396l-.85.27-2.08-6.06Z" transform="translate(0 -0.48)"/><path class="cls-30" d="M68.23,371.28c-.1,1.16.7,2.6-1,3.29C65.82,372.94,66.53,372,68.23,371.28Z" transform="translate(0 -0.48)"/><path class="cls-15" d="M68.36,405.16a18.06,18.06,0,0,1,.77,2.36c.31,1.52-.47,1.24-1.33.72C68,407.21,68.17,406.18,68.36,405.16Z" transform="translate(0 -0.48)"/><path class="cls-16" d="M66.31,409.14l-.78,1.12c-.46-.59-.92-1.19-1.37-1.79l0,0,.44,0Z" transform="translate(0 -0.48)"/><path class="cls-16" d="M69.15,412.12l.14.88-2.45-.5Z" transform="translate(0 -0.48)"/><path class="cls-16" d="M64.16,408.47l-.75-1.26.83.31c0,.3,0,.61,0,.91Z" transform="translate(0 -0.48)"/><path class="cls-15" d="M64.2,408.43c0-.3,0-.61,0-.91l1.74.16-1.34.77Z" transform="translate(0 -0.48)"/><path class="cls-11" d="M66.47,401.1l.48-.34c0,.13,0,.25,0,.38l-.06.86Z" transform="translate(0 -0.48)"/><path class="cls-16" d="M65.53,410.27a.88.88,0,0,1-.26.34A.38.38,0,0,1,65.53,410.27Z" transform="translate(0 -0.48)"/><path class="cls-16" d="M67,401.14c0-.13,0-.25,0-.38a1.33,1.33,0,0,1,.45-.07,3.05,3.05,0,0,0,0,.43Z" transform="translate(0 -0.48)"/><path class="cls-17" d="M68.31,401.57v.49a2,2,0,0,1-.12-.34S68.27,401.62,68.31,401.57Z" transform="translate(0 -0.48)"/><path class="cls-6" d="M109.56,389.59l1.32-1.32Z" transform="translate(0 -0.48)"/><path class="cls-26" d="M110.49,480.42a1.57,1.57,0,0,1-2.5-.72c-.17-.31.69-1.2,1.14-1.78a4.63,4.63,0,0,1,.88-.69Z" transform="translate(0 -0.48)"/><path class="cls-17" d="M111.9,374.07c.7,1,.87,1.83-.48,2.39.12-1.27-2.26-2.37-.25-3.76Z" transform="translate(0 -0.48)"/><path class="cls-10" d="M111.9,374.07l-.73-1.37c-.34-.65-.68-1.31-1-2l1.31,0Z" transform="translate(0 -0.48)"/><path class="cls-3" d="M110,367.65l1.43.9-.24,1.43-.89.21L110,369Z" transform="translate(0 -0.48)"/><path class="cls-17" d="M110.29,370.19l.89-.21,0,0,.26.63.06.2-1.31,0-.15-.56.14,0Z" transform="translate(0 -0.48)"/><path class="cls-10" d="M110.29,370.19h-.14l-.14,0,0-1.14Z" transform="translate(0 -0.48)"/><path class="cls-16" d="M111.39,377.26c-.15.31-.3.62-.46.93C111.09,377.88,111.24,377.57,111.39,377.26Z" transform="translate(0 -0.48)"/><path class="cls-3" d="M114.12,379.58l1-.5Z" transform="translate(0 -0.48)"/><path class="cls-15" d="M98.91,388.72h-.64V387.3l-1.94,1-4.59.38L90.28,387l1.84-3.79.95-1.31c.89.1,2.28-.54,1.92,1.34l-1.59.33.5,1,4.62.93,1,1.7c0,.18-.07.36-.11.54Z" transform="translate(0 -0.48)"/><path class="cls-3" d="M111.41,370.58l-.26-.63h.75Z" transform="translate(0 -0.48)"/><path class="cls-3" d="M112.33,407.52l-1.3-.36.22-.43,1.06.81Z" transform="translate(0 -0.48)"/><polygon class="cls-3" points="111.43 405.05 111.31 404.98 111.44 404.92 111.43 405.05"/><path class="cls-6" d="M111,484.34a1.3,1.3,0,0,0,.3.32l-.33.66-1.81.24a.68.68,0,0,0,0-.4c0-.06.12-.12.12-.18a1.78,1.78,0,0,0-.1-.38h0l.34-.47Z" transform="translate(0 -0.48)"/><path class="cls-26" d="M111,484.34l-1.48-.22-.34.47h0l-.8-.34-1.17-.71.06-1.26,1.15,0,1.15.43Z" transform="translate(0 -0.48)"/><path class="cls-27" d="M107.18,483.55l1.17.71c0,.19-.08.38-.11.57l-1-.24c-.13-.22-.26-.44-.38-.67Z" transform="translate(0 -0.48)"/><path class="cls-30" d="M106.82,483.92c.12.23.25.45.38.67a1.13,1.13,0,0,1-.32,0h-.71l-.29,0Z" transform="translate(0 -0.48)"/><path class="cls-13" d="M109.13,485.16a.68.68,0,0,1,0,.4c-.5.82-.93,2-1.93.4l1-1.18Z" transform="translate(0 -0.48)"/><path class="cls-22" d="M109.13,485.16l-.91-.38,0,.05c0-.19.07-.38.11-.57l.8.34a1.78,1.78,0,0,1,.1.38C109.25,485,109.17,485.1,109.13,485.16Z" transform="translate(0 -0.48)"/><path class="cls-27" d="M106.17,484.54h0Z" transform="translate(0 -0.48)"/><path class="cls-30" d="M86.39,423.72l-1,1.29-.43-.35,1.07-1.22Z" transform="translate(0 -0.48)"/><path class="cls-24" d="M87.58,414.41c.14.47.29.94.43,1.41C87.87,415.35,87.72,414.88,87.58,414.41Z" transform="translate(0 -0.48)"/><path class="cls-14" d="M81.17,411.19l.88-.73c0,.24,0,.49,0,.73Z" transform="translate(0 -0.48)"/><path class="cls-30" d="M89,424.06l-.64-.47.15-.16.49.63Z" transform="translate(0 -0.48)"/><path class="cls-24" d="M89.49,417.05l.77-.35Z" transform="translate(0 -0.48)"/><path class="cls-22" d="M93,445.07l-1,.34-.75-.27L93,444.3c0,.12,0,.25,0,.37a.85.85,0,0,0,0,.45Z" transform="translate(0 -0.48)"/><path class="cls-14" d="M93,445.12a.85.85,0,0,1,0-.45l.5-.47.76.52a1.25,1.25,0,0,1-.2.4Z" transform="translate(0 -0.48)"/><path class="cls-18" d="M97.2,443.25l-.32.41-.15-.38Z" transform="translate(0 -0.48)"/><path class="cls-25" d="M93.56,444.2l-.5.47c0-.12,0-.25,0-.37Z" transform="translate(0 -0.48)"/><path class="cls-14" d="M94.09,444.11l-.07,0a1.13,1.13,0,0,1,.1-.13s0,0,0,0Z" transform="translate(0 -0.48)"/><path class="cls-26" d="M81.22,404.83l-.54-.51c.13-2.23,1.91-2.77,3.55-3.45.23.19.63.35.66.57.17,1.19.25,2.38.36,3.57l.71.17-1,.37L84.82,408c-.39-.45-.76-.93-1.18-1.36s-1.06-.95-1.59-1.42Z" transform="translate(0 -0.48)"/><path class="cls-26" d="M84.35,408.91l.45-.9Z" transform="translate(0 -0.48)"/><path class="cls-28" d="M103.61,462.53c0,.8-.08,1.61-.13,2.41a.57.57,0,0,1-.33-.11l-.41-.44-1.35-1.87.82,0,.45-.43h.51l.45.43Z" transform="translate(0 -0.48)"/><path class="cls-30" d="M100.14,460.19l1.69,1.28-.82.64Z" transform="translate(0 -0.48)"/><path class="cls-30" d="M102.74,464.39l.41.44Z" transform="translate(0 -0.48)"/><path class="cls-30" d="M103.62,462.54l-.45-.43Z" transform="translate(0 -0.48)"/><path class="cls-30" d="M102.66,462.12l-.45.43Z" transform="translate(0 -0.48)"/><path class="cls-22" d="M109.54,482.68l-1.15-.43.93-.36Z" transform="translate(0 -0.48)"/><path class="cls-20" d="M98.23,433.34l-1.65-1-.18-1L98.58,430C99.18,431.17,100.26,432.42,98.23,433.34Z" transform="translate(0 -0.48)"/><path class="cls-26" d="M97.56,453.72l-.89.12.09-.89,0,.07Z" transform="translate(0 -0.48)"/><path class="cls-25" d="M96.76,453l-.09.89-.53-.38Z" transform="translate(0 -0.48)"/><path class="cls-18" d="M96.61,410.58a1.33,1.33,0,0,1-.28,0A.67.67,0,0,1,96.61,410.58Z" transform="translate(0 -0.48)"/><path class="cls-11" d="M93.07,381.93l-.95,1.31-3.28,2.65c-1.53-2.11,0-5.46,3.42-7Z" transform="translate(0 -0.48)"/><path class="cls-23" d="M91.74,388.71l4.59-.38-1.91,2.86-1.82-1.37-.93,1.67Z" transform="translate(0 -0.48)"/><path class="cls-11" d="M93.9,384.62l-.5-1,1.59-.33Z" transform="translate(0 -0.48)"/><path class="cls-19" d="M69.39,387.22c0,.11,0,.22,0,.13,0,.08,0,0,.06-.15Z" transform="translate(0 -0.48)"/><path class="cls-13" d="M98.91,388.72l.5-.93c.06.61.12,1.21.19,1.81Z" transform="translate(0 -0.48)"/><path class="cls-13" d="M100.54,389v-.66h.16v.67Z" transform="translate(0 -0.48)"/><path class="cls-15" d="M93.09,370l.15-.51.16.11-.35.37Z" transform="translate(0 -0.48)"/><path class="cls-28" d="M70.75,376c-.06,0-.14.08-.19.06s-.09-.09-.13-.15l.31-.11Z" transform="translate(0 -0.48)"/><path class="cls-30" d="M88.2,429.38l-1-.18c.55-1,1.1-2,1.64-3l.72.37-.57,1.56h0Z" transform="translate(0 -0.48)"/><path class="cls-30" d="M88.94,428.16l1.43.23-.19.5-1.24-.73Z" transform="translate(0 -0.48)"/><path class="cls-30" d="M92.6,428.16l.38.12-.38-.12Z" transform="translate(0 -0.48)"/><path class="cls-13" d="M81.22,404.83l.83.36Z" transform="translate(0 -0.48)"/><polygon class="cls-26" points="82.52 415.3 82.44 415.22 82.52 415.31 82.52 415.3"/><path class="cls-22" d="M109.13,484.59l.34-.47Z" transform="translate(0 -0.48)"/></svg>