<svg xmlns="http://www.w3.org/2000/svg" viewBox="0 0 1025 770"><defs><style>.cls-1{fill:#603813;}.cls-2{fill:#ad5a38;}.cls-3{fill:#754c24;}.cls-4{fill:#f7a243;}.cls-11,.cls-13,.cls-14,.cls-5{fill:none;}.cls-21,.cls-5{stroke:#000;}.cls-11,.cls-12,.cls-13,.cls-18,.cls-19,.cls-21,.cls-5{stroke-miterlimit:10;}.cls-6{fill:#c00000;}.cls-7{fill:#8c6239;}.cls-8{fill:#a67c52;}.cls-9{fill:#999;}.cls-10,.cls-12{fill:#b3b3b3;}.cls-11,.cls-12{stroke:#ccc;}.cls-13{stroke:#666;}.cls-15,.cls-18{fill:#ccc;}.cls-16{fill:#fbb03b;}.cls-17{fill:#42210b;}.cls-18{stroke:#b3b3b3;}.cls-19,.cls-20{fill:#998675;}.cls-19{stroke:#998675;stroke-width:2px;}.cls-21{fill:red;}</style></defs><g id="Layer_1" data-name="Layer 1"><rect class="cls-1" y="437" width="1024" height="164"/><rect id="lower_table" class="cls-2" x="0.5" y="325.5" width="949" height="19"/><rect id="table" class="cls-3" x="24.5" y="344.5" width="941" height="18"/><rect id="bar_counter_rect" class="cls-4" x="62.5" y="362.5" width="899" height="165"/><path class="cls-3" d="M329.89,524.89c.61-44.39-.39-88.39-.1-133.14,2.48-.27,7.71.75,7.44-.83.27-2.42-.21-4.4-.32-6.6l67.27-.06v5.67c0,.53.17,1.67.31,1.57.37-.26,1,.19,1.45.16l6.93-.38.17,93.73c0,13.67.05,27.34.43,41q-41.62.09-83.24,1.11c-.8-2.3-.16-19.23.26-21.63" transform="translate(0 1)"/><path class="cls-3" d="M463.3,524.57c.61-44.39-.39-88.39-.09-133.14,2.48-.28,7.7.75,7.44-.83.26-2.42-.22-4.41-.33-6.61l67.27-.06,0,5.67c0,.54.17,1.67.3,1.58.38-.27,1,.18,1.45.16l6.94-.39.16,93.73c0,13.67,0,27.35.44,41q-41.62.07-83.25,1.11c-.8-2.31-.16-19.23.26-21.63" transform="translate(0 1)"/><path class="cls-3" d="M588.3,524.57c.61-44.39-.39-88.39-.09-133.14,2.48-.28,7.7.75,7.44-.83.26-2.42-.22-4.41-.33-6.61l67.27-.06,0,5.67c0,.54.17,1.67.3,1.58.38-.27,1,.18,1.45.16l6.94-.39.16,93.73c0,13.67,0,27.35.44,41q-41.62.07-83.25,1.11c-.8-2.31-.16-19.23.26-21.63" transform="translate(0 1)"/><path class="cls-3" d="M712.54,524.73c.61-44.39-.39-88.39-.1-133.13,2.48-.28,7.71.74,7.45-.84.26-2.42-.22-4.4-.33-6.6l67.27-.06v5.67c0,.53.18,1.67.31,1.57.38-.26,1,.19,1.45.17l6.93-.39.17,93.73c0,13.67,0,27.35.44,41q-41.64.09-83.25,1.11c-.8-2.3-.16-19.22.26-21.63" transform="translate(0 1)"/><path class="cls-3" d="M836.43,524.77c.61-44.39-.39-88.39-.09-133.14,2.48-.28,7.7.75,7.44-.83.26-2.42-.22-4.4-.33-6.61l67.27-.05,0,5.67c0,.53.17,1.66.3,1.57.38-.26,1,.19,1.45.16l6.94-.38.16,93.72c0,13.68,0,27.35.44,41q-41.62.09-83.25,1.11c-.8-2.3-.16-19.23.26-21.63" transform="translate(0 1)"/><path class="cls-5" d="M298.53,457.76" transform="translate(0 1)"/><path class="cls-5" d="M231.26,457.81" transform="translate(0 1)"/><path class="cls-3" d="M195.17,524.76c.61-44.37-.39-88.35-.1-133.07,2.48-.28,7.71.74,7.44-.83.27-2.42-.21-4.41-.32-6.61l67.27-.05v5.66c0,.54.17,1.67.31,1.58.37-.27,1,.18,1.45.16l6.93-.39.17,93.69c0,13.66.05,27.33.43,41q-41.62.09-83.24,1.11c-.8-2.3-.16-19.22.26-21.62" transform="translate(0 1)"/><path class="cls-3" d="M63.15,524.76c.61-44.5-.39-88.6-.1-133.44,2.49-.28,7.71.74,7.45-.84.26-2.43-.22-4.41-.33-6.62l67.26-.06,0,5.69c0,.53.17,1.67.31,1.57.37-.26,1,.19,1.44.16l6.94-.38.16,93.94c0,13.7,0,27.41.44,41.11Q105.11,526,63.5,527c-.8-2.31-.16-19.27.26-21.68" transform="translate(0 1)"/><rect class="cls-6" x="349.46" y="410.73" width="56" height="24.21" rx="4.52"/><path class="cls-7" d="M954.31,344.17,949,343l25.18-.19c3,0,5.93,0,8.89.15,2.4.15,4.8.45,7.21.41s4.73-.39,7.09-.58a98.28,98.28,0,0,1,10-.1l14.63.36a2.46,2.46,0,0,1,2.06.73,2.55,2.55,0,0,1,.3,1.42l.17,13.54c0,1.08-.07,2.36-1,2.93a3.08,3.08,0,0,1-1.78.29q-29.13-1.08-58.28-1.24a5.08,5.08,0,0,1-3.65-1,4.89,4.89,0,0,1-.85-1.21l-5.13-9c-.81-1.42-2.77-6.58-4.41-6.62,0-1.73,0-18.43,0-18.43h75v18.44H950.2" transform="translate(0 1)"/><rect class="cls-8" x="961.5" y="361.5" width="63.5" height="166"/><rect class="cls-9" x="372.5" y="430.5" width="9" height="117"/><rect class="cls-10" x="357.5" y="494.5" width="15" height="3"/><rect class="cls-10" x="381.5" y="494.5" width="16" height="3"/><line class="cls-11" x1="360.5" y1="497.5" x2="372.5" y2="509.5"/><line class="cls-11" x1="394.5" y1="497.5" x2="381.5" y2="510.5"/><g id="stool"><rect class="cls-9" x="530.24" y="430.53" width="9" height="117"/><rect class="cls-10" x="515.24" y="494.53" width="15" height="3"/><rect class="cls-10" x="539.24" y="494.53" width="16" height="3"/><line class="cls-11" x1="518.24" y1="497.53" x2="530.24" y2="509.53"/><line class="cls-11" x1="552.24" y1="497.53" x2="539.5" y2="509.5"/><rect class="cls-6" x="506.33" y="412.31" width="56" height="24.21" rx="4.52"/></g><g id="stool-2" data-name="stool"><rect class="cls-9" x="651.61" y="429.34" width="9" height="117" transform="translate(-2.39 4.23) rotate(-0.28)"/><rect class="cls-10" x="636.65" y="493.4" width="15" height="3" transform="translate(-2.42 4.17) rotate(-0.28)"/><rect class="cls-10" x="660.64" y="493.28" width="16" height="3" transform="translate(-2.42 4.29) rotate(-0.28)"/><line class="cls-11" x1="639.65" y1="497.42" x2="651.71" y2="509.36"/><line class="cls-11" x1="673.65" y1="497.25" x2="660.97" y2="509.29"/><rect class="cls-6" x="627.7" y="411.3" width="56" height="24.21" rx="4.52"/></g><g id="stool-3" data-name="stool"><rect class="cls-9" x="761.58" y="430.57" width="9" height="117"/><rect class="cls-10" x="746.58" y="494.57" width="15" height="3"/><rect class="cls-10" x="770.58" y="494.57" width="16" height="3"/><line class="cls-11" x1="749.58" y1="497.57" x2="761.58" y2="509.57"/><line class="cls-11" x1="783.58" y1="497.57" x2="770.84" y2="509.55"/><rect class="cls-6" x="738.08" y="411.16" width="56" height="24.21" rx="4.52"/></g><g id="stool-4" data-name="stool"><rect class="cls-9" x="873.86" y="430.63" width="9" height="117"/><rect class="cls-10" x="858.86" y="494.63" width="15" height="3"/><rect class="cls-10" x="882.86" y="494.63" width="16" height="3"/><line class="cls-12" x1="861.86" y1="497.63" x2="873.86" y2="509.63"/><line class="cls-11" x1="895.86" y1="497.63" x2="883.11" y2="509.6"/><rect class="cls-6" x="849.93" y="411.88" width="56" height="24.21" rx="4.52"/></g><g id="stool-5" data-name="stool"><rect class="cls-9" x="983.09" y="430.79" width="9" height="117"/><rect class="cls-10" x="968.09" y="494.79" width="15" height="3"/><rect class="cls-10" x="992.09" y="494.79" width="16" height="3"/><line class="cls-13" x1="971.09" y1="497.79" x2="983.09" y2="509.79"/><line class="cls-13" x1="1005.09" y1="497.79" x2="992.34" y2="509.76"/><rect class="cls-6" x="959.09" y="411.79" width="56" height="24.21" rx="4.52"/></g><rect class="cls-14" x="311.44" y="196.55" width="14.69" height="38.59" rx="6.5" transform="translate(183.91 -143.74) rotate(35.39)"/><rect class="cls-14" x="318.5" y="199.5" width="280" height="15" rx="7.5"/><ellipse class="cls-15" cx="377" cy="552" rx="27" ry="5"/><ellipse class="cls-15" cx="534" cy="552" rx="27" ry="5"/><ellipse class="cls-15" cx="656" cy="551" rx="27" ry="5"/><ellipse class="cls-15" cx="766" cy="552" rx="27" ry="5"/><ellipse class="cls-15" cx="879" cy="551" rx="27" ry="5"/><ellipse class="cls-15" cx="988" cy="552" rx="27" ry="5"/><rect class="cls-11" x="0.5" y="600.5" width="1023" height="169"/><rect class="cls-7" x="949" y="339" width="75" height="6"/><circle class="cls-16" cx="316" cy="98" r="7"/><rect class="cls-17" y="437" width="63" height="5"/></g><g id="ceiling"><circle class="cls-16" cx="947" cy="97" r="7"/><circle class="cls-16" cx="734" cy="97" r="7"/><circle class="cls-16" cx="521" cy="98" r="7"/><rect class="cls-18" x="390.5" y="0.5" width="4.5" height="38"/><rect class="cls-18" x="623.5" y="0.5" width="4.5" height="38"/><rect class="cls-18" x="830.5" y="0.5" width="4.5" height="38"/><rect class="cls-18" x="1008.5" y="0.5" width="4.5" height="38"/><rect class="cls-19" x="317" y="43" height="23"/><rect class="cls-19" x="521" y="43" height="23"/><rect class="cls-19" x="734" y="42" height="23"/><rect class="cls-19" x="947" y="44" height="23"/><path class="cls-20" d="M517.54,67.46,502.78,92.53c-.61,1-1.19,2.43-.38,3.32a2.58,2.58,0,0,0,1.32.65,24.46,24.46,0,0,0,5.06.49l27.34.68c1.77,0,4-.23,4.54-1.92.42-1.34-.78-2.54-1.45-3.78-3.21-6-6.21-11-10-16.79C526.38,70.76,522.21,59.53,517.54,67.46Z" transform="translate(0 1)"/><path class="cls-20" d="M313.36,67.27,298.59,92.34c-.6,1-1.18,2.43-.38,3.31a2.58,2.58,0,0,0,1.32.65,23.25,23.25,0,0,0,5.07.49l27.34.68c1.77,0,4-.22,4.54-1.91.42-1.34-.78-2.54-1.45-3.78-3.21-6-6.21-11-10-16.8C322.2,70.56,318,59.34,313.36,67.27Z" transform="translate(0 1)"/><path class="cls-20" d="M730.46,66.67,715.7,91.74c-.61,1-1.19,2.43-.38,3.31a2.43,2.43,0,0,0,1.32.65,23.25,23.25,0,0,0,5.07.49l27.33.68c1.77,0,4-.22,4.54-1.91.43-1.34-.77-2.54-1.44-3.78-3.22-6-6.22-11-10-16.8C739.3,70,735.13,58.74,730.46,66.67Z" transform="translate(0 1)"/><path class="cls-20" d="M943.4,66.19,928.63,91.26c-.6,1-1.18,2.43-.38,3.31a2.58,2.58,0,0,0,1.32.65,23.25,23.25,0,0,0,5.07.49l27.34.68c1.77,0,4-.22,4.54-1.91.42-1.34-.78-2.54-1.45-3.78-3.21-6-6.21-11-10-16.8C952.24,69.48,948.07,58.26,943.4,66.19Z" transform="translate(0 1)"/><rect class="cls-18" x="257.5" y="38.5" width="766" height="4.5"/><path class="cls-21" d="M165.5,313.5" transform="translate(0 1)"/><path class="cls-21" d="M76.5,313.5" transform="translate(0 1)"/><path class="cls-21" d="M165.5,313.5" transform="translate(0 1)"/><path class="cls-21" d="M160.5,324.5" transform="translate(0 1)"/><path class="cls-21" d="M81.5,324.5" transform="translate(0 1)"/><path class="cls-21" d="M76.5,313.5" transform="translate(0 1)"/><path class="cls-5" d="M81.5,324.5" transform="translate(0 1)"/><path class="cls-5" d="M160.5,324.5" transform="translate(0 1)"/></g></svg>