<svg xmlns="http://www.w3.org/2000/svg" xmlns:xlink="http://www.w3.org/1999/xlink" viewBox="0 0 53.69 140.82"><defs><style>.cls-1{fill:none;}.cls-2{clip-path:url(#clip-path);}.cls-3{fill:#f5f0ea;}.cls-4{fill:#eae6e2;}.cls-5{fill:#c9934e;}.cls-6{fill:#a47d38;}.cls-7{fill:#9c6427;}.cls-8{fill:#dad5cf;}.cls-9{fill:#b9b5b1;}.cls-10{fill:#87888b;}.cls-11{fill:#27282a;}.cls-12{fill:#786d5f;}.cls-13{fill:#dfb27a;}.cls-14{fill:#96999d;}.cls-15{fill:#fcf8f2;}.cls-16{fill:#c9832c;}.cls-17{fill:#bb7f21;}.cls-18{fill:#dea351;}.cls-19{fill:#e3c9ac;}.cls-20{fill:#ce8740;}.cls-21{fill:#c9821f;}.cls-22{fill:#c27c1d;}.cls-23{fill:#b16719;}.cls-24{fill:#bc741b;}.cls-25{fill:#b76c1a;}.cls-26{fill:#f0e5d9;}.cls-27{fill:#f3ebe0;}.cls-28{fill:#ead3b6;}.cls-29{fill:#eadccc;}.cls-30{fill:#b9771c;}.cls-31{fill:#d79c2f;}</style><clipPath id="clip-path" transform="translate(-42.44 -58.89)"><rect class="cls-1" width="123" height="265"/></clipPath></defs><g id="Layer_2" data-name="Layer 2"><g id="Layer_1-2" data-name="Layer 1"><g class="cls-2"><path class="cls-3" d="M55.9,60.45l1.32-.52L62,59.82a2.78,2.78,0,0,1,1.12.06,6.25,6.25,0,0,0,5.15.14,11.73,11.73,0,0,1,3.43-.36c2-.11,4-.18,6-.26.92,0,1.71.21,1.86,1.32a1.51,1.51,0,0,0-.65.09c-.6.37-2.12-.13-1.63,1.24.37,1,1.33.05,2,0,1.51-.12,3-.21,4.55-.32l0,.48a25.12,25.12,0,0,0-2.76.4c-1.56.41-3.16.91-4,2.47a1.63,1.63,0,0,1-1.8,1c-2.09-.14-4.19-.27-6.29-.34a1.21,1.21,0,0,0-.86.59,6.87,6.87,0,0,0-.29,1.64c.74-.11,1.35-.2,2-.31a3.79,3.79,0,0,1,.86-.15c2,.23,4,.82,6.08-.07.18-.08.48.18.72.19.8,0,1.59,0,2.39,0,.24,0,.49-.23.72-.21a4.72,4.72,0,0,1,4.18,3.87l-1-.22c-.24-.35-.46-1-.71-1-.77,0-1.46.27-1.39,1.27a13.91,13.91,0,0,1-1.8.25c-2.58,0-5.16,0-7.74,0a1.57,1.57,0,0,1,2.15-.7c1.67.73,2.6,0,2.45-2a11.75,11.75,0,0,0-1.61.29,10.59,10.59,0,0,1-6.74.4c-1.55-.49-2.36-.07-2.56,1.35H63.47l0-.2,1.7-.85-2.33-1.54L65,67.62a1.43,1.43,0,0,0-2.17-.53,6.27,6.27,0,0,1-5.43.6A22.24,22.24,0,0,0,53,67.08l.17-.89-1.23-.4c1.06-1.39,4.29-2.05,6.38-1.3L55.69,65.7l0,.43c.45,0,1.17.17,1.29,0,.48-.77,1-.63,1.69-.43a1.15,1.15,0,0,0,1-.18c.91-1,2-.84,3.14-.59a23.5,23.5,0,0,0,2.8.29l.09-.44c-1.55-.89-3.08-1.83-4.66-2.65a4.48,4.48,0,0,0-1.8-.29c-.41,0-1,0-1.19.29-1.7,2.38-4.31.64-6.35,1.56a9.65,9.65,0,0,1,1.94-1.44C54.43,61.68,55.15,61.05,55.9,60.45Z" transform="translate(-42.44 -58.89)"/><path class="cls-4" d="M84.73,71.28a4.72,4.72,0,0,0-4.18-3.87c-.23,0-.48.2-.72.21-.8,0-1.59,0-2.39,0-.24,0-.54-.27-.72-.19-2,.89-4,.3-6.08.07a3.79,3.79,0,0,0-.86.15c-.61.11-1.22.2-2,.31a6.87,6.87,0,0,1,.29-1.64,1.21,1.21,0,0,1,.86-.59c2.1.07,4.2.2,6.29.34a1.63,1.63,0,0,0,1.8-1c.82-1.56,2.42-2.06,4-2.47a25.12,25.12,0,0,1,2.76-.4l0-.48c-1.52.11-3,.2-4.55.32-.7.06-1.66,1-2,0-.49-1.37,1-.87,1.63-1.24a1.51,1.51,0,0,1,.65-.09c3.1.27,6.19.76,8.85,2.44a48,48,0,0,1,5.47,4.44c.31.27.35.86.51,1.3l-.82,1.61-.25,0Z" transform="translate(-42.44 -58.89)"/><path class="cls-5" d="M88.42,142.78c-.76,3.39-1.41,6.81-2.31,10.16a32.89,32.89,0,0,0-.34,17.36,3.66,3.66,0,0,0,.89,3.95v0c0,.2,0,.41,0,.61l.15,0,.19-.4q1.58,5.57,3.14,11.13h-.31l-1.33,0-.26-.54c.2-1.46.63-2.93-.35-4.6l-.31,1.67-1.45-.23-.32-1.51,1.11.37c-.33-.82-.21-1.9-1.43-1.11-.2-1-.33-1.89-.58-2.77s-.61-1.76-.9-2.65c-.07-.18-.14-.46,0-.57.71-1,.26-1.5-.74-1.76,1.18-1.72.26-2.86-.85-4.53A2.57,2.57,0,0,0,82,166c-.24-.34-.69-.93-1.18-.16l-.3-2.88c1.89-.51,2.46-2.28,3.42-3.66a1.33,1.33,0,0,0,.24-1c-.66-1.85.48-3.36.84-5,.24-1.16,1.37-2.37.16-3.52.58-.9,1.87-1.41,1-2.77-.07-.1.15-.35.19-.54.16-.67.29-1.35.44-2l1-1.59Zm-1.3,36.84.22.35c.08-.07.23-.13.25-.22s-.09-.21-.14-.32Z" transform="translate(-42.44 -58.89)"/><path class="cls-4" d="M55.9,60.45c-.75.6-1.47,1.23-2.25,1.77a9.65,9.65,0,0,0-1.94,1.44c2-.92,4.65.82,6.35-1.56.18-.25.78-.3,1.19-.29a4.48,4.48,0,0,1,1.8.29c1.58.82,3.11,1.76,4.66,2.65l-.09.44a23.5,23.5,0,0,1-2.8-.29c-1.16-.25-2.23-.45-3.14.59a1.15,1.15,0,0,1-1,.18c-.68-.2-1.21-.34-1.69.43-.12.2-.84,0-1.29,0l0-.43,2.61-1.21c-2.09-.75-5.32-.09-6.38,1.3l1.23.4c-.06.3-.11.59-.17.89h-.52c-1.3,0-2.61-.06-3.89.07-.45,0-1.23.61-1.2.87a3.8,3.8,0,0,1-1.25,3C44,70.5,44,70.45,44.49,68.47c.08-.34-.16-.75-.25-1.13.14-2.06,1.69-2.88,3.26-3.57,1.84-.81,3.76-1.45,5.63-2.18C54.06,61.23,55,60.83,55.9,60.45Z" transform="translate(-42.44 -58.89)"/><path class="cls-6" d="M48.7,185.37c1.15-4.21,2.33-8.41,3.44-12.62,1.81-6.88,2.51-13.74.16-20.69a83.33,83.33,0,0,1-1.93-8.48h.25l.51.54v.78l.79,2.4v.24l.26,1.08v.77l1,3.19v.79l.25.54.55,1.84c.22,2.13.49,4.25.64,6.38a24.43,24.43,0,0,1,0,4.19,40.08,40.08,0,0,1-.82,4.32q-.75,3.52-1.56,7c-.27,1.17-.59,2.33-.9,3.49l-.52,3.18.25,1.84c-.53-.13-1.07-.24-1.59-.4A5.81,5.81,0,0,1,48.7,185.37Z" transform="translate(-42.44 -58.89)"/><path class="cls-7" d="M44.25,102.8,44,99.62l1.32.34.27,1.26c.13,1.75.21,3.51.4,5.26.27,2.55.75,5.08.89,7.63A22.59,22.59,0,0,0,48,120.28l.28,5.56.52.8-.25,1.84.25.8v1.58L48.47,133l-.79-2.68-.18-1.1-.12-1-.16-.83-.14-1.33-.11-.8-.08-.49q-1.3-10.64-2.6-21.27C44.27,103.28,44.26,103,44.25,102.8Z" transform="translate(-42.44 -58.89)"/><path class="cls-8" d="M44.24,67.34c.09.38.33.79.25,1.13-.49,2-.49,2,1.63,2.55l2.11.28L72,71.58c2.58,0,5.16,0,7.74,0a13.91,13.91,0,0,0,1.8-.25l2.1-.26,1,.22,8.5-.75c0,.25,0,.51,0,.76v.28l-2.38.26-3.43,0-1.6.25H83.69L71,72.4H64.89l-4.48.23-.8-.26-11.9-.25h-.8a10,10,0,0,0-1.33-.25c-.08,0-.18.32-.27.5-.25.43-.82,1.09-.69,1.27.85,1.25.3,2.23-.38,3.24-.16-.17-.47-.34-.46-.5.11-1.73.27-3.46.42-5.25l-1.57-.39Z" transform="translate(-42.44 -58.89)"/><path class="cls-9" d="M42.63,70.75l1.57.39c-.15,1.79-.31,3.52-.42,5.25,0,.16.3.33.46.5,0,.17,0,.33,0,.5a15.49,15.49,0,0,0-.61,2.16,18,18,0,0,0,0,2.2c0,.61-.13,1.22-.09,1.83a25.79,25.79,0,0,0,.35,3c.06.31.41.57.62.85,0,.09,0,.18,0,.26a9.67,9.67,0,0,0-.5,2.13c0,1,.19,2,.26,3,.1,1.55.16,3.11.24,4.66L43.8,98.6c-.38-4.25-.87-8.48-1.09-12.73-.23-4.61-.2-9.23-.27-13.85A8,8,0,0,1,42.63,70.75Z" transform="translate(-42.44 -58.89)"/><path class="cls-8" d="M79,198.84a72.81,72.81,0,0,1-16.88.61c-1.57-.16-3.15-.19-4.72-.33-.32,0-.62-.3-.93-.46l.14-1.33L58,197l2.93.32c.4.16.79.33,1.19.47s.79.22,1.16.39.81.59,1.25.67a12.87,12.87,0,0,0,2.06,0h8.16l.12-1.07a6.34,6.34,0,0,0,1.52,0,5.16,5.16,0,0,0,1.19-.7l1.6-.31.79,0Z" transform="translate(-42.44 -58.89)"/><path class="cls-6" d="M88.42,142.78h-.5l.25-1.59v-.53c.44-2.33.89-4.67,1.32-7,.36-1.95.7-3.91,1-5.86.26-1.53.52-3.07.77-4.6l0-.81c.09-.88.18-1.76.26-2.64a1.74,1.74,0,0,0,.27-.57c.39-2.55.75-5.1,1.12-7.65l.37.26c-.8,5.84-1.55,11.68-2.42,17.51-.56,3.74-1.29,7.45-2,11.18C88.85,141.25,88.61,142,88.42,142.78Z" transform="translate(-42.44 -58.89)"/><path class="cls-9" d="M93.22,71.29c0-.25,0-.51,0-.76l.25,0,1.35-.33c1.06.22,1.33.9,1.3,1.92C96,77,96,81.94,95.78,86.86c-.14,3.54-.5,7.08-.78,10.62a7.67,7.67,0,0,1-.27,1.15l-.44,0c.07-1.15.15-2.31.23-3.46.41-7.75,1.13-15.5.57-23.27C94.85,70.42,93.8,71.61,93.22,71.29Z" transform="translate(-42.44 -58.89)"/><path class="cls-4" d="M76.89,58.92c.24,0,.48.31.72.48-2,.08-4,.15-6,.26a11.73,11.73,0,0,0-3.43.36,6.25,6.25,0,0,1-5.15-.14A2.78,2.78,0,0,0,62,59.82l-4.73.11A7.16,7.16,0,0,1,63,59.17" transform="translate(-42.44 -58.89)"/><path class="cls-10" d="M91.65,192c.13,1.83-.53,3.19-1.84,3.76-.24-1.52-1.21-.28-1.8-.47l-1.18.28-.5.14H85c0-.44,0-.87,0-1.31l.54-.53,1.13-.26,0-.21-.59-.08c.16-.22.28-.54.5-.62a13.13,13.13,0,0,1,1.67-.41l.15,1.33,1.48-1.3,1.19-.58Z" transform="translate(-42.44 -58.89)"/><path class="cls-10" d="M58,197l-1.45.3c-1.3-1.63-3-1-4.63-.82-.24-.24-.43-.6-.72-.7-1.16-.42-2.36-.77-3.54-1.14L47,191.53l2.3,1.88,1.59,1.05.44.73.21-.13-.07-.64,1.31.24.63.24.65,0c.24.27.43.7.72.78,1,.29,2,.43,2.92.7C57.82,196.41,57.89,196.8,58,197Z" transform="translate(-42.44 -58.89)"/><path class="cls-11" d="M86.33,195.69l.5-.14,1.18-.28c.59.19,1.56-1.05,1.8.47-1.62,1.88-3.9,2-6.12,2.32,0-.5,0-1-.07-1.52l1.39-.85h1.32Z" transform="translate(-42.44 -58.89)"/><path class="cls-10" d="M89.78,185.61h.31c.23.73.45,1.46.68,2.19-.84.12-.76.62-.53,1.23s.41,1.28.61,1.91l-1.33.27-.51,0a6,6,0,0,1-.81-.48,8.76,8.76,0,0,1-.79-.82,3.22,3.22,0,0,1,.87-.58c.91-.25,1.27-.66.65-1.52V187a.36.36,0,0,1,.12-.08l.64-.47Z" transform="translate(-42.44 -58.89)"/><path class="cls-11" d="M51.93,196.51c1.63-.22,3.33-.81,4.63.82-.05.45-.09.89-.14,1.33l-4-.83Z" transform="translate(-42.44 -58.89)"/><path class="cls-12" d="M47.66,189.35c.21-.95.41-1.91.62-2.86l1.44,1.44.76,2.12-.72.76-1.5.08-.93-.47.1-.53Zm1.79.47c-.07,0-.16-.1-.21-.08a.2.2,0,0,0-.09.2.22.22,0,0,0,.2.09S49.42,189.9,49.45,189.82Z" transform="translate(-42.44 -58.89)"/><path class="cls-12" d="M94.29,98.59l.44,0c0,.68-.09,1.36-.14,2.05l0,.55c-.4,3.52-.79,7-1.19,10.56l-.37-.26c0-.27,0-.53,0-.79.32-3.77.66-7.54,1-11.32v-.56Z" transform="translate(-42.44 -58.89)"/><path class="cls-9" d="M49.73,187.93l-1.45-1.44.42-1.12a5.81,5.81,0,0,0,.83.41c.52.16,1.06.27,1.59.4l2.08,2h-.42l-.4-.36-.13.44.16.49Z" transform="translate(-42.44 -58.89)"/><path class="cls-9" d="M51.93,196.51l.52,1.32c-1.58.18-4.08-1.47-4.78-3.16,1.18.37,2.38.72,3.54,1.14C51.5,195.91,51.69,196.27,51.93,196.51Z" transform="translate(-42.44 -58.89)"/><path class="cls-13" d="M43.8,98.6l.72-1.07c.25.17.72.33.73.51.07,1.35,1.1,1.44,2,1.6a8.76,8.76,0,0,0,1.45,0h.5l0,.76-4-.47L44,99.62Z" transform="translate(-42.44 -58.89)"/><path class="cls-14" d="M83.62,196.54l.07,1.52-2.61.45.48-1.17-1.08-.79Z" transform="translate(-42.44 -58.89)"/><path class="cls-7" d="M49.22,138.51l-.13-.52-.17-.8-.12-.52.23-.27,1,1.35v1.58l.26,2.66-.44,0-.36-1.6,0-.47-.15-.59Z" transform="translate(-42.44 -58.89)"/><path class="cls-9" d="M80.48,196.55l1.08.79-.48,1.17-2.13.33,1-2Z" transform="translate(-42.44 -58.89)"/><path class="cls-12" d="M90.85,190.93c-.2-.63-.38-1.28-.61-1.91s-.31-1.11.53-1.23c.29,1.4.59,2.79.88,4.19l-.59-.26Z" transform="translate(-42.44 -58.89)"/><path class="cls-5" d="M49,136.4l-.23.27q-.55-3.15-1.12-6.32c.27.89.53,1.78.79,2.68,0,.15,0,.3,0,.46l.5,2.18Z" transform="translate(-42.44 -58.89)"/><path class="cls-8" d="M47.33,190.42l.93.47a16.82,16.82,0,0,1,.79,1.52,4.55,4.55,0,0,1,.2,1L47,191.53C47.07,191.16,47.2,190.79,47.33,190.42Z" transform="translate(-42.44 -58.89)"/><path class="cls-6" d="M86.66,174.25a3.66,3.66,0,0,1-.89-3.95l.81,2.76,0,.12Z" transform="translate(-42.44 -58.89)"/><path class="cls-8" d="M94.83,70.18l-1.35.33.82-1.61C94.47,69.33,94.65,69.75,94.83,70.18Z" transform="translate(-42.44 -58.89)"/><path class="cls-5" d="M47.08,126.08l.14,1.33Z" transform="translate(-42.44 -58.89)"/><path class="cls-5" d="M47.38,128.24l.12,1Z" transform="translate(-42.44 -58.89)"/><path class="cls-5" d="M49.22,138.51l.14.8Z" transform="translate(-42.44 -58.89)"/><path class="cls-6" d="M49.91,142l.44,0c0,.26,0,.51,0,.77l-.09.34Z" transform="translate(-42.44 -58.89)"/><path class="cls-7" d="M50.3,143.1l.09-.34c.08.27.15.54.23.81h-.25Z" transform="translate(-42.44 -58.89)"/><path class="cls-5" d="M48.92,137.19l.17.8Z" transform="translate(-42.44 -58.89)"/><path class="cls-5" d="M46.89,124.79l.08.49Z" transform="translate(-42.44 -58.89)"/><path class="cls-8" d="M47.66,189.35l-.23.54Z" transform="translate(-42.44 -58.89)"/><path class="cls-6" d="M44.25,102.8c0,.24,0,.48,0,.72C44.27,103.28,44.26,103,44.25,102.8Z" transform="translate(-42.44 -58.89)"/><path class="cls-6" d="M87,174.47l-.19.4-.15,0c0-.2,0-.41,0-.61Z" transform="translate(-42.44 -58.89)"/><path class="cls-5" d="M49.51,139.9l0,.47Z" transform="translate(-42.44 -58.89)"/><path class="cls-9" d="M94.56,101.23l0-.55Z" transform="translate(-42.44 -58.89)"/><polygon class="cls-5" points="44.17 114.3 44.15 114.17 44.23 114.22 44.17 114.3"/><path class="cls-15" d="M72,71.58,48.23,71.3l1.46-1.16-1.1-.07-.15-.33,4-2.66H53a22.24,22.24,0,0,1,4.37.61,6.27,6.27,0,0,0,5.43-.6,1.43,1.43,0,0,1,2.17.53l-2.16.72,2.33,1.54-1.7.85,0,.2h2.26c.2-1.42,1-1.84,2.56-1.35a10.59,10.59,0,0,0,6.74-.4,11.75,11.75,0,0,1,1.61-.29c.15,2-.78,2.72-2.45,2A1.57,1.57,0,0,0,72,71.58Z" transform="translate(-42.44 -58.89)"/><path class="cls-4" d="M83.68,71.06l-2.1.26c-.07-1,.62-1.3,1.39-1.27C83.22,70.07,83.44,70.71,83.68,71.06Z" transform="translate(-42.44 -58.89)"/><path class="cls-16" d="M91.35,122.39l0,.81c-.51.55-1.54,1.23-1.45,1.63.31,1.25-.45,2.07-.75,3.06a7.14,7.14,0,0,0-.4,1.21c-.28,2.66-.58,5.32-.75,8a28.66,28.66,0,0,0,.21,3.58c0,.18,0,.36,0,.53-1.53.61-.93,2.09-1.3,3.18-.15.67-.28,1.35-.44,2,0,.19-.26.44-.19.54.82,1.36-.47,1.87-1,2.77,1.21,1.15.08,2.36-.16,3.52-.36,1.67-1.5,3.18-.84,5a1.33,1.33,0,0,1-.24,1c-1,1.38-1.53,3.15-3.42,3.66,0-.27,0-.54,0-.81s0-.8,0-1.19c0-1,.08-1.76,1.41-1.1.18.09.63-.34,1-.53-1.33-.22-1.7-.62-1.4-1.44a13.34,13.34,0,0,0,.86-3.19c.2-2,.15-4.06,1.76-5.64.34-.33.72-1.07.57-1.35a3.44,3.44,0,0,1-.06-2.58,54.83,54.83,0,0,0,.7-6.28,10.47,10.47,0,0,0-.18-1.88,3.59,3.59,0,0,0,0-1.13,6.34,6.34,0,0,0-.67-1.22v-2.38l.26-.53a15.61,15.61,0,0,0,.52-1.86c.46-2.88.32-5.79,1-8.7.69-3.17.48-6.54.67-9.83.16.17.43.32.48.51.3,1.22.51,2.46.85,3.66.11.4.52.7.79,1,.19-.41.38-.81.55-1.22a3.06,3.06,0,0,0,.11-.53c1.12.16,1.32.94,1.43,1.79.07.55.18,1.09.27,1.63v1.59Z" transform="translate(-42.44 -58.89)"/><path class="cls-17" d="M80.51,162.1c0,.27,0,.54,0,.81l.3,2.88c0,.18,0,.36,0,.54l0,1.06v1.06l.06.55-.1.49c-.68.36-.68.73,0,1.09l.08,1.3c-.36.83-.66,1.66.2,2.4a5.47,5.47,0,0,1,.51,1.17c.26,1.61.41,3.25.7,4.87a6.77,6.77,0,0,0,.74,1.6l.1.55.93,4.24a1.45,1.45,0,0,1-2.16.8,38.24,38.24,0,0,0-4.89-1.28c-2-.28-4.14-.19-6.21-.33-.62,0-1.23-.48-1.85-.47-2.3,0-4.59.14-6.88.22l.51-2.38c.69.34,1.12,1,2.1,1.08.8.09,1.59.29,2.46.32,1.32,0,1.14-1,1.66-1.78l1,1.77.74-2.15c.29.59.37,1,.61,1.21a3.88,3.88,0,0,0,1.35.77,7.84,7.84,0,0,0,1.88.18,27,27,0,0,0,4.5-.07c1.35-.21,1.56-.91,1-2.15L81,181.5c-1.58.05-1.94-.56-1.89-1.7a11.69,11.69,0,0,0-.47-2.2c-.22-1.34-.41-2.69-.53-4a1.06,1.06,0,0,1,.51-.81c1.09-.54.25-1.21.11-1.78a3.55,3.55,0,0,0-1.27.05,4.25,4.25,0,0,0-.9.31l-.21-1.47c-.35.09-.93.09-1,.29-.62,1.5-1.81,1.4-3.06,1.21.08-.15.16-.43.23-.42,1.42.06,1.63-.93,1.87-2,.36-1.7,1-2,2.72-1.69.6.11,1.67.09,1.79-.18a2.93,2.93,0,0,0,0-2.08C77.94,163,78.36,162.11,80.51,162.1Z" transform="translate(-42.44 -58.89)"/><path class="cls-13" d="M80.77,168.45c0-.35,0-.71,0-1.06l0-1.06c0-.18,0-.36,0-.54.49-.77.94-.18,1.18.16a2.57,2.57,0,0,1,.31,1.46c1.11,1.67,2,2.81.85,4.53,1,.26,1.45.78.74,1.76-.09.11,0,.39,0,.57.29.89.66,1.75.9,2.65s.38,1.79.58,2.77c1.22-.79,1.1.29,1.43,1.11l-1.11-.37c.13.61.23,1.06.32,1.51a8.13,8.13,0,0,0,.45,2.46c.21.41,1.08.48,1.66.7l.26.54c-.25,1.14-1,1.48-2.38,1.07A3.91,3.91,0,0,1,85,183.33c0-.14-.18-.29-.23-.45-.27-.74-.55-1.48-.78-2.23s.09-1.6-1.07-1.6l.48-2.41-1-.63c.91-2.39.66-3.11-1.09-3.32-.09-.27-.19-.53-.28-.8l1.61-1.95L81,169Z" transform="translate(-42.44 -58.89)"/><path class="cls-18" d="M88.19,185.1c-.58-.22-1.45-.29-1.66-.7a8.13,8.13,0,0,1-.45-2.46l1.45.23.31-1.67C88.82,182.17,88.39,183.64,88.19,185.1Z" transform="translate(-42.44 -58.89)"/><path class="cls-19" d="M86.07,186.71c1.38.41,2.13.07,2.38-1.07l1.33,0c0,.29,0,.57-.08.86l-.64.47a.36.36,0,0,0-.12.08l-.73.68-2.13.09h-.53Z" transform="translate(-42.44 -58.89)"/><path class="cls-20" d="M86.87,144.37c.37-1.09-.23-2.57,1.3-3.18-.08.53-.16,1.06-.25,1.59Z" transform="translate(-42.44 -58.89)"/><path class="cls-18" d="M87.12,179.62l.33-.19c0,.11.15.23.14.32s-.17.15-.25.22Z" transform="translate(-42.44 -58.89)"/><path class="cls-3" d="M52.46,67.08l-4,2.66.15.33,1.1.07L48.23,71.3,46.12,71a3.8,3.8,0,0,0,1.25-3c0-.26.75-.82,1.2-.87C49.85,67,51.16,67.09,52.46,67.08Z" transform="translate(-42.44 -58.89)"/><path class="cls-21" d="M54.05,155.74l-.54-1.84c.24-.18.67-.33.7-.54.21-1.44.35-2.9.55-4.74.54-.9.19-2.64,1.35-3.78.07-.07-.09-.33-.09-.5,0-.79,0-1.58.06-2.36,0-.32.1-.64.13-1,.08-.82.14-1.65.22-2.48.34.53.69,1.06,1,1.61a9,9,0,0,1,.39.95,4.49,4.49,0,0,0,.69-1.08,11.09,11.09,0,0,0,.29-1.74c.07.1.2.2.22.31l.87,8c0,.11.13.2,0,0l2.33-.17h.27l-1.62,1,1.22.52c.33,1.62.66,3.18,1,4.88a5.1,5.1,0,0,0-.1,3.24c.27.81.35,1.69.56,2.53.38,1.52-.72,3.32.86,4.65l-.87-.16-1.18.65c-.43-2.76-1.79-4.74-3.31-4.67l.61.76-1.42,2.73A11,11,0,0,1,57,161.06c-1-1.91-.67-4.05-.86-6.09a5.91,5.91,0,0,0-.48-1.31c-.28.4-.54.81-.83,1.19S54.31,155.45,54.05,155.74Z" transform="translate(-42.44 -58.89)"/><path class="cls-17" d="M54.05,155.74c.26-.29.54-.57.79-.89s.55-.79.83-1.19a5.91,5.91,0,0,1,.48,1.31c.19,2-.15,4.18.86,6.09a11,11,0,0,0,1.26,1.57v.79l-.52.8a9.71,9.71,0,0,0-1,2.66,39.66,39.66,0,0,0,.21,4.74v.54l-.27.79-.27,1.32a24.53,24.53,0,0,0-1.94,4.21c-.54,2.12-.87,2.59-3.1,2.68.31-1.16.63-2.32.9-3.49q.81-3.51,1.56-7a40.08,40.08,0,0,0,.82-4.32,24.43,24.43,0,0,0,0-4.19C54.54,160,54.27,157.87,54.05,155.74Z" transform="translate(-42.44 -58.89)"/><path class="cls-22" d="M56.43,138.54c-.08.83-.14,1.66-.22,2.48,0,.32-.12.64-.13,1,0,.78,0,1.57-.06,2.36,0,.17.16.43.09.5-1.16,1.14-.81,2.88-1.35,3.78-.2,1.84-.34,3.3-.55,4.74,0,.21-.46.36-.7.54l-.26-.54v-.79A10,10,0,0,0,53,151a15.3,15.3,0,0,0-.76-1.65c0-.25,0-.51,0-.77s-.17-.72-.26-1.08V144.9l-.27-1.6-.26-1.85c2.41-.34,2.69-1.81,2.57-3.12-.08-.84-.41-1.6.43-2.25.12-.09,0-.65-.17-.9-.58-.92-1.3-1.77-.53-3,.14-.21,0-.6,0-.9.09-.77.21-1.54.32-2.32a2.23,2.23,0,0,1,.34.13c-.3,1.39,1,2.19,1.51,3.07.7,1.11.58,1.66-.17,2.44,1.64.57,1.91,1.32,1.09,2.82A7.56,7.56,0,0,0,56.43,138.54Z" transform="translate(-42.44 -58.89)"/><path class="cls-16" d="M51.39,181.16c2.23-.09,2.56-.56,3.1-2.68a24.53,24.53,0,0,1,1.94-4.21,5.11,5.11,0,0,1,.24,1.31c0,.35-.48.72-.43,1,.31,2.18-.57,4.12-1.14,6.13-1,.25-.63,1-.51,1.58h0a9.47,9.47,0,0,1-1.66.23,18.11,18.11,0,0,1-2.05-.23Z" transform="translate(-42.44 -58.89)"/><path class="cls-5" d="M50.87,184.34a18.11,18.11,0,0,0,2.05.23,9.47,9.47,0,0,0,1.66-.23c0,.55-.08,1.1-.11,1.53l1.16.83c-.17.83-.31,1.69-1.53,1.18-.05,0-.24.27-.36.42l-.54-.07-2.08-2C51,185.56,51,185,50.87,184.34Z" transform="translate(-42.44 -58.89)"/><path class="cls-23" d="M51.4,141.45c.08.62.17,1.23.26,1.85l-.53.81-.51-.54c-.08-.27-.15-.54-.23-.81s0-.51,0-.77c-.09-.89-.17-1.77-.26-2.66C51.53,139.42,51,140.75,51.4,141.45Z" transform="translate(-42.44 -58.89)"/><path class="cls-23" d="M52.2,149.38A15.3,15.3,0,0,1,53,151a10,10,0,0,1,.29,1.54Z" transform="translate(-42.44 -58.89)"/><path class="cls-23" d="M51.93,144.9v2.39c-.27-.8-.53-1.6-.79-2.4Z" transform="translate(-42.44 -58.89)"/><path class="cls-24" d="M51.93,144.9h-.79c0-.26,0-.52,0-.78l.53-.81Z" transform="translate(-42.44 -58.89)"/><path class="cls-23" d="M51.93,147.53c.09.36.17.72.26,1.08C52.1,148.25,52,147.89,51.93,147.53Z" transform="translate(-42.44 -58.89)"/><path class="cls-23" d="M53.25,153.1v0Z" transform="translate(-42.44 -58.89)"/><path class="cls-24" d="M51.4,141.45c-.44-.7.13-2-1.31-2.12,0-.53,0-1.06,0-1.58a5,5,0,0,0,.19-1.36c-.2-1.45-.43-2.9-.75-4.33a4.47,4.47,0,0,0-.76-1.2c0-.53,0-1.05,0-1.58l.48-.46-.73-.34c.08-.61.16-1.23.25-1.84l-.52-.8c-.1-1.86-.19-3.71-.28-5.56a5.09,5.09,0,0,1,.93,4c-.08.27.11.6.18.91a3.26,3.26,0,0,0,1.16-.33,1.59,1.59,0,0,0,.53-1c.16-1.6.3-3.21.34-4.82.06-2.5,0-5,0-7.51h.28l1.05,2.91c-.49.44-.84.88,0,1.32l.27,1.32.27,1.6v.52a8,8,0,0,0-.08,1.46,17.28,17.28,0,0,0,.65,3.23c.32.94-.57,2.51,1.28,2.73l.26.26a3.7,3.7,0,0,1-.61.35c-.5.18-1,.32-1.8.56l1.36,1.2c-.11.78-.23,1.55-.32,2.32,0,.3.11.69,0,.9-.77,1.18-.05,2,.53,3,.15.25.29.81.17.9-.84.65-.51,1.41-.43,2.25C54.09,139.64,53.81,141.11,51.4,141.45Zm-1.17-12.77-.22-.1c0,.07-.1.16-.08.22s.13.06.2.1Z" transform="translate(-42.44 -58.89)"/><path class="cls-25" d="M51.13,111.55c0,2.5,0,5,0,7.51,0,1.61-.18,3.22-.34,4.82a1.59,1.59,0,0,1-.53,1,3.26,3.26,0,0,1-1.16.33c-.07-.31-.26-.64-.18-.91a5.09,5.09,0,0,0-.93-4,22.59,22.59,0,0,1-1.09-6.17c-.14-2.55-.62-5.08-.89-7.63-.19-1.75-.27-3.51-.4-5.26l3.71.53a6.33,6.33,0,0,1,1,1.76c.23,1.25.19,2.55.31,3.82S51,110.14,51.13,111.55Z" transform="translate(-42.44 -58.89)"/><path class="cls-6" d="M49.28,101.75l-3.71-.53L45.3,100l4,.47.53,0,2.11.55v.48l-1.06.27Z" transform="translate(-42.44 -58.89)"/><path class="cls-23" d="M48.76,130.86a4.47,4.47,0,0,1,.76,1.2c.32,1.43.55,2.88.75,4.33a5,5,0,0,1-.19,1.36l-1-1.35c0-.24,0-.49,0-.73a1.44,1.44,0,0,0-.5-2.18c0-.16,0-.31,0-.46C48.56,132.3,48.66,131.58,48.76,130.86Z" transform="translate(-42.44 -58.89)"/><path class="cls-25" d="M48.5,128.48l.73.34-.48.46C48.66,129,48.58,128.75,48.5,128.48Z" transform="translate(-42.44 -58.89)"/><path class="cls-25" d="M48.23,125.84l.52.8Z" transform="translate(-42.44 -58.89)"/><path class="cls-26" d="M44.23,77.39c0-.17,0-.33,0-.5.68-1,1.23-2,.38-3.24-.13-.18.44-.84.69-1.27,1.23,1.09,1.48,2,1,3.36a4.44,4.44,0,0,0-.37,1.36c0,.87.2,1.75.19,2.62a30.46,30.46,0,0,0-.21,3.13c.2,2.15.86,4.29.78,6.41-.07,1.78.75,3,1.37,4.46a2.31,2.31,0,0,1,.2.76c.18,2,2.45,2.52,3,4.24,0,0,.16.07.24.07h2.12a11.66,11.66,0,0,1,2-1.46,6.19,6.19,0,0,1,2-.21c.1-.23.21-.15.32-.08l1,.64c.09-.43.16-.86.26-1.28s.11-.81.29-.88c.91-.34.67-1,.55-1.64-.19-.92.76-3.36,1.6-3.69,1.4-.55,2.87-.93,4.29-1.44a1.87,1.87,0,0,0,1-.73c.09-.14-.33-.58-.51-.89s-.69-.86-.59-1A4.05,4.05,0,0,1,67,85.24l.71,1.6c.22-.34.37-.49.34-.54-1-1.63.18-2.27,1.35-2.89a11.2,11.2,0,0,0,1.28-.69c.91-.66,1.86-1.2,1.46-2.72-.27-1-.4-2.27,1.19-2.78a8.43,8.43,0,0,0,2.13-1.58,7.52,7.52,0,0,0,2.22.64A10.29,10.29,0,0,0,80,75.57c.39-.1,1-.16,1.19,0,1,1.23,1.92,1.48,3.11.34a1.78,1.78,0,0,1,.87-.31A1.3,1.3,0,0,1,86.85,77c-.12,2.09.79,3.86,1.6,5.68v1.06l-1.81-1.69a46.65,46.65,0,0,0-5.48,1.23c-1.2.42-2,1.67-3.42,1.86-.11,0-.2.28-.26.44-.34.87-1,1.07-1.88,1.09-2.64.06-2.85.3-3.61,2.67a1.48,1.48,0,0,1-1.14.71c-1.75,0-3.47-.07-4,1.85l-2-1.55A3,3,0,0,0,62,92.06l2.38.46.35.46.46-.47h.52a7.81,7.81,0,0,1,.39,2.29c0,.26-1,.43-1.57.6-.24.07-.54,0-.78,0-.78.24-1.62.43-.88,1.59A2.16,2.16,0,0,1,63,98.16h-3.5c.74,1.37.78,2.14-.8,2.06-.29,0-.61.49-.92.75L57,101l-3.75-.24-1-.08-.25-.34c-1.4-1.11-2.75-2.29-4.22-3.3a9.8,9.8,0,0,0-2.4-.88c.06-.82.18-1.64.16-2.46a28,28,0,0,0-.29-3.43,23.87,23.87,0,0,0-.67-2.58c0-.08,0-.17,0-.26,0-3,0-6.06,0-9.09A3.62,3.62,0,0,0,44.23,77.39Zm31.91,4.54a7.11,7.11,0,0,0,2.13-1.1c.21-.22-.2-1.21-.53-1.72-.5-.76-2.82-1-3.55-.37-.94.75-.35,1.6.09,2.2S75.4,81.56,76.14,81.93ZM58.33,99c-.13.24-.26.38-.25.5s.25.28.31.26a.55.55,0,0,0,.29-.36C58.7,99.32,58.51,99.2,58.33,99Z" transform="translate(-42.44 -58.89)"/><path class="cls-27" d="M88.45,82.7c-.81-1.82-1.72-3.59-1.6-5.68a1.3,1.3,0,0,0-1.71-1.38,1.78,1.78,0,0,0-.87.31c-1.19,1.14-2.15.89-3.11-.34-.16-.2-.8-.14-1.19,0a10.29,10.29,0,0,1-2.32.71,7.52,7.52,0,0,1-2.22-.64,8.43,8.43,0,0,1-2.13,1.58c-1.59.51-1.46,1.77-1.19,2.78.4,1.52-.55,2.06-1.46,2.72a11.2,11.2,0,0,1-1.28.69C68.2,84,67.06,84.67,68,86.3c0,0-.12.2-.34.54L67,85.24a4.05,4.05,0,0,0-1.17.89c-.1.15.37.66.59,1s.6.75.51.89a1.87,1.87,0,0,1-1,.73c-1.42.51-2.89.89-4.29,1.44-.84.33-1.79,2.77-1.6,3.69.12.64.36,1.3-.55,1.64-.18.07-.22.57-.29.88s-.17.85-.26,1.28l-1-.64c-.11-.07-.22-.15-.32.08a6.19,6.19,0,0,0-2,.21,11.66,11.66,0,0,0-2,1.46H51.49c-.08,0-.23,0-.24-.07-.57-1.72-2.84-2.24-3-4.24a2.31,2.31,0,0,0-.2-.76c-.62-1.42-1.44-2.68-1.37-4.46.08-2.12-.58-4.26-.78-6.41a30.46,30.46,0,0,1,.21-3.13c0-.87-.19-1.75-.19-2.62a4.44,4.44,0,0,1,.37-1.36c.52-1.36.27-2.27-1-3.36.09-.18.19-.51.27-.5a10,10,0,0,1,1.33.25l.25.25c.09,3.13.29,6.28.23,9.41a12.49,12.49,0,0,0,1.14,4.93c.41,1,1,2,1.53,3.06-.79,1.06,0,3.16.65,5a3.28,3.28,0,0,0,4,1.9c.87-.22,1.55-.58,1.49-1.68a4.52,4.52,0,0,1,.34-1.31c.51,0,1.09.1,1.22-.09.6-.86,1.07-1.8,1.6-2.71a5.74,5.74,0,0,1,.61-.79c.48-.55,1.42-1.13,1.37-1.62-.16-1.61.84-1.44,1.8-1.51.31,0,.63-.12.95-.18l-.49-1.61,2.68-2.07c-1-.43-.9-.34-2.28.59a6.06,6.06,0,0,1-2.28.41,6.39,6.39,0,0,1,.14-2c.13-.35.79-.62,1.25-.7.73-.11,1.5,0,2.24,0,.33,0,.93-.17.93-.29,0-1,1.46-1.8.52-3-.08-.1.06-.38.09-.58l.24.36c.83-.33,1.69-.62,2.5-1,.65-.3,1-.69.55-1.56s-.74-1.86.65-2.31c.11,0,.11-.4.16-.6l12.71-.28.84,1.2,1.28-1.21,1.6-.25c.26,1.09.58,2.18.77,3.28.24,1.36.37,2.74.54,4.11Zm-9.06-9.38L77.76,74C79,74.71,79.1,74.67,79.39,73.32Z" transform="translate(-42.44 -58.89)"/><path class="cls-3" d="M71,72.4c0,.2,0,.56-.16.6-1.39.45-1.07,1.49-.65,2.31s.1,1.26-.55,1.56c-.81.38-1.67.67-2.5,1l-.24-.36c0,.2-.17.48-.09.58.94,1.18-.47,2-.52,3,0,.12-.6.27-.93.29-.74,0-1.51-.07-2.24,0-.46.08-1.12.35-1.25.7a6.39,6.39,0,0,0-.14,2A6.06,6.06,0,0,0,64,83.66c1.38-.93,1.32-1,2.28-.59l-2.68,2.07.49,1.61c-.32.06-.64.15-.95.18-1,.07-2-.1-1.8,1.51.05.49-.89,1.07-1.37,1.62a5.74,5.74,0,0,0-.61.79c-.53.91-1,1.85-1.6,2.71-.13.19-.71.06-1.22.09A4.52,4.52,0,0,0,56.19,95c.06,1.1-.62,1.46-1.49,1.68a3.28,3.28,0,0,1-4-1.9c-.66-1.8-1.44-3.9-.65-5-.55-1.09-1.12-2-1.53-3.06a12.49,12.49,0,0,1-1.14-4.93c.06-3.13-.14-6.28-.23-9.41v-.25h.55c.79.36,1.79.45,1.63,1.78a10.87,10.87,0,0,0,.11,2.67c.13,1,.49,1.91.61,2.88.24,2-.41,4,.26,6,.51,1.5.47,3.3,2.71,3.51.24,0,.61,1,.54,1.43s-.61,1.07.19,1.2c.38.07,1-.5,1.31-.92s.33-1.11.67-1.52c.94-1.16,2-2.21,3-3.36a2.46,2.46,0,0,0,.59-1.39c0-1.5-.44-3.06.92-4.26.06,0,.07-.15.09-.24L60.65,78a.25.25,0,0,0,0-.42c-1.14-1-1.15-1.52.18-2.37.94-.61,2-.94,3-1.53.45-.27.7-.85,1-1.29Zm-4.79,3.34-.38.29c.07.09.16.26.19.25a.63.63,0,0,0,.34-.23S66.25,75.86,66.19,75.74Z" transform="translate(-42.44 -58.89)"/><path class="cls-15" d="M64.89,72.4c-.34.44-.59,1-1,1.29-1,.59-2.07.92-3,1.53-1.33.85-1.32,1.33-.18,2.37a.25.25,0,0,1,0,.42l-.33,1.84c0,.09,0,.19-.09.24-1.36,1.2-.93,2.76-.92,4.26a2.46,2.46,0,0,1-.59,1.39c-1,1.15-2,2.2-3,3.36-.34.41-.34,1.09-.67,1.52s-.93,1-1.31.92c-.8-.13-.26-.71-.19-1.2s-.3-1.41-.54-1.43c-2.24-.21-2.2-2-2.71-3.51-.67-2,0-4-.26-6-.12-1-.48-1.91-.61-2.88a10.87,10.87,0,0,1-.11-2.67c.16-1.33-.84-1.42-1.63-1.78l11.9.25.8.26Z" transform="translate(-42.44 -58.89)"/><path class="cls-4" d="M93.22,71.29c.58.32,1.63-.87,1.87.57-.8-.09-.82.42-.82,1a48.56,48.56,0,0,1,0,5.26c-.17,1.59-.63,3.13-.86,4.74A30.39,30.39,0,0,1,91,91.38c-.1.21-.66.22-1,.32l-1.58-.94v-4.1c.81.23,1.67.91,2.14-.54A18.27,18.27,0,0,0,91.94,80a31.43,31.43,0,0,1,.56-4.38,2.39,2.39,0,0,0,0-1.25,2,2,0,0,1,.74-2.84Z" transform="translate(-42.44 -58.89)"/><path class="cls-3" d="M93.22,71.57a2,2,0,0,0-.74,2.84,2.39,2.39,0,0,1,0,1.25A31.43,31.43,0,0,0,91.94,80a18.27,18.27,0,0,1-1.34,6.08c-.47,1.45-1.33.77-2.14.54,0-.08,0-.17,0-.26,0-.71.7-1.42,0-2.12V82.7l.27-3.45a3,3,0,0,0,2.11-2.77c0-1.55,0-3.1,0-4.65Z" transform="translate(-42.44 -58.89)"/><path class="cls-15" d="M90.84,71.83c0,1.55,0,3.1,0,4.65a3,3,0,0,1-2.11,2.77c-.17-1.37-.3-2.75-.54-4.11C88,74,87.67,73,87.41,71.86Z" transform="translate(-42.44 -58.89)"/><path class="cls-26" d="M85.81,72.11l-1.28,1.21-.84-1.2Z" transform="translate(-42.44 -58.89)"/><path class="cls-27" d="M60.41,72.63l-.8-.26Z" transform="translate(-42.44 -58.89)"/><path class="cls-15" d="M47.16,72.13v.25l-.25-.25Z" transform="translate(-42.44 -58.89)"/><path class="cls-28" d="M44.52,87.72a23.87,23.87,0,0,1,.67,2.58,28,28,0,0,1,.29,3.43c0,.82-.1,1.64-.16,2.46a6.86,6.86,0,0,0,.89,1.33c.8.76,1.68,1.43,2.53,2.14a8.76,8.76,0,0,1-1.45,0c-.94-.16-2-.25-2-1.6,0-.18-.48-.34-.73-.51-.08-1.55-.14-3.11-.24-4.66-.07-1-.29-2-.26-3A9.67,9.67,0,0,1,44.52,87.72Z" transform="translate(-42.44 -58.89)"/><path class="cls-8" d="M44.23,77.39a3.62,3.62,0,0,1,.28,1c0,3,0,6.06,0,9.09-.21-.28-.56-.54-.62-.85a25.79,25.79,0,0,1-.35-3c0-.61.08-1.22.09-1.83a18,18,0,0,1,0-2.2A15.49,15.49,0,0,1,44.23,77.39Z" transform="translate(-42.44 -58.89)"/><path class="cls-4" d="M77.59,197.1a5.16,5.16,0,0,1-1.19.7,6.34,6.34,0,0,1-1.52,0l-.12,1.07H66.6a12.87,12.87,0,0,1-2.06,0c-.44-.08-.82-.48-1.25-.67s-.78-.25-1.16-.39-.79-.31-1.19-.47l3.15,0c.19.13.38.37.56.37a16.17,16.17,0,0,0,1.84-.2c1.23-.16,2.47-.35,3.7-.52a3.56,3.56,0,0,0,.67-.53c.77-1,1.5-1.06,2.24,0l-1.69.48.06.41,3.25-.18Z" transform="translate(-42.44 -58.89)"/><path class="cls-14" d="M64.09,197.39l-3.15,0L58,197c-.12-.23-.19-.62-.36-.67-1-.27-2-.41-2.92-.7-.29-.08-.48-.51-.72-.78l.56,0c.45.17.91,1,1.34,0a8.6,8.6,0,0,0,1.55.64c2,.39,4,.72,6.06,1.08H64Z" transform="translate(-42.44 -58.89)"/><path class="cls-12" d="M80.48,196.55l-.5.26-.79,0c.28-.4.56-.81.83-1.22l1.78-.73,2.07-1,1.13.58c0,.44,0,.87,0,1.31l-1.39.85Z" transform="translate(-42.44 -58.89)"/><path class="cls-14" d="M80,195.57c-.27.41-.55.82-.83,1.22l-1.6.31-2.87.14c0-.21,0-.41,0-.61l3.16-.66Z" transform="translate(-42.44 -58.89)"/><path class="cls-5" d="M91.37,119.75v-1.59c.26-1.58.56-3.17.78-4.76.17-1.25.23-2.52.34-3.78.24-2.57.5-5.13.71-7.69,0-.51.22-1.39-.69-1.17a2.17,2.17,0,0,0-1.23,1.3c-.57,1.85-.86,3.8-1.53,5.62-.18.52-.62,1.74-1.83,1.22v-1.06l-.77-.8.27-1.31c1.51-1.09,1.61-1.67.5-2.92l-.25-2-1.34-.41,1.58-.27.28,0,2.43-.49.48,0c.4,0,.79,0,1.18,0,.58-.06,1.16-.14,1.74-.22-.33,3.78-.67,7.55-1,11.32,0,.26,0,.52,0,.79-.37,2.55-.73,5.1-1.12,7.65a1.74,1.74,0,0,1-.27.57Z" transform="translate(-42.44 -58.89)"/><path class="cls-20" d="M88.18,140.66a28.66,28.66,0,0,1-.21-3.58c.17-2.66.47-5.32.75-8a7.14,7.14,0,0,1,.4-1.21c.3-1,1.06-1.81.75-3.06-.09-.4.94-1.08,1.45-1.63-.25,1.53-.51,3.07-.77,4.6-.35,2-.69,3.91-1,5.86C89.07,136,88.62,138.33,88.18,140.66Z" transform="translate(-42.44 -58.89)"/><path class="cls-20" d="M91.37,119.75h.24c-.08.88-.17,1.76-.26,2.64C91.36,121.51,91.36,120.63,91.37,119.75Z" transform="translate(-42.44 -58.89)"/><path class="cls-19" d="M91.1,99.68l-.48,0-2.43.49-.28,0a4.88,4.88,0,0,0-1.35-.52c-2-.14-3.94-.16-5.9-.3-.76-.06-1.53-.53-2.24-.43-2,.26-3.9.85-5.87,1.08s-3.7.13-5.55.19a6.29,6.29,0,0,1,1.68-.8c1.64-.26,3.24-.46,3.67-2.44.65-.39,1.08-1,1.68-1.41a6.62,6.62,0,0,1,2-.79,3.84,3.84,0,0,1,1.16.07l0-.33c-.23,0-.45-.1-.68-.17-.68-.19-1.41-1.65-.94-2.1a35.29,35.29,0,0,1,3-2.4A5.26,5.26,0,0,0,79,91.11a5,5,0,0,0,.75.77c.11-.3.24-.6.34-.9a4.36,4.36,0,0,0,.16-.56,19.94,19.94,0,0,0,3.22.67c2,.06,4.22,1.68,4.45,3.7a28.84,28.84,0,0,1-.18,3.57c0,.33.37,1,.52,1a19,19,0,0,0,2.36-.47c.59-.54,1.54-1,1.7-1.64.4-1.57.58-1.93,2.25-2.07-.08,1.15-.16,2.31-.23,3.46l-.26.27Z" transform="translate(-42.44 -58.89)"/><path class="cls-8" d="M94.52,95.13c-1.67.14-1.85.5-2.25,2.07-.16.65-1.11,1.1-1.7,1.64l-.79-.79c.72-2,1.26-4,.08-6,0-.05.12-.21.18-.31.34-.1.9-.11,1-.32a30.39,30.39,0,0,0,2.33-8.52c.23-1.61.69-3.15.86-4.74a48.56,48.56,0,0,0,0-5.26c0-.58,0-1.09.82-1C95.65,79.63,94.93,87.38,94.52,95.13Z" transform="translate(-42.44 -58.89)"/><path class="cls-14" d="M86.08,187.79l2.13-.09.72.05c.62.86.26,1.27-.65,1.52a3.22,3.22,0,0,0-.87.58,8.76,8.76,0,0,0,.79.82,6,6,0,0,0,.81.48l-.78,1.12a13.13,13.13,0,0,0-1.67.41c-.22.08-.34.4-.5.62h-.48l-.28,0a.22.22,0,0,0,0-.16l-.64-1.82.11-.62,2,1.05Z" transform="translate(-42.44 -58.89)"/><path class="cls-9" d="M88.23,192.27l.78-1.12.51,0c.11.36.22.73.34,1.1l-1.48,1.3Z" transform="translate(-42.44 -58.89)"/><path class="cls-14" d="M89.86,192.3c-.12-.37-.23-.74-.34-1.1l1.33-.27.21.79Z" transform="translate(-42.44 -58.89)"/><path class="cls-11" d="M85.3,193.27l.28,0c0,.18,0,.36,0,.54l-.54.53c-.38-.19-.76-.38-1.13-.58l.1-.2Z" transform="translate(-42.44 -58.89)"/><path class="cls-12" d="M85.54,193.85c0-.18,0-.36,0-.54h.48l.59.08,0,.21Z" transform="translate(-42.44 -58.89)"/><path class="cls-12" d="M88,195.27l-1.18.28Z" transform="translate(-42.44 -58.89)"/><path class="cls-12" d="M86.33,195.69h0Z" transform="translate(-42.44 -58.89)"/><path class="cls-9" d="M49.25,193.41a4.55,4.55,0,0,0-.2-1,16.82,16.82,0,0,0-.79-1.52l1.5-.08a6.73,6.73,0,0,1,1,.14c.74.24,1.46.52,2.18.78-1.31.81-1.35,1.18-.27,2.42l0,.51-1.31-.24-.58,0Z" transform="translate(-42.44 -58.89)"/><path class="cls-12" d="M52.7,194.15c-1.08-1.24-1-1.61.27-2.42l2.19-.31,1,.11-.25,1.23-.66,1.6-.64.55-.56,0-.65,0Z" transform="translate(-42.44 -58.89)"/><path class="cls-14" d="M50.84,194.46l.58,0c0,.21,0,.42.07.64l-.21.13Z" transform="translate(-42.44 -58.89)"/><path class="cls-14" d="M52.7,194.15l.66.75-.63-.24Z" transform="translate(-42.44 -58.89)"/><path class="cls-5" d="M88.93,187.75l-.72-.05.73-.68C88.93,187.26,88.93,187.51,88.93,187.75Z" transform="translate(-42.44 -58.89)"/><path class="cls-5" d="M89.06,186.94l.64-.47Z" transform="translate(-42.44 -58.89)"/><path class="cls-10" d="M55.16,191.42l-2.19.31c-.72-.26-1.44-.54-2.18-.78a6.73,6.73,0,0,0-1-.14l.72-.76-.76-2.12,2.69.88.72,1.42c.35-1.5,1.27-.65,2-.56C55.15,190.26,55.15,190.84,55.16,191.42Z" transform="translate(-42.44 -58.89)"/><path class="cls-10" d="M49.45,189.82c0,.08-.05.19-.1.21a.22.22,0,0,1-.2-.09.2.2,0,0,1,.09-.2S49.38,189.79,49.45,189.82Z" transform="translate(-42.44 -58.89)"/><path class="cls-13" d="M91.1,99.68,94,98.86c0,.19,0,.38,0,.56-.58.08-1.16.16-1.74.22C91.89,99.67,91.5,99.67,91.1,99.68Z" transform="translate(-42.44 -58.89)"/><path class="cls-12" d="M55.14,189.67c-.74-.09-1.66-.94-2,.56l-.72-1.42c0-.17-.11-.33-.16-.49l.53-.08h.42l.54.07,1.68.79C55.32,189.28,55.23,189.48,55.14,189.67Z" transform="translate(-42.44 -58.89)"/><path class="cls-5" d="M52.78,188.24l-.53.08c0-.15.08-.29.13-.44Z" transform="translate(-42.44 -58.89)"/><path class="cls-29" d="M48.74,99.66c-.85-.71-1.73-1.38-2.53-2.14a6.86,6.86,0,0,1-.89-1.33,9.8,9.8,0,0,1,2.4.88c1.47,1,2.82,2.19,4.22,3.3l-1.6-.19-1.1-.51Z" transform="translate(-42.44 -58.89)"/><path class="cls-28" d="M49.24,99.67l1.1.51-.53.27-.53,0Z" transform="translate(-42.44 -58.89)"/><path class="cls-7" d="M48.49,133.49a1.44,1.44,0,0,1,.5,2.18C48.83,134.94,48.66,134.21,48.49,133.49Z" transform="translate(-42.44 -58.89)"/><path class="cls-25" d="M87.42,105.73,87.15,107c0,.26,0,.53,0,.79L86.88,110v1.31c-.19,3.29,0,6.66-.67,9.83-.64,2.91-.5,5.82-1,8.7a15.61,15.61,0,0,1-.52,1.86l-.26.53v.26l-.26.27c-.73.37-1.48.71-2.17,1.15a1.61,1.61,0,0,0-.47.85,3.25,3.25,0,0,1-2.1,2.46,2.43,2.43,0,0,0-1.8,2.85,6,6,0,0,1-.12,1.09c-.1,1.92-2.26,2.14-3,3.6a3.05,3.05,0,0,1-1.95,1.1c-.45.11-1-.27-1.54-.48A14.17,14.17,0,0,0,68,144.08c-.63-.09-1.28.23-1.87-.37a1.48,1.48,0,0,0-1.11-.36,2,2,0,0,1-2.51-1.9l-.26-1.06a3,3,0,0,0-.53-3.44l.26-2.11v-.27h.66c1.06,0,2.16.21,2.35-1.35,0-.21.7-.47,1.07-.48,1.94-.05,3.88,0,5.82,0a3.38,3.38,0,0,1,1,.3c.34.13.89.47,1,.39a4.17,4.17,0,0,0,.61-1.21c.27-.66.34-1.52.81-1.94a3.53,3.53,0,0,0,1.32-3.36,3.48,3.48,0,0,1,0-1.44,2.18,2.18,0,0,1,.84-1.19c1-.56,1.65-1.2,1.4-2.49-.09-.42.2-1.26.48-1.35,1.09-.33,1.1-1.11.91-1.88a2.88,2.88,0,0,1,.31-2.61,1.38,1.38,0,0,0,0-1.15,16.45,16.45,0,0,0-2.33-.41c.19.45.4.9.59,1.36a2.14,2.14,0,0,1,.08.44l-.34.23c-.36-.46-.76-.89-1.08-1.38s-.58-1.46-1.1-1.91c-.85-.74-1.22-1.26-.08-2,.2-.13.27-.52.32-.81.25-1.39.48-2.78.72-4.26.83.24,1.61.53,2.41.68a1.63,1.63,0,0,0,1.22-.24,6.18,6.18,0,0,0,.84-1.55c-1.7.27-2.2,0-2-.85a2.62,2.62,0,0,1,4.52-1.23l-.47,1.35c.39-.13.78-.3,1.18-.39a11,11,0,0,1,1.27-.07c-.16-1.16.69-.93,1.4-.93Z" transform="translate(-42.44 -58.89)"/><path class="cls-22" d="M63.57,163.16l.87.16c-1.58-1.33-.48-3.13-.86-4.65-.21-.84-.29-1.72-.56-2.53a5.1,5.1,0,0,1,.1-3.24c-.34-1.7-.67-3.26-1-4.88l-1.22-.52,1.62-1c.17.34.34.69.53,1,.46.8.74,2,1.43,2.3A2.25,2.25,0,0,1,66,151.52c.43,1.67,1.31,2.22,3,2.13a11.24,11.24,0,0,1,2.09.14c1.41.19,2.73.25,3.57-1.23a.8.8,0,0,1,.47-.35l3,1.57c.32-.83.43-1.79.75-1.86,2.06-.47,2-1.76,1.51-3.31,0,0,.12-.09.22-.16l.9,1c.11-.55.18-.94.26-1.32.68-3.19,1.37-6.37,2-9.56.27-1.31.5-2.63.74-4a6.34,6.34,0,0,1,.67,1.22,3.59,3.59,0,0,1,0,1.13,10.47,10.47,0,0,1,.18,1.88,54.83,54.83,0,0,1-.7,6.28,3.44,3.44,0,0,0,.06,2.58c.15.28-.23,1-.57,1.35-1.61,1.58-1.56,3.62-1.76,5.64a13.34,13.34,0,0,1-.86,3.19c-.3.82.07,1.22,1.4,1.44-.32.19-.77.62-1,.53-1.33-.66-1.41.13-1.41,1.1,0,.39,0,.79,0,1.19-2.15,0-2.57.85-1.64,2.89a2.93,2.93,0,0,1,0,2.08c-.12.27-1.19.29-1.79.18-1.75-.31-2.36,0-2.72,1.69-.24,1.07-.45,2.06-1.87,2-.07,0-.15.27-.23.42-.92-.34-1.87-.63-2.76-1a2.11,2.11,0,0,0-2.53.25,6.3,6.3,0,0,1-.93.65l-1.65-1.36-.25.29a6.61,6.61,0,0,1,.77,1.2c.27.73.61,1.56-.59,1.86-.94-.67-.87-1.65-.77-2.63l0-.8v-.55L63,167.65a2.49,2.49,0,0,0,1-2.81C63.9,164.28,63.74,163.72,63.57,163.16Z" transform="translate(-42.44 -58.89)"/><path class="cls-24" d="M84.48,134.57c-.24,1.32-.47,2.64-.74,4-.67,3.19-1.36,6.37-2,9.56-.08.38-.15.77-.26,1.32l-.9-1c-.1.07-.23.14-.22.16.48,1.55.55,2.84-1.51,3.31-.32.07-.43,1-.75,1.86l-3-1.57a.8.8,0,0,0-.47.35c-.84,1.48-2.16,1.42-3.57,1.23a11.24,11.24,0,0,0-2.09-.14c-1.68.09-2.56-.46-3-2.13a2.25,2.25,0,0,0-1.49-1.72c-.69-.31-1-1.5-1.43-2.3-.19-.33-.36-.68-.53-1h-.27c.1-.65.48-1.46.23-1.92a3.79,3.79,0,0,1,0-3.11,2,2,0,0,0,2.51,1.9,1.48,1.48,0,0,1,1.11.36c.59.6,1.24.28,1.87.37a14.17,14.17,0,0,1,3.08,1.26c.51.21,1.09.59,1.54.48a3.05,3.05,0,0,0,1.95-1.1c.73-1.46,2.89-1.68,3-3.6a6,6,0,0,0,.12-1.09,2.43,2.43,0,0,1,1.8-2.85,3.25,3.25,0,0,0,2.1-2.46,1.61,1.61,0,0,1,.47-.85c.69-.44,1.44-.78,2.17-1.15h.26Z" transform="translate(-42.44 -58.89)"/><path class="cls-20" d="M86.89,111.27c0-.43,0-.87,0-1.31l1-1.06c1.21.52,1.65-.7,1.83-1.22.67-1.82,1-3.77,1.53-5.62a2.17,2.17,0,0,1,1.23-1.3c.91-.22.74.66.69,1.17-.21,2.56-.47,5.12-.71,7.69-.11,1.26-.17,2.53-.34,3.78-.22,1.59-.52,3.18-.78,4.76-.09-.54-.2-1.08-.27-1.63-.11-.85-.31-1.63-1.43-1.79a3.06,3.06,0,0,1-.11.53c-.17.41-.36.81-.55,1.22-.27-.35-.68-.65-.79-1-.34-1.2-.55-2.44-.85-3.66C87.32,111.59,87.05,111.44,86.89,111.27Z" transform="translate(-42.44 -58.89)"/><path class="cls-22" d="M84.48,132.19l.26-.53C84.65,131.83,84.57,132,84.48,132.19Z" transform="translate(-42.44 -58.89)"/><path class="cls-22" d="M84.48,132.72h-.26l.26-.27Z" transform="translate(-42.44 -58.89)"/><path class="cls-30" d="M64.37,173.21c1.2-.3.86-1.13.59-1.86a6.61,6.61,0,0,0-.77-1.2l.25-.29,1.65,1.36a6.3,6.3,0,0,0,.93-.65,2.11,2.11,0,0,1,2.53-.25c.89.41,1.84.7,2.76,1,1.25.19,2.44.29,3.06-1.21.09-.2.67-.2,1-.29l.21,1.47a4.25,4.25,0,0,1,.9-.31,3.55,3.55,0,0,1,1.27-.05c.14.57,1,1.24-.11,1.78a1.06,1.06,0,0,0-.51.81c.12,1.35.31,2.7.53,4a11.69,11.69,0,0,1,.47,2.2c-.05,1.14.31,1.75,1.89,1.7l-1.21.95c.57,1.24.36,1.94-1,2.15a27,27,0,0,1-4.5.07,7.84,7.84,0,0,1-1.88-.18,3.88,3.88,0,0,1-1.35-.77c-.24-.21-.32-.62-.61-1.21l-.74,2.15-1-1.77c-.52.73-.34,1.82-1.66,1.78-.87,0-1.66-.23-2.46-.32-1-.1-1.41-.74-2.1-1.08l-.29-.52c0-.18,0-.36,0-.54l1.5-.08-.17-2.83V179c.44-.52,1.23-1,1.24-1.57a25,25,0,0,0-.45-4C64.36,173.39,64.37,173.3,64.37,173.21Zm2.07.19-.68-.16a7.72,7.72,0,0,0-.3,1.24,3.61,3.61,0,0,0,.75.24Z" transform="translate(-42.44 -58.89)"/><path class="cls-31" d="M81.83,187.51a1.45,1.45,0,0,0,2.16-.8l.22,0c0,.43,0,.87,0,1.3l-1.3.47a3,3,0,0,0-.73-.06,47.85,47.85,0,0,1-5.4.89c-4.38.19-8.77.19-13.15.27.25-.22.48-.57.76-.62.46-.07,1,.17,1.42.07.28-.06.5-.47.68-.66-.87-.14-1.44-.21-2-.32a14.29,14.29,0,0,1-2-.45c-.21-.07-.33-.43-.48-.66,4-.07,8-.28,12-.18,2.39.06,4.76.59,7.14.89A2,2,0,0,0,81.83,187.51Z" transform="translate(-42.44 -58.89)"/><path class="cls-21" d="M81.83,187.51a2,2,0,0,1-.7.16c-2.38-.3-4.75-.83-7.14-.89-4-.1-8,.11-12,.18,0-.43,0-.87,0-1.31h0c2.29-.08,4.58-.21,6.88-.22.62,0,1.23.43,1.85.47,2.07.14,4.17,0,6.21.33A38.24,38.24,0,0,1,81.83,187.51Z" transform="translate(-42.44 -58.89)"/><path class="cls-28" d="M84.16,188c0-.43,0-.87,0-1.3-.17-1-.31-2-.54-2.92a7.29,7.29,0,0,0-.61-1.34c0-.18-.07-.37-.1-.55l-.06-2.87c1.16,0,.87.95,1.07,1.6s.51,1.49.78,2.23c0,.16.24.31.23.45a3.91,3.91,0,0,0,1.09,3.38c-.18.36-.35.72-.52,1.07l-1.1.82Z" transform="translate(-42.44 -58.89)"/><path class="cls-19" d="M82.9,179.05l.06,2.87a6.77,6.77,0,0,1-.74-1.6c-.29-1.62-.44-3.26-.7-4.87a5.47,5.47,0,0,0-.51-1.17c.1-.53.2-1.06.31-1.59,1.75.21,2,.93,1.09,3.32l1,.63Z" transform="translate(-42.44 -58.89)"/><path class="cls-19" d="M81,169l1.62.94c-.58.69-1.09,1.32-1.61,1.95a.59.59,0,0,0-.23,0c0-.44-.06-.87-.08-1.3v-1.09c0-.16.06-.33.1-.49H81Z" transform="translate(-42.44 -58.89)"/><path class="cls-20" d="M62.22,182.75l.29.52L62,185.65h0l-1-2.54Z" transform="translate(-42.44 -58.89)"/><path class="cls-19" d="M83.06,182.47a7.29,7.29,0,0,1,.61,1.34c.23,1,.37,1.94.54,2.92l-.22,0Z" transform="translate(-42.44 -58.89)"/><path class="cls-5" d="M80.81,171.88a.59.59,0,0,1,.23,0c.09.27.19.53.28.8-.11.53-.21,1.06-.31,1.59C80.15,173.54,80.45,172.71,80.81,171.88Z" transform="translate(-42.44 -58.89)"/><path class="cls-5" d="M80.81,166.33l0,1.06Z" transform="translate(-42.44 -58.89)"/><path class="cls-5" d="M80.73,169.49v1.09C80.05,170.22,80.05,169.85,80.73,169.49Z" transform="translate(-42.44 -58.89)"/><path class="cls-5" d="M81,169h-.2l-.06-.55Z" transform="translate(-42.44 -58.89)"/><path class="cls-9" d="M84.45,188.6l1.1-.82h.53l.67,3.93-2-1.05C84.66,190,84.56,189.29,84.45,188.6Z" transform="translate(-42.44 -58.89)"/><path class="cls-16" d="M54.05,129l-1.36-1.2c.79-.24,1.3-.38,1.8-.56a3.7,3.7,0,0,0,.61-.35l3.53-1.28c-1.72-.4-1.47-1.16-1.09-2.05.5-1.17.9-2.38,1.38-3.69H57.11c2.06-.89,2.31-1.68,1.72-3.64a5.36,5.36,0,0,1,.25-2c.62.24,1.13.45,1.09,1.35-.09,1.84,0,3.69,0,5.53a12.44,12.44,0,0,0-1,6.25c1.54.05,1.42.89,1,2l-2.29-.17-.12.3a11.52,11.52,0,0,0,1.27.63,10.41,10.41,0,0,0,1.37.29v.53c-.82.62-.21,1.35-.17,2,.1,1.54.7,3.21-1.15,4.27-.22.13-.19.71-.27,1.09a11.09,11.09,0,0,1-.29,1.74,4.49,4.49,0,0,1-.69,1.08,9,9,0,0,0-.39-.95c-.32-.55-.67-1.08-1-1.61a7.56,7.56,0,0,1,.39-1.07c.82-1.5.55-2.25-1.09-2.82.75-.78.87-1.33.17-2.44-.56-.88-1.81-1.68-1.51-3.07A2.23,2.23,0,0,0,54.05,129Zm3,2.89-.29-.38c-.09.06-.25.15-.24.19a.57.57,0,0,0,.22.34S56.91,132,57,131.9ZM59,128.15l-.22-.1c0,.08-.1.16-.08.22s.14.07.21.1Z" transform="translate(-42.44 -58.89)"/><path class="cls-22" d="M58.81,138.28c.08-.38,0-1,.27-1.09,1.85-1.06,1.25-2.73,1.15-4.27,0-.7-.65-1.43.17-2l.79.26h.27v2.65l.52,1.06c-.08.7-.17,1.41-.26,2.11.18,1.15.35,2.3.53,3.44l.26,1.06a3.79,3.79,0,0,0,0,3.11c.25.46-.13,1.27-.23,1.92l-2.33.17c.11.16,0,.07,0,0l-.87-8C59,138.48,58.88,138.38,58.81,138.28Z" transform="translate(-42.44 -58.89)"/><path class="cls-31" d="M63.57,163.16c.17.56.33,1.12.49,1.68a2.49,2.49,0,0,1-1,2.81c-1.32-.73-.11-1.79-.28-2.57-.47-.31-1.08-.48-1.2-.83a1.56,1.56,0,0,0-2-1.22c-.3,1-.32,2.32-1,2.77-1.19.83-.77,1.82-.84,2.79s.21,2.22-.81,3a39.66,39.66,0,0,1-.21-4.74,9.71,9.71,0,0,1,1-2.66l.52-.8v-.79c.44-.85.89-1.7,1.42-2.73l-.61-.76c1.52-.07,2.88,1.91,3.31,4.67Z" transform="translate(-42.44 -58.89)"/><path class="cls-18" d="M57,171.62c1-.81.73-2,.81-3s-.35-2,.84-2.79c.65-.45.67-1.81,1-2.77a1.56,1.56,0,0,1,2,1.22c.12.35.73.52,1.2.83.17.78-1,1.84.28,2.57l.51,1.58L62,169.5c.51-1.93-1-2.5-2.54-3.54-.37,2-.82,3.83-1,5.67-.11,1.23-.62,2.42-.06,3.77.28.69-.41,1.74-.52,2.64-.17,1.28-.22,2.57-.34,4.24-.46.4-.65,2.73.21,3.48l-2.12.94-1.16-.83c0-.43.07-1,.11-1.53h0l.51-1.58c.57-2,1.45-3.95,1.14-6.13-.05-.32.41-.69.43-1a5.11,5.11,0,0,0-.24-1.31L56.7,173l.27-.79Z" transform="translate(-42.44 -58.89)"/><path class="cls-21" d="M58.27,163.42l-.52.8Z" transform="translate(-42.44 -58.89)"/><path class="cls-31" d="M57,172.16l-.27.79Z" transform="translate(-42.44 -58.89)"/><path class="cls-5" d="M55.1,182.75l-.51,1.58C54.47,183.71,54.06,183,55.1,182.75Z" transform="translate(-42.44 -58.89)"/><path class="cls-13" d="M55.63,186.7l2.12-.94c-.86-.75-.67-3.08-.21-3.48.12-1.67.17-3,.34-4.24.11-.9.8-1.95.52-2.64-.56-1.35,0-2.54.06-3.77.16-1.84.61-3.65,1-5.67,1.52,1,3.05,1.61,2.54,3.54,0,.27,0,.53,0,.8l-.7,2.06c-.65.34-.87.75-.2,1.59.17.2.07.66,0,1-.1.56-.26,1.11-.45,1.89l-.84.38.89,2.1c0,.26,0,.52,0,.78-1,0-1.72.06-1,1.41a3.66,3.66,0,0,1-.69,4.31c.75.69,1.46,1.34,2.16,2,.16.14.44.3.43.43-.21,1.71,1,1.34,2,1.36,4.38-.08,8.77-.08,13.15-.27a47.85,47.85,0,0,0,5.4-.89,3.17,3.17,0,0,1,.74.06c.09.92-.33,1.28-1.23,1.19a5.73,5.73,0,0,0-1.17.05c-2.63.29-5.25.73-7.89.86-3,.16-6,.05-9,.05l-2.61,0-1.86-1.3-2.25-1.65-.91,1.35-.49,0-1.68-.79c.12-.15.31-.44.36-.42C55.32,188.39,55.46,187.53,55.63,186.7Z" transform="translate(-42.44 -58.89)"/><path class="cls-20" d="M59.08,114.19a5.36,5.36,0,0,0-.25,2c.59,2,.34,2.75-1.72,3.64h1.81c-.48,1.31-.88,2.52-1.38,3.69-.38.89-.63,1.65,1.09,2.05L55.1,126.9l-.26-.26,1.49-1.09-1.58-.38.37-.15c-.19-.81-.37-1.61-.58-2.41a7.1,7.1,0,0,1-.33-1.15c-.07-.95,0-1.94-1.22-2.24,0-.18,0-.35,0-.52l.7-.58-1-1-.27-1.32,1.43-.68-1.43-.64-1.05-2.91,1.1-.15c-.54-1.15.27-2.44-.8-3.37-.12-.1,0-.42,0-.64a34,34,0,0,0-.06-3.5,9.74,9.74,0,0,0-.75-2.14l1.06-.27a2.44,2.44,0,0,0,0,.27,3.09,3.09,0,0,0,2.14,3l-1.26.36c-.08,1.58.1,2.93,2,3.22l-1.69.14c.24.44.56.76.57,1.08a4.25,4.25,0,0,1-.35,1.27l1,.41c-.5,1.2-.07,2.29.81,2.16.68-.11,1.33-.31,2-.47-1.21-1.55-.41-1.89,1.38-3-.82-1.75-.73-2.87.29-4l1.14.4a8.45,8.45,0,0,0-.26,2c.09.75.75,1.57.58,2.2C59.91,111.8,60.58,113.37,59.08,114.19Zm-2.31,5.93a.28.28,0,0,0-.12,0s0,.06,0,.1l.11,0S56.76,120.15,56.77,120.12Z" transform="translate(-42.44 -58.89)"/><path class="cls-16" d="M50.86,101.75a9.74,9.74,0,0,1,.75,2.14,34,34,0,0,1,.06,3.5c0,.22-.08.54,0,.64,1.07.93.26,2.22.8,3.37l-1.1.15h-.28c-.17-1.41-.37-2.81-.52-4.22s-.08-2.57-.31-3.82a6.33,6.33,0,0,0-1-1.76Z" transform="translate(-42.44 -58.89)"/><path class="cls-16" d="M53,119.22c1.24.3,1.15,1.29,1.22,2.24a7.1,7.1,0,0,0,.33,1.15c.21.8.39,1.6.58,2.41l-.37.15,1.58.38-1.49,1.09c-1.85-.22-1-1.79-1.28-2.73a17.28,17.28,0,0,1-.65-3.23A8,8,0,0,1,53,119.22Z" transform="translate(-42.44 -58.89)"/><path class="cls-16" d="M52.46,114.46l1.43.64-1.43.68C51.62,115.34,52,114.9,52.46,114.46Z" transform="translate(-42.44 -58.89)"/><path class="cls-16" d="M52.73,117.1l1,1-.7.58Z" transform="translate(-42.44 -58.89)"/><path class="cls-25" d="M50.23,128.68l-.1.22c-.07,0-.18-.05-.2-.1s0-.15.08-.22Z" transform="translate(-42.44 -58.89)"/><path class="cls-5" d="M51.93,101.75a2.44,2.44,0,0,1,0-.27V101l.27-.29,1,.08a3.66,3.66,0,0,0,1.09.42c.9.06,1.82,0,2.72,0,.07.26.14.53.2.79Z" transform="translate(-42.44 -58.89)"/><path class="cls-13" d="M52.19,100.71l-.27.29-2.11-.55.53-.27,1.6.19C52,100.49,52.11,100.6,52.19,100.71Z" transform="translate(-42.44 -58.89)"/><path class="cls-29" d="M90,91.7c-.06.1-.21.26-.18.31,1.18,2,.64,4-.08,6-1.17.1-1.5-.42-1.24-1.52a4.21,4.21,0,0,0-.07-1.27c-.18-1.78-.36-3.56-.56-5.34a1.28,1.28,0,0,0-.19-.73,3.41,3.41,0,0,0-4.23-.33,3.41,3.41,0,0,1-3.58.35,3.34,3.34,0,0,0-2.33,0c-2.06.92-4,2.26-6.06,3-2,.71-2.15,2.28-2.71,3.83-1.37.16-2.76,1-2.84,1.94-.11,1.2-.71,1.66-1.9,1.63a5,5,0,0,0-1.56.49,2.17,2.17,0,0,0,0,.26l-1.15.58-1.54.17a.18.18,0,0,0-.15-.1l-.6,0-1.33,0c.31-.26.63-.76.92-.75,1.58.08,1.54-.69.8-2.06H63A2.16,2.16,0,0,0,62.85,97c-.74-1.16.1-1.35.88-1.59.24-.08.54,0,.78,0,.56-.17,1.55-.34,1.57-.6a7.81,7.81,0,0,0-.39-2.29c-.26-.71-.52-1.42-.79-2.13l2,1.55c.49-1.92,2.21-1.86,4-1.85A1.48,1.48,0,0,0,72,89.36c.76-2.37,1-2.61,3.61-2.67.89,0,1.54-.22,1.88-1.09.06-.16.15-.43.26-.44C79.13,85,80,83.72,81.16,83.3a46.65,46.65,0,0,1,5.48-1.23l1.81,1.69c0,.17,0,.35,0,.52-1,.37-1,1.2,0,2.12,0,.09,0,.18,0,.26v4.1Z" transform="translate(-42.44 -58.89)"/><path class="cls-29" d="M76.14,81.93c-.74-.37-1.5-.52-1.86-1s-1-1.45-.09-2.2c.73-.58,3-.39,3.55.37.33.51.74,1.5.53,1.72A7.11,7.11,0,0,1,76.14,81.93Z" transform="translate(-42.44 -58.89)"/><path class="cls-20" d="M57.75,101l1.33,0,.6,0a.18.18,0,0,1,.15.1v3.75l-.79-.26-2.18-.58L58.12,102h-.89c-.06-.26-.13-.53-.2-.79L57,101Z" transform="translate(-42.44 -58.89)"/><path class="cls-28" d="M64.9,90.37c.27.71.53,1.42.79,2.13H64.36L62,92.06A3,3,0,0,1,64.9,90.37Z" transform="translate(-42.44 -58.89)"/><path class="cls-13" d="M57,101l.06.19c-.9,0-1.82,0-2.72,0a3.66,3.66,0,0,1-1.09-.42Z" transform="translate(-42.44 -58.89)"/><path class="cls-27" d="M58.33,99c.18.19.37.31.35.4a.55.55,0,0,1-.29.36c-.06,0-.29-.15-.31-.26S58.2,99.25,58.33,99Z" transform="translate(-42.44 -58.89)"/><path class="cls-29" d="M64.36,92.52h.81l-.46.47Z" transform="translate(-42.44 -58.89)"/><path class="cls-26" d="M79.39,73.32c-.29,1.35-.39,1.39-1.63.63Z" transform="translate(-42.44 -58.89)"/><path class="cls-27" d="M66.19,75.74c.06.12.18.27.15.31a.63.63,0,0,1-.34.23s-.12-.16-.19-.25Z" transform="translate(-42.44 -58.89)"/><path class="cls-26" d="M88.45,86.4c-1-.92-1-1.75,0-2.12C89.15,85,88.49,85.69,88.45,86.4Z" transform="translate(-42.44 -58.89)"/><path class="cls-15" d="M73.1,196.53c-.74-1.08-1.47-1-2.24,0a3.56,3.56,0,0,1-.67.53l-4-.3c.4-1.09.81-2.19,1.3-3.54l2.2,1.69.37-1.59c2,.26,4.16-.1,5.38,1.78l-1.06,1.44Z" transform="translate(-42.44 -58.89)"/><path class="cls-8" d="M66.24,196.74l4,.3c-1.23.17-2.47.36-3.7.52a16.17,16.17,0,0,1-1.84.2c-.18,0-.37-.24-.56-.37,0-.26,0-.53-.08-.79Z" transform="translate(-42.44 -58.89)"/><path class="cls-9" d="M73.1,196.53h1.33l.28.11c0,.2,0,.4,0,.61l-3.25.18-.06-.41Z" transform="translate(-42.44 -58.89)"/><path class="cls-4" d="M74.71,196.63l-.28-.11,1.06-1.44c-1.22-1.88-3.36-1.52-5.38-1.78l-.37,1.59-2.2-1.69c-.49,1.35-.9,2.45-1.3,3.54L64,196.6h-.49v-1.13l-2-1,1-1.44.35.7.35-.35-.7-.35.26-.52H64.1c.24.26.53.77.71.73s.6-.45.89-.71l4-.32.54,0,2.13,0h2.37c.52.54,1,1,1.59,0l2.11,0v.52l-.85.42a2.3,2.3,0,0,1,.32,2.62.57.57,0,0,0,0,.13ZM63.2,194.31l-.22-.09c0,.07-.1.16-.08.21s.13.07.2.1S63.17,194.39,63.2,194.31Z" transform="translate(-42.44 -58.89)"/><path class="cls-8" d="M62.78,192.54l-.26.52h0l-1,1.44,2,1v1.13c-2-.36-4.05-.69-6.06-1.08a8.6,8.6,0,0,1-1.55-.64l-.7-.53.66-1.6,1.82-.57,2.71.08Z" transform="translate(-42.44 -58.89)"/><path class="cls-10" d="M55.21,194.36l.7.53c-.43,1-.89.19-1.34,0Z" transform="translate(-42.44 -58.89)"/><path class="cls-8" d="M77.87,196a.57.57,0,0,1,0-.13,2.3,2.3,0,0,0-.32-2.62l.85-.42,2.41-.26,0,.29-1,.49,0,.28,1.49.13.42,1.11-1.78.73Z" transform="translate(-42.44 -58.89)"/><path class="cls-9" d="M81.8,194.84l-.42-1.11-1.49-.13,0-.28,1-.49,0-.29-2.41.26v-.52c1-.82,2-.38,3-.05l2.6.86,0,.51-.1.2Z" transform="translate(-42.44 -58.89)"/><path class="cls-23" d="M59,104.66l.79.26v-3.75l1.54-.17,1.18.11h1a11.38,11.38,0,0,0,1.3.1l9.32-.23a6.86,6.86,0,0,0,1.25.23c2.69,0,5.39,0,8.08-.1.44,0,.87-.41,1.3-.63l1.54,0,1.34.41c.08.64.17,1.29.25,2h-.25c-.71,0-1.56-.23-1.4.93a11,11,0,0,0-1.27.07c-.4.09-.79.26-1.18.39l.47-1.35a2.62,2.62,0,0,0-4.52,1.23c-.25.82.25,1.12,2,.85a6.18,6.18,0,0,1-.84,1.55,1.63,1.63,0,0,1-1.22.24c-.8-.15-1.58-.44-2.41-.68-.24,1.48-.47,2.87-.72,4.26,0,.29-.12.68-.32.81-1.14.75-.77,1.27.08,2,.52.45.71,1.28,1.1,1.91s.72.92,1.08,1.38l.34-.23a2.14,2.14,0,0,0-.08-.44c-.19-.46-.4-.91-.59-1.36a16.45,16.45,0,0,1,2.33.41,1.38,1.38,0,0,1,0,1.15,2.88,2.88,0,0,0-.31,2.61c.19.77.18,1.55-.91,1.88-.28.09-.57.93-.48,1.35.25,1.29-.36,1.93-1.4,2.49a2.18,2.18,0,0,0-.84,1.19,3.48,3.48,0,0,0,0,1.44,3.53,3.53,0,0,1-1.32,3.36c-.47.42-.54,1.28-.81,1.94a4.17,4.17,0,0,1-.61,1.21c-.08.08-.63-.26-1-.39a3.38,3.38,0,0,0-1-.3c-1.94,0-3.88,0-5.82,0-.37,0-1,.27-1.07.48-.19,1.56-1.29,1.39-2.35,1.35H62v-.79l1.28-2.08-1.81-.57h-.27v-2.91l-.26-.8v-.52c.68-1,1.51-1.94,1.22-3.33l-1.22.15.18-2.5-1-.15c0-1.84-.06-3.69,0-5.53,0-.9-.47-1.11-1.09-1.35,1.5-.82.83-2.39,1.14-3.6.17-.63-.49-1.45-.58-2.2a8.45,8.45,0,0,1,.26-2l-1.14-.4C58.85,105.54,58.94,105.1,59,104.66Zm19.47,13.88c-.63-.32-1-.63-1.23-.58s-.48.47-.71.73c.24.17.49.5.72.49S77.89,118.88,78.51,118.54Z" transform="translate(-42.44 -58.89)"/><path class="cls-13" d="M86.33,100.45l-1.54,0c-3.36.07-6.71.14-10.07.23-.19,0-.37.18-.56.27l-9.32.23a11.38,11.38,0,0,1-1.3-.1c0-.22,0-.44,0-.67L67,100.2c1.85-.06,3.72,0,5.55-.19s3.9-.82,5.87-1.08c.71-.1,1.48.37,2.24.43,2,.14,3.94.16,5.9.3a4.88,4.88,0,0,1,1.35.52Z" transform="translate(-42.44 -58.89)"/><path class="cls-20" d="M87.67,102.82h.25c1.11,1.25,1,1.83-.5,2.92C87.5,104.76,87.58,103.79,87.67,102.82Z" transform="translate(-42.44 -58.89)"/><path class="cls-16" d="M87.92,108.9l-1,1.06c.09-.71.17-1.42.26-2.13h.78Z" transform="translate(-42.44 -58.89)"/><path class="cls-13" d="M88.19,100.21l2.43-.49Z" transform="translate(-42.44 -58.89)"/><path class="cls-20" d="M87.92,107.84h-.78c0-.26,0-.53,0-.79C87.41,107.31,87.67,107.57,87.92,107.84Z" transform="translate(-42.44 -58.89)"/><path class="cls-28" d="M67,100.2l-3.42.24-1.07-.28a5,5,0,0,1,1.56-.49c1.19,0,1.79-.43,1.9-1.63.08-.9,1.47-1.78,2.84-1.94.56-1.55.75-3.12,2.71-3.83,2.11-.77,4-2.11,6.06-3a3.34,3.34,0,0,1,2.33,0,3.41,3.41,0,0,0,3.58-.35,3.41,3.41,0,0,1,4.23.33,1.28,1.28,0,0,1,.19.73c.2,1.78.38,3.56.56,5.34a4.21,4.21,0,0,1,.07,1.27c-.26,1.1.07,1.62,1.24,1.52l.79.79a19,19,0,0,1-2.36.47c-.15,0-.52-.62-.52-1a28.84,28.84,0,0,0,.18-3.57c-.23-2-2.43-3.64-4.45-3.7a19.94,19.94,0,0,1-3.22-.67A4.36,4.36,0,0,1,80,91c-.1.3-.23.6-.34.9a5,5,0,0,1-.75-.77,5.26,5.26,0,0,1-.33-1.28,35.29,35.29,0,0,0-3,2.4c-.47.45.26,1.91.94,2.1.23.07.45.12.68.17l0,.33A3.84,3.84,0,0,0,76,94.76a6.62,6.62,0,0,0-2,.79c-.6.4-1,1-1.68,1.41-.43,2-2,2.18-3.67,2.44A6.29,6.29,0,0,0,67,100.2Z" transform="translate(-42.44 -58.89)"/><path class="cls-12" d="M81.34,192.23c-1-.33-2-.77-3,.05l-2.11,0-1.59,0H72.32l-.08-1.14c-.95,1.63-1.18-.32-1.89-.06l-.16,1.18-.54,0a4.45,4.45,0,0,0-4.42-1.05c-.57.13-1.42.54-1.69-.54,3,0,6,.11,9-.05,2.64-.13,5.26-.57,7.89-.86a5.73,5.73,0,0,1,1.17-.05c.9.09,1.32-.27,1.23-1.19l1.29-.47.29.57c.11.69.21,1.38.32,2.07,0,.21-.07.41-.11.62C83.47,191.31,82.23,191.14,81.34,192.23ZM74,192.14l.19-.3c-.19-.1-.38-.2-.57-.28,0,0-.14.17-.13.17S73.84,192,74,192.14Z" transform="translate(-42.44 -58.89)"/><path class="cls-11" d="M81.34,192.23c.89-1.09,2.13-.92,3.32-.94.22.6.43,1.21.64,1.82l-1.36,0Z" transform="translate(-42.44 -58.89)"/><path class="cls-12" d="M83.94,193.09l1.36,0a.22.22,0,0,1,0,.16L84,193.6Z" transform="translate(-42.44 -58.89)"/><path class="cls-9" d="M60.4,192.27l-2.71-.08c-.08-1.26-1-.51-1.57-.66l-1-.11c0-.58,0-1.16,0-1.75.09-.19.18-.39.28-.58l.49,0a4.1,4.1,0,0,0,1.3.6,8.68,8.68,0,0,0,1.86-.3l1.86,1.3C60.23,191,59.88,191.51,60.4,192.27Z" transform="translate(-42.44 -58.89)"/><path class="cls-10" d="M56.12,191.53c.56.15,1.49-.6,1.57.66l-1.82.57C56,192.35,56,191.94,56.12,191.53Z" transform="translate(-42.44 -58.89)"/><path class="cls-24" d="M62.25,140.39c-.18-1.14-.35-2.29-.53-3.44A3,3,0,0,1,62.25,140.39Z" transform="translate(-42.44 -58.89)"/><path class="cls-24" d="M62,133.78v1.06l-.52-1.06Z" transform="translate(-42.44 -58.89)"/><path class="cls-18" d="M60.68,179.31l-.89-2.1.84-.38c.19-.78.35-1.33.45-1.89.05-.33.15-.79,0-1-.67-.84-.45-1.25.2-1.59.23-.69.47-1.37.7-2.06l1.6-.52c0,.27,0,.54,0,.8-1.55.62-1.59.77-.8,2.65l0,.52v2.38l-1.07.79C62.15,178.08,62.25,179.08,60.68,179.31Z" transform="translate(-42.44 -58.89)"/><path class="cls-31" d="M62.8,173.23c-.79-1.88-.75-2,.8-2.65-.1,1-.17,2,.77,2.63,0,.09,0,.18,0,.26Z" transform="translate(-42.44 -58.89)"/><path class="cls-31" d="M63.56,169.78l-1.6.52c0-.27,0-.53,0-.8l1.57-.27C63.55,169.41,63.56,169.6,63.56,169.78Z" transform="translate(-42.44 -58.89)"/><path class="cls-18" d="M63.58,189.6c-.95,0-2.17.35-2-1.36,0-.13-.27-.29-.43-.43-.7-.66-1.41-1.31-2.16-2a3.66,3.66,0,0,0,.69-4.31c-.75-1.35,0-1.38,1-1.41l1.55,1.59V182a2.26,2.26,0,0,0,0,.26c0,.18,0,.36,0,.54l-1.23.36,1,2.54c0,.44,0,.88,0,1.31.15.23.27.59.48.66a14.29,14.29,0,0,0,2,.45c.56.11,1.13.18,2,.32-.18.19-.4.6-.68.66-.45.1-1-.14-1.42-.07C64.06,189,63.83,189.38,63.58,189.6Z" transform="translate(-42.44 -58.89)"/><path class="cls-22" d="M62.8,173.23l1.56.24a25,25,0,0,1,.45,4c0,.54-.8,1.05-1.24,1.57L63,177.71l-.27-1.58v-.54c.28-.61,1-1.23,0-1.84Z" transform="translate(-42.44 -58.89)"/><path class="cls-17" d="M62.24,182.21a2.26,2.26,0,0,1,0-.26l.26-.26v-1.86l1-.53.17,2.83Z" transform="translate(-42.44 -58.89)"/><path class="cls-16" d="M66.44,173.4l-.23,1.32a3.61,3.61,0,0,1-.75-.24,7.72,7.72,0,0,1,.3-1.24Z" transform="translate(-42.44 -58.89)"/><path class="cls-21" d="M63.57,179.3l-1,.53.52-2.12.53,1.33Z" transform="translate(-42.44 -58.89)"/><path class="cls-22" d="M60.14,121.07l1,.15-.18,2.5v3.7c.09.27.18.53.26.8v2.12h-.78a10.41,10.41,0,0,1-1.37-.29,11.52,11.52,0,0,1-1.27-.63l.12-.3,2.29.17c.38-1.08.5-1.92-1-2A12.44,12.44,0,0,1,60.14,121.07Z" transform="translate(-42.44 -58.89)"/><path class="cls-25" d="M60.41,130.34h.78v.79l-.79-.26Z" transform="translate(-42.44 -58.89)"/><path class="cls-22" d="M57,131.9c-.12.06-.27.18-.31.15a.57.57,0,0,1-.22-.34s.15-.13.24-.19Z" transform="translate(-42.44 -58.89)"/><path class="cls-22" d="M59,128.15l-.09.22c-.07,0-.19-.05-.21-.1s.05-.14.08-.22Z" transform="translate(-42.44 -58.89)"/><path class="cls-25" d="M62,133.78h-.53v-2.65l1.81.57Z" transform="translate(-42.44 -58.89)"/><path class="cls-10" d="M60.4,192.27c-.52-.76-.17-1.24.53-1.6l2.61,0c.27,1.08,1.12.67,1.69.54a4.45,4.45,0,0,1,4.42,1.05l-4,.32-1.6,0H62.78Z" transform="translate(-42.44 -58.89)"/><path class="cls-20" d="M63,177.71c-.17.71-.35,1.42-.52,2.12,0,.62,0,1.24,0,1.86h-.27l-1.55-1.59c0-.26,0-.52,0-.78,1.57-.23,1.47-1.23,1-2.39l1.07-.79Z" transform="translate(-42.44 -58.89)"/><path class="cls-19" d="M59.07,189.37a8.68,8.68,0,0,1-1.86.3,4.1,4.1,0,0,1-1.3-.6l.91-1.35Z" transform="translate(-42.44 -58.89)"/><path class="cls-18" d="M59,104.66c-.1.44-.19.88-.28,1.33-1,1.08-1.11,2.2-.29,4-1.79,1.08-2.59,1.42-1.38,3-.67.16-1.32.36-2,.47-.88.13-1.31-1-.81-2.16l-1-.41a4.25,4.25,0,0,0,.35-1.27c0-.32-.33-.64-.57-1.08l1.69-.14c-1.87-.29-2.05-1.64-2-3.22l1.26-.36a3.09,3.09,0,0,1-2.14-3l5.3.26h.89l-1.26,2.07Z" transform="translate(-42.44 -58.89)"/><path class="cls-16" d="M56.77,120.12s0,.09,0,.09l-.11,0s0-.1,0-.1A.28.28,0,0,1,56.77,120.12Z" transform="translate(-42.44 -58.89)"/><path class="cls-19" d="M62.51,100.16l1.07.28c0,.23,0,.45,0,.67h-1l0-.7A2.17,2.17,0,0,1,62.51,100.16Z" transform="translate(-42.44 -58.89)"/><path class="cls-13" d="M62.52,100.42l0,.7L61.37,101Z" transform="translate(-42.44 -58.89)"/><path class="cls-13" d="M59.68,101.07l-.6,0Z" transform="translate(-42.44 -58.89)"/><path class="cls-10" d="M70.19,192.21l.16-1.18c.71-.26.94,1.69,1.89.06l.08,1.14Z" transform="translate(-42.44 -58.89)"/><path class="cls-8" d="M64.1,192.54l1.6,0c-.29.26-.56.64-.89.71S64.34,192.8,64.1,192.54Z" transform="translate(-42.44 -58.89)"/><path class="cls-9" d="M74.69,192.22l1.59,0C75.74,193.18,75.21,192.76,74.69,192.22Z" transform="translate(-42.44 -58.89)"/><path class="cls-8" d="M62.52,193.06l.7.35-.35.35-.35-.7Z" transform="translate(-42.44 -58.89)"/><path class="cls-8" d="M63.2,194.31c0,.08-.07.15-.1.22s-.18,0-.2-.1.05-.14.08-.21Z" transform="translate(-42.44 -58.89)"/><path class="cls-5" d="M74.16,101c.19-.09.37-.26.56-.27,3.36-.09,6.71-.16,10.07-.23-.43.22-.86.61-1.3.63-2.69.08-5.39.09-8.08.1A6.86,6.86,0,0,1,74.16,101Z" transform="translate(-42.44 -58.89)"/><path class="cls-25" d="M60.93,126.9v-3.18l1.22-.15C62.44,125,61.61,125.9,60.93,126.9Z" transform="translate(-42.44 -58.89)"/><path class="cls-25" d="M78.51,118.54c-.62.34-.92.62-1.22.64s-.48-.32-.72-.49c.23-.26.43-.67.71-.73S77.88,118.22,78.51,118.54Z" transform="translate(-42.44 -58.89)"/><path class="cls-25" d="M61.19,128.22c-.08-.27-.17-.53-.26-.8C61,127.69,61.11,128,61.19,128.22Z" transform="translate(-42.44 -58.89)"/><path class="cls-9" d="M74,192.14c-.17-.14-.35-.27-.51-.41s.11-.18.13-.17c.19.08.38.18.57.28Z" transform="translate(-42.44 -58.89)"/><path class="cls-20" d="M62.77,173.75c1,.61.28,1.23,0,1.84Z" transform="translate(-42.44 -58.89)"/><path class="cls-30" d="M62.24,181.68h.27l-.26.26Z" transform="translate(-42.44 -58.89)"/></g></g></g></svg>