<svg id="Layer_1" data-name="Layer 1" xmlns="http://www.w3.org/2000/svg" viewBox="0 0 41.89 74.57"><defs><style>.cls-1{fill:#38260f;}.cls-2{fill:#eeebe6;}.cls-3{fill:#fbfbf8;}.cls-4{fill:#58340d;}.cls-5{fill:#8e7140;}.cls-6{fill:#e5e0dd;}.cls-7{fill:#d4d0cb;}.cls-8{fill:#b5ada7;}.cls-9{fill:#a19993;}.cls-10{fill:#c6c0bb;}.cls-11{fill:#a2650b;}.cls-12{fill:#d9d9d8;}.cls-13{fill:#764106;}.cls-14{fill:#ccba44;}.cls-15{fill:#f5e871;}.cls-16{fill:#91520c;}.cls-17{fill:#ca860b;}.cls-18{fill:#be7509;}.cls-19{fill:#e09604;}.cls-20{fill:#d59006;}.cls-21{fill:#fccb28;}.cls-22{fill:#f1ae09;}.cls-23{fill:#e89c04;}.cls-24{fill:#e8a309;}.cls-25{fill:#fbbf11;}.cls-26{fill:#fcc515;}.cls-27{fill:#fdd31d;}.cls-28{fill:#fab90d;}.cls-29{fill:#f7b708;}</style></defs><path class="cls-1" d="M9.85,64.22l-.28-3.73-.12-1.73,0-.29,0-.16,0-.77-.42-5,0-.46L9,51.93a1.81,1.81,0,0,1,.29.47c.18.72.3,1.45.5,2.16a10,10,0,0,1,.78,4.08,9.24,9.24,0,0,0,.07,2c.09,1,.16,2.09.34,3.11a18.84,18.84,0,0,0,.64,2.15l.3.16-.52.43.29.38-.8-.1-.35.8,2.47.68.17,0,.76.32-.56.16c-.22.06-.58.1-.63.23s.12.45.17.69.08.55.12.82l-.5,0L11.7,70l-.12.19.67.54,1.79.81,2.37.49-.16.59-.46,0-1.57-.1L12,72c-.2.2-.54.39-.56.6a3.53,3.53,0,0,0,.25,1.07l.73.5.07.31a2.47,2.47,0,0,1-1.84-2c-.26-1-.35-2.07-.51-3.11Z" transform="translate(-5.07 -2.88)"/><path class="cls-2" d="M25,3.53l-.71-.35a4.38,4.38,0,0,1,1-.27c3.45,0,6.9-.07,10.34,0,2.63.06,5.25.29,7.88.45-.17.1-.35.29-.52.28-1.18-.07-2.36-.22-3.54-.27-2-.09-4-.12-6-.16-1.09,0-2.18,0-3.26,0-.72,0-1.44-.13-2.16-.13-.25,0-.49.22-.77.35L30.9,4l0,.11-1.24.26-.7.12v.15L30,5c-.91,0-1.82,0-2.72-.07-.13,0-.27.17-.4.26l-.47-.11a1.21,1.21,0,0,0-1.76-.67l-.51-.58c-.85.17-1.51.35-2.18.42a5.79,5.79,0,0,1-1.3-.13c-.05-.08-.1-.22-.14-.22a7,7,0,0,0-.8.07l-.31-.15a2.76,2.76,0,0,0-.08-.58c-.51,0-1,0-1.53,0v.15l1.46.46L18.43,4l0-.07,0,.07-1.92.77.09.29,3.07-.6.36.22L20,5l-2.21.13h-3L15,4.8c.66,0,1.32,0,1.71-.68l.15-.28h0l.28-.27-.75-.3v.88l-1.86.31-.16-.31.89-.6,0-.19c-.63.06-1.25.13-1.87.17-1.11.06-2.21.13-3.32.15-.69,0-1.37-.1-2.05-.15,2.15-.15,4.3-.31,6.46-.44C15.61,3,16.78,3,17.93,3c.49,0,1-.06,1.45-.07A16.77,16.77,0,0,0,22.22,3c.59-.1,1.27.33,1.91.49a5.21,5.21,0,0,0,.69.09q-.06.29-.09.54l1.88.27A.5.5,0,0,0,26.27,4Zm2-.19,0-.29-1.54.18,0,.31Zm-11.24.14s0,0,0,.07l.06,0,0-.07Z" transform="translate(-5.07 -2.88)"/><path class="cls-1" d="M41.81,62.23c-.22,3.1-.43,6.21-.67,9.32A3.6,3.6,0,0,1,39,74.68c0-.16,0-.37.15-.46.88-.76.8-1.62-.17-2.09l1.3-.7s0-.08,0-.12l-.1.06-2.64.79-.31,0-.19.13H36.8c-.28,0-.56,0-.84,0l-2.15,0,.17-.48.78-.33.46,0,.16-.18.14-.06.25.26.53-.34c.15.07.32.23.45.21.7-.11,1.39-.26,2.08-.39l1.42-.54L39.61,70l.06-.07-.08,0c-.52.11-1.05.24-1.58.32-.11,0-.25-.08-.38-.12.06-.15.08-.37.19-.44s.56-.27.38-.68v-.16l.3-.47c1.78-.49,1.82-.52,1.88-1.26H40l-.39-.31.46-.45.3,0-.17-.29h0c.73-.55,1.41-1.07,1.29-2.18A5.46,5.46,0,0,1,41.81,62.23Z" transform="translate(-5.07 -2.88)"/><path class="cls-3" d="M29.64,4.32l1.24-.26,0-.11-3.62-.52c.28-.13.52-.35.77-.35.72,0,1.44.11,2.16.13,1.08,0,2.17,0,3.26,0,2,0,4,.07,6,.16,1.18.05,2.36.2,3.54.27.17,0,.35-.18.52-.28a9.08,9.08,0,0,0,1.79.12c.87-.11,1.11.55,1.4,1a1.62,1.62,0,0,1-.37,2.25l-.4-1.08.81-.77L46,4.77h0a2.16,2.16,0,0,0-.63-.37,4.8,4.8,0,0,0-1,.06l-2.73.31c-.64,0-1.28,0-1.92,0-.39,0-.78,0-1.17,0-.21-1-1-.31-1.42-.47a3.32,3.32,0,0,0-.7-.36,5.15,5.15,0,0,0-.88,0c-.2,0-.47-.14-.59,0-.79.6-1.68.21-2.52.29l-2.16.31-.33-.15Z" transform="translate(-5.07 -2.88)"/><path class="cls-4" d="M41.81,62.23a5.46,5.46,0,0,0-.31,1.66c.12,1.11-.56,1.63-1.29,2.18.17-.87.32-1.74.5-2.61a15.23,15.23,0,0,0,.4-1.58c.08-.74,0-1.49.09-2.23A23.25,23.25,0,0,0,41.42,56a9.55,9.55,0,0,1,.18-3.73,9.54,9.54,0,0,0,.3-1.43,24.46,24.46,0,0,1,.52-3.34A28.49,28.49,0,0,0,43.18,42v-.31h.1l.2.15-.6,8.41,0,.93-.12,1.09,0,.31-.09.94-.09,1.08c-.09.93-.16,1.87-.27,2.79a3,3,0,0,1-.21.64v.62l-.27,3.61Z" transform="translate(-5.07 -2.88)"/><path class="cls-4" d="M11.59,65.93A18.84,18.84,0,0,1,11,63.78c-.18-1-.25-2.07-.34-3.11a9.24,9.24,0,0,1-.07-2,10,10,0,0,0-.78-4.08c-.2-.71-.32-1.44-.5-2.16A1.81,1.81,0,0,0,9,51.93l-.22-1.41,0-.3L8.63,49l0-.31-.1-2.49c.13.08.37.14.39.26.22,1,.37,1.93.6,2.89.31,1.26.62,2.53,1,3.76a11.27,11.27,0,0,1,.63,4.28,36.73,36.73,0,0,0,.26,3.75C11.5,62.71,11.53,64.32,11.59,65.93Z" transform="translate(-5.07 -2.88)"/><path class="cls-5" d="M5.81,12.86l0-.28c.63-.23,1.26-.47,1.85.09l-.65.51H6.93l0,.15c0,.1,0,.19,0,.29s-.11.41-.16.62l-.29.95h0l-.63,3.9c0,.82-.13,1.64-.16,2.46-.08,1.88.72,3.55,1.29,5.27.1.33.16.67.25,1a3.28,3.28,0,0,1,.17.5c.17.87.32,1.74.48,2.61V32.3L8,36.19v.93l-.13,1-.16-.47,0-.62,0-.16-.06-.77c-.12-1.56-.25-3.12-.37-4.68l0-.31a34.31,34.31,0,0,0-.68-3.64c-.76-2.58-1.63-5.13-1.35-7.87.14-1.36.38-2.71.57-4.06l0-.76,0-1.1v-.78Z" transform="translate(-5.07 -2.88)"/><path class="cls-6" d="M15,4.8l-.16.28.94.44c-2.24-.08-4.48-.18-6.73-.25-.19,0-.39.18-.59.27l-.16.16L7.06,5.08,6.47,5l-.18.66-.16.63.15,2.95c-.1.59.32,1.35-.53,1.71-.08-.09-.21-.18-.22-.28C5.46,9.46,5.41,8.2,5.35,7l.2-.08-.2-.08h0V5.71a1.21,1.21,0,0,0,.78-1.25l1.55.14c.51.05,1,.14,1.54.14.21,0,.43.14.7-.21s1-.26,1.5-.27a10.89,10.89,0,0,1,1.38.19h.61l.5.17Z" transform="translate(-5.07 -2.88)"/><path class="cls-2" d="M42.89,50.22l.6-8.41.1-.47v-.76c.17-1.94.33-3.9.51-5.84.16-1.7.35-3.39.53-5.08a2.73,2.73,0,0,1,.2.82c-.11,1.55-.27,3.1-.42,4.65-.24,2.58-.54,5.16-.71,7.74A13,13,0,0,0,44,45.23a2.59,2.59,0,0,1-.13.77c-.19.84-.77,1.61-.33,2.55A1.47,1.47,0,0,1,42.89,50.22Z" transform="translate(-5.07 -2.88)"/><path class="cls-7" d="M41.62,4.77l2.73-.31a4.8,4.8,0,0,1,1-.06,2.16,2.16,0,0,1,.63.37l-.06,0v0L46,4.77l.74.17-.81.77.4,1.08c0,.26,0,.52,0,.78s0,.31,0,.47,0,.41,0,.61-.09.22-.13.32v1.24c-.06.84-.11,1.67-.17,2.5h-.27l-.07-.31,0-.46,0-1.22c0-.28.05-.55.07-.83.08-1.07.17-2.14.25-3.21,0,0,0-.09-.17-.29a5.74,5.74,0,0,0-1.88.49c-.62.41-1,.06-1.49-.1l.24-.22-.54-.41c.79-.1,1.57-.24,2.36-.28,1.06-.06,1.06,0,.9-1.07l-4,.41Z" transform="translate(-5.07 -2.88)"/><path class="cls-8" d="M5.75,11c.85-.36.43-1.12.53-1.71,1-.11.81,1.08,1.51,1.28-.21,1,.47.28.7.43a3.37,3.37,0,0,0,.83.63c.07,0,.2,0,.23.09a1.1,1.1,0,0,0,1.25.69h.31l-.15.38-1.86-.1-.54.13-.4,0-.31-.13a.26.26,0,0,0-.15,0c-.59-.56-1.22-.32-1.85-.09C5.82,12.05,5.78,11.52,5.75,11Z" transform="translate(-5.07 -2.88)"/><path class="cls-7" d="M33.55,76.78a30.19,30.19,0,0,1-3.12.49c-1.89.13-3.79.17-5.69.18-1.33,0-2.66-.09-4-.17a1.43,1.43,0,0,1-.47-.22l.18-.23h2l.32.15H25c2-.1,4-.18,6-.31.76,0,1.51-.2,2.27-.3Z" transform="translate(-5.07 -2.88)"/><path class="cls-3" d="M13.41,4.44H12.8a10.89,10.89,0,0,0-1.38-.19c-.52,0-1.26,0-1.5.27s-.49.21-.7.21c-.52,0-1-.09-1.54-.14.08-.81-.66-.49-1-.74C7,3.29,7.55,3.62,8,3.52c.68,0,1.36.15,2.05.15,1.11,0,2.21-.09,3.32-.15.62,0,1.24-.11,1.87-.17l0,.19-.89.6Z" transform="translate(-5.07 -2.88)"/><path class="cls-9" d="M37.57,72.16l2.64-.79.06.06-1.3.7c1,.47,1.05,1.33.17,2.09-.1.09-.1.3-.15.46l-1.71,1a2.58,2.58,0,0,1-.17-.22c.15-.31.31-.62.47-.92l.29-.18a5.88,5.88,0,0,0,.81-.57c.43-.45.32-.67-.32-.81v-.3a3.48,3.48,0,0,0-.39-.28C37.84,72.29,37.71,72.23,37.57,72.16Z" transform="translate(-5.07 -2.88)"/><path class="cls-5" d="M44.64,29.66c-.18,1.69-.37,3.38-.53,5.08-.18,1.94-.34,3.9-.51,5.84l-.25,0,.15-2.93q.22-3,.46-6.06v-.47a.76.76,0,0,0,0-.15l.46-2h.27l0,.48Z" transform="translate(-5.07 -2.88)"/><path class="cls-10" d="M18.74,77c-1.52-.42-3-.84-4.57-1.29-.16-.05-.28-.26-.42-.39.22-.22.74.06.78-.47l1.56.46.78.3.31.16h.46c.14.58.58.73,1.1.77Z" transform="translate(-5.07 -2.88)"/><path class="cls-2" d="M9.85,64.22l.31,5.14c-.19-.21-.53-.41-.56-.64-.16-1.29-.27-2.59-.32-3.89C9.27,64.63,9.65,64.42,9.85,64.22Z" transform="translate(-5.07 -2.88)"/><path class="cls-8" d="M37.58,74.51l-.47.92a7.79,7.79,0,0,1-1.06.66,6.34,6.34,0,0,1-1.23.41c-.41.11-.84.19-1.27.28l-.33-.41.62-.17a7.37,7.37,0,0,0,1.32-.37c.75-.35,1.59-.61,2-1.49Z" transform="translate(-5.07 -2.88)"/><path class="cls-2" d="M42.07,58a3,3,0,0,0,.21-.64c.11-.92.18-1.86.27-2.79a2.68,2.68,0,0,1,.29.8c0,.75-.08,1.49-.13,2.23s-.09,1.34-.18,2c0,.1-.26.17-.39.26l-.07-1.25V58Z" transform="translate(-5.07 -2.88)"/><path class="cls-2" d="M8.51,46.17l.1,2.49c-.15-.17-.41-.33-.43-.52-.14-1.24-.26-2.47-.31-3.72a6,6,0,0,1,.26-1.36l.13,0c0,.3.05.6.07.9l.06.61.07,1.1Z" transform="translate(-5.07 -2.88)"/><path class="cls-9" d="M14.53,74.82c0,.53-.56.25-.78.47l-1.24-.78c0-.1,0-.21-.07-.31l.42-1c.15.15.45.31.45.45,0,.89.66.93,1.22,1.14Z" transform="translate(-5.07 -2.88)"/><path class="cls-2" d="M8.93,52.55l.42,5c-.16-.64-.33-1.27-.48-1.9-.06-.26,0-.59-.13-.79-.48-.72,0-1.44-.06-2.15C8.68,52.65,8.84,52.6,8.93,52.55Z" transform="translate(-5.07 -2.88)"/><path class="cls-2" d="M7.7,37.61l.16.47.06,1.22,0,.34.17,1.71,0,1.4c-.46-.07-.46-.32-.46-.75,0-1.22-.07-2.45-.1-3.68A2.92,2.92,0,0,1,7.7,37.61Z" transform="translate(-5.07 -2.88)"/><path class="cls-11" d="M46,15.82l.09.3c0,.45.05.89.07,1.34l.05.05,0,.35-.25.39c-.23-1-.45-2-.62-3a2,2,0,0,1,.16-.73h.31l0,.26v.37Z" transform="translate(-5.07 -2.88)"/><path class="cls-3" d="M6.13,4.46a1.21,1.21,0,0,1-.78,1.25.83.83,0,0,1,.09-1.18C5.55,4.4,5.89,4.48,6.13,4.46Z" transform="translate(-5.07 -2.88)"/><path class="cls-1" d="M42.07,58.62l.07,1.25,0,.77,0,.16-.27,1.43Z" transform="translate(-5.07 -2.88)"/><path class="cls-6" d="M46.51,19.39l.24,1.88v.46c-.13.31-.26.63-.38.94C46.42,21.58,46.46,20.49,46.51,19.39Z" transform="translate(-5.07 -2.88)"/><path class="cls-2" d="M9.45,58.76l.12,1.73C8.84,60.13,8.8,59.54,9.45,58.76Z" transform="translate(-5.07 -2.88)"/><path class="cls-7" d="M25,3.53l1.3.46a.5.5,0,0,1,.34.35l-1.88-.27q0-.26.09-.54Z" transform="translate(-5.07 -2.88)"/><path class="cls-2" d="M8.75,50.52,9,51.93l-.07.16A1.18,1.18,0,0,1,8.75,50.52Z" transform="translate(-5.07 -2.88)"/><path class="cls-2" d="M5.81,13.64l0,1.1" transform="translate(-5.07 -2.88)"/><path class="cls-6" d="M44.72,29.36l0-.48.27-.94-.08,1.26Z" transform="translate(-5.07 -2.88)"/><path class="cls-2" d="M8.63,49l.1,1.25C8.25,49.84,8.42,49.4,8.63,49Z" transform="translate(-5.07 -2.88)"/><path class="cls-5" d="M8.1,42.75l0-1.4.33,1.38-.2.37-.13,0Z" transform="translate(-5.07 -2.88)"/><path class="cls-2" d="M42.75,52.24l.12-1.09Z" transform="translate(-5.07 -2.88)"/><path class="cls-2" d="M42.64,53.49l.09-.94Z" transform="translate(-5.07 -2.88)"/><path class="cls-7" d="M18.74,77v-.45l.31.14v.25Z" transform="translate(-5.07 -2.88)"/><path class="cls-12" d="M19.75,76.84h0c0-.11,0-.22,0-.33l.47.14Z" transform="translate(-5.07 -2.88)"/><path class="cls-6" d="M46,15.82l-.11-.63.25.16C46.08,15.51,46,15.67,46,15.82Z" transform="translate(-5.07 -2.88)"/><path class="cls-3" d="M46.29,8c0-.16,0-.31,0-.47l.28.2Z" transform="translate(-5.07 -2.88)"/><path class="cls-3" d="M5.35,6.33v.46L5.07,6.6Z" transform="translate(-5.07 -2.88)"/><path class="cls-10" d="M19.67,76.52c0,.11,0,.22,0,.33l-.66.06a2,2,0,0,0,0-.25l.47-.15Z" transform="translate(-5.07 -2.88)"/><path class="cls-10" d="M19.75,76.84l.39-.18.31,0a.76.76,0,0,0,0,.15l-.18.23Z" transform="translate(-5.07 -2.88)"/><path class="cls-3" d="M46.15,9c0-.1.09-.21.13-.32C46.24,8.76,46.19,8.87,46.15,9Z" transform="translate(-5.07 -2.88)"/><path class="cls-2" d="M5.82,13.17,5.58,13" transform="translate(-5.07 -2.88)"/><path class="cls-3" d="M5.35,6.79l.2.08L5.35,7Z" transform="translate(-5.07 -2.88)"/><path class="cls-2" d="M42.07,60.8l0-.16Z" transform="translate(-5.07 -2.88)"/><path class="cls-2" d="M9.38,58.31l0,.16a.34.34,0,0,1-.07-.11S9.36,58.33,9.38,58.31Z" transform="translate(-5.07 -2.88)"/><path class="cls-2" d="M7.66,36.83l0,.16-.07-.11S7.65,36.85,7.66,36.83Z" transform="translate(-5.07 -2.88)"/><path class="cls-6" d="M45.88,14.82l0-.26H46Z" transform="translate(-5.07 -2.88)"/><path class="cls-13" d="M8.46,42.73l-.33-1.38C8.07,40.78,8,40.21,8,39.64l0-.34-.06-1.22c0-.32.09-.64.13-1,.15.16.39.3.43.48.2.82.35,1.66.5,2.49.12.64.24,1.29.3,1.95.1,1,.06,1.94.23,2.89.22,1.17.58,2.31.89,3.47.23.87.5,1.73.71,2.6a21.68,21.68,0,0,1,.65,3c.09.84-.17,1.71-.09,2.54.12,1.17.45,2.32.62,3.49s.11,2.18.31,3.25-.2,2.22.77,3.06c0,0-.11.22-.18.33l-1.24-.62-.3-.16c-.06-1.61-.09-3.22-.18-4.82a36.73,36.73,0,0,1-.26-3.75,11.27,11.27,0,0,0-.63-4.28c-.4-1.23-.71-2.5-1-3.76-.23-1-.38-1.93-.6-2.89,0-.12-.26-.18-.39-.26l0-.46-.07-1.1L8.33,44Z" transform="translate(-5.07 -2.88)"/><path class="cls-2" d="M33.81,72.33l2.15,0c.28,0,.56,0,.84,0-.22.21-.4.53-.64.59a7,7,0,0,1-1.38,0,9.26,9.26,0,0,1-1.35.28c-2.34.18-4.67.39-7,.47-1.73,0-3.46-.09-5.19-.14H18.59l-2.34-.17h0A2.44,2.44,0,0,1,15.9,73a1.19,1.19,0,0,1-.11-.38l.46,0,4,.24,2.11-.17.29,0c.69.06,1.39.17,2.09.17.91,0,1.82-.11,2.73-.18a6.48,6.48,0,0,0,.88,0A2.87,2.87,0,0,0,29,72.5l1.76.26a6.21,6.21,0,0,0,.75,0Z" transform="translate(-5.07 -2.88)"/><path class="cls-11" d="M13.91,68.58l-.76-.32,1.22-.46a2.56,2.56,0,0,0,.62,0,5.41,5.41,0,0,0,.77-.27l-.54-.65a5.56,5.56,0,0,1-.82-1,6,6,0,0,1-.46-1.61c-.07-.46-.51-.94,0-1.42a8,8,0,0,1,.6,1.34A4.64,4.64,0,0,0,16.34,67c.15.11.37.37.33.45a1.22,1.22,0,0,1-.5.48c-.38.19-.78.33-1.18.49Z" transform="translate(-5.07 -2.88)"/><path class="cls-4" d="M13.91,68.58,15,68.44l.64.28-.5.93-.89,0,.3,1h-.31l-.48,0h-.31l-.37-.27-.06,0c0-.27-.07-.55-.12-.82s-.24-.51-.17-.69.41-.17.63-.23Z" transform="translate(-5.07 -2.88)"/><path class="cls-4" d="M11.89,66.09l1.24.62.48.47c-.15.15-.28.4-.46.45-.5.13-.26.4-.17.65l-2.47-.68.35-.8.8.1-.29-.38Z" transform="translate(-5.07 -2.88)"/><path class="cls-4" d="M20.24,72.85l-4-.24c.05-.2.1-.39.16-.59l.34-.15,2.29.36h.18v0l.76.11.18.2Z" transform="translate(-5.07 -2.88)"/><path class="cls-5" d="M12.86,73.22l-.42,1-.73-.5c.83-.42.36-1.08.31-1.67l2.2.52-.34.19Z" transform="translate(-5.07 -2.88)"/><path class="cls-5" d="M13,70.48l.06,0,.37.27h.31l.48,0h0l.26.31-.45.47-1.79-.81.26-.26Z" transform="translate(-5.07 -2.88)"/><path class="cls-8" d="M14,71.53l.45-.47c.58.16,1.17.3,1.74.48a2.4,2.4,0,0,1,.52.33l-.34.15Z" transform="translate(-5.07 -2.88)"/><path class="cls-12" d="M13.88,72.74l.34-.19,1.57.1a1.19,1.19,0,0,0,.11.38,2.44,2.44,0,0,0,.35.37Z" transform="translate(-5.07 -2.88)"/><path class="cls-4" d="M12,72c.05.59.52,1.25-.31,1.67a3.53,3.53,0,0,1-.25-1.07C11.48,72.42,11.82,72.23,12,72Z" transform="translate(-5.07 -2.88)"/><path class="cls-13" d="M13,68.28c-.09-.25-.33-.52.17-.65.18,0,.31-.3.46-.45.44,0,.82,0,.76.62l-1.22.46Z" transform="translate(-5.07 -2.88)"/><path class="cls-4" d="M12.51,70.46l-.26.26-.67-.54L11.7,70Z" transform="translate(-5.07 -2.88)"/><path class="cls-7" d="M30.26,4.47l2.16-.31-.15.42c1.8-.11,3.56.75,5.37.23l-.53-.52c.47.16,1.21-.49,1.41.47-.05.21-.11.42-.16.63-.91.05-1.82.12-2.73.15-2,.06-4,.1-6.06.17a3.89,3.89,0,0,0-.9.28h-.42c-.31-.5-.7-.35-1.11-.14l-.47,0,.16-.62c.13-.09.27-.27.4-.26.9,0,1.81.1,2.72.07l-1-.43V4.44l.7-.12h.29Z" transform="translate(-5.07 -2.88)"/><path class="cls-7" d="M20.61,4.14a5.79,5.79,0,0,0,1.3.13c.67-.07,1.33-.25,2.18-.42l.51.58a1.21,1.21,0,0,1,1.76.67L26,5.22l-.13-.14L24,5.31l.15.38-4.05-.14V5.24h1.58Zm3.32.47s0,.09.07.1.08,0,.12,0L24,4.52Z" transform="translate(-5.07 -2.88)"/><path class="cls-6" d="M20.14,5.24v.31l-2.34,0V5.09L20,5l0-.29-.36-.22V4a7,7,0,0,1,.8-.07s.09.14.14.22l1.11,1.09H20.45L20,5.07Z" transform="translate(-5.07 -2.88)"/><path class="cls-7" d="M19.67,4v.46l-3.07.6-.09-.29L18.43,4h0l.78-.15h.15Z" transform="translate(-5.07 -2.88)"/><path class="cls-10" d="M24.19,5.69,24,5.31l1.87-.23.13.14.32-.12.47.11c0,.21-.11.41-.16.62Z" transform="translate(-5.07 -2.88)"/><path class="cls-7" d="M17.8,5.09v.44h-2l-.94-.44Z" transform="translate(-5.07 -2.88)"/><path class="cls-7" d="M15,4.8l-1.1-.19h0l.62-.15h0l1.86-.31.32,0C16.33,4.78,15.67,4.79,15,4.8Z" transform="translate(-5.07 -2.88)"/><path class="cls-3" d="M19.36,3.84h-.15l-1.46-.46V3.23c.51,0,1,0,1.53,0A2.76,2.76,0,0,1,19.36,3.84Z" transform="translate(-5.07 -2.88)"/><path class="cls-3" d="M26.92,3.34l-1.54.2,0-.31,1.54-.18Z" transform="translate(-5.07 -2.88)"/><path class="cls-3" d="M16.72,4.12l-.32,0V3.26l.75.3-.28.27-.16-.11,0,.06.2.06Z" transform="translate(-5.07 -2.88)"/><path class="cls-7" d="M13.41,4.44l1-.3.16.31h0l-.62.15h0Z" transform="translate(-5.07 -2.88)"/><path class="cls-3" d="M15.68,3.48l.06,0,0,.07-.06,0S15.68,3.5,15.68,3.48Z" transform="translate(-5.07 -2.88)"/><path class="cls-7" d="M18.43,4l0-.07,0,.07Z" transform="translate(-5.07 -2.88)"/><path class="cls-11" d="M44,31.54q-.24,3-.46,6.06a2.64,2.64,0,0,0-.31.6c-.2.85-.12,1.9-.6,2.52-.76,1-.63,2.09-.94,3.11a21.93,21.93,0,0,0-.7,3.52,13.31,13.31,0,0,0,0,2.09v.31l-.3.78v.78c-.1.09-.27.18-.29.29q-.19,1.26-.33,2.55c-.22,2.2-.32,4.43-.68,6.62-.33,2-.58,4-1.9,5.78h1.78l-.16.75.5-.45.39.31-1.91.68.24.56-.59,0-1.42.28-.68-.87.92-.13v-.24H35.24V67h.62l.78-.11L36,66.37c.46-.69.89-1.34,1.31-2a1.23,1.23,0,0,0,.22-.55A12.43,12.43,0,0,1,38,61.06c.46-2.09.77-4.22,1.1-6.35.11-.66.11-1.33.16-2V52.4c.21-.76.48-1.51.62-2.29.25-1.42.37-2.86.65-4.27.23-1.14.63-2.25.91-3.38.38-1.63.77-3.26,1.06-4.9s.4-3.09.69-4.62A5,5,0,0,1,44,31.54Z" transform="translate(-5.07 -2.88)"/><path class="cls-13" d="M39.61,66.85l-.5.45.16-.75h-.91a3.51,3.51,0,0,1,.18-.82,11.47,11.47,0,0,0,1.23-4.87,20.88,20.88,0,0,1,.38-3c.17-.89.54-1.74.67-2.63A28.28,28.28,0,0,0,41,52c0-.22-.19-.44-.29-.65v-.78q.75-.16.3-.78v-.31c.09-.09.25-.16.27-.26.23-1.39.4-2.79.69-4.17a22.58,22.58,0,0,1,.84-2.73c0-.13.25-.21.39-.31a28.49,28.49,0,0,1-.76,5.57,24.46,24.46,0,0,0-.52,3.34,9.54,9.54,0,0,1-.3,1.43A9.55,9.55,0,0,0,41.42,56a23.25,23.25,0,0,1-.22,3.61c0,.74,0,1.49-.09,2.23a15.23,15.23,0,0,1-.4,1.58c-.18.87-.33,1.74-.5,2.61h0l-.51.14,0,.15.36,0Z" transform="translate(-5.07 -2.88)"/><path class="cls-14" d="M20,72.29l-.76-.11c-.39-.16-.78-.34-1.18-.49-.6-.21-1.21-.39-1.81-.58L18,70.9l2.2-.09a3,3,0,0,0,1,.39c2.79,0,5.58.06,8.37,0a15.92,15.92,0,0,0,2.45-.43l0-.15-1-.06v-.14h2.31a1.89,1.89,0,0,0,.61.32c.58.07,1.16.06,1.74.09v.34l0,.13-.14.06h-.14a.39.39,0,0,1-.15,0,4.22,4.22,0,0,0-.87,0,9.6,9.6,0,0,1-3.74.24,10.54,10.54,0,0,0-2.31.06c-1.45.08-2.89.2-4.34.25-.88,0-1.76-.08-2.63,0A4.36,4.36,0,0,0,20,72.29Z" transform="translate(-5.07 -2.88)"/><path class="cls-15" d="M20,72.29a4.36,4.36,0,0,1,1.21-.42c.87-.05,1.75.06,2.63,0,1.45-.05,2.89-.17,4.34-.25a10.54,10.54,0,0,1,2.31-.06,9.6,9.6,0,0,0,3.74-.24,4.22,4.22,0,0,1,.87,0l-.33.17-.78.33h-.6L29,72.5a2.87,2.87,0,0,1-.62.17,6.48,6.48,0,0,1-.88,0H22.64l-.29,0-2.18-.19Z" transform="translate(-5.07 -2.88)"/><path class="cls-4" d="M37.74,68.45l.59,0,.17,0-.3.47-.5.36.11.12.39-.32c.18.41-.12.51-.38.68s-.13.29-.19.44c.13,0,.27.14.38.12.53-.08,1.06-.21,1.58-.32l0,0,.64.52-1.42.54c-.39-.77-1-.32-1.56-.31l-.13-.41c-.08-.58-.5-1.24.38-1.59C37.62,68.7,37.67,68.55,37.74,68.45Z" transform="translate(-5.07 -2.88)"/><path class="cls-7" d="M34.78,73a7,7,0,0,0,1.38,0c.24-.06.42-.38.64-.59h.27l.19-.13.31,0c.14.07.27.13.4.21a3.48,3.48,0,0,1,.39.28l-1.92.5.21.71-.32.33H36c0-.07-.05-.2-.08-.2-.55,0-1.1-.09-1.66-.09-.09,0-.19.18-.29.28h-.3l-.08-.55,1.76-.24Z" transform="translate(-5.07 -2.88)"/><path class="cls-13" d="M38.5,68.42l-.17,0c-.06-.15-.13-.3-.24-.56L40,67.16h.38C40.32,67.9,40.28,67.93,38.5,68.42Z" transform="translate(-5.07 -2.88)"/><path class="cls-9" d="M37.27,70.74c.54,0,1.17-.46,1.56.31-.69.13-1.38.28-2.08.39-.13,0-.3-.14-.45-.21l.35-.39.26-.12Z" transform="translate(-5.07 -2.88)"/><path class="cls-8" d="M33.84,71.85H34l-.17.48-2.34.41a6.21,6.21,0,0,1-.75,0,6.41,6.41,0,0,1,.91-.45c.57-.19,1.16-.31,1.75-.46h.46Z" transform="translate(-5.07 -2.88)"/><path class="cls-5" d="M36.65,70.84l-.35.39-.53.34-.25-.26,0-.13Z" transform="translate(-5.07 -2.88)"/><path class="cls-4" d="M40.07,66.4l-.36,0,0-.15.51-.14c.06.1.12.19.17.29Z" transform="translate(-5.07 -2.88)"/><path class="cls-13" d="M38.2,69.05l-.39.32-.11-.12.5-.36Z" transform="translate(-5.07 -2.88)"/><path class="cls-5" d="M34.76,71.52l.33-.17a.39.39,0,0,0,.15,0l0,.18Z" transform="translate(-5.07 -2.88)"/><path class="cls-2" d="M37.26,72.18l-.19.13Z" transform="translate(-5.07 -2.88)"/><path class="cls-4" d="M39.59,70l.08,0-.06.07Z" transform="translate(-5.07 -2.88)"/><path class="cls-9" d="M35.22,71.55l0-.18h.14Z" transform="translate(-5.07 -2.88)"/><path class="cls-9" d="M40.21,71.37l.1-.06s0,.08,0,.12Z" transform="translate(-5.07 -2.88)"/><path class="cls-2" d="M37.11,4.29l.53.52c-1.81.52-3.57-.34-5.37-.23l.15-.42c.84-.08,1.73.31,2.52-.29.12-.09.39,0,.59,0a5.15,5.15,0,0,1,.88,0A3.32,3.32,0,0,1,37.11,4.29Zm-1.68.2v.07h1.19V4.49Z" transform="translate(-5.07 -2.88)"/><path class="cls-10" d="M38.36,5.39c0-.21.11-.42.16-.63.4,0,.79,0,1.18,0,.64,0,1.28,0,1.92,0l-.31.45Z" transform="translate(-5.07 -2.88)"/><path class="cls-2" d="M30.26,4.47l-.33-.15Z" transform="translate(-5.07 -2.88)"/><path class="cls-16" d="M43.18,42c-.14.1-.35.18-.39.31A22.58,22.58,0,0,0,42,45c-.29,1.38-.46,2.78-.69,4.17,0,.1-.18.17-.27.26a13.31,13.31,0,0,1,0-2.09,21.93,21.93,0,0,1,.7-3.52c.31-1,.18-2.14.94-3.11.48-.62.4-1.67.6-2.52a2.64,2.64,0,0,1,.31-.6l-.15,2.93c-.06.38-.11.75-.16,1.13Z" transform="translate(-5.07 -2.88)"/><path class="cls-13" d="M43.19,41.66c.05-.38.1-.75.16-1.13l.25,0c0,.26,0,.51,0,.76l-.3.32Z" transform="translate(-5.07 -2.88)"/><path class="cls-5" d="M43.29,41.66l.3-.32-.1.47Z" transform="translate(-5.07 -2.88)"/><path class="cls-1" d="M42.07,58v0Z" transform="translate(-5.07 -2.88)"/><path class="cls-17" d="M35.86,67H31.77c-.5,0-1,0-1.51,0s-.87.12-1.3.15c-1.89.11-3.77-.46-5.66,0a7,7,0,0,1-.79.07l-.05.23a2,2,0,0,0,.6.3,10,10,0,0,0,1.64.07,8.11,8.11,0,0,1,2.6.08,4.44,4.44,0,0,0,1.31,0c.46,0,.92-.1,1.39-.1,1.46,0,2.92,0,4.39,0a2.89,2.89,0,0,0,.85-.3h1.31v.24l-.92.13.68.87-.92,0h-.61l-2.66.12a4.61,4.61,0,0,0-.81-.15H24.18a1.72,1.72,0,0,1-.75-.23c-.22-.11-.39-.38-.61-.43-.63-.13-1.27-.19-1.91-.27-.14-.16-.27-.39-.45-.45-.9-.31-1.82-.56-2.73-.86a.83.83,0,0,1-.37-.37,5,5,0,0,1-.48-.88c-.63-1.53-1.32-3-1.84-4.61a26,26,0,0,1-.58-3.07c-.27-1.38-.58-2.76-.85-4.14-.41-2.08-.51-4.21-1.09-6.26-.37-1.33-.7-2.68-1-4-.42-1.61-.93-3.2-1.25-4.82s-.38-3.18-.69-4.74C9.29,32.35,9.35,31,8.41,30c-.19-.2-.35-.41-.53-.62l-.31-1.9c-.24-.81-.47-1.62-.7-2.43C7,24,7.24,23,7.36,22a12.5,12.5,0,0,0,0-1.62V20c.1-.11.27-.21.28-.33.11-.72.2-1.44.26-2.16a5.14,5.14,0,0,0-.07-.78V15.34c.08-.15-.06-.28-.17-.44-.27-.42-.52-.84-.78-1.27,0-.1,0-.19,0-.29l0-.15h.3l.44.16c-.32.46.16.63.33.91s.11.49.27.63c.55.48.38,1.16.33,1.66-.15,1.6-.57,3.18-.73,4.78a33.49,33.49,0,0,0-.15,4.48,5.54,5.54,0,0,0,.59,1.68,2.18,2.18,0,0,0,.29,1.67,12.82,12.82,0,0,1,1.53,4.15,8.92,8.92,0,0,0,.2,1,9.49,9.49,0,0,0,.07,1.51,39.71,39.71,0,0,0,1.9,7.07A33.89,33.89,0,0,1,14.07,50c.29,1.62.6,3.25.94,4.87.08.39.37.74.44,1.13.24,1.37.4,2.75.64,4.12A11,11,0,0,0,18,64.89c.52.71,1.1,1.58,2,1.63a24.86,24.86,0,0,0,3.75-.24c.68-.08,1.33-.39,2-.43.95,0,1.92.07,2.88.08a14.68,14.68,0,0,0,1.61-.11l3.16-.38a.26.26,0,0,0,.17-.14l.79-2c.49,0,.69-.34.87-1a3.67,3.67,0,0,0,.27-2.14c0-.13.13-.32.2-.48a6.69,6.69,0,0,0,.69-1.62A20.9,20.9,0,0,0,37,53.36c0-.14.14-.31.24-.45a5.62,5.62,0,0,0,.6-.87,17.12,17.12,0,0,0,.5-1.77c.17-.74.34-1.49.48-2.23s.17-1.37.29-2,.24-1.13.36-1.69l.16-1.24.15-.31.32-1.25h.16c.71,1.18,0,2.35-.11,3.5-.14,1.91-.59,3.79-.91,5.69,0,.09,0,.2,0,.3a4.38,4.38,0,0,1-.27.82c-.21.42-.08.57.34.58v.31c-.14.07-.4.11-.42.22-.17.65-.3,1.31-.41,2-.08.5-.07,1-.18,1.51a23.59,23.59,0,0,1-.6,3.15,27.66,27.66,0,0,0-.88,4.08,3.67,3.67,0,0,1-2.26,3c.31.06.61,0,.88,0S35.71,66.89,35.86,67Z" transform="translate(-5.07 -2.88)"/><path class="cls-16" d="M14.37,67.8c.06-.59-.32-.65-.76-.62l-.48-.47c.07-.11.2-.31.18-.33-1-.84-.58-2-.77-3.06s-.16-2.17-.31-3.25-.5-2.32-.62-3.49c-.08-.83.18-1.7.09-2.54a21.68,21.68,0,0,0-.65-3c-.21-.87-.48-1.73-.71-2.6-.31-1.16-.67-2.3-.89-3.47C9.28,44,9.32,43,9.22,42c-.06-.66-.18-1.31-.3-1.95-.15-.83-.3-1.67-.5-2.49,0-.18-.28-.32-.43-.48v-.93l-.15-3.88c.15.12.42.23.45.38.19,1.06.33,2.12.49,3.18l.54,3.46c.29,1.79.57,3.58.86,5.37a16.48,16.48,0,0,0,.43,2.09c.38,1.24,1,2.44,1.24,3.7.38,1.69.56,3.43.81,5.15.06.4,0,.81.08,1.21.27,1.69.57,3.38.87,5.06a2.29,2.29,0,0,0,.31.6v.31c-.49.48-.05,1,0,1.42a6,6,0,0,0,.46,1.61,5.56,5.56,0,0,0,.82,1l.54.65a5.41,5.41,0,0,1-.77.27A2.56,2.56,0,0,1,14.37,67.8Z" transform="translate(-5.07 -2.88)"/><path class="cls-11" d="M13.92,62.51a2.29,2.29,0,0,1-.31-.6c-.3-1.68-.6-3.37-.87-5.06-.07-.4,0-.81-.08-1.21-.25-1.72-.43-3.46-.81-5.15-.28-1.26-.86-2.46-1.24-3.7a16.48,16.48,0,0,1-.43-2.09c-.29-1.79-.57-3.58-.86-5.37l-.54-3.46c-.16-1.06-.3-2.12-.49-3.18,0-.15-.3-.26-.45-.38V30.93l0-.34a16.87,16.87,0,0,1,1,2.46c.28,1.11.33,2.27.5,3.41.07.44.23.88.31,1.32.25,1.51.44,3,.73,4.53.13.66.48,1.26.67,1.91.27.9.49,1.83.73,2.74.3,1.1.65,2.19.86,3.31s.22,2.27.37,3.4c.2,1.48.46,2.95.68,4.42,0,.2-.06.41,0,.62,0,.55.13,1.09.16,1.65S13.9,61.79,13.92,62.51Z" transform="translate(-5.07 -2.88)"/><path class="cls-4" d="M6.87,25c.23.81.46,1.62.7,2.43l-.38.37c-.09-.33-.15-.67-.25-1-.57-1.72-1.37-3.39-1.29-5.27,0-.82.11-1.64.16-2.46.11,1,.21,2,.31,3,.1.41.19.82.29,1.23Z" transform="translate(-5.07 -2.88)"/><path class="cls-11" d="M7.37,20v.31c-.1.14-.2.29-.31.42l-.3.36c0-1,.06-2,.17-3.06,0-.45.39-.88.38-1.31A8.09,8.09,0,0,0,6.9,15l-.17-.79c0-.21.11-.41.16-.62.26.43.51.85.78,1.27.11.16.25.29.17.44v1.41a2,2,0,0,0-.36.7C7.41,18.3,7.4,19.17,7.37,20Z" transform="translate(-5.07 -2.88)"/><path class="cls-13" d="M6.73,14.25,6.9,15c0,.44-.09.87-.14,1.31-.12,1.25-.24,2.49-.38,3.74-.07.65-.17,1.31-.26,2-.1-1-.2-2-.31-3l.63-3.9,0,0,0,.06Z" transform="translate(-5.07 -2.88)"/><path class="cls-16" d="M7.23,13.19H7.05l.65-.51a.26.26,0,0,1,.15,0l.09.27.22-.14h.4l.54-.14,1.86.1.28,0h0v.18l-.15.29-.67.1-.25,0Z" transform="translate(-5.07 -2.88)"/><path class="cls-13" d="M7.19,27.82l.38-.37c.1.63.21,1.27.31,1.9,0,.42,0,.83,0,1.24l0,.34c-.16-.87-.31-1.74-.48-2.61A3.28,3.28,0,0,0,7.19,27.82Z" transform="translate(-5.07 -2.88)"/><path class="cls-13" d="M8,36.19v0Z" transform="translate(-5.07 -2.88)"/><path class="cls-11" d="M6.93,13.19l0,.15Z" transform="translate(-5.07 -2.88)"/><path class="cls-3" d="M15.79,5.52h2l2.34,0,4.05.14,2.48.14.47,0c.29.71.75,0,1.11.14h.31l-.32.47-3.12-.14h-.78a8.66,8.66,0,0,0-1-.11c-1.38,0-2.75.07-4.12.11-.09,0-.18-.14-.26-.13-1.21,0-2.42.06-3.63,0s-2.5-.15-3.74-.22l-1.41-.15L8.62,5.7l-.13,0a.59.59,0,0,1,0-.14c.2-.09.4-.27.59-.27C11.31,5.34,13.55,5.44,15.79,5.52Z" transform="translate(-5.07 -2.88)"/><path class="cls-10" d="M11.26,12.91c0-.06,0-.12,0-.18l.09-.06,0,0-.08.07-.28,0,.15-.38-.19-.2-.12.21a1.1,1.1,0,0,1-1.25-.69c0-.06-.16-.05-.23-.09A3.37,3.37,0,0,1,8.49,11c-.23-.15-.91.6-.7-.43-.7-.2-.55-1.39-1.51-1.28L6.13,6.33c.44.39.9.76,1.3,1.19a16.33,16.33,0,0,1,1,1.3l-.15.31L8.14,9l0,.06.21.06c.25.41.5.83.77,1.24s.47.64.82,1.11L11,11.9l.71-.6h.15v.32c0,.14-.13.35-.08.41a.77.77,0,0,0,.47.2c.55.07,1.09.11,1.64.16l-.16.3Zm-3.53-4-.06,0v.08h0A.07.07,0,0,0,7.73,8.87ZM6.4,7.72l0,0a.09.09,0,0,0,0,0l.06.07Z" transform="translate(-5.07 -2.88)"/><path class="cls-7" d="M8.46,8.82a16.33,16.33,0,0,0-1-1.3c-.4-.43-.86-.8-1.3-1.19l.16-.63h.46l.19-.3.12-.32,1.25.62.18,0,.13,0c0,.51-.31,1.22-.07,1.51.47.55.21,1,.08,1.44h0l-.15.15Z" transform="translate(-5.07 -2.88)"/><path class="cls-3" d="M7.06,5.08l-.12.32c-.07.1-.13.2-.19.3H6.29q.09-.32.18-.66Z" transform="translate(-5.07 -2.88)"/><path class="cls-7" d="M12.8,4.45h0Z" transform="translate(-5.07 -2.88)"/><path class="cls-12" d="M8.49,5.68l-.18,0,.16-.16A.59.59,0,0,0,8.49,5.68Z" transform="translate(-5.07 -2.88)"/><path class="cls-9" d="M45.69,9.9c0,.28,0,.55-.07.83a2,2,0,0,1-.76,0,2.74,2.74,0,0,0-1.79.13,9.33,9.33,0,0,0-1.26.56,8.61,8.61,0,0,1-1.21.41,2.44,2.44,0,0,1-.69,0l.09-.58-.56.48-.32-.46-.15.08.2.66c-.78,0-1.45,0-2.12,0-.51,0-1,.12-1.53.14-.31,0-.63-.12-.94-.13a9.6,9.6,0,0,0-1.61.08c-.95.15-1.9.36-2.85.55l-1.71.21H28c-.18-.88-.65-.55-1.11-.28l-.63-.16-.64-.62v-.33c.51.42.73-.21,1.1-.3h0l.18.46c0,.11.06.29.11.3.43.06.87.09,1.41.13l.36-.49c.89.65,1.64,0,2.44-.25l.11.19.05-.19c.83.35,1.54-.29,2.33-.29.67.16,1.34.33,2,.46a3.3,3.3,0,0,0,1,0,8.4,8.4,0,0,0,1.2-.36c.27-1.16.51-1.3,1.5-.76l.07,0-.07,0,1.37-.84c.31-.32.45-.54.65-.63.37-.17.85-.17,1.16-.41.81-.63,1.67-.22,2.5-.22.09,0,.27.3.26.46a6.3,6.3,0,0,1-.23,1Z" transform="translate(-5.07 -2.88)"/><path class="cls-8" d="M39.44,10.37c-1-.54-1.23-.4-1.5.76a8.4,8.4,0,0,1-1.2.36,3.3,3.3,0,0,1-1,0c-.68-.13-1.35-.3-2-.46l-.15-.79h0c.5,0,1.06-.64,1.49.14a1.72,1.72,0,0,0,.47-.3c.3-.4.56-.83.84-1.24h0l.2.49,1.59-.52L37.58,8l1.42.2.29-1.12,3.11-.28c.49.16.87.51,1.49.1a5.74,5.74,0,0,1,1.88-.49c.12.2.18.25.17.29-.08,1.07-.17,2.14-.25,3.21l-.54-.18a6.3,6.3,0,0,0,.23-1c0-.16-.17-.46-.26-.46-.83,0-1.69-.41-2.5.22-.31.24-.79.24-1.16.41-.2.09-.34.31-.65.63l-1.37.84Z" transform="translate(-5.07 -2.88)"/><path class="cls-3" d="M38.36,5.39l3-.17,4-.41c.16,1.05.16,1-.9,1.07-.79,0-1.57.18-2.36.28h0L41.94,6c-.76,0-1.52-.06-2.28,0a10.09,10.09,0,0,0-1.31.19l-6.06.29-3-.13L28.67,6a3.89,3.89,0,0,1,.9-.28c2-.07,4-.11,6.06-.17C36.54,5.51,37.45,5.44,38.36,5.39Z" transform="translate(-5.07 -2.88)"/><path class="cls-5" d="M30.12,12.62c.95-.19,1.9-.4,2.85-.55A9.6,9.6,0,0,1,34.58,12c.31,0,.63.14.94.13.51,0,1-.12,1.53-.14.67,0,1.34,0,2.12,0l-.2-.66.15-.08.32.46.56-.48-.09.58a2.44,2.44,0,0,0,.69,0,8.61,8.61,0,0,0,1.21-.41,9.33,9.33,0,0,1,1.26-.56,2.74,2.74,0,0,1,1.79-.13,2,2,0,0,0,.76,0c0,.4,0,.81,0,1.22l-3.19.18-.92.18-1.41.24a13.46,13.46,0,0,1-1.42,0c-1.35-.13-2.68.17-4,.06-.7-.06-1.41.23-2.14-.12-.26-.12-.65,0-1,.07l-.3.17ZM43,11.3l.06,0a.07.07,0,0,0,0,0l-.06.08-.08.06h0S43,11.32,43,11.3Z" transform="translate(-5.07 -2.88)"/><path class="cls-12" d="M38.35,6.17A10.09,10.09,0,0,1,39.66,6c.76,0,1.52,0,2.28,0l.16.14h0l.54.41-.24.22-3.11.28Z" transform="translate(-5.07 -2.88)"/><path class="cls-4" d="M42.41,12.13,45.6,12c0,.15,0,.3,0,.46l-1,.16a7.3,7.3,0,0,1-1.15,0A6.16,6.16,0,0,1,42.41,12.13Z" transform="translate(-5.07 -2.88)"/><path class="cls-14" d="M44.61,12.57l1-.16c0,.1,0,.2.07.31l.24.35c0,.3-.06.59-.08.88v.32c0,.09,0,.19-.07.29h-.28c-.1-.4-.21-.81-.32-1.22L45,13.16l-.48-.31Z" transform="translate(-5.07 -2.88)"/><path class="cls-6" d="M45.71,12.72" transform="translate(-5.07 -2.88)"/><path class="cls-3" d="M46,4.77l-.06.07v0l.06,0Z" transform="translate(-5.07 -2.88)"/><path class="cls-5" d="M9.1,12.67l-.54.14Z" transform="translate(-5.07 -2.88)"/><path class="cls-5" d="M8.16,12.82,7.94,13l-.09-.27Z" transform="translate(-5.07 -2.88)"/><path class="cls-7" d="M10.8,12.4l.12-.21.19.2Z" transform="translate(-5.07 -2.88)"/><path class="cls-16" d="M45,27.94l-.27.94h-.27V28.6s.06,0,.05-.06a.61.61,0,0,0-.05-.12,12.87,12.87,0,0,1,.27-1.53c.24-.9.54-1.78.82-2.66.1-.1.26-.19.28-.31.18-1.11.34-2.23.48-3.35,0-.41,0-.82,0-1.23H46v2a25.63,25.63,0,0,0-1.13-6.47l.64-.38h0a2,2,0,0,0-.16.73c.17,1,.39,1.92.62,3l.25-.39.26,1.53c0,1.1-.09,2.19-.14,3.28l-.09.43-.12.19-.06.61-.1.64-.14.46,0,.15-.15.47-.18.62a.05.05,0,0,0,0,.08l-.09.24,0,.26-.16.51Z" transform="translate(-5.07 -2.88)"/><path class="cls-6" d="M45.49,26.24l.18-.62C45.88,25.91,45.94,26.15,45.49,26.24Z" transform="translate(-5.07 -2.88)"/><path class="cls-6" d="M46,24.54l.1-.64Z" transform="translate(-5.07 -2.88)"/><path class="cls-6" d="M45.18,27.33l.16-.51Z" transform="translate(-5.07 -2.88)"/><path class="cls-6" d="M45.38,26.56l.09-.24Z" transform="translate(-5.07 -2.88)"/><path class="cls-6" d="M45.82,25.15l0-.15a.51.51,0,0,1,0,.13S45.84,25.14,45.82,25.15Z" transform="translate(-5.07 -2.88)"/><path class="cls-6" d="M46.16,23.29l.12-.19Z" transform="translate(-5.07 -2.88)"/><path class="cls-2" d="M36,74.19h.31c.36.43,0,.58-.3.74s-.58.19-.84.35c-.47.28-.91.61-1.35.92l-.62.17c-.76.1-1.51.25-2.27.3-2,.13-4,.21-6,.31-.52-.07-1-.54-1.57,0h-.61l-.32-.15H21.4c-.25-.52-.6-.32-.95-.14l-.31,0-.47-.14h-.15l-1.88-.76h-.46l-.31-.16-.78-.3-.77-1.4.77.15a10.07,10.07,0,0,0,1.32.3c1.63.18,3.27.32,4.91.47a4,4,0,0,0,.68.1c.92,0,1.83-.06,2.74-.1h1.71l.63-.15,5.61-.47H34c.28,0,.63-.05.81.09C35.27,74.65,35.63,74.41,36,74.19ZM21,75.59a24.25,24.25,0,0,0,11.08,0Z" transform="translate(-5.07 -2.88)"/><path class="cls-12" d="M23.4,77c.53-.54,1.05-.07,1.57,0Z" transform="translate(-5.07 -2.88)"/><path class="cls-12" d="M20.45,76.68c.35-.18.7-.38.95.14h-.94A.76.76,0,0,1,20.45,76.68Z" transform="translate(-5.07 -2.88)"/><path class="cls-12" d="M22.47,76.83l.32.15Z" transform="translate(-5.07 -2.88)"/><path class="cls-12" d="M21.69,76.82h0Z" transform="translate(-5.07 -2.88)"/><path class="cls-8" d="M36.65,73.86l-.21-.71,1.92-.5v.29l-.06.07.07-.06c.64.14.75.36.32.81a5.88,5.88,0,0,1-.81.57c.1-.5-.12-.69-.61-.61Z" transform="translate(-5.07 -2.88)"/><path class="cls-7" d="M37.26,73.72c.49-.08.71.11.61.61l-.29.18-.47-.17Z" transform="translate(-5.07 -2.88)"/><path class="cls-18" d="M45.53,24.23c-.28.88-.58,1.76-.82,2.66a12.87,12.87,0,0,0-.27,1.53v.46c-.15.68-.31,1.36-.46,2v.62a5,5,0,0,0-.75,1.4c-.29,1.53-.41,3.09-.69,4.62s-.68,3.27-1.06,4.9c-.28,1.13-.68,2.24-.91,3.38-.28,1.41-.4,2.85-.65,4.27-.14.78-.41,1.53-.62,2.29-.42,0-.55-.16-.34-.58a4.38,4.38,0,0,0,.27-.82c0-.1,0-.21,0-.3.32-1.9.77-3.78.91-5.69.08-1.15.82-2.32.11-3.5l.46-.32a3.52,3.52,0,0,0,.47-2.49c.14-.53.33-1.06.43-1.6.22-1.24.31-2.51.62-3.72a17.28,17.28,0,0,1,1.13-2.92c.42-.95,1.08-1.84.62-3,.1-.41.23-.82.3-1.24,0-.15-.09-.31-.15-.47a.76.76,0,0,0,0-.15l.31-.16c.21-.43.44-.84.61-1.28A9.93,9.93,0,0,0,45.36,23Z" transform="translate(-5.07 -2.88)"/><path class="cls-11" d="M44,31.07v-.15A.76.76,0,0,1,44,31.07Z" transform="translate(-5.07 -2.88)"/><path class="cls-12" d="M15.32,73.88l.77,1.4-1.56-.46h0c-.22-.33-.43-.67-.69-1.07C14.33,73.33,14.82,73.78,15.32,73.88Z" transform="translate(-5.07 -2.88)"/><path class="cls-12" d="M17.64,75.75l1.88.76-.47.15-.31-.14C18.22,76.48,17.78,76.33,17.64,75.75Z" transform="translate(-5.07 -2.88)"/><path class="cls-12" d="M16.87,75.58l.31.16Z" transform="translate(-5.07 -2.88)"/><path class="cls-6" d="M46.15,17.46c0-.45,0-.89-.07-1.34.07.42.15.84.23,1.25Z" transform="translate(-5.07 -2.88)"/><path class="cls-16" d="M46.15,17.46l.16-.09-.11.14Z" transform="translate(-5.07 -2.88)"/><path class="cls-6" d="M45.87,14.27v0Z" transform="translate(-5.07 -2.88)"/><path class="cls-12" d="M37.26,73.72l-.15.62c-.36.88-1.2,1.14-2,1.49a7.37,7.37,0,0,1-1.32.37c.44-.31.88-.64,1.35-.92.26-.16.58-.2.84-.35s.66-.31.3-.74l.32-.33Z" transform="translate(-5.07 -2.88)"/><path class="cls-4" d="M8.39,44.61l.07,1.1Z" transform="translate(-5.07 -2.88)"/><path class="cls-4" d="M8.46,42.73,8.33,44c0-.3,0-.6-.07-.9Z" transform="translate(-5.07 -2.88)"/><path class="cls-10" d="M15.32,73.88c-.5-.1-1-.55-1.48-.14.26.4.47.74.69,1.07-.56-.21-1.25-.25-1.22-1.14,0-.14-.3-.3-.45-.45l1-.48,2.37.66h0l-.16.63Z" transform="translate(-5.07 -2.88)"/><path class="cls-5" d="M7.92,39.3l0,.34Z" transform="translate(-5.07 -2.88)"/><path class="cls-12" d="M16.09,74l.16-.63,2.34.17c.46.05.92.13,1.38.14a10.82,10.82,0,0,0,1.26-.15c1.73,0,3.46.19,5.19.14,2.34-.08,4.67-.29,7-.47A9.26,9.26,0,0,0,34.78,73l.59.44-1.76.24.08.55-5.61.47-.63.15h-.3l-.2-.28-.27.28h-.94c-.81-.1-1.63-.24-2.45-.28a3,3,0,0,0-1,.28c-1.64-.15-3.28-.29-4.91-.47A10.07,10.07,0,0,1,16.09,74Z" transform="translate(-5.07 -2.88)"/><path class="cls-5" d="M33.38,71.85c-.59.15-1.18.27-1.75.46a6.41,6.41,0,0,0-.91.45L29,72.5Z" transform="translate(-5.07 -2.88)"/><path class="cls-9" d="M20.17,72.49l2.18.19-2.11.17Z" transform="translate(-5.07 -2.88)"/><path class="cls-16" d="M22.64,72.64h4.82c-.91.07-1.82.17-2.73.18C24,72.81,23.33,72.7,22.64,72.64Z" transform="translate(-5.07 -2.88)"/><path class="cls-7" d="M21.23,73.56a10.82,10.82,0,0,1-1.26.15c-.46,0-.92-.09-1.38-.14Z" transform="translate(-5.07 -2.88)"/><path class="cls-18" d="M7.87,30.59c0-.41,0-.82,0-1.24.18.21.34.42.53.62.94,1,.88,2.38,1.12,3.61.31,1.56.37,3.18.69,4.74s.83,3.21,1.25,4.82c.35,1.34.68,2.69,1,4,.58,2.05.68,4.18,1.09,6.26.27,1.38.58,2.76.85,4.14A26,26,0,0,0,15,60.63c.52,1.57,1.21,3.08,1.84,4.61a5,5,0,0,0,.48.88.83.83,0,0,0,.37.37c.91.3,1.83.55,2.73.86.18.06.31.29.45.45H20.3c-.8.09-1.61.16-2.4.29-.16,0-.28.31-.41.48l-.64,0-1.22.13L15,68.44c.4-.16.8-.3,1.18-.49a1.22,1.22,0,0,0,.5-.48c0-.08-.18-.34-.33-.45a4.64,4.64,0,0,1-1.82-2.86,8,8,0,0,0-.6-1.34v-.31c0-.72,0-1.44-.05-2.15s-.12-1.1-.16-1.65c0-.21.07-.42,0-.62-.22-1.47-.48-2.94-.68-4.42-.15-1.13-.17-2.28-.37-3.4s-.56-2.21-.86-3.31c-.24-.91-.46-1.84-.73-2.74-.19-.65-.54-1.25-.67-1.91-.29-1.5-.48-3-.73-4.53-.08-.44-.24-.88-.31-1.32-.17-1.14-.22-2.3-.5-3.41A16.87,16.87,0,0,0,7.87,30.59Z" transform="translate(-5.07 -2.88)"/><path class="cls-13" d="M15.63,68.72l1.22-.13,1.57.31-.14.22,2.79.26-1.6.3h0c-.06-.09-.13-.26-.19-.26-.66,0-1.33,0-2,0v.21l1.94.09-2.68.14-1.22.08c.26.28.38.39.48.52s.49.31.16.61l-1.4-.3-.3-1,.89,0Z" transform="translate(-5.07 -2.88)"/><path class="cls-15" d="M14.54,70.74l1.4.3.3.07c.6.19,1.21.37,1.81.58.4.15.79.33,1.18.49v0H19l-2.29-.36a2.4,2.4,0,0,0-.52-.33c-.57-.18-1.16-.32-1.74-.48a3.88,3.88,0,0,1-.26-.31Z" transform="translate(-5.07 -2.88)"/><path class="cls-15" d="M14.23,70.76l-.48,0Z" transform="translate(-5.07 -2.88)"/><path class="cls-1" d="M13.44,70.73l-.37-.27Z" transform="translate(-5.07 -2.88)"/><path class="cls-5" d="M19,72.23h0Z" transform="translate(-5.07 -2.88)"/><path class="cls-2" d="M28.67,6l.65.34-.93.46-.17-.3,0,0L28.56,6Z" transform="translate(-5.07 -2.88)"/><path class="cls-2" d="M28.25,6c-.36-.16-.82.57-1.11-.14C27.55,5.65,27.94,5.5,28.25,6Z" transform="translate(-5.07 -2.88)"/><path class="cls-2" d="M20.14,5.24,20,5.07l.42.16Z" transform="translate(-5.07 -2.88)"/><path class="cls-2" d="M23.93,4.61l.1-.09.09.15s-.09,0-.12,0S24,4.64,23.93,4.61Z" transform="translate(-5.07 -2.88)"/><path class="cls-2" d="M26,5.22l-.13-.14Z" transform="translate(-5.07 -2.88)"/><path class="cls-6" d="M13.91,4.61l.62-.15Z" transform="translate(-5.07 -2.88)"/><path class="cls-2" d="M16.87,3.84l-.2-.06,0-.06.16.11Z" transform="translate(-5.07 -2.88)"/><path class="cls-18" d="M35.24,67.49a2.89,2.89,0,0,1-.85.3c-1.47,0-2.93,0-4.39,0-.47,0-.93.07-1.39.1a4.44,4.44,0,0,1-1.31,0,8.11,8.11,0,0,0-2.6-.08,10,10,0,0,1-1.64-.07,2,2,0,0,1-.6-.3l.05-.23a7,7,0,0,0,.79-.07c1.89-.46,3.77.11,5.66,0,.43,0,.86-.12,1.3-.15s1,0,1.51,0h3.47Z" transform="translate(-5.07 -2.88)"/><path class="cls-16" d="M40.69,51.31c.1.21.3.43.29.65a28.28,28.28,0,0,1-.16,3.32c-.13.89-.5,1.74-.67,2.63a20.88,20.88,0,0,0-.38,3,11.47,11.47,0,0,1-1.23,4.87,3.51,3.51,0,0,0-.18.82h-.87c1.32-1.75,1.57-3.8,1.9-5.78.36-2.19.46-4.42.68-6.62q.13-1.29.33-2.55C40.42,51.49,40.59,51.4,40.69,51.31Z" transform="translate(-5.07 -2.88)"/><path class="cls-18" d="M35.86,67c-.15-.13-.28-.34-.45-.37s-.57,0-.88,0a3.67,3.67,0,0,0,2.26-3,27.66,27.66,0,0,1,.88-4.08,23.59,23.59,0,0,0,.6-3.15c.11-.49.1-1,.18-1.51.11-.67.24-1.33.41-2,0-.11.28-.15.42-.22-.05.67-.05,1.34-.16,2-.33,2.13-.64,4.26-1.1,6.35a12.43,12.43,0,0,0-.46,2.77,1.23,1.23,0,0,1-.22.55c-.42.65-.85,1.3-1.31,2l.61.54Z" transform="translate(-5.07 -2.88)"/><path class="cls-13" d="M34.79,68.77h.29c0,.08.09.15.13.22l.19-.23.92,0,1.42-.28c-.07.1-.12.25-.22.29-.88.35-.46,1-.38,1.59-.08.09-.15.19-.23.29l-1.35.22c-.58,0-1.16,0-1.74-.09a1.89,1.89,0,0,1-.61-.32l1.57-.16.26-.12-.29-.07L30.26,70V69.7l2.78-.07,1.37-.1Z" transform="translate(-5.07 -2.88)"/><path class="cls-16" d="M41,49.75q.45.61-.3.78Z" transform="translate(-5.07 -2.88)"/><path class="cls-15" d="M34.78,70.27l-1.57.16H30.9v.14l1,.06,0,.15a15.92,15.92,0,0,1-2.45.43c-2.79.05-5.58,0-8.37,0a3,3,0,0,1-1-.39c-.08-.08-.16-.21-.23-.21-.66,0-1.31,0-2,0l-1.13.05,0-.23h0l.24-.12,10-.32c1.05,0,2.11,0,3.17,0l4.49.09Zm-14,.39c-.06,0-.11-.13-.15-.12s-.14.1-.13.12a.9.9,0,0,0,.16.18Z" transform="translate(-5.07 -2.88)"/><path class="cls-16" d="M30.26,70c-1.06,0-2.12,0-3.17,0l-10,.32-.24.12h0l-.26.17.22.06L18,70.63v.27l-1.72.21-.3-.07c.33-.3,0-.43-.16-.61s-.22-.24-.48-.52l1.22-.08,2.68-.14.24,0h0l10.8,0Z" transform="translate(-5.07 -2.88)"/><path class="cls-11" d="M18,70.9v-.27c.66,0,1.31,0,2,0,.07,0,.15.13.23.21Z" transform="translate(-5.07 -2.88)"/><path class="cls-15" d="M35.56,70.84l1.35-.22a.09.09,0,0,1,0,.1l-.26.12-1.1.34Z" transform="translate(-5.07 -2.88)"/><path class="cls-5" d="M33.84,71.85h0Z" transform="translate(-5.07 -2.88)"/><path class="cls-5" d="M36.91,70.72a.09.09,0,0,0,0-.1c.08-.1.15-.2.23-.29,0,.14.08.27.13.41Z" transform="translate(-5.07 -2.88)"/><path class="cls-12" d="M36,74.19c-.39.22-.75.46-1.22.08-.18-.14-.53-.07-.81-.09.1-.1.2-.28.29-.28.56,0,1.11,0,1.66.09C36,74,36,74.12,36,74.19Z" transform="translate(-5.07 -2.88)"/><path class="cls-7" d="M35.43,4.49h1.19v.07H35.43Z" transform="translate(-5.07 -2.88)"/><path class="cls-19" d="M39.6,43.06c-.05.41-.11.83-.16,1.24-.64,0-.82.49-.92,1A16.51,16.51,0,0,0,38.06,48a6,6,0,0,1-1.73,3.57c-1.54,1.88-1.83,2.17-2.36,4.14a.62.62,0,0,1-.31.31c-.32.16-.67.26-1,.41a.66.66,0,0,0-.35.35c0,.12.13.28.23.41s.32.41.48.62a4.87,4.87,0,0,1-.75.46c-1,.41-2,.05-3,0a3.57,3.57,0,0,0-2.62.7,3.72,3.72,0,0,0,.88.2A11.52,11.52,0,0,0,29,59c1.17-.24,1.48.1,1.13,1.29-.69,0-1.42.14-1.54,1-.08.52-.38.72-.74.71a2.54,2.54,0,0,1-1.07-.4c-.16-.09-.21-.41-.37-.47-.69-.27-.54-.7-.3-1.18a1.13,1.13,0,0,0-.31-1.34c-.41-.47-.81-.14-1.19,0s-.85.3-.6.94c.06.15-.14.41-.23.63l-.5-.74-1.13.85.23.07a13.46,13.46,0,0,1,.23,1.53,8.68,8.68,0,0,1-.16,1.22c0,.17-.36.35-.34.44.13.58-.35.57-.64.75s-.27.27-.42.32a1.29,1.29,0,0,1-.74.08,1,1,0,0,1-.6-1.21,4.31,4.31,0,0,1-1-1.88,6.73,6.73,0,0,0-1.22-3.3c-.59-.89-.49-1.87-.87-2.76a9.92,9.92,0,0,1-.23-1.11c-.22-.75-.5-1.48-.72-2.23-.38-1.33-.72-2.67-1.09-4-.08-.29-.21-.57-.31-.86-.43-1.39-.48-2.9-1.32-4.16-.08-.12,0-.31-.08-.45-.13-.37-.27-.74-.43-1.1a5.07,5.07,0,0,1-.32-.61c-.27-1.06-.53-2.14-.76-3.21a1.93,1.93,0,0,1,.11-.65c.08.07.21.12.23.2.2.68.37,1.37.56,2a11.6,11.6,0,0,0,.55,1.85c.43.94,1,1.84,1.46,2.75a11.81,11.81,0,0,0,.29,1.34c.17.48.46.91.64,1.38a11.12,11.12,0,0,0,3,4.89,4.42,4.42,0,0,1,.62.85,3.52,3.52,0,0,1,1,.36,2.31,2.31,0,0,0,.78.29,8.44,8.44,0,0,0,1.23-.05l.18.25.63-1.93h.84c0-.25-.1-.57,0-.63a2.87,2.87,0,0,1,.86-.23l-.41,1.06a4.94,4.94,0,0,1,1.18-.4,9.78,9.78,0,0,0,3.56-.62,2.74,2.74,0,0,1,1.06-.17c.88,0,1.83.8,2.58-.29,0,0,.1,0,.15,0,.41.2.51-.09.68-.38a1.51,1.51,0,0,1,.65-.6,6.79,6.79,0,0,1,1.23-.27c-.23-.57-.08-.95.46-1.14a.83.83,0,0,0,1-.59,4.9,4.9,0,0,1,.59-.89,9.65,9.65,0,0,0,1.36-2.08c.62-1.84,1.07-3.74,1.59-5.61a5,5,0,0,0,.1-.66c0-.3,0-.61.07-.91a14.92,14.92,0,0,1,.26-2.23c.25-.94.65-1.84,1-2.75l.62-.16c0,.21-.1.43-.17.64a5.69,5.69,0,0,0-.64,2.06c.12,1.29-.69,2.37-.51,3.67a7.2,7.2,0,0,1-.51,2.32,6.12,6.12,0,0,0,0,1l-.32,1.25Z" transform="translate(-5.07 -2.88)"/><path class="cls-20" d="M11.42,37.14a1.93,1.93,0,0,0-.11.65c.23,1.07.49,2.15.76,3.21a5.07,5.07,0,0,0,.32.61c.16.36.3.73.43,1.1,0,.14,0,.33.08.45.84,1.26.89,2.77,1.32,4.16.1.29.23.57.31.86.37,1.33.71,2.67,1.09,4,.22.75.5,1.48.72,2.23a9.92,9.92,0,0,0,.23,1.11c.38.89.28,1.87.87,2.76a6.73,6.73,0,0,1,1.22,3.3,4.31,4.31,0,0,0,1,1.88,1,1,0,0,0,.6,1.21,1.29,1.29,0,0,0,.74-.08c.15,0,.27-.23.42-.32s.77-.17.64-.75c0-.09.32-.27.34-.44a8.68,8.68,0,0,0,.16-1.22,13.46,13.46,0,0,0-.23-1.53l-.23-.07,1.13-.85.5.74c.09-.22.29-.48.23-.63-.25-.64.19-.78.6-.94s.78-.47,1.19,0a1.13,1.13,0,0,1,.31,1.34c-.24.48-.39.91.3,1.18.16.06.21.38.37.47a2.54,2.54,0,0,0,1.07.4c.36,0,.66-.19.74-.71.12-.82.85-.93,1.54-1,.35-1.19,0-1.53-1.13-1.29a11.52,11.52,0,0,1-1.45.22,3.72,3.72,0,0,1-.88-.2,3.57,3.57,0,0,1,2.62-.7c1,0,2,.38,3,0a4.87,4.87,0,0,0,.75-.46c-.16-.21-.33-.41-.48-.62s-.25-.29-.23-.41a.66.66,0,0,1,.35-.35c.32-.15.67-.25,1-.41a.62.62,0,0,0,.31-.31c.53-2,.82-2.26,2.36-4.14A6,6,0,0,0,38.06,48a16.51,16.51,0,0,1,.46-2.77c.1-.47.28-1,.92-1-.12.56-.27,1.12-.36,1.69s-.17,1.37-.29,2-.31,1.49-.48,2.23a17.12,17.12,0,0,1-.5,1.77,5.62,5.62,0,0,1-.6.87c-.1.14-.25.31-.24.45a20.9,20.9,0,0,1-.51,4.73,6.69,6.69,0,0,1-.69,1.62c-.07.16-.24.35-.2.48a3.67,3.67,0,0,1-.27,2.14c-.18.67-.38,1-.87,1l-.79,2a.26.26,0,0,1-.17.14l-3.16.38a14.68,14.68,0,0,1-1.61.11c-1,0-1.93-.13-2.88-.08-.68,0-1.33.35-2,.43a24.86,24.86,0,0,1-3.75.24c-.95,0-1.53-.92-2-1.63a11,11,0,0,1-1.92-4.78c-.24-1.37-.4-2.75-.64-4.12-.07-.39-.36-.74-.44-1.13-.34-1.62-.65-3.25-.94-4.87a33.89,33.89,0,0,0-1.77-7.07,39.71,39.71,0,0,1-1.9-7.07,9.49,9.49,0,0,1-.07-1.51l.62.47V35l.15.47Z" transform="translate(-5.07 -2.88)"/><path class="cls-20" d="M40.07,41.5a6.12,6.12,0,0,1,0-1,7.2,7.2,0,0,0,.51-2.32c-.18-1.3.63-2.38.51-3.67a5.69,5.69,0,0,1,.64-2.06c.07-.21.12-.43.17-.64a11.34,11.34,0,0,0,1-1.72c.32-.85,1-1.61.74-2.64H44c.46,1.13-.2,2-.62,3a17.28,17.28,0,0,0-1.13,2.92c-.31,1.21-.4,2.48-.62,3.72-.1.54-.29,1.07-.43,1.6a3.46,3.46,0,0,0-.47,2.49l-.46.32Z" transform="translate(-5.07 -2.88)"/><path class="cls-20" d="M8.31,27.49a5.54,5.54,0,0,1-.59-1.68,33.49,33.49,0,0,1,.15-4.48c.16-1.6.58-3.18.73-4.78.05-.5.22-1.18-.33-1.66-.16-.14-.18-.42-.27-.63l.31-.16.16.16a4.08,4.08,0,0,1,.61,1.19,27,27,0,0,1,.16,2.71v.15l-.39.11.24.2c0,.27,0,.53-.05.8a4.52,4.52,0,0,1-.2,1.49,5,5,0,0,0-.58,3.4c0,.19,0,.41,0,.61.1.8.23,1.61.35,2.42Z" transform="translate(-5.07 -2.88)"/><path class="cls-20" d="M18.42,68.9l-1.57-.31.64,0a3.24,3.24,0,0,0,2.81-.77h.61c.64.08,1.28.14,1.91.27.22.05.39.32.61.43a1.72,1.72,0,0,0,.75.23h7.14a4.61,4.61,0,0,1,.81.15C31.07,68.94,30,69,29,69,25.45,69,21.93,68.94,18.42,68.9Z" transform="translate(-5.07 -2.88)"/><path class="cls-16" d="M18.42,68.9c3.51,0,7,.11,10.54.13,1.05,0,2.11-.09,3.17-.14l2.66-.12-.37.76L33,69.42c-1.18,0-2.36,0-3.54,0l-8.43-.07-2.79-.26Z" transform="translate(-5.07 -2.88)"/><path class="cls-19" d="M8.31,27.49l.31-.15c0,.46-.11,1,.47,1.24l.31.78a5.38,5.38,0,0,0,.43,1.54A7,7,0,0,1,11,34.81l-.62-.47a8.92,8.92,0,0,1-.2-1A12.82,12.82,0,0,0,8.6,29.16,2.18,2.18,0,0,1,8.31,27.49Z" transform="translate(-5.07 -2.88)"/><path class="cls-18" d="M6.76,21.11l.3-.36c.11-.13.21-.28.31-.42a12.5,12.5,0,0,1,0,1.62C7.24,23,7,24,6.87,25c-.15-.58-.31-1.16-.46-1.74.11,0,.31-.07.31-.11C6.75,22.49,6.75,21.8,6.76,21.11Z" transform="translate(-5.07 -2.88)"/><path class="cls-18" d="M7.37,20c0-.85,0-1.72.11-2.57a2,2,0,0,1,.36-.7,5.14,5.14,0,0,1,.07.78c-.06.72-.15,1.44-.26,2.16C7.64,19.81,7.47,19.91,7.37,20Z" transform="translate(-5.07 -2.88)"/><path class="cls-14" d="M7.23,13.19l3,.09,0,.21H8.46l-.79-.13Z" transform="translate(-5.07 -2.88)"/><path class="cls-19" d="M7.67,13.35l.79.13-.15.62L8,14.26C7.83,14,7.35,13.81,7.67,13.35Z" transform="translate(-5.07 -2.88)"/><path class="cls-16" d="M35.4,68.75l-.19.23c0-.07-.09-.14-.13-.22Z" transform="translate(-5.07 -2.88)"/><path class="cls-20" d="M39.6,43.06l.15-.31Z" transform="translate(-5.07 -2.88)"/><path class="cls-16" d="M6.76,21.11c0,.69,0,1.38,0,2.06,0,0-.2.08-.31.11-.1-.41-.19-.82-.29-1.23.09-.65.19-1.31.26-2,.14-1.25.26-2.49.38-3.74,0-.44.1-.87.14-1.31a8.09,8.09,0,0,1,.41,1.7c0,.43-.34.86-.38,1.31C6.82,19.07,6.81,20.09,6.76,21.11Z" transform="translate(-5.07 -2.88)"/><path class="cls-5" d="M6.44,15.2l0-.06,0,0Z" transform="translate(-5.07 -2.88)"/><path class="cls-21" d="M10.17,13.49l0-.21.25,0h1.91l.16,0,.5,0h.75l.32,0,.6,0H15l.07,0,.06,0,.47,0,6.25-.12,2.79.11,3.12-.11,3.44-.12,1.22.29-.61.59-.17.63c-.34,0-.66-.1-.79,0-.43.38-.69,0-1-.15-.15-.08-.32-.3-.43-.26-.64.18-.78-.32-1-.68l-7.62.19a7.34,7.34,0,0,0,.6.56.9.9,0,0,1,.26,1.41,6.37,6.37,0,0,0-.45.86,5.59,5.59,0,0,1-.53,1.1,2.66,2.66,0,0,0-.15,2.88,7.38,7.38,0,0,1,.79,2c0,.18-.52.48-.79.73,0,.05,0,.15-.05.23h0a6.34,6.34,0,0,0-1.83-.1c-1.09.25-1.55-.46-2.09-1.11-.12-.16-.22-.46-.34-.46-.67,0-.78-.58-1-1l-.65-1-.9.27.5-.47c.19-.16.5-.28.54-.47a11.91,11.91,0,0,0,.2-1.59l-.59-.09.45-1-.24.08-1.18-1.14-.37.78L12,14.42l1.78.29c.42.57,3,.58,3.68-.24-.69-.2-1.34-.43-2-.56-.9-.18-1.81-.29-2.73-.41a9.19,9.19,0,0,0-1,0Z" transform="translate(-5.07 -2.88)"/><path class="cls-5" d="M12.35,13.3H11.12s0-.07,0-.11l.15-.29,2.5-.22,1.87.19,0,.42-.47,0h-.46l-.6,0-.32,0H13l-.5,0-.09-.15Z" transform="translate(-5.07 -2.88)"/><path class="cls-14" d="M11.11,13.2s0,.07,0,.11h-.68Z" transform="translate(-5.07 -2.88)"/><path class="cls-6" d="M19.21,6.33c1.37,0,2.74-.09,4.12-.11a8.66,8.66,0,0,1,1,.11c-.21.15-.53.27-.59.47-.15.5-.47.49-.85.42s-.63-.15-1-.24L21.71,8.5,21,8.2c-.36.71-.66,1.33-1,1.92-.06.12-.29.13-.43.21a6.37,6.37,0,0,0-.55.35l-.57.37.29.2.28-.57c.69.05.18.69.46.93l-.78.47h-.46l-.92-.24c-.5.61-1.12.52-1.57-.38l.39-.47h-.54c-.45-.33-.46,0-.47.32a3.19,3.19,0,0,1-.87.39c-.88.09-1.28-.59-1.82-1.18l.81-.35-1.69-.58c-.21-.24.5-1.41-.91-.86l.25-1.39-.59-.14-.17-1.33L11.58,6a4.57,4.57,0,0,0,.79.74c.64.34,1.32.61,2.12,1l.31-.47.63.46c.3-.76.78-.58,1.27-.32,1,.5,1.1.44,1.34-.41C18.36,6.51,19.18,7.23,19.21,6.33Zm-1.46,5.21.31,0,.05-.74-.3,0Z" transform="translate(-5.07 -2.88)"/><path class="cls-12" d="M10.17,5.87l.17,1.33.59.14-.25,1.39c1.41-.55.7.62.91.86l1.69.58-.81.35c.54.59.94,1.27,1.82,1.18a3.19,3.19,0,0,0,.87-.39l.47-.32h.54l-.39.47c-.18.21-.32.51-.55.61a8.08,8.08,0,0,1-1.31.32c-.55-.05-1.09-.09-1.64-.16a.77.77,0,0,1-.47-.2c-.05-.06,0-.27.08-.41l.36-.58L12.12,11l-.23.18c0-.46-.12-.64-.65-.51-.27.06-.81-.11-.87-.29a1.92,1.92,0,0,0-1.2-1.19A.84.84,0,0,1,8.93,9V8.81l-.3-.16c.13-.48.39-.89-.08-1.44-.24-.29,0-1,.07-1.51Z" transform="translate(-5.07 -2.88)"/><path class="cls-12" d="M19.51,11.61c-.28-.24.23-.88-.46-.93h0a6.37,6.37,0,0,1,.55-.35c.14-.08.37-.09.43-.21.33-.59.63-1.21,1-1.92l.69.3L21.89,7c.38.09.69.18,1,.24s.7.08.85-.42c.06-.2.38-.32.59-.47h.78L26.21,7l-.47.47-.3.15L25,7.22,23,8l.08.7c-.54.05-1.21,1.88-.93,2.66l-.71-.08.21-.81C20.91,11.16,20.56,12.12,19.51,11.61Z" transform="translate(-5.07 -2.88)"/><path class="cls-2" d="M19.21,6.33c0,.9-.85.18-1.17.66-.24.85-.38.91-1.34.41-.49-.26-1-.44-1.27.32l-.63-.46-.31.47c-.8-.36-1.48-.63-2.12-1A4.57,4.57,0,0,1,11.58,6c1.24.07,2.49.19,3.74.22s2.42,0,3.63,0C19,6.19,19.12,6.28,19.21,6.33Z" transform="translate(-5.07 -2.88)"/><path class="cls-10" d="M26.21,7l-1.09-.62,3.12.14,0,0L26.36,7Z" transform="translate(-5.07 -2.88)"/><path class="cls-7" d="M8.63,8.65l.3.16V9a.84.84,0,0,0,.24.19,1.92,1.92,0,0,1,1.2,1.19c.06.18.6.35.87.29.53-.13.66,0,.65.51h0l-.15.15-.71.6L9.9,11.48c-.35-.47-.6-.78-.82-1.11s-.52-.83-.77-1.24h0l.15-.31h0l.15-.15Z" transform="translate(-5.07 -2.88)"/><path class="cls-7" d="M13.92,12.39a8.08,8.08,0,0,0,1.31-.32c.23-.1.37-.4.55-.61.45.9,1.07,1,1.57.38l.92.24-.62.75-2,.05-1.87-.19Z" transform="translate(-5.07 -2.88)"/><path class="cls-7" d="M11.89,11.15l.23-.18.13.07-.36.58v-.47Z" transform="translate(-5.07 -2.88)"/><path class="cls-7" d="M8.31,9.13,8.1,9.07l0-.06.17.12Z" transform="translate(-5.07 -2.88)"/><path class="cls-7" d="M7.73,8.87a.07.07,0,0,1,0,.05h0V8.85Z" transform="translate(-5.07 -2.88)"/><path class="cls-6" d="M6.4,7.72l0,0L6.32,7.7a.09.09,0,0,1,0,0Z" transform="translate(-5.07 -2.88)"/><path class="cls-12" d="M11.89,11.15v.15h-.15Z" transform="translate(-5.07 -2.88)"/><path class="cls-8" d="M11.24,12.72l.08-.07,0,0-.09.06Z" transform="translate(-5.07 -2.88)"/><path class="cls-6" d="M6.75,5.7c.06-.1.12-.2.19-.3C6.87,5.5,6.81,5.6,6.75,5.7Z" transform="translate(-5.07 -2.88)"/><path class="cls-10" d="M8.62,8.66l-.15.15Z" transform="translate(-5.07 -2.88)"/><path class="cls-10" d="M38.35,6.17l.94.9c-.1.38-.19.76-.29,1.12L37.58,8l.54.8-1.59.52-.2-.49,0-.07,0,.07c-.28.41-.54.84-.84,1.24a1.72,1.72,0,0,1-.47.3c-.43-.78-1-.13-1.49-.14,0,0,0,0,0-.06h0l.07.07.15.79c-.79,0-1.5.64-2.33.29h-.16c-.8.25-1.55.9-2.44.25l-.36.49c-.54,0-1-.07-1.41-.13-.05,0-.07-.19-.11-.3l.09-.48-.27,0h0c0-.05,0-.1,0-.15v-.3l-1-.13-.05.75a.57.57,0,0,0,0,.13c0,.11,0,.22,0,.33l-.45.44-.93.07c-.05-.17-.11-.34-.16-.52s.21-.43.3-.43c.5,0,.71-.3.61-.65a2.11,2.11,0,0,0-.68-.82c-.07-.06-.29.07-.42.1l-.1-1.15a2.54,2.54,0,0,0,.88.17,4.81,4.81,0,0,0,1.11-.41L25.58,8a8.53,8.53,0,0,1,1-.2,6.6,6.6,0,0,0,1,0,10.59,10.59,0,0,0,2.76-.8,2.87,2.87,0,0,1,1.74-.36c.06,0,.12-.15.19-.23Z" transform="translate(-5.07 -2.88)"/><path class="cls-11" d="M27.77,13.18l-3.12.11.63-.77c.33.13.66.22.93-.13l.63.16.92.46Z" transform="translate(-5.07 -2.88)"/><path class="cls-16" d="M27.77,13.18V13l.19-.18h.46l1.71-.21,1.08.13v.31Z" transform="translate(-5.07 -2.88)"/><path class="cls-8" d="M26.21,12.39c-.27.35-.6.26-.93.13l-.16-.31.45-.44C25.79,12,26,12.18,26.21,12.39Z" transform="translate(-5.07 -2.88)"/><path class="cls-5" d="M28,12.83l-.19.18-.92-.46C27.3,12.28,27.77,12,28,12.83Z" transform="translate(-5.07 -2.88)"/><path class="cls-8" d="M26.67,11s0,.1,0,.15c-.37.09-.59.72-1.1.3a.57.57,0,0,1,0-.13Z" transform="translate(-5.07 -2.88)"/><path class="cls-8" d="M26.69,11.15l.27,0-.09.48Z" transform="translate(-5.07 -2.88)"/><path class="cls-10" d="M31.35,11.3l-.05.19-.11-.19h.16Z" transform="translate(-5.07 -2.88)"/><path class="cls-8" d="M39.44,10.37l.07,0-.07,0Z" transform="translate(-5.07 -2.88)"/><path class="cls-5" d="M28.41,12.83h0Z" transform="translate(-5.07 -2.88)"/><path class="cls-7" d="M32.29,6.46c-.07.08-.13.24-.19.23a2.87,2.87,0,0,0-1.74.36,10.59,10.59,0,0,1-2.76.8,6.6,6.6,0,0,1-1,0,8.53,8.53,0,0,0-1,.2l.15.54A4.81,4.81,0,0,1,24.62,9a2.54,2.54,0,0,1-.88-.17l.1,1.15c.13,0,.35-.16.42-.1a2.11,2.11,0,0,1,.68.82c.1.35-.11.67-.61.65-.09,0-.2.28-.3.43-.34.08-.74.31-1,.2a3.23,3.23,0,0,0-1.69,0,3.28,3.28,0,0,0-.7.3l-.65.15-.3,0-.95-.32.78-.47c1,.51,1.4-.45,2.09-1.14l-.21.81.71.08c-.28-.78.39-2.61.93-2.66L23,8,25,7.22l.41.35.3-.15L26.21,7h.15c.73.56,1.36-.06,2-.16l.93-.46Z" transform="translate(-5.07 -2.88)"/><path class="cls-7" d="M42.1,6.16,41.94,6Z" transform="translate(-5.07 -2.88)"/><path class="cls-11" d="M31.21,13.06v-.2l.3-.28c.34,0,.73-.19,1-.07.73.35,1.44.06,2.14.12,1.35.11,2.68-.19,4-.06a13.46,13.46,0,0,0,1.42,0l.46.45-2.35.17c-.53,0-1.07,0-1.6,0-1.38.05-2.77.13-4.16.19Z" transform="translate(-5.07 -2.88)"/><path class="cls-16" d="M40.54,13l-.46-.45,1.41-.24.92-.18a6.16,6.16,0,0,0,1.05.41,7.3,7.3,0,0,0,1.15,0l0,.28Z" transform="translate(-5.07 -2.88)"/><path class="cls-13" d="M31.5,12.58l-.3.28v-.11Z" transform="translate(-5.07 -2.88)"/><path class="cls-9" d="M43,11.31l.06-.08a.07.07,0,0,1,0,0l-.06,0Z" transform="translate(-5.07 -2.88)"/><path class="cls-9" d="M43,11.3s0,0,0,.06h0l.08-.06Z" transform="translate(-5.07 -2.88)"/><path class="cls-22" d="M45,13.16l.16.17c0,.05-.09.1-.13.16l-.33.31L42.4,15.35c-.15.08-.42.14-.42.22a15,15,0,0,0-.08,3.2,12.42,12.42,0,0,0,1,3c.3.67,0,1.39.16,1.95a4.35,4.35,0,0,1,.08,2.26c-.2-.08-.52-.1-.58-.24a4.8,4.8,0,0,1-.34-1.39,14.83,14.83,0,0,0-.94-4.56,3.91,3.91,0,0,1-.43-1.21c0-1.12.07-2.23.11-3.34a15.6,15.6,0,0,0,1.51-.65,10.82,10.82,0,0,0,1.14-.91v-.45Z" transform="translate(-5.07 -2.88)"/><path class="cls-11" d="M45.53,24.23c-.05-.42-.11-.84-.17-1.26V21.43a8.2,8.2,0,0,0,0-1c-.18-1-.36-2-.58-3a8.43,8.43,0,0,0-.45-1.18L44,15.14c.58-.46,1.39-.7,1-1.65l.13-.16c.11.41.22.82.32,1.22l-.64.38A25.63,25.63,0,0,1,46,21.4v-2h.28c0,.41,0,.82,0,1.23" transform="translate(-5.07 -2.88)"/><path class="cls-21" d="M45,13.16l-1.38,0H42.1l-2.2.14h-.45l-1.26-.17L40.54,13l4-.15Z" transform="translate(-5.07 -2.88)"/><path class="cls-5" d="M44.44,28.6v-.18a.61.61,0,0,1,.05.12S44.46,28.58,44.44,28.6Z" transform="translate(-5.07 -2.88)"/><path class="cls-10" d="M21,75.59H32A24.25,24.25,0,0,1,21,75.59Z" transform="translate(-5.07 -2.88)"/><path class="cls-6" d="M22.32,74.8a3,3,0,0,1,1-.28c.82,0,1.64.18,2.45.28-.91,0-1.82.08-2.74.1A4,4,0,0,1,22.32,74.8Z" transform="translate(-5.07 -2.88)"/><path class="cls-6" d="M27.45,74.8l.63-.15Z" transform="translate(-5.07 -2.88)"/><path class="cls-6" d="M26.68,74.8l.27-.28.2.28Z" transform="translate(-5.07 -2.88)"/><path class="cls-9" d="M38.36,73l-.07.06.06-.07Z" transform="translate(-5.07 -2.88)"/><path class="cls-23" d="M43.18,25.94a4.35,4.35,0,0,0-.08-2.26c-.19-.56.14-1.28-.16-1.95a12.42,12.42,0,0,1-1-3,15,15,0,0,1,.08-3.2c0-.08.27-.14.42-.22.08.47.34,1,.19,1.41-.37,1,.18,1.77.31,2.64a9.84,9.84,0,0,0,.72,1.91,5.35,5.35,0,0,1,.56,1.46,27.3,27.3,0,0,1-.06,2.86.76.76,0,0,1,0,.15c-.85.6-1,1.09-.46,1.71.3,1-.42,1.79-.74,2.64a11.34,11.34,0,0,1-1,1.72l-.62.16.16-.63c.26-.46.52-.93.77-1.4h0l.3-.47c.06-.47.1-.94.18-1.41C42.86,27.38,43,26.66,43.18,25.94Zm.25-2.53s-.09-.06-.12-.05,0,.08-.06.12.09.06.13.05S43.42,23.45,43.43,23.41Z" transform="translate(-5.07 -2.88)"/><path class="cls-19" d="M44.12,25.63a27.3,27.3,0,0,0,.06-2.86,5.35,5.35,0,0,0-.56-1.46,9.84,9.84,0,0,1-.72-1.91c-.13-.87-.68-1.67-.31-2.64.15-.39-.11-.94-.19-1.41l2.34-1.55c-.33.36-.58.84-1,1s-.8.76-.51,1.09c.45.53.2,1.11.35,1.64a33.89,33.89,0,0,1,.72,3.77c.23,1.37.67,2.73.11,4.12Z" transform="translate(-5.07 -2.88)"/><path class="cls-17" d="M44.43,25.47c.56-1.39.12-2.75-.11-4.12a33.89,33.89,0,0,0-.72-3.77c-.15-.53.1-1.11-.35-1.64-.29-.33,0-.82.51-1.09s.65-.69,1-1l.33-.31c.36.95-.45,1.19-1,1.65.07.36.16.75.24,1.14-.11.33-.36.68-.31,1a24.51,24.51,0,0,0,.66,3.06,4.21,4.21,0,0,0,.72,1.11v.3c-.51.32-.09.63,0,.94V23A9.93,9.93,0,0,1,45,24.19C44.87,24.63,44.64,25,44.43,25.47Z" transform="translate(-5.07 -2.88)"/><path class="cls-19" d="M43.65,27.49c-.53-.62-.39-1.11.46-1.71.06.16.17.32.15.47-.07.42-.2.83-.3,1.24Z" transform="translate(-5.07 -2.88)"/><path class="cls-17" d="M40.69,41.19a3.46,3.46,0,0,1,.47-2.49A3.52,3.52,0,0,1,40.69,41.19Z" transform="translate(-5.07 -2.88)"/><path class="cls-17" d="M20.3,67.8a3.24,3.24,0,0,1-2.81.77c.13-.17.25-.45.41-.48C18.69,68,19.5,67.89,20.3,67.8Z" transform="translate(-5.07 -2.88)"/><path class="cls-15" d="M21.07,69.38l8.43.07c1.18,0,2.36,0,3.54,0v.21l-2.78.07-10.8,0Z" transform="translate(-5.07 -2.88)"/><path class="cls-14" d="M19.44,69.67l-.24,0-1.94-.09v-.21c.66,0,1.33,0,2,0C19.31,69.41,19.38,69.58,19.44,69.67Z" transform="translate(-5.07 -2.88)"/><path class="cls-12" d="M28.39,6.79c-.67.1-1.3.72-2,.16l1.86-.46C28.28,6.59,28.34,6.69,28.39,6.79Z" transform="translate(-5.07 -2.88)"/><path class="cls-14" d="M33.05,69.63v-.21l1.38.11Z" transform="translate(-5.07 -2.88)"/><path class="cls-14" d="M34.78,70.27l0-.19.29.07Z" transform="translate(-5.07 -2.88)"/><path class="cls-14" d="M20.76,70.66l-.12.18a.9.9,0,0,1-.16-.18s.08-.12.13-.12S20.7,70.61,20.76,70.66Z" transform="translate(-5.07 -2.88)"/><path class="cls-11" d="M16.83,70.68l-.22-.06.26-.17Z" transform="translate(-5.07 -2.88)"/><path class="cls-11" d="M16.87,70.45l.24-.12Z" transform="translate(-5.07 -2.88)"/><path class="cls-22" d="M41.47,31.38l-.16.63c-.33.91-.73,1.81-1,2.75A14.92,14.92,0,0,0,40.07,37c-.14.07-.38.12-.4.22a18.37,18.37,0,0,1-.42,2.5,22.7,22.7,0,0,1-1.64,3.66A4,4,0,0,1,35,45c-.85.26-1.65.6-2.17-.52,0-.09-.33-.14-.49-.1a3.68,3.68,0,0,1-2.79-.61A3.37,3.37,0,0,0,28,43.43c-.22,0-.45,0-.67,0-.74-.11-1.46-.27-2.2-.35-.16,0-.38.15-.51.29-.32.35-.58.75-.92,1.09-.13.13-.48.25-.58.17-.46-.33-.74-.11-1.09.19a1.25,1.25,0,0,1-1.94,0,.74.74,0,0,0-.48-.18c-.75.2-1.07-.25-1.31-.82a1.56,1.56,0,0,1-1.87-.42,15.52,15.52,0,0,0-2-2.11,2.58,2.58,0,0,1-1-1.76,5.29,5.29,0,0,0-1.12-2.42,1.06,1.06,0,0,1-.2-.46c-.22-1.07-.4-2.14-.64-3.2a11.85,11.85,0,0,0-2-4.13l-.31-.78C9,28,8.93,27.36,8.87,26.75a12.58,12.58,0,0,1-.09-1.5,7.81,7.81,0,0,1,.14-1,13.6,13.6,0,0,1,.14-1.7c.18-.83.5-1.62.67-2.45s.93-1.75.35-2.77c-.05-.1.05-.3.12-.44a.63.63,0,0,0-.34-1l.07-.66c-.28-.19-.5-.34-.71-.5s-.5-.36-.75-.55l-.16-.16.15-.62h.62a1.55,1.55,0,0,0,1.49,1.22v.44l.34-.15c.13.4.25.77.36,1.14a2.92,2.92,0,0,0-.23.41c.77.62.27,1.27.07,1.91-.09.31-.22.6-.33.91A16.25,16.25,0,0,0,10.21,21c-.22.85-.4,1.71-.56,2.57A12.29,12.29,0,0,0,9.31,26a7.44,7.44,0,0,0,.43,2.33,16.47,16.47,0,0,0,1.15,2.35,18.7,18.7,0,0,1,1.35,2.43c.37,1,.48,2.18.76,3.27a13.52,13.52,0,0,0,.6,1.56l.31.31.16.47a17.22,17.22,0,0,0,.58,1.89,1.61,1.61,0,0,0,2.09,1.07,6.57,6.57,0,0,0,1.09-.48c.34-.14.68-.34.87.21a1.35,1.35,0,0,0,.4.59,7.48,7.48,0,0,0,1.25.74c.29.12.76.29.92.16.47-.4,1.35-.54,1.09-1.53a1.94,1.94,0,0,1,1.2-2.05c.15-.06.33-.09.42-.2.65-.84,1.49-.54,2.33-.46a8,8,0,0,0,2.74.1c.79-.21.83,0,.91.58s.22.81.77.78,1.11-.06,1.18.73c0,.1.22.24.36.26,1,.19,1.59,1.32,2.81,1.17.51-.07,1.91-.18,2.28-.61a2,2,0,0,0,.65-1.3,5.36,5.36,0,0,1,.67-1.6c.21-.48,0-1.12.62-1.42.08,0,.11-.23.11-.35a12,12,0,0,1,.53-3.78,2.66,2.66,0,0,1,1.53-1.82Z" transform="translate(-5.07 -2.88)"/><path class="cls-24" d="M9.4,29.36a11.85,11.85,0,0,1,2,4.13c.24,1.06.42,2.13.64,3.2a1.06,1.06,0,0,0,.2.46,5.29,5.29,0,0,1,1.12,2.42,2.58,2.58,0,0,0,1,1.76,15.52,15.52,0,0,1,2,2.11,1.56,1.56,0,0,0,1.87.42c.24.57.56,1,1.31.82a.74.74,0,0,1,.48.18,1.25,1.25,0,0,0,1.94,0c.35-.3.63-.52,1.09-.19.1.08.45,0,.58-.17.34-.34.6-.74.92-1.09.13-.14.35-.31.51-.29.74.08,1.46.24,2.2.35.22,0,.45,0,.67,0a3.37,3.37,0,0,1,1.56.29,3.68,3.68,0,0,0,2.79.61c.16,0,.45,0,.49.1.52,1.12,1.32.78,2.17.52a4,4,0,0,0,2.62-1.58,22.7,22.7,0,0,0,1.64-3.66,18.37,18.37,0,0,0,.42-2.5c0-.1.26-.15.4-.22,0,.3,0,.61-.07.91a5,5,0,0,1-.1.66c-.52,1.87-1,3.77-1.59,5.61A9.65,9.65,0,0,1,37,46.25a4.9,4.9,0,0,0-.59.89.83.83,0,0,1-1,.59,4.48,4.48,0,0,0-.82-.7,9.45,9.45,0,0,0-1.23-.49l-6,.4c-.18-.38-1.59-.62-1.88-.16-.63,1-1.67.59-2.33.9-.34.71-.63,1.35-1,2-.5,1-1,1.9-1.65,3-.54-1.19-1.69-1.89-1.81-3.34-.67.15-.45-.69-.77-.89-.72-.44-.77-1.2-1.13-1.79a2.23,2.23,0,0,0-.52-.62c-.24-.21-.59-.31-.81-.54-.46-.47-.87-1-1.3-1.51-.49-.91-1-1.81-1.46-2.75a11.6,11.6,0,0,1-.55-1.85c-.19-.68-.36-1.37-.56-2,0-.08-.15-.13-.23-.2l-.31-1.71L11,35v-.15A7,7,0,0,0,9.83,30.9,5.38,5.38,0,0,1,9.4,29.36Z" transform="translate(-5.07 -2.88)"/><path class="cls-23" d="M14.22,44c.43.51.84,1,1.3,1.51.22.23.57.33.81.54a2.23,2.23,0,0,1,.52.62c.36.59.41,1.35,1.13,1.79.32.2.1,1,.77.89.12,1.45,1.27,2.15,1.81,3.34.62-1.13,1.15-2.07,1.65-3,.33-.62.62-1.26,1-2,.66-.31,1.7.1,2.33-.9.29-.46,1.7-.22,1.88.16l6-.4a9.45,9.45,0,0,1,1.23.49,4.48,4.48,0,0,1,.82.7c-.54.19-.69.57-.46,1.14a6.79,6.79,0,0,0-1.23.27,1.51,1.51,0,0,0-.65.6c-.17.29-.27.58-.68.38-.05,0-.14,0-.15,0-.75,1.09-1.7.32-2.58.29a2.74,2.74,0,0,0-1.06.17,9.78,9.78,0,0,1-3.56.62,4.94,4.94,0,0,0-1.18.4l.41-1.06a2.87,2.87,0,0,0-.86.23c-.09.06,0,.38,0,.63h-.84l-.63,1.93-.18-.25a8.44,8.44,0,0,1-1.23.05,2.31,2.31,0,0,1-.78-.29,3.52,3.52,0,0,0-1-.36,4.42,4.42,0,0,0-.62-.85,11.12,11.12,0,0,1-3-4.89c-.18-.47-.47-.9-.64-1.38A11.81,11.81,0,0,1,14.22,44Z" transform="translate(-5.07 -2.88)"/><path class="cls-19" d="M11,35l.15.47Z" transform="translate(-5.07 -2.88)"/><path class="cls-23" d="M9.86,16a.63.63,0,0,1,.34,1c-.07.14-.17.34-.12.44.58,1-.18,1.86-.35,2.77s-.49,1.62-.67,2.45a13.6,13.6,0,0,0-.14,1.7,7.81,7.81,0,0,0-.14,1,12.58,12.58,0,0,0,.09,1.5c.06.61.14,1.22.22,1.83-.58-.26-.46-.78-.47-1.24-.12-.81-.25-1.62-.35-2.42,0-.2,0-.42,0-.61a5,5,0,0,1,.58-3.4A4.52,4.52,0,0,0,9,19.42c0-.27,0-.53.05-.8l.15-.31v-.15c.47,0,.46-.28.48-.61C9.74,17,9.81,16.5,9.86,16Z" transform="translate(-5.07 -2.88)"/><path class="cls-19" d="M9.86,16c0,.53-.12,1-.14,1.58,0,.33,0,.64-.48.61a27,27,0,0,0-.16-2.71,4.08,4.08,0,0,0-.61-1.19c.25.19.49.37.75.55s.43.31.71.5Z" transform="translate(-5.07 -2.88)"/><path class="cls-19" d="M9.24,18.31l-.15.31-.24-.2Z" transform="translate(-5.07 -2.88)"/><path class="cls-25" d="M11.27,16.13,10.91,15l-.34.15V14.7a1.55,1.55,0,0,1-1.49-1.22h2.64c.11.31.22.61.32.92l.87,1.72.37-.78,1.18,1.14.24-.08-.45,1,.59.09a11.91,11.91,0,0,1-.2,1.59c0,.19-.35.31-.54.47l-.5.47a1.29,1.29,0,0,1,.09.53c-.11.53-.11,1.27-.45,1.52a5.69,5.69,0,0,0-1.75,2.38.44.44,0,0,0,.07.41c.54.35.23.61,0,.92A1.53,1.53,0,0,0,11.06,27a5.32,5.32,0,0,0,.56,2c.4.92.68,1.85,1.75,2.22,0,0,0,.09.07.13a1.53,1.53,0,0,0,2.37.38c0-.05.12-.12.19-.11.83,0,1.67.1,2.5.05,1-.05,2-.22,3.14-.35l.73.27.11-.21-.52-1,1-.18.3,1,.79.93-1.63.17-.07-.43h-.2c0,.27-.1.55-.13.83-.05.55-.42.85-.88.59a2.17,2.17,0,0,0-2.67.3l.67.9c-.61.54-1.22,1.08-1.84,1.61a.38.38,0,0,1-.22.07,2,2,0,0,0-1.56,1.22c-.21.5-.47.4-1,0l.75-.24c-1.22-.68-1.09-1.7-1.16-2.64,0-.18,0-.43-.06-.52-.78-.68-.59-1.92-1.63-2.52-.82-.47-.93-1.64-1.51-2.33-1-1.16-.67-2.44-.65-3.69a6.65,6.65,0,0,1,.46-1.69,22,22,0,0,0,.87-2.68c.23-1.17.28-2.37.4-3.55,0-.4.06-.81.1-1.27Z" transform="translate(-5.07 -2.88)"/><path class="cls-26" d="M23.25,31.23l-.3-1-1,.18.52,1-.11.21-.73-.27c-1.14.13-2.13.3-3.14.35-.83.05-1.67,0-2.5-.05-.07,0-.14.06-.19.11a1.53,1.53,0,0,1-2.37-.38s0-.12-.07-.13C12.3,30.81,12,29.88,11.62,29a5.32,5.32,0,0,1-.56-2,1.53,1.53,0,0,1,.46-1.21c.27-.31.58-.57,0-.92a.44.44,0,0,1-.07-.41,5.69,5.69,0,0,1,1.75-2.38c.34-.25.34-1,.45-1.52A1.29,1.29,0,0,0,13.6,20l.9-.27.65,1c.26.42.37,1,1,1,.12,0,.22.3.34.46.54.65,1,1.36,2.09,1.11a6.34,6.34,0,0,1,1.83.1c0,.33,0,.94.05,1a7,7,0,0,0,1.38,0l0-.19,1.81,1.38-.07.85.57-.73.67.31.94-.71.1,1.15h.26l.31-1.73a2.86,2.86,0,0,1,.84.38c.8.85.78.86,1.64.11l-.54-1.07c.88-.34,1.69-.64,2.49-1a1.07,1.07,0,0,0,.41-.32c.39-.44.59-.35.65.21l-.22,0,.12.83.24,0c0-.27-.09-.55-.14-.83l.75,0-.25-1c.66-.14,1.38-.08,1.7-.41a3.13,3.13,0,0,1,2.49-1.06c1,0,1.77.87,2.8.52,0,0,.15.07.18.13A29.36,29.36,0,0,1,41,23.91a8.32,8.32,0,0,1,.48,2.1,14.07,14.07,0,0,1,.13,2.34,8.37,8.37,0,0,1-.27,1.48V30l-.92.49c-.54.3-.07.86-.32,1.22l-.47.63a20,20,0,0,0-2.41,1.29c-.95.41-1.71,1-2.79.6.11-1.21-1-2-2.4-1.55.09-.79-.46-.89-1-.9a10.78,10.78,0,0,0-1.23.14c.05-1.06-.09-1.17-.91-.82-.12.05-.29.13-.36.08-.64-.4-1.3-.1-1.95-.09a3.06,3.06,0,0,0-.17-.74,7.06,7.06,0,0,0-.58-.89l-.31,1c-.54-.48-.94-.56-1.17.19,0,.09-.24.13-.36.2Zm10.36-1.69a6,6,0,0,1,.85.37A26.27,26.27,0,0,0,37,31.57a1.35,1.35,0,0,0,1.85-.44c.38-.63.81-1.22,1.25-1.81a2.9,2.9,0,0,0-1.78-4.42,4.91,4.91,0,0,0-4.44,1l.92.58c-.29.26-.5.61-.75.64-.52.06-.63.3-.64.76a2.51,2.51,0,0,1-.17.69ZM31.52,31.2c-.13-.11-.2-.2-.28-.22s-.17.13-.17.18a.32.32,0,0,0,.19.19C31.32,31.36,31.4,31.27,31.52,31.2Zm-5.69-4.37-.13-.06s-.06.1,0,.13.08,0,.12.06A1.12,1.12,0,0,0,25.83,26.83Z" transform="translate(-5.07 -2.88)"/><path class="cls-25" d="M32,23.13c0-.56-.25-.65-.64-.21a1.07,1.07,0,0,1-.41.32c-.8.32-1.61.62-2.49,1L29,25.27c-.86.75-.84.74-1.64-.11a2.86,2.86,0,0,0-.84-.38l-.31,1.73h-.26l-.1-1.15-.94.71-.67-.31-.57.73.07-.85L21.9,24.26l0,.19a7,7,0,0,1-1.38,0c-.08,0,0-.63-.05-1h0c1.42,0,1.23.16,1.25-1.23a6.42,6.42,0,0,1,0-1.16c.11-.61.3-1.21.45-1.82.59.19.49.55.22,1l.44.22-.21,1.81.23,0a4.57,4.57,0,0,1,.22-.62c.4-.73.74-.32,1.26,0l-.71.32.38.57L24,22.4l1.65.24,2.08-.75,0,1,.33-.09-.37-.91A6.73,6.73,0,0,0,29,21.08c.35-.37.58-.78,1.18-.48.07,0,.3-.27.45-.41l.23-.14v.53l.2.11.76-1.16a2.05,2.05,0,0,0,.71.22,2.42,2.42,0,0,0,1-.26c.09,0,.12-.45,0-.58-.39-.53-.84-1-1.11-1.33l-1.77-.2,0-.47.71-.4-.77-.75c-.19.12-.54.37-.91.59a.51.51,0,0,1-.43,0c-.54-.27-1.07-.58-1.6-.88l-.36.48-.16-.08.25-1.18c.63-.18,1.08-.51,1.09-1.23.26.36.4.86,1,.68.11,0,.28.18.43.26.31.18.57.53,1,.15.13-.12.45,0,.79,0l.17-.63c.1.11.2.22.31.32,0,1,.18,1.08,1.15,1a6.36,6.36,0,0,1,2.56-.08c.72.23,1.41.14,2.13.33v-.75c.54.77.84.81,1.57.3a1.65,1.65,0,0,1,.46-.23c.59-.17,1.2-.29,1.79-.48s1.24-.44,1.86-.67a10.82,10.82,0,0,1-1.14.91A15.6,15.6,0,0,1,41,15.2a1.49,1.49,0,0,0-1.37,1.48A13.16,13.16,0,0,0,39.56,19a2.92,2.92,0,0,0,.36,1.14,10.44,10.44,0,0,1,.92,1.56c.34,1.15.54,2.34.79,3.52.18.89.38,1.78.52,2.68a1.84,1.84,0,0,1-.84,1.9,8.37,8.37,0,0,0,.27-1.48A14.07,14.07,0,0,0,41.45,26a8.32,8.32,0,0,0-.48-2.1,29.36,29.36,0,0,0-1.32-2.63c0-.06-.14-.14-.18-.13-1,.35-1.83-.5-2.8-.52a3.13,3.13,0,0,0-2.49,1.06c-.32.33-1,.27-1.7.41l.25,1Zm-8.46-.58s0-.11-.06-.12-.08,0-.13,0,0,.12.06.13S23.46,22.57,23.51,22.55Zm5.29-.46c0-.05,0-.11-.06-.13s-.08,0-.12.05,0,.11.05.12S28.76,22.11,28.8,22.09Z" transform="translate(-5.07 -2.88)"/><path class="cls-26" d="M28.39,13.5c0,.72-.46,1.05-1.09,1.23-.43.27-.74.87-1.41.5,0,0-.14.06-.2.11-.67.51-1.19.23-1.63-.35l-1.38,1.44v-.86l-.26,0a9.21,9.21,0,0,0-.26,3.7c-.15.61-.34,1.21-.45,1.82a6.42,6.42,0,0,0,0,1.16c0,1.39.17,1.21-1.25,1.23,0-.08,0-.18.05-.23.27-.25.83-.55.79-.73a7.38,7.38,0,0,0-.79-2,2.66,2.66,0,0,1,.15-2.88,5.59,5.59,0,0,0,.53-1.1,6.37,6.37,0,0,1,.45-.86.9.9,0,0,0-.26-1.41,7.34,7.34,0,0,1-.6-.56Z" transform="translate(-5.07 -2.88)"/><path class="cls-27" d="M32.13,14.26c-.11-.1-.21-.21-.31-.32l.61-.59c1.39-.06,2.78-.14,4.16-.19.53,0,1.07,0,1.6,0l1.26.17c-.11.89-.84,1.13-1.85.62,0,.23-.05.46-.08.83L35,14l0,.12a6.15,6.15,0,0,0-1.32-.18A8.87,8.87,0,0,0,32.13,14.26Zm4-.68L36,13.53l0,.28H36Z" transform="translate(-5.07 -2.88)"/><path class="cls-27" d="M12,14.42c-.1-.31-.21-.61-.32-.92a9.19,9.19,0,0,1,1,0c.92.12,1.83.23,2.73.41.66.13,1.31.36,2,.56-.71.82-3.26.81-3.68.24Z" transform="translate(-5.07 -2.88)"/><path class="cls-5" d="M25.12,12.21l.16.31-.63.77-2.79-.11-.33-.24-.29-.21a6,6,0,0,1,.85,0,2.83,2.83,0,0,0,2.1-.41Z" transform="translate(-5.07 -2.88)"/><path class="cls-18" d="M21.24,12.73l.29.21.33.24-6.25.12c0-.14,0-.28,0-.42l2-.05,1.24,0a1.76,1.76,0,0,0,2-.14Z" transform="translate(-5.07 -2.88)"/><path class="cls-18" d="M13,13.25h0Z" transform="translate(-5.07 -2.88)"/><path class="cls-18" d="M14.08,13.28l.6,0Z" transform="translate(-5.07 -2.88)"/><path class="cls-18" d="M12.35,13.3l.07-.18.09.15Z" transform="translate(-5.07 -2.88)"/><path class="cls-18" d="M15,13.27h.13l-.06,0Z" transform="translate(-5.07 -2.88)"/><path class="cls-10" d="M18.89,12.87l-1.24,0,.62-.75h.46l.95.32v.17Z" transform="translate(-5.07 -2.88)"/><path class="cls-12" d="M17.75,11.54l.06-.74.3,0-.05.74Z" transform="translate(-5.07 -2.88)"/><path class="cls-12" d="M19.05,10.68l-.28.57-.29-.2.57-.37Z" transform="translate(-5.07 -2.88)"/><path class="cls-7" d="M15.63,11l-.47.32C15.17,11,15.18,10.66,15.63,11Z" transform="translate(-5.07 -2.88)"/><path class="cls-10" d="M8.93,9V9Z" transform="translate(-5.07 -2.88)"/><path class="cls-10" d="M25.74,7.42l-.3.15Z" transform="translate(-5.07 -2.88)"/><path class="cls-8" d="M21.24,12.73h-.33l-.46-.19.18-.31a3.28,3.28,0,0,1,.7-.3A3.23,3.23,0,0,1,23,12c.27.11.67-.12,1-.2,0,.18.11.35.16.52a2.83,2.83,0,0,1-2.1.41A6,6,0,0,0,21.24,12.73Z" transform="translate(-5.07 -2.88)"/><path class="cls-9" d="M26.67,11l-1.08.32.05-.75,1,.13c0,.05,0,.1,0,.15Z" transform="translate(-5.07 -2.88)"/><path class="cls-8" d="M33.53,10.22l-.07-.07h0s0,0,0,.06Z" transform="translate(-5.07 -2.88)"/><path class="cls-8" d="M26.68,10.84c0-.05,0-.1,0-.15Z" transform="translate(-5.07 -2.88)"/><path class="cls-8" d="M36.33,8.82l0-.07,0,.07Z" transform="translate(-5.07 -2.88)"/><path class="cls-9" d="M31.35,11.31h0Z" transform="translate(-5.07 -2.88)"/><path class="cls-10" d="M20.63,12.23l-.18.31-.31.06L20,12.38Z" transform="translate(-5.07 -2.88)"/><path class="cls-8" d="M20,12.38l.16.22-.45,0V12.4Z" transform="translate(-5.07 -2.88)"/><path class="cls-28" d="M41.31,29.83a1.84,1.84,0,0,0,.84-1.9c-.14-.9-.34-1.79-.52-2.68-.25-1.18-.45-2.37-.79-3.52a10.44,10.44,0,0,0-.92-1.56A2.92,2.92,0,0,1,39.56,19a13.16,13.16,0,0,1,.07-2.35A1.49,1.49,0,0,1,41,15.2c0,1.11-.13,2.22-.11,3.34a3.91,3.91,0,0,0,.43,1.21,14.83,14.83,0,0,1,.94,4.56,4.8,4.8,0,0,0,.34,1.39c.06.14.38.16.58.24-.15.72-.32,1.44-.45,2.16-.08.47-.12.94-.18,1.41l-.3.47h0l-.77.94h-.16V29.83Z" transform="translate(-5.07 -2.88)"/><path class="cls-26" d="M32.13,14.26a8.87,8.87,0,0,1,1.52-.37,6.15,6.15,0,0,1,1.32.18L35,14l2.51.84c0-.37.06-.6.08-.83,1,.51,1.74.27,1.85-.62h.45c0,.29-.21.73-.1.83.31.26,1.44,0,1.79-.31a5.52,5.52,0,0,0,.51-.66h1.56c0,.15,0,.3,0,.45-.62.23-1.23.47-1.86.67s-1.2.31-1.79.48a1.65,1.65,0,0,0-.46.23c-.73.51-1,.47-1.57-.3v.75c-.72-.19-1.41-.1-2.13-.33a6.36,6.36,0,0,0-2.56.08C32.31,15.34,32.15,15.25,32.13,14.26Z" transform="translate(-5.07 -2.88)"/><path class="cls-18" d="M45.35,21.43a4.21,4.21,0,0,1-.72-1.11A24.51,24.51,0,0,1,44,17.26c0-.3.2-.65.31-1a8.43,8.43,0,0,1,.45,1.18c.22,1,.4,2,.58,3A8.2,8.2,0,0,1,45.35,21.43Z" transform="translate(-5.07 -2.88)"/><path class="cls-18" d="M45.36,22.67c-.1-.31-.52-.62,0-.94C45.36,22,45.36,22.36,45.36,22.67Z" transform="translate(-5.07 -2.88)"/><path class="cls-27" d="M42.1,13.19a5.52,5.52,0,0,1-.51.66c-.35.33-1.48.57-1.79.31-.11-.1.06-.54.1-.83Z" transform="translate(-5.07 -2.88)"/><path class="cls-22" d="M41.47,30.92l.77-.94c-.25.47-.51.94-.77,1.4h0Z" transform="translate(-5.07 -2.88)"/><path class="cls-22" d="M42.25,30l.3-.47Z" transform="translate(-5.07 -2.88)"/><path class="cls-22" d="M43.43,23.41s0,.11,0,.12-.09,0-.13-.05,0-.11.06-.12S43.39,23.39,43.43,23.41Z" transform="translate(-5.07 -2.88)"/><path class="cls-29" d="M41.47,30.92v.46a2.66,2.66,0,0,0-1.53,1.82A12,12,0,0,0,39.41,37c0,.12,0,.31-.11.35-.6.3-.41.94-.62,1.42a5.36,5.36,0,0,0-.67,1.6,2,2,0,0,1-.65,1.3c-.37.43-1.77.54-2.28.61-1.22.15-1.8-1-2.81-1.17-.14,0-.35-.16-.36-.26-.07-.79-.61-.77-1.18-.73s-.72-.34-.77-.78-.12-.79-.91-.58a8,8,0,0,1-2.74-.1c-.84-.08-1.68-.38-2.33.46-.09.11-.27.14-.42.2a1.94,1.94,0,0,0-1.2,2.05c.26,1-.62,1.13-1.09,1.53-.16.13-.63,0-.92-.16A7.48,7.48,0,0,1,19.1,42a1.35,1.35,0,0,1-.4-.59c-.19-.55-.53-.35-.87-.21a6.57,6.57,0,0,1-1.09.48,1.61,1.61,0,0,1-2.09-1.07,17.22,17.22,0,0,1-.58-1.89,4.77,4.77,0,0,1,.63.34c.61.43,1.2.87,1.57,1.15l2.15-1.74,2.29.66c0,.12,0,.24.06.31.19.24.39.6.62.63s.56-.29.65-.53c.23-.56.31-1.17.49-1.75a10.49,10.49,0,0,1,.76-2.1c.4-.68.45-1.66,1.24-1.85l.59-.88.62-.62h.32c.4.88.43.88,1.42.47a.66.66,0,0,1,.55,0c.52.4.88.23,1.2-.48-.06,1.22.84.72,1.2,1a25.39,25.39,0,0,0,.66,2.86,24.19,24.19,0,0,0,1.28,2.63c.44-.9.72-.93,1.22-.33a5.86,5.86,0,0,0,.81.84c.8.63,1.07.57,1.83-.22L36.1,40a1.6,1.6,0,0,0,.82-.62c.13-.17.08-.54.22-.62,1-.54,1.07-1.62,1.32-2.51.33-1.21,0-2.6,1.09-3.6.07-.06,0-.24.05-.37l.47-.63,1.24-.77Z" transform="translate(-5.07 -2.88)"/><path class="cls-28" d="M25.12,32.94l-.59.88c-.79.19-.84,1.17-1.24,1.85a10.49,10.49,0,0,0-.76,2.1c-.18.58-.26,1.19-.49,1.75-.09.24-.45.56-.65.53s-.43-.39-.62-.63c-.06-.07,0-.19-.06-.31l-2.29-.66-2.15,1.74c-.37-.28-1-.72-1.57-1.15a4.77,4.77,0,0,0-.63-.34l-.16-.47-.31-.31a13.52,13.52,0,0,1-.6-1.56c-.28-1.09-.39-2.22-.76-3.27a18.7,18.7,0,0,0-1.35-2.43,16.47,16.47,0,0,1-1.15-2.35A7.44,7.44,0,0,1,9.31,26a12.29,12.29,0,0,1,.34-2.39c.16-.86.34-1.72.56-2.57a16.25,16.25,0,0,1,.57-1.66c.11-.31.24-.6.33-.91.2-.64.7-1.29-.07-1.91a2.92,2.92,0,0,1,.23-.41l.78.17c0,.46-.06.87-.1,1.27-.12,1.18-.17,2.38-.4,3.55a22,22,0,0,1-.87,2.68,6.65,6.65,0,0,0-.46,1.69c0,1.25-.32,2.53.65,3.69.58.69.69,1.86,1.51,2.33,1,.6.85,1.84,1.63,2.52.09.09,0,.34.06.52.07.94-.06,2,1.16,2.64l-.75.24c.56.39.82.49,1,0a2,2,0,0,1,1.56-1.22.38.38,0,0,0,.22-.07c.62-.53,1.23-1.07,1.84-1.61l-.67-.9a2.17,2.17,0,0,1,2.67-.3c.46.26.83,0,.88-.59,0-.28.09-.56.13-.83h.2l.07.43L24,32.16l.62.15Z" transform="translate(-5.07 -2.88)"/><path class="cls-29" d="M13.6,37.92l.31.31Z" transform="translate(-5.07 -2.88)"/><path class="cls-21" d="M24.66,32.31,24,32.16l-.79-.93.68-.37c.12-.07.33-.11.36-.2.23-.75.63-.67,1.17-.19l.31-1a7.06,7.06,0,0,1,.58.89,3.06,3.06,0,0,1,.17.74v.47l-.62.78h-.16C25.38,31.77,25,32.3,24.66,32.31Z" transform="translate(-5.07 -2.88)"/><path class="cls-25" d="M26.52,31.54v-.47c.65,0,1.31-.31,1.95.09.07.05.24,0,.36-.08.82-.35,1-.24.91.82A10.78,10.78,0,0,1,31,31.76c.57,0,1.12.11,1,.9,1.39-.42,2.51.34,2.4,1.55,1.08.43,1.84-.19,2.79-.6a20,20,0,0,1,2.41-1.29c0,.13,0,.31-.05.37-1.07,1-.76,2.39-1.09,3.6-.25.89-.31,2-1.32,2.51-.14.08-.09.45-.22.62a1.6,1.6,0,0,1-.82.62l.13-.94c-.76.79-1,.85-1.83.22a5.86,5.86,0,0,1-.81-.84c-.5-.6-.78-.57-1.22.33a24.19,24.19,0,0,1-1.28-2.63,25.39,25.39,0,0,1-.66-2.86c-.36-.26-1.26.24-1.2-1-.32.71-.68.88-1.2.48a.66.66,0,0,0-.55,0c-1,.41-1,.41-1.42-.47Zm8.6,7.72s.06-.09.05-.12-.08,0-.12-.06-.06.09,0,.13S35.08,39.25,35.12,39.26Z" transform="translate(-5.07 -2.88)"/><path class="cls-27" d="M33.61,29.54l-.42-.94a2.51,2.51,0,0,0,.17-.69c0-.46.12-.7.64-.76.25,0,.46-.38.75-.64l-.92-.58a4.91,4.91,0,0,1,4.44-1,2.9,2.9,0,0,1,1.78,4.42c-.44.59-.87,1.18-1.25,1.81a1.35,1.35,0,0,1-1.85.44,26.27,26.27,0,0,1-2.49-1.66A6,6,0,0,0,33.61,29.54Z" transform="translate(-5.07 -2.88)"/><path class="cls-25" d="M41.31,30.92l-1.24.77c.25-.36-.22-.92.32-1.22l.92-.49Z" transform="translate(-5.07 -2.88)"/><path class="cls-25" d="M32,23.13l.13.83-.24,0-.12-.83Z" transform="translate(-5.07 -2.88)"/><path class="cls-25" d="M31.52,31.2c-.12.07-.2.16-.26.15a.32.32,0,0,1-.19-.19c0-.05.12-.18.17-.18S31.39,31.09,31.52,31.2Z" transform="translate(-5.07 -2.88)"/><path class="cls-25" d="M25.83,26.83l0,.13s-.11,0-.12-.06,0-.09,0-.13Z" transform="translate(-5.07 -2.88)"/><path class="cls-28" d="M22.16,19.24a9.21,9.21,0,0,1,.26-3.7l.26,0v.86L24.06,15c.44.58,1,.86,1.63.35.06-.05.17-.13.2-.11.67.37,1-.23,1.41-.5l-.25,1.18.16.08.36-.48c.53.3,1.06.61,1.6.88a.51.51,0,0,0,.43,0c.37-.22.72-.47.91-.59l.77.75-1.13.65c0-.14.64-.23.42-1-.08.53-1.14.25-.42,1,.43-.08.45.1.46.22l1.77.2c.27.31.72.8,1.11,1.33.1.13.07.54,0,.58a2.42,2.42,0,0,1-1,.26,2.05,2.05,0,0,1-.71-.22L31,20.69l-.2-.11v-.53l-.23.14c-.15.14-.38.44-.45.41-.6-.3-.83.11-1.18.48a6.73,6.73,0,0,1-1.19.81h0l-2.08.75L24,22.4l-.05.18L23.61,22l.71-.32c-.52-.36-.86-.77-1.26,0a4.57,4.57,0,0,0-.22.62l-.23,0,.21-1.81-.44-.22C22.65,19.79,22.75,19.43,22.16,19.24Z" transform="translate(-5.07 -2.88)"/><path class="cls-28" d="M27.77,21.89l.37.91-.33.09,0-1Z" transform="translate(-5.07 -2.88)"/><path class="cls-28" d="M23.51,22.55c-.05,0-.1.06-.13.05s0-.08-.06-.13.1,0,.13,0S23.49,22.51,23.51,22.55Z" transform="translate(-5.07 -2.88)"/><path class="cls-28" d="M28.8,22.09s-.1.06-.13,0,0-.08-.05-.12.09-.06.12-.05S28.78,22,28.8,22.09Z" transform="translate(-5.07 -2.88)"/><path class="cls-26" d="M36.09,13.58l-.1.24h-.08l0-.28Z" transform="translate(-5.07 -2.88)"/><path class="cls-5" d="M19.69,12.57l.45,0,.31-.06.46.19a1.76,1.76,0,0,1-2,.14Z" transform="translate(-5.07 -2.88)"/><path class="cls-25" d="M24.66,32.31c.36,0,.72-.54,1.08,0l-.62.62Z" transform="translate(-5.07 -2.88)"/><path class="cls-26" d="M26.52,31.54l-.46.78H25.9Z" transform="translate(-5.07 -2.88)"/><path class="cls-29" d="M35.12,39.26s-.11,0-.12,0,0-.09,0-.13.11,0,.12.06S35.14,39.22,35.12,39.26Z" transform="translate(-5.07 -2.88)"/><path class="cls-25" d="M29.74,17.41c-.31-1,.75-.69.83-1.22C30.79,16.93,30.16,17,29.74,17.41Z" transform="translate(-5.07 -2.88)"/></svg>