<svg id="Layer_1" data-name="Layer 1" xmlns="http://www.w3.org/2000/svg" viewBox="0 0 48.19 179.46"><defs><style>.cls-1{fill:#5a7520;}.cls-2{fill:#d3cddb;}.cls-3{fill:#c6becf;}.cls-4{fill:#c7bfcf;}.cls-5{fill:#c1bcc3;}.cls-6{fill:#c8c1d0;}.cls-7{fill:#49671b;}.cls-8{fill:#8a9e57;}.cls-9{fill:#55711f;}.cls-10{fill:#e0dbe5;}.cls-11{fill:#c72721;}.cls-12{fill:#f9efc3;}.cls-13{fill:#f9edc1;}.cls-14{fill:#f6e4ba;}.cls-15{fill:#cc3a30;}.cls-16{fill:#d45a4a;}.cls-17{fill:#f7e7bd;}.cls-18{fill:#f4dbb2;}.cls-19{fill:#f3d7b0;}.cls-20{fill:#edbf9c;}.cls-21{fill:#e8ad8e;}.cls-22{fill:#d04b3e;}.cls-23{fill:#f1cea8;}.cls-24{fill:#c93229;}.cls-25{fill:#de846c;}.cls-26{fill:#6e482c;}.cls-27{fill:#c82b24;}.cls-28{fill:#c93027;}.cls-29{fill:#6f4a2e;}.cls-30{fill:#764a2f;}.cls-31{fill:#d86b57;}.cls-32{fill:#795639;}.cls-33{fill:#a18764;}.cls-34{fill:#856647;}.cls-35{fill:#baa580;}.cls-36{fill:#af9874;}.cls-37{fill:#ece2b7;}.cls-38{fill:#cab992;}</style></defs><path class="cls-1" d="M42.14,10.68c1,1.63.93,3.13.49,5.08-.53,2.3,0,4.91.4,7.36,2.06,14.66,4.21,29.31,6.28,44A9.06,9.06,0,0,0,52.42,73a10.84,10.84,0,0,1,3.71,9q-.24,10.2-.58,20.4a12.74,12.74,0,0,1-.44,2.16L47.1,99l0-1.72c.08-5.08.22-10.17.17-15.25A4.69,4.69,0,0,0,46,79.31a19.15,19.15,0,0,1-5.27-9.94c-.93-5.92-1.55-11.9-2.4-17.83-1.09-7.63-2.22-15.25-3.5-22.84a3.72,3.72,0,0,0-2.17-2.26c-1.17-.42-2.17.41-2.61,1.66a7.62,7.62,0,0,0-.43,1.46c-.42,3.25-.77,6.52-1.21,9.77-.7,5.19-1.46,10.37-2.18,15.56-.68,4.88-1.33,9.76-2,14.64a15.39,15.39,0,0,1-5.37,10,3.65,3.65,0,0,0-1.51,3.24c.15,3.42.2,6.85.42,10.27.13,2,.51,4,.77,5.92l-2.71,1.52a2.6,2.6,0,0,1-.37-.82c-.27-5.32-.48-10.64-.8-16a10.22,10.22,0,0,1,3.26-8.18,10.07,10.07,0,0,0,2.77-4.85c1-5.27,1.68-10.62,2.37-16,.85-6.64,1.34-13.34,2.47-19.93,1.34-7.88,1.63-15.81,2.17-23.74l7.21-.31Z" transform="translate(-8.23 -4.13)"/><path class="cls-1" d="M54.35,129.15c-.2,6-.34,12.08-.63,18.12a30.48,30.48,0,0,0,1.37,10.51c1.88,6.09,1.5,12.33.46,18.49a7.47,7.47,0,0,1-7,6.52c-7.08.54-14.21.75-21.31.79a69.19,69.19,0,0,1-11.95-.92c-4.4-.75-6.4-3.32-6.67-7.78-.22-3.62-.36-7.25-.35-10.87A11.56,11.56,0,0,1,9,159.73c2.33-5.71,2.34-11.66,2.08-17.65-.13-2.92-.23-5.85-.34-8.77v-4.1h2.76c.13,6.48.28,13,.36,19.44a21.75,21.75,0,0,1-.35,4.91c-.63,2.82-2,5.54-2.2,8.37a81.55,81.55,0,0,0,.11,13.26c.28,3.31,1.82,4.68,5.2,5,4.54.43,9.11.48,13.66.7-3.92-1.32-7.83-2.41-11.7-3.61-2.78-.87-3.93-2.94-4-5.77,0-1.65-.32-3.3-.24-4.93.14-3.21.06-6.51.81-9.6.93-3.84,1.93-7.59,1.77-11.59-.21-5.39-.28-10.79-.41-16.19l3.05,0c.13,7,.27,13.93.38,20.9a10,10,0,0,1-.24,2.44c-.72,3.08-1.81,6.1-2.2,9.21a81.82,81.82,0,0,0-.22,9.79,2.84,2.84,0,0,0,2.92,3q6.38.25,12.74.38c1.51,0,3-.11,4.52-.16a60.93,60.93,0,0,0,7.54-.34,3.46,3.46,0,0,0,2.31-2.33c.18-3.27.62-6.78-.32-9.8C44.14,153,44.66,143.53,45.2,134c.09-1.61,0-3.24,0-4.86Z" transform="translate(-8.23 -4.13)"/><path class="cls-2" d="M55.18,105c.1,2.38.26,4.75.28,7.13,0,1.31-.19,2.63-.3,4q-.4,4.82-.8,9.61l-37.79,0c-.31-6.57-.62-13.15-.94-20l-2.88,2.48-.39-5,0-.08L15,101.18l.79,4.3a27.06,27.06,0,0,1,20.57-5.75A27.35,27.35,0,0,1,54.71,110l.47-.16Z" transform="translate(-8.23 -4.13)"/><path class="cls-1" d="M9.75,105.36q-.6-11.16-1.19-22.3a12.32,12.32,0,0,1,4.36-10.14,8.45,8.45,0,0,0,2.47-4.51c1.31-8.29,2.35-16.62,3.48-24.94,1.09-8,2.25-16,3.21-24,.21-1.74-.38-3.56-.4-5.35a10.84,10.84,0,0,1,.65-2.67c.55-1.59,1.84-1.09,3-1-.11,1.91-.24,3.83-.31,5.75,0,.73.21,1.49.12,2.22-.8,6.4-1.61,12.8-2.48,19.19q-2.05,15-4.18,30.05c-.37,2.69-1,5.39-3.26,7.08-3.7,2.8-4.16,6.58-3.92,10.72q.54,8.81,1,17.63l0,.08Z" transform="translate(-8.23 -4.13)"/><path class="cls-3" d="M55.18,105v4.83l-.47.16a27.35,27.35,0,0,0-18.4-10.26,27.06,27.06,0,0,0-20.57,5.75l-.79-4.3.86-.71L18.52,99c3.54-.9,7-2.14,10.62-2.64A33.78,33.78,0,0,1,47.1,99l8,5.56Z" transform="translate(-8.23 -4.13)"/><path class="cls-3" d="M25.3,10.4c-1.13-.05-2.42-.55-3,1-.07-.31-.08-.83-.23-.88-1.35-.45-1.46-1.47-1.23-2.59.29-1.42.83-2.71,2.42-3.12a14,14,0,0,1,3.15-.63c3.94-.07,7.89-.19,11.82,0,2.11.12,4.7-.09,5.56,2.81.63,2.14.36,2.78-1.68,3.61l-7.25.06-7.2-.38-1.19-.12c.12-2.4,2.6-1.58,3.84-2.73H23.67l2,2.83Z" transform="translate(-8.23 -4.13)"/><path class="cls-3" d="M19.62,129.18l-3.05,0a.41.41,0,0,0,0-.19c0-1,0-2,0-3H54.35v3.1l-9.12,0Z" transform="translate(-8.23 -4.13)"/><path class="cls-2" d="M10.49,125.69,9.74,107c.18,1.31.36,2.61.58,4.18l2-2.28c.19,3.31.36,6.62.58,9.92.15,2.3.38,4.59.57,6.89l-.39.38Z" transform="translate(-8.23 -4.13)"/><path class="cls-4" d="M12.37,108.86l-2,2.28c-.22-1.57-.4-2.87-.58-4.18,0-.53,0-1.07,0-1.6l2.61-2.24.39,5Z" transform="translate(-8.23 -4.13)"/><path class="cls-5" d="M54.35,126.05H16.58c0-.12,0-.25,0-.38h0l37.79,0A.87.87,0,0,1,54.35,126.05Z" transform="translate(-8.23 -4.13)"/><path class="cls-6" d="M10.49,125.69l2.64.36c.11,1,.23,2,.34,3a.46.46,0,0,0,0,.2H10.76v4.1Z" transform="translate(-8.23 -4.13)"/><path class="cls-7" d="M47.1,99a33.78,33.78,0,0,0-18-2.73c-3.6.5-7.08,1.74-10.62,2.64-.26-2-.64-3.94-.77-5.92-.22-3.42-.27-6.85-.42-10.27a3.65,3.65,0,0,1,1.51-3.24,15.39,15.39,0,0,0,5.37-10c.68-4.88,1.33-9.76,2-14.64.72-5.19,1.48-10.37,2.18-15.56.44-3.25.79-6.52,1.21-9.77A7.62,7.62,0,0,1,30,28.1c.44-1.25,1.44-2.08,2.61-1.66a3.72,3.72,0,0,1,2.17,2.26c1.28,7.59,2.41,15.21,3.5,22.84.85,5.93,1.47,11.91,2.4,17.83A19.15,19.15,0,0,0,46,79.31a4.69,4.69,0,0,1,1.31,2.76c.05,5.08-.09,10.17-.17,15.25Z" transform="translate(-8.23 -4.13)"/><path class="cls-8" d="M26.5,10.24l1.19.12c0,.23,0,.46,0,.69-.54,7.93-.83,15.86-2.17,23.74C24.38,41.38,23.89,48.08,23,54.72c-.69,5.33-1.34,10.68-2.37,16a10.07,10.07,0,0,1-2.77,4.85,10.22,10.22,0,0,0-3.26,8.18c.32,5.31.53,10.63.8,16a2.6,2.6,0,0,0,.37.82l-.86.71L12.31,103q-.51-8.82-1-17.63c-.24-4.14.22-7.92,3.92-10.72,2.24-1.69,2.89-4.39,3.26-7.08q2.11-15,4.18-30c.87-6.39,1.68-12.79,2.48-19.19.09-.73-.15-1.49-.12-2.22.07-1.92.2-3.84.31-5.75l.42-.06Z" transform="translate(-8.23 -4.13)"/><path class="cls-9" d="M27.68,11.05c0-.23,0-.46,0-.69l7.2.38Z" transform="translate(-8.23 -4.13)"/><path class="cls-7" d="M19.62,129.18H45.23c0,1.62.06,3.25,0,4.86-.54,9.5-1.06,18.94,1.85,28.28.94,3,.5,6.53.32,9.8a3.46,3.46,0,0,1-2.31,2.33,60.93,60.93,0,0,1-7.54.34c-1.51.05-3,.19-4.52.16q-6.37-.12-12.74-.38a2.84,2.84,0,0,1-2.92-3,81.82,81.82,0,0,1,.22-9.79c.39-3.11,1.48-6.13,2.2-9.21a10,10,0,0,0,.24-2.44C19.89,143.11,19.75,136.15,19.62,129.18Z" transform="translate(-8.23 -4.13)"/><path class="cls-8" d="M16.57,129.21c.13,5.4.2,10.8.41,16.19.16,4-.84,7.75-1.77,11.59-.75,3.09-.67,6.39-.81,9.6-.08,1.63.22,3.28.24,4.93,0,2.83,1.18,4.9,4,5.77,3.87,1.2,7.78,2.29,11.7,3.61-4.55-.22-9.12-.27-13.66-.7-3.38-.33-4.92-1.7-5.2-5a81.55,81.55,0,0,1-.11-13.26c.23-2.83,1.57-5.55,2.2-8.37a21.75,21.75,0,0,0,.35-4.91c-.08-6.48-.23-13-.36-19.44a.46.46,0,0,1,0-.2h3.12A.41.41,0,0,1,16.57,129.21Z" transform="translate(-8.23 -4.13)"/><path class="cls-10" d="M12.37,108.86l.38-.76,2.88-2.48c.32,6.9.63,13.48.94,20H13.52c-.19-2.3-.42-4.59-.57-6.89C12.73,115.48,12.56,112.17,12.37,108.86Z" transform="translate(-8.23 -4.13)"/><path class="cls-2" d="M26.5,10.24l-.78.1-2-2.83h6.67C29.1,8.66,26.62,7.84,26.5,10.24Z" transform="translate(-8.23 -4.13)"/><path class="cls-2" d="M13.52,125.67h3.05c0,.13,0,.26,0,.38,0,1,0,2,0,3H13.47c-.11-1-.23-2-.34-3Z" transform="translate(-8.23 -4.13)"/><path class="cls-11" d="M50.37,100.1l.55.58v1.16h.95a21.27,21.27,0,0,1,3.52,6.22,5.06,5.06,0,0,1,.1,1.66q0,7.55,0,15.09a1.79,1.79,0,0,1-.07.61,22.44,22.44,0,0,1-3.91,6.7l0-.6H50V129h1.34v-1H50v-2.34H51.4v-1H48.78v8h2.31c-.91.91-1.82,1.83-2.74,2.73-.1.1-.33.09-.5.09H17.68a1.11,1.11,0,0,1-.7-.27c-.88-.86-1.73-1.75-2.59-2.63l.51.12a1.57,1.57,0,0,0,2.15-1.37,3.37,3.37,0,0,0-.93-3c-.33-.36-.66-.71-1-1.08a1.13,1.13,0,0,1-.24-1.16.74.74,0,0,1,.46-.42c.28-.08.42.16.44.42s.06.78.09,1.2h1.17a14.61,14.61,0,0,0-.28-1.83c-.17-.62-.66-.87-1.43-.86a1.4,1.4,0,0,0-1.5.92,2.76,2.76,0,0,0,.6,2.88c.33.35.67.7,1,1.06a2.07,2.07,0,0,1,.42,1.87.59.59,0,0,1-.42.38c-.16,0-.36-.18-.48-.33a.88.88,0,0,1-.07-.47c0-.38,0-.76,0-1.16H13.7c0,.19,0,.35,0,.51.05.58.11,1.16.16,1.75A23,23,0,0,1,10,125.12a1.24,1.24,0,0,1,0-.43q0-7.93,0-15.86a3.22,3.22,0,0,1,.24-1,23.88,23.88,0,0,1,4.37-7.15,2.88,2.88,0,0,1,.34-.27,6.16,6.16,0,0,1,.79,1.74L15,101.6l-.08.09.11.23a1.17,1.17,0,0,0,.4,1.15l.42.65L16,104c.13.2.25.41.39.59l5.07,6.34a1.06,1.06,0,0,1,.18.35c.15.55.29,1.11.43,1.66l-.33.43.49.08a2,2,0,0,0,.21.53c.43.5.93.93,1.31,1.46.71,1,1.36,2,2,3a7.12,7.12,0,0,1,1,1.6c.1.32.59.49.82.79.9,1.15,1.76,2.32,2.63,3.49a3.23,3.23,0,0,1,.24.42,1.78,1.78,0,0,0-2.73,1.18,2.78,2.78,0,0,0-.07.57c0,1.35,0,2.71,0,4.07a3.47,3.47,0,0,0,.26,1.23,1.35,1.35,0,0,0,2.41.25s.07,0,.11-.05l.17.57h.51v-4.32H29.48v.83l.67.07c-.07.71-.1,1.4-.22,2.08a.62.62,0,0,1-.49.37c-.16,0-.38-.22-.47-.4a1.53,1.53,0,0,1-.09-.65c0-1,0-2.06,0-3.09,0-.44,0-.89.05-1.33s.16-.58.54-.57.5.26.51.59,0,.81.06,1.21h1.15l-.15-2c.39.56.74,1,1,1.5a1.73,1.73,0,0,1,.26.85c0,1.47,0,2.95,0,4.42v.47h1.22v-3.66h1.11v3.66h1.21v-.49c0-1.89,0-3.78,0-5.66,0-.76.24-1.59-.41-2.23l0,.45-.4-4.32-.17.37c-.08-1-.16-1.81-.22-2.68a1.42,1.42,0,0,1,.08-.45,3.83,3.83,0,0,0,.22-.62c0-.3,0-.62,0-.92l.29.42v-3c0-.37.18-.49.62-.36v-1.36l.05-.06c.74-.19.75-.2.55-.86a4.86,4.86,0,0,1-.34-1.13c0-1,0-2.08,0-3.13,0-.19.16-.41.1-.57a10.11,10.11,0,0,0-.49-.91,1.61,1.61,0,0,1,0-.5c.18,0,.31,0,.2-.23s-.23-.19-.39-.31l-.17-.49.16-.4-.42-.21c-.11-.74-.22-1.48-.32-2.22-.22-1.7-.43-3.4-.64-5.1H44.37a.56.56,0,0,1,.29.06,21.37,21.37,0,0,1,4.86,3.64l-.38,2.55c.28.07.45.06.49-.24a.34.34,0,0,1,.26-.2c.08,0,.18.13.24.22a.8.8,0,0,1,.08.26l.38,0Zm.9,9.52h.17l.23-.17.19.15v-1.3l-.19.28-.22-.19-.19.08-.27-.07c-.07,0-.2.06-.2.09,0,.38,0,.76,0,1.14h.1l.2-.54ZM49.5,109l-.14-.59-.11,0v1.16h0l0-.13.43,0,.11.25V108.4h-.12l-.11.51Zm-8.22-.53-.19-.06-.19.16-.26-.11-.09.06.33.41v.17l-.46.51-.06-1.14h-.12a1.82,1.82,0,0,0,.15,1.21l.51-.21.08.1a1.31,1.31,0,0,0,.39-.08c0-.34,0-.68-.08-1Zm7.48-1.58-.14.09-.51-.06V108h.13l.1-.47.27.47h.16l.21,0c.05-.24.17-.48.1-.61s-.23-.41.06-.63Zm.71,3.53,0,0c0,.15-.1.3-.16.45s-.06.33.2.3c0-.18,0-.32.06-.46a2.94,2.94,0,0,0,.1-.58c0-.06-.19-.17-.25-.15s-.14.16-.17.26S49.4,110.35,49.47,110.4ZM44.52,108l.36,0c0-.36,0-.71,0-1.06a1.81,1.81,0,0,0-.35,0l0,0Zm.72.85-.26-.43a1.71,1.71,0,0,0-.26.42,1.29,1.29,0,0,0,0,.48c0,.37.22.43.53.27v-.74Zm.1-1.5-.12-.3-.07-.06,0,0c0,.28,0,.56,0,.83,0,.1.13.19.2.28.11-.08.27-.15.31-.25A.36.36,0,0,0,45.34,107.31Zm-.1,3.46c0-.21,0-.41,0-.62a.3.3,0,0,0-.15-.18.3.3,0,0,0-.23.06,2,2,0,0,0,0,.64s.26.06.41.09l0,.42h.08l.38-.83a2.57,2.57,0,0,0,0,.58c0,.11.13.19.21.28.08-.1.22-.19.23-.29.05-.32.06-.65-.41-.6V110h-.06Zm-2.83-2.22-.47-.09-.08.36-.27-.48v1.27h.13l.11-.52.41-.1,0,.69.34,0c0-.41-.08-.76-.12-1.11l.11,0,0,0Zm1.84.83h.13l.14.24.11,0-.1-.41-.13-.8h-.16l-.07.43-.13.42h0l-.07-.82h-.11l-.12.5-.15-.52-.07,0v1.21h.1l.1-.48h.06l.05.58ZM43.79,107l-.07-.06-.41,0V108h.12l.16-.57.12,0a1.31,1.31,0,0,0,.09.28,3.33,3.33,0,0,0,.24.32c.09-.11.23-.21.26-.34a1.56,1.56,0,0,0,0-.61c0-.12-.11-.22-.17-.33ZM37.1,132.57h1.19v-3.71c.83-.09,1,.07,1,.82v2.89h1.16c0-1,0-2,0-3a1.27,1.27,0,0,0-.46-1.12,3.48,3.48,0,0,0,.43-1,9.84,9.84,0,0,0,0-1.8.94.94,0,0,0-.76-1c-.85-.07-1.71,0-2.58,0Zm7.1-8v8h1.53c1.22,0,1.81-.47,1.87-1.69.07-1.58.06-3.18,0-4.76a1.41,1.41,0,0,0-1.44-1.54C45.52,124.57,44.87,124.6,44.2,124.6Zm-22.72,8h2.69v-1H22.72V129h1.35v-1H22.72v-2.35h1.39v-1H21.48Zm-2.24-1v-6.93H18.05v7.95h2.72v-1Zm23.65,1v-8H41.73v8Zm-17.59-8v7.95h1.18v-7.95ZM42.94,102c.19-.13.36-.2.37-.26,0-.92,0-1.84,0-2.76h-.55l-.36,1.89h-.07L42,98.93h-.53v2.89h.37v-1.67c.16.47.24.94.36,1.41,0,.1.16.18.24.28.07-.09.18-.17.21-.28.1-.44.19-.88.28-1.33h.06V102Zm5-.12a8.12,8.12,0,0,0,0-1.11,2.06,2.06,0,0,1,0-.82c.16-.75-.07-1-.83-1l-.4,0v2.9h.45v-1.32l.16,0c.44.35,0,.94.27,1.35Zm-2,2c0-.34,0-.65-.05-1a.55.55,0,0,0-.61-.55.56.56,0,0,0-.63.54c0,.64,0,1.29,0,1.93a.56.56,0,0,0,.63.54.55.55,0,0,0,.6-.52C45.9,104.42,45.9,104.08,45.92,103.78ZM51,105.24v-1.35l.17-.06a1.44,1.44,0,0,1,.19.37,4.09,4.09,0,0,1,0,.7c0,.34.12.42.46.31,0-.23,0-.46,0-.69a7.67,7.67,0,0,1,0-1.36c.11-.73-.08-.88-.83-.87l-.38,0v2.93Zm-3.47,0a9.21,9.21,0,0,0,0-1.18,1.46,1.46,0,0,1,0-.69c.21-.75-.06-1.07-.84-1.06l-.36,0v2.94l.43,0v-1.34l.15-.06a1.17,1.17,0,0,1,.2.36,4.7,4.7,0,0,1,0,.75C47.08,105.27,47.25,105.3,47.52,105.22ZM21.61,124c0-.11,0-.19,0-.28,0-.51,0-1,0-1.54s-.14-.59-.61-.6h-.48c0,.78,0,1.51,0,2.24,0,.08.14.14.21.21s.16-.15.17-.24c0-.29,0-.58,0-.88h.23c0,.26.06.52.07.78S21.25,124.07,21.61,124Zm21.45-21.65v2.92h.43v-1.07c.84-.14.88-.38.81-1.23C44.26,102.32,44.05,102.24,43.06,102.31Zm6.6.43c.08,0,.15,0,.19,0l.31-.25a1.1,1.1,0,0,0-.32-.17,4.82,4.82,0,0,0-.66,0v3h1c.18-.56-.33-.3-.49-.45V104l.43-.07c.17-.48-.23-.34-.43-.42Zm-5.46-2c.76,0,.89-.3.82-1.19-.06-.61-.35-.73-1.25-.58v2.87h.43ZM17.45,122.79h0a7.12,7.12,0,0,0,0-.8.46.46,0,0,0-.48-.46c-.31,0-.56.1-.57.42a12.67,12.67,0,0,0,0,1.63c0,.31.25.45.56.44a.49.49,0,0,0,.49-.48C17.47,123.29,17.45,123,17.45,122.79Zm.4,1.17c1,.11,1.29-.29,1-1.15a1.05,1.05,0,0,1,0-.31c0-.28.05-.66-.1-.81s-.55-.13-.86-.18ZM46.29,99.27c0-.4-.21-.45-.93-.3v2.84c.92.12,1,.09.94-.32l-.49,0v-.86c.18-.13.61.07.45-.4l-.45-.08v-.78Zm2.3,6c0-.76,0-1.46,0-2.16a.89.89,0,0,1,.14-.37,3.81,3.81,0,0,1,.23-.4H47.74c0,.15.06.36.1.36.35,0,.25.31.26.51v2.06ZM19.41,121.57,19.07,124l.13.08c.09-.08.17-.17.26-.26s.15-.19.23-.19.14.13.21.2l.27.25.12-.09-.37-2.37Zm-3.33,1.23a3,3,0,0,0,0-.79.8.8,0,0,0-.42-.46.44.44,0,0,0-.6.37,13.29,13.29,0,0,0,0,1.67.52.52,0,0,0,1-.09C16.08,123.27,16.08,123,16.08,122.8ZM48.44,98.93v2.89h.41V98.93Zm-7.93,0v2.92l.4,0V98.93ZM14.32,123l.43-.33-.4-.27v-.5a1.23,1.23,0,0,0,.16,0l.3-.16a1.1,1.1,0,0,0-.3-.16,5.42,5.42,0,0,0-.57,0c0,.77,0,1.48,0,2.18,0,.09.12.17.19.26.06-.08.16-.16.17-.24C14.33,123.47,14.32,123.19,14.32,123Zm37.21-12.43c-.15-.25-.26-.59-.38-.6-.4,0-.29.37-.29.6s-.11.61.28.61C51.26,111.18,51.38,110.82,51.53,110.58Zm-4.22-.69v1.36c.18-.06.43-.1.43-.16a4.1,4.1,0,0,0,0-1C47.74,110,47.5,110,47.31,109.89Zm0-.2c.19-.09.44-.14.45-.22a4,4,0,0,0,0-1c0-.06-.25-.08-.41-.13Zm-4.12-.15.06,0v-1.13l-.24.26-.26-.3v1.24h.09l.09-.63Zm0,1.44.24.23a1.31,1.31,0,0,0,.26-.37,1.28,1.28,0,0,0,0-.55c0-.12-.16-.22-.24-.33-.08.1-.21.19-.24.3A4.07,4.07,0,0,0,43.13,111Zm4.34-3c.38.15.45-.06.47-.32s0-.31,0-.47c0-.36-.06-.43-.48-.35Zm3.39-1.18V108H51l.1-.5h.07l.1.49h.12c0-.26,0-.53,0-.79S51.21,106.74,50.86,106.83Zm-4.58,2-.3-.55v1.27h.08l.08-.4.29.51v-1.29h-.09Zm3.8.71c.21-.33.37-.07.63.13-.18-.48,0-.93-.47-1.26Zm-.67-1.6.15,0,.15-.55.1.44c.56-.46-.15-.72,0-1.09h-.16Zm-2.73-.45c.43.07.31-.27.28-.43a.29.29,0,0,0-.45-.26V108l.11,0Zm2.08,1.64.17.43H49v-1.24c-.49.33-.4.76-.38,1.2ZM48,110l-.13,0,.21,1.2h.19l.18-1.2-.14,0-.13.67Zm-3.77.88-.09.06.2.29c.09-.09.26-.18.26-.27a4.9,4.9,0,0,0-.16-.8l.19-.06-.14-.17c-.11.07-.31.13-.31.21a1.15,1.15,0,0,0,.15.44c0,.13.09.26.16.49ZM46.31,108c-.07-.33.08-.73-.35-.94l-.19.93C46,107.69,46.13,107.84,46.31,108Zm4.25-1.21c-.07,0-.25.07-.26.12a9.73,9.73,0,0,0,0,1.08s.21.05.24.06Zm.95,4.39.3,0v-1.11h-.07Zm.16-3.18h.08l.13-1-.43-.16Zm-16,13.42h.16l-.14-1-.15,0Zm11.41-11h-.12l0,.35H47Zm-.43.52v.11L47,111v-.06Z" transform="translate(-8.23 -4.13)"/><path class="cls-12" d="M15.05,101.92l-.11-.23.08-.09.69.59a6.16,6.16,0,0,0-.79-1.74c.63-.66,1.23-1.36,1.91-2a20.41,20.41,0,0,1,3.89-2.75L21,97l.14,0-.24-1.3a1.41,1.41,0,0,1,.43-.13H33.05l1.07,0c.21,1.7.42,3.4.64,5.1.1.74.21,1.48.32,2.22,0,.2,0,.41.05.61v.1l.11.62,0,0h0l0,0v-.62a.19.19,0,0,1,0-.08l.08,0,.17.49c.16.12.32.19.39.31s0,.25-.2.23a1.61,1.61,0,0,0,0,.5,10.11,10.11,0,0,1,.49.91c.06.16-.09.38-.1.57,0,1-.07,2.09,0,3.13a4.86,4.86,0,0,0,.34,1.13c.2.66.19.67-.55.86l-.05,0v1.47c-.44-.13-.62,0-.62.36v3l-.29-.42c0,.3,0,.62,0,.92a3.83,3.83,0,0,1-.22.62,1.42,1.42,0,0,0-.08.45c.06.87.14,1.73.22,2.68l.17-.37.4,4.32,0-.45c.65.64.4,1.47.41,2.23,0,1.88,0,3.77,0,5.66v.49H34.65v-3.66H33.54v3.66H32.32v-.47c0-1.47,0-2.95,0-4.42a1.73,1.73,0,0,0-.26-.85c-.28-.49-.63-.94-1-1.5l.15,2H30c0-.4,0-.81-.06-1.21s-.13-.59-.51-.59-.52.26-.54.57,0,.89-.05,1.33c0,1,0,2.06,0,3.09a1.53,1.53,0,0,0,.09.65c.09.18.31.4.47.4a.62.62,0,0,0,.49-.37c.12-.68.15-1.37.22-2.08l-.67-.07v-.83h1.64v4.32h-.51l-.17-.57s-.09,0-.11.05a1.35,1.35,0,0,1-2.41-.25,3.47,3.47,0,0,1-.26-1.23c0-1.36,0-2.72,0-4.07a2.78,2.78,0,0,1,.07-.57,1.78,1.78,0,0,1,2.73-1.18,3.23,3.23,0,0,0-.24-.42c-.87-1.17-1.73-2.34-2.63-3.49-.23-.3-.72-.47-.82-.79a7.12,7.12,0,0,0-1-1.6c-.66-1-1.31-2.06-2-3-.38-.53-.88-1-1.31-1.46a2,2,0,0,1-.21-.53l-.49-.08.33-.43c-.14-.55-.28-1.11-.43-1.66a1.06,1.06,0,0,0-.18-.35l-5.07-6.34c-.14-.18-.26-.39-.39-.59l.08-.39-.25.15-.42-.65.3-.28Zm17.29-.62v-.09l-.17-.34h.17l.17.27c.11-.58-.36-.67-.68-.91-.07.16-.14.31-.2.46l-.68.07-.06-.55a1.52,1.52,0,0,0-.21.19,2.16,2.16,0,0,0-.1.25l.34.14v.16l-.77.36L30,101l-.43.32.45.3.1-.26.7.19.19-.14-.1-.49.59.26v.09l.08.18c.31.32.57.25.73-.18Zm2.31,11-.29-.36a1.08,1.08,0,0,0-.89-1.06,1.08,1.08,0,0,1-.9-.84l.19,0,.06.11,0,0-.06-.11,0-.18.07-.45c.1.18.15.25.18.32a.86.86,0,0,0,1.08.45c.25-.09.29-.22.25-.46s0-.54,0-.81a.69.69,0,0,0-.4-.68c.07.22.11.35.14.49a.6.6,0,0,1-.38.67c-.28.16-.35-.07-.52-.21a2.08,2.08,0,0,0-.66-.27l.09-.62.19-.17.26-.27h.33c0-.24.08-.41.36-.4l.19,0,.67-.07,0,.06a1.24,1.24,0,0,0,0,.39,9,9,0,0,0,.43.81c.38-.16.42-.3.41-1.35-.07,0-.17.09-.21.07s-.07-.14-.12-.21l-.2-.27-.35-1.08-.42-.61c-.06-.07-.18-.17-.17-.22.14-.42-.17-.59-.44-.85l-.34.43c.48,0,.53.17.47.49l-.6-.3c-.32-.51-.49-.59-.94-.42h-.1l-.07-.09.08-.07,0,0-.08.13a1.36,1.36,0,0,1-1.7-.64,2,2,0,0,0-.61-.65,3.33,3.33,0,0,1-.71-.63.4.4,0,0,0-.46-.2c-.73.08-1.14.48-1.34,1.34-.12.49-.21,1-.31,1.48a4.52,4.52,0,0,0-2.52,1.46l-.49,1,0,0-.34-.54s0-.06,0,0,0,0,0,0a4.18,4.18,0,0,0,.1.51c.19.48.4.95.6,1.43,0,.09-.06.18,0,.25.26.68.52,1.35.79,2,0,.06.21.06.32.08l.1.22,0,.08a.08.08,0,0,0-.07,0c-.09,0-.23.05-.26.11-.16.28-.28.58-.42.87,0,.5.07,1,.1,1.5l-.21,0v.05l.21-.07c.52.23,1,.56,1.63.25,0,.13.05.26.09.38.36,1.1.69,2.21,1.09,3.28a3,3,0,0,0,1.38,1.93h0a4.14,4.14,0,0,0,.46.39,1.84,1.84,0,0,1,1,1.28,5.23,5.23,0,0,0,.4,1.15c.45,1,.91,2,1.38,2.95a1.9,1.9,0,0,0,.28.29h0l.29.84c-.3.2-.06.4,0,.6s.1.31.14.47c.21.66.38.74,1.13.6.21,0,.26-.14.22-.33l.45-.13V128l-.16.07,0,.05.17-.08a5.08,5.08,0,0,0,.61-.42s0-.18,0-.25a1,1,0,0,0-.23-.23,1.56,1.56,0,0,0-.19-1.23,1.3,1.3,0,0,0-.11-.46,1.89,1.89,0,0,1-.27-1.31v-.53l-.15-.41h0l-.33-1-.24-.91,0-.1a.09.09,0,0,0,0,0,4.26,4.26,0,0,1-.08-3.32,3,3,0,0,0-.14-2c.49-.4,1.25-.63,1-1.52l.22.17a.78.78,0,0,0-.41-1l-.16-.63.26-.17.09-.26c.23,0,.55.22.69-.18,0-.25.16-.61-.24-.72Zm-10.45,1.5c.05,0,.14-.08.13-.11s-.09-.32-.13-.47-.07-.27-.11-.4l.3-.9c-.37-.23-.5-.16-.58.24s-.17.48-.23.73a3.65,3.65,0,0,0-.07.46l-.18.36.19.85C24.06,114.51,24.11,114.12,24.2,113.77Zm5.48-14.33,0,.1v.16l.05.72h.09l.2-.6.52-.78a1.49,1.49,0,0,0-.51-.66,1.38,1.38,0,0,1-.64-1l.13-.15-.05,0-.08.2a1,1,0,0,0-.36,1.13A4.9,4.9,0,0,0,29.68,99.44ZM31,101.85v.09l.55.6.17-.49ZM28.37,121l-.73-.6,0,0,.58.8A2.77,2.77,0,0,0,28.37,121Zm5.92-7.73h.09l0-.36h-.12Zm-6,8-.07.06.19.22.07-.07ZM15.86,103.4l.08-.06-.16-.28-.08,0ZM34.93,121h0v-.18h0ZM16.58,104.3l0,0,0,0,0,0Zm13.35-2.51h0v0Zm1.48-.38,0,0h0Z" transform="translate(-8.23 -4.13)"/><path class="cls-13" d="M13.86,131.9c0-.59-.11-1.17-.16-1.75,0-.16,0-.32,0-.51h1.2c0,.4,0,.78,0,1.16a.88.88,0,0,0,.07.47c.12.15.32.34.48.33a.59.59,0,0,0,.42-.38,2.07,2.07,0,0,0-.42-1.87c-.32-.36-.66-.71-1-1.06a2.76,2.76,0,0,1-.6-2.88,1.4,1.4,0,0,1,1.5-.92c.77,0,1.26.24,1.43.86a14.61,14.61,0,0,1,.28,1.83H15.9c0-.42-.05-.81-.09-1.2s-.16-.5-.44-.42a.74.74,0,0,0-.46.42,1.13,1.13,0,0,0,.24,1.16c.31.37.64.72,1,1.08a3.37,3.37,0,0,1,.93,3,1.57,1.57,0,0,1-2.15,1.37l-.51-.12Z" transform="translate(-8.23 -4.13)"/><path class="cls-12" d="M51.09,132.6H48.78v-8H51.4v1H50V128h1.33v1H50v2.53h1.48l0,.6Z" transform="translate(-8.23 -4.13)"/><path class="cls-14" d="M50.37,100.1l.22,1.72-.38,0a.8.8,0,0,0-.08-.26c-.06-.09-.16-.22-.24-.22a.34.34,0,0,0-.26.2c0,.3-.21.31-.49.24l.38-2.55.33.39-.15,1.25.12.08c.07-.09.2-.18.2-.27,0-.34-.06-.67-.09-1Z" transform="translate(-8.23 -4.13)"/><path class="cls-13" d="M51.87,101.84h-.95v-1.16Z" transform="translate(-8.23 -4.13)"/><path class="cls-15" d="M49.93,99.71c0,.33.08.66.09,1,0,.09-.13.18-.2.27l-.12-.08.15-1.25Z" transform="translate(-8.23 -4.13)"/><path class="cls-16" d="M20.91,95.69l.24,1.3L21,97l-.29-1.29Z" transform="translate(-8.23 -4.13)"/><path class="cls-12" d="M37.1,132.57v-7.9c.87,0,1.73,0,2.58,0a.94.94,0,0,1,.76,1,9.84,9.84,0,0,1,0,1.8,3.48,3.48,0,0,1-.43,1,1.27,1.27,0,0,1,.46,1.12c0,1,0,2,0,3H39.32v-2.89c0-.75-.2-.91-1-.82v3.71Zm1.21-4.76c.77.16,1,0,1-.73,0-.25,0-.5,0-.75,0-.74-.26-.92-1-.74Z" transform="translate(-8.23 -4.13)"/><path class="cls-12" d="M44.2,124.6c.67,0,1.32,0,2,0a1.41,1.41,0,0,1,1.44,1.54c.06,1.58.07,3.18,0,4.76-.06,1.22-.65,1.68-1.87,1.69H44.2Zm1.19,7c.78.09,1-.06,1-.79,0-1.49,0-3,0-4.49,0-.67-.28-.85-1-.77Z" transform="translate(-8.23 -4.13)"/><path class="cls-13" d="M21.48,132.56v-8h2.63v1H22.72V128h1.35v1H22.72v2.55h1.45v1Z" transform="translate(-8.23 -4.13)"/><path class="cls-13" d="M19.24,131.55h1.53v1H18.05v-7.95h1.19Z" transform="translate(-8.23 -4.13)"/><path class="cls-13" d="M42.89,132.58H41.73v-8h1.16Z" transform="translate(-8.23 -4.13)"/><path class="cls-13" d="M25.3,124.62h1.18v7.95H25.3Z" transform="translate(-8.23 -4.13)"/><path class="cls-13" d="M42.94,102v-1.71h-.06c-.09.45-.18.89-.28,1.33,0,.11-.14.19-.21.28-.08-.1-.21-.18-.24-.28-.12-.47-.2-.94-.36-1.41v1.67h-.37V98.93H42l.39,1.88h.07l.36-1.89h.55c0,.92,0,1.84,0,2.76C43.3,101.75,43.13,101.82,42.94,102Z" transform="translate(-8.23 -4.13)"/><path class="cls-17" d="M48,101.83h-.36c-.24-.41.17-1-.27-1.35l-.16,0v1.32h-.45v-2.9l.4,0c.76,0,1,.24.83,1a2.06,2.06,0,0,0,0,.82A8.12,8.12,0,0,1,48,101.83Zm-.65-2.59-.13.06v.82c.43,0,.36-.3.34-.52S47.39,99.36,47.32,99.24Z" transform="translate(-8.23 -4.13)"/><path class="cls-17" d="M45.92,103.78c0,.3,0,.64-.06,1a.55.55,0,0,1-.6.52.56.56,0,0,1-.63-.54c0-.64,0-1.29,0-1.93a.56.56,0,0,1,.63-.54.55.55,0,0,1,.61.55C45.9,103.13,45.9,103.44,45.92,103.78Zm-.86,0h0c0,.3,0,.59,0,.88,0,.08.13.16.19.23s.16-.15.16-.22c0-.59,0-1.17,0-1.76,0-.07-.11-.14-.17-.21s-.17.14-.18.21C45.05,103.17,45.06,103.46,45.06,103.75Z" transform="translate(-8.23 -4.13)"/><path class="cls-17" d="M51,105.24h-.42v-2.93l.38,0c.75,0,.94.14.83.87a7.67,7.67,0,0,0,0,1.36c0,.23,0,.46,0,.69-.34.11-.48,0-.46-.31a4.09,4.09,0,0,0,0-.7,1.44,1.44,0,0,0-.19-.37l-.17.06v1.35Zm0-2.57v.82c.38.05.35-.2.35-.41S51.39,102.61,51,102.67Z" transform="translate(-8.23 -4.13)"/><path class="cls-17" d="M47.52,105.22c-.27.08-.44,0-.42-.28a4.7,4.7,0,0,0,0-.75,1.17,1.17,0,0,0-.2-.36l-.15.06v1.34l-.43,0v-2.94l.36,0c.78,0,1,.31.84,1.06a1.46,1.46,0,0,0,0,.69A9.21,9.21,0,0,1,47.52,105.22Zm-.77-1.71c.48,0,.34-.37.33-.59s-.15-.2-.23-.3l-.1.08Z" transform="translate(-8.23 -4.13)"/><path class="cls-18" d="M21.61,124c-.36.11-.39-.07-.39-.32s0-.52-.07-.78h-.23c0,.3,0,.59,0,.88,0,.09-.11.16-.17.24s-.21-.13-.21-.21c0-.73,0-1.46,0-2.24H21c.47,0,.61.14.61.6s0,1,0,1.54C21.62,123.77,21.62,123.85,21.61,124Z" transform="translate(-8.23 -4.13)"/><path class="cls-17" d="M43.06,102.31c1-.07,1.2,0,1.24.62.07.85,0,1.09-.81,1.23v1.07h-.43Zm.45,1.38c.46,0,.37-.32.36-.54s.06-.53-.36-.48Z" transform="translate(-8.23 -4.13)"/><path class="cls-19" d="M49.66,102.74v.74c.2.08.6-.06.43.42l-.43.07v.82c.16.15.67-.11.49.45h-1v-3a4.82,4.82,0,0,1,.66,0,1.1,1.1,0,0,1,.32.17l-.31.25S49.74,102.73,49.66,102.74Z" transform="translate(-8.23 -4.13)"/><path class="cls-17" d="M44.2,100.73v1.1h-.43V99c.9-.15,1.19,0,1.25.58C45.09,100.43,45,100.7,44.2,100.73Zm0-.45.16.09c.08-.15.22-.29.22-.44a2.48,2.48,0,0,0-.15-.64c-.08.06-.21.13-.22.2A6.94,6.94,0,0,0,44.2,100.28Z" transform="translate(-8.23 -4.13)"/><path class="cls-18" d="M17.45,122.79c0,.25,0,.5,0,.75A.49.49,0,0,1,17,124c-.31,0-.54-.13-.56-.44a12.67,12.67,0,0,1,0-1.63c0-.32.26-.43.57-.42a.46.46,0,0,1,.48.46,7.12,7.12,0,0,1,0,.8Zm-.62,1a2,2,0,0,0,0-2A5.9,5.9,0,0,0,16.83,123.78Z" transform="translate(-8.23 -4.13)"/><path class="cls-14" d="M17.85,124v-2.45c.31,0,.69,0,.86.18s.08.53.1.81a1.05,1.05,0,0,0,0,.31C19.14,123.67,18.82,124.07,17.85,124Zm.37-.35.14.1a2,2,0,0,0,.18-.44c0-.2.06-.46-.32-.45Zm.16-1.81-.15,0v.65l.1.06c.07-.11.18-.22.18-.32A1.84,1.84,0,0,0,18.38,121.8Z" transform="translate(-8.23 -4.13)"/><path class="cls-13" d="M46.29,99.27l-.48.06v.78l.45.08c.16.47-.27.27-.45.4v.86l.49,0c.06.41,0,.44-.94.32V99C46.08,98.82,46.28,98.87,46.29,99.27Z" transform="translate(-8.23 -4.13)"/><path class="cls-19" d="M48.59,105.24H48.1v-2.06c0-.2.09-.46-.26-.51,0,0-.06-.21-.1-.36H49a3.81,3.81,0,0,0-.23.4.89.89,0,0,0-.14.37C48.58,103.78,48.59,104.48,48.59,105.24Z" transform="translate(-8.23 -4.13)"/><path class="cls-14" d="M19.41,121.57h.51l.37,2.37-.12.09-.27-.25c-.07-.07-.14-.2-.21-.2s-.15.12-.23.19-.17.18-.26.26l-.13-.08Zm.23.6c-.12,1-.12,1,.19,1,0-.23,0-.46-.09-.69A2,2,0,0,0,19.64,122.17Z" transform="translate(-8.23 -4.13)"/><path class="cls-17" d="M16.08,122.8c0,.23,0,.47,0,.7a.52.52,0,0,1-1,.09,13.29,13.29,0,0,1,0-1.67.44.44,0,0,1,.6-.37.8.8,0,0,1,.42.46A3,3,0,0,1,16.08,122.8Zm-.39-1h-.14a3.18,3.18,0,0,0-.12,1.72s.25,0,.25,0C15.69,123,15.69,122.42,15.69,121.85Z" transform="translate(-8.23 -4.13)"/><path class="cls-17" d="M48.44,98.93h.41v2.89h-.41Z" transform="translate(-8.23 -4.13)"/><path class="cls-17" d="M40.51,98.93h.4v2.89l-.4,0Z" transform="translate(-8.23 -4.13)"/><path class="cls-14" d="M14.32,123c0,.18,0,.46,0,.74,0,.08-.11.16-.17.24-.07-.09-.19-.17-.19-.26,0-.7,0-1.41,0-2.18a5.42,5.42,0,0,1,.57,0,1.1,1.1,0,0,1,.3.16l-.3.16a1.23,1.23,0,0,1-.16,0v.5l.4.27Z" transform="translate(-8.23 -4.13)"/><path class="cls-20" d="M43.79,107l.35-.2c.06.11.16.21.17.33a1.56,1.56,0,0,1,0,.61c0,.13-.17.23-.26.34a3.33,3.33,0,0,1-.24-.32,1.31,1.31,0,0,1-.09-.28l-.12,0-.16.57h-.12v-1.15l.41,0-.22.24.14.13Z" transform="translate(-8.23 -4.13)"/><path class="cls-21" d="M44.53,109.17l.1.41-.11,0c0-.08-.09-.16-.14-.24h-.13l-.47.34-.05-.58h-.06l-.1.48h-.1V108.4l.07,0,.15.52.12-.5h.11l.07.82h0l.13-.42c.06,0,.14.06.18.11A2.27,2.27,0,0,1,44.53,109.17Z" transform="translate(-8.23 -4.13)"/><path class="cls-22" d="M42.42,108.56l.12,1.11-.34,0,0-.69-.41.1-.11.52h-.13v-1.27l.27.48.08-.36.47.09Z" transform="translate(-8.23 -4.13)"/><path class="cls-20" d="M51.53,110.58c-.15.24-.27.6-.39.61-.39,0-.27-.38-.28-.61s-.11-.61.29-.6C51.27,110,51.38,110.33,51.53,110.58Z" transform="translate(-8.23 -4.13)"/><path class="cls-20" d="M47.31,109.89c.19.09.43.14.44.21a4.1,4.1,0,0,1,0,1c0,.06-.25.1-.43.16Z" transform="translate(-8.23 -4.13)"/><path class="cls-20" d="M47.3,109.69v-1.33c.16,0,.41.07.41.13a4,4,0,0,1,0,1C47.74,109.55,47.49,109.6,47.3,109.69Z" transform="translate(-8.23 -4.13)"/><path class="cls-21" d="M45.24,110.77l.42-.79h.06v.34c.47,0,.46.28.41.6,0,.1-.15.19-.23.29-.08-.09-.19-.17-.21-.28a2.57,2.57,0,0,1,0-.58l-.38.83h-.08l0-.42Z" transform="translate(-8.23 -4.13)"/><path class="cls-20" d="M43.18,109.54l-.26-.57-.09.63h-.09v-1.24l.26.3.24-.26v1.13Z" transform="translate(-8.23 -4.13)"/><path class="cls-23" d="M43.13,111a4.07,4.07,0,0,1,0-.72c0-.11.16-.2.24-.3.08.11.21.21.24.33a1.28,1.28,0,0,1,0,.55,1.31,1.31,0,0,1-.26.37Z" transform="translate(-8.23 -4.13)"/><path class="cls-20" d="M48.61,108l-.27-.47-.1.47h-.13V106.9l.51.06Z" transform="translate(-8.23 -4.13)"/><path class="cls-23" d="M47.47,108v-1.14c.42-.08.51,0,.48.35,0,.16,0,.31,0,.47S47.85,108.16,47.47,108Z" transform="translate(-8.23 -4.13)"/><path class="cls-20" d="M50.86,106.83c.35-.09.51,0,.48.39s0,.53,0,.79h-.12l-.1-.49h-.07l-.1.5h-.09Z" transform="translate(-8.23 -4.13)"/><path class="cls-20" d="M46.28,108.87l.06-.46h.09v1.29l-.29-.51-.08.4H46v-1.27Z" transform="translate(-8.23 -4.13)"/><path class="cls-20" d="M51.45,108.38l.22.19.19-.28v1.3l-.19-.15-.23.17Z" transform="translate(-8.23 -4.13)"/><path class="cls-21" d="M45.34,107.31a.36.36,0,0,1,.28.52c0,.1-.2.17-.31.25-.07-.09-.19-.18-.2-.28,0-.27,0-.55,0-.83l0,0,.07.06Zm0,.57h.06v-.35h-.06Z" transform="translate(-8.23 -4.13)"/><path class="cls-20" d="M50.08,109.58l.16-1.13c.45.33.29.78.47,1.26C50.45,109.51,50.29,109.25,50.08,109.58Z" transform="translate(-8.23 -4.13)"/><path class="cls-21" d="M49.41,108l.2-1.17h.16c-.11.37.6.63,0,1.09l-.1-.44-.15.55Z" transform="translate(-8.23 -4.13)"/><path class="cls-20" d="M45.24,109v.54c-.31.16-.5.1-.53-.27a1.29,1.29,0,0,1,0-.48,1.71,1.71,0,0,1,.26-.42l.26.43-.29-.23v.89h.11a1.45,1.45,0,0,1,0-.36S45.17,109,45.24,109Z" transform="translate(-8.23 -4.13)"/><path class="cls-20" d="M46.68,107.53l-.06.49-.11,0v-1.16a.29.29,0,0,1,.45.26C47,107.26,47.11,107.6,46.68,107.53Z" transform="translate(-8.23 -4.13)"/><path class="cls-21" d="M48.76,109.17l-.14.38c0-.44-.11-.87.38-1.2v1.24h-.07Z" transform="translate(-8.23 -4.13)"/><path class="cls-20" d="M48,110l.18.67.13-.67.14,0-.18,1.2H48.1l-.21-1.2Z" transform="translate(-8.23 -4.13)"/><path class="cls-18" d="M15.05,101.92l.7.87-.3.28A1.17,1.17,0,0,1,15.05,101.92Z" transform="translate(-8.23 -4.13)"/><path class="cls-20" d="M44.25,110.86l.26.19c-.07-.23-.12-.36-.16-.49a1.15,1.15,0,0,1-.15-.44c0-.08.2-.14.31-.21l.14.17-.19.06a4.9,4.9,0,0,1,.16.8c0,.09-.17.18-.26.27l-.2-.29Z" transform="translate(-8.23 -4.13)"/><path class="cls-23" d="M44.51,106.93l0,0a1.81,1.81,0,0,1,.35,0c0,.35,0,.7,0,1.06l-.36,0A.75.75,0,0,0,44.51,106.93Z" transform="translate(-8.23 -4.13)"/><path class="cls-20" d="M45.25,110.76c-.15,0-.4,0-.41-.09a2,2,0,0,1,0-.64.3.3,0,0,1,.23-.06.3.3,0,0,1,.15.18c0,.21,0,.41,0,.62Z" transform="translate(-8.23 -4.13)"/><path class="cls-23" d="M46.31,108c-.18-.16-.34-.31-.54,0l.19-.93C46.39,107.27,46.24,107.67,46.31,108Z" transform="translate(-8.23 -4.13)"/><path class="cls-20" d="M49.47,110.4c-.07-.05-.2-.12-.19-.16s.09-.23.17-.26.25.09.25.15a2.94,2.94,0,0,1-.1.58c0,.14,0,.28-.06.46-.26,0-.3,0-.2-.3s.11-.3.16-.45,0-.14,0-.21h-.08Z" transform="translate(-8.23 -4.13)"/><path class="cls-24" d="M40.9,109.44l-.51.21a1.82,1.82,0,0,1-.15-1.21h.12l.06,1.14.46-.51Z" transform="translate(-8.23 -4.13)"/><path class="cls-20" d="M51.08,109.08l-.2.54h-.1c0-.38,0-.76,0-1.14,0,0,.13-.06.2-.09,0,.23-.27.55.25.52v.17Z" transform="translate(-8.23 -4.13)"/><path class="cls-20" d="M48.76,106.87l.38-.06c-.29.22-.17.39-.06.63s0,.37-.1.61l-.21,0Z" transform="translate(-8.23 -4.13)"/><path class="cls-20" d="M50.56,106.79v1.26s-.24,0-.24-.06a9.73,9.73,0,0,1,0-1.08S50.49,106.82,50.56,106.79Z" transform="translate(-8.23 -4.13)"/><path class="cls-23" d="M41.29,108.44c0,.34.08.68.08,1a1.31,1.31,0,0,1-.39.08,2.62,2.62,0,0,0,.19-.46C41.23,108.87,41.25,108.65,41.29,108.44Z" transform="translate(-8.23 -4.13)"/><path class="cls-20" d="M51.51,111.18l.23-1.08h.07v1.11Z" transform="translate(-8.23 -4.13)"/><path class="cls-20" d="M41.29,108.44c0,.21-.06.43-.12.64a2.62,2.62,0,0,1-.19.46l-.08-.1,0-.36v-.17l0-.36.19-.16.19.06Z" transform="translate(-8.23 -4.13)"/><path class="cls-20" d="M51.67,108l-.22-1.1.43.16-.13,1Z" transform="translate(-8.23 -4.13)"/><path class="cls-23" d="M49.65,108.9l.11-.51h.12v1.28l-.11-.25Z" transform="translate(-8.23 -4.13)"/><path class="cls-20" d="M44.51,106.93a.75.75,0,0,1,0,1Z" transform="translate(-8.23 -4.13)"/><path class="cls-25" d="M49.65,108.9l.12.53-.43,0,0-.36.18-.11Z" transform="translate(-8.23 -4.13)"/><path class="cls-21" d="M35.63,121.42l-.13-1,.15,0,.14,1Z" transform="translate(-8.23 -4.13)"/><path class="cls-18" d="M49.5,109l-.18.11,0,.36,0,.13h0v-1.16l.11,0Z" transform="translate(-8.23 -4.13)"/><path class="cls-15" d="M51.25,109.08v-.17l0-.45.19-.08c0,.41,0,.82,0,1.23h-.17Z" transform="translate(-8.23 -4.13)"/><path class="cls-15" d="M48.76,106.87V108h-.16V107Z" transform="translate(-8.23 -4.13)"/><path class="cls-15" d="M45.24,109c-.07,0-.2,0-.2.09a1.45,1.45,0,0,0,0,.36H45v-.89l.29.23Z" transform="translate(-8.23 -4.13)"/><path class="cls-22" d="M35.34,103.5l-.08,0-.13,0-.05-.61.42.21Z" transform="translate(-8.23 -4.13)"/><path class="cls-21" d="M51.26,108.46l0,.45c-.52,0-.29-.29-.25-.52Z" transform="translate(-8.23 -4.13)"/><path class="cls-20" d="M44.53,109.17a2.27,2.27,0,0,0-.18-.25s-.12-.07-.18-.11l.07-.43h.16Z" transform="translate(-8.23 -4.13)"/><path class="cls-24" d="M40.9,108.55l0,.36-.33-.41.09-.06Z" transform="translate(-8.23 -4.13)"/><path class="cls-18" d="M15.87,103.72l.25-.15L16,104Z" transform="translate(-8.23 -4.13)"/><path class="cls-21" d="M51.25,109.08l0,.54-.19-.54Z" transform="translate(-8.23 -4.13)"/><path class="cls-21" d="M47,110.44l0,.35h-.08l0-.35Z" transform="translate(-8.23 -4.13)"/><path class="cls-25" d="M46.61,111l.34,0V111l-.34.07Z" transform="translate(-8.23 -4.13)"/><path class="cls-25" d="M45.34,107.31l-.12-.3Z" transform="translate(-8.23 -4.13)"/><path class="cls-23" d="M41.28,108.45l-.19-.06Z" transform="translate(-8.23 -4.13)"/><path class="cls-22" d="M42.41,108.55l.1-.07,0,0-.11,0Z" transform="translate(-8.23 -4.13)"/><path class="cls-20" d="M44.25,109.38h0Z" transform="translate(-8.23 -4.13)"/><path class="cls-26" d="M33.64,121.16l0,.1c0,.29,0,.58.07.87,0,0,.11,0,.17,0l.33,1s0,0,0,.07l.05-.06.15.41c-.24.18-.24.36,0,.53a1.89,1.89,0,0,0,.27,1.31,1.3,1.3,0,0,1,.11.46l-.55.19-.52.09-.69.26-.39.16-.29-.84.25.05h.07l.26.27,0,0,0,0,.09-.18h.18l0,0,0,0a.35.35,0,0,0-.36-.44v-.08l.08-.39,0-.16h.38c.08.3.15.59.23.88,0,.07.11.12.18.17s.11-.07.11-.1a5,5,0,0,0-.13-.79c0-.08-.19-.11-.29-.16l.15-.79-.52.12-.35.06-.08-.36.71-.28-.09-.24c0-.29,0-.61-.45-.63h0l-.27-.36-.08-.08c-.34-.06-.63-.17-.71-.56v0l-.07-1.17-.29-.17-.08-.35-.18-.26.26-.17.09.34,0,.12,0,0-.07-.09v-.34l.43-.11h.46l.81-.07c-.13-.52-.37-.77-.82-.79l0-.07v-.13l-.06.09-.27,0c.09-.32.19-.64.25-1,0-.16,0-.41-.09-.48s-.33,0-.5,0h0l-.5-.09-.55-1c.41-.27,0-.48,0-.71l-.24.18,0-.45a2.79,2.79,0,0,0-.57-2c-.22-.29-.36-.56,0-.82l-.2-.39-.05.09c-.09,0-.24-.09-.24-.13,0-.41-.25-.43-.54-.42l.11-.18c.43,0,.87-.09,1.31-.09a1.91,1.91,0,0,1,1.78,1.13c.55,1.2,1,2.44,1.5,3.66a3,3,0,0,1,.14,2,4.26,4.26,0,0,0,.08,3.32l-.06,0Zm-2.36-5.81.08.1c.26.16,0,.74.56.68l-.19-.59.32-.07a2.9,2.9,0,0,0-.07-.38c-.07-.19-.16-.37-.24-.55-.22.19-.34,0-.57-.23l.18.77-.09.1-.22-.1c0,.28,0,.28.24.27Zm-.54-3-.11-.09a2.63,2.63,0,0,0-.59-1.12l-.12.07.47,1.13.24.91.2-.13.19.29-.28.21,0,.11.65,0v-.66l-.57,0-.1-.71.05,0h0S30.75,112.34,30.74,112.36Zm1.86,8.21.21.2c.12.57.24,1.13.38,1.69,0,0,.17,0,.31,0-.12-.4-.22-.74-.35-1.09s-.19-.43-.29-.65v-.15c0-.74-.18-1-.53-.94,0,.15.11.29.15.44A4,4,0,0,1,32.6,120.57Zm-1.93-5.72-.14.07.22.37.09,0Zm3.14,9.49.1-.06-.14-.32-.12.06Zm-2.55-8.47.11-.1-.2-.17-.06.06ZM31.11,114l.05-.1-.25-.06,0,.06Zm.88,6.44-.1,0,.11.21.06,0Zm2.17,5s-.06,0-.07,0,0,0,0,.07l.07,0S34.15,125.44,34.16,125.42Zm-2.39-5.55s0-.05,0-.05,0,0-.06,0l0,.08Zm2.3,5.22,0,0,0,0a.15.15,0,0,0,0,.07Z" transform="translate(-8.23 -4.13)"/><path class="cls-27" d="M33.41,115.82c-.49-1.22-.95-2.46-1.5-3.66A1.91,1.91,0,0,0,30.13,111c-.44,0-.88.06-1.31.09-.22-.16-.3-.08-.3.16h-.06l-.48-.6-.32.41a.3.3,0,0,0-.43-.26c-.24.16-.28,0-.41-.11s-.23,0-.35,0a1,1,0,0,0,0,.39c0,.07.17.1.26.14a.56.56,0,0,0-.24.64l-.45.18-.1-.49-.17-.07h0c.14-.23,0-.29-.19-.36v-.24l.29-.72a5,5,0,0,0,.56-.82c.06-.13-.08-.37-.17-.53s-.2,0-.31,0h0l-.12-.22c.27-.07.56-.24.8-.18a12.1,12.1,0,0,1,1.58.59c.39.16.79.32,1.17.5s.48.25.72.38a1.35,1.35,0,0,0,.15.32c.08.07.22.07.3.14.53.38.64.35.81-.28h.15s0,0,0,0h0l.48-.66.2,0,.3.59a1.08,1.08,0,0,0,.9.84,1.08,1.08,0,0,1,.89,1.06l-.16.42-.53-1-.37.2,0,0h.06a1.53,1.53,0,0,1,.26.31,4,4,0,0,1,.2.48c-.45-.13-.57,0-.46.46l-.13.17.12,0v-.21c.33,0,.38.2.22.42l.29.34.29.31.27.44C34.66,115.19,33.9,115.42,33.41,115.82Zm.72-1.62-.2-.06-.36.52L34,115Zm-6.91-4.55-.13.14.28.54h.14c0-.14.17-.32.12-.41S27.36,109.74,27.22,109.65Zm5.53.9,0,0s0,0,0,0,0,0,0,0Z" transform="translate(-8.23 -4.13)"/><path class="cls-28" d="M26.86,104.84c.1-.49.19-1,.31-1.48.2-.86.61-1.26,1.34-1.34a.4.4,0,0,1,.46.2,3.33,3.33,0,0,0,.71.63,2,2,0,0,1,.61.65,1.36,1.36,0,0,0,1.7.64h0l.07.09,0,.88-.22-.12c.18-.41-.14-.35-.35-.41a1.73,1.73,0,0,0-.52-.13c-.32,0-.73-.21-.9.24a1,1,0,0,1,.1.5c0,.23,0,.32.24.4a4,4,0,0,1,1.28.69l.23.19c0-.24.09-.43.11-.61a1,1,0,0,0,0-.3c.09,0,.26.1.25.14,0,.33-.09.66-.15,1l.25.08.53.35v.08l-.09.27h-.08V108l-.19.17h-.09l0-.37-.32,0-.09-.53.17-.36-.12,0-.15.24c-.35-.21-.7-.41-1-.63s-.39-.3-.61-.42-.39-.14-.57-.23a1.66,1.66,0,0,1-.8-1.17,0,0,0,0,0,0-.06h0l0-.13c0-.1,0-.21,0-.31,0-.76,0-.83-.85-.8l.42.67,0,.26-.73-.87-.13.09.69.87a.13.13,0,0,1,0,.06l.14.45-.09.19-.25,0-.27.13.27.19h.08l.09,0v.65l1.21.31-1.13,1.49c-.32-.44-1.1,0-1.35-.59l-.6-.08.37-.32.18-.13h0c.09-.11.28-.26.26-.33s-.16-.5-.51-.4l-.18-.68C26.88,105.29,26.87,105.07,26.86,104.84Zm5.64,2.64-.06,0-.08.15.07,0A1,1,0,0,0,32.5,107.48Zm.07-.23v0h0a.1.1,0,0,0,0,0S32.56,107.25,32.57,107.25Z" transform="translate(-8.23 -4.13)"/><path class="cls-29" d="M32.37,125.75a1.9,1.9,0,0,1-.28-.29c-.47-1-.93-2-1.38-2.95a5.23,5.23,0,0,1-.4-1.15,1.84,1.84,0,0,0-1-1.28,4.14,4.14,0,0,1-.46-.39,2.11,2.11,0,0,1,.26,0c.17,0,.33.06.5.09l0-.13-.4-.57-.07.29c-.09-.24-.16-.46-.26-.67a2.8,2.8,0,0,0-.25-.35s.12-.1.11-.11-.2-.3-.3-.45l-.34.2-.26-.62h0l-.29-.09-.06.12.53,1.12.18,0,.18.07c-.16.31.08.49.23.71a2.33,2.33,0,0,1,.2.34,3,3,0,0,1-1.38-1.93c-.4-1.07-.73-2.18-1.09-3.28,0-.12-.06-.25-.09-.38h0l.14,0,.79,2.26.12,0c-.08-.31-.15-.62-.24-.92-.16-.53-.33-1.05-.49-1.58l.53-1,.45-.46c.1.26.18.53.29.79,0,.08,0,.35.24.12v.26l-.36.06.44.2h0l.17.37v.07c-.29.28.1.33.15.49s-.3.52.21.58l0,.69.26.27h0l0,.24c-.05.1-.16.21-.14.28.17.51.36,1,.58,1.65l.3-.39h.35c-.19.19-.48.35-.2.76l.62-.67.28-.35H31l.24-.14,0-.23.19.1v-.11l-.2,0-.07-.18.42-.27h0c.12.22.27.43,0,.65-.07,0-.05.21-.07.32l-.21,0v.07l.27.07v.17h-.39A1.28,1.28,0,0,0,30,119.88v.23l-.06.16.16,0h0l.18-.09h0l.09-.09h.17a3.16,3.16,0,0,0,.09.76c.21.55.47,1.09.7,1.63a2.65,2.65,0,0,0,.89,1.71,5.63,5.63,0,0,0,.07.65,1.78,1.78,0,0,0,.14.36l-.21,0Zm-.28-.82h0v-.13h0Z" transform="translate(-8.23 -4.13)"/><path class="cls-30" d="M26.86,104.84c0,.23,0,.45-.26.54s-.47-.14-.46.24c-.37-.06-.75.27-.69.58a4.11,4.11,0,0,1,0,.61l.67.63a4.5,4.5,0,0,0-.55.22,1.16,1.16,0,0,0-.29.25c-.16.18-.3.38-.45.56l-.49-.68-.07,0,1,3-.06,0c-.08-.13-.17-.26-.24-.4-.28-.58-.54-1.16-.81-1.74s-.41-1-.6-1.43a4.18,4.18,0,0,1-.1-.51h0l.34.54.06.2.06,0-.1-.19.49-1A4.52,4.52,0,0,1,26.86,104.84Z" transform="translate(-8.23 -4.13)"/><path class="cls-27" d="M24.68,113.86l-.1-1.5.29,0,.39-.76.12.21.14-.22.27-.17h0v.78l-.1.61-.28.17-.33,0,.21-.24-.44-.15-.1.09.5.54c-.12.44.21.36.44.38l.28.15.43.19-.07.15h0c-.6.31-1.11,0-1.63-.25Z" transform="translate(-8.23 -4.13)"/><path class="cls-14" d="M32.42,106.79l-.25-.08c.06-.36.12-.69.15-1,0,0-.16-.09-.25-.14l.16-.41-.09,0,0-.88h.1l.92.74c0,.17,0,.33,0,.49s0,.42,0,.63.17.66-.27.8Z" transform="translate(-8.23 -4.13)"/><path class="cls-24" d="M29.42,97.41a1.38,1.38,0,0,0,.64,1,1.49,1.49,0,0,1,.51.66l-.52.78-.34-.13v-.16l.1-.06-.12,0a4.9,4.9,0,0,1-.62-.89,1,1,0,0,1,.36-1.13Z" transform="translate(-8.23 -4.13)"/><path class="cls-22" d="M32.51,108.82a2.08,2.08,0,0,1,.66.27c.17.14.24.37.52.21a.6.6,0,0,0,.38-.67c0-.14-.07-.27-.14-.49a.69.69,0,0,1,.4.68c0,.27,0,.55,0,.81s0,.37-.25.46a.86.86,0,0,1-1.08-.45c0-.07-.08-.14-.18-.32l-.07.45-.28-.77Z" transform="translate(-8.23 -4.13)"/><path class="cls-31" d="M33.14,106.08c0-.21,0-.42,0-.63s0-.32,0-.49l0-.32.6.3h0l.09.09h0v.17s-.09.12-.08.15c.13.33.39.62.29,1l.23.06a3,3,0,0,0-.2.34,1.37,1.37,0,0,0-.07.29l-.08.3-.19,0A1.58,1.58,0,0,0,33.14,106.08Z" transform="translate(-8.23 -4.13)"/><path class="cls-15" d="M33.93,107.35l.08-.3c.42-.36.66-.37,1,0l0-.23.2.27c.05.07.06.18.12.21s.14,0,.21-.07c0,1,0,1.19-.41,1.35a9,9,0,0,1-.43-.81,1.24,1.24,0,0,1,0-.39l.14,0v-.06l-.18,0Z" transform="translate(-8.23 -4.13)"/><path class="cls-32" d="M34.26,126.07l.55-.19a1.56,1.56,0,0,1,.19,1.23l-.1.1,0,0v0l0,0-.43.08a.24.24,0,0,1,0-.08l-.09-.26-.26-.08c0-.22-.05-.5.33-.51Zm.5.91s0,0,0,0,0,0,0,0l0,0Z" transform="translate(-8.23 -4.13)"/><path class="cls-24" d="M33.14,106.08a1.58,1.58,0,0,1,.6,1.29c-.28,0-.36.16-.36.4h-.33l-.27-.27h.08l.09-.27v-.08l-.08-.26C33.31,106.74,33.13,106.38,33.14,106.08Z" transform="translate(-8.23 -4.13)"/><path class="cls-23" d="M34.28,106.42l-.23-.06c.1-.4-.16-.69-.29-1,0,0,.05-.1.08-.15l.12-.11-.13-.06h0l-.09-.09h0c.06-.32,0-.53-.47-.49l.34-.43c.27.26.58.43.44.85,0,0,.11.15.17.22l.42.61-.45-.4-.17,0h0l.05.21Z" transform="translate(-8.23 -4.13)"/><path class="cls-22" d="M34.05,105.34h0l.17,0,.45.4c.11.36.23.72.35,1.08l0,.23c-.3-.33-.54-.32-1,0a1.37,1.37,0,0,1,.07-.29,3,3,0,0,1,.2-.34l-.18-.87Z" transform="translate(-8.23 -4.13)"/><path class="cls-31" d="M33.31,112.8c-.11-.48,0-.59.46-.46l.16.19,0,.17.05.18c.06.21.11.42.16.63l-.08.35-.29-.31-.29-.34c.16-.22.11-.38-.22-.42Z" transform="translate(-8.23 -4.13)"/><path class="cls-20" d="M32.51,108.82c0,.06,0,.12,0,.18h0l-.47.19h0l-.17,0-.11-.12a.48.48,0,0,0-.08-.61c.23-.08.48-.15.53-.45l.36.17h.09Z" transform="translate(-8.23 -4.13)"/><path class="cls-21" d="M31.53,101.31v-.09l.38-.22-.19-.23.28,0v-.06h-.37l.2-.46c.32.24.79.33.68.91l-.17-.27-.11-.14-.06.15h0c-.3.29-.09.38.18.44-.16.43-.42.5-.73.18Z" transform="translate(-8.23 -4.13)"/><path class="cls-24" d="M23.51,113.32a3.65,3.65,0,0,1,.07-.46c.06-.25.17-.48.23-.73s.21-.47.58-.24l-.3.9Z" transform="translate(-8.23 -4.13)"/><path class="cls-32" d="M32.66,126.58l.39-.16.45.87v.1l-.35.11-.12.15H32.8c0-.16-.09-.31-.14-.47S32.36,126.78,32.66,126.58Z" transform="translate(-8.23 -4.13)"/><path class="cls-33" d="M34.9,127.21l.1-.1a1,1,0,0,1,.23.23c0,.07.06.22,0,.25a5.08,5.08,0,0,1-.61.42l0,0v-.17l-.45.13-.14-.17.1-.11c.12,0,0-.39.26-.13l.1-.22.43-.08Z" transform="translate(-8.23 -4.13)"/><path class="cls-24" d="M24.19,108.72c.27.58.53,1.16.81,1.74.07.14.16.27.24.4a1.41,1.41,0,0,1,0,.2c-.1,0-.28,0-.31-.08-.27-.66-.53-1.33-.79-2C24.13,108.9,24.18,108.81,24.19,108.72Z" transform="translate(-8.23 -4.13)"/><path class="cls-34" d="M34,127.75l.14.17c0,.19,0,.29-.22.33-.75.14-.92.06-1.13-.6h.51v.1l.08.23.27-.23.25,0Z" transform="translate(-8.23 -4.13)"/><path class="cls-20" d="M23.51,113.32l.58-.53c0,.13.07.26.11.4s.1.31.13.47-.08.07-.13.11l-.3-.22-.3.51,0-.41-.23,0Z" transform="translate(-8.23 -4.13)"/><path class="cls-21" d="M23.33,113.68l.23,0,0,.41.3-.51.3.22c-.09.35-.14.74-.68.76Z" transform="translate(-8.23 -4.13)"/><path class="cls-23" d="M33.93,112.53l-.16-.19a4,4,0,0,0-.2-.48,1.53,1.53,0,0,0-.26-.31h0l.37-.2.53,1,.17.12-.09.26h0Z" transform="translate(-8.23 -4.13)"/><path class="cls-16" d="M25.79,111.47l-.27.17h-.26l-.39.76-.29,0c.14-.29.26-.59.42-.87,0-.06.17-.07.26-.11l.06.12s.06,0,.06,0a.31.31,0,0,0-.05-.1l0-.08a2.09,2.09,0,0,0,.14-.17h.1C25.75,111.18,25.93,111.24,25.79,111.47Z" transform="translate(-8.23 -4.13)"/><path class="cls-23" d="M31.71,100.77l.19.23-.38.22-.59-.26,0,0v-.16l0,0,.68-.07h.09Z" transform="translate(-8.23 -4.13)"/><path class="cls-34" d="M32.37,125.75l-.13-.63.21,0h.11l.3.2v.08l.18.44-.09.18h0l-.26-.27h-.07l-.25-.05Z" transform="translate(-8.23 -4.13)"/><path class="cls-16" d="M33.14,104.64l0,.32-.92-.74C32.65,104.05,32.82,104.13,33.14,104.64Z" transform="translate(-8.23 -4.13)"/><path class="cls-23" d="M32.45,109h0c.09.26.18.51.28.77l0,.18,0,0-.19,0-.3-.59Z" transform="translate(-8.23 -4.13)"/><path class="cls-23" d="M30.93,101l.1.49-.19.14-.7-.19v-.1l.77-.36Z" transform="translate(-8.23 -4.13)"/><path class="cls-23" d="M34.1,113.86l.08-.35a.78.78,0,0,1,.41,1l-.22-.17Z" transform="translate(-8.23 -4.13)"/><path class="cls-15" d="M31,101.85l.71.2-.17.49-.55-.6Z" transform="translate(-8.23 -4.13)"/><path class="cls-25" d="M34.65,112.27l.17-.72c.4.11.21.47.24.72Z" transform="translate(-8.23 -4.13)"/><path class="cls-25" d="M28.37,121a2.77,2.77,0,0,1-.19.25l-.58-.8,0,0Z" transform="translate(-8.23 -4.13)"/><path class="cls-25" d="M30.14,101.3v.1l-.1.26-.45-.3L30,101Z" transform="translate(-8.23 -4.13)"/><path class="cls-16" d="M34.65,112.27h.41c-.14.4-.46.13-.69.18l-.17-.12c0-.14.1-.28.16-.42Z" transform="translate(-8.23 -4.13)"/><path class="cls-16" d="M29.71,99.7l.34.13-.2.6h-.09Z" transform="translate(-8.23 -4.13)"/><path class="cls-29" d="M33.91,122.17c-.06,0-.17,0-.17,0,0-.29-.05-.58-.07-.87Z" transform="translate(-8.23 -4.13)"/><path class="cls-23" d="M30.91,100.78l-.34-.14a2.16,2.16,0,0,1,.1-.25,1.52,1.52,0,0,1,.21-.19c0,.23,0,.39.06.55Z" transform="translate(-8.23 -4.13)"/><path class="cls-15" d="M32.78,107.49l.27.27-.26.27Z" transform="translate(-8.23 -4.13)"/><path class="cls-29" d="M34.43,124.11c-.24-.17-.24-.35,0-.53Z" transform="translate(-8.23 -4.13)"/><path class="cls-23" d="M32.34,101.31c-.27-.06-.48-.15-.18-.44l.17.34v.09Z" transform="translate(-8.23 -4.13)"/><path class="cls-22" d="M35.24,103.6v.62h0l-.11-.62Z" transform="translate(-8.23 -4.13)"/><path class="cls-23" d="M34.29,113.24l0-.36h.12l0,.36Z" transform="translate(-8.23 -4.13)"/><path class="cls-25" d="M28.33,121.26l.19.21-.07.07-.19-.22Z" transform="translate(-8.23 -4.13)"/><path class="cls-30" d="M25.5,111.11l-.14.17-.11-.22v-.2l.06,0Z" transform="translate(-8.23 -4.13)"/><path class="cls-18" d="M15.86,103.4l-.16-.3.08,0,.16.28Z" transform="translate(-8.23 -4.13)"/><path class="cls-23" d="M34,112.88,34,112.7h.31Z" transform="translate(-8.23 -4.13)"/><path class="cls-24" d="M29.42,97.42l.08-.2.05,0-.13.15Z" transform="translate(-8.23 -4.13)"/><path class="cls-23" d="M32.16,100.87l.06-.15.11.14Z" transform="translate(-8.23 -4.13)"/><path class="cls-16" d="M32,104.13h0l.08-.13,0,0Z" transform="translate(-8.23 -4.13)"/><path class="cls-33" d="M34.64,128l-.17.08,0-.05.16-.08Z" transform="translate(-8.23 -4.13)"/><path class="cls-24" d="M25.33,111.36a.31.31,0,0,1,.05.1s0,0-.06,0l-.06-.12A.08.08,0,0,1,25.33,111.36Z" transform="translate(-8.23 -4.13)"/><path class="cls-11" d="M34.93,121v-.18h0V121Z" transform="translate(-8.23 -4.13)"/><path class="cls-20" d="M24.69,113.86l-.21.07v-.05l.21,0Z" transform="translate(-8.23 -4.13)"/><path class="cls-23" d="M31.53,101.31l.08.18Z" transform="translate(-8.23 -4.13)"/><path class="cls-30" d="M23.49,106.78s0,0,0,0,0,0,0,0Z" transform="translate(-8.23 -4.13)"/><path class="cls-16" d="M29.68,99.44l.12,0-.1.06Z" transform="translate(-8.23 -4.13)"/><path class="cls-18" d="M16.58,104.3l0,0,0,0,0,0Z" transform="translate(-8.23 -4.13)"/><path class="cls-23" d="M32.79,110l.06.11,0,0-.06-.11Z" transform="translate(-8.23 -4.13)"/><polygon class="cls-25" points="21.7 97.66 21.67 97.67 21.67 97.65 21.7 97.66"/><polygon class="cls-23" points="23.18 97.29 23.19 97.32 23.16 97.31 23.18 97.29"/><path class="cls-11" d="M35.24,103.6h-.1v-.1l.13,0A.19.19,0,0,0,35.24,103.6Z" transform="translate(-8.23 -4.13)"/><path class="cls-21" d="M32.34,101.3v0Z" transform="translate(-8.23 -4.13)"/><polygon class="cls-24" points="25.15 103.64 25.17 103.64 25.16 103.64 25.15 103.64"/><path class="cls-29" d="M34.28,123.17l-.05.06s0,0,0-.07Z" transform="translate(-8.23 -4.13)"/><path class="cls-22" d="M35.25,104.22l0,0h0l0,0Z" transform="translate(-8.23 -4.13)"/><path class="cls-11" d="M35.83,111.69v-.11l.05,0Z" transform="translate(-8.23 -4.13)"/><path class="cls-29" d="M33.64,121.16l-.07,0,.06,0A.09.09,0,0,1,33.64,121.16Z" transform="translate(-8.23 -4.13)"/><path class="cls-24" d="M38.31,127.81v-2.22c.75-.18,1,0,1,.74,0,.25,0,.5,0,.75C39.28,127.82,39.08,128,38.31,127.81Z" transform="translate(-8.23 -4.13)"/><path class="cls-28" d="M45.39,131.61v-6.05c.72-.08,1,.1,1,.77,0,1.5,0,3,0,4.49C46.39,131.55,46.17,131.7,45.39,131.61Z" transform="translate(-8.23 -4.13)"/><path class="cls-15" d="M47.32,99.24c.07.12.2.23.21.36s.09.52-.34.52V99.3Z" transform="translate(-8.23 -4.13)"/><path class="cls-28" d="M45.06,103.75c0-.29,0-.58,0-.87,0-.07.12-.14.18-.21s.17.14.17.21c0,.59,0,1.17,0,1.76,0,.07-.1.15-.16.22s-.18-.15-.19-.23c0-.29,0-.58,0-.88Z" transform="translate(-8.23 -4.13)"/><path class="cls-24" d="M51,102.67c.38-.06.35.2.35.41s0,.46-.35.41Z" transform="translate(-8.23 -4.13)"/><path class="cls-24" d="M46.75,103.51v-.81l.1-.08c.08.1.23.2.23.3S47.23,103.48,46.75,103.51Z" transform="translate(-8.23 -4.13)"/><path class="cls-15" d="M43.51,103.69v-1c.42,0,.36.28.36.48S44,103.71,43.51,103.69Z" transform="translate(-8.23 -4.13)"/><path class="cls-15" d="M44.2,100.28a6.94,6.94,0,0,1,0-.79c0-.07.14-.14.22-.2a2.48,2.48,0,0,1,.15.64c0,.15-.14.29-.22.44Z" transform="translate(-8.23 -4.13)"/><path class="cls-15" d="M16.83,123.78a5.9,5.9,0,0,1,0-2A2,2,0,0,1,16.83,123.78Z" transform="translate(-8.23 -4.13)"/><path class="cls-15" d="M18.22,123.61v-.79c.38,0,.34.25.32.45a2,2,0,0,1-.18.44Z" transform="translate(-8.23 -4.13)"/><path class="cls-22" d="M18.38,121.8a1.84,1.84,0,0,1,.13.44c0,.1-.11.21-.18.32l-.1-.06v-.65Z" transform="translate(-8.23 -4.13)"/><path class="cls-22" d="M19.64,122.17a2,2,0,0,1,.1.31c0,.23.06.46.09.69C19.52,123.22,19.52,123.22,19.64,122.17Z" transform="translate(-8.23 -4.13)"/><path class="cls-15" d="M15.69,121.85c0,.57,0,1.15,0,1.72,0,0-.22,0-.25,0a3.18,3.18,0,0,1,.12-1.72Z" transform="translate(-8.23 -4.13)"/><path class="cls-11" d="M43.79,107l-.15.31-.14-.13.22-.24Z" transform="translate(-8.23 -4.13)"/><path class="cls-27" d="M45.35,107.88v-.35h.06v.35Z" transform="translate(-8.23 -4.13)"/><path class="cls-11" d="M49.47,110.4v-.2h.08c0,.07,0,.14,0,.21Z" transform="translate(-8.23 -4.13)"/><path class="cls-35" d="M28.18,113.6v-.26c-.06-.42.25-.72.35-1.08h0l.08-.18v-.18l-.34.19h-.1l0-.34h0l.18-.09h0l.1-.09h0l.27-.27h0c.29,0,.56,0,.54.42,0,0,.15.09.24.13l.05-.09.2.39c-.38.26-.24.53,0,.82a2.79,2.79,0,0,1,.57,2l-1.05-.14,0-.34a3.14,3.14,0,0,1-.39,0l-.45-.17v-.07l.19-.11.19.16,0-.11-.23,0-.36-.26h0Z" transform="translate(-8.23 -4.13)"/><path class="cls-33" d="M31.35,122.44c-.23-.54-.49-1.08-.7-1.63a3.16,3.16,0,0,1-.09-.76.28.28,0,0,0,0-.09h0a0,0,0,0,1,0,0l-.06,0-.17.09h0l-.09.09h0l-.18.09h0l-.1-.12v-.23l.75-.14h0l.3,0,.18.26.08.35.29.17.07,1.17-.15,0v0l.15,0c.08.39.37.5.71.56l.08.08.27.36,0,0s0,0,0,0l0,0c.42,0,.42.34.45.63l-.17.14.26.1-.71.28c-.27-.42-.56-.83-.79-1.27C31.68,122.33,31.58,122.27,31.35,122.44Z" transform="translate(-8.23 -4.13)"/><path class="cls-13" d="M31.1,119.7l-.3,0a.25.25,0,0,0,0-.07v.08l-.75.14a1.28,1.28,0,0,1,1.18-1.51h.39l.37.1.27,0a.08.08,0,0,0,.07,0l0,.07.31.5-.4.27-.36.1-.43.11h-.09Z" transform="translate(-8.23 -4.13)"/><path class="cls-17" d="M31.35,122.44c.23-.17.33-.11.46.14.23.44.52.85.79,1.27l.08.36.24.6,0,.16-.38.19h-.11a1.78,1.78,0,0,1-.14-.36,5.63,5.63,0,0,1-.07-.65A2.65,2.65,0,0,1,31.35,122.44Z" transform="translate(-8.23 -4.13)"/><path class="cls-36" d="M28.43,114.3l.45.17a3.14,3.14,0,0,0,.39,0l0,.34,1.05.14,0,.45h0l-.32-.15c-.13.08-.18.49-.36.07l.14-.11,0,0-.11.13a1.12,1.12,0,0,1-.31-.1c-.21-.13-.37-.11-.49.11-.51-.06-.16-.38-.21-.58S28.14,114.58,28.43,114.3Z" transform="translate(-8.23 -4.13)"/><path class="cls-37" d="M34.47,127.29l-.1.22c-.23-.26-.14.15-.26.13l-.37-.35H33.5l-.45-.87.69-.26-.34.87.7-.16.26.08.09.26A.24.24,0,0,0,34.47,127.29Z" transform="translate(-8.23 -4.13)"/><path class="cls-37" d="M32,118.46l-.37-.1v-.17l-.06-.18c0-.11,0-.27.07-.32.29-.22.14-.43,0-.65.17,0,.39-.09.5,0s.11.32.09.48C32.16,117.82,32.06,118.14,32,118.46Z" transform="translate(-8.23 -4.13)"/><path class="cls-35" d="M30.57,116c.18.32.37.64.55,1l0,.09-.52-.17.26-.13,0-.09-.29.13-.35.17a.28.28,0,0,1,0-.09h0v-.14h0c.07-.19.12-.38.2-.56A.82.82,0,0,1,30.57,116Z" transform="translate(-8.23 -4.13)"/><path class="cls-36" d="M34.1,126.87l-.7.16.34-.87.52-.09.17.29C34.05,126.37,34.12,126.65,34.1,126.87Z" transform="translate(-8.23 -4.13)"/><path class="cls-37" d="M32.86,120.75c.1.22.21.43.29.65s.23.69.35,1.09c-.14,0-.31,0-.31,0-.14-.56-.26-1.12-.38-1.69h0Z" transform="translate(-8.23 -4.13)"/><path class="cls-34" d="M31.35,115.08l-.18-.77c.23.2.35.42.57.23.08.18.17.36.24.55a2.9,2.9,0,0,1,.07.38l-.32.07a3.75,3.75,0,0,0-.16-.43S31.43,115.09,31.35,115.08Z" transform="translate(-8.23 -4.13)"/><path class="cls-38" d="M32.24,119.32l.4-.27-.31-.5c.45,0,.69.27.82.79l-.81.07Z" transform="translate(-8.23 -4.13)"/><path class="cls-32" d="M30.84,113.06l.57,0v.66l-.65,0,0-.11.28-.21-.19-.29A.09.09,0,0,1,30.84,113.06Z" transform="translate(-8.23 -4.13)"/><path class="cls-32" d="M30.57,116a.82.82,0,0,0-.25.19c-.08.18-.13.37-.2.56l-.07-.3.19-.81.06-.1,0-.08h0l.24-.18C30.54,115.5,31,115.71,30.57,116Z" transform="translate(-8.23 -4.13)"/><path class="cls-36" d="M31.35,115.08c.08,0,.2,0,.22,0a3.75,3.75,0,0,1,.16.43l.19.59c-.56.06-.3-.52-.56-.68l-.08-.1h0l0-.17Z" transform="translate(-8.23 -4.13)"/><path class="cls-33" d="M33,124.15l.52-.12-.15.79h-.27Z" transform="translate(-8.23 -4.13)"/><path class="cls-35" d="M30.39,112.35l-.47-1.13.12-.07a2.63,2.63,0,0,1,.59,1.12Z" transform="translate(-8.23 -4.13)"/><path class="cls-37" d="M32.6,120.57a4,4,0,0,0-.11-.47c0-.15-.1-.29-.15-.44.35-.1.5.2.53.94Z" transform="translate(-8.23 -4.13)"/><path class="cls-36" d="M33.3,124.82h.1c.1.05.27.08.29.16a5,5,0,0,1,.13.79s-.1.1-.11.1-.16-.1-.18-.17C33.45,125.41,33.38,125.12,33.3,124.82Z" transform="translate(-8.23 -4.13)"/><path class="cls-36" d="M30.39,112.35l.24-.08.11.09h0l.1.71a.09.09,0,0,0,0,.07l-.2.13Z" transform="translate(-8.23 -4.13)"/><path class="cls-36" d="M33,124.15l.1.67h-.21l-.24-.6Z" transform="translate(-8.23 -4.13)"/><path class="cls-32" d="M31.08,117l0-.09.5.09-.42.27Z" transform="translate(-8.23 -4.13)"/><path class="cls-29" d="M33,125.88l-.18-.44a.35.35,0,0,1,.36.44H33Z" transform="translate(-8.23 -4.13)"/><path class="cls-32" d="M30.67,114.85l.17.4-.09,0-.22-.37Z" transform="translate(-8.23 -4.13)"/><path class="cls-29" d="M32.56,125.16l.38-.19-.08.39Z" transform="translate(-8.23 -4.13)"/><path class="cls-29" d="M33.81,124.34l-.16-.32.12-.06.14.32Z" transform="translate(-8.23 -4.13)"/><path class="cls-29" d="M32.24,119.32l.1.09h-.46Z" transform="translate(-8.23 -4.13)"/><path class="cls-32" d="M31.26,115.18l0,.17c-.24,0-.24,0-.24-.27Z" transform="translate(-8.23 -4.13)"/><path class="cls-31" d="M28.52,111.28c0-.24.08-.32.3-.16a1.74,1.74,0,0,0-.11.18h-.19Z" transform="translate(-8.23 -4.13)"/><path class="cls-29" d="M33.31,123.57l-.26-.1.17-.14Z" transform="translate(-8.23 -4.13)"/><path class="cls-32" d="M31.26,115.87l-.15-.21.06-.06.2.17Z" transform="translate(-8.23 -4.13)"/><path class="cls-32" d="M31.36,120.31l-.08-.35Z" transform="translate(-8.23 -4.13)"/><path class="cls-32" d="M31.11,114l-.22-.1,0-.06.25.06Z" transform="translate(-8.23 -4.13)"/><path class="cls-29" d="M32.6,120.57l.27,0v.15l0,0h0Z" transform="translate(-8.23 -4.13)"/><path class="cls-29" d="M32,120.46l.07.21-.06,0-.11-.21Z" transform="translate(-8.23 -4.13)"/><path class="cls-32" d="M31.36,119.53h.09v.34h0Z" transform="translate(-8.23 -4.13)"/><path class="cls-29" d="M34.16,125.42s0,.06,0,.07l-.07,0s0-.06,0-.07S34.13,125.41,34.16,125.42Z" transform="translate(-8.23 -4.13)"/><path class="cls-32" d="M31.77,119.87l-.05,0,0-.08s0,0,.06,0S31.76,119.85,31.77,119.87Z" transform="translate(-8.23 -4.13)"/><path class="cls-29" d="M34.07,125.09l0,.06a.15.15,0,0,1,0-.07l0,0Z" transform="translate(-8.23 -4.13)"/><path class="cls-29" d="M31.72,121.7l-.15,0v0l.15,0Z" transform="translate(-8.23 -4.13)"/><path class="cls-33" d="M32.31,118.48a.08.08,0,0,1-.07,0l.06-.09Z" transform="translate(-8.23 -4.13)"/><path class="cls-32" d="M31.45,119.87l.07.09,0,0,0-.12Z" transform="translate(-8.23 -4.13)"/><path class="cls-32" d="M31.28,115.35l.08.1Z" transform="translate(-8.23 -4.13)"/><path class="cls-36" d="M30.74,112.36s0,0,0,0h0l-.05,0Z" transform="translate(-8.23 -4.13)"/><path class="cls-29" d="M32.62,125.79h0Z" transform="translate(-8.23 -4.13)"/><path class="cls-29" d="M33.22,125.88l0,0,0,0Z" transform="translate(-8.23 -4.13)"/><path class="cls-29" d="M33,126.06l0,0,0,0Z" transform="translate(-8.23 -4.13)"/><path class="cls-29" d="M32.51,122.34l-.08-.08Z" transform="translate(-8.23 -4.13)"/><path class="cls-17" d="M32.15,108c0,.3-.3.37-.53.45-.57.12-.83,0-.91-.4h0l.23-.13-.36-.2c0-.12,0-.23-.05-.34l0-.26h.16V107l-.27.08c-.22.21-.45.4-.65.63a.58.58,0,0,0,0,.87c.22-.27.26-.68.7-.7l-.47.85.47.42-.36.69c-.24-.13-.47-.27-.72-.38s-.78-.34-1.17-.5a12.1,12.1,0,0,0-1.58-.59c-.24-.06-.53.11-.8.18l.12.22,0,0s0,0,0,0l0,0c.11,0,.29-.06.31,0s.23.4.17.53a5,5,0,0,1-.56.82,2.62,2.62,0,0,1-.74-1.06,2.09,2.09,0,0,0-.08-.23l-.24-.39c.15-.18.29-.38.45-.56a1.16,1.16,0,0,1,.29-.25,4.5,4.5,0,0,1,.55-.22l.36-.2.6.08c.25.6,1,.15,1.35.59l1.13-1.49-1.21-.31v-.65l.54-.17-.28-.38c0-.12,0-.23,0-.35l.09-.07H29l0,.13-.23,0,.25,0a1.66,1.66,0,0,0,.8,1.17c.18.09.39.13.57.23s.4.29.61.42.69.42,1,.63l.1.17.09.53Z" transform="translate(-8.23 -4.13)"/><path class="cls-20" d="M27.64,112.43l-.45.46-.3-.14c-.1.27-.1.27-.3.13l-.12-.21-.15.13h0l-.12-.08c.3-.22.18-.59.31-.87a.56.56,0,0,1,.24-.64l.75.2.16-.23c.18.17.37.34.15.61,0,0,.06.09.09.13s0,0,0,.08Z" transform="translate(-8.23 -4.13)"/><path class="cls-14" d="M30.12,109.88l.36-.69.17.07.1.25.28-.14.07-.2.18-.17.22-.14.05.06,0,.16-.19,1c-.17.63-.28.66-.81.28-.08-.07-.22-.07-.3-.14A1.35,1.35,0,0,1,30.12,109.88Z" transform="translate(-8.23 -4.13)"/><path class="cls-25" d="M26.51,111.85c-.13.28,0,.65-.31.87l.12.08c-.1.27,0,.65-.37.79l-.25,0c-.23,0-.56.06-.44-.38l.16-.2.28-.17c.17.08.35.16.25-.17,0-.15-.1-.29-.15-.44v-.52l.17-.19.1.49Z" transform="translate(-8.23 -4.13)"/><path class="cls-36" d="M24.83,108.47l.24.39a2.09,2.09,0,0,1,.08.23c-.36-.06-.17.22-.15.3a6.1,6.1,0,0,0,.28.82c.09.23.21.44.32.66v.24h-.1l-.2-.28c-.35-1-.69-2-1-3l.07,0Z" transform="translate(-8.23 -4.13)"/><path class="cls-30" d="M25.6,110.87c-.11-.22-.23-.43-.32-.66a6.1,6.1,0,0,1-.28-.82c0-.08-.21-.36.15-.3a2.62,2.62,0,0,0,.74,1.06Z" transform="translate(-8.23 -4.13)"/><path class="cls-25" d="M27.66,111.18l-.16.23-.75-.2c-.09,0-.23-.07-.26-.14a1,1,0,0,1,0-.39c.12,0,.29,0,.35,0s.17.27.41.11a.3.3,0,0,1,.43.26A.11.11,0,0,0,27.66,111.18Z" transform="translate(-8.23 -4.13)"/><path class="cls-31" d="M27.66,111.18a.11.11,0,0,1,0-.08l.32-.41.48.6a2.45,2.45,0,0,1,0,.27h0l-.1.09h0l-.18.09h0l-.28.18s-.1-.12-.09-.13C28,111.52,27.84,111.35,27.66,111.18Z" transform="translate(-8.23 -4.13)"/><path class="cls-16" d="M34.13,114.2,34,115l-.42-.33.36-.52Z" transform="translate(-8.23 -4.13)"/><path class="cls-31" d="M27.22,109.65c.14.09.34.15.41.28s-.07.27-.12.41h-.14l-.28-.54Z" transform="translate(-8.23 -4.13)"/><path class="cls-19" d="M32.07,109.44l-.48.66h0s0,0,0,0l.28-.79.17-.1h0Z" transform="translate(-8.23 -4.13)"/><path class="cls-16" d="M31.81,109.27l-.28.79h-.15l.19-1h.13l.11.12Z" transform="translate(-8.23 -4.13)"/><path class="cls-22" d="M32.07,109.44l-.09-.26.47-.19-.18.43Z" transform="translate(-8.23 -4.13)"/><path class="cls-26" d="M28.44,111.56a2.45,2.45,0,0,0,0-.27h.25Z" transform="translate(-8.23 -4.13)"/><path class="cls-24" d="M26,111.54l-.17.19v-.26Z" transform="translate(-8.23 -4.13)"/><path class="cls-31" d="M33.3,112.79V113l-.12,0,.13-.17Z" transform="translate(-8.23 -4.13)"/><path class="cls-23" d="M32.75,110.55v0s0,0,0,0,0,0,0,0Z" transform="translate(-8.23 -4.13)"/><path class="cls-23" d="M33.31,111.55h-.06l0,0Z" transform="translate(-8.23 -4.13)"/><path class="cls-25" d="M32.14,105.1l.09,0-.16.41a1,1,0,0,1,0,.3c0,.18-.06.37-.11.61l-.23-.19a4,4,0,0,0-1.28-.69c-.24-.08-.28-.17-.24-.4a1,1,0,0,0-.1-.5c.17-.45.58-.2.9-.24a1.73,1.73,0,0,1,.52.13c.21.06.53,0,.35.41Z" transform="translate(-8.23 -4.13)"/><path class="cls-36" d="M26.48,107.24l-.36.2-.67-.63a4.11,4.11,0,0,0,0-.61c-.06-.31.32-.64.69-.58a3.89,3.89,0,0,0,.28.39.66.66,0,0,0,.25.07c.36.11.34.43.36.71h0l-.18.13Z" transform="translate(-8.23 -4.13)"/><path class="cls-23" d="M29,104.49h-.25l-.19-.44-.42-.67c.81,0,.88,0,.85.8C29,104.28,29,104.39,29,104.49Z" transform="translate(-8.23 -4.13)"/><path class="cls-34" d="M26.67,106.08a.66.66,0,0,1-.25-.07,3.89,3.89,0,0,1-.28-.39c0-.38.27-.22.46-.24l.18.68Z" transform="translate(-8.23 -4.13)"/><path class="cls-25" d="M28.37,104.4l-.69-.87.13-.09.73.87Z" transform="translate(-8.23 -4.13)"/><path class="cls-23" d="M26.67,106.08l.11,0c.35-.1.43.19.51.4s-.17.22-.26.33C27,106.51,27,106.19,26.67,106.08Z" transform="translate(-8.23 -4.13)"/><path class="cls-19" d="M28.61,104.91l.28.38-.54.17-.09,0,.17-.34.09-.19Z" transform="translate(-8.23 -4.13)"/><path class="cls-15" d="M32.87,106.88l.08.26-.53-.35Z" transform="translate(-8.23 -4.13)"/><path class="cls-15" d="M32.15,108l0-.18.32,0,0,.37Z" transform="translate(-8.23 -4.13)"/><path class="cls-15" d="M32.08,107.31l-.1-.17.15-.24.12,0Z" transform="translate(-8.23 -4.13)"/><path class="cls-19" d="M28.37,104.4l.17-.09,0-.26.19.44-.09.07-.24-.1A.13.13,0,0,0,28.37,104.4Z" transform="translate(-8.23 -4.13)"/><path class="cls-25" d="M28.38,104.46l.24.1c0,.12,0,.23,0,.35h-.09Z" transform="translate(-8.23 -4.13)"/><path class="cls-19" d="M28.18,105.44l-.27-.19.27-.13Z" transform="translate(-8.23 -4.13)"/><path class="cls-17" d="M28.18,105.44v-.32l.25,0-.17.34h-.08Z" transform="translate(-8.23 -4.13)"/><path class="cls-15" d="M32.5,107.48a1,1,0,0,1-.07.15l-.07,0,.08-.15Z" transform="translate(-8.23 -4.13)"/><path class="cls-15" d="M33,107.22l-.09.27Z" transform="translate(-8.23 -4.13)"/><path class="cls-19" d="M29,104.69l-.25,0,.22,0A0,0,0,0,1,29,104.69Z" transform="translate(-8.23 -4.13)"/><path class="cls-23" d="M28.93,104.63l-.22,0,.23,0Z" transform="translate(-8.23 -4.13)"/><path class="cls-15" d="M32.57,107.25s0,0,0,0a.1.1,0,0,1,0,0h0Z" transform="translate(-8.23 -4.13)"/><path class="cls-23" d="M26.85,106.92l.18-.13Z" transform="translate(-8.23 -4.13)"/><path class="cls-36" d="M31.08,117l.12.27.07.18h0c0,.08,0,.16,0,.23l-.24.14h-.09l0-.06,0,.06-.28.35-.32-.24-.1.15h-.35a1.61,1.61,0,0,0,.17-1l.18-.17.35-.17.07.09Z" transform="translate(-8.23 -4.13)"/><path class="cls-38" d="M30.27,115.44l0,.08-.06.1c-.06.27-.13.54-.19.81-.07-.1-.22-.21-.21-.3.07-.54-.2-.35-.47-.24l.21.27-.34.18h-.17l-.26-.27,0-.69c.12-.22.28-.24.49-.11a1.12,1.12,0,0,0,.31.1h0c.18.42.23,0,.36-.07Z" transform="translate(-8.23 -4.13)"/><path class="cls-37" d="M30,117.12a1.61,1.61,0,0,1-.17,1l-.3.39c-.22-.62-.41-1.14-.58-1.65,0-.07.09-.18.14-.28.21.1,0,.57.45.46l.37-.08Z" transform="translate(-8.23 -4.13)"/><path class="cls-37" d="M28.7,118.37a2.8,2.8,0,0,1,.25.35c.1.21.17.43.26.67l.07-.29.4.57,0,.13c-.17,0-.33-.07-.5-.09a2.11,2.11,0,0,0-.26,0h0a2.33,2.33,0,0,0-.2-.34c-.15-.22-.39-.4-.23-.71Z" transform="translate(-8.23 -4.13)"/><path class="cls-18" d="M26,113.59c.38-.14.27-.52.37-.79h0l.27.08c.2.14.2.14.3-.13l.3.14-.53,1-.16.1h-.09l-.43-.19Z" transform="translate(-8.23 -4.13)"/><path class="cls-36" d="M27.64,112.43l.28-.43.24.08h.1l.26.17c-.1.36-.41.66-.35,1.08-.22.23-.2,0-.24-.12C27.82,113,27.74,112.69,27.64,112.43Z" transform="translate(-8.23 -4.13)"/><path class="cls-36" d="M26.5,114l.16-.1c.16.53.33,1.05.49,1.58.09.3.16.61.24.92l-.12,0-.79-2.26Z" transform="translate(-8.23 -4.13)"/><path class="cls-34" d="M28.7,118.37l-.25.28-.18-.07-.18,0a2.17,2.17,0,0,1,0-.36.7.7,0,0,1,.09-.17l.34-.2c.1.15.21.3.3.45S28.74,118.33,28.7,118.37Z" transform="translate(-8.23 -4.13)"/><path class="cls-33" d="M28.17,118a.7.7,0,0,0-.09.17,2.17,2.17,0,0,0,0,.36l-.53-1.12.06-.12.29.09,0,0,0,0Z" transform="translate(-8.23 -4.13)"/><path class="cls-37" d="M30.14,118.1l.1-.15.32.24-.62.67C29.66,118.45,30,118.29,30.14,118.1Z" transform="translate(-8.23 -4.13)"/><path class="cls-33" d="M29.5,117c-.41.11-.24-.36-.45-.46l0-.24h.17l.24.2Z" transform="translate(-8.23 -4.13)"/><path class="cls-36" d="M28.26,113.86l.36.26h0l-.19.11C28.38,114.1,28.32,114,28.26,113.86Z" transform="translate(-8.23 -4.13)"/><path class="cls-36" d="M28.18,113.6l.08.26-.44-.2Z" transform="translate(-8.23 -4.13)"/><path class="cls-33" d="M28.81,116.06l.26.27Z" transform="translate(-8.23 -4.13)"/><path class="cls-32" d="M31,117.85l.24-.14Z" transform="translate(-8.23 -4.13)"/><path class="cls-32" d="M31.54,118l.06.18-.27-.07v-.07Z" transform="translate(-8.23 -4.13)"/><path class="cls-32" d="M31.27,117.49l.2,0v.11l-.19-.1Z" transform="translate(-8.23 -4.13)"/><path class="cls-38" d="M30,120.11l.1.12-.16,0Z" transform="translate(-8.23 -4.13)"/><ellipse class="cls-34" cx="23.88" cy="120.74" rx="0.03" ry="0.1"/><path class="cls-24" d="M26.5,114l0,.17-.14,0,.07-.15Z" transform="translate(-8.23 -4.13)"/><path class="cls-38" d="M30.57,120a.28.28,0,0,1,0,.09h-.17l.17-.09Z" transform="translate(-8.23 -4.13)"/><path class="cls-38" d="M30.12,120.23l.18-.09Z" transform="translate(-8.23 -4.13)"/><path class="cls-32" d="M30.84,117.84l0-.06,0,.06Z" transform="translate(-8.23 -4.13)"/><path class="cls-38" d="M30.3,120.14l.09-.09Z" transform="translate(-8.23 -4.13)"/><path class="cls-12" d="M23.85,107.31l.1.19-.06,0-.06-.2Z" transform="translate(-8.23 -4.13)"/><path class="cls-24" d="M25.42,113l-.16.2-.5-.54.1-.09.44.15-.21.24Z" transform="translate(-8.23 -4.13)"/><path class="cls-24" d="M25.8,112.25c.05.15.11.29.15.44.1.33-.08.25-.25.17C25.73,112.66,25.76,112.46,25.8,112.25Z" transform="translate(-8.23 -4.13)"/><path class="cls-24" d="M25.26,111.65h.26l-.14.22Z" transform="translate(-8.23 -4.13)"/><path class="cls-24" d="M26,113.59l0,.17-.28-.15Z" transform="translate(-8.23 -4.13)"/><path class="cls-12" d="M33.83,105l.13.06-.12.11Z" transform="translate(-8.23 -4.13)"/><path class="cls-12" d="M33.74,104.93l.09.09Z" transform="translate(-8.23 -4.13)"/><path class="cls-12" d="M34.6,107.28l.18,0v.06l-.14,0Z" transform="translate(-8.23 -4.13)"/><path class="cls-33" d="M34.45,127.21l-.09-.26Z" transform="translate(-8.23 -4.13)"/><path class="cls-33" d="M34.76,127v0l0,0s0,0,0,0S34.77,127,34.76,127Z" transform="translate(-8.23 -4.13)"/><path class="cls-33" d="M34.9,127.21l0,0v0l0,0Z" transform="translate(-8.23 -4.13)"/><path class="cls-12" d="M34.05,105.34l.05.21Z" transform="translate(-8.23 -4.13)"/><path class="cls-12" d="M34.19,105.3l-.17,0Z" transform="translate(-8.23 -4.13)"/><path class="cls-12" d="M34.28,112.71H34l0-.17Z" transform="translate(-8.23 -4.13)"/><path class="cls-28" d="M31.7,109.08h-.13l0-.16.05-.06h-.1l-.22.14-.21-.15-.07,0,.1.28-.08.2-.2-.39-.17.28-.17-.07-.47-.42.47-.85v-.14l.1,0,.36.2-.23.13,0-.08,0,.08c.08.41.34.52.91.4A.48.48,0,0,1,31.7,109.08Z" transform="translate(-8.23 -4.13)"/><path class="cls-22" d="M31.81,109.27v-.07l.17,0Z" transform="translate(-8.23 -4.13)"/><path class="cls-20" d="M31.71,100.77v-.08H32v.06Z" transform="translate(-8.23 -4.13)"/><path class="cls-37" d="M33.31,127.64h-.18l0-.15.35-.11.07.07v.19h-.26Z" transform="translate(-8.23 -4.13)"/><path class="cls-17" d="M33.57,127.46l-.07-.07v-.1h.24v.18h-.18Z" transform="translate(-8.23 -4.13)"/><path class="cls-35" d="M33.15,127.5l0,.15H33Z" transform="translate(-8.23 -4.13)"/><path class="cls-35" d="M33.75,127.47v-.18l.37.35-.1.11-.1,0Z" transform="translate(-8.23 -4.13)"/><path class="cls-23" d="M33.51,127.65h.06l.09,0a.06.06,0,0,1,0,.06l-.27.23-.08-.23Z" transform="translate(-8.23 -4.13)"/><path class="cls-13" d="M33.66,127.74a.06.06,0,0,0,0-.06l.09-.21h0l.16.25Z" transform="translate(-8.23 -4.13)"/><path class="cls-33" d="M33.51,127.65l-.2.09v-.1Z" transform="translate(-8.23 -4.13)"/><path class="cls-20" d="M28.52,112.26l-.26-.17.34-.19v.18l-.08.18Z" transform="translate(-8.23 -4.13)"/><path class="cls-26" d="M28.16,112.08l-.24-.08s0-.06,0-.08l.28-.18Z" transform="translate(-8.23 -4.13)"/><path class="cls-36" d="M28.62,114.12l.23,0,0,.11-.19-.16Z" transform="translate(-8.23 -4.13)"/><path class="cls-36" d="M28.53,112.26l.08-.18Z" transform="translate(-8.23 -4.13)"/><path class="cls-26" d="M28.18,111.74l.18-.09Z" transform="translate(-8.23 -4.13)"/><path class="cls-26" d="M28.35,111.65l.1-.09Z" transform="translate(-8.23 -4.13)"/><path class="cls-23" d="M30.56,120l.06,0a0,0,0,0,0,0,0h-.05Z" transform="translate(-8.23 -4.13)"/><path class="cls-23" d="M30.78,119.74v-.08a.25.25,0,0,1,0,.07Z" transform="translate(-8.23 -4.13)"/><path class="cls-26" d="M32.77,122.7l0,0s0,0,0,0l0,0Z" transform="translate(-8.23 -4.13)"/><path class="cls-38" d="M29.59,115.36l.11-.13,0,0-.14.11Z" transform="translate(-8.23 -4.13)"/><path class="cls-36" d="M29.5,117l0-.49-.24-.2.34-.18-.21-.27c.27-.11.54-.3.47.24,0,.09.14.2.21.3l.07.3h0v.14h0l-.26.09Z" transform="translate(-8.23 -4.13)"/><path class="cls-23" d="M30.56,116.87l-.07-.09.29-.13,0,.09Z" transform="translate(-8.23 -4.13)"/><path class="cls-26" d="M29.87,117l.26-.09a.28.28,0,0,0,0,.09l-.18.17Z" transform="translate(-8.23 -4.13)"/><path class="cls-26" d="M30.12,116.87v0Z" transform="translate(-8.23 -4.13)"/><path class="cls-26" d="M30.24,115.62l.06-.1Z" transform="translate(-8.23 -4.13)"/><path class="cls-22" d="M30.49,107.78v.14c-.44,0-.48.43-.7.7a.58.58,0,0,1,0-.87c.2-.23.43-.42.65-.63l.12,0,0,.26-.23.12Z" transform="translate(-8.23 -4.13)"/><path class="cls-16" d="M30.49,107.78l-.18-.26.23-.12c0,.11,0,.22.05.34Z" transform="translate(-8.23 -4.13)"/><path class="cls-16" d="M30.56,107.14l-.12,0,.27-.08v.11Z" transform="translate(-8.23 -4.13)"/><path class="cls-16" d="M30.71,108.07l0-.08,0,.08Z" transform="translate(-8.23 -4.13)"/><path class="cls-27" d="M26,108.82l0,0s0,0,0,0l0,0Z" transform="translate(-8.23 -4.13)"/><path class="cls-25" d="M26.59,112.88l-.27-.08.15-.13Z" transform="translate(-8.23 -4.13)"/><path class="cls-16" d="M30.65,109.26l.17-.28.2.39-.27.14Z" transform="translate(-8.23 -4.13)"/><path class="cls-16" d="M31.1,109.17l-.1-.28.07,0,.21.15Z" transform="translate(-8.23 -4.13)"/><path class="cls-29" d="M27.91,117.39l0,0,0,0Z" transform="translate(-8.23 -4.13)"/><path class="cls-14" d="M31.5,108.86h.1l-.05.06Z" transform="translate(-8.23 -4.13)"/><path class="cls-34" d="M33.75,127.47l-.09.21-.09,0v-.19Z" transform="translate(-8.23 -4.13)"/></svg>