<svg viewBox="0 0 48.19 179.46" xmlns="http://www.w3.org/2000/svg"><g transform="translate(-8.23 -4.13)"><path d="m42.14 10.68c1 1.63.93 3.13.49 5.08-.53 2.3 0 4.91.4 7.36 2.06 14.66 4.21 29.31 6.28 44a9.06 9.06 0 0 0 3.11 5.88 10.84 10.84 0 0 1 3.71 9q-.24 10.2-.58 20.4a12.74 12.74 0 0 1 -.44 2.16l-8.01-5.56v-1.72c.08-5.08.22-10.17.17-15.25a4.69 4.69 0 0 0 -1.27-2.72 19.15 19.15 0 0 1 -5.27-9.94c-.93-5.92-1.55-11.9-2.4-17.83-1.09-7.63-2.22-15.25-3.5-22.84a3.72 3.72 0 0 0 -2.17-2.26c-1.17-.42-2.17.41-2.61 1.66a7.62 7.62 0 0 0 -.43 1.46c-.42 3.25-.77 6.52-1.21 9.77-.7 5.19-1.46 10.37-2.18 15.56-.68 4.88-1.33 9.76-2 14.64a15.39 15.39 0 0 1 -5.37 10 3.65 3.65 0 0 0 -1.51 3.24c.15 3.42.2 6.85.42 10.27.13 2 .51 4 .77 5.92l-2.71 1.52a2.6 2.6 0 0 1 -.37-.82c-.27-5.32-.48-10.64-.8-16a10.22 10.22 0 0 1 3.26-8.18 10.07 10.07 0 0 0 2.77-4.85c1-5.27 1.68-10.62 2.37-16 .85-6.64 1.34-13.34 2.47-19.93 1.34-7.88 1.63-15.81 2.17-23.74l7.21-.31z" fill="#5a7520"/><path d="m54.35 129.15c-.2 6-.34 12.08-.63 18.12a30.48 30.48 0 0 0 1.37 10.51c1.88 6.09 1.5 12.33.46 18.49a7.47 7.47 0 0 1 -7 6.52c-7.08.54-14.21.75-21.31.79a69.19 69.19 0 0 1 -11.95-.92c-4.4-.75-6.4-3.32-6.67-7.78-.22-3.62-.36-7.25-.35-10.87a11.56 11.56 0 0 1 .73-4.28c2.33-5.71 2.34-11.66 2.08-17.65-.13-2.92-.23-5.85-.34-8.77v-4.1h2.76c.13 6.48.28 13 .36 19.44a21.75 21.75 0 0 1 -.35 4.91c-.63 2.82-2 5.54-2.2 8.37a81.55 81.55 0 0 0 .11 13.26c.28 3.31 1.82 4.68 5.2 5 4.54.43 9.11.48 13.66.7-3.92-1.32-7.83-2.41-11.7-3.61-2.78-.87-3.93-2.94-4-5.77 0-1.65-.32-3.3-.24-4.93.14-3.21.06-6.51.81-9.6.93-3.84 1.93-7.59 1.77-11.59-.21-5.39-.28-10.79-.41-16.19h3.05c.13 7 .27 13.93.38 20.9a10 10 0 0 1 -.24 2.44c-.72 3.08-1.81 6.1-2.2 9.21a81.82 81.82 0 0 0 -.22 9.79 2.84 2.84 0 0 0 2.92 3q6.38.25 12.74.38c1.51 0 3-.11 4.52-.16a60.93 60.93 0 0 0 7.54-.34 3.46 3.46 0 0 0 2.31-2.33c.18-3.27.62-6.78-.32-9.8-2.85-9.29-2.33-18.76-1.79-28.29.09-1.61 0-3.24 0-4.86z" fill="#5a7520"/><path d="m55.18 105c.1 2.38.26 4.75.28 7.13 0 1.31-.19 2.63-.3 4q-.4 4.82-.8 9.61h-37.79c-.31-6.57-.62-13.15-.94-20l-2.88 2.48-.39-5v-.08l2.64-1.96.79 4.3a27.06 27.06 0 0 1 20.57-5.75 27.35 27.35 0 0 1 18.35 10.27l.47-.16z" fill="#d3cddb"/><path d="m9.75 105.36q-.6-11.16-1.19-22.3a12.32 12.32 0 0 1 4.36-10.14 8.45 8.45 0 0 0 2.47-4.51c1.31-8.29 2.35-16.62 3.48-24.94 1.09-8 2.25-16 3.21-24 .21-1.74-.38-3.56-.4-5.35a10.84 10.84 0 0 1 .65-2.67c.55-1.59 1.84-1.09 3-1-.11 1.91-.24 3.83-.31 5.75 0 .73.21 1.49.12 2.22-.8 6.4-1.61 12.8-2.48 19.19q-2.05 15-4.18 30.05c-.37 2.69-1 5.39-3.26 7.08-3.7 2.8-4.16 6.58-3.92 10.72q.54 8.81 1 17.63v.08z" fill="#5a7520"/><path d="m55.18 105v4.83l-.47.16a27.35 27.35 0 0 0 -18.4-10.26 27.06 27.06 0 0 0 -20.57 5.75l-.79-4.3.86-.71 2.71-1.47c3.54-.9 7-2.14 10.62-2.64a33.78 33.78 0 0 1 17.96 2.64l8 5.56z" fill="#c6becf"/><path d="m25.3 10.4c-1.13-.05-2.42-.55-3 1-.07-.31-.08-.83-.23-.88-1.35-.45-1.46-1.47-1.23-2.59.29-1.42.83-2.71 2.42-3.12a14 14 0 0 1 3.15-.63c3.94-.07 7.89-.19 11.82 0 2.11.12 4.7-.09 5.56 2.81.63 2.14.36 2.78-1.68 3.61l-7.25.06-7.2-.38-1.19-.12c.12-2.4 2.6-1.58 3.84-2.73h-6.64l2 2.83z" fill="#c6becf"/><path d="m19.62 129.18h-3.05a.41.41 0 0 0 0-.19c0-1 0-2 0-3h37.78v3.1h-9.12z" fill="#c6becf"/><path d="m10.49 125.69-.75-18.69c.18 1.31.36 2.61.58 4.18l2-2.28c.19 3.31.36 6.62.58 9.92.15 2.3.38 4.59.57 6.89l-.39.38z" fill="#d3cddb"/><path d="m12.37 108.86-2 2.28c-.22-1.57-.4-2.87-.58-4.18 0-.53 0-1.07 0-1.6l2.61-2.24.39 5z" fill="#c7bfcf"/><path d="m54.35 126.05h-37.77c0-.12 0-.25 0-.38h37.79a.87.87 0 0 1 -.02.38z" fill="#c1bcc3"/><path d="m10.49 125.69 2.64.36c.11 1 .23 2 .34 3a.46.46 0 0 0 0 .2h-2.71v4.1z" fill="#c8c1d0"/><path d="m47.1 99a33.78 33.78 0 0 0 -18-2.73c-3.6.5-7.08 1.74-10.62 2.64-.26-2-.64-3.94-.77-5.92-.22-3.42-.27-6.85-.42-10.27a3.65 3.65 0 0 1 1.51-3.24 15.39 15.39 0 0 0 5.37-10c.68-4.88 1.33-9.76 2-14.64.72-5.19 1.48-10.37 2.18-15.56.44-3.25.79-6.52 1.21-9.77a7.62 7.62 0 0 1 .44-1.41c.44-1.25 1.44-2.08 2.61-1.66a3.72 3.72 0 0 1 2.17 2.26c1.28 7.59 2.41 15.21 3.5 22.84.85 5.93 1.47 11.91 2.4 17.83a19.15 19.15 0 0 0 5.32 9.94 4.69 4.69 0 0 1 1.31 2.76c.05 5.08-.09 10.17-.17 15.25z" fill="#49671b"/><path d="m26.5 10.24 1.19.12v.69c-.54 7.93-.83 15.86-2.17 23.74-1.14 6.59-1.63 13.29-2.52 19.93-.69 5.33-1.34 10.68-2.37 16a10.07 10.07 0 0 1 -2.77 4.85 10.22 10.22 0 0 0 -3.26 8.18c.32 5.31.53 10.63.8 16a2.6 2.6 0 0 0 .37.82l-.86.71-2.6 1.72q-.51-8.82-1-17.63c-.24-4.14.22-7.92 3.92-10.72 2.24-1.69 2.89-4.39 3.26-7.08q2.11-15 4.18-30c.87-6.39 1.68-12.79 2.48-19.19.09-.73-.15-1.49-.12-2.22.07-1.92.2-3.84.31-5.75l.42-.06z" fill="#8a9e57"/><path d="m27.68 11.05c0-.23 0-.46 0-.69l7.2.38z" fill="#55711f"/><path d="m19.62 129.18h25.61c0 1.62.06 3.25 0 4.86-.54 9.5-1.06 18.94 1.85 28.28.94 3 .5 6.53.32 9.8a3.46 3.46 0 0 1 -2.31 2.33 60.93 60.93 0 0 1 -7.54.34c-1.51.05-3 .19-4.52.16q-6.37-.12-12.74-.38a2.84 2.84 0 0 1 -2.92-3 81.82 81.82 0 0 1 .22-9.79c.39-3.11 1.48-6.13 2.2-9.21a10 10 0 0 0 .24-2.44c-.14-7.02-.28-13.98-.41-20.95z" fill="#49671b"/><path d="m16.57 129.21c.13 5.4.2 10.8.41 16.19.16 4-.84 7.75-1.77 11.59-.75 3.09-.67 6.39-.81 9.6-.08 1.63.22 3.28.24 4.93 0 2.83 1.18 4.9 4 5.77 3.87 1.2 7.78 2.29 11.7 3.61-4.55-.22-9.12-.27-13.66-.7-3.38-.33-4.92-1.7-5.2-5a81.55 81.55 0 0 1 -.11-13.26c.23-2.83 1.57-5.55 2.2-8.37a21.75 21.75 0 0 0 .35-4.91c-.08-6.48-.23-13-.36-19.44a.46.46 0 0 1 0-.2h3.12a.41.41 0 0 1 -.11.19z" fill="#8a9e57"/><path d="m12.37 108.86.38-.76 2.88-2.48c.32 6.9.63 13.48.94 20h-3.05c-.19-2.3-.42-4.59-.57-6.89-.22-3.25-.39-6.56-.58-9.87z" fill="#e0dbe5"/><path d="m26.5 10.24-.78.1-2-2.83h6.67c-1.29 1.15-3.77.33-3.89 2.73z" fill="#d3cddb"/><path d="m13.52 125.67h3.05v.38 3h-3.1c-.11-1-.23-2-.34-3z" fill="#d3cddb"/><path d="m50.37 100.1.55.58v1.16h.95a21.27 21.27 0 0 1 3.52 6.22 5.06 5.06 0 0 1 .1 1.66q0 7.55 0 15.09a1.79 1.79 0 0 1 -.07.61 22.44 22.44 0 0 1 -3.91 6.7v-.6h-1.51v-2.52h1.34v-1h-1.34v-2.34h1.4v-1h-2.62v8h2.31c-.91.91-1.82 1.83-2.74 2.73-.1.1-.33.09-.5.09h-30.17a1.11 1.11 0 0 1 -.7-.27c-.88-.86-1.73-1.75-2.59-2.63l.51.12a1.57 1.57 0 0 0 2.15-1.37 3.37 3.37 0 0 0 -.93-3c-.33-.36-.66-.71-1-1.08a1.13 1.13 0 0 1 -.24-1.16.74.74 0 0 1 .46-.42c.28-.08.42.16.44.42s.06.78.09 1.2h1.17a14.61 14.61 0 0 0 -.28-1.83c-.17-.62-.66-.87-1.43-.86a1.4 1.4 0 0 0 -1.5.92 2.76 2.76 0 0 0 .6 2.88c.33.35.67.7 1 1.06a2.07 2.07 0 0 1 .42 1.87.59.59 0 0 1 -.42.38c-.16 0-.36-.18-.48-.33a.88.88 0 0 1 -.07-.47c0-.38 0-.76 0-1.16h-1.18v.51c.05.58.11 1.16.16 1.75a23 23 0 0 1 -3.86-6.89 1.24 1.24 0 0 1 0-.43q0-7.93 0-15.86a3.22 3.22 0 0 1 .24-1 23.88 23.88 0 0 1 4.37-7.15 2.88 2.88 0 0 1 .34-.27 6.16 6.16 0 0 1 .79 1.74l-.74-.55-.08.09.11.23a1.17 1.17 0 0 0 .4 1.15l.42.65.15.28c.13.2.25.41.39.59l5.07 6.34a1.06 1.06 0 0 1 .18.35c.15.55.29 1.11.43 1.66l-.33.43.49.08a2 2 0 0 0 .21.53c.43.5.93.93 1.31 1.46.71 1 1.36 2 2 3a7.12 7.12 0 0 1 1 1.6c.1.32.59.49.82.79.9 1.15 1.76 2.32 2.63 3.49a3.23 3.23 0 0 1 .24.42 1.78 1.78 0 0 0 -2.73 1.18 2.78 2.78 0 0 0 -.07.57v4.07a3.47 3.47 0 0 0 .26 1.23 1.35 1.35 0 0 0 2.41.25s.07 0 .11-.05l.17.57h.51v-4.32h-1.62v.83l.67.07c-.07.71-.1 1.4-.22 2.08a.62.62 0 0 1 -.49.37c-.16 0-.38-.22-.47-.4a1.53 1.53 0 0 1 -.09-.65c0-1 0-2.06 0-3.09 0-.44 0-.89.05-1.33s.16-.58.54-.57.5.26.51.59 0 .81.06 1.21h1.15l-.15-2c.39.56.74 1 1 1.5a1.73 1.73 0 0 1 .26.85v4.42.47h1.22v-3.66h1.11v3.66h1.21v-.49c0-1.89 0-3.78 0-5.66 0-.76.24-1.59-.41-2.23v.45l-.4-4.32-.17.37c-.08-1-.16-1.81-.22-2.68a1.42 1.42 0 0 1 .08-.45 3.83 3.83 0 0 0 .22-.62c0-.3 0-.62 0-.92l.29.42v-3c0-.37.18-.49.62-.36v-1.36l.05-.06c.74-.19.75-.2.55-.86a4.86 4.86 0 0 1 -.34-1.13c0-1 0-2.08 0-3.13 0-.19.16-.41.1-.57a10.11 10.11 0 0 0 -.49-.91 1.61 1.61 0 0 1 0-.5c.18 0 .31 0 .2-.23s-.23-.19-.39-.31l-.17-.49.16-.4-.42-.21c-.11-.74-.22-1.48-.32-2.22-.22-1.7-.43-3.4-.64-5.1h10.23a.56.56 0 0 1 .29.06 21.37 21.37 0 0 1 4.86 3.64l-.38 2.55c.28.07.45.06.49-.24a.34.34 0 0 1 .26-.2c.08 0 .18.13.24.22a.8.8 0 0 1 .08.26h.38zm.9 9.52h.17l.23-.17.19.15v-1.3l-.19.28-.22-.19-.19.08-.27-.07c-.07 0-.2.06-.2.09v1.14h.1l.2-.54zm-1.77-.62-.14-.59h-.11v1.16-.13h.43l.11.25v-1.29h-.12l-.11.51zm-8.22-.53-.19-.06-.19.16-.26-.11-.09.06.33.41v.17l-.46.51-.06-1.14h-.12a1.82 1.82 0 0 0 .15 1.21l.51-.21.08.1a1.31 1.31 0 0 0 .39-.08c0-.34 0-.68-.08-1zm7.48-1.58-.14.09-.51-.06v1.08h.13l.1-.47.27.47h.16.21c.05-.24.17-.48.1-.61s-.23-.41.06-.63zm.71 3.53c0 .15-.1.3-.16.45s-.06.33.2.3c0-.18 0-.32.06-.46a2.94 2.94 0 0 0 .1-.58c0-.06-.19-.17-.25-.15s-.14.16-.17.26.15.11.22.16zm-4.95-2.42h.36c0-.36 0-.71 0-1.06a1.81 1.81 0 0 0 -.35 0zm.72.85-.26-.43a1.71 1.71 0 0 0 -.26.42 1.29 1.29 0 0 0 0 .48c0 .37.22.43.53.27v-.74zm.1-1.5-.12-.3-.07-.06v.83c0 .1.13.19.2.28.11-.08.27-.15.31-.25a.36.36 0 0 0 -.32-.54zm-.1 3.46c0-.21 0-.41 0-.62a.3.3 0 0 0 -.15-.18.3.3 0 0 0 -.23.06 2 2 0 0 0 0 .64s.26.06.41.09v.42h.08l.38-.83a2.57 2.57 0 0 0 0 .58c0 .11.13.19.21.28.08-.1.22-.19.23-.29.05-.32.06-.65-.41-.6v-.36h-.06zm-2.83-2.22-.47-.09-.08.36-.27-.48v1.27h.13l.11-.52.41-.1v.69h.34c0-.41-.08-.76-.12-1.11h.11zm1.84.83h.13l.14.24h.11l-.1-.41-.13-.8h-.16l-.07.43-.13.42-.07-.82h-.11l-.12.5-.15-.52h-.07v1.21h.1l.1-.48h.06l.05.58zm-.46-2.42-.07-.06h-.41v1.06h.12l.16-.57h.12a1.31 1.31 0 0 0 .09.28 3.33 3.33 0 0 0 .24.32c.09-.11.23-.21.26-.34a1.56 1.56 0 0 0 0-.61c0-.12-.11-.22-.17-.33zm-6.69 25.57h1.19v-3.71c.83-.09 1 .07 1 .82v2.89h1.16c0-1 0-2 0-3a1.27 1.27 0 0 0 -.46-1.12 3.48 3.48 0 0 0 .43-1 9.84 9.84 0 0 0 0-1.8.94.94 0 0 0 -.76-1c-.85-.07-1.71 0-2.58 0zm7.1-8v8h1.53c1.22 0 1.81-.47 1.87-1.69.07-1.58.06-3.18 0-4.76a1.41 1.41 0 0 0 -1.44-1.54c-.64-.01-1.29.02-1.96.02zm-22.72 8h2.69v-1h-1.45v-2.57h1.35v-1h-1.35v-2.35h1.39v-1h-2.63zm-2.24-1v-6.93h-1.19v7.95h2.72v-1zm23.65 1v-8h-1.16v8zm-17.59-8v7.95h1.18v-7.95zm17.64-22.57c.19-.13.36-.2.37-.26 0-.92 0-1.84 0-2.76h-.55l-.36 1.89h-.07l-.33-1.94h-.53v2.89h.37v-1.67c.16.47.24.94.36 1.41 0 .1.16.18.24.28.07-.09.18-.17.21-.28.1-.44.19-.88.28-1.33h.06v1.77zm5-.12a8.12 8.12 0 0 0 0-1.11 2.06 2.06 0 0 1 0-.82c.16-.75-.07-1-.83-1h-.4v2.9h.45v-1.32h.16c.44.35 0 .94.27 1.35zm-2 2c0-.34 0-.65-.05-1a.55.55 0 0 0 -.61-.55.56.56 0 0 0 -.63.54v1.93a.56.56 0 0 0 .63.54.55.55 0 0 0 .6-.52c.02-.4.02-.74.04-1.04zm5.06 1.36v-1.35l.17-.06a1.44 1.44 0 0 1 .19.37 4.09 4.09 0 0 1 0 .7c0 .34.12.42.46.31 0-.23 0-.46 0-.69a7.67 7.67 0 0 1 0-1.36c.11-.73-.08-.88-.83-.87h-.38v2.93zm-3.47 0a9.21 9.21 0 0 0 0-1.18 1.46 1.46 0 0 1 0-.69c.21-.75-.06-1.07-.84-1.06h-.36v2.94h.43v-1.34l.15-.06a1.17 1.17 0 0 1 .2.36 4.7 4.7 0 0 1 0 .75c-.03.31.14.34.41.26zm-25.92 18.76c0-.11 0-.19 0-.28 0-.51 0-1 0-1.54s-.14-.59-.61-.6h-.48v2.24c0 .08.14.14.21.21s.16-.15.17-.24c0-.29 0-.58 0-.88h.23c0 .26.06.52.07.78s.05.38.41.31zm21.45-21.65v2.92h.43v-1.07c.84-.14.88-.38.81-1.23-.04-.65-.25-.73-1.24-.66zm6.6.43h.19l.31-.25a1.1 1.1 0 0 0 -.32-.17 4.82 4.82 0 0 0 -.66 0v3h1c.18-.56-.33-.3-.49-.45v-.91l.43-.07c.17-.48-.23-.34-.43-.42zm-5.46-2c.76 0 .89-.3.82-1.19-.06-.61-.35-.73-1.25-.58v2.87h.43zm-26.75 22.01a7.12 7.12 0 0 0 0-.8.46.46 0 0 0 -.48-.46c-.31 0-.56.1-.57.42a12.67 12.67 0 0 0 0 1.63c0 .31.25.45.56.44a.49.49 0 0 0 .49-.48c.02-.25 0-.54 0-.75zm.4 1.17c1 .11 1.29-.29 1-1.15a1.05 1.05 0 0 1 0-.31c0-.28.05-.66-.1-.81s-.55-.13-.86-.18zm28.44-24.69c0-.4-.21-.45-.93-.3v2.84c.92.12 1 .09.94-.32h-.49v-.86c.18-.13.61.07.45-.4l-.45-.08v-.78zm2.3 6c0-.76 0-1.46 0-2.16a.89.89 0 0 1 .14-.37 3.81 3.81 0 0 1 .23-.4h-1.22c0 .15.06.36.1.36.35 0 .25.31.26.51v2.06zm-29.18 16.3-.34 2.43.13.08c.09-.08.17-.17.26-.26s.15-.19.23-.19.14.13.21.2l.27.25.12-.09-.37-2.37zm-3.33 1.23a3 3 0 0 0 0-.79.8.8 0 0 0 -.42-.46.44.44 0 0 0 -.6.37 13.29 13.29 0 0 0 0 1.67.52.52 0 0 0 1-.09c.02-.23.02-.5.02-.7zm32.36-23.87v2.89h.41v-2.89zm-7.93 0v2.92h.4v-2.92zm-26.19 24.07.43-.33-.4-.27v-.5a1.23 1.23 0 0 0 .16 0l.3-.16a1.1 1.1 0 0 0 -.3-.16 5.42 5.42 0 0 0 -.57 0v2.18c0 .09.12.17.19.26.06-.08.16-.16.17-.24.03-.31.02-.59.02-.78zm37.21-12.43c-.15-.25-.26-.59-.38-.6-.4 0-.29.37-.29.6s-.11.61.28.61c.12 0 .24-.36.39-.6zm-4.22-.69v1.36c.18-.06.43-.1.43-.16a4.1 4.1 0 0 0 0-1c0-.08-.24-.08-.43-.19zm0-.2c.19-.09.44-.14.45-.22a4 4 0 0 0 0-1c0-.06-.25-.08-.41-.13zm-4.12-.15h.06v-1.13l-.24.26-.26-.3v1.24h.09l.09-.63zm0 1.44.24.23a1.31 1.31 0 0 0 .26-.37 1.28 1.28 0 0 0 0-.55c0-.12-.16-.22-.24-.33-.08.1-.21.19-.24.3a4.07 4.07 0 0 0 -.08.75zm4.34-3c.38.15.45-.06.47-.32s0-.31 0-.47c0-.36-.06-.43-.48-.35zm3.39-1.18v1.21h.08l.1-.5h.07l.1.49h.12c0-.26 0-.53 0-.79s-.18-.46-.53-.37zm-4.58 2-.3-.55v1.27h.08l.08-.4.29.51v-1.29h-.09zm3.8.71c.21-.33.37-.07.63.13-.18-.48 0-.93-.47-1.26zm-.67-1.6h.15l.15-.55.1.44c.56-.46-.15-.72 0-1.09h-.16zm-2.73-.45c.43.07.31-.27.28-.43a.29.29 0 0 0 -.45-.26v1.24h.11zm2.08 1.64.17.43h.01v-1.24c-.49.33-.4.76-.38 1.2zm-.82.91h-.13l.21 1.2h.19l.18-1.2h-.14l-.13.67zm-3.77.88-.09.06.2.29c.09-.09.26-.18.26-.27a4.9 4.9 0 0 0 -.16-.8l.19-.06-.14-.17c-.11.07-.31.13-.31.21a1.15 1.15 0 0 0 .15.44c0 .13.09.26.16.49zm2.08-2.88c-.07-.33.08-.73-.35-.94l-.19.93c.23-.3.36-.15.54.01zm4.25-1.21c-.07 0-.25.07-.26.12a9.73 9.73 0 0 0 0 1.08s.21.05.24.06zm.95 4.39h.3v-1.11h-.07zm.16-3.18h.08l.13-1-.43-.16zm-16 13.42h.16l-.14-1h-.15zm11.41-11h-.12v.35h.04zm-.43.52v.11l.35-.05v-.06z" fill="#c72721"/><path d="m15.05 101.92-.11-.23.08-.09.69.59a6.16 6.16 0 0 0 -.79-1.74c.63-.66 1.23-1.36 1.91-2a20.41 20.41 0 0 1 3.89-2.75l.28 1.3h.14l-.24-1.3a1.41 1.41 0 0 1 .43-.13h11.72 1.07c.21 1.7.42 3.4.64 5.1.1.74.21 1.48.32 2.22 0 .2 0 .41.05.61v.1l.11.62v-.62a.19.19 0 0 1 0-.08h.08l.17.49c.16.12.32.19.39.31s0 .25-.2.23a1.61 1.61 0 0 0 0 .5 10.11 10.11 0 0 1 .49.91c.06.16-.09.38-.1.57 0 1-.07 2.09 0 3.13a4.86 4.86 0 0 0 .34 1.13c.2.66.19.67-.55.86h-.05v1.47c-.44-.13-.62 0-.62.36v3l-.29-.42v.92a3.83 3.83 0 0 1 -.22.62 1.42 1.42 0 0 0 -.08.45c.06.87.14 1.73.22 2.68l.17-.37.4 4.32v-.45c.65.64.4 1.47.41 2.23v5.66.49h-1.15v-3.66h-1.11v3.66h-1.22v-.47c0-1.47 0-2.95 0-4.42a1.73 1.73 0 0 0 -.26-.85c-.28-.49-.63-.94-1-1.5l.15 2h-1.21c0-.4 0-.81-.06-1.21s-.13-.59-.51-.59-.52.26-.54.57 0 .89-.05 1.33v3.09a1.53 1.53 0 0 0 .09.65c.09.18.31.4.47.4a.62.62 0 0 0 .49-.37c.12-.68.15-1.37.22-2.08l-.67-.07v-.83h1.64v4.32h-.51l-.17-.57s-.09 0-.11.05a1.35 1.35 0 0 1 -2.41-.25 3.47 3.47 0 0 1 -.26-1.23c0-1.36 0-2.72 0-4.07a2.78 2.78 0 0 1 .07-.57 1.78 1.78 0 0 1 2.73-1.18 3.23 3.23 0 0 0 -.24-.42c-.87-1.17-1.73-2.34-2.63-3.49-.23-.3-.72-.47-.82-.79a7.12 7.12 0 0 0 -1-1.6c-.66-1-1.31-2.06-2-3-.38-.53-.88-1-1.31-1.46a2 2 0 0 1 -.21-.53l-.49-.08.33-.43c-.14-.55-.28-1.11-.43-1.66a1.06 1.06 0 0 0 -.18-.35l-5.07-6.34c-.14-.18-.26-.39-.39-.59l.08-.39-.25.15-.42-.65.3-.28zm17.29-.62v-.09l-.17-.34h.17l.17.27c.11-.58-.36-.67-.68-.91-.07.16-.14.31-.2.46l-.68.07-.06-.55a1.52 1.52 0 0 0 -.21.19 2.16 2.16 0 0 0 -.1.25l.34.14v.16l-.77.36-.15-.31-.43.32.45.3.1-.26.7.19.19-.14-.1-.49.59.26v.09l.08.18c.31.32.57.25.73-.18zm2.31 11-.29-.36a1.08 1.08 0 0 0 -.89-1.06 1.08 1.08 0 0 1 -.9-.84h.19l.06.11-.06-.11v-.18l.07-.45c.1.18.15.25.18.32a.86.86 0 0 0 1.08.45c.25-.09.29-.22.25-.46s0-.54 0-.81a.69.69 0 0 0 -.4-.68c.07.22.11.35.14.49a.6.6 0 0 1 -.38.67c-.28.16-.35-.07-.52-.21a2.08 2.08 0 0 0 -.66-.27l.09-.62.19-.17.26-.27h.33c0-.24.08-.41.36-.4h.19l.67-.07v.06a1.24 1.24 0 0 0 0 .39 9 9 0 0 0 .43.81c.38-.16.42-.3.41-1.35-.07 0-.17.09-.21.07s-.07-.14-.12-.21l-.2-.27-.35-1.08-.42-.61c-.06-.07-.18-.17-.17-.22.14-.42-.17-.59-.44-.85l-.34.43c.48 0 .53.17.47.49l-.6-.3c-.32-.51-.49-.59-.94-.42h-.1l-.07-.09.08-.07-.08.13a1.36 1.36 0 0 1 -1.7-.64 2 2 0 0 0 -.61-.65 3.33 3.33 0 0 1 -.71-.63.4.4 0 0 0 -.46-.2c-.73.08-1.14.48-1.34 1.34-.12.49-.21 1-.31 1.48a4.52 4.52 0 0 0 -2.52 1.46l-.49 1-.34-.54s0-.06 0 0 0 0 0 0a4.18 4.18 0 0 0 .1.51c.19.48.4.95.6 1.43 0 .09-.06.18 0 .25.26.68.52 1.35.79 2 0 .06.21.06.32.08l.1.22v.08a.08.08 0 0 0 -.07 0c-.09 0-.23.05-.26.11-.16.28-.28.58-.42.87 0 .5.07 1 .1 1.5h-.21v.05l.21-.07c.52.23 1 .56 1.63.25 0 .13.05.26.09.38.36 1.1.69 2.21 1.09 3.28a3 3 0 0 0 1.38 1.93 4.14 4.14 0 0 0 .46.39 1.84 1.84 0 0 1 1 1.28 5.23 5.23 0 0 0 .4 1.15c.45 1 .91 2 1.38 2.95a1.9 1.9 0 0 0 .28.29l.29.84c-.3.2-.06.4 0 .6s.1.31.14.47c.21.66.38.74 1.13.6.21 0 .26-.14.22-.33l.45-.13v.11l-.16.07v.05l.17-.08a5.08 5.08 0 0 0 .61-.42s0-.18 0-.25a1 1 0 0 0 -.23-.23 1.56 1.56 0 0 0 -.19-1.23 1.3 1.3 0 0 0 -.11-.46 1.89 1.89 0 0 1 -.27-1.31v-.53l-.15-.41-.33-1-.24-.91v-.1a.09.09 0 0 0 0 0 4.26 4.26 0 0 1 -.08-3.32 3 3 0 0 0 -.14-2c.49-.4 1.25-.63 1-1.52l.22.17a.78.78 0 0 0 -.41-1l-.16-.63.26-.17.09-.26c.23 0 .55.22.69-.18 0-.25.16-.61-.24-.72zm-10.45 1.5c.05 0 .14-.08.13-.11s-.09-.32-.13-.47-.07-.27-.11-.4l.3-.9c-.37-.23-.5-.16-.58.24s-.17.48-.23.73a3.65 3.65 0 0 0 -.07.46l-.18.36.19.85c.54-.05.59-.44.68-.79zm5.48-14.33v.1.16l.05.72h.09l.2-.6.52-.78a1.49 1.49 0 0 0 -.51-.66 1.38 1.38 0 0 1 -.64-1l.13-.15h-.05l-.08.2a1 1 0 0 0 -.36 1.13 4.9 4.9 0 0 0 .65.85zm1.32 2.38v.09l.55.6.17-.49zm-2.63 19.15-.73-.6.58.8a2.77 2.77 0 0 0 .15-.2zm5.92-7.73h.09v-.36h-.12zm-6 8-.07.06.19.22.07-.07zm-12.43-17.87.08-.06-.16-.28h-.08zm19.07 17.6v-.18z" fill="#f9efc3"/><path d="m13.86 131.9c0-.59-.11-1.17-.16-1.75 0-.16 0-.32 0-.51h1.2v1.16a.88.88 0 0 0 .07.47c.12.15.32.34.48.33a.59.59 0 0 0 .42-.38 2.07 2.07 0 0 0 -.42-1.87c-.32-.36-.66-.71-1-1.06a2.76 2.76 0 0 1 -.6-2.88 1.4 1.4 0 0 1 1.5-.92c.77 0 1.26.24 1.43.86a14.61 14.61 0 0 1 .28 1.83h-1.16c0-.42-.05-.81-.09-1.2s-.16-.5-.44-.42a.74.74 0 0 0 -.46.42 1.13 1.13 0 0 0 .24 1.16c.31.37.64.72 1 1.08a3.37 3.37 0 0 1 .93 3 1.57 1.57 0 0 1 -2.15 1.37l-.51-.12z" fill="#f9edc1"/><path d="m51.09 132.6h-2.31v-8h2.62v1h-1.4v2.4h1.33v1h-1.33v2.53h1.48v.6z" fill="#f9efc3"/><path d="m50.37 100.1.22 1.72h-.38a.8.8 0 0 0 -.08-.26c-.06-.09-.16-.22-.24-.22a.34.34 0 0 0 -.26.2c0 .3-.21.31-.49.24l.38-2.55.33.39-.15 1.25.12.08c.07-.09.2-.18.2-.27 0-.34-.06-.67-.09-1z" fill="#f6e4ba"/><path d="m51.87 101.84h-.95v-1.16z" fill="#f9edc1"/><path d="m49.93 99.71c0 .33.08.66.09 1 0 .09-.13.18-.2.27l-.12-.08.15-1.25z" fill="#cc3a30"/><path d="m20.91 95.69.24 1.3-.15.01-.29-1.29z" fill="#d45a4a"/><path d="m37.1 132.57v-7.9h2.58a.94.94 0 0 1 .76 1 9.84 9.84 0 0 1 0 1.8 3.48 3.48 0 0 1 -.43 1 1.27 1.27 0 0 1 .46 1.12v3h-1.15v-2.89c0-.75-.2-.91-1-.82v3.71zm1.21-4.76c.77.16 1 0 1-.73 0-.25 0-.5 0-.75 0-.74-.26-.92-1-.74z" fill="#f9efc3"/><path d="m44.2 124.6h2a1.41 1.41 0 0 1 1.44 1.54c.06 1.58.07 3.18 0 4.76-.06 1.22-.65 1.68-1.87 1.69h-1.57zm1.19 7c.78.09 1-.06 1-.79 0-1.49 0-3 0-4.49 0-.67-.28-.85-1-.77z" fill="#f9efc3"/><path d="m21.48 132.56v-8h2.63v1h-1.39v2.44h1.35v1h-1.35v2.55h1.45v1z" fill="#f9edc1"/><path d="m19.24 131.55h1.53v1h-2.72v-7.95h1.19z" fill="#f9edc1"/><path d="m42.89 132.58h-1.16v-8h1.16z" fill="#f9edc1"/><path d="m25.3 124.62h1.18v7.95h-1.18z" fill="#f9edc1"/><path d="m42.94 102v-1.71h-.06c-.09.45-.18.89-.28 1.33 0 .11-.14.19-.21.28-.08-.1-.21-.18-.24-.28-.12-.47-.2-.94-.36-1.41v1.67h-.37v-2.95h.58l.39 1.88h.07l.36-1.89h.55v2.76c-.07.07-.24.14-.43.32z" fill="#f9edc1"/><path d="m48 101.83h-.36c-.24-.41.17-1-.27-1.35h-.16v1.32h-.45v-2.9h.4c.76 0 1 .24.83 1a2.06 2.06 0 0 0 0 .82 8.12 8.12 0 0 1 .01 1.11zm-.65-2.59-.13.06v.82c.43 0 .36-.3.34-.52s-.17-.24-.24-.36z" fill="#f7e7bd"/><path d="m45.92 103.78c0 .3 0 .64-.06 1a.55.55 0 0 1 -.6.52.56.56 0 0 1 -.63-.54c0-.64 0-1.29 0-1.93a.56.56 0 0 1 .63-.54.55.55 0 0 1 .61.55c.03.29.03.6.05.94zm-.86 0v.88c0 .08.13.16.19.23s.16-.15.16-.22c0-.59 0-1.17 0-1.76 0-.07-.11-.14-.17-.21s-.17.14-.18.21c-.01.26 0 .55 0 .84z" fill="#f7e7bd"/><path d="m51 105.24h-.42v-2.93h.38c.75 0 .94.14.83.87a7.67 7.67 0 0 0 0 1.36v.69c-.34.11-.48 0-.46-.31a4.09 4.09 0 0 0 0-.7 1.44 1.44 0 0 0 -.19-.37l-.17.06v1.35zm0-2.57v.82c.38.05.35-.2.35-.41s.04-.47-.35-.41z" fill="#f7e7bd"/><path d="m47.52 105.22c-.27.08-.44 0-.42-.28a4.7 4.7 0 0 0 0-.75 1.17 1.17 0 0 0 -.2-.36l-.15.06v1.34h-.43v-2.94h.36c.78 0 1 .31.84 1.06a1.46 1.46 0 0 0 0 .69 9.21 9.21 0 0 1 0 1.18zm-.77-1.71c.48 0 .34-.37.33-.59s-.15-.2-.23-.3l-.1.08z" fill="#f7e7bd"/><path d="m21.61 124c-.36.11-.39-.07-.39-.32s0-.52-.07-.78h-.23v.88c0 .09-.11.16-.17.24s-.21-.13-.21-.21c0-.73 0-1.46 0-2.24h.46c.47 0 .61.14.61.6s0 1 0 1.54c.01.06.01.14 0 .29z" fill="#f4dbb2"/><path d="m43.06 102.31c1-.07 1.2 0 1.24.62.07.85 0 1.09-.81 1.23v1.07h-.43zm.45 1.38c.46 0 .37-.32.36-.54s.06-.53-.36-.48z" fill="#f7e7bd"/><path d="m49.66 102.74v.74c.2.08.6-.06.43.42l-.43.07v.82c.16.15.67-.11.49.45h-1v-3a4.82 4.82 0 0 1 .66 0 1.1 1.1 0 0 1 .32.17l-.31.25s-.08.07-.16.08z" fill="#f3d7b0"/><path d="m44.2 100.73v1.1h-.43v-2.83c.9-.15 1.19 0 1.25.58.07.85-.02 1.12-.82 1.15zm0-.45.16.09c.08-.15.22-.29.22-.44a2.48 2.48 0 0 0 -.15-.64c-.08.06-.21.13-.22.2a6.94 6.94 0 0 0 -.01.79z" fill="#f7e7bd"/><path d="m17.45 122.79v.75a.49.49 0 0 1 -.45.46c-.31 0-.54-.13-.56-.44a12.67 12.67 0 0 1 0-1.63c0-.32.26-.43.57-.42a.46.46 0 0 1 .48.46 7.12 7.12 0 0 1 0 .8zm-.62 1a2 2 0 0 0 0-2 5.9 5.9 0 0 0 0 1.99z" fill="#f4dbb2"/><path d="m17.85 124v-2.45c.31 0 .69 0 .86.18s.08.53.1.81a1.05 1.05 0 0 0 0 .31c.33.82.01 1.22-.96 1.15zm.37-.35.14.1a2 2 0 0 0 .18-.44c0-.2.06-.46-.32-.45zm.16-1.81h-.15v.65l.1.06c.07-.11.18-.22.18-.32a1.84 1.84 0 0 0 -.13-.43z" fill="#f6e4ba"/><path d="m46.29 99.27-.48.06v.78l.45.08c.16.47-.27.27-.45.4v.86h.49c.06.41 0 .44-.94.32v-2.77c.72-.18.92-.13.93.27z" fill="#f9edc1"/><path d="m48.59 105.24h-.49v-2.06c0-.2.09-.46-.26-.51 0 0-.06-.21-.1-.36h1.26a3.81 3.81 0 0 0 -.23.4.89.89 0 0 0 -.14.37c-.05.7-.04 1.4-.04 2.16z" fill="#f3d7b0"/><path d="m19.41 121.57h.51l.37 2.37-.12.09-.27-.25c-.07-.07-.14-.2-.21-.2s-.15.12-.23.19-.17.18-.26.26l-.13-.08zm.23.6c-.12 1-.12 1 .19 1 0-.23 0-.46-.09-.69a2 2 0 0 0 -.1-.31z" fill="#f6e4ba"/><path d="m16.08 122.8v.7a.52.52 0 0 1 -1 .09 13.29 13.29 0 0 1 0-1.67.44.44 0 0 1 .6-.37.8.8 0 0 1 .42.46 3 3 0 0 1 -.02.79zm-.39-1h-.14a3.18 3.18 0 0 0 -.12 1.72s.25 0 .25 0c.01-.52.01-1.1.01-1.67z" fill="#f7e7bd"/><path d="m48.44 98.93h.41v2.89h-.41z" fill="#f7e7bd"/><path d="m40.51 98.93h.4v2.89h-.4z" fill="#f7e7bd"/><path d="m14.32 123v.74c0 .08-.11.16-.17.24-.07-.09-.19-.17-.19-.26 0-.7 0-1.41 0-2.18a5.42 5.42 0 0 1 .57 0 1.1 1.1 0 0 1 .3.16l-.3.16a1.23 1.23 0 0 1 -.16 0v.5l.4.27z" fill="#f6e4ba"/><path d="m43.79 107 .35-.2c.06.11.16.21.17.33a1.56 1.56 0 0 1 0 .61c0 .13-.17.23-.26.34a3.33 3.33 0 0 1 -.24-.32 1.31 1.31 0 0 1 -.09-.28h-.12l-.16.57h-.12v-1.15h.41l-.22.24.14.13z" fill="#edbf9c"/><path d="m44.53 109.17.1.41h-.11c0-.08-.09-.16-.14-.24h-.13l-.47.34-.05-.58h-.06l-.1.48h-.1v-1.18h.07l.15.52.12-.5h.11l.07.82.13-.42c.06 0 .14.06.18.11a2.27 2.27 0 0 1 .23.24z" fill="#e8ad8e"/><path d="m42.42 108.56.12 1.11h-.34v-.69l-.41.1-.11.52h-.13v-1.27l.27.48.08-.36.47.09z" fill="#d04b3e"/><path d="m51.53 110.58c-.15.24-.27.6-.39.61-.39 0-.27-.38-.28-.61s-.11-.61.29-.6c.12.02.23.35.38.6z" fill="#edbf9c"/><path d="m47.31 109.89c.19.09.43.14.44.21a4.1 4.1 0 0 1 0 1c0 .06-.25.1-.43.16z" fill="#edbf9c"/><path d="m47.3 109.69v-1.33c.16 0 .41.07.41.13a4 4 0 0 1 0 1c.03.06-.22.11-.41.2z" fill="#edbf9c"/><path d="m45.24 110.77.42-.79h.06v.34c.47 0 .46.28.41.6 0 .1-.15.19-.23.29-.08-.09-.19-.17-.21-.28a2.57 2.57 0 0 1 0-.58l-.38.83h-.08v-.42z" fill="#e8ad8e"/><path d="m43.18 109.54-.26-.57-.09.63h-.09v-1.24l.26.3.24-.26v1.13z" fill="#edbf9c"/><path d="m43.13 111a4.07 4.07 0 0 1 0-.72c0-.11.16-.2.24-.3.08.11.21.21.24.33a1.28 1.28 0 0 1 0 .55 1.31 1.31 0 0 1 -.26.37z" fill="#f1cea8"/><path d="m48.61 108-.27-.47-.1.47h-.13v-1.1l.51.06z" fill="#edbf9c"/><path d="m47.47 108v-1.14c.42-.08.51 0 .48.35v.47s-.1.48-.48.32z" fill="#f1cea8"/><path d="m50.86 106.83c.35-.09.51 0 .48.39s0 .53 0 .79h-.12l-.1-.49h-.07l-.1.5h-.09z" fill="#edbf9c"/><path d="m46.28 108.87.06-.46h.09v1.29l-.29-.51-.08.4h-.06v-1.27z" fill="#edbf9c"/><path d="m51.45 108.38.22.19.19-.28v1.3l-.19-.15-.23.17z" fill="#edbf9c"/><path d="m45.34 107.31a.36.36 0 0 1 .28.52c0 .1-.2.17-.31.25-.07-.09-.19-.18-.2-.28 0-.27 0-.55 0-.83l.07.06zm0 .57h.06v-.35h-.06z" fill="#e8ad8e"/><path d="m50.08 109.58.16-1.13c.45.33.29.78.47 1.26-.26-.2-.42-.46-.63-.13z" fill="#edbf9c"/><path d="m49.41 108 .2-1.17h.16c-.11.37.6.63 0 1.09l-.1-.44-.15.55z" fill="#e8ad8e"/><path d="m45.24 109v.54c-.31.16-.5.1-.53-.27a1.29 1.29 0 0 1 0-.48 1.71 1.71 0 0 1 .26-.42l.26.43-.29-.23v.89h.11a1.45 1.45 0 0 1 0-.36s.12-.1.19-.1z" fill="#edbf9c"/><path d="m46.68 107.53-.06.49h-.11v-1.16a.29.29 0 0 1 .45.26c.04.14.15.48-.28.41z" fill="#edbf9c"/><path d="m48.76 109.17-.14.38c0-.44-.11-.87.38-1.2v1.24h-.07z" fill="#e8ad8e"/><path d="m48 110 .18.67.13-.67h.14l-.18 1.2h-.17l-.21-1.2z" fill="#edbf9c"/><path d="m15.05 101.92.7.87-.3.28a1.17 1.17 0 0 1 -.4-1.15z" fill="#f4dbb2"/><path d="m44.25 110.86.26.19c-.07-.23-.12-.36-.16-.49a1.15 1.15 0 0 1 -.15-.44c0-.08.2-.14.31-.21l.14.17-.19.06a4.9 4.9 0 0 1 .16.8c0 .09-.17.18-.26.27l-.2-.29z" fill="#edbf9c"/><path d="m44.51 106.93a1.81 1.81 0 0 1 .35 0v1.06h-.36a.75.75 0 0 0 .01-1.06z" fill="#f1cea8"/><path d="m45.25 110.76c-.15 0-.4 0-.41-.09a2 2 0 0 1 0-.64.3.3 0 0 1 .23-.06.3.3 0 0 1 .15.18v.62z" fill="#edbf9c"/><path d="m46.31 108c-.18-.16-.34-.31-.54 0l.19-.93c.43.2.28.6.35.93z" fill="#f1cea8"/><path d="m49.47 110.4c-.07-.05-.2-.12-.19-.16s.09-.23.17-.26.25.09.25.15a2.94 2.94 0 0 1 -.1.58c0 .14 0 .28-.06.46-.26 0-.3 0-.2-.3s.11-.3.16-.45 0-.14 0-.21h-.08z" fill="#edbf9c"/><path d="m40.9 109.44-.51.21a1.82 1.82 0 0 1 -.15-1.21h.12l.06 1.14.46-.51z" fill="#c93229"/><path d="m51.08 109.08-.2.54h-.1c0-.38 0-.76 0-1.14 0 0 .13-.06.2-.09 0 .23-.27.55.25.52v.17z" fill="#edbf9c"/><path d="m48.76 106.87.38-.06c-.29.22-.17.39-.06.63s0 .37-.1.61h-.21z" fill="#edbf9c"/><path d="m50.56 106.79v1.26s-.24 0-.24-.06a9.73 9.73 0 0 1 0-1.08s.17-.09.24-.12z" fill="#edbf9c"/><path d="m41.29 108.44c0 .34.08.68.08 1a1.31 1.31 0 0 1 -.39.08 2.62 2.62 0 0 0 .19-.46c.06-.19.08-.41.12-.62z" fill="#f1cea8"/><path d="m51.51 111.18.23-1.08h.07v1.11z" fill="#edbf9c"/><path d="m41.29 108.44c0 .21-.06.43-.12.64a2.62 2.62 0 0 1 -.19.46l-.08-.1v-.36-.17-.36l.19-.16.19.06z" fill="#edbf9c"/><path d="m51.67 108-.22-1.1.43.16-.13 1z" fill="#edbf9c"/><path d="m49.65 108.9.11-.51h.12v1.28l-.11-.25z" fill="#f1cea8"/><path d="m44.51 106.93a.75.75 0 0 1 0 1z" fill="#edbf9c"/><path d="m49.65 108.9.12.53h-.43v-.36l.18-.11z" fill="#de846c"/><path d="m35.63 121.42-.13-1h.15l.14 1z" fill="#e8ad8e"/><path d="m49.5 109-.18.11v.36.13-1.16h.11z" fill="#f4dbb2"/><path d="m51.25 109.08v-.17-.45l.19-.08v1.23h-.17z" fill="#cc3a30"/><path d="m48.76 106.87v1.13h-.16v-1z" fill="#cc3a30"/><path d="m45.24 109c-.07 0-.2 0-.2.09a1.45 1.45 0 0 0 0 .36h-.04v-.89l.29.23z" fill="#cc3a30"/><path d="m35.34 103.5h-.08-.13l-.05-.61.42.21z" fill="#d04b3e"/><path d="m51.26 108.46v.45c-.52 0-.29-.29-.25-.52z" fill="#e8ad8e"/><path d="m44.53 109.17a2.27 2.27 0 0 0 -.18-.25s-.12-.07-.18-.11l.07-.43h.16z" fill="#edbf9c"/><path d="m40.9 108.55v.36l-.33-.41.09-.06z" fill="#c93229"/><path d="m15.87 103.72.25-.15-.12.43z" fill="#f4dbb2"/><path d="m51.25 109.08v.54l-.19-.54z" fill="#e8ad8e"/><path d="m47 110.44v.35h-.08v-.35z" fill="#e8ad8e"/><path d="m46.61 111h.34l-.34.07z" fill="#de846c"/><path d="m45.34 107.31-.12-.3z" fill="#de846c"/><path d="m41.28 108.45-.19-.06z" fill="#f1cea8"/><path d="m42.41 108.55.1-.07h-.11z" fill="#d04b3e"/><path d="m33.64 121.16v.1c0 .29 0 .58.07.87h.17l.33 1s0 0 0 .07l.05-.06.15.41c-.24.18-.24.36 0 .53a1.89 1.89 0 0 0 .27 1.31 1.3 1.3 0 0 1 .11.46l-.55.19-.52.09-.69.26-.39.16-.29-.84.25.05h.07l.26.27.09-.18h.18a.35.35 0 0 0 -.36-.44v-.08l.08-.39v-.16h.38c.08.3.15.59.23.88 0 .07.11.12.18.17s.11-.07.11-.1a5 5 0 0 0 -.13-.79c0-.08-.19-.11-.29-.16l.15-.79-.52.12-.35.06-.08-.36.71-.28-.09-.24c0-.29 0-.61-.45-.63l-.27-.36-.08-.08c-.34-.06-.63-.17-.71-.56l-.07-1.17-.29-.17-.08-.35-.18-.26.26-.17.09.34v.12l-.07-.09v-.34l.43-.11h.46l.81-.07c-.13-.52-.37-.77-.82-.79v-.07-.13l-.06.09h-.27c.09-.32.19-.64.25-1 0-.16 0-.41-.09-.48s-.33 0-.5 0l-.5-.09-.55-1c.41-.27 0-.48 0-.71l-.24.18v-.45a2.79 2.79 0 0 0 -.57-2c-.22-.29-.36-.56 0-.82l-.2-.39-.05.09c-.09 0-.24-.09-.24-.13 0-.41-.25-.43-.54-.42l.11-.18c.43 0 .87-.09 1.31-.09a1.91 1.91 0 0 1 1.78 1.13c.55 1.2 1 2.44 1.5 3.66a3 3 0 0 1 .14 2 4.26 4.26 0 0 0 .08 3.32h-.06zm-2.36-5.81.08.1c.26.16 0 .74.56.68l-.19-.59.32-.07a2.9 2.9 0 0 0 -.07-.38c-.07-.19-.16-.37-.24-.55-.22.19-.34 0-.57-.23l.18.77-.09.1-.22-.1c0 .28 0 .28.24.27zm-.54-3-.11-.09a2.63 2.63 0 0 0 -.59-1.12l-.12.07.47 1.13.24.91.2-.13.19.29-.28.21v.11h.65v-.66h-.57l-.1-.71h.05s-.02-.02-.03 0zm1.86 8.21.21.2c.12.57.24 1.13.38 1.69h.31c-.12-.4-.22-.74-.35-1.09s-.19-.43-.29-.65v-.15c0-.74-.18-1-.53-.94 0 .15.11.29.15.44a4 4 0 0 1 .12.51zm-1.93-5.72-.14.07.22.37h.09zm3.14 9.49.1-.06-.14-.32-.12.06zm-2.55-8.47.11-.1-.2-.17-.06.06zm-.15-1.86.05-.1-.25-.06v.06zm.88 6.44h-.1l.11.21h.06zm2.17 5s-.06 0-.07 0 0 0 0 .07h.07s-.01-.07 0-.09zm-2.39-5.55s0-.05 0-.05 0 0-.06 0v.08zm2.3 5.22a.15.15 0 0 0 0 .07z" fill="#6e482c"/><path d="m33.41 115.82c-.49-1.22-.95-2.46-1.5-3.66a1.91 1.91 0 0 0 -1.78-1.16c-.44 0-.88.06-1.31.09-.22-.16-.3-.08-.3.16h-.06l-.48-.6-.32.41a.3.3 0 0 0 -.43-.26c-.24.16-.28 0-.41-.11s-.23 0-.35 0a1 1 0 0 0 0 .39c0 .07.17.1.26.14a.56.56 0 0 0 -.24.64l-.45.18-.1-.49-.17-.07c.14-.23 0-.29-.19-.36v-.24l.29-.72a5 5 0 0 0 .56-.82c.06-.13-.08-.37-.17-.53s-.2 0-.31 0l-.12-.22c.27-.07.56-.24.8-.18a12.1 12.1 0 0 1 1.58.59c.39.16.79.32 1.17.5s.48.25.72.38a1.35 1.35 0 0 0 .15.32c.08.07.22.07.3.14.53.38.64.35.81-.28h.15s0 0 0 0l.48-.66h.2l.3.59a1.08 1.08 0 0 0 .9.84 1.08 1.08 0 0 1 .89 1.06l-.16.42-.53-1-.37.2h.06a1.53 1.53 0 0 1 .26.31 4 4 0 0 1 .2.48c-.45-.13-.57 0-.46.46l-.13.17h.12v-.21c.33 0 .38.2.22.42l.29.34.29.31.27.44c.32.96-.44 1.19-.93 1.59zm.72-1.62-.2-.06-.36.52.43.34zm-6.91-4.55-.13.14.28.54h.14c0-.14.17-.32.12-.41s-.27-.18-.41-.27zm5.53.9s0 0 0 0z" fill="#c82b24"/><path d="m26.86 104.84c.1-.49.19-1 .31-1.48.2-.86.61-1.26 1.34-1.34a.4.4 0 0 1 .46.2 3.33 3.33 0 0 0 .71.63 2 2 0 0 1 .61.65 1.36 1.36 0 0 0 1.7.64l.07.09v.88l-.22-.12c.18-.41-.14-.35-.35-.41a1.73 1.73 0 0 0 -.52-.13c-.32 0-.73-.21-.9.24a1 1 0 0 1 .1.5c0 .23 0 .32.24.4a4 4 0 0 1 1.28.69l.23.19c0-.24.09-.43.11-.61a1 1 0 0 0 0-.3c.09 0 .26.1.25.14 0 .33-.09.66-.15 1l.25.08.53.35v.08l-.09.27h-.08v.52l-.19.17h-.09v-.37h-.32l-.09-.53.17-.36h-.12l-.15.24c-.35-.21-.7-.41-1-.63s-.39-.3-.61-.42-.39-.14-.57-.23a1.66 1.66 0 0 1 -.8-1.17 0 0 0 0 0 0-.06v-.13c0-.1 0-.21 0-.31 0-.76 0-.83-.85-.8l.42.67v.26l-.73-.87-.13.09.69.87a.13.13 0 0 1 0 .06l.14.45-.09.19h-.25l-.27.13.27.19h.08.09v.65l1.21.31-1.13 1.49c-.32-.44-1.1 0-1.35-.59l-.6-.08.37-.32.18-.13c.09-.11.28-.26.26-.33s-.16-.5-.51-.4l-.18-.68c.29-.07.28-.29.27-.52zm5.64 2.64h-.06l-.08.15h.07a1 1 0 0 0 .07-.15zm.07-.23a.1.1 0 0 0 0 0s-.01 0 0 0z" fill="#c93027"/><path d="m32.37 125.75a1.9 1.9 0 0 1 -.28-.29c-.47-1-.93-2-1.38-2.95a5.23 5.23 0 0 1 -.4-1.15 1.84 1.84 0 0 0 -1-1.28 4.14 4.14 0 0 1 -.46-.39 2.11 2.11 0 0 1 .26 0c.17 0 .33.06.5.09v-.13l-.4-.57-.07.29c-.09-.24-.16-.46-.26-.67a2.8 2.8 0 0 0 -.25-.35s.12-.1.11-.11-.2-.3-.3-.45l-.34.2-.26-.62-.29-.09-.06.12.53 1.12h.18l.18.07c-.16.31.08.49.23.71a2.33 2.33 0 0 1 .2.34 3 3 0 0 1 -1.38-1.93c-.4-1.07-.73-2.18-1.09-3.28 0-.12-.06-.25-.09-.38h.14l.79 2.26h.12c-.08-.31-.15-.62-.24-.92-.16-.53-.33-1.05-.49-1.58l.53-1 .45-.46c.1.26.18.53.29.79 0 .08 0 .35.24.12v.26l-.36.06.44.2.17.37v.07c-.29.28.1.33.15.49s-.3.52.21.58v.69l.26.27v.24c-.05.1-.16.21-.14.28.17.51.36 1 .58 1.65l.3-.39h.35c-.19.19-.48.35-.2.76l.62-.67.28-.35h.26l.24-.14v-.23l.19.1v-.11h-.2l-.07-.18.42-.27c.12.22.27.43 0 .65-.07 0-.05.21-.07.32h-.21v.07l.27.07v.17h-.39a1.28 1.28 0 0 0 -1.18 1.66v.23l-.06.16h.16l.18-.09.09-.09h.17a3.16 3.16 0 0 0 .09.76c.21.55.47 1.09.7 1.63a2.65 2.65 0 0 0 .89 1.71 5.63 5.63 0 0 0 .07.65 1.78 1.78 0 0 0 .14.36h-.21zm-.28-.82v-.13z" fill="#6f4a2e"/><path d="m26.86 104.84c0 .23 0 .45-.26.54s-.47-.14-.46.24c-.37-.06-.75.27-.69.58a4.11 4.11 0 0 1 0 .61l.67.63a4.5 4.5 0 0 0 -.55.22 1.16 1.16 0 0 0 -.29.25c-.16.18-.3.38-.45.56l-.49-.68h-.07l1 3h-.06c-.08-.13-.17-.26-.24-.4-.28-.58-.54-1.16-.81-1.74s-.41-1-.6-1.43a4.18 4.18 0 0 1 -.1-.51l.34.54.06.2h.06l-.1-.19.49-1a4.52 4.52 0 0 1 2.55-1.42z" fill="#764a2f"/><path d="m24.68 113.86-.1-1.5h.29l.39-.76.12.21.14-.22.27-.17v.78l-.1.61-.28.17h-.33l.21-.24-.44-.15-.1.09.5.54c-.12.44.21.36.44.38l.28.15.43.19-.07.15c-.6.31-1.11 0-1.63-.25z" fill="#c82b24"/><path d="m32.42 106.79-.25-.08c.06-.36.12-.69.15-1 0 0-.16-.09-.25-.14l.16-.41h-.09v-.88h.1l.92.74v.49s0 .42 0 .63.17.66-.27.8z" fill="#f6e4ba"/><path d="m29.42 97.41a1.38 1.38 0 0 0 .64 1 1.49 1.49 0 0 1 .51.66l-.52.78-.34-.13v-.16l.1-.06h-.12a4.9 4.9 0 0 1 -.62-.89 1 1 0 0 1 .36-1.13z" fill="#c93229"/><path d="m32.51 108.82a2.08 2.08 0 0 1 .66.27c.17.14.24.37.52.21a.6.6 0 0 0 .38-.67c0-.14-.07-.27-.14-.49a.69.69 0 0 1 .4.68v.81s0 .37-.25.46a.86.86 0 0 1 -1.08-.45c0-.07-.08-.14-.18-.32l-.07.45-.28-.77z" fill="#d04b3e"/><path d="m33.14 106.08c0-.21 0-.42 0-.63s0-.32 0-.49v-.32l.6.3.09.09v.17s-.09.12-.08.15c.13.33.39.62.29 1l.23.06a3 3 0 0 0 -.2.34 1.37 1.37 0 0 0 -.07.29l-.08.3h-.19a1.58 1.58 0 0 0 -.59-1.26z" fill="#d86b57"/><path d="m33.93 107.35.08-.3c.42-.36.66-.37 1 0v-.23l.2.27c.05.07.06.18.12.21s.14 0 .21-.07c0 1 0 1.19-.41 1.35a9 9 0 0 1 -.43-.81 1.24 1.24 0 0 1 0-.39h.14v-.06h-.18z" fill="#cc3a30"/><path d="m34.26 126.07.55-.19a1.56 1.56 0 0 1 .19 1.23l-.1.1-.43.08a.24.24 0 0 1 0-.08l-.09-.26-.26-.08c0-.22-.05-.5.33-.51zm.5.91s0 0 0 0z" fill="#795639"/><path d="m33.14 106.08a1.58 1.58 0 0 1 .6 1.29c-.28 0-.36.16-.36.4h-.33l-.27-.27h.08l.09-.27v-.08l-.08-.26c.44-.15.26-.51.27-.81z" fill="#c93229"/><path d="m34.28 106.42-.23-.06c.1-.4-.16-.69-.29-1 0 0 .05-.1.08-.15l.12-.11-.13-.06-.09-.09c.06-.32 0-.53-.47-.49l.34-.43c.27.26.58.43.44.85 0 0 .11.15.17.22l.42.61-.45-.4h-.17l.05.21z" fill="#f1cea8"/><path d="m34.05 105.34h.17l.45.4c.11.36.23.72.35 1.08v.23c-.3-.33-.54-.32-1 0a1.37 1.37 0 0 1 .07-.29 3 3 0 0 1 .2-.34l-.18-.87z" fill="#d04b3e"/><path d="m33.31 112.8c-.11-.48 0-.59.46-.46l.16.19v.17l.05.18c.06.21.11.42.16.63l-.08.35-.29-.31-.29-.34c.16-.22.11-.38-.22-.42z" fill="#d86b57"/><path d="m32.51 108.82v.18l-.47.19h-.17l-.11-.12a.48.48 0 0 0 -.08-.61c.23-.08.48-.15.53-.45l.36.17h.09z" fill="#edbf9c"/><path d="m31.53 101.31v-.09l.38-.22-.19-.23h.28v-.06h-.37l.2-.46c.32.24.79.33.68.91l-.17-.27-.11-.14-.06.15c-.3.29-.09.38.18.44-.16.43-.42.5-.73.18z" fill="#e8ad8e"/><path d="m23.51 113.32a3.65 3.65 0 0 1 .07-.46c.06-.25.17-.48.23-.73s.21-.47.58-.24l-.3.9z" fill="#c93229"/><path d="m32.66 126.58.39-.16.45.87v.1l-.35.11-.12.15h-.23c0-.16-.09-.31-.14-.47s-.3-.4 0-.6z" fill="#795639"/><path d="m34.9 127.21.1-.1a1 1 0 0 1 .23.23c0 .07.06.22 0 .25a5.08 5.08 0 0 1 -.61.42v-.17l-.45.13-.14-.17.1-.11c.12 0 0-.39.26-.13l.1-.22.43-.08z" fill="#a18764"/><path d="m24.19 108.72c.27.58.53 1.16.81 1.74.07.14.16.27.24.4a1.41 1.41 0 0 1 0 .2c-.1 0-.28 0-.31-.08-.27-.66-.53-1.33-.79-2-.01-.08.04-.17.05-.26z" fill="#c93229"/><path d="m34 127.75.14.17c0 .19 0 .29-.22.33-.75.14-.92.06-1.13-.6h.51v.1l.08.23.27-.23h.25z" fill="#856647"/><path d="m23.51 113.32.58-.53c0 .13.07.26.11.4s.1.31.13.47-.08.07-.13.11l-.3-.22-.3.51v-.41h-.23z" fill="#edbf9c"/><path d="m23.33 113.68h.23v.41l.3-.51.3.22c-.09.35-.14.74-.68.76z" fill="#e8ad8e"/><path d="m33.93 112.53-.16-.19a4 4 0 0 0 -.2-.48 1.53 1.53 0 0 0 -.26-.31l.37-.2.53 1 .17.12-.09.26z" fill="#f1cea8"/><path d="m25.79 111.47-.27.17h-.26l-.39.76h-.29c.14-.29.26-.59.42-.87 0-.06.17-.07.26-.11l.06.12s.06 0 .06 0a.31.31 0 0 0 -.05-.1v-.08a2.09 2.09 0 0 0 .14-.17h.1c.18-.01.36.05.22.28z" fill="#d45a4a"/><path d="m31.71 100.77.19.23-.38.22-.59-.26v-.16l.68-.07h.09z" fill="#f1cea8"/><path d="m32.37 125.75-.13-.63h.21.11l.3.2v.08l.18.44-.09.18-.26-.27h-.07l-.25-.05z" fill="#856647"/><path d="m33.14 104.64v.32l-.92-.74c.43-.17.6-.09.92.42z" fill="#d45a4a"/><path d="m32.45 109c.09.26.18.51.28.77v.18h-.19l-.3-.59z" fill="#f1cea8"/><path d="m30.93 101 .1.49-.19.14-.7-.19v-.1l.77-.36z" fill="#f1cea8"/><path d="m34.1 113.86.08-.35a.78.78 0 0 1 .41 1l-.22-.17z" fill="#f1cea8"/><path d="m31 101.85.71.2-.17.49-.55-.6z" fill="#cc3a30"/><path d="m34.65 112.27.17-.72c.4.11.21.47.24.72z" fill="#de846c"/><path d="m28.37 121a2.77 2.77 0 0 1 -.19.25l-.58-.8z" fill="#de846c"/><path d="m30.14 101.3v.1l-.1.26-.45-.3.41-.36z" fill="#de846c"/><path d="m34.65 112.27h.41c-.14.4-.46.13-.69.18l-.17-.12c0-.14.1-.28.16-.42z" fill="#d45a4a"/><path d="m29.71 99.7.34.13-.2.6h-.09z" fill="#d45a4a"/><path d="m33.91 122.17c-.06 0-.17 0-.17 0 0-.29-.05-.58-.07-.87z" fill="#6f4a2e"/><path d="m30.91 100.78-.34-.14a2.16 2.16 0 0 1 .1-.25 1.52 1.52 0 0 1 .21-.19c0 .23 0 .39.06.55z" fill="#f1cea8"/><path d="m32.78 107.49.27.27-.26.27z" fill="#cc3a30"/><path d="m34.43 124.11c-.24-.17-.24-.35 0-.53z" fill="#6f4a2e"/><path d="m32.34 101.31c-.27-.06-.48-.15-.18-.44l.17.34v.09z" fill="#f1cea8"/><path d="m35.24 103.6v.62l-.11-.62z" fill="#d04b3e"/><path d="m34.29 113.24v-.36h.12v.36z" fill="#f1cea8"/><path d="m28.33 121.26.19.21-.07.07-.19-.22z" fill="#de846c"/><path d="m25.5 111.11-.14.17-.11-.22v-.2h.06z" fill="#764a2f"/><path d="m15.86 103.4-.16-.3h.08l.16.28z" fill="#f4dbb2"/><path d="m34 112.88v-.18h.31z" fill="#f1cea8"/><path d="m29.42 97.42.08-.2h.05l-.13.15z" fill="#c93229"/><path d="m32.16 100.87.06-.15.11.14z" fill="#f1cea8"/><path d="m32 104.13.08-.13z" fill="#d45a4a"/><path d="m34.64 128-.17.08v-.05l.16-.08z" fill="#a18764"/><path d="m25.33 111.36a.31.31 0 0 1 .05.1s0 0-.06 0l-.06-.12a.08.08 0 0 1 .07.02z" fill="#c93229"/><path d="m34.93 121v-.18z" fill="#c72721"/><path d="m24.69 113.86-.21.07v-.05h.21z" fill="#edbf9c"/><path d="m31.53 101.31.08.18z" fill="#f1cea8"/><path d="m23.49 106.78s0 0 0 0z" fill="#764a2f"/><path d="m29.68 99.44h.12l-.1.06z" fill="#d45a4a"/><path d="m32.79 110 .06.11z" fill="#f1cea8"/></g><path d="m21.7 97.66-.03.01v-.02z" fill="#de846c"/><path d="m23.18 97.29.01.03-.03-.01z" fill="#f1cea8"/><path d="m35.24 103.6h-.1v-.1h.13a.19.19 0 0 0 -.03.1z" fill="#c72721" transform="translate(-8.23 -4.13)"/><path d="m25.15 103.64h.02-.01z" fill="#c93229"/><path d="m34.28 123.17-.05.06s0 0 0-.07z" fill="#6f4a2e" transform="translate(-8.23 -4.13)"/><path d="m35.83 111.69v-.11h.05z" fill="#c72721" transform="translate(-8.23 -4.13)"/><path d="m33.64 121.16h-.07.06a.09.09 0 0 1 .01 0z" fill="#6f4a2e" transform="translate(-8.23 -4.13)"/><path d="m38.31 127.81v-2.22c.75-.18 1 0 1 .74v.75c-.03.74-.23.92-1 .73z" fill="#c93229" transform="translate(-8.23 -4.13)"/><path d="m45.39 131.61v-6.05c.72-.08 1 .1 1 .77v4.49c0 .73-.22.88-1 .79z" fill="#c93027" transform="translate(-8.23 -4.13)"/><path d="m47.32 99.24c.07.12.2.23.21.36s.09.52-.34.52v-.82z" fill="#cc3a30" transform="translate(-8.23 -4.13)"/><path d="m45.06 103.75c0-.29 0-.58 0-.87 0-.07.12-.14.18-.21s.17.14.17.21v1.76c0 .07-.1.15-.16.22s-.18-.15-.19-.23c0-.29 0-.58 0-.88z" fill="#c93027" transform="translate(-8.23 -4.13)"/><path d="m51 102.67c.38-.06.35.2.35.41s0 .46-.35.41z" fill="#c93229" transform="translate(-8.23 -4.13)"/><path d="m46.75 103.51v-.81l.1-.08c.08.1.23.2.23.3s.15.56-.33.59z" fill="#c93229" transform="translate(-8.23 -4.13)"/><path d="m43.51 103.69v-1c.42 0 .36.28.36.48s.13.54-.36.52z" fill="#cc3a30" transform="translate(-8.23 -4.13)"/><path d="m44.2 100.28a6.94 6.94 0 0 1 0-.79c0-.07.14-.14.22-.2a2.48 2.48 0 0 1 .15.64c0 .15-.14.29-.22.44z" fill="#cc3a30" transform="translate(-8.23 -4.13)"/><path d="m16.83 123.78a5.9 5.9 0 0 1 0-2 2 2 0 0 1 0 2z" fill="#cc3a30" transform="translate(-8.23 -4.13)"/><path d="m18.22 123.61v-.79c.38 0 .34.25.32.45a2 2 0 0 1 -.18.44z" fill="#cc3a30" transform="translate(-8.23 -4.13)"/><path d="m18.38 121.8a1.84 1.84 0 0 1 .13.44c0 .1-.11.21-.18.32l-.1-.06v-.65z" fill="#d04b3e" transform="translate(-8.23 -4.13)"/><path d="m19.64 122.17a2 2 0 0 1 .1.31c0 .23.06.46.09.69-.31.05-.31.05-.19-1z" fill="#d04b3e" transform="translate(-8.23 -4.13)"/><path d="m15.69 121.85v1.72s-.22 0-.25 0a3.18 3.18 0 0 1 .12-1.72z" fill="#cc3a30" transform="translate(-8.23 -4.13)"/><path d="m43.79 107-.15.31-.14-.13.22-.24z" fill="#c72721" transform="translate(-8.23 -4.13)"/><path d="m45.35 107.88v-.35h.06v.35z" fill="#c82b24" transform="translate(-8.23 -4.13)"/><path d="m49.47 110.4v-.2h.08v.21z" fill="#c72721" transform="translate(-8.23 -4.13)"/><path d="m28.18 113.6v-.26c-.06-.42.25-.72.35-1.08l.08-.18v-.18l-.34.19h-.1v-.34l.18-.09.1-.09.27-.27c.29 0 .56 0 .54.42 0 0 .15.09.24.13l.05-.09.2.39c-.38.26-.24.53 0 .82a2.79 2.79 0 0 1 .57 2l-1.05-.14v-.34a3.14 3.14 0 0 1 -.39 0l-.45-.17v-.07l.19-.11.19.16v-.11h-.23l-.36-.26z" fill="#baa580" transform="translate(-8.23 -4.13)"/><path d="m31.35 122.44c-.23-.54-.49-1.08-.7-1.63a3.16 3.16 0 0 1 -.09-.76.28.28 0 0 0 0-.09 0 0 0 0 1 0 0h-.06l-.17.09-.09.09-.18.09-.1-.12v-.23l.75-.14h.3l.18.26.08.35.29.17.07 1.17h-.15.15c.08.39.37.5.71.56l.08.08.27.36s0 0 0 0c.42 0 .42.34.45.63l-.17.14.26.1-.71.28c-.27-.42-.56-.83-.79-1.27-.05-.24-.15-.3-.38-.13z" fill="#a18764" transform="translate(-8.23 -4.13)"/><path d="m31.1 119.7h-.3a.25.25 0 0 0 0-.07v.08l-.75.14a1.28 1.28 0 0 1 1.18-1.51h.39l.37.1h.27a.08.08 0 0 0 .07 0v.07l.31.5-.4.27-.36.1-.43.11h-.09z" fill="#f9edc1" transform="translate(-8.23 -4.13)"/><path d="m31.35 122.44c.23-.17.33-.11.46.14.23.44.52.85.79 1.27l.08.36.24.6v.16l-.38.19h-.11a1.78 1.78 0 0 1 -.14-.36 5.63 5.63 0 0 1 -.07-.65 2.65 2.65 0 0 1 -.87-1.71z" fill="#f7e7bd" transform="translate(-8.23 -4.13)"/><path d="m28.43 114.3.45.17a3.14 3.14 0 0 0 .39 0v.34l1.05.14v.45l-.32-.15c-.13.08-.18.49-.36.07l.14-.11-.11.13a1.12 1.12 0 0 1 -.31-.1c-.21-.13-.37-.11-.49.11-.51-.06-.16-.38-.21-.58s-.52-.19-.23-.47z" fill="#af9874" transform="translate(-8.23 -4.13)"/><path d="m34.47 127.29-.1.22c-.23-.26-.14.15-.26.13l-.37-.35h-.24l-.45-.87.69-.26-.34.87.7-.16.26.08.09.26a.24.24 0 0 0 .02.08z" fill="#ece2b7" transform="translate(-8.23 -4.13)"/><path d="m32 118.46-.37-.1v-.17l-.06-.18c0-.11 0-.27.07-.32.29-.22.14-.43 0-.65.17 0 .39-.09.5 0s.11.32.09.48c-.07.3-.17.62-.23.94z" fill="#ece2b7" transform="translate(-8.23 -4.13)"/><path d="m30.57 116c.18.32.37.64.55 1v.09l-.52-.17.26-.13v-.09l-.29.13-.35.17a.28.28 0 0 1 0-.09v-.14c.07-.19.12-.38.2-.56a.82.82 0 0 1 .15-.21z" fill="#baa580" transform="translate(-8.23 -4.13)"/><path d="m34.1 126.87-.7.16.34-.87.52-.09.17.29c-.38.01-.31.29-.33.51z" fill="#af9874" transform="translate(-8.23 -4.13)"/><path d="m32.86 120.75c.1.22.21.43.29.65s.23.69.35 1.09c-.14 0-.31 0-.31 0-.14-.56-.26-1.12-.38-1.69z" fill="#ece2b7" transform="translate(-8.23 -4.13)"/><path d="m31.35 115.08-.18-.77c.23.2.35.42.57.23.08.18.17.36.24.55a2.9 2.9 0 0 1 .07.38l-.32.07a3.75 3.75 0 0 0 -.16-.43s-.14-.02-.22-.03z" fill="#856647" transform="translate(-8.23 -4.13)"/><path d="m32.24 119.32.4-.27-.31-.5c.45 0 .69.27.82.79l-.81.07z" fill="#cab992" transform="translate(-8.23 -4.13)"/><path d="m30.84 113.06h.57v.66h-.65v-.11l.28-.21-.19-.29a.09.09 0 0 1 -.01-.05z" fill="#795639" transform="translate(-8.23 -4.13)"/><path d="m30.57 116a.82.82 0 0 0 -.25.19c-.08.18-.13.37-.2.56l-.07-.3.19-.81.06-.1v-.08l.24-.18c0 .22.46.43.03.72z" fill="#795639" transform="translate(-8.23 -4.13)"/><path d="m31.35 115.08h.22a3.75 3.75 0 0 1 .16.43l.19.59c-.56.06-.3-.52-.56-.68l-.08-.1v-.17z" fill="#af9874" transform="translate(-8.23 -4.13)"/><path d="m33 124.15.52-.12-.15.79h-.27z" fill="#a18764" transform="translate(-8.23 -4.13)"/><path d="m30.39 112.35-.47-1.13.12-.07a2.63 2.63 0 0 1 .59 1.12z" fill="#baa580" transform="translate(-8.23 -4.13)"/><path d="m32.6 120.57a4 4 0 0 0 -.11-.47c0-.15-.1-.29-.15-.44.35-.1.5.2.53.94z" fill="#ece2b7" transform="translate(-8.23 -4.13)"/><path d="m33.3 124.82h.1c.1.05.27.08.29.16a5 5 0 0 1 .13.79s-.1.1-.11.1-.16-.1-.18-.17c-.08-.29-.15-.58-.23-.88z" fill="#af9874" transform="translate(-8.23 -4.13)"/><path d="m30.39 112.35.24-.08.11.09.1.71a.09.09 0 0 0 0 .07l-.2.13z" fill="#af9874" transform="translate(-8.23 -4.13)"/><path d="m33 124.15.1.67h-.21l-.24-.6z" fill="#af9874" transform="translate(-8.23 -4.13)"/><path d="m31.08 117v-.09l.5.09-.42.27z" fill="#795639" transform="translate(-8.23 -4.13)"/><path d="m33 125.88-.18-.44a.35.35 0 0 1 .36.44z" fill="#6f4a2e" transform="translate(-8.23 -4.13)"/><path d="m30.67 114.85.17.4h-.09l-.22-.37z" fill="#795639" transform="translate(-8.23 -4.13)"/><path d="m32.56 125.16.38-.19-.08.39z" fill="#6f4a2e" transform="translate(-8.23 -4.13)"/><path d="m33.81 124.34-.16-.32.12-.06.14.32z" fill="#6f4a2e" transform="translate(-8.23 -4.13)"/><path d="m32.24 119.32.1.09h-.46z" fill="#6f4a2e" transform="translate(-8.23 -4.13)"/><path d="m31.26 115.18v.17c-.24 0-.24 0-.24-.27z" fill="#795639" transform="translate(-8.23 -4.13)"/><path d="m28.52 111.28c0-.24.08-.32.3-.16a1.74 1.74 0 0 0 -.11.18h-.19z" fill="#d86b57" transform="translate(-8.23 -4.13)"/><path d="m33.31 123.57-.26-.1.17-.14z" fill="#6f4a2e" transform="translate(-8.23 -4.13)"/><path d="m31.26 115.87-.15-.21.06-.06.2.17z" fill="#795639" transform="translate(-8.23 -4.13)"/><path d="m31.36 120.31-.08-.35z" fill="#795639" transform="translate(-8.23 -4.13)"/><path d="m31.11 114-.22-.1v-.06l.25.06z" fill="#795639" transform="translate(-8.23 -4.13)"/><path d="m32.6 120.57h.27v.15z" fill="#6f4a2e" transform="translate(-8.23 -4.13)"/><path d="m32 120.46.07.21h-.06l-.11-.21z" fill="#6f4a2e" transform="translate(-8.23 -4.13)"/><path d="m31.36 119.53h.09v.34z" fill="#795639" transform="translate(-8.23 -4.13)"/><path d="m34.16 125.42s0 .06 0 .07h-.07s0-.06 0-.07.04-.01.07 0z" fill="#6f4a2e" transform="translate(-8.23 -4.13)"/><path d="m31.77 119.87h-.05v-.08s0 0 .06 0-.02.06-.01.08z" fill="#795639" transform="translate(-8.23 -4.13)"/><path d="m34.07 125.09v.06a.15.15 0 0 1 0-.07z" fill="#6f4a2e" transform="translate(-8.23 -4.13)"/><path d="m31.72 121.7h-.15z" fill="#6f4a2e" transform="translate(-8.23 -4.13)"/><path d="m32.31 118.48a.08.08 0 0 1 -.07 0l.06-.09z" fill="#a18764" transform="translate(-8.23 -4.13)"/><path d="m31.45 119.87.07.09v-.12z" fill="#795639" transform="translate(-8.23 -4.13)"/><path d="m31.28 115.35.08.1z" fill="#795639" transform="translate(-8.23 -4.13)"/><path d="m30.74 112.36s0 0 0 0h-.05z" fill="#af9874" transform="translate(-8.23 -4.13)"/><path d="m32.51 122.34-.08-.08z" fill="#6f4a2e" transform="translate(-8.23 -4.13)"/><path d="m32.15 108c0 .3-.3.37-.53.45-.57.12-.83 0-.91-.4l.23-.13-.36-.2c0-.12 0-.23-.05-.34v-.26h.16v-.12l-.27.08c-.22.21-.45.4-.65.63a.58.58 0 0 0 0 .87c.22-.27.26-.68.7-.7l-.47.85.47.42-.36.69c-.24-.13-.47-.27-.72-.38s-.78-.34-1.17-.5a12.1 12.1 0 0 0 -1.58-.59c-.24-.06-.53.11-.8.18l.12.22s0 0 0 0c.11 0 .29-.06.31 0s.23.4.17.53a5 5 0 0 1 -.56.82 2.62 2.62 0 0 1 -.74-1.06 2.09 2.09 0 0 0 -.08-.23l-.24-.39c.15-.18.29-.38.45-.56a1.16 1.16 0 0 1 .29-.25 4.5 4.5 0 0 1 .55-.22l.36-.2.6.08c.25.6 1 .15 1.35.59l1.13-1.49-1.21-.31v-.65l.54-.17-.28-.38c0-.12 0-.23 0-.35l.09-.07h.31v.13h-.23.25a1.66 1.66 0 0 0 .8 1.17c.18.09.39.13.57.23s.4.29.61.42.69.42 1 .63l.1.17.09.53z" fill="#f7e7bd" transform="translate(-8.23 -4.13)"/><path d="m27.64 112.43-.45.46-.3-.14c-.1.27-.1.27-.3.13l-.12-.21-.15.13-.12-.08c.3-.22.18-.59.31-.87a.56.56 0 0 1 .24-.64l.75.2.16-.23c.18.17.37.34.15.61 0 0 .06.09.09.13s0 0 0 .08z" fill="#edbf9c" transform="translate(-8.23 -4.13)"/><path d="m30.12 109.88.36-.69.17.07.1.25.28-.14.07-.2.18-.17.22-.14.05.06v.16l-.19 1c-.17.63-.28.66-.81.28-.08-.07-.22-.07-.3-.14a1.35 1.35 0 0 1 -.13-.34z" fill="#f6e4ba" transform="translate(-8.23 -4.13)"/><path d="m26.51 111.85c-.13.28 0 .65-.31.87l.12.08c-.1.27 0 .65-.37.79h-.25c-.23 0-.56.06-.44-.38l.16-.2.28-.17c.17.08.35.16.25-.17 0-.15-.1-.29-.15-.44v-.52l.17-.19.1.49z" fill="#de846c" transform="translate(-8.23 -4.13)"/><path d="m24.83 108.47.24.39a2.09 2.09 0 0 1 .08.23c-.36-.06-.17.22-.15.3a6.1 6.1 0 0 0 .28.82c.09.23.21.44.32.66v.24h-.1l-.2-.28c-.35-1-.69-2-1-3h.07z" fill="#af9874" transform="translate(-8.23 -4.13)"/><path d="m25.6 110.87c-.11-.22-.23-.43-.32-.66a6.1 6.1 0 0 1 -.28-.82c0-.08-.21-.36.15-.3a2.62 2.62 0 0 0 .74 1.06z" fill="#764a2f" transform="translate(-8.23 -4.13)"/><path d="m27.66 111.18-.16.23-.75-.2c-.09 0-.23-.07-.26-.14a1 1 0 0 1 0-.39h.35s.17.27.41.11a.3.3 0 0 1 .43.26.11.11 0 0 0 -.02.13z" fill="#de846c" transform="translate(-8.23 -4.13)"/><path d="m27.66 111.18a.11.11 0 0 1 0-.08l.32-.41.48.6a2.45 2.45 0 0 1 0 .27l-.1.09-.18.09-.28.18s-.1-.12-.09-.13c.19-.27.03-.44-.15-.61z" fill="#d86b57" transform="translate(-8.23 -4.13)"/><path d="m34.13 114.2-.13.8-.42-.33.36-.52z" fill="#d45a4a" transform="translate(-8.23 -4.13)"/><path d="m27.22 109.65c.14.09.34.15.41.28s-.07.27-.12.41h-.14l-.28-.54z" fill="#d86b57" transform="translate(-8.23 -4.13)"/><path d="m32.07 109.44-.48.66s0 0 0 0l.28-.79.17-.1z" fill="#f3d7b0" transform="translate(-8.23 -4.13)"/><path d="m31.81 109.27-.28.79h-.15l.19-1h.13l.11.12z" fill="#d45a4a" transform="translate(-8.23 -4.13)"/><path d="m32.07 109.44-.09-.26.47-.19-.18.43z" fill="#d04b3e" transform="translate(-8.23 -4.13)"/><path d="m28.44 111.56a2.45 2.45 0 0 0 0-.27h.25z" fill="#6e482c" transform="translate(-8.23 -4.13)"/><path d="m26 111.54-.17.19v-.26z" fill="#c93229" transform="translate(-8.23 -4.13)"/><path d="m33.3 112.79v.21h-.12l.13-.17z" fill="#d86b57" transform="translate(-8.23 -4.13)"/><path d="m32.75 110.55s0 0 0 0z" fill="#f1cea8" transform="translate(-8.23 -4.13)"/><path d="m33.31 111.55h-.06z" fill="#f1cea8" transform="translate(-8.23 -4.13)"/><path d="m32.14 105.1h.09l-.16.41a1 1 0 0 1 0 .3c0 .18-.06.37-.11.61l-.23-.19a4 4 0 0 0 -1.28-.69c-.24-.08-.28-.17-.24-.4a1 1 0 0 0 -.1-.5c.17-.45.58-.2.9-.24a1.73 1.73 0 0 1 .52.13c.21.06.53 0 .35.41z" fill="#de846c" transform="translate(-8.23 -4.13)"/><path d="m26.48 107.24-.36.2-.67-.63a4.11 4.11 0 0 0 0-.61c-.06-.31.32-.64.69-.58a3.89 3.89 0 0 0 .28.39.66.66 0 0 0 .25.07c.36.11.34.43.36.71l-.18.13z" fill="#af9874" transform="translate(-8.23 -4.13)"/><path d="m29 104.49h-.25l-.19-.44-.42-.67c.81 0 .88 0 .85.8.01.1.01.21.01.31z" fill="#f1cea8" transform="translate(-8.23 -4.13)"/><path d="m26.67 106.08a.66.66 0 0 1 -.25-.07 3.89 3.89 0 0 1 -.28-.39c0-.38.27-.22.46-.24l.18.68z" fill="#856647" transform="translate(-8.23 -4.13)"/><path d="m28.37 104.4-.69-.87.13-.09.73.87z" fill="#de846c" transform="translate(-8.23 -4.13)"/><path d="m26.67 106.08h.11c.35-.1.43.19.51.4s-.17.22-.26.33c-.03-.3-.03-.62-.36-.73z" fill="#f1cea8" transform="translate(-8.23 -4.13)"/><path d="m28.61 104.91.28.38-.54.17h-.09l.17-.34.09-.19z" fill="#f3d7b0" transform="translate(-8.23 -4.13)"/><path d="m32.87 106.88.08.26-.53-.35z" fill="#cc3a30" transform="translate(-8.23 -4.13)"/><path d="m32.15 108v-.18h.32v.37z" fill="#cc3a30" transform="translate(-8.23 -4.13)"/><path d="m32.08 107.31-.1-.17.15-.24h.12z" fill="#cc3a30" transform="translate(-8.23 -4.13)"/><path d="m28.37 104.4.17-.09v-.26l.19.44-.09.07-.24-.1a.13.13 0 0 0 -.03-.06z" fill="#f3d7b0" transform="translate(-8.23 -4.13)"/><path d="m28.38 104.46.24.1v.35h-.09z" fill="#de846c" transform="translate(-8.23 -4.13)"/><path d="m28.18 105.44-.27-.19.27-.13z" fill="#f3d7b0" transform="translate(-8.23 -4.13)"/><path d="m28.18 105.44v-.32h.25l-.17.34h-.08z" fill="#f7e7bd" transform="translate(-8.23 -4.13)"/><path d="m32.5 107.48a1 1 0 0 1 -.07.15h-.07l.08-.15z" fill="#cc3a30" transform="translate(-8.23 -4.13)"/><path d="m33 107.22-.09.27z" fill="#cc3a30" transform="translate(-8.23 -4.13)"/><path d="m29 104.69h-.25.22a0 0 0 0 1 .03 0z" fill="#f3d7b0" transform="translate(-8.23 -4.13)"/><path d="m28.93 104.63h-.22.23z" fill="#f1cea8" transform="translate(-8.23 -4.13)"/><path d="m32.57 107.25s0 0 0 0a.1.1 0 0 1 0 0z" fill="#cc3a30" transform="translate(-8.23 -4.13)"/><path d="m26.85 106.92.18-.13z" fill="#f1cea8" transform="translate(-8.23 -4.13)"/><path d="m31.08 117 .12.27.07.18v.23l-.24.14h-.09v-.06.06l-.28.35-.32-.24-.1.15h-.35a1.61 1.61 0 0 0 .17-1l.18-.17.35-.17.07.09z" fill="#af9874" transform="translate(-8.23 -4.13)"/><path d="m30.27 115.44v.08l-.06.1c-.06.27-.13.54-.19.81-.07-.1-.22-.21-.21-.3.07-.54-.2-.35-.47-.24l.21.27-.34.18h-.17l-.26-.27v-.69c.12-.22.28-.24.49-.11a1.12 1.12 0 0 0 .31.1c.18.42.23 0 .36-.07z" fill="#cab992" transform="translate(-8.23 -4.13)"/><path d="m30 117.12a1.61 1.61 0 0 1 -.17 1l-.3.39c-.22-.62-.41-1.14-.58-1.65 0-.07.09-.18.14-.28.21.1 0 .57.45.46l.37-.08z" fill="#ece2b7" transform="translate(-8.23 -4.13)"/><path d="m28.7 118.37a2.8 2.8 0 0 1 .25.35c.1.21.17.43.26.67l.07-.29.4.57v.13c-.17 0-.33-.07-.5-.09a2.11 2.11 0 0 0 -.26 0 2.33 2.33 0 0 0 -.2-.34c-.15-.22-.39-.4-.23-.71z" fill="#ece2b7" transform="translate(-8.23 -4.13)"/><path d="m26 113.59c.38-.14.27-.52.37-.79l.27.08c.2.14.2.14.3-.13l.3.14-.53 1-.16.1h-.09l-.43-.19z" fill="#f4dbb2" transform="translate(-8.23 -4.13)"/><path d="m27.64 112.43.28-.43.24.08h.1l.26.17c-.1.36-.41.66-.35 1.08-.22.23-.2 0-.24-.12-.11-.21-.19-.52-.29-.78z" fill="#af9874" transform="translate(-8.23 -4.13)"/><path d="m26.5 114 .16-.1c.16.53.33 1.05.49 1.58.09.3.16.61.24.92h-.12l-.79-2.26z" fill="#af9874" transform="translate(-8.23 -4.13)"/><path d="m28.7 118.37-.25.28-.18-.07h-.18a2.17 2.17 0 0 1 0-.36.7.7 0 0 1 .09-.17l.34-.2c.1.15.21.3.3.45s-.08.03-.12.07z" fill="#856647" transform="translate(-8.23 -4.13)"/><path d="m28.17 118a.7.7 0 0 0 -.09.17 2.17 2.17 0 0 0 0 .36l-.53-1.12.06-.12.29.09z" fill="#a18764" transform="translate(-8.23 -4.13)"/><path d="m30.14 118.1.1-.15.32.24-.62.67c-.28-.41.06-.57.2-.76z" fill="#ece2b7" transform="translate(-8.23 -4.13)"/><path d="m29.5 117c-.41.11-.24-.36-.45-.46v-.24h.17l.24.2z" fill="#a18764" transform="translate(-8.23 -4.13)"/><path d="m28.26 113.86.36.26-.19.11c-.05-.13-.11-.23-.17-.37z" fill="#af9874" transform="translate(-8.23 -4.13)"/><path d="m28.18 113.6.08.26-.44-.2z" fill="#af9874" transform="translate(-8.23 -4.13)"/><path d="m28.81 116.06.26.27z" fill="#a18764" transform="translate(-8.23 -4.13)"/><path d="m31 117.85.24-.14z" fill="#795639" transform="translate(-8.23 -4.13)"/><path d="m31.54 118 .06.18-.27-.07v-.07z" fill="#795639" transform="translate(-8.23 -4.13)"/><path d="m31.27 117.49h.2v.11l-.19-.1z" fill="#795639" transform="translate(-8.23 -4.13)"/><path d="m30 120.11.1.12h-.16z" fill="#cab992" transform="translate(-8.23 -4.13)"/><ellipse cx="23.88" cy="120.74" fill="#856647" rx=".03" ry=".1"/><path d="m26.5 114v.17h-.14l.07-.15z" fill="#c93229" transform="translate(-8.23 -4.13)"/><path d="m30.57 120a.28.28 0 0 1 0 .09h-.17z" fill="#cab992" transform="translate(-8.23 -4.13)"/><path d="m30.12 120.23.18-.09z" fill="#cab992" transform="translate(-8.23 -4.13)"/><path d="m30.84 117.84v-.06z" fill="#795639" transform="translate(-8.23 -4.13)"/><path d="m30.3 120.14.09-.09z" fill="#cab992" transform="translate(-8.23 -4.13)"/><path d="m23.85 107.31.1.19h-.06l-.06-.2z" fill="#f9efc3" transform="translate(-8.23 -4.13)"/><path d="m25.42 113-.16.2-.5-.54.1-.09.44.15-.21.24z" fill="#c93229" transform="translate(-8.23 -4.13)"/><path d="m25.8 112.25c.05.15.11.29.15.44.1.33-.08.25-.25.17.03-.2.06-.4.1-.61z" fill="#c93229" transform="translate(-8.23 -4.13)"/><path d="m25.26 111.65h.26l-.14.22z" fill="#c93229" transform="translate(-8.23 -4.13)"/><path d="m26 113.59v.17l-.28-.15z" fill="#c93229" transform="translate(-8.23 -4.13)"/><path d="m33.83 105 .13.06-.12.11z" fill="#f9efc3" transform="translate(-8.23 -4.13)"/><path d="m33.74 104.93.09.09z" fill="#f9efc3" transform="translate(-8.23 -4.13)"/><path d="m34.6 107.28h.18v.06h-.14z" fill="#f9efc3" transform="translate(-8.23 -4.13)"/><path d="m34.45 127.21-.09-.26z" fill="#a18764" transform="translate(-8.23 -4.13)"/><path d="m34.76 127s0 0 0 0 .01 0 0 0z" fill="#a18764" transform="translate(-8.23 -4.13)"/><path d="m34.05 105.34.05.21z" fill="#f9efc3" transform="translate(-8.23 -4.13)"/><path d="m34.19 105.3h-.17z" fill="#f9efc3" transform="translate(-8.23 -4.13)"/><path d="m34.28 112.71h-.28v-.17z" fill="#f9efc3" transform="translate(-8.23 -4.13)"/><path d="m31.7 109.08h-.13v-.16l.05-.06h-.1l-.22.14-.21-.15h-.07l.1.28-.08.2-.2-.39-.17.28-.17-.07-.47-.42.47-.85v-.14h.1l.36.2-.23.13v-.08.08c.08.41.34.52.91.4a.48.48 0 0 1 .06.61z" fill="#c93027" transform="translate(-8.23 -4.13)"/><path d="m31.81 109.27v-.07h.17z" fill="#d04b3e" transform="translate(-8.23 -4.13)"/><path d="m31.71 100.77v-.08h.29v.06z" fill="#edbf9c" transform="translate(-8.23 -4.13)"/><path d="m33.31 127.64h-.18v-.15l.35-.11.07.07v.19h-.26z" fill="#ece2b7" transform="translate(-8.23 -4.13)"/><path d="m33.57 127.46-.07-.07v-.1h.24v.18h-.18z" fill="#f7e7bd" transform="translate(-8.23 -4.13)"/><path d="m33.15 127.5v.15h-.15z" fill="#baa580" transform="translate(-8.23 -4.13)"/><path d="m33.75 127.47v-.18l.37.35-.1.11h-.1z" fill="#baa580" transform="translate(-8.23 -4.13)"/><path d="m33.51 127.65h.06.09a.06.06 0 0 1 0 .06l-.27.23-.08-.23z" fill="#f1cea8" transform="translate(-8.23 -4.13)"/><path d="m33.66 127.74a.06.06 0 0 0 0-.06l.09-.21.16.25z" fill="#f9edc1" transform="translate(-8.23 -4.13)"/><path d="m33.51 127.65-.2.09v-.1z" fill="#a18764" transform="translate(-8.23 -4.13)"/><path d="m28.52 112.26-.26-.17.34-.19v.18z" fill="#edbf9c" transform="translate(-8.23 -4.13)"/><path d="m28.16 112.08-.24-.08s0-.06 0-.08l.28-.18z" fill="#6e482c" transform="translate(-8.23 -4.13)"/><path d="m28.62 114.12h.23v.11l-.19-.16z" fill="#af9874" transform="translate(-8.23 -4.13)"/><path d="m28.53 112.26.08-.18z" fill="#af9874" transform="translate(-8.23 -4.13)"/><path d="m28.18 111.74.18-.09z" fill="#6e482c" transform="translate(-8.23 -4.13)"/><path d="m28.35 111.65.1-.09z" fill="#6e482c" transform="translate(-8.23 -4.13)"/><path d="m30.56 120h.06a0 0 0 0 0 0 0h-.05z" fill="#f1cea8" transform="translate(-8.23 -4.13)"/><path d="m30.78 119.74v-.08a.25.25 0 0 1 0 .07z" fill="#f1cea8" transform="translate(-8.23 -4.13)"/><path d="m32.77 122.7s0 0 0 0z" fill="#6e482c" transform="translate(-8.23 -4.13)"/><path d="m29.59 115.36.11-.13-.14.11z" fill="#cab992" transform="translate(-8.23 -4.13)"/><path d="m29.5 117v-.49l-.24-.2.34-.18-.21-.27c.27-.11.54-.3.47.24 0 .09.14.2.21.3l.07.3v.14l-.26.09z" fill="#af9874" transform="translate(-8.23 -4.13)"/><path d="m30.56 116.87-.07-.09.29-.13v.09z" fill="#f1cea8" transform="translate(-8.23 -4.13)"/><path d="m29.87 117 .26-.09a.28.28 0 0 0 0 .09l-.18.17z" fill="#6e482c" transform="translate(-8.23 -4.13)"/><path d="m30.24 115.62.06-.1z" fill="#6e482c" transform="translate(-8.23 -4.13)"/><path d="m30.49 107.78v.14c-.44 0-.48.43-.7.7a.58.58 0 0 1 0-.87c.2-.23.43-.42.65-.63h.12v.26l-.23.12z" fill="#d04b3e" transform="translate(-8.23 -4.13)"/><path d="m30.49 107.78-.18-.26.23-.12c0 .11 0 .22.05.34z" fill="#d45a4a" transform="translate(-8.23 -4.13)"/><path d="m30.56 107.14h-.12l.27-.08v.11z" fill="#d45a4a" transform="translate(-8.23 -4.13)"/><path d="m30.71 108.07v-.08z" fill="#d45a4a" transform="translate(-8.23 -4.13)"/><path d="m26 108.82s0 0 0 0z" fill="#c82b24" transform="translate(-8.23 -4.13)"/><path d="m26.59 112.88-.27-.08.15-.13z" fill="#de846c" transform="translate(-8.23 -4.13)"/><path d="m30.65 109.26.17-.28.2.39-.27.14z" fill="#d45a4a" transform="translate(-8.23 -4.13)"/><path d="m31.1 109.17-.1-.28h.07l.21.15z" fill="#d45a4a" transform="translate(-8.23 -4.13)"/><path d="m31.5 108.86h.1l-.05.06z" fill="#f6e4ba" transform="translate(-8.23 -4.13)"/><path d="m33.75 127.47-.09.21h-.09v-.19z" fill="#856647" transform="translate(-8.23 -4.13)"/></svg>