<svg viewBox="0 0 41.89 74.57" xmlns="http://www.w3.org/2000/svg"><g transform="translate(-5.07 -2.88)"><path d="m9.85 64.22-.28-3.73-.12-1.73v-.29-.16-.77l-.42-5v-.46l-.03-.15a1.81 1.81 0 0 1 .29.47c.18.72.3 1.45.5 2.16a10 10 0 0 1 .78 4.08 9.24 9.24 0 0 0 .07 2c.09 1 .16 2.09.34 3.11a18.84 18.84 0 0 0 .64 2.15l.3.16-.52.43.29.38-.8-.1-.35.8 2.47.68h.17l.76.32-.56.16c-.22.06-.58.1-.63.23s.12.45.17.69.08.55.12.82h-.5l-.84-.47-.12.19.67.54 1.79.81 2.37.49-.16.59h-.46l-1.57-.1-2.22-.52c-.2.2-.54.39-.56.6a3.53 3.53 0 0 0 .25 1.07l.73.5.07.31a2.47 2.47 0 0 1 -1.84-2c-.26-1-.35-2.07-.51-3.11z" fill="#38260f"/><path d="m25 3.53-.71-.35a4.38 4.38 0 0 1 1-.27c3.45 0 6.9-.07 10.34 0 2.63.06 5.25.29 7.88.45-.17.1-.35.29-.52.28-1.18-.07-2.36-.22-3.54-.27-2-.09-4-.12-6-.16-1.09 0-2.18 0-3.26 0-.72 0-1.44-.13-2.16-.13-.25 0-.49.22-.77.35l3.64.57v.11l-1.24.26-.7.12v.15l1.04.36c-.91 0-1.82 0-2.72-.07-.13 0-.27.17-.4.26l-.47-.11a1.21 1.21 0 0 0 -1.76-.67l-.51-.58c-.85.17-1.51.35-2.18.42a5.79 5.79 0 0 1 -1.3-.13c-.05-.08-.1-.22-.14-.22a7 7 0 0 0 -.8.07l-.31-.15a2.76 2.76 0 0 0 -.08-.58c-.51 0-1 0-1.53 0v.15l1.46.46-.83.15v-.07.07l-1.92.77.09.29 3.07-.6.36.22-.03.32-2.21.13h-3l.21-.33c.66 0 1.32 0 1.71-.68l.15-.28.28-.27-.75-.3v.88l-1.86.31-.16-.31.89-.6v-.19c-.63.06-1.25.13-1.87.17-1.11.06-2.21.13-3.32.15-.69 0-1.37-.1-2.05-.15 2.15-.15 4.3-.31 6.46-.44 1.13-.09 2.3-.09 3.45-.09.49 0 1-.06 1.45-.07a16.77 16.77 0 0 0 2.84.07c.59-.1 1.27.33 1.91.49a5.21 5.21 0 0 0 .69.09q-.06.29-.09.54l1.88.27a.5.5 0 0 0 -.34-.39zm2-.19v-.29l-1.54.18v.31zm-11.24.14s0 0 0 .07h.06v-.07z" fill="#eeebe6"/><path d="m41.81 62.23c-.22 3.1-.43 6.21-.67 9.32a3.6 3.6 0 0 1 -2.14 3.13c0-.16 0-.37.15-.46.88-.76.8-1.62-.17-2.09l1.3-.7s0-.08 0-.12l-.1.06-2.64.79h-.31l-.19.13h-.24c-.28 0-.56 0-.84 0h-2.15l.17-.48.78-.33h.46l.16-.18.14-.06.25.26.53-.34c.15.07.32.23.45.21.7-.11 1.39-.26 2.08-.39l1.42-.54-.64-.44.06-.07h-.08c-.52.11-1.05.24-1.58.32-.11 0-.25-.08-.38-.12.06-.15.08-.37.19-.44s.56-.27.38-.68v-.16l.3-.47c1.78-.49 1.82-.52 1.88-1.26h-.38l-.39-.31.46-.45h.3l-.17-.29c.73-.55 1.41-1.07 1.29-2.18a5.46 5.46 0 0 1 .32-1.66z" fill="#38260f"/><path d="m29.64 4.32 1.24-.26v-.11l-3.62-.52c.28-.13.52-.35.77-.35.72 0 1.44.11 2.16.13h3.26c2 0 4 .07 6 .16 1.18.05 2.36.2 3.54.27.17 0 .35-.18.52-.28a9.08 9.08 0 0 0 1.79.12c.87-.11 1.11.55 1.4 1a1.62 1.62 0 0 1 -.37 2.25l-.4-1.08.81-.77-.74-.11a2.16 2.16 0 0 0 -.63-.37 4.8 4.8 0 0 0 -1 .06l-2.73.31c-.64 0-1.28 0-1.92 0-.39 0-.78 0-1.17 0-.21-1-1-.31-1.42-.47a3.32 3.32 0 0 0 -.7-.36 5.15 5.15 0 0 0 -.88 0c-.2 0-.47-.14-.59 0-.79.6-1.68.21-2.52.29l-2.16.31-.33-.15z" fill="#fbfbf8"/><path d="m41.81 62.23a5.46 5.46 0 0 0 -.31 1.66c.12 1.11-.56 1.63-1.29 2.18.17-.87.32-1.74.5-2.61a15.23 15.23 0 0 0 .4-1.58c.08-.74 0-1.49.09-2.23a23.25 23.25 0 0 0 .22-3.65 9.55 9.55 0 0 1 .18-3.73 9.54 9.54 0 0 0 .3-1.43 24.46 24.46 0 0 1 .52-3.34 28.49 28.49 0 0 0 .76-5.5v-.31h.1l.2.15-.6 8.41v.93l-.12 1.09v.31l-.09.94-.09 1.08c-.09.93-.16 1.87-.27 2.79a3 3 0 0 1 -.21.64v.62l-.27 3.61z" fill="#58340d"/><path d="m11.59 65.93a18.84 18.84 0 0 1 -.59-2.15c-.18-1-.25-2.07-.34-3.11a9.24 9.24 0 0 1 -.07-2 10 10 0 0 0 -.78-4.08c-.2-.71-.32-1.44-.5-2.16a1.81 1.81 0 0 0 -.31-.5l-.22-1.41v-.3l-.15-1.22v-.31l-.1-2.49c.13.08.37.14.39.26.22 1 .37 1.93.6 2.89.31 1.26.62 2.53 1 3.76a11.27 11.27 0 0 1 .63 4.28 36.73 36.73 0 0 0 .26 3.75c.09 1.57.12 3.18.18 4.79z" fill="#58340d"/><path d="m5.81 12.86v-.28c.63-.23 1.26-.47 1.85.09l-.65.51h-.08v.15.29s-.11.41-.16.62l-.29.95-.63 3.9c0 .82-.13 1.64-.16 2.46-.08 1.88.72 3.55 1.29 5.27.1.33.16.67.25 1a3.28 3.28 0 0 1 .17.5c.17.87.32 1.74.48 2.61v1.37l.12 3.89v.93l-.13 1-.16-.47v-.62-.16l-.06-.77c-.12-1.56-.25-3.12-.37-4.68v-.31a34.31 34.31 0 0 0 -.68-3.64c-.76-2.58-1.63-5.13-1.35-7.87.14-1.36.38-2.71.57-4.06v-.76-1.1-.78z" fill="#8e7140"/><path d="m15 4.8-.16.28.94.44c-2.24-.08-4.48-.18-6.73-.25-.19 0-.39.18-.59.27l-.16.16-1.24-.62-.59-.08-.18.66-.16.63.15 2.95c-.1.59.32 1.35-.53 1.71-.08-.09-.21-.18-.22-.28-.07-1.21-.12-2.47-.18-3.67l.2-.08-.2-.08v-1.13a1.21 1.21 0 0 0 .78-1.25l1.55.14c.51.05 1 .14 1.54.14.21 0 .43.14.7-.21s1-.26 1.5-.27a10.89 10.89 0 0 1 1.38.19h.61l.5.17z" fill="#e5e0dd"/><path d="m42.89 50.22.6-8.41.1-.47v-.76c.17-1.94.33-3.9.51-5.84.16-1.7.35-3.39.53-5.08a2.73 2.73 0 0 1 .2.82c-.11 1.55-.27 3.1-.42 4.65-.24 2.58-.54 5.16-.71 7.74a13 13 0 0 0 .3 2.36 2.59 2.59 0 0 1 -.13.77c-.19.84-.77 1.61-.33 2.55a1.47 1.47 0 0 1 -.65 1.67z" fill="#eeebe6"/><path d="m41.62 4.77 2.73-.31a4.8 4.8 0 0 1 1-.06 2.16 2.16 0 0 1 .63.37h-.06.08l.74.17-.81.77.4 1.08v.78s0 .31 0 .47 0 .41 0 .61-.09.22-.13.32v1.24c-.06.84-.11 1.67-.17 2.5h-.27l-.07-.31v-.46-1.22c0-.28.05-.55.07-.83.08-1.07.17-2.14.25-3.21 0 0 0-.09-.17-.29a5.74 5.74 0 0 0 -1.88.49c-.62.41-1 .06-1.49-.1l.24-.22-.54-.41c.79-.1 1.57-.24 2.36-.28 1.06-.06 1.06 0 .9-1.07l-4 .41z" fill="#d4d0cb"/><path d="m5.75 11c.85-.36.43-1.12.53-1.71 1-.11.81 1.08 1.51 1.28-.21 1 .47.28.7.43a3.37 3.37 0 0 0 .83.63c.07 0 .2 0 .23.09a1.1 1.1 0 0 0 1.25.69h.31l-.15.38-1.86-.1-.54.13h-.4l-.31-.13a.26.26 0 0 0 -.15 0c-.59-.56-1.22-.32-1.85-.09-.03-.55-.07-1.08-.1-1.6z" fill="#b5ada7"/><path d="m33.55 76.78a30.19 30.19 0 0 1 -3.12.49c-1.89.13-3.79.17-5.69.18-1.33 0-2.66-.09-4-.17a1.43 1.43 0 0 1 -.47-.22l.18-.23h2l.32.15h2.23c2-.1 4-.18 6-.31.76 0 1.51-.2 2.27-.3z" fill="#d4d0cb"/><path d="m13.41 4.44h-.61a10.89 10.89 0 0 0 -1.38-.19c-.52 0-1.26 0-1.5.27s-.49.21-.7.21c-.52 0-1-.09-1.54-.14.08-.81-.66-.49-1-.74.32-.56.87-.23 1.32-.33.68 0 1.36.15 2.05.15 1.11 0 2.21-.09 3.32-.15.62 0 1.24-.11 1.87-.17v.19l-.89.6z" fill="#fbfbf8"/><path d="m37.57 72.16 2.64-.79.06.06-1.3.7c1 .47 1.05 1.33.17 2.09-.1.09-.1.3-.15.46l-1.71 1a2.58 2.58 0 0 1 -.17-.22c.15-.31.31-.62.47-.92l.29-.18a5.88 5.88 0 0 0 .81-.57c.43-.45.32-.67-.32-.81v-.3a3.48 3.48 0 0 0 -.39-.28c-.13-.11-.26-.17-.4-.24z" fill="#a19993"/><path d="m44.64 29.66c-.18 1.69-.37 3.38-.53 5.08-.18 1.94-.34 3.9-.51 5.84h-.25l.15-2.93q.22-3 .46-6.06v-.47a.76.76 0 0 0 0-.15l.46-2h.27v.48z" fill="#8e7140"/><path d="m18.74 77c-1.52-.42-3-.84-4.57-1.29-.16-.05-.28-.26-.42-.39.22-.22.74.06.78-.47l1.56.46.78.3.31.16h.46c.14.58.58.73 1.1.77z" fill="#c6c0bb"/><path d="m9.85 64.22.31 5.14c-.19-.21-.53-.41-.56-.64-.16-1.29-.27-2.59-.32-3.89-.01-.2.37-.41.57-.61z" fill="#eeebe6"/><path d="m37.58 74.51-.47.92a7.79 7.79 0 0 1 -1.06.66 6.34 6.34 0 0 1 -1.23.41c-.41.11-.84.19-1.27.28l-.33-.41.62-.17a7.37 7.37 0 0 0 1.32-.37c.75-.35 1.59-.61 2-1.49z" fill="#b5ada7"/><path d="m42.07 58a3 3 0 0 0 .21-.64c.11-.92.18-1.86.27-2.79a2.68 2.68 0 0 1 .29.8c0 .75-.08 1.49-.13 2.23s-.09 1.34-.18 2c0 .1-.26.17-.39.26l-.07-1.25z" fill="#eeebe6"/><path d="m8.51 46.17.1 2.49c-.15-.17-.41-.33-.43-.52-.14-1.24-.26-2.47-.31-3.72a6 6 0 0 1 .26-1.36h.13c0 .3.05.6.07.9l.06.61.07 1.1z" fill="#eeebe6"/><path d="m14.53 74.82c0 .53-.56.25-.78.47l-1.24-.78c0-.1 0-.21-.07-.31l.42-1c.15.15.45.31.45.45 0 .89.66.93 1.22 1.14z" fill="#a19993"/><path d="m8.93 52.55.42 5c-.16-.64-.33-1.27-.48-1.9-.06-.26 0-.59-.13-.79-.48-.72 0-1.44-.06-2.15 0-.06.16-.11.25-.16z" fill="#eeebe6"/><path d="m7.7 37.61.16.47.06 1.22v.34l.17 1.71v1.4c-.46-.07-.46-.32-.46-.75 0-1.22-.07-2.45-.1-3.68a2.92 2.92 0 0 1 .17-.71z" fill="#eeebe6"/><path d="m46 15.82.09.3c0 .45.05.89.07 1.34l.05.05v.35l-.25.39c-.23-1-.45-2-.62-3a2 2 0 0 1 .16-.73h.31v.26.37z" fill="#a2650b"/><path d="m6.13 4.46a1.21 1.21 0 0 1 -.78 1.25.83.83 0 0 1 .09-1.18c.11-.13.45-.05.69-.07z" fill="#fbfbf8"/><path d="m42.07 58.62.07 1.25v.77.16l-.27 1.43z" fill="#38260f"/><path d="m46.51 19.39.24 1.88v.46c-.13.31-.26.63-.38.94.05-1.09.09-2.18.14-3.28z" fill="#e5e0dd"/><path d="m9.45 58.76.12 1.73c-.73-.36-.77-.95-.12-1.73z" fill="#eeebe6"/><path d="m25 3.53 1.3.46a.5.5 0 0 1 .34.35l-1.88-.27q0-.26.09-.54z" fill="#d4d0cb"/><path d="m8.75 50.52.25 1.41-.07.16a1.18 1.18 0 0 1 -.18-1.57z" fill="#eeebe6"/><path d="m5.81 13.64v1.1" fill="#eeebe6"/><path d="m44.72 29.36v-.48l.27-.94-.08 1.26z" fill="#e5e0dd"/><path d="m8.63 49 .1 1.25c-.48-.41-.31-.85-.1-1.25z" fill="#eeebe6"/><path d="m8.1 42.75v-1.4l.33 1.38-.2.37h-.13z" fill="#8e7140"/><path d="m42.75 52.24.12-1.09z" fill="#eeebe6"/><path d="m42.64 53.49.09-.94z" fill="#eeebe6"/><path d="m18.74 77v-.45l.31.14v.25z" fill="#d4d0cb"/><path d="m19.75 76.84c0-.11 0-.22 0-.33l.47.14z" fill="#d9d9d8"/><path d="m46 15.82-.11-.63.25.16c-.06.16-.14.32-.14.47z" fill="#e5e0dd"/><path d="m46.29 8c0-.16 0-.31 0-.47l.28.2z" fill="#fbfbf8"/><path d="m5.35 6.33v.46l-.28-.19z" fill="#fbfbf8"/><path d="m19.67 76.52v.33l-.66.06a2 2 0 0 0 0-.25l.47-.15z" fill="#c6c0bb"/><path d="m19.75 76.84.39-.18h.31a.76.76 0 0 0 0 .15l-.18.23z" fill="#c6c0bb"/><path d="m46.15 9c0-.1.09-.21.13-.32-.04.08-.09.19-.13.32z" fill="#fbfbf8"/><path d="m5.82 13.17-.24-.17" fill="#eeebe6"/><path d="m5.35 6.79.2.08-.2.13z" fill="#fbfbf8"/><path d="m42.07 60.8v-.16z" fill="#eeebe6"/><path d="m9.38 58.31v.16a.34.34 0 0 1 -.07-.11s.05-.03.07-.05z" fill="#eeebe6"/><path d="m7.66 36.83v.16l-.07-.11s.06-.03.07-.05z" fill="#eeebe6"/><path d="m45.88 14.82v-.26h.12z" fill="#e5e0dd"/><path d="m8.46 42.73-.33-1.38c-.06-.57-.13-1.14-.13-1.71v-.34l-.06-1.22c0-.32.09-.64.13-1 .15.16.39.3.43.48.2.82.35 1.66.5 2.49.12.64.24 1.29.3 1.95.1 1 .06 1.94.23 2.89.22 1.17.58 2.31.89 3.47.23.87.5 1.73.71 2.6a21.68 21.68 0 0 1 .65 3c.09.84-.17 1.71-.09 2.54.12 1.17.45 2.32.62 3.49s.11 2.18.31 3.25-.2 2.22.77 3.06c0 0-.11.22-.18.33l-1.24-.62-.3-.16c-.06-1.61-.09-3.22-.18-4.82a36.73 36.73 0 0 1 -.26-3.75 11.27 11.27 0 0 0 -.63-4.28c-.4-1.23-.71-2.5-1-3.76-.23-1-.38-1.93-.6-2.89 0-.12-.26-.18-.39-.26v-.46l-.07-1.1-.21-.53z" fill="#764106"/><path d="m33.81 72.33h2.15.84c-.22.21-.4.53-.64.59a7 7 0 0 1 -1.38 0 9.26 9.26 0 0 1 -1.35.28c-2.34.18-4.67.39-7 .47-1.73 0-3.46-.09-5.19-.14h-2.65l-2.34-.17a2.44 2.44 0 0 1 -.35-.36 1.19 1.19 0 0 1 -.11-.38h.46l4 .24 2.11-.17h.29c.69.06 1.39.17 2.09.17.91 0 1.82-.11 2.73-.18a6.48 6.48 0 0 0 .88 0 2.87 2.87 0 0 0 .65-.18l1.76.26a6.21 6.21 0 0 0 .75 0z" fill="#eeebe6"/><path d="m13.91 68.58-.76-.32 1.22-.46a2.56 2.56 0 0 0 .62 0 5.41 5.41 0 0 0 .77-.27l-.54-.65a5.56 5.56 0 0 1 -.82-1 6 6 0 0 1 -.46-1.61c-.07-.46-.51-.94 0-1.42a8 8 0 0 1 .6 1.34 4.64 4.64 0 0 0 1.8 2.81c.15.11.37.37.33.45a1.22 1.22 0 0 1 -.5.48c-.38.19-.78.33-1.18.49z" fill="#a2650b"/><path d="m13.91 68.58 1.09-.14.64.28-.5.93h-.89l.3 1h-.31-.48-.31l-.37-.27h-.06c0-.27-.07-.55-.12-.82s-.24-.51-.17-.69.41-.17.63-.23z" fill="#58340d"/><path d="m11.89 66.09 1.24.62.48.47c-.15.15-.28.4-.46.45-.5.13-.26.4-.17.65l-2.47-.68.35-.8.8.1-.29-.38z" fill="#58340d"/><path d="m20.24 72.85-4-.24c.05-.2.1-.39.16-.59l.34-.15 2.29.36h.18l.76.11.18.2z" fill="#58340d"/><path d="m12.86 73.22-.42 1-.73-.5c.83-.42.36-1.08.31-1.67l2.2.52-.34.19z" fill="#8e7140"/><path d="m13 70.48h.06l.37.27h.31.48l.26.31-.45.47-1.79-.81.26-.26z" fill="#8e7140"/><path d="m14 71.53.45-.47c.58.16 1.17.3 1.74.48a2.4 2.4 0 0 1 .52.33l-.34.15z" fill="#b5ada7"/><path d="m13.88 72.74.34-.19 1.57.1a1.19 1.19 0 0 0 .11.38 2.44 2.44 0 0 0 .35.37z" fill="#d9d9d8"/><path d="m12 72c.05.59.52 1.25-.31 1.67a3.53 3.53 0 0 1 -.25-1.07c.04-.18.38-.37.56-.6z" fill="#58340d"/><path d="m13 68.28c-.09-.25-.33-.52.17-.65.18 0 .31-.3.46-.45.44 0 .82 0 .76.62l-1.22.46z" fill="#764106"/><path d="m12.51 70.46-.26.26-.67-.54.12-.18z" fill="#58340d"/><path d="m30.26 4.47 2.16-.31-.15.42c1.8-.11 3.56.75 5.37.23l-.53-.52c.47.16 1.21-.49 1.41.47-.05.21-.11.42-.16.63-.91.05-1.82.12-2.73.15-2 .06-4 .1-6.06.17a3.89 3.89 0 0 0 -.9.28h-.42c-.31-.5-.7-.35-1.11-.14h-.47l.16-.62c.13-.09.27-.27.4-.26.9 0 1.81.1 2.72.07l-1-.43v-.17l.7-.12h.29z" fill="#d4d0cb"/><path d="m20.61 4.14a5.79 5.79 0 0 0 1.3.13c.67-.07 1.33-.25 2.18-.42l.51.58a1.21 1.21 0 0 1 1.76.67l-.36.12-.13-.14-1.87.23.15.38-4.05-.14v-.31h1.58zm3.32.47s0 .09.07.1.08 0 .12 0l-.12-.19z" fill="#d4d0cb"/><path d="m20.14 5.24v.31h-2.34v-.46l2.2-.09v-.29l-.36-.22v-.49a7 7 0 0 1 .8-.07s.09.14.14.22l1.11 1.09h-1.24l-.45-.17z" fill="#e5e0dd"/><path d="m19.67 4v.46l-3.07.6-.09-.29 1.92-.77.78-.15h.15z" fill="#d4d0cb"/><path d="m24.19 5.69-.19-.38 1.87-.23.13.14.32-.12.47.11c0 .21-.11.41-.16.62z" fill="#c6c0bb"/><path d="m17.8 5.09v.44h-2l-.94-.44z" fill="#d4d0cb"/><path d="m15 4.8-1.1-.19.62-.15 1.86-.31h.32c-.37.63-1.03.64-1.7.65z" fill="#d4d0cb"/><path d="m19.36 3.84h-.15l-1.46-.46v-.15h1.53a2.76 2.76 0 0 1 .08.61z" fill="#fbfbf8"/><path d="m26.92 3.34-1.54.2v-.31l1.54-.18z" fill="#fbfbf8"/><path d="m16.72 4.12h-.32v-.86l.75.3-.28.27-.16-.11v.06l.2.06z" fill="#fbfbf8"/><path d="m13.41 4.44 1-.3.16.31-.62.15z" fill="#d4d0cb"/><path d="m15.68 3.48h.06v.07h-.06s0-.05 0-.07z" fill="#fbfbf8"/><path d="m18.43 4v-.07z" fill="#d4d0cb"/><path d="m44 31.54q-.24 3-.46 6.06a2.64 2.64 0 0 0 -.31.6c-.2.85-.12 1.9-.6 2.52-.76 1-.63 2.09-.94 3.11a21.93 21.93 0 0 0 -.7 3.52 13.31 13.31 0 0 0 0 2.09v.31l-.3.78v.78c-.1.09-.27.18-.29.29q-.19 1.26-.33 2.55c-.22 2.2-.32 4.43-.68 6.62-.33 2-.58 4-1.9 5.78h1.78l-.16.75.5-.45.39.31-1.91.68.24.56h-.59l-1.42.28-.68-.87.92-.13v-.24h-1.32v-.44h.62l.78-.11-.64-.52c.46-.69.89-1.34 1.31-2a1.23 1.23 0 0 0 .22-.55 12.43 12.43 0 0 1 .47-2.76c.46-2.09.77-4.22 1.1-6.35.11-.66.11-1.33.16-2v-.31c.21-.76.48-1.51.62-2.29.25-1.42.37-2.86.65-4.27.23-1.14.63-2.25.91-3.38.38-1.63.77-3.26 1.06-4.9s.4-3.09.69-4.62a5 5 0 0 1 .81-1.4z" fill="#a2650b"/><path d="m39.61 66.85-.5.45.16-.75h-.91a3.51 3.51 0 0 1 .18-.82 11.47 11.47 0 0 0 1.23-4.87 20.88 20.88 0 0 1 .38-3c.17-.89.54-1.74.67-2.63a28.28 28.28 0 0 0 .18-3.23c0-.22-.19-.44-.29-.65v-.78q.75-.16.3-.78v-.31c.09-.09.25-.16.27-.26.23-1.39.4-2.79.69-4.17a22.58 22.58 0 0 1 .84-2.73c0-.13.25-.21.39-.31a28.49 28.49 0 0 1 -.76 5.57 24.46 24.46 0 0 0 -.52 3.34 9.54 9.54 0 0 1 -.3 1.43 9.55 9.55 0 0 0 -.2 3.65 23.25 23.25 0 0 1 -.22 3.61c0 .74 0 1.49-.09 2.23a15.23 15.23 0 0 1 -.4 1.58c-.18.87-.33 1.74-.5 2.61l-.51.14v.15h.36z" fill="#764106"/><path d="m20 72.29-.76-.11c-.39-.16-.78-.34-1.18-.49-.6-.21-1.21-.39-1.81-.58l1.75-.21 2.2-.09a3 3 0 0 0 1 .39c2.79 0 5.58.06 8.37 0a15.92 15.92 0 0 0 2.45-.43v-.15l-1-.06v-.14h2.31a1.89 1.89 0 0 0 .61.32c.58.07 1.16.06 1.74.09v.34.13l-.14.06h-.14a.39.39 0 0 1 -.15 0 4.22 4.22 0 0 0 -.87 0 9.6 9.6 0 0 1 -3.74.24 10.54 10.54 0 0 0 -2.31.06c-1.45.08-2.89.2-4.34.25-.88 0-1.76-.08-2.63 0a4.36 4.36 0 0 0 -1.36.38z" fill="#ccba44"/><path d="m20 72.29a4.36 4.36 0 0 1 1.21-.42c.87-.05 1.75.06 2.63 0 1.45-.05 2.89-.17 4.34-.25a10.54 10.54 0 0 1 2.31-.06 9.6 9.6 0 0 0 3.74-.24 4.22 4.22 0 0 1 .87 0l-.33.17-.78.33h-.6l-4.39.68a2.87 2.87 0 0 1 -.62.17 6.48 6.48 0 0 1 -.88 0h-4.86-.29l-2.18-.19z" fill="#f5e871"/><path d="m37.74 68.45h.59.17l-.3.47-.5.36.11.12.39-.32c.18.41-.12.51-.38.68s-.13.29-.19.44c.13 0 .27.14.38.12.53-.08 1.06-.21 1.58-.32l.64.52-1.42.54c-.39-.77-1-.32-1.56-.31l-.13-.41c-.08-.58-.5-1.24.38-1.59.12-.05.17-.2.24-.3z" fill="#58340d"/><path d="m34.78 73a7 7 0 0 0 1.38 0c.24-.06.42-.38.64-.59h.27l.19-.13h.31c.14.07.27.13.4.21a3.48 3.48 0 0 1 .39.28l-1.92.5.21.71-.32.33h-.33c0-.07-.05-.2-.08-.2-.55 0-1.1-.09-1.66-.09-.09 0-.19.18-.29.28h-.3l-.08-.55 1.76-.24z" fill="#d4d0cb"/><path d="m38.5 68.42h-.17c-.06-.15-.13-.3-.24-.56l1.91-.7h.38c-.06.74-.1.77-1.88 1.26z" fill="#764106"/><path d="m37.27 70.74c.54 0 1.17-.46 1.56.31-.69.13-1.38.28-2.08.39-.13 0-.3-.14-.45-.21l.35-.39.26-.12z" fill="#a19993"/><path d="m33.84 71.85h.16l-.17.48-2.34.41a6.21 6.21 0 0 1 -.75 0 6.41 6.41 0 0 1 .91-.45c.57-.19 1.16-.31 1.75-.46h.46z" fill="#b5ada7"/><path d="m36.65 70.84-.35.39-.53.34-.25-.26v-.13z" fill="#8e7140"/><path d="m40.07 66.4h-.36v-.15l.51-.14c.06.1.12.19.17.29z" fill="#58340d"/><path d="m38.2 69.05-.39.32-.11-.12.5-.36z" fill="#764106"/><path d="m34.76 71.52.33-.17a.39.39 0 0 0 .15 0v.18z" fill="#8e7140"/><path d="m37.26 72.18-.19.13z" fill="#eeebe6"/><path d="m39.59 70h.08l-.06.07z" fill="#58340d"/><path d="m35.22 71.55v-.18h.14z" fill="#a19993"/><path d="m40.21 71.37.1-.06s0 .08 0 .12z" fill="#a19993"/><path d="m37.11 4.29.53.52c-1.81.52-3.57-.34-5.37-.23l.15-.42c.84-.08 1.73.31 2.52-.29.12-.09.39 0 .59 0a5.15 5.15 0 0 1 .88 0 3.32 3.32 0 0 1 .7.42zm-1.68.2v.07h1.19v-.07z" fill="#eeebe6"/><path d="m38.36 5.39c0-.21.11-.42.16-.63h1.18 1.92l-.31.45z" fill="#c6c0bb"/><path d="m30.26 4.47-.33-.15z" fill="#eeebe6"/><path d="m43.18 42c-.14.1-.35.18-.39.31a22.58 22.58 0 0 0 -.79 2.69c-.29 1.38-.46 2.78-.69 4.17 0 .1-.18.17-.27.26a13.31 13.31 0 0 1 0-2.09 21.93 21.93 0 0 1 .7-3.52c.31-1 .18-2.14.94-3.11.48-.62.4-1.67.6-2.52a2.64 2.64 0 0 1 .31-.6l-.15 2.93c-.06.38-.11.75-.16 1.13z" fill="#91520c"/><path d="m43.19 41.66c.05-.38.1-.75.16-1.13h.25v.76l-.3.32z" fill="#764106"/><path d="m43.29 41.66.3-.32-.1.47z" fill="#8e7140"/><path d="m35.86 67h-4.09c-.5 0-1 0-1.51 0s-.87.12-1.3.15c-1.89.11-3.77-.46-5.66 0a7 7 0 0 1 -.79.07l-.05.23a2 2 0 0 0 .6.3 10 10 0 0 0 1.64.07 8.11 8.11 0 0 1 2.6.08 4.44 4.44 0 0 0 1.31 0c.46 0 .92-.1 1.39-.1h4.39a2.89 2.89 0 0 0 .85-.3h1.31v.24l-.92.13.68.87h-.92-.61l-2.66.12a4.61 4.61 0 0 0 -.81-.15h-7.13a1.72 1.72 0 0 1 -.75-.23c-.22-.11-.39-.38-.61-.43-.63-.13-1.27-.19-1.91-.27-.14-.16-.27-.39-.45-.45-.9-.31-1.82-.56-2.73-.86a.83.83 0 0 1 -.37-.37 5 5 0 0 1 -.48-.88c-.63-1.53-1.32-3-1.84-4.61a26 26 0 0 1 -.58-3.07c-.27-1.38-.58-2.76-.85-4.14-.41-2.08-.51-4.21-1.09-6.26-.37-1.33-.7-2.68-1-4-.42-1.61-.93-3.2-1.25-4.82s-.38-3.18-.69-4.74c-.29-1.23-.23-2.58-1.17-3.58-.19-.2-.35-.41-.53-.62l-.31-1.9c-.24-.81-.47-1.62-.7-2.43.13-1.05.37-2.05.49-3.05a12.5 12.5 0 0 0 0-1.62v-.38c.1-.11.27-.21.28-.33.11-.72.2-1.44.26-2.16a5.14 5.14 0 0 0 -.07-.78v-1.39c.08-.15-.06-.28-.17-.44-.27-.42-.52-.84-.78-1.27 0-.1 0-.19 0-.29v-.15h.3l.44.16c-.32.46.16.63.33.91s.11.49.27.63c.55.48.38 1.16.33 1.66-.15 1.6-.57 3.18-.73 4.78a33.49 33.49 0 0 0 -.15 4.48 5.54 5.54 0 0 0 .59 1.68 2.18 2.18 0 0 0 .29 1.67 12.82 12.82 0 0 1 1.53 4.15 8.92 8.92 0 0 0 .2 1 9.49 9.49 0 0 0 .07 1.51 39.71 39.71 0 0 0 1.9 7.07 33.89 33.89 0 0 1 1.82 7.11c.29 1.62.6 3.25.94 4.87.08.39.37.74.44 1.13.24 1.37.4 2.75.64 4.12a11 11 0 0 0 1.91 4.77c.52.71 1.1 1.58 2 1.63a24.86 24.86 0 0 0 3.75-.24c.68-.08 1.33-.39 2-.43.95 0 1.92.07 2.88.08a14.68 14.68 0 0 0 1.61-.11l3.16-.38a.26.26 0 0 0 .17-.14l.79-2c.49 0 .69-.34.87-1a3.67 3.67 0 0 0 .27-2.14c0-.13.13-.32.2-.48a6.69 6.69 0 0 0 .69-1.62 20.9 20.9 0 0 0 .61-4.7c0-.14.14-.31.24-.45a5.62 5.62 0 0 0 .6-.87 17.12 17.12 0 0 0 .5-1.77c.17-.74.34-1.49.48-2.23s.17-1.37.29-2 .24-1.13.36-1.69l.16-1.24.15-.31.32-1.25h.16c.71 1.18 0 2.35-.11 3.5-.14 1.91-.59 3.79-.91 5.69v.3a4.38 4.38 0 0 1 -.27.82c-.21.42-.08.57.34.58v.31c-.14.07-.4.11-.42.22-.17.65-.3 1.31-.41 2-.08.5-.07 1-.18 1.51a23.59 23.59 0 0 1 -.6 3.15 27.66 27.66 0 0 0 -.88 4.08 3.67 3.67 0 0 1 -2.26 3c.31.06.61 0 .88 0s.27.18.42.29z" fill="#ca860b"/><path d="m14.37 67.8c.06-.59-.32-.65-.76-.62l-.48-.47c.07-.11.2-.31.18-.33-1-.84-.58-2-.77-3.06s-.16-2.17-.31-3.25-.5-2.32-.62-3.49c-.08-.83.18-1.7.09-2.54a21.68 21.68 0 0 0 -.65-3c-.21-.87-.48-1.73-.71-2.6-.31-1.16-.67-2.3-.89-3.47-.17-.97-.13-1.97-.23-2.97-.06-.66-.18-1.31-.3-1.95-.15-.83-.3-1.67-.5-2.49 0-.18-.28-.32-.43-.48v-.93l-.15-3.88c.15.12.42.23.45.38.19 1.06.33 2.12.49 3.18l.54 3.46c.29 1.79.57 3.58.86 5.37a16.48 16.48 0 0 0 .43 2.09c.38 1.24 1 2.44 1.24 3.7.38 1.69.56 3.43.81 5.15.06.4 0 .81.08 1.21.27 1.69.57 3.38.87 5.06a2.29 2.29 0 0 0 .31.6v.31c-.49.48-.05 1 0 1.42a6 6 0 0 0 .46 1.61 5.56 5.56 0 0 0 .82 1l.54.65a5.41 5.41 0 0 1 -.77.27 2.56 2.56 0 0 1 -.6.07z" fill="#91520c"/><path d="m13.92 62.51a2.29 2.29 0 0 1 -.31-.6c-.3-1.68-.6-3.37-.87-5.06-.07-.4 0-.81-.08-1.21-.25-1.72-.43-3.46-.81-5.15-.28-1.26-.86-2.46-1.24-3.7a16.48 16.48 0 0 1 -.43-2.09c-.29-1.79-.57-3.58-.86-5.37l-.54-3.46c-.16-1.06-.3-2.12-.49-3.18 0-.15-.3-.26-.45-.38v-1.38-.34a16.87 16.87 0 0 1 1 2.46c.28 1.11.33 2.27.5 3.41.07.44.23.88.31 1.32.25 1.51.44 3 .73 4.53.13.66.48 1.26.67 1.91.27.9.49 1.83.73 2.74.3 1.1.65 2.19.86 3.31s.22 2.27.37 3.4c.2 1.48.46 2.95.68 4.42 0 .2-.06.41 0 .62 0 .55.13 1.09.16 1.65s.05 1.43.07 2.15z" fill="#a2650b"/><path d="m6.87 25c.23.81.46 1.62.7 2.43l-.38.37c-.09-.33-.15-.67-.25-1-.57-1.72-1.37-3.39-1.29-5.27 0-.82.11-1.64.16-2.46.11 1 .21 2 .31 3 .1.41.19.82.29 1.23z" fill="#58340d"/><path d="m7.37 20v.31c-.1.14-.2.29-.31.42l-.3.36c0-1 .06-2 .17-3.06 0-.45.39-.88.38-1.31a8.09 8.09 0 0 0 -.41-1.72l-.17-.79c0-.21.11-.41.16-.62.26.43.51.85.78 1.27.11.16.25.29.17.44v1.41a2 2 0 0 0 -.36.7c-.07.89-.08 1.76-.11 2.59z" fill="#a2650b"/><path d="m6.73 14.25.17.75c0 .44-.09.87-.14 1.31-.12 1.25-.24 2.49-.38 3.74-.07.65-.17 1.31-.26 2-.1-1-.2-2-.31-3l.63-3.9v.06z" fill="#764106"/><path d="m7.23 13.19h-.18l.65-.51a.26.26 0 0 1 .15 0l.09.27.22-.14h.4l.54-.14 1.86.1h.28v.18l-.15.29-.67.1h-.25z" fill="#91520c"/><path d="m7.19 27.82.38-.37c.1.63.21 1.27.31 1.9v1.24.34c-.16-.87-.31-1.74-.48-2.61a3.28 3.28 0 0 0 -.21-.5z" fill="#764106"/><path d="m6.93 13.19v.15z" fill="#a2650b"/><path d="m15.79 5.52h2 2.34l4.05.14 2.48.14h.47c.29.71.75 0 1.11.14h.31l-.32.47-3.12-.14h-.78a8.66 8.66 0 0 0 -1-.11c-1.38 0-2.75.07-4.12.11-.09 0-.18-.14-.26-.13-1.21 0-2.42.06-3.63 0s-2.5-.15-3.74-.22l-1.41-.15-1.55-.07h-.13a.59.59 0 0 1 0-.14c.2-.09.4-.27.59-.27 2.23.05 4.47.15 6.71.23z" fill="#fbfbf8"/><path d="m11.26 12.91c0-.06 0-.12 0-.18l.09-.06-.08.07h-.28l.15-.38-.19-.2-.12.21a1.1 1.1 0 0 1 -1.25-.69c0-.06-.16-.05-.23-.09a3.37 3.37 0 0 1 -.86-.59c-.23-.15-.91.6-.7-.43-.7-.2-.55-1.39-1.51-1.28l-.15-2.96c.44.39.9.76 1.3 1.19a16.33 16.33 0 0 1 1 1.3l-.15.31-.14-.13v.06l.21.06c.25.41.5.83.77 1.24s.47.64.82 1.11l1.06.43.71-.6h.15v.32c0 .14-.13.35-.08.41a.77.77 0 0 0 .47.2c.55.07 1.09.11 1.64.16l-.16.3zm-3.53-4h-.06v.08a.07.07 0 0 0 .06-.12zm-1.33-1.19a.09.09 0 0 0 0 0l.06.07z" fill="#c6c0bb"/><path d="m8.46 8.82a16.33 16.33 0 0 0 -1-1.3c-.4-.43-.86-.8-1.3-1.19l.16-.63h.46l.19-.3.12-.32 1.25.62h.18.13c0 .51-.31 1.22-.07 1.51.47.55.21 1 .08 1.44l-.15.15z" fill="#d4d0cb"/><path d="m7.06 5.08-.12.32c-.07.1-.13.2-.19.3h-.46q.09-.32.18-.66z" fill="#fbfbf8"/><path d="m8.49 5.68h-.18l.16-.16a.59.59 0 0 0 .02.16z" fill="#d9d9d8"/><path d="m45.69 9.9c0 .28 0 .55-.07.83a2 2 0 0 1 -.76 0 2.74 2.74 0 0 0 -1.79.13 9.33 9.33 0 0 0 -1.26.56 8.61 8.61 0 0 1 -1.21.41 2.44 2.44 0 0 1 -.69 0l.09-.58-.56.48-.32-.46-.15.08.2.66c-.78 0-1.45 0-2.12 0-.51 0-1 .12-1.53.14-.31 0-.63-.12-.94-.13a9.6 9.6 0 0 0 -1.61.08c-.95.15-1.9.36-2.85.55l-1.71.21h-.41c-.18-.88-.65-.55-1.11-.28l-.63-.16-.64-.62v-.33c.51.42.73-.21 1.1-.3l.18.46c0 .11.06.29.11.3.43.06.87.09 1.41.13l.36-.49c.89.65 1.64 0 2.44-.25l.11.19.05-.19c.83.35 1.54-.29 2.33-.29.67.16 1.34.33 2 .46a3.3 3.3 0 0 0 1 0 8.4 8.4 0 0 0 1.2-.36c.27-1.16.51-1.3 1.5-.76h.07-.07l1.37-.84c.31-.32.45-.54.65-.63.37-.17.85-.17 1.16-.41.81-.63 1.67-.22 2.5-.22.09 0 .27.3.26.46a6.3 6.3 0 0 1 -.23 1z" fill="#a19993"/><path d="m39.44 10.37c-1-.54-1.23-.4-1.5.76a8.4 8.4 0 0 1 -1.2.36 3.3 3.3 0 0 1 -1 0c-.68-.13-1.35-.3-2-.46l-.15-.79c.5 0 1.06-.64 1.49.14a1.72 1.72 0 0 0 .47-.3c.3-.4.56-.83.84-1.24l.2.49 1.59-.52-.6-.81 1.42.2.29-1.12 3.11-.28c.49.16.87.51 1.49.1a5.74 5.74 0 0 1 1.88-.49c.12.2.18.25.17.29-.08 1.07-.17 2.14-.25 3.21l-.54-.18a6.3 6.3 0 0 0 .23-1c0-.16-.17-.46-.26-.46-.83 0-1.69-.41-2.5.22-.31.24-.79.24-1.16.41-.2.09-.34.31-.65.63z" fill="#b5ada7"/><path d="m38.36 5.39 3-.17 4-.41c.16 1.05.16 1-.9 1.07-.79 0-1.57.18-2.36.28l-.16-.16c-.76 0-1.52-.06-2.28 0a10.09 10.09 0 0 0 -1.31.19l-6.06.29-3-.13-.62-.35a3.89 3.89 0 0 1 .9-.28c2-.07 4-.11 6.06-.17.91-.04 1.82-.11 2.73-.16z" fill="#fbfbf8"/><path d="m30.12 12.62c.95-.19 1.9-.4 2.85-.55a9.6 9.6 0 0 1 1.61-.07c.31 0 .63.14.94.13.51 0 1-.12 1.53-.14h2.12l-.2-.66.15-.08.32.46.56-.48-.09.58a2.44 2.44 0 0 0 .69 0 8.61 8.61 0 0 0 1.21-.41 9.33 9.33 0 0 1 1.26-.56 2.74 2.74 0 0 1 1.79-.13 2 2 0 0 0 .76 0v1.22l-3.19.18-.92.18-1.41.24a13.46 13.46 0 0 1 -1.42 0c-1.35-.13-2.68.17-4 .06-.7-.06-1.41.23-2.14-.12-.26-.12-.65 0-1 .07l-.3.17zm12.88-1.32h.06a.07.07 0 0 0 0 0l-.06.08-.08.06s.08-.12.08-.14z" fill="#8e7140"/><path d="m38.35 6.17a10.09 10.09 0 0 1 1.31-.17h2.28l.16.14.54.41-.24.22-3.11.28z" fill="#d9d9d8"/><path d="m42.41 12.13 3.19-.13v.46l-1 .16a7.3 7.3 0 0 1 -1.15 0 6.16 6.16 0 0 1 -1.04-.49z" fill="#58340d"/><path d="m44.61 12.57 1-.16c0 .1 0 .2.07.31l.24.35c0 .3-.06.59-.08.88v.32c0 .09 0 .19-.07.29h-.28c-.1-.4-.21-.81-.32-1.22l-.17-.18-.48-.31z" fill="#ccba44"/><path d="m46 4.77-.06.07h.06z" fill="#fbfbf8"/><path d="m9.1 12.67-.54.14z" fill="#8e7140"/><path d="m8.16 12.82-.22.18-.09-.27z" fill="#8e7140"/><path d="m10.8 12.4.12-.21.19.2z" fill="#d4d0cb"/><path d="m45 27.94-.27.94h-.27v-.28s.06 0 .05-.06a.61.61 0 0 0 -.05-.12 12.87 12.87 0 0 1 .27-1.53c.24-.9.54-1.78.82-2.66.1-.1.26-.19.28-.31.18-1.11.34-2.23.48-3.35 0-.41 0-.82 0-1.23h-.31v2a25.63 25.63 0 0 0 -1.13-6.47l.64-.38a2 2 0 0 0 -.16.73c.17 1 .39 1.92.62 3l.25-.39.26 1.53c0 1.1-.09 2.19-.14 3.28l-.09.43-.12.19-.06.61-.1.64-.14.46v.15l-.15.47-.18.62a.05.05 0 0 0 0 .08l-.09.24v.26l-.16.51z" fill="#91520c"/><g fill="#e5e0dd"><path d="m45.49 26.24.18-.62c.21.29.27.53-.18.62z"/><path d="m46 24.54.1-.64z"/><path d="m45.18 27.33.16-.51z"/><path d="m45.38 26.56.09-.24z"/><path d="m45.82 25.15v-.15a.51.51 0 0 1 0 .13s.02.01 0 .02z"/><path d="m46.16 23.29.12-.19z"/></g><path d="m36 74.19h.31c.36.43 0 .58-.3.74s-.58.19-.84.35c-.47.28-.91.61-1.35.92l-.62.17c-.76.1-1.51.25-2.27.3-2 .13-4 .21-6 .31-.52-.07-1-.54-1.57 0h-.61l-.32-.15h-1.03c-.25-.52-.6-.32-.95-.14h-.31l-.47-.14h-.15l-1.88-.76h-.46l-.31-.16-.78-.3-.77-1.4.77.15a10.07 10.07 0 0 0 1.32.3c1.63.18 3.27.32 4.91.47a4 4 0 0 0 .68.1c.92 0 1.83-.06 2.74-.1h1.71l.63-.15 5.61-.47h.31c.28 0 .63-.05.81.09.46.33.82.09 1.19-.13zm-15 1.4a24.25 24.25 0 0 0 11.08 0z" fill="#eeebe6"/><path d="m23.4 77c.53-.54 1.05-.07 1.57 0z" fill="#d9d9d8"/><path d="m20.45 76.68c.35-.18.7-.38.95.14h-.94a.76.76 0 0 1 -.01-.14z" fill="#d9d9d8"/><path d="m22.47 76.83.32.15z" fill="#d9d9d8"/><path d="m36.65 73.86-.21-.71 1.92-.5v.29l-.06.07.07-.06c.64.14.75.36.32.81a5.88 5.88 0 0 1 -.81.57c.1-.5-.12-.69-.61-.61z" fill="#b5ada7"/><path d="m37.26 73.72c.49-.08.71.11.61.61l-.29.18-.47-.17z" fill="#d4d0cb"/><path d="m45.53 24.23c-.28.88-.58 1.76-.82 2.66a12.87 12.87 0 0 0 -.27 1.53v.46c-.15.68-.31 1.36-.46 2v.62a5 5 0 0 0 -.75 1.4c-.29 1.53-.41 3.09-.69 4.62s-.68 3.27-1.06 4.9c-.28 1.13-.68 2.24-.91 3.38-.28 1.41-.4 2.85-.65 4.27-.14.78-.41 1.53-.62 2.29-.42 0-.55-.16-.34-.58a4.38 4.38 0 0 0 .27-.82c0-.1 0-.21 0-.3.32-1.9.77-3.78.91-5.69.08-1.15.82-2.32.11-3.5l.46-.32a3.52 3.52 0 0 0 .47-2.49c.14-.53.33-1.06.43-1.6.22-1.24.31-2.51.62-3.72a17.28 17.28 0 0 1 1.13-2.92c.42-.95 1.08-1.84.62-3 .1-.41.23-.82.3-1.24 0-.15-.09-.31-.15-.47a.76.76 0 0 0 0-.15l.31-.16c.21-.43.44-.84.61-1.28a9.93 9.93 0 0 0 .31-1.12z" fill="#be7509"/><path d="m44 31.07v-.15a.76.76 0 0 1 0 .15z" fill="#a2650b"/><path d="m15.32 73.88.77 1.4-1.56-.46c-.22-.33-.43-.67-.69-1.07.49-.42.98.03 1.48.13z" fill="#d9d9d8"/><path d="m17.64 75.75 1.88.76-.47.15-.31-.14c-.52-.04-.96-.19-1.1-.77z" fill="#d9d9d8"/><path d="m16.87 75.58.31.16z" fill="#d9d9d8"/><path d="m46.15 17.46c0-.45 0-.89-.07-1.34.07.42.15.84.23 1.25z" fill="#e5e0dd"/><path d="m46.15 17.46.16-.09-.11.14z" fill="#91520c"/><path d="m37.26 73.72-.15.62c-.36.88-1.2 1.14-2 1.49a7.37 7.37 0 0 1 -1.32.37c.44-.31.88-.64 1.35-.92.26-.16.58-.2.84-.35s.66-.31.3-.74l.32-.33z" fill="#d9d9d8"/><path d="m8.39 44.61.07 1.1z" fill="#58340d"/><path d="m8.46 42.73-.13 1.27c0-.3 0-.6-.07-.9z" fill="#58340d"/><path d="m15.32 73.88c-.5-.1-1-.55-1.48-.14.26.4.47.74.69 1.07-.56-.21-1.25-.25-1.22-1.14 0-.14-.3-.3-.45-.45l1-.48 2.37.66-.16.63z" fill="#c6c0bb"/><path d="m7.92 39.3v.34z" fill="#8e7140"/><path d="m16.09 74 .16-.63 2.34.17c.46.05.92.13 1.38.14a10.82 10.82 0 0 0 1.26-.15c1.73 0 3.46.19 5.19.14 2.34-.08 4.67-.29 7-.47a9.26 9.26 0 0 0 1.36-.2l.59.44-1.76.24.08.55-5.61.47-.63.15h-.3l-.2-.28-.27.28h-.94c-.81-.1-1.63-.24-2.45-.28a3 3 0 0 0 -1 .28c-1.64-.15-3.28-.29-4.91-.47a10.07 10.07 0 0 1 -1.29-.38z" fill="#d9d9d8"/><path d="m33.38 71.85c-.59.15-1.18.27-1.75.46a6.41 6.41 0 0 0 -.91.45l-1.72-.26z" fill="#8e7140"/><path d="m20.17 72.49 2.18.19-2.11.17z" fill="#a19993"/><path d="m22.64 72.64h4.82c-.91.07-1.82.17-2.73.18-.73-.01-1.4-.12-2.09-.18z" fill="#91520c"/><path d="m21.23 73.56a10.82 10.82 0 0 1 -1.26.15c-.46 0-.92-.09-1.38-.14z" fill="#d4d0cb"/><path d="m7.87 30.59c0-.41 0-.82 0-1.24.18.21.34.42.53.62.94 1 .88 2.38 1.12 3.61.31 1.56.37 3.18.69 4.74s.83 3.21 1.25 4.82c.35 1.34.68 2.69 1 4 .58 2.05.68 4.18 1.09 6.26.27 1.38.58 2.76.85 4.14a26 26 0 0 0 .6 3.09c.52 1.57 1.21 3.08 1.84 4.61a5 5 0 0 0 .48.88.83.83 0 0 0 .37.37c.91.3 1.83.55 2.73.86.18.06.31.29.45.45h-.57c-.8.09-1.61.16-2.4.29-.16 0-.28.31-.41.48h-.64l-1.22.13-.63-.26c.4-.16.8-.3 1.18-.49a1.22 1.22 0 0 0 .5-.48c0-.08-.18-.34-.33-.45a4.64 4.64 0 0 1 -1.82-2.86 8 8 0 0 0 -.6-1.34v-.31c0-.72 0-1.44-.05-2.15s-.12-1.1-.16-1.65c0-.21.07-.42 0-.62-.22-1.47-.48-2.94-.68-4.42-.15-1.13-.17-2.28-.37-3.4s-.56-2.21-.86-3.31c-.24-.91-.46-1.84-.73-2.74-.19-.65-.54-1.25-.67-1.91-.29-1.5-.48-3-.73-4.53-.08-.44-.24-.88-.31-1.32-.17-1.14-.22-2.3-.5-3.41a16.87 16.87 0 0 0 -1-2.46z" fill="#be7509"/><path d="m15.63 68.72 1.22-.13 1.57.31-.14.22 2.79.26-1.6.3c-.06-.09-.13-.26-.19-.26-.66 0-1.33 0-2 0v.21l1.94.09-2.68.14-1.22.08c.26.28.38.39.48.52s.49.31.16.61l-1.4-.3-.3-1h.89z" fill="#764106"/><path d="m14.54 70.74 1.4.3.3.07c.6.19 1.21.37 1.81.58.4.15.79.33 1.18.49h-.23l-2.29-.36a2.4 2.4 0 0 0 -.52-.33c-.57-.18-1.16-.32-1.74-.48a3.88 3.88 0 0 1 -.26-.31z" fill="#f5e871"/><path d="m14.23 70.76h-.48z" fill="#f5e871"/><path d="m13.44 70.73-.37-.27z" fill="#38260f"/><path d="m28.67 6 .65.34-.93.46-.17-.3.34-.5z" fill="#eeebe6"/><path d="m28.25 6c-.36-.16-.82.57-1.11-.14.41-.21.8-.36 1.11.14z" fill="#eeebe6"/><path d="m20.14 5.24-.14-.17.42.16z" fill="#eeebe6"/><path d="m23.93 4.61.1-.09.09.15s-.09 0-.12 0 0-.03-.07-.06z" fill="#eeebe6"/><path d="m26 5.22-.13-.14z" fill="#eeebe6"/><path d="m13.91 4.61.62-.15z" fill="#e5e0dd"/><path d="m16.87 3.84-.2-.06v-.06l.16.11z" fill="#eeebe6"/><path d="m35.24 67.49a2.89 2.89 0 0 1 -.85.3c-1.47 0-2.93 0-4.39 0-.47 0-.93.07-1.39.1a4.44 4.44 0 0 1 -1.31 0 8.11 8.11 0 0 0 -2.6-.08 10 10 0 0 1 -1.64-.07 2 2 0 0 1 -.6-.3l.05-.23a7 7 0 0 0 .79-.07c1.89-.46 3.77.11 5.66 0 .43 0 .86-.12 1.3-.15s1 0 1.51 0h3.47z" fill="#be7509"/><path d="m40.69 51.31c.1.21.3.43.29.65a28.28 28.28 0 0 1 -.16 3.32c-.13.89-.5 1.74-.67 2.63a20.88 20.88 0 0 0 -.38 3 11.47 11.47 0 0 1 -1.23 4.87 3.51 3.51 0 0 0 -.18.82h-.87c1.32-1.75 1.57-3.8 1.9-5.78.36-2.19.46-4.42.68-6.62q.13-1.29.33-2.55c.02-.16.19-.25.29-.34z" fill="#91520c"/><path d="m35.86 67c-.15-.13-.28-.34-.45-.37s-.57 0-.88 0a3.67 3.67 0 0 0 2.26-3 27.66 27.66 0 0 1 .88-4.08 23.59 23.59 0 0 0 .6-3.15c.11-.49.1-1 .18-1.51.11-.67.24-1.33.41-2 0-.11.28-.15.42-.22-.05.67-.05 1.34-.16 2-.33 2.13-.64 4.26-1.1 6.35a12.43 12.43 0 0 0 -.46 2.77 1.23 1.23 0 0 1 -.22.55c-.42.65-.85 1.3-1.31 2l.61.54z" fill="#be7509"/><path d="m34.79 68.77h.29c0 .08.09.15.13.22l.19-.23h.92l1.42-.28c-.07.1-.12.25-.22.29-.88.35-.46 1-.38 1.59-.08.09-.15.19-.23.29l-1.35.22c-.58 0-1.16 0-1.74-.09a1.89 1.89 0 0 1 -.61-.32l1.57-.16.26-.12-.29-.07-4.49-.11v-.3l2.78-.07 1.37-.1z" fill="#764106"/><path d="m41 49.75q.45.61-.3.78z" fill="#91520c"/><path d="m34.78 70.27-1.57.16h-2.31v.14l1 .06v.15a15.92 15.92 0 0 1 -2.45.43c-2.79.05-5.58 0-8.37 0a3 3 0 0 1 -1-.39c-.08-.08-.16-.21-.23-.21-.66 0-1.31 0-2 0l-1.13.05v-.23l.24-.12 10-.32h3.17l4.49.09zm-14 .39c-.06 0-.11-.13-.15-.12s-.14.1-.13.12a.9.9 0 0 0 .16.18z" fill="#f5e871"/><path d="m30.26 70c-1.06 0-2.12 0-3.17 0l-10 .32-.24.12-.26.17.22.06 1.19-.04v.27l-1.72.21-.3-.07c.33-.3 0-.43-.16-.61s-.22-.24-.48-.52l1.22-.08 2.68-.14h.24 10.8z" fill="#91520c"/><path d="m18 70.9v-.27h2c.07 0 .15.13.23.21z" fill="#a2650b"/><path d="m35.56 70.84 1.35-.22a.09.09 0 0 1 0 .1l-.26.12-1.1.34z" fill="#f5e871"/><path d="m36.91 70.72a.09.09 0 0 0 0-.1c.08-.1.15-.2.23-.29 0 .14.08.27.13.41z" fill="#8e7140"/><path d="m36 74.19c-.39.22-.75.46-1.22.08-.18-.14-.53-.07-.81-.09.1-.1.2-.28.29-.28.56 0 1.11 0 1.66.09.08.01.08.13.08.2z" fill="#d9d9d8"/><path d="m35.43 4.49h1.19v.07h-1.19z" fill="#d4d0cb"/><path d="m39.6 43.06c-.05.41-.11.83-.16 1.24-.64 0-.82.49-.92 1a16.51 16.51 0 0 0 -.46 2.7 6 6 0 0 1 -1.73 3.57c-1.54 1.88-1.83 2.17-2.36 4.14a.62.62 0 0 1 -.31.31c-.32.16-.67.26-1 .41a.66.66 0 0 0 -.35.35c0 .12.13.28.23.41s.32.41.48.62a4.87 4.87 0 0 1 -.75.46c-1 .41-2 .05-3 0a3.57 3.57 0 0 0 -2.62.7 3.72 3.72 0 0 0 .88.2 11.52 11.52 0 0 0 1.47-.17c1.17-.24 1.48.1 1.13 1.29-.69 0-1.42.14-1.54 1-.08.52-.38.72-.74.71a2.54 2.54 0 0 1 -1.07-.4c-.16-.09-.21-.41-.37-.47-.69-.27-.54-.7-.3-1.18a1.13 1.13 0 0 0 -.31-1.34c-.41-.47-.81-.14-1.19 0s-.85.3-.6.94c.06.15-.14.41-.23.63l-.5-.74-1.13.85.23.07a13.46 13.46 0 0 1 .23 1.53 8.68 8.68 0 0 1 -.16 1.22c0 .17-.36.35-.34.44.13.58-.35.57-.64.75s-.27.27-.42.32a1.29 1.29 0 0 1 -.74.08 1 1 0 0 1 -.6-1.21 4.31 4.31 0 0 1 -1-1.88 6.73 6.73 0 0 0 -1.22-3.3c-.59-.89-.49-1.87-.87-2.76a9.92 9.92 0 0 1 -.23-1.11c-.22-.75-.5-1.48-.72-2.23-.38-1.33-.72-2.67-1.09-4-.08-.29-.21-.57-.31-.86-.43-1.39-.48-2.9-1.32-4.16-.08-.12 0-.31-.08-.45-.13-.37-.27-.74-.43-1.1a5.07 5.07 0 0 1 -.32-.61c-.27-1.06-.53-2.14-.76-3.21a1.93 1.93 0 0 1 .11-.65c.08.07.21.12.23.2.2.68.37 1.37.56 2a11.6 11.6 0 0 0 .55 1.85c.43.94 1 1.84 1.46 2.75a11.81 11.81 0 0 0 .29 1.34c.17.48.46.91.64 1.38a11.12 11.12 0 0 0 3 4.89 4.42 4.42 0 0 1 .62.85 3.52 3.52 0 0 1 1 .36 2.31 2.31 0 0 0 .78.29 8.44 8.44 0 0 0 1.23-.05l.18.25.63-1.93h.84c0-.25-.1-.57 0-.63a2.87 2.87 0 0 1 .86-.23l-.41 1.06a4.94 4.94 0 0 1 1.18-.4 9.78 9.78 0 0 0 3.56-.62 2.74 2.74 0 0 1 1.06-.17c.88 0 1.83.8 2.58-.29h.15c.41.2.51-.09.68-.38a1.51 1.51 0 0 1 .65-.6 6.79 6.79 0 0 1 1.23-.27c-.23-.57-.08-.95.46-1.14a.83.83 0 0 0 1-.59 4.9 4.9 0 0 1 .59-.89 9.65 9.65 0 0 0 1.36-2.08c.62-1.84 1.07-3.74 1.59-5.61a5 5 0 0 0 .1-.66c0-.3 0-.61.07-.91a14.92 14.92 0 0 1 .26-2.23c.25-.94.65-1.84 1-2.75l.62-.16c0 .21-.1.43-.17.64a5.69 5.69 0 0 0 -.64 2.06c.12 1.29-.69 2.37-.51 3.67a7.2 7.2 0 0 1 -.51 2.32 6.12 6.12 0 0 0 0 1l-.32 1.25z" fill="#e09604"/><path d="m11.42 37.14a1.93 1.93 0 0 0 -.11.65c.23 1.07.49 2.15.76 3.21a5.07 5.07 0 0 0 .32.61c.16.36.3.73.43 1.1 0 .14 0 .33.08.45.84 1.26.89 2.77 1.32 4.16.1.29.23.57.31.86.37 1.33.71 2.67 1.09 4 .22.75.5 1.48.72 2.23a9.92 9.92 0 0 0 .23 1.11c.38.89.28 1.87.87 2.76a6.73 6.73 0 0 1 1.22 3.3 4.31 4.31 0 0 0 1 1.88 1 1 0 0 0 .6 1.21 1.29 1.29 0 0 0 .74-.08c.15 0 .27-.23.42-.32s.77-.17.64-.75c0-.09.32-.27.34-.44a8.68 8.68 0 0 0 .16-1.22 13.46 13.46 0 0 0 -.23-1.53l-.23-.07 1.13-.85.5.74c.09-.22.29-.48.23-.63-.25-.64.19-.78.6-.94s.78-.47 1.19 0a1.13 1.13 0 0 1 .31 1.34c-.24.48-.39.91.3 1.18.16.06.21.38.37.47a2.54 2.54 0 0 0 1.07.4c.36 0 .66-.19.74-.71.12-.82.85-.93 1.54-1 .35-1.19 0-1.53-1.13-1.29a11.52 11.52 0 0 1 -1.45.22 3.72 3.72 0 0 1 -.88-.2 3.57 3.57 0 0 1 2.62-.7c1 0 2 .38 3 0a4.87 4.87 0 0 0 .75-.46c-.16-.21-.33-.41-.48-.62s-.25-.29-.23-.41a.66.66 0 0 1 .35-.35c.32-.15.67-.25 1-.41a.62.62 0 0 0 .31-.31c.53-2 .82-2.26 2.36-4.14a6 6 0 0 0 1.76-3.59 16.51 16.51 0 0 1 .46-2.77c.1-.47.28-1 .92-1-.12.56-.27 1.12-.36 1.69s-.17 1.37-.29 2-.31 1.49-.48 2.23a17.12 17.12 0 0 1 -.5 1.77 5.62 5.62 0 0 1 -.6.87c-.1.14-.25.31-.24.45a20.9 20.9 0 0 1 -.51 4.73 6.69 6.69 0 0 1 -.69 1.62c-.07.16-.24.35-.2.48a3.67 3.67 0 0 1 -.27 2.14c-.18.67-.38 1-.87 1l-.79 2a.26.26 0 0 1 -.17.14l-3.16.38a14.68 14.68 0 0 1 -1.61.11c-1 0-1.93-.13-2.88-.08-.68 0-1.33.35-2 .43a24.86 24.86 0 0 1 -3.75.24c-.95 0-1.53-.92-2-1.63a11 11 0 0 1 -1.92-4.78c-.24-1.37-.4-2.75-.64-4.12-.07-.39-.36-.74-.44-1.13-.34-1.62-.65-3.25-.94-4.87a33.89 33.89 0 0 0 -1.77-7.07 39.71 39.71 0 0 1 -1.9-7.07 9.49 9.49 0 0 1 -.07-1.51l.62.47v.28l.15.47z" fill="#d59006"/><path d="m40.07 41.5a6.12 6.12 0 0 1 0-1 7.2 7.2 0 0 0 .51-2.32c-.18-1.3.63-2.38.51-3.67a5.69 5.69 0 0 1 .64-2.06c.07-.21.12-.43.17-.64a11.34 11.34 0 0 0 1-1.72c.32-.85 1-1.61.74-2.64h.36c.46 1.13-.2 2-.62 3a17.28 17.28 0 0 0 -1.13 2.92c-.31 1.21-.4 2.48-.62 3.72-.1.54-.29 1.07-.43 1.6a3.46 3.46 0 0 0 -.47 2.49l-.46.32z" fill="#d59006"/><path d="m8.31 27.49a5.54 5.54 0 0 1 -.59-1.68 33.49 33.49 0 0 1 .15-4.48c.16-1.6.58-3.18.73-4.78.05-.5.22-1.18-.33-1.66-.16-.14-.18-.42-.27-.63l.31-.16.16.16a4.08 4.08 0 0 1 .61 1.19 27 27 0 0 1 .16 2.71v.15l-.39.11.24.2c0 .27 0 .53-.05.8a4.52 4.52 0 0 1 -.2 1.49 5 5 0 0 0 -.58 3.4v.61c.1.8.23 1.61.35 2.42z" fill="#d59006"/><path d="m18.42 68.9-1.57-.31h.64a3.24 3.24 0 0 0 2.81-.77h.61c.64.08 1.28.14 1.91.27.22.05.39.32.61.43a1.72 1.72 0 0 0 .75.23h7.14a4.61 4.61 0 0 1 .81.15c-1.06.04-2.13.1-3.13.1-3.55 0-7.07-.06-10.58-.1z" fill="#d59006"/><path d="m18.42 68.9c3.51 0 7 .11 10.54.13 1.05 0 2.11-.09 3.17-.14l2.66-.12-.37.76-1.42-.11c-1.18 0-2.36 0-3.54 0l-8.43-.07-2.79-.26z" fill="#91520c"/><path d="m8.31 27.49.31-.15c0 .46-.11 1 .47 1.24l.31.78a5.38 5.38 0 0 0 .43 1.54 7 7 0 0 1 1.17 3.91l-.62-.47a8.92 8.92 0 0 1 -.2-1 12.82 12.82 0 0 0 -1.58-4.18 2.18 2.18 0 0 1 -.29-1.67z" fill="#e09604"/><path d="m6.76 21.11.3-.36c.11-.13.21-.28.31-.42a12.5 12.5 0 0 1 0 1.62c-.13 1.05-.37 2.05-.5 3.05-.15-.58-.31-1.16-.46-1.74.11 0 .31-.07.31-.11.03-.66.03-1.35.04-2.04z" fill="#be7509"/><path d="m7.37 20c0-.85 0-1.72.11-2.57a2 2 0 0 1 .36-.7 5.14 5.14 0 0 1 .07.78c-.06.72-.15 1.44-.26 2.16-.01.14-.18.24-.28.33z" fill="#be7509"/><path d="m7.23 13.19 3 .09v.21h-1.77l-.79-.13z" fill="#ccba44"/><path d="m7.67 13.35.79.13-.15.62-.31.16c-.17-.26-.65-.45-.33-.91z" fill="#e09604"/><path d="m35.4 68.75-.19.23c0-.07-.09-.14-.13-.22z" fill="#91520c"/><path d="m39.6 43.06.15-.31z" fill="#d59006"/><path d="m6.76 21.11v2.06s-.2.08-.31.11c-.1-.41-.19-.82-.29-1.23.09-.65.19-1.31.26-2 .14-1.25.26-2.49.38-3.74 0-.44.1-.87.14-1.31a8.09 8.09 0 0 1 .41 1.7c0 .43-.34.86-.38 1.31-.15 1.06-.16 2.08-.21 3.1z" fill="#91520c"/><path d="m6.44 15.2v-.06z" fill="#8e7140"/><path d="m10.17 13.49v-.21h.25 1.91.16.5.75.32.6.34.07.06.47l6.25-.12 2.79.11 3.12-.11 3.44-.12 1.22.29-.61.59-.17.63c-.34 0-.66-.1-.79 0-.43.38-.69 0-1-.15-.15-.08-.32-.3-.43-.26-.64.18-.78-.32-1-.68l-7.62.19a7.34 7.34 0 0 0 .6.56.9.9 0 0 1 .26 1.41 6.37 6.37 0 0 0 -.45.86 5.59 5.59 0 0 1 -.53 1.1 2.66 2.66 0 0 0 -.15 2.88 7.38 7.38 0 0 1 .79 2c0 .18-.52.48-.79.73 0 .05 0 .15-.05.23a6.34 6.34 0 0 0 -1.83-.1c-1.09.25-1.55-.46-2.09-1.11-.12-.16-.22-.46-.34-.46-.67 0-.78-.58-1-1l-.65-1-.9.27.5-.47c.19-.16.5-.28.54-.47a11.91 11.91 0 0 0 .2-1.59l-.59-.09.45-1-.24.08-1.18-1.14-.37.78-.98-1.7 1.78.29c.42.57 3 .58 3.68-.24-.69-.2-1.34-.43-2-.56-.9-.18-1.81-.29-2.73-.41a9.19 9.19 0 0 0 -1 0z" fill="#fccb28"/><path d="m12.35 13.3h-1.23s0-.07 0-.11l.15-.29 2.5-.22 1.87.19v.42h-.47-.46-.6-.32-.79-.5l-.09-.15z" fill="#8e7140"/><path d="m11.11 13.2s0 .07 0 .11h-.68z" fill="#ccba44"/><path d="m19.21 6.33c1.37 0 2.74-.09 4.12-.11a8.66 8.66 0 0 1 1 .11c-.21.15-.53.27-.59.47-.15.5-.47.49-.85.42s-.63-.15-1-.24l-.18 1.52-.71-.3c-.36.71-.66 1.33-1 1.92-.06.12-.29.13-.43.21a6.37 6.37 0 0 0 -.55.35l-.57.37.29.2.28-.57c.69.05.18.69.46.93l-.78.47h-.46l-.92-.24c-.5.61-1.12.52-1.57-.38l.39-.47h-.54c-.45-.33-.46 0-.47.32a3.19 3.19 0 0 1 -.87.39c-.88.09-1.28-.59-1.82-1.18l.81-.35-1.69-.58c-.21-.24.5-1.41-.91-.86l.25-1.39-.59-.14-.17-1.33 1.44.13a4.57 4.57 0 0 0 .79.74c.64.34 1.32.61 2.12 1l.31-.47.63.46c.3-.76.78-.58 1.27-.32 1 .5 1.1.44 1.34-.41.32-.49 1.14.23 1.17-.67zm-1.46 5.21h.31l.05-.74h-.3z" fill="#e5e0dd"/><path d="m10.17 5.87.17 1.33.59.14-.25 1.39c1.41-.55.7.62.91.86l1.69.58-.81.35c.54.59.94 1.27 1.82 1.18a3.19 3.19 0 0 0 .87-.39l.47-.32h.54l-.39.47c-.18.21-.32.51-.55.61a8.08 8.08 0 0 1 -1.31.32c-.55-.05-1.09-.09-1.64-.16a.77.77 0 0 1 -.47-.2c-.05-.06 0-.27.08-.41l.36-.58-.13-.04-.23.18c0-.46-.12-.64-.65-.51-.27.06-.81-.11-.87-.29a1.92 1.92 0 0 0 -1.2-1.19.84.84 0 0 1 -.24-.19v-.19l-.3-.16c.13-.48.39-.89-.08-1.44-.24-.29 0-1 .07-1.51z" fill="#d9d9d8"/><path d="m19.51 11.61c-.28-.24.23-.88-.46-.93a6.37 6.37 0 0 1 .55-.35c.14-.08.37-.09.43-.21.33-.59.63-1.21 1-1.92l.69.3.17-1.5c.38.09.69.18 1 .24s.7.08.85-.42c.06-.2.38-.32.59-.47h.78l1.1.65-.47.47-.3.15-.44-.4-2 .78.08.7c-.54.05-1.21 1.88-.93 2.66l-.71-.08.21-.81c-.74.69-1.09 1.65-2.14 1.14z" fill="#d9d9d8"/><path d="m19.21 6.33c0 .9-.85.18-1.17.66-.24.85-.38.91-1.34.41-.49-.26-1-.44-1.27.32l-.63-.46-.31.47c-.8-.36-1.48-.63-2.12-1a4.57 4.57 0 0 1 -.79-.73c1.24.07 2.49.19 3.74.22s2.42 0 3.63 0c.05-.03.17.06.26.11z" fill="#eeebe6"/><path d="m26.21 7-1.09-.62 3.12.14-1.88.48z" fill="#c6c0bb"/><path d="m8.63 8.65.3.16v.19a.84.84 0 0 0 .24.19 1.92 1.92 0 0 1 1.2 1.19c.06.18.6.35.87.29.53-.13.66 0 .65.51l-.15.15-.71.6-1.13-.45c-.35-.47-.6-.78-.82-1.11s-.52-.83-.77-1.24l.15-.31.15-.15z" fill="#d4d0cb"/><path d="m13.92 12.39a8.08 8.08 0 0 0 1.31-.32c.23-.1.37-.4.55-.61.45.9 1.07 1 1.57.38l.92.24-.62.75-2 .05-1.87-.19z" fill="#d4d0cb"/><path d="m11.89 11.15.23-.18.13.07-.36.58z" fill="#d4d0cb"/><path d="m8.31 9.13-.21-.06v-.06l.17.12z" fill="#d4d0cb"/><path d="m7.73 8.87a.07.07 0 0 1 0 .05v-.07z" fill="#d4d0cb"/><path d="m6.4 7.72-.08-.02a.09.09 0 0 1 0 0z" fill="#e5e0dd"/><path d="m11.89 11.15v.15h-.15z" fill="#d9d9d8"/><path d="m11.24 12.72.08-.07-.09.06z" fill="#b5ada7"/><path d="m6.75 5.7c.06-.1.12-.2.19-.3-.07.1-.13.2-.19.3z" fill="#e5e0dd"/><path d="m8.62 8.66-.15.15z" fill="#c6c0bb"/><path d="m38.35 6.17.94.9c-.1.38-.19.76-.29 1.12l-1.42-.19.54.8-1.59.52-.2-.49v-.07.07c-.28.41-.54.84-.84 1.24a1.72 1.72 0 0 1 -.47.3c-.43-.78-1-.13-1.49-.14 0 0 0 0 0-.06l.07.07.15.79c-.79 0-1.5.64-2.33.29h-.16c-.8.25-1.55.9-2.44.25l-.36.49c-.54 0-1-.07-1.41-.13-.05 0-.07-.19-.11-.3l.09-.48h-.27c0-.05 0-.1 0-.15v-.3l-1-.13-.05.75a.57.57 0 0 0 0 .13v.33l-.45.44-.93.07c-.05-.17-.11-.34-.16-.52s.21-.43.3-.43c.5 0 .71-.3.61-.65a2.11 2.11 0 0 0 -.68-.82c-.07-.06-.29.07-.42.1l-.1-1.15a2.54 2.54 0 0 0 .88.17 4.81 4.81 0 0 0 1.11-.41l-.29-.58a8.53 8.53 0 0 1 1-.2 6.6 6.6 0 0 0 1 0 10.59 10.59 0 0 0 2.76-.8 2.87 2.87 0 0 1 1.74-.36c.06 0 .12-.15.19-.23z" fill="#c6c0bb"/><path d="m27.77 13.18-3.12.11.63-.77c.33.13.66.22.93-.13l.63.16.92.46z" fill="#a2650b"/><path d="m27.77 13.18v-.18l.19-.18h.46l1.71-.21 1.08.13v.31z" fill="#91520c"/><path d="m26.21 12.39c-.27.35-.6.26-.93.13l-.16-.31.45-.44c.22.23.43.41.64.62z" fill="#b5ada7"/><path d="m28 12.83-.19.18-.92-.46c.41-.27.88-.55 1.11.28z" fill="#8e7140"/><path d="m26.67 11s0 .1 0 .15c-.37.09-.59.72-1.1.3a.57.57 0 0 1 0-.13z" fill="#b5ada7"/><path d="m26.69 11.15h.27l-.09.48z" fill="#b5ada7"/><path d="m31.35 11.3-.05.19-.11-.19z" fill="#c6c0bb"/><path d="m39.44 10.37h.07z" fill="#b5ada7"/><path d="m32.29 6.46c-.07.08-.13.24-.19.23a2.87 2.87 0 0 0 -1.74.36 10.59 10.59 0 0 1 -2.76.8 6.6 6.6 0 0 1 -1 0 8.53 8.53 0 0 0 -1 .2l.15.54a4.81 4.81 0 0 1 -1.13.41 2.54 2.54 0 0 1 -.88-.17l.1 1.15c.13 0 .35-.16.42-.1a2.11 2.11 0 0 1 .68.82c.1.35-.11.67-.61.65-.09 0-.2.28-.3.43-.34.08-.74.31-1 .2a3.23 3.23 0 0 0 -1.69 0 3.28 3.28 0 0 0 -.7.3l-.65.15h-.3l-.95-.32.78-.47c1 .51 1.4-.45 2.09-1.14l-.21.81.71.08c-.28-.78.39-2.61.93-2.66l-.04-.73 2-.78.41.35.3-.15.5-.42h.15c.73.56 1.36-.06 2-.16l.93-.46z" fill="#d4d0cb"/><path d="m42.1 6.16-.16-.16z" fill="#d4d0cb"/><path d="m31.21 13.06v-.2l.3-.28c.34 0 .73-.19 1-.07.73.35 1.44.06 2.14.12 1.35.11 2.68-.19 4-.06a13.46 13.46 0 0 0 1.42 0l.46.45-2.35.17c-.53 0-1.07 0-1.6 0-1.38.05-2.77.13-4.16.19z" fill="#a2650b"/><path d="m40.54 13-.46-.45 1.41-.24.92-.18a6.16 6.16 0 0 0 1.05.41 7.3 7.3 0 0 0 1.15 0v.28z" fill="#91520c"/><path d="m31.5 12.58-.3.28v-.11z" fill="#764106"/><path d="m43 11.31.06-.08a.07.07 0 0 1 0 0h-.06z" fill="#a19993"/><path d="m43 11.3s0 0 0 .06l.08-.06z" fill="#a19993"/><path d="m45 13.16.16.17c0 .05-.09.1-.13.16l-.33.31-2.3 1.55c-.15.08-.42.14-.42.22a15 15 0 0 0 -.08 3.2 12.42 12.42 0 0 0 1 3c.3.67 0 1.39.16 1.95a4.35 4.35 0 0 1 .08 2.26c-.2-.08-.52-.1-.58-.24a4.8 4.8 0 0 1 -.34-1.39 14.83 14.83 0 0 0 -.94-4.56 3.91 3.91 0 0 1 -.43-1.21c0-1.12.07-2.23.11-3.34a15.6 15.6 0 0 0 1.51-.65 10.82 10.82 0 0 0 1.14-.91v-.45z" fill="#f1ae09"/><path d="m45.53 24.23c-.05-.42-.11-.84-.17-1.26v-1.54a8.2 8.2 0 0 0 0-1c-.18-1-.36-2-.58-3a8.43 8.43 0 0 0 -.45-1.18l-.33-1.11c.58-.46 1.39-.7 1-1.65l.13-.16c.11.41.22.82.32 1.22l-.64.38a25.63 25.63 0 0 1 1.19 6.47v-2h.28v1.23" fill="#a2650b"/><path d="m45 13.16h-1.38-1.52l-2.2.14h-.45l-1.26-.17 2.35-.13 4-.15z" fill="#fccb28"/><path d="m44.44 28.6v-.18a.61.61 0 0 1 .05.12s-.03.04-.05.06z" fill="#8e7140"/><path d="m21 75.59h11a24.25 24.25 0 0 1 -11 0z" fill="#c6c0bb"/><path d="m22.32 74.8a3 3 0 0 1 1-.28c.82 0 1.64.18 2.45.28-.91 0-1.82.08-2.74.1a4 4 0 0 1 -.71-.1z" fill="#e5e0dd"/><path d="m27.45 74.8.63-.15z" fill="#e5e0dd"/><path d="m26.68 74.8.27-.28.2.28z" fill="#e5e0dd"/><path d="m38.36 73-.07.06.06-.07z" fill="#a19993"/><path d="m43.18 25.94a4.35 4.35 0 0 0 -.08-2.26c-.19-.56.14-1.28-.16-1.95a12.42 12.42 0 0 1 -1-3 15 15 0 0 1 .08-3.2c0-.08.27-.14.42-.22.08.47.34 1 .19 1.41-.37 1 .18 1.77.31 2.64a9.84 9.84 0 0 0 .72 1.91 5.35 5.35 0 0 1 .56 1.46 27.3 27.3 0 0 1 -.06 2.86.76.76 0 0 1 0 .15c-.85.6-1 1.09-.46 1.71.3 1-.42 1.79-.74 2.64a11.34 11.34 0 0 1 -1 1.72l-.62.16.16-.63c.26-.46.52-.93.77-1.4l.3-.47c.06-.47.1-.94.18-1.41.11-.68.25-1.4.43-2.12zm.25-2.53s-.09-.06-.12-.05 0 .08-.06.12.09.06.13.05.04-.08.05-.12z" fill="#e89c04"/><path d="m44.12 25.63a27.3 27.3 0 0 0 .06-2.86 5.35 5.35 0 0 0 -.56-1.46 9.84 9.84 0 0 1 -.72-1.91c-.13-.87-.68-1.67-.31-2.64.15-.39-.11-.94-.19-1.41l2.34-1.55c-.33.36-.58.84-1 1s-.8.76-.51 1.09c.45.53.2 1.11.35 1.64a33.89 33.89 0 0 1 .72 3.77c.23 1.37.67 2.73.11 4.12z" fill="#e09604"/><path d="m44.43 25.47c.56-1.39.12-2.75-.11-4.12a33.89 33.89 0 0 0 -.72-3.77c-.15-.53.1-1.11-.35-1.64-.29-.33 0-.82.51-1.09s.65-.69 1-1l.33-.31c.36.95-.45 1.19-1 1.65.07.36.16.75.24 1.14-.11.33-.36.68-.31 1a24.51 24.51 0 0 0 .66 3.06 4.21 4.21 0 0 0 .72 1.11v.3c-.51.32-.09.63 0 .94v.26a9.93 9.93 0 0 1 -.4 1.19c-.13.44-.36.81-.57 1.28z" fill="#ca860b"/><path d="m43.65 27.49c-.53-.62-.39-1.11.46-1.71.06.16.17.32.15.47-.07.42-.2.83-.3 1.24z" fill="#e09604"/><path d="m40.69 41.19a3.46 3.46 0 0 1 .47-2.49 3.52 3.52 0 0 1 -.47 2.49z" fill="#ca860b"/><path d="m20.3 67.8a3.24 3.24 0 0 1 -2.81.77c.13-.17.25-.45.41-.48.79-.09 1.6-.2 2.4-.29z" fill="#ca860b"/><path d="m21.07 69.38 8.43.07h3.54v.21l-2.78.07h-10.8z" fill="#f5e871"/><path d="m19.44 69.67h-.24l-1.94-.09v-.21h2c.05.04.12.21.18.3z" fill="#ccba44"/><path d="m28.39 6.79c-.67.1-1.3.72-2 .16l1.86-.46c.03.1.09.2.14.3z" fill="#d9d9d8"/><path d="m33.05 69.63v-.21l1.38.11z" fill="#ccba44"/><path d="m34.78 70.27v-.19l.29.07z" fill="#ccba44"/><path d="m20.76 70.66-.12.18a.9.9 0 0 1 -.16-.18s.08-.12.13-.12.09.07.15.12z" fill="#ccba44"/><path d="m16.83 70.68-.22-.06.26-.17z" fill="#a2650b"/><path d="m16.87 70.45.24-.12z" fill="#a2650b"/><path d="m41.47 31.38-.16.63c-.33.91-.73 1.81-1 2.75a14.92 14.92 0 0 0 -.24 2.24c-.14.07-.38.12-.4.22a18.37 18.37 0 0 1 -.42 2.5 22.7 22.7 0 0 1 -1.64 3.66 4 4 0 0 1 -2.61 1.62c-.85.26-1.65.6-2.17-.52 0-.09-.33-.14-.49-.1a3.68 3.68 0 0 1 -2.79-.61 3.37 3.37 0 0 0 -1.55-.34c-.22 0-.45 0-.67 0-.74-.11-1.46-.27-2.2-.35-.16 0-.38.15-.51.29-.32.35-.58.75-.92 1.09-.13.13-.48.25-.58.17-.46-.33-.74-.11-1.09.19a1.25 1.25 0 0 1 -1.94 0 .74.74 0 0 0 -.48-.18c-.75.2-1.07-.25-1.31-.82a1.56 1.56 0 0 1 -1.87-.42 15.52 15.52 0 0 0 -2-2.11 2.58 2.58 0 0 1 -1-1.76 5.29 5.29 0 0 0 -1.12-2.42 1.06 1.06 0 0 1 -.2-.46c-.22-1.07-.4-2.14-.64-3.2a11.85 11.85 0 0 0 -2-4.13l-.31-.78c-.16-.54-.23-1.18-.29-1.79a12.58 12.58 0 0 1 -.09-1.5 7.81 7.81 0 0 1 .14-1 13.6 13.6 0 0 1 .14-1.7c.18-.83.5-1.62.67-2.45s.93-1.75.35-2.77c-.05-.1.05-.3.12-.44a.63.63 0 0 0 -.34-1l.07-.66c-.28-.19-.5-.34-.71-.5s-.5-.36-.75-.55l-.16-.16.15-.62h.62a1.55 1.55 0 0 0 1.49 1.22v.44l.34-.15c.13.4.25.77.36 1.14a2.92 2.92 0 0 0 -.23.41c.77.62.27 1.27.07 1.91-.09.31-.22.6-.33.91a16.25 16.25 0 0 0 -.57 1.72c-.22.85-.4 1.71-.56 2.57a12.29 12.29 0 0 0 -.34 2.43 7.44 7.44 0 0 0 .43 2.33 16.47 16.47 0 0 0 1.15 2.35 18.7 18.7 0 0 1 1.35 2.43c.37 1 .48 2.18.76 3.27a13.52 13.52 0 0 0 .6 1.56l.31.31.16.47a17.22 17.22 0 0 0 .58 1.89 1.61 1.61 0 0 0 2.09 1.07 6.57 6.57 0 0 0 1.09-.48c.34-.14.68-.34.87.21a1.35 1.35 0 0 0 .4.59 7.48 7.48 0 0 0 1.25.74c.29.12.76.29.92.16.47-.4 1.35-.54 1.09-1.53a1.94 1.94 0 0 1 1.2-2.05c.15-.06.33-.09.42-.2.65-.84 1.49-.54 2.33-.46a8 8 0 0 0 2.74.1c.79-.21.83 0 .91.58s.22.81.77.78 1.11-.06 1.18.73c0 .1.22.24.36.26 1 .19 1.59 1.32 2.81 1.17.51-.07 1.91-.18 2.28-.61a2 2 0 0 0 .65-1.3 5.36 5.36 0 0 1 .67-1.6c.21-.48 0-1.12.62-1.42.08 0 .11-.23.11-.35a12 12 0 0 1 .53-3.78 2.66 2.66 0 0 1 1.53-1.82z" fill="#f1ae09"/><path d="m9.4 29.36a11.85 11.85 0 0 1 2 4.13c.24 1.06.42 2.13.64 3.2a1.06 1.06 0 0 0 .2.46 5.29 5.29 0 0 1 1.12 2.42 2.58 2.58 0 0 0 1 1.76 15.52 15.52 0 0 1 2 2.11 1.56 1.56 0 0 0 1.87.42c.24.57.56 1 1.31.82a.74.74 0 0 1 .48.18 1.25 1.25 0 0 0 1.94 0c.35-.3.63-.52 1.09-.19.1.08.45 0 .58-.17.34-.34.6-.74.92-1.09.13-.14.35-.31.51-.29.74.08 1.46.24 2.2.35h.67a3.37 3.37 0 0 1 1.56.29 3.68 3.68 0 0 0 2.79.61c.16 0 .45 0 .49.1.52 1.12 1.32.78 2.17.52a4 4 0 0 0 2.62-1.58 22.7 22.7 0 0 0 1.64-3.66 18.37 18.37 0 0 0 .42-2.5c0-.1.26-.15.4-.22 0 .3 0 .61-.07.91a5 5 0 0 1 -.1.66c-.52 1.87-1 3.77-1.59 5.61a9.65 9.65 0 0 1 -1.26 2.04 4.9 4.9 0 0 0 -.59.89.83.83 0 0 1 -1 .59 4.48 4.48 0 0 0 -.82-.7 9.45 9.45 0 0 0 -1.23-.49l-6 .4c-.18-.38-1.59-.62-1.88-.16-.63 1-1.67.59-2.33.9-.34.71-.63 1.35-1 2-.5 1-1 1.9-1.65 3-.54-1.19-1.69-1.89-1.81-3.34-.67.15-.45-.69-.77-.89-.72-.44-.77-1.2-1.13-1.79a2.23 2.23 0 0 0 -.52-.62c-.24-.21-.59-.31-.81-.54-.46-.47-.87-1-1.3-1.51-.49-.91-1-1.81-1.46-2.75a11.6 11.6 0 0 1 -.55-1.85c-.19-.68-.36-1.37-.56-2 0-.08-.15-.13-.23-.2l-.31-1.71-.05-.48v-.15a7 7 0 0 0 -1.17-3.95 5.38 5.38 0 0 1 -.43-1.54z" fill="#e8a309"/><path d="m14.22 44c.43.51.84 1 1.3 1.51.22.23.57.33.81.54a2.23 2.23 0 0 1 .52.62c.36.59.41 1.35 1.13 1.79.32.2.1 1 .77.89.12 1.45 1.27 2.15 1.81 3.34.62-1.13 1.15-2.07 1.65-3 .33-.62.62-1.26 1-2 .66-.31 1.7.1 2.33-.9.29-.46 1.7-.22 1.88.16l6-.4a9.45 9.45 0 0 1 1.23.49 4.48 4.48 0 0 1 .82.7c-.54.19-.69.57-.46 1.14a6.79 6.79 0 0 0 -1.23.27 1.51 1.51 0 0 0 -.65.6c-.17.29-.27.58-.68.38-.05 0-.14 0-.15 0-.75 1.09-1.7.32-2.58.29a2.74 2.74 0 0 0 -1.06.17 9.78 9.78 0 0 1 -3.56.62 4.94 4.94 0 0 0 -1.18.4l.41-1.06a2.87 2.87 0 0 0 -.86.23c-.09.06 0 .38 0 .63h-.84l-.63 1.93-.18-.25a8.44 8.44 0 0 1 -1.23.05 2.31 2.31 0 0 1 -.78-.29 3.52 3.52 0 0 0 -1-.36 4.42 4.42 0 0 0 -.62-.85 11.12 11.12 0 0 1 -3-4.89c-.18-.47-.47-.9-.64-1.38a11.81 11.81 0 0 1 -.33-1.37z" fill="#e89c04"/><path d="m11 35 .15.47z" fill="#e09604"/><path d="m9.86 16a.63.63 0 0 1 .34 1c-.07.14-.17.34-.12.44.58 1-.18 1.86-.35 2.77s-.49 1.62-.67 2.45a13.6 13.6 0 0 0 -.14 1.7 7.81 7.81 0 0 0 -.14 1 12.58 12.58 0 0 0 .09 1.5c.06.61.14 1.22.22 1.83-.58-.26-.46-.78-.47-1.24-.12-.81-.25-1.62-.35-2.42 0-.2 0-.42 0-.61a5 5 0 0 1 .58-3.4 4.52 4.52 0 0 0 .15-1.6c0-.27 0-.53.05-.8l.15-.31v-.15c.47 0 .46-.28.48-.61.06-.55.13-1.05.18-1.55z" fill="#e89c04"/><path d="m9.86 16c0 .53-.12 1-.14 1.58 0 .33 0 .64-.48.61a27 27 0 0 0 -.16-2.71 4.08 4.08 0 0 0 -.61-1.19c.25.19.49.37.75.55s.43.31.71.5z" fill="#e09604"/><path d="m9.24 18.31-.15.31-.24-.2z" fill="#e09604"/><path d="m11.27 16.13-.36-1.13-.34.15v-.45a1.55 1.55 0 0 1 -1.49-1.22h2.64c.11.31.22.61.32.92l.87 1.72.37-.78 1.18 1.14.24-.08-.45 1 .59.09a11.91 11.91 0 0 1 -.2 1.59c0 .19-.35.31-.54.47l-.5.47a1.29 1.29 0 0 1 .09.53c-.11.53-.11 1.27-.45 1.52a5.69 5.69 0 0 0 -1.75 2.38.44.44 0 0 0 .07.41c.54.35.23.61 0 .92a1.53 1.53 0 0 0 -.5 1.22 5.32 5.32 0 0 0 .56 2c.4.92.68 1.85 1.75 2.22 0 0 0 .09.07.13a1.53 1.53 0 0 0 2.37.38c0-.05.12-.12.19-.11.83 0 1.67.1 2.5.05 1-.05 2-.22 3.14-.35l.73.27.11-.21-.52-1 1-.18.3 1 .79.93-1.63.17-.07-.43h-.2c0 .27-.1.55-.13.83-.05.55-.42.85-.88.59a2.17 2.17 0 0 0 -2.67.3l.67.9c-.61.54-1.22 1.08-1.84 1.61a.38.38 0 0 1 -.22.07 2 2 0 0 0 -1.56 1.22c-.21.5-.47.4-1 0l.75-.24c-1.22-.68-1.09-1.7-1.16-2.64 0-.18 0-.43-.06-.52-.78-.68-.59-1.92-1.63-2.52-.82-.47-.93-1.64-1.51-2.33-1-1.16-.67-2.44-.65-3.69a6.65 6.65 0 0 1 .46-1.69 22 22 0 0 0 .87-2.68c.23-1.17.28-2.37.4-3.55 0-.4.06-.81.1-1.27z" fill="#fbbf11"/><path d="m23.25 31.23-.3-1-1 .18.52 1-.11.21-.73-.27c-1.14.13-2.13.3-3.14.35-.83.05-1.67 0-2.5-.05-.07 0-.14.06-.19.11a1.53 1.53 0 0 1 -2.37-.38s0-.12-.07-.13c-1.06-.44-1.36-1.37-1.74-2.25a5.32 5.32 0 0 1 -.56-2 1.53 1.53 0 0 1 .46-1.21c.27-.31.58-.57 0-.92a.44.44 0 0 1 -.07-.41 5.69 5.69 0 0 1 1.75-2.38c.34-.25.34-1 .45-1.52a1.29 1.29 0 0 0 -.05-.56l.9-.27.65 1c.26.42.37 1 1 1 .12 0 .22.3.34.46.54.65 1 1.36 2.09 1.11a6.34 6.34 0 0 1 1.83.1c0 .33 0 .94.05 1a7 7 0 0 0 1.38 0v-.19l1.81 1.38-.07.85.57-.73.67.31.94-.71.1 1.15h.26l.31-1.73a2.86 2.86 0 0 1 .84.38c.8.85.78.86 1.64.11l-.54-1.07c.88-.34 1.69-.64 2.49-1a1.07 1.07 0 0 0 .41-.32c.39-.44.59-.35.65.21h-.22l.12.83h.24c0-.27-.09-.55-.14-.83h.75l-.25-1c.66-.14 1.38-.08 1.7-.41a3.13 3.13 0 0 1 2.49-1.06c1 0 1.77.87 2.8.52 0 0 .15.07.18.13a29.36 29.36 0 0 1 1.41 2.69 8.32 8.32 0 0 1 .48 2.1 14.07 14.07 0 0 1 .13 2.34 8.37 8.37 0 0 1 -.27 1.48v.17l-.92.49c-.54.3-.07.86-.32 1.22l-.47.63a20 20 0 0 0 -2.41 1.29c-.95.41-1.71 1-2.79.6.11-1.21-1-2-2.4-1.55.09-.79-.46-.89-1-.9a10.78 10.78 0 0 0 -1.23.14c.05-1.06-.09-1.17-.91-.82-.12.05-.29.13-.36.08-.64-.4-1.3-.1-1.95-.09a3.06 3.06 0 0 0 -.17-.74 7.06 7.06 0 0 0 -.58-.89l-.31 1c-.54-.48-.94-.56-1.17.19 0 .09-.24.13-.36.2zm10.36-1.69a6 6 0 0 1 .85.37 26.27 26.27 0 0 0 2.54 1.66 1.35 1.35 0 0 0 1.85-.44c.38-.63.81-1.22 1.25-1.81a2.9 2.9 0 0 0 -1.78-4.42 4.91 4.91 0 0 0 -4.44 1l.92.58c-.29.26-.5.61-.75.64-.52.06-.63.3-.64.76a2.51 2.51 0 0 1 -.17.69zm-2.09 1.66c-.13-.11-.2-.2-.28-.22s-.17.13-.17.18a.32.32 0 0 0 .19.19c.06.01.14-.08.26-.15zm-5.69-4.37-.13-.06s-.06.1 0 .13.08 0 .12.06a1.12 1.12 0 0 0 .01-.13z" fill="#fcc515"/><path d="m32 23.13c0-.56-.25-.65-.64-.21a1.07 1.07 0 0 1 -.41.32c-.8.32-1.61.62-2.49 1l.54 1.03c-.86.75-.84.74-1.64-.11a2.86 2.86 0 0 0 -.84-.38l-.31 1.73h-.26l-.1-1.15-.94.71-.67-.31-.57.73.07-.85-1.84-1.38v.19a7 7 0 0 1 -1.38 0c-.08 0 0-.63-.05-1 1.42 0 1.23.16 1.25-1.23a6.42 6.42 0 0 1 0-1.16c.11-.61.3-1.21.45-1.82.59.19.49.55.22 1l.44.22-.21 1.81h.23a4.57 4.57 0 0 1 .22-.62c.4-.73.74-.32 1.26 0l-.71.32.38.57v-.14l1.65.24 2.08-.75v1l.33-.09-.37-.91a6.73 6.73 0 0 0 1.31-.81c.35-.37.58-.78 1.18-.48.07 0 .3-.27.45-.41l.23-.14v.53l.2.11.76-1.16a2.05 2.05 0 0 0 .71.22 2.42 2.42 0 0 0 1-.26c.09 0 .12-.45 0-.58-.39-.53-.84-1-1.11-1.33l-1.77-.2v-.47l.71-.4-.77-.75c-.19.12-.54.37-.91.59a.51.51 0 0 1 -.43 0c-.54-.27-1.07-.58-1.6-.88l-.36.48-.16-.08.25-1.18c.63-.18 1.08-.51 1.09-1.23.26.36.4.86 1 .68.11 0 .28.18.43.26.31.18.57.53 1 .15.13-.12.45 0 .79 0l.17-.63c.1.11.2.22.31.32 0 1 .18 1.08 1.15 1a6.36 6.36 0 0 1 2.56-.08c.72.23 1.41.14 2.13.33v-.75c.54.77.84.81 1.57.3a1.65 1.65 0 0 1 .46-.23c.59-.17 1.2-.29 1.79-.48s1.24-.44 1.86-.67a10.82 10.82 0 0 1 -1.14.91 15.6 15.6 0 0 1 -1.55.63 1.49 1.49 0 0 0 -1.37 1.48 13.16 13.16 0 0 0 -.07 2.32 2.92 2.92 0 0 0 .36 1.14 10.44 10.44 0 0 1 .92 1.56c.34 1.15.54 2.34.79 3.52.18.89.38 1.78.52 2.68a1.84 1.84 0 0 1 -.84 1.9 8.37 8.37 0 0 0 .27-1.48 14.07 14.07 0 0 0 -.13-2.32 8.32 8.32 0 0 0 -.48-2.1 29.36 29.36 0 0 0 -1.32-2.63c0-.06-.14-.14-.18-.13-1 .35-1.83-.5-2.8-.52a3.13 3.13 0 0 0 -2.49 1.06c-.32.33-1 .27-1.7.41l.25 1zm-8.46-.58s0-.11-.06-.12-.08 0-.13 0 0 .12.06.13.05.01.1-.01zm5.29-.46c0-.05 0-.11-.06-.13s-.08 0-.12.05 0 .11.05.12.06-.02.1-.04z" fill="#fbbf11"/><path d="m28.39 13.5c0 .72-.46 1.05-1.09 1.23-.43.27-.74.87-1.41.5 0 0-.14.06-.2.11-.67.51-1.19.23-1.63-.35l-1.38 1.44v-.86h-.26a9.21 9.21 0 0 0 -.26 3.7c-.15.61-.34 1.21-.45 1.82a6.42 6.42 0 0 0 0 1.16c0 1.39.17 1.21-1.25 1.23 0-.08 0-.18.05-.23.27-.25.83-.55.79-.73a7.38 7.38 0 0 0 -.79-2 2.66 2.66 0 0 1 .15-2.88 5.59 5.59 0 0 0 .53-1.1 6.37 6.37 0 0 1 .45-.86.9.9 0 0 0 -.26-1.41 7.34 7.34 0 0 1 -.6-.56z" fill="#fcc515"/><path d="m32.13 14.26c-.11-.1-.21-.21-.31-.32l.61-.59c1.39-.06 2.78-.14 4.16-.19h1.6l1.26.17c-.11.89-.84 1.13-1.85.62 0 .23-.05.46-.08.83l-2.52-.78v.12a6.15 6.15 0 0 0 -1.32-.18 8.87 8.87 0 0 0 -1.55.32zm4-.68-.13-.05v.28z" fill="#fdd31d"/><path d="m12 14.42c-.1-.31-.21-.61-.32-.92a9.19 9.19 0 0 1 1 0c.92.12 1.83.23 2.73.41.66.13 1.31.36 2 .56-.71.82-3.26.81-3.68.24z" fill="#fdd31d"/><path d="m25.12 12.21.16.31-.63.77-2.79-.11-.33-.24-.29-.21a6 6 0 0 1 .85 0 2.83 2.83 0 0 0 2.1-.41z" fill="#8e7140"/><path d="m21.24 12.73.29.21.33.24-6.25.12c0-.14 0-.28 0-.42l2-.05h1.24a1.76 1.76 0 0 0 2-.14z" fill="#be7509"/><path d="m14.08 13.28h.6z" fill="#be7509"/><path d="m12.35 13.3.07-.18.09.15z" fill="#be7509"/><path d="m15 13.27h.13-.06z" fill="#be7509"/><path d="m18.89 12.87h-1.24l.62-.75h.46l.95.32v.17z" fill="#c6c0bb"/><path d="m17.75 11.54.06-.74h.3l-.05.74z" fill="#d9d9d8"/><path d="m19.05 10.68-.28.57-.29-.2z" fill="#d9d9d8"/><path d="m15.63 11-.47.32c.01-.32.02-.66.47-.32z" fill="#d4d0cb"/><path d="m25.74 7.42-.3.15z" fill="#c6c0bb"/><path d="m21.24 12.73h-.33l-.46-.19.18-.31a3.28 3.28 0 0 1 .7-.3 3.23 3.23 0 0 1 1.67.07c.27.11.67-.12 1-.2 0 .18.11.35.16.52a2.83 2.83 0 0 1 -2.1.41 6 6 0 0 0 -.82 0z" fill="#b5ada7"/><path d="m26.67 11-1.08.32.05-.75 1 .13v.15z" fill="#a19993"/><path d="m33.53 10.22-.07-.07s0 0 0 .06z" fill="#b5ada7"/><path d="m26.68 10.84c0-.05 0-.1 0-.15z" fill="#b5ada7"/><path d="m36.33 8.82v-.07z" fill="#b5ada7"/><path d="m20.63 12.23-.18.31-.31.06-.14-.22z" fill="#c6c0bb"/><path d="m20 12.38.16.22h-.45v-.2z" fill="#b5ada7"/><path d="m41.31 29.83a1.84 1.84 0 0 0 .84-1.9c-.14-.9-.34-1.79-.52-2.68-.25-1.18-.45-2.37-.79-3.52a10.44 10.44 0 0 0 -.92-1.56 2.92 2.92 0 0 1 -.36-1.17 13.16 13.16 0 0 1 .07-2.35 1.49 1.49 0 0 1 1.37-1.45c0 1.11-.13 2.22-.11 3.34a3.91 3.91 0 0 0 .43 1.21 14.83 14.83 0 0 1 .94 4.56 4.8 4.8 0 0 0 .34 1.39c.06.14.38.16.58.24-.15.72-.32 1.44-.45 2.16-.08.47-.12.94-.18 1.41l-.3.47-.77.94h-.16v-1.09z" fill="#fab90d"/><path d="m32.13 14.26a8.87 8.87 0 0 1 1.52-.37 6.15 6.15 0 0 1 1.32.18l.03-.07 2.51.84c0-.37.06-.6.08-.83 1 .51 1.74.27 1.85-.62h.45c0 .29-.21.73-.1.83.31.26 1.44 0 1.79-.31a5.52 5.52 0 0 0 .51-.66h1.56v.45c-.62.23-1.23.47-1.86.67s-1.2.31-1.79.48a1.65 1.65 0 0 0 -.46.23c-.73.51-1 .47-1.57-.3v.75c-.72-.19-1.41-.1-2.13-.33a6.36 6.36 0 0 0 -2.56.08c-.97.06-1.13-.03-1.15-1.02z" fill="#fcc515"/><path d="m45.35 21.43a4.21 4.21 0 0 1 -.72-1.11 24.51 24.51 0 0 1 -.63-3.06c0-.3.2-.65.31-1a8.43 8.43 0 0 1 .45 1.18c.22 1 .4 2 .58 3a8.2 8.2 0 0 1 .01.99z" fill="#be7509"/><path d="m45.36 22.67c-.1-.31-.52-.62 0-.94z" fill="#be7509"/><path d="m42.1 13.19a5.52 5.52 0 0 1 -.51.66c-.35.33-1.48.57-1.79.31-.11-.1.06-.54.1-.83z" fill="#fdd31d"/><path d="m41.47 30.92.77-.94c-.25.47-.51.94-.77 1.4z" fill="#f1ae09"/><path d="m42.25 30 .3-.47z" fill="#f1ae09"/><path d="m43.43 23.41s0 .11 0 .12-.09 0-.13-.05 0-.11.06-.12.03.03.07.05z" fill="#f1ae09"/><path d="m41.47 30.92v.46a2.66 2.66 0 0 0 -1.53 1.82 12 12 0 0 0 -.53 3.8c0 .12 0 .31-.11.35-.6.3-.41.94-.62 1.42a5.36 5.36 0 0 0 -.67 1.6 2 2 0 0 1 -.65 1.3c-.37.43-1.77.54-2.28.61-1.22.15-1.8-1-2.81-1.17-.14 0-.35-.16-.36-.26-.07-.79-.61-.77-1.18-.73s-.72-.34-.77-.78-.12-.79-.91-.58a8 8 0 0 1 -2.74-.1c-.84-.08-1.68-.38-2.33.46-.09.11-.27.14-.42.2a1.94 1.94 0 0 0 -1.2 2.05c.26 1-.62 1.13-1.09 1.53-.16.13-.63 0-.92-.16a7.48 7.48 0 0 1 -1.25-.74 1.35 1.35 0 0 1 -.4-.59c-.19-.55-.53-.35-.87-.21a6.57 6.57 0 0 1 -1.09.48 1.61 1.61 0 0 1 -2.09-1.07 17.22 17.22 0 0 1 -.58-1.89 4.77 4.77 0 0 1 .63.34c.61.43 1.2.87 1.57 1.15l2.15-1.74 2.29.66c0 .12 0 .24.06.31.19.24.39.6.62.63s.56-.29.65-.53c.23-.56.31-1.17.49-1.75a10.49 10.49 0 0 1 .76-2.1c.4-.68.45-1.66 1.24-1.85l.59-.88.62-.62h.32c.4.88.43.88 1.42.47a.66.66 0 0 1 .55 0c.52.4.88.23 1.2-.48-.06 1.22.84.72 1.2 1a25.39 25.39 0 0 0 .66 2.86 24.19 24.19 0 0 0 1.28 2.63c.44-.9.72-.93 1.22-.33a5.86 5.86 0 0 0 .81.84c.8.63 1.07.57 1.83-.22l-.13.89a1.6 1.6 0 0 0 .82-.62c.13-.17.08-.54.22-.62 1-.54 1.07-1.62 1.32-2.51.33-1.21 0-2.6 1.09-3.6.07-.06 0-.24.05-.37l.47-.63 1.24-.77z" fill="#f7b708"/><path d="m25.12 32.94-.59.88c-.79.19-.84 1.17-1.24 1.85a10.49 10.49 0 0 0 -.76 2.1c-.18.58-.26 1.19-.49 1.75-.09.24-.45.56-.65.53s-.43-.39-.62-.63c-.06-.07 0-.19-.06-.31l-2.29-.66-2.15 1.74c-.37-.28-1-.72-1.57-1.15a4.77 4.77 0 0 0 -.63-.34l-.16-.47-.31-.31a13.52 13.52 0 0 1 -.6-1.56c-.28-1.09-.39-2.22-.76-3.27a18.7 18.7 0 0 0 -1.35-2.43 16.47 16.47 0 0 1 -1.15-2.35 7.44 7.44 0 0 1 -.43-2.31 12.29 12.29 0 0 1 .34-2.39c.16-.86.34-1.72.56-2.57a16.25 16.25 0 0 1 .57-1.66c.11-.31.24-.6.33-.91.2-.64.7-1.29-.07-1.91a2.92 2.92 0 0 1 .23-.41l.78.17c0 .46-.06.87-.1 1.27-.12 1.18-.17 2.38-.4 3.55a22 22 0 0 1 -.87 2.68 6.65 6.65 0 0 0 -.46 1.69c0 1.25-.32 2.53.65 3.69.58.69.69 1.86 1.51 2.33 1 .6.85 1.84 1.63 2.52.09.09 0 .34.06.52.07.94-.06 2 1.16 2.64l-.75.24c.56.39.82.49 1 0a2 2 0 0 1 1.56-1.22.38.38 0 0 0 .22-.07c.62-.53 1.23-1.07 1.84-1.61l-.67-.9a2.17 2.17 0 0 1 2.67-.3c.46.26.83 0 .88-.59 0-.28.09-.56.13-.83h.2l.07.43 1.62-.2.62.15z" fill="#fab90d"/><path d="m13.6 37.92.31.31z" fill="#f7b708"/><path d="m24.66 32.31-.66-.15-.79-.93.68-.37c.12-.07.33-.11.36-.2.23-.75.63-.67 1.17-.19l.31-1a7.06 7.06 0 0 1 .58.89 3.06 3.06 0 0 1 .17.74v.47l-.62.78h-.16c-.32-.58-.7-.05-1.04-.04z" fill="#fccb28"/><path d="m26.52 31.54v-.47c.65 0 1.31-.31 1.95.09.07.05.24 0 .36-.08.82-.35 1-.24.91.82a10.78 10.78 0 0 1 1.26-.14c.57 0 1.12.11 1 .9 1.39-.42 2.51.34 2.4 1.55 1.08.43 1.84-.19 2.79-.6a20 20 0 0 1 2.41-1.29c0 .13 0 .31-.05.37-1.07 1-.76 2.39-1.09 3.6-.25.89-.31 2-1.32 2.51-.14.08-.09.45-.22.62a1.6 1.6 0 0 1 -.82.62l.13-.94c-.76.79-1 .85-1.83.22a5.86 5.86 0 0 1 -.81-.84c-.5-.6-.78-.57-1.22.33a24.19 24.19 0 0 1 -1.28-2.63 25.39 25.39 0 0 1 -.66-2.86c-.36-.26-1.26.24-1.2-1-.32.71-.68.88-1.2.48a.66.66 0 0 0 -.55 0c-1 .41-1 .41-1.42-.47zm8.6 7.72s.06-.09.05-.12-.08 0-.12-.06-.06.09 0 .13.03.04.07.05z" fill="#fbbf11"/><path d="m33.61 29.54-.42-.94a2.51 2.51 0 0 0 .17-.69c0-.46.12-.7.64-.76.25 0 .46-.38.75-.64l-.92-.58a4.91 4.91 0 0 1 4.44-1 2.9 2.9 0 0 1 1.78 4.42c-.44.59-.87 1.18-1.25 1.81a1.35 1.35 0 0 1 -1.85.44 26.27 26.27 0 0 1 -2.49-1.66 6 6 0 0 0 -.85-.4z" fill="#fdd31d"/><path d="m41.31 30.92-1.24.77c.25-.36-.22-.92.32-1.22l.92-.49z" fill="#fbbf11"/><path d="m32 23.13.13.83h-.24l-.12-.83z" fill="#fbbf11"/><path d="m31.52 31.2c-.12.07-.2.16-.26.15a.32.32 0 0 1 -.19-.19c0-.05.12-.18.17-.18s.15.11.28.22z" fill="#fbbf11"/><path d="m25.83 26.83v.13s-.11 0-.12-.06 0-.09 0-.13z" fill="#fbbf11"/><path d="m22.16 19.24a9.21 9.21 0 0 1 .26-3.7h.26v.86l1.38-1.4c.44.58 1 .86 1.63.35.06-.05.17-.13.2-.11.67.37 1-.23 1.41-.5l-.25 1.18.16.08.36-.48c.53.3 1.06.61 1.6.88a.51.51 0 0 0 .43 0c.37-.22.72-.47.91-.59l.77.75-1.13.65c0-.14.64-.23.42-1-.08.53-1.14.25-.42 1 .43-.08.45.1.46.22l1.77.2c.27.31.72.8 1.11 1.33.1.13.07.54 0 .58a2.42 2.42 0 0 1 -1 .26 2.05 2.05 0 0 1 -.71-.22l-.78 1.11-.2-.11v-.53l-.23.14c-.15.14-.38.44-.45.41-.6-.3-.83.11-1.18.48a6.73 6.73 0 0 1 -1.19.81l-2.08.75-1.67-.24-.05.18-.34-.58.71-.32c-.52-.36-.86-.77-1.26 0a4.57 4.57 0 0 0 -.22.62h-.23l.21-1.81-.44-.22c.27-.48.37-.84-.22-1.03z" fill="#fab90d"/><path d="m27.77 21.89.37.91-.33.09v-1z" fill="#fab90d"/><path d="m23.51 22.55c-.05 0-.1.06-.13.05s0-.08-.06-.13.1 0 .13 0 .04.04.06.08z" fill="#fab90d"/><path d="m28.8 22.09s-.1.06-.13 0 0-.08-.05-.12.09-.06.12-.05.04.08.06.17z" fill="#fab90d"/><path d="m36.09 13.58-.1.24h-.08v-.28z" fill="#fcc515"/><path d="m19.69 12.57h.45l.31-.06.46.19a1.76 1.76 0 0 1 -2 .14z" fill="#8e7140"/><path d="m24.66 32.31c.36 0 .72-.54 1.08 0l-.62.62z" fill="#fbbf11"/><path d="m26.52 31.54-.46.78h-.16z" fill="#fcc515"/><path d="m35.12 39.26s-.11 0-.12 0 0-.09 0-.13.11 0 .12.06.02.03 0 .07z" fill="#f7b708"/><path d="m29.74 17.41c-.31-1 .75-.69.83-1.22.22.74-.41.81-.83 1.22z" fill="#fbbf11"/></g></svg>