<svg viewBox="0 0 53.69 140.82" xmlns="http://www.w3.org/2000/svg" xmlns:xlink="http://www.w3.org/1999/xlink"><clipPath id="a" transform="translate(-42.44 -58.89)"><path d="m0 0h123v265h-123z"/></clipPath><g clip-path="url(#a)"><path d="m55.9 60.45 1.32-.52 4.78-.11a2.78 2.78 0 0 1 1.12.06 6.25 6.25 0 0 0 5.15.14 11.73 11.73 0 0 1 3.43-.36c2-.11 4-.18 6-.26.92 0 1.71.21 1.86 1.32a1.51 1.51 0 0 0 -.65.09c-.6.37-2.12-.13-1.63 1.24.37 1 1.33.05 2 0 1.51-.12 3-.21 4.55-.32v.48a25.12 25.12 0 0 0 -2.76.4c-1.56.41-3.16.91-4 2.47a1.63 1.63 0 0 1 -1.8 1c-2.09-.14-4.19-.27-6.29-.34a1.21 1.21 0 0 0 -.86.59 6.87 6.87 0 0 0 -.29 1.64c.74-.11 1.35-.2 2-.31a3.79 3.79 0 0 1 .86-.15c2 .23 4 .82 6.08-.07.18-.08.48.18.72.19h2.39c.24 0 .49-.23.72-.21a4.72 4.72 0 0 1 4.18 3.87l-1-.22c-.24-.35-.46-1-.71-1-.77 0-1.46.27-1.39 1.27a13.91 13.91 0 0 1 -1.8.25c-2.58 0-5.16 0-7.74 0a1.57 1.57 0 0 1 2.15-.7c1.67.73 2.6 0 2.45-2a11.75 11.75 0 0 0 -1.61.29 10.59 10.59 0 0 1 -6.74.4c-1.55-.49-2.36-.07-2.56 1.35h-2.36v-.2l1.7-.85-2.33-1.54 2.16-.72a1.43 1.43 0 0 0 -2.17-.53 6.27 6.27 0 0 1 -5.43.6 22.24 22.24 0 0 0 -4.4-.61l.17-.89-1.23-.4c1.06-1.39 4.29-2.05 6.38-1.3l-2.63 1.21v.43c.45 0 1.17.17 1.29 0 .48-.77 1-.63 1.69-.43a1.15 1.15 0 0 0 1-.18c.91-1 2-.84 3.14-.59a23.5 23.5 0 0 0 2.8.29l.09-.44c-1.55-.89-3.08-1.83-4.66-2.65a4.48 4.48 0 0 0 -1.8-.29c-.41 0-1 0-1.19.29-1.7 2.38-4.31.64-6.35 1.56a9.65 9.65 0 0 1 1.94-1.44c.79-.57 1.51-1.2 2.26-1.8z" fill="#f5f0ea" transform="translate(-42.44 -58.89)"/><path d="m84.73 71.28a4.72 4.72 0 0 0 -4.18-3.87c-.23 0-.48.2-.72.21-.8 0-1.59 0-2.39 0-.24 0-.54-.27-.72-.19-2 .89-4 .3-6.08.07a3.79 3.79 0 0 0 -.86.15c-.61.11-1.22.2-2 .31a6.87 6.87 0 0 1 .29-1.64 1.21 1.21 0 0 1 .86-.59c2.1.07 4.2.2 6.29.34a1.63 1.63 0 0 0 1.8-1c.82-1.56 2.42-2.06 4-2.47a25.12 25.12 0 0 1 2.76-.4v-.48c-1.52.11-3 .2-4.55.32-.7.06-1.66 1-2 0-.49-1.37 1-.87 1.63-1.24a1.51 1.51 0 0 1 .65-.09c3.1.27 6.19.76 8.85 2.44a48 48 0 0 1 5.47 4.44c.31.27.35.86.51 1.3l-.82 1.61h-.25z" fill="#eae6e2" transform="translate(-42.44 -58.89)"/><path d="m88.42 142.78c-.76 3.39-1.41 6.81-2.31 10.16a32.89 32.89 0 0 0 -.34 17.36 3.66 3.66 0 0 0 .89 3.95v.61h.15l.19-.4q1.58 5.57 3.14 11.13h-.31-1.33l-.26-.54c.2-1.46.63-2.93-.35-4.6l-.31 1.67-1.45-.23-.32-1.51 1.11.37c-.33-.82-.21-1.9-1.43-1.11-.2-1-.33-1.89-.58-2.77s-.61-1.76-.9-2.65c-.07-.18-.14-.46 0-.57.71-1 .26-1.5-.74-1.76 1.18-1.72.26-2.86-.85-4.53a2.57 2.57 0 0 0 -.42-1.36c-.24-.34-.69-.93-1.18-.16l-.3-2.88c1.89-.51 2.46-2.28 3.42-3.66a1.33 1.33 0 0 0 .24-1c-.66-1.85.48-3.36.84-5 .24-1.16 1.37-2.37.16-3.52.58-.9 1.87-1.41 1-2.77-.07-.1.15-.35.19-.54.16-.67.29-1.35.44-2l1-1.59zm-1.3 36.84.22.35c.08-.07.23-.13.25-.22s-.09-.21-.14-.32z" fill="#c9934e" transform="translate(-42.44 -58.89)"/><path d="m55.9 60.45c-.75.6-1.47 1.23-2.25 1.77a9.65 9.65 0 0 0 -1.94 1.44c2-.92 4.65.82 6.35-1.56.18-.25.78-.3 1.19-.29a4.48 4.48 0 0 1 1.8.29c1.58.82 3.11 1.76 4.66 2.65l-.09.44a23.5 23.5 0 0 1 -2.8-.29c-1.16-.25-2.23-.45-3.14.59a1.15 1.15 0 0 1 -1 .18c-.68-.2-1.21-.34-1.69.43-.12.2-.84 0-1.29 0v-.43l2.61-1.21c-2.09-.75-5.32-.09-6.38 1.3l1.23.4c-.06.3-.11.59-.17.89h-.52c-1.3 0-2.61-.06-3.89.07-.45 0-1.23.61-1.2.87a3.8 3.8 0 0 1 -1.25 3c-2.13-.49-2.13-.54-1.64-2.52.08-.34-.16-.75-.25-1.13.14-2.06 1.69-2.88 3.26-3.57 1.84-.81 3.76-1.45 5.63-2.18.93-.36 1.87-.76 2.77-1.14z" fill="#eae6e2" transform="translate(-42.44 -58.89)"/><path d="m48.7 185.37c1.15-4.21 2.33-8.41 3.44-12.62 1.81-6.88 2.51-13.74.16-20.69a83.33 83.33 0 0 1 -1.93-8.48h.25l.51.54v.78l.79 2.4v.24l.26 1.08v.77l1 3.19v.79l.25.54.55 1.84c.22 2.13.49 4.25.64 6.38a24.43 24.43 0 0 1 0 4.19 40.08 40.08 0 0 1 -.82 4.32q-.75 3.52-1.56 7c-.27 1.17-.59 2.33-.9 3.49l-.52 3.18.25 1.84c-.53-.13-1.07-.24-1.59-.4a5.81 5.81 0 0 1 -.78-.38z" fill="#a47d38" transform="translate(-42.44 -58.89)"/><path d="m44.25 102.8-.25-3.18 1.32.34.27 1.26c.13 1.75.21 3.51.4 5.26.27 2.55.75 5.08.89 7.63a22.59 22.59 0 0 0 1.12 6.17l.28 5.56.52.8-.25 1.84.25.8v1.58l-.33 2.14-.79-2.68-.18-1.1-.12-1-.16-.83-.14-1.33-.11-.8-.08-.49q-1.3-10.64-2.6-21.27c-.02-.22-.03-.5-.04-.7z" fill="#9c6427" transform="translate(-42.44 -58.89)"/><path d="m44.24 67.34c.09.38.33.79.25 1.13-.49 2-.49 2 1.63 2.55l2.11.28 23.77.28h7.74a13.91 13.91 0 0 0 1.8-.25l2.1-.26 1 .22 8.5-.75v.76.28l-2.38.26h-3.43l-1.6.25h-2.04l-12.69.31h-6.11l-4.48.23-.8-.26-11.9-.25h-.8a10 10 0 0 0 -1.33-.25c-.08 0-.18.32-.27.5-.25.43-.82 1.09-.69 1.27.85 1.25.3 2.23-.38 3.24-.16-.17-.47-.34-.46-.5.11-1.73.27-3.46.42-5.25l-1.57-.39z" fill="#dad5cf" transform="translate(-42.44 -58.89)"/><path d="m42.63 70.75 1.57.39c-.15 1.79-.31 3.52-.42 5.25 0 .16.3.33.46.5v.5a15.49 15.49 0 0 0 -.61 2.16 18 18 0 0 0 0 2.2c0 .61-.13 1.22-.09 1.83a25.79 25.79 0 0 0 .35 3c.06.31.41.57.62.85v.26a9.67 9.67 0 0 0 -.5 2.13c0 1 .19 2 .26 3 .1 1.55.16 3.11.24 4.66l-.71 1.12c-.38-4.25-.87-8.48-1.09-12.73-.23-4.61-.2-9.23-.27-13.85a8 8 0 0 1 .19-1.27z" fill="#b9b5b1" transform="translate(-42.44 -58.89)"/><path d="m79 198.84a72.81 72.81 0 0 1 -16.88.61c-1.57-.16-3.15-.19-4.72-.33-.32 0-.62-.3-.93-.46l.14-1.33 1.39-.33 2.93.32c.4.16.79.33 1.19.47s.79.22 1.16.39.81.59 1.25.67a12.87 12.87 0 0 0 2.06 0h8.16l.12-1.07a6.34 6.34 0 0 0 1.52 0 5.16 5.16 0 0 0 1.19-.7l1.6-.31h.79z" fill="#dad5cf" transform="translate(-42.44 -58.89)"/><path d="m88.42 142.78h-.5l.25-1.59v-.53c.44-2.33.89-4.67 1.32-7 .36-1.95.7-3.91 1-5.86.26-1.53.52-3.07.77-4.6v-.81c.09-.88.18-1.76.26-2.64a1.74 1.74 0 0 0 .27-.57c.39-2.55.75-5.1 1.12-7.65l.37.26c-.8 5.84-1.55 11.68-2.42 17.51-.56 3.74-1.29 7.45-2 11.18-.01.77-.25 1.52-.44 2.3z" fill="#a47d38" transform="translate(-42.44 -58.89)"/><path d="m93.22 71.29c0-.25 0-.51 0-.76h.25l1.35-.33c1.06.22 1.33.9 1.3 1.92-.12 4.88-.12 9.82-.34 14.74-.14 3.54-.5 7.08-.78 10.62a7.67 7.67 0 0 1 -.27 1.15h-.44c.07-1.15.15-2.31.23-3.46.41-7.75 1.13-15.5.57-23.27-.24-1.48-1.29-.29-1.87-.61z" fill="#b9b5b1" transform="translate(-42.44 -58.89)"/><path d="m76.89 58.92c.24 0 .48.31.72.48-2 .08-4 .15-6 .26a11.73 11.73 0 0 0 -3.43.36 6.25 6.25 0 0 1 -5.15-.14 2.78 2.78 0 0 0 -1.03-.06l-4.73.11a7.16 7.16 0 0 1 5.73-.76" fill="#eae6e2" transform="translate(-42.44 -58.89)"/><path d="m91.65 192c.13 1.83-.53 3.19-1.84 3.76-.24-1.52-1.21-.28-1.8-.47l-1.18.28-.5.14h-1.33c0-.44 0-.87 0-1.31l.54-.53 1.13-.26v-.21l-.59-.08c.16-.22.28-.54.5-.62a13.13 13.13 0 0 1 1.67-.41l.15 1.33 1.48-1.3 1.19-.58z" fill="#87888b" transform="translate(-42.44 -58.89)"/><path d="m58 197-1.45.3c-1.3-1.63-3-1-4.63-.82-.24-.24-.43-.6-.72-.7-1.16-.42-2.36-.77-3.54-1.14l-.66-3.11 2.3 1.88 1.59 1.05.44.73.21-.13-.07-.64 1.31.24.63.24h.65c.24.27.43.7.72.78 1 .29 2 .43 2.92.7.12.03.19.42.3.62z" fill="#87888b" transform="translate(-42.44 -58.89)"/><path d="m86.33 195.69.5-.14 1.18-.28c.59.19 1.56-1.05 1.8.47-1.62 1.88-3.9 2-6.12 2.32 0-.5 0-1-.07-1.52l1.39-.85z" fill="#27282a" transform="translate(-42.44 -58.89)"/><path d="m89.78 185.61h.31c.23.73.45 1.46.68 2.19-.84.12-.76.62-.53 1.23s.41 1.28.61 1.91l-1.33.27h-.51a6 6 0 0 1 -.81-.48 8.76 8.76 0 0 1 -.79-.82 3.22 3.22 0 0 1 .87-.58c.91-.25 1.27-.66.65-1.52v-.81a.36.36 0 0 1 .12-.08l.64-.47z" fill="#87888b" transform="translate(-42.44 -58.89)"/><path d="m51.93 196.51c1.63-.22 3.33-.81 4.63.82-.05.45-.09.89-.14 1.33l-4-.83z" fill="#27282a" transform="translate(-42.44 -58.89)"/><path d="m47.66 189.35c.21-.95.41-1.91.62-2.86l1.44 1.44.76 2.12-.72.76-1.5.08-.93-.47.1-.53zm1.79.47c-.07 0-.16-.1-.21-.08a.2.2 0 0 0 -.09.2.22.22 0 0 0 .2.09s.07-.13.1-.21z" fill="#786d5f" transform="translate(-42.44 -58.89)"/><path d="m94.29 98.59h.44c0 .68-.09 1.36-.14 2.05v.55c-.4 3.52-.79 7-1.19 10.56l-.37-.26c0-.27 0-.53 0-.79.32-3.77.66-7.54 1-11.32v-.56z" fill="#786d5f" transform="translate(-42.44 -58.89)"/><path d="m49.73 187.93-1.45-1.44.42-1.12a5.81 5.81 0 0 0 .83.41c.52.16 1.06.27 1.59.4l2.08 2h-.42l-.4-.36-.13.44.16.49z" fill="#b9b5b1" transform="translate(-42.44 -58.89)"/><path d="m51.93 196.51.52 1.32c-1.58.18-4.08-1.47-4.78-3.16 1.18.37 2.38.72 3.54 1.14.29.1.48.46.72.7z" fill="#b9b5b1" transform="translate(-42.44 -58.89)"/><path d="m43.8 98.6.72-1.07c.25.17.72.33.73.51.07 1.35 1.1 1.44 2 1.6a8.76 8.76 0 0 0 1.45 0h.5v.76l-4-.47-1.2-.31z" fill="#dfb27a" transform="translate(-42.44 -58.89)"/><path d="m83.62 196.54.07 1.52-2.61.45.48-1.17-1.08-.79z" fill="#96999d" transform="translate(-42.44 -58.89)"/><path d="m49.22 138.51-.13-.52-.17-.8-.12-.52.23-.27 1 1.35v1.58l.26 2.66h-.44l-.36-1.6v-.47l-.15-.59z" fill="#9c6427" transform="translate(-42.44 -58.89)"/><path d="m80.48 196.55 1.08.79-.48 1.17-2.13.33 1-2z" fill="#b9b5b1" transform="translate(-42.44 -58.89)"/><path d="m90.85 190.93c-.2-.63-.38-1.28-.61-1.91s-.31-1.11.53-1.23c.29 1.4.59 2.79.88 4.19l-.59-.26z" fill="#786d5f" transform="translate(-42.44 -58.89)"/><path d="m49 136.4-.23.27q-.55-3.15-1.12-6.32c.27.89.53 1.78.79 2.68v.46l.5 2.18z" fill="#c9934e" transform="translate(-42.44 -58.89)"/><path d="m47.33 190.42.93.47a16.82 16.82 0 0 1 .79 1.52 4.55 4.55 0 0 1 .2 1l-2.25-1.88c.07-.37.2-.74.33-1.11z" fill="#dad5cf" transform="translate(-42.44 -58.89)"/><path d="m86.66 174.25a3.66 3.66 0 0 1 -.89-3.95l.81 2.76v.12z" fill="#a47d38" transform="translate(-42.44 -58.89)"/><path d="m94.83 70.18-1.35.33.82-1.61c.17.43.35.85.53 1.28z" fill="#dad5cf" transform="translate(-42.44 -58.89)"/><path d="m47.08 126.08.14 1.33z" fill="#c9934e" transform="translate(-42.44 -58.89)"/><path d="m47.38 128.24.12 1z" fill="#c9934e" transform="translate(-42.44 -58.89)"/><path d="m49.22 138.51.14.8z" fill="#c9934e" transform="translate(-42.44 -58.89)"/><path d="m49.91 142h.44v.77l-.09.34z" fill="#a47d38" transform="translate(-42.44 -58.89)"/><path d="m50.3 143.1.09-.34c.08.27.15.54.23.81h-.25z" fill="#9c6427" transform="translate(-42.44 -58.89)"/><path d="m48.92 137.19.17.8z" fill="#c9934e" transform="translate(-42.44 -58.89)"/><path d="m46.89 124.79.08.49z" fill="#c9934e" transform="translate(-42.44 -58.89)"/><path d="m47.66 189.35-.23.54z" fill="#dad5cf" transform="translate(-42.44 -58.89)"/><path d="m44.25 102.8v.72c.02-.24.01-.52 0-.72z" fill="#a47d38" transform="translate(-42.44 -58.89)"/><path d="m87 174.47-.19.4h-.15c0-.2 0-.41 0-.61z" fill="#a47d38" transform="translate(-42.44 -58.89)"/><path d="m49.51 139.9v.47z" fill="#c9934e" transform="translate(-42.44 -58.89)"/><path d="m94.56 101.23v-.55z" fill="#b9b5b1" transform="translate(-42.44 -58.89)"/><path d="m44.17 114.3-.02-.13.08.05z" fill="#c9934e"/><path d="m72 71.58-23.77-.28 1.46-1.16-1.1-.07-.15-.33 4-2.66h.56a22.24 22.24 0 0 1 4.37.61 6.27 6.27 0 0 0 5.43-.6 1.43 1.43 0 0 1 2.17.53l-2.16.72 2.33 1.54-1.7.85v.2h2.26c.2-1.42 1-1.84 2.56-1.35a10.59 10.59 0 0 0 6.74-.4 11.75 11.75 0 0 1 1.61-.29c.15 2-.78 2.72-2.45 2a1.57 1.57 0 0 0 -2.16.69z" fill="#fcf8f2" transform="translate(-42.44 -58.89)"/><path d="m83.68 71.06-2.1.26c-.07-1 .62-1.3 1.39-1.27.25.02.47.66.71 1.01z" fill="#eae6e2" transform="translate(-42.44 -58.89)"/><path d="m91.35 122.39v.81c-.51.55-1.54 1.23-1.45 1.63.31 1.25-.45 2.07-.75 3.06a7.14 7.14 0 0 0 -.4 1.21c-.28 2.66-.58 5.32-.75 8a28.66 28.66 0 0 0 .21 3.58v.53c-1.53.61-.93 2.09-1.3 3.18-.15.67-.28 1.35-.44 2 0 .19-.26.44-.19.54.82 1.36-.47 1.87-1 2.77 1.21 1.15.08 2.36-.16 3.52-.36 1.67-1.5 3.18-.84 5a1.33 1.33 0 0 1 -.24 1c-1 1.38-1.53 3.15-3.42 3.66 0-.27 0-.54 0-.81s0-.8 0-1.19c0-1 .08-1.76 1.41-1.1.18.09.63-.34 1-.53-1.33-.22-1.7-.62-1.4-1.44a13.34 13.34 0 0 0 .86-3.19c.2-2 .15-4.06 1.76-5.64.34-.33.72-1.07.57-1.35a3.44 3.44 0 0 1 -.06-2.58 54.83 54.83 0 0 0 .7-6.28 10.47 10.47 0 0 0 -.18-1.88 3.59 3.59 0 0 0 0-1.13 6.34 6.34 0 0 0 -.67-1.22v-2.38l.26-.53a15.61 15.61 0 0 0 .52-1.86c.46-2.88.32-5.79 1-8.7.69-3.17.48-6.54.67-9.83.16.17.43.32.48.51.3 1.22.51 2.46.85 3.66.11.4.52.7.79 1 .19-.41.38-.81.55-1.22a3.06 3.06 0 0 0 .11-.53c1.12.16 1.32.94 1.43 1.79.07.55.18 1.09.27 1.63v1.59z" fill="#c9832c" transform="translate(-42.44 -58.89)"/><path d="m80.51 162.1v.81l.3 2.88v.54 1.06 1.06l.06.55-.1.49c-.68.36-.68.73 0 1.09l.08 1.3c-.36.83-.66 1.66.2 2.4a5.47 5.47 0 0 1 .51 1.17c.26 1.61.41 3.25.7 4.87a6.77 6.77 0 0 0 .74 1.6l.1.55.93 4.24a1.45 1.45 0 0 1 -2.16.8 38.24 38.24 0 0 0 -4.89-1.28c-2-.28-4.14-.19-6.21-.33-.62 0-1.23-.48-1.85-.47-2.3 0-4.59.14-6.88.22l.51-2.38c.69.34 1.12 1 2.1 1.08.8.09 1.59.29 2.46.32 1.32 0 1.14-1 1.66-1.78l1 1.77.74-2.15c.29.59.37 1 .61 1.21a3.88 3.88 0 0 0 1.35.77 7.84 7.84 0 0 0 1.88.18 27 27 0 0 0 4.5-.07c1.35-.21 1.56-.91 1-2.15l1.15-.95c-1.58.05-1.94-.56-1.89-1.7a11.69 11.69 0 0 0 -.47-2.2c-.22-1.34-.41-2.69-.53-4a1.06 1.06 0 0 1 .51-.81c1.09-.54.25-1.21.11-1.78a3.55 3.55 0 0 0 -1.27.05 4.25 4.25 0 0 0 -.9.31l-.21-1.47c-.35.09-.93.09-1 .29-.62 1.5-1.81 1.4-3.06 1.21.08-.15.16-.43.23-.42 1.42.06 1.63-.93 1.87-2 .36-1.7 1-2 2.72-1.69.6.11 1.67.09 1.79-.18a2.93 2.93 0 0 0 0-2.08c-.96-2.03-.54-2.92 1.61-2.93z" fill="#bb7f21" transform="translate(-42.44 -58.89)"/><path d="m80.77 168.45c0-.35 0-.71 0-1.06v-1.06c0-.18 0-.36 0-.54.49-.77.94-.18 1.18.16a2.57 2.57 0 0 1 .31 1.46c1.11 1.67 2 2.81.85 4.53 1 .26 1.45.78.74 1.76-.09.11 0 .39 0 .57.29.89.66 1.75.9 2.65s.38 1.79.58 2.77c1.22-.79 1.1.29 1.43 1.11l-1.11-.37c.13.61.23 1.06.32 1.51a8.13 8.13 0 0 0 .45 2.46c.21.41 1.08.48 1.66.7l.26.54c-.25 1.14-1 1.48-2.38 1.07a3.91 3.91 0 0 1 -.96-3.38c0-.14-.18-.29-.23-.45-.27-.74-.55-1.48-.78-2.23s.09-1.6-1.07-1.6l.48-2.41-1-.63c.91-2.39.66-3.11-1.09-3.32-.09-.27-.19-.53-.28-.8l1.61-1.95-1.64-.94z" fill="#dfb27a" transform="translate(-42.44 -58.89)"/><path d="m88.19 185.1c-.58-.22-1.45-.29-1.66-.7a8.13 8.13 0 0 1 -.45-2.46l1.45.23.31-1.67c.98 1.67.55 3.14.35 4.6z" fill="#dea351" transform="translate(-42.44 -58.89)"/><path d="m86.07 186.71c1.38.41 2.13.07 2.38-1.07h1.33c0 .29 0 .57-.08.86l-.64.47a.36.36 0 0 0 -.12.08l-.73.68-2.13.09h-.53z" fill="#e3c9ac" transform="translate(-42.44 -58.89)"/><path d="m86.87 144.37c.37-1.09-.23-2.57 1.3-3.18-.08.53-.16 1.06-.25 1.59z" fill="#ce8740" transform="translate(-42.44 -58.89)"/><path d="m87.12 179.62.33-.19c0 .11.15.23.14.32s-.17.15-.25.22z" fill="#dea351" transform="translate(-42.44 -58.89)"/><path d="m52.46 67.08-4 2.66.15.33 1.1.07-1.48 1.16-2.11-.3a3.8 3.8 0 0 0 1.25-3c0-.26.75-.82 1.2-.87 1.28-.13 2.59-.04 3.89-.05z" fill="#f5f0ea" transform="translate(-42.44 -58.89)"/><path d="m54.05 155.74-.54-1.84c.24-.18.67-.33.7-.54.21-1.44.35-2.9.55-4.74.54-.9.19-2.64 1.35-3.78.07-.07-.09-.33-.09-.5 0-.79 0-1.58.06-2.36 0-.32.1-.64.13-1 .08-.82.14-1.65.22-2.48.34.53.69 1.06 1 1.61a9 9 0 0 1 .39.95 4.49 4.49 0 0 0 .69-1.08 11.09 11.09 0 0 0 .29-1.74c.07.1.2.2.22.31l.87 8c0 .11.13.2 0 0l2.33-.17h.27l-1.62 1 1.22.52c.33 1.62.66 3.18 1 4.88a5.1 5.1 0 0 0 -.1 3.24c.27.81.35 1.69.56 2.53.38 1.52-.72 3.32.86 4.65l-.87-.16-1.18.65c-.43-2.76-1.79-4.74-3.31-4.67l.61.76-1.42 2.73a11 11 0 0 1 -1.24-1.45c-1-1.91-.67-4.05-.86-6.09a5.91 5.91 0 0 0 -.48-1.31c-.28.4-.54.81-.83 1.19s-.52.6-.78.89z" fill="#c9821f" transform="translate(-42.44 -58.89)"/><path d="m54.05 155.74c.26-.29.54-.57.79-.89s.55-.79.83-1.19a5.91 5.91 0 0 1 .48 1.31c.19 2-.15 4.18.86 6.09a11 11 0 0 0 1.26 1.57v.79l-.52.8a9.71 9.71 0 0 0 -1 2.66 39.66 39.66 0 0 0 .21 4.74v.54l-.27.79-.27 1.32a24.53 24.53 0 0 0 -1.94 4.21c-.54 2.12-.87 2.59-3.1 2.68.31-1.16.63-2.32.9-3.49q.81-3.51 1.56-7a40.08 40.08 0 0 0 .82-4.32 24.43 24.43 0 0 0 0-4.19c-.12-2.16-.39-4.29-.61-6.42z" fill="#bb7f21" transform="translate(-42.44 -58.89)"/><path d="m56.43 138.54c-.08.83-.14 1.66-.22 2.48 0 .32-.12.64-.13 1 0 .78 0 1.57-.06 2.36 0 .17.16.43.09.5-1.16 1.14-.81 2.88-1.35 3.78-.2 1.84-.34 3.3-.55 4.74 0 .21-.46.36-.7.54l-.26-.54v-.79a10 10 0 0 0 -.25-1.61 15.3 15.3 0 0 0 -.76-1.65c0-.25 0-.51 0-.77s-.17-.72-.26-1.08v-2.6l-.27-1.6-.26-1.85c2.41-.34 2.69-1.81 2.57-3.12-.08-.84-.41-1.6.43-2.25.12-.09 0-.65-.17-.9-.58-.92-1.3-1.77-.53-3 .14-.21 0-.6 0-.9.09-.77.21-1.54.32-2.32a2.23 2.23 0 0 1 .34.13c-.3 1.39 1 2.19 1.51 3.07.7 1.11.58 1.66-.17 2.44 1.64.57 1.91 1.32 1.09 2.82a7.56 7.56 0 0 0 -.41 1.12z" fill="#c27c1d" transform="translate(-42.44 -58.89)"/><path d="m51.39 181.16c2.23-.09 2.56-.56 3.1-2.68a24.53 24.53 0 0 1 1.94-4.21 5.11 5.11 0 0 1 .24 1.31c0 .35-.48.72-.43 1 .31 2.18-.57 4.12-1.14 6.13-1 .25-.63 1-.51 1.58a9.47 9.47 0 0 1 -1.66.23 18.11 18.11 0 0 1 -2.05-.23z" fill="#c9832c" transform="translate(-42.44 -58.89)"/><path d="m50.87 184.34a18.11 18.11 0 0 0 2.05.23 9.47 9.47 0 0 0 1.66-.23c0 .55-.08 1.1-.11 1.53l1.16.83c-.17.83-.31 1.69-1.53 1.18-.05 0-.24.27-.36.42l-.54-.07-2.08-2c-.12-.67-.12-1.23-.25-1.89z" fill="#c9934e" transform="translate(-42.44 -58.89)"/><path d="m51.4 141.45c.08.62.17 1.23.26 1.85l-.53.81-.51-.54c-.08-.27-.15-.54-.23-.81s0-.51 0-.77c-.09-.89-.17-1.77-.26-2.66 1.4.09.87 1.42 1.27 2.12z" fill="#b16719" transform="translate(-42.44 -58.89)"/><path d="m52.2 149.38a15.3 15.3 0 0 1 .8 1.62 10 10 0 0 1 .29 1.54z" fill="#b16719" transform="translate(-42.44 -58.89)"/><path d="m51.93 144.9v2.39c-.27-.8-.53-1.6-.79-2.4z" fill="#b16719" transform="translate(-42.44 -58.89)"/><path d="m51.93 144.9h-.79c0-.26 0-.52 0-.78l.53-.81z" fill="#bc741b" transform="translate(-42.44 -58.89)"/><path d="m51.93 147.53c.09.36.17.72.26 1.08-.09-.36-.19-.72-.26-1.08z" fill="#b16719" transform="translate(-42.44 -58.89)"/><path d="m51.4 141.45c-.44-.7.13-2-1.31-2.12 0-.53 0-1.06 0-1.58a5 5 0 0 0 .19-1.36c-.2-1.45-.43-2.9-.75-4.33a4.47 4.47 0 0 0 -.76-1.2c0-.53 0-1.05 0-1.58l.48-.46-.73-.34c.08-.61.16-1.23.25-1.84l-.52-.8c-.1-1.86-.19-3.71-.28-5.56a5.09 5.09 0 0 1 .93 4c-.08.27.11.6.18.91a3.26 3.26 0 0 0 1.16-.33 1.59 1.59 0 0 0 .53-1c.16-1.6.3-3.21.34-4.82.06-2.5 0-5 0-7.51h.28l1.05 2.91c-.49.44-.84.88 0 1.32l.27 1.32.27 1.6v.52a8 8 0 0 0 -.08 1.46 17.28 17.28 0 0 0 .65 3.23c.32.94-.57 2.51 1.28 2.73l.26.26a3.7 3.7 0 0 1 -.61.35c-.5.18-1 .32-1.8.56l1.36 1.2c-.11.78-.23 1.55-.32 2.32 0 .3.11.69 0 .9-.77 1.18-.05 2 .53 3 .15.25.29.81.17.9-.84.65-.51 1.41-.43 2.25.1 1.28-.18 2.75-2.59 3.09zm-1.17-12.77-.22-.1c0 .07-.1.16-.08.22s.13.06.2.1z" fill="#bc741b" transform="translate(-42.44 -58.89)"/><path d="m51.13 111.55v7.51c0 1.61-.18 3.22-.34 4.82a1.59 1.59 0 0 1 -.53 1 3.26 3.26 0 0 1 -1.16.33c-.07-.31-.26-.64-.18-.91a5.09 5.09 0 0 0 -.93-4 22.59 22.59 0 0 1 -1.09-6.17c-.14-2.55-.62-5.08-.89-7.63-.19-1.75-.27-3.51-.4-5.26l3.71.53a6.33 6.33 0 0 1 1 1.76c.23 1.25.19 2.55.31 3.82s.37 2.79.5 4.2z" fill="#b76c1a" transform="translate(-42.44 -58.89)"/><path d="m49.28 101.75-3.71-.53-.27-1.22 4 .47h.53l2.11.55v.48l-1.06.27z" fill="#a47d38" transform="translate(-42.44 -58.89)"/><path d="m48.76 130.86a4.47 4.47 0 0 1 .76 1.2c.32 1.43.55 2.88.75 4.33a5 5 0 0 1 -.19 1.36l-1-1.35c0-.24 0-.49 0-.73a1.44 1.44 0 0 0 -.5-2.18c0-.16 0-.31 0-.46-.02-.73.08-1.45.18-2.17z" fill="#b16719" transform="translate(-42.44 -58.89)"/><path d="m48.5 128.48.73.34-.48.46c-.09-.28-.17-.53-.25-.8z" fill="#b76c1a" transform="translate(-42.44 -58.89)"/><path d="m48.23 125.84.52.8z" fill="#b76c1a" transform="translate(-42.44 -58.89)"/><path d="m44.23 77.39c0-.17 0-.33 0-.5.68-1 1.23-2 .38-3.24-.13-.18.44-.84.69-1.27 1.23 1.09 1.48 2 1 3.36a4.44 4.44 0 0 0 -.37 1.36c0 .87.2 1.75.19 2.62a30.46 30.46 0 0 0 -.21 3.13c.2 2.15.86 4.29.78 6.41-.07 1.78.75 3 1.37 4.46a2.31 2.31 0 0 1 .2.76c.18 2 2.45 2.52 3 4.24 0 0 .16.07.24.07h2.12a11.66 11.66 0 0 1 2-1.46 6.19 6.19 0 0 1 2-.21c.1-.23.21-.15.32-.08l1 .64c.09-.43.16-.86.26-1.28s.11-.81.29-.88c.91-.34.67-1 .55-1.64-.19-.92.76-3.36 1.6-3.69 1.4-.55 2.87-.93 4.29-1.44a1.87 1.87 0 0 0 1-.73c.09-.14-.33-.58-.51-.89s-.69-.86-.59-1a4.05 4.05 0 0 1 1.17-.89l.71 1.6c.22-.34.37-.49.34-.54-1-1.63.18-2.27 1.35-2.89a11.2 11.2 0 0 0 1.28-.69c.91-.66 1.86-1.2 1.46-2.72-.27-1-.4-2.27 1.19-2.78a8.43 8.43 0 0 0 2.13-1.58 7.52 7.52 0 0 0 2.22.64 10.29 10.29 0 0 0 2.32-.71c.39-.1 1-.16 1.19 0 1 1.23 1.92 1.48 3.11.34a1.78 1.78 0 0 1 .87-.31 1.3 1.3 0 0 1 1.68 1.4c-.12 2.09.79 3.86 1.6 5.68v1.06l-1.81-1.69a46.65 46.65 0 0 0 -5.48 1.23c-1.2.42-2 1.67-3.42 1.86-.11 0-.2.28-.26.44-.34.87-1 1.07-1.88 1.09-2.64.06-2.85.3-3.61 2.67a1.48 1.48 0 0 1 -1.14.71c-1.75 0-3.47-.07-4 1.85l-2-1.55a3 3 0 0 0 -2.85 1.71l2.38.46.35.46.46-.47h.52a7.81 7.81 0 0 1 .39 2.29c0 .26-1 .43-1.57.6-.24.07-.54 0-.78 0-.78.24-1.62.43-.88 1.59a2.16 2.16 0 0 1 .13 1.17h-3.5c.74 1.37.78 2.14-.8 2.06-.29 0-.61.49-.92.75l-.78.03-3.75-.24-1-.08-.25-.34c-1.4-1.11-2.75-2.29-4.22-3.3a9.8 9.8 0 0 0 -2.4-.88c.06-.82.18-1.64.16-2.46a28 28 0 0 0 -.29-3.43 23.87 23.87 0 0 0 -.67-2.58c0-.08 0-.17 0-.26 0-3 0-6.06 0-9.09a3.62 3.62 0 0 0 -.35-.95zm31.91 4.54a7.11 7.11 0 0 0 2.13-1.1c.21-.22-.2-1.21-.53-1.72-.5-.76-2.82-1-3.55-.37-.94.75-.35 1.6.09 2.2s1.12.62 1.86.99zm-17.81 17.07c-.13.24-.26.38-.25.5s.25.28.31.26a.55.55 0 0 0 .29-.36c.02-.08-.17-.2-.35-.4z" fill="#f0e5d9" transform="translate(-42.44 -58.89)"/><path d="m88.45 82.7c-.81-1.82-1.72-3.59-1.6-5.68a1.3 1.3 0 0 0 -1.71-1.38 1.78 1.78 0 0 0 -.87.31c-1.19 1.14-2.15.89-3.11-.34-.16-.2-.8-.14-1.19 0a10.29 10.29 0 0 1 -2.32.71 7.52 7.52 0 0 1 -2.22-.64 8.43 8.43 0 0 1 -2.13 1.58c-1.59.51-1.46 1.77-1.19 2.78.4 1.52-.55 2.06-1.46 2.72a11.2 11.2 0 0 1 -1.28.69c-1.17.55-2.31 1.22-1.37 2.85 0 0-.12.2-.34.54l-.66-1.6a4.05 4.05 0 0 0 -1.17.89c-.1.15.37.66.59 1s.6.75.51.89a1.87 1.87 0 0 1 -1 .73c-1.42.51-2.89.89-4.29 1.44-.84.33-1.79 2.77-1.6 3.69.12.64.36 1.3-.55 1.64-.18.07-.22.57-.29.88s-.17.85-.26 1.28l-1-.64c-.11-.07-.22-.15-.32.08a6.19 6.19 0 0 0 -2 .21 11.66 11.66 0 0 0 -2 1.46h-2.13c-.08 0-.23 0-.24-.07-.57-1.72-2.84-2.24-3-4.24a2.31 2.31 0 0 0 -.2-.76c-.62-1.42-1.44-2.68-1.37-4.46.08-2.12-.58-4.26-.78-6.41a30.46 30.46 0 0 1 .21-3.13c0-.87-.19-1.75-.19-2.62a4.44 4.44 0 0 1 .37-1.36c.52-1.36.27-2.27-1-3.36.09-.18.19-.51.27-.5a10 10 0 0 1 1.33.25l.25.25c.09 3.13.29 6.28.23 9.41a12.49 12.49 0 0 0 1.14 4.93c.41 1 1 2 1.53 3.06-.79 1.06 0 3.16.65 5a3.28 3.28 0 0 0 4 1.9c.87-.22 1.55-.58 1.49-1.68a4.52 4.52 0 0 1 .34-1.31c.51 0 1.09.1 1.22-.09.6-.86 1.07-1.8 1.6-2.71a5.74 5.74 0 0 1 .61-.79c.48-.55 1.42-1.13 1.37-1.62-.16-1.61.84-1.44 1.8-1.51.31 0 .63-.12.95-.18l-.49-1.61 2.68-2.07c-1-.43-.9-.34-2.28.59a6.06 6.06 0 0 1 -2.28.41 6.39 6.39 0 0 1 .14-2c.13-.35.79-.62 1.25-.7.73-.11 1.5 0 2.24 0 .33 0 .93-.17.93-.29 0-1 1.46-1.8.52-3-.08-.1.06-.38.09-.58l.24.36c.83-.33 1.69-.62 2.5-1 .65-.3 1-.69.55-1.56s-.74-1.86.65-2.31c.11 0 .11-.4.16-.6l12.71-.28.84 1.2 1.28-1.21 1.6-.25c.26 1.09.58 2.18.77 3.28.24 1.36.37 2.74.54 4.11zm-9.06-9.38-1.63.68c1.24.71 1.34.67 1.63-.68z" fill="#f3ebe0" transform="translate(-42.44 -58.89)"/><path d="m71 72.4c0 .2 0 .56-.16.6-1.39.45-1.07 1.49-.65 2.31s.1 1.26-.55 1.56c-.81.38-1.67.67-2.5 1l-.24-.36c0 .2-.17.48-.09.58.94 1.18-.47 2-.52 3 0 .12-.6.27-.93.29-.74 0-1.51-.07-2.24 0-.46.08-1.12.35-1.25.7a6.39 6.39 0 0 0 -.14 2 6.06 6.06 0 0 0 2.27-.42c1.38-.93 1.32-1 2.28-.59l-2.68 2.07.49 1.61c-.32.06-.64.15-.95.18-1 .07-2-.1-1.8 1.51.05.49-.89 1.07-1.37 1.62a5.74 5.74 0 0 0 -.61.79c-.53.91-1 1.85-1.6 2.71-.13.19-.71.06-1.22.09a4.52 4.52 0 0 0 -.35 1.35c.06 1.1-.62 1.46-1.49 1.68a3.28 3.28 0 0 1 -4-1.9c-.66-1.8-1.44-3.9-.65-5-.55-1.09-1.12-2-1.53-3.06a12.49 12.49 0 0 1 -1.14-4.93c.06-3.13-.14-6.28-.23-9.41v-.25h.55c.79.36 1.79.45 1.63 1.78a10.87 10.87 0 0 0 .11 2.67c.13 1 .49 1.91.61 2.88.24 2-.41 4 .26 6 .51 1.5.47 3.3 2.71 3.51.24 0 .61 1 .54 1.43s-.61 1.07.19 1.2c.38.07 1-.5 1.31-.92s.33-1.11.67-1.52c.94-1.16 2-2.21 3-3.36a2.46 2.46 0 0 0 .59-1.39c0-1.5-.44-3.06.92-4.26.06 0 .07-.15.09-.24l.32-1.91a.25.25 0 0 0 0-.42c-1.14-1-1.15-1.52.18-2.37.94-.61 2-.94 3-1.53.45-.27.7-.85 1-1.29zm-4.79 3.34-.38.29c.07.09.16.26.19.25a.63.63 0 0 0 .34-.23s-.11-.19-.17-.31z" fill="#f5f0ea" transform="translate(-42.44 -58.89)"/><path d="m64.89 72.4c-.34.44-.59 1-1 1.29-1 .59-2.07.92-3 1.53-1.33.85-1.32 1.33-.18 2.37a.25.25 0 0 1 0 .42l-.33 1.84c0 .09 0 .19-.09.24-1.36 1.2-.93 2.76-.92 4.26a2.46 2.46 0 0 1 -.59 1.39c-1 1.15-2 2.2-3 3.36-.34.41-.34 1.09-.67 1.52s-.93 1-1.31.92c-.8-.13-.26-.71-.19-1.2s-.3-1.41-.54-1.43c-2.24-.21-2.2-2-2.71-3.51-.67-2 0-4-.26-6-.12-1-.48-1.91-.61-2.88a10.87 10.87 0 0 1 -.11-2.67c.16-1.33-.84-1.42-1.63-1.78l11.9.25.8.26z" fill="#fcf8f2" transform="translate(-42.44 -58.89)"/><path d="m93.22 71.29c.58.32 1.63-.87 1.87.57-.8-.09-.82.42-.82 1a48.56 48.56 0 0 1 0 5.26c-.17 1.59-.63 3.13-.86 4.74a30.39 30.39 0 0 1 -2.41 8.52c-.1.21-.66.22-1 .32l-1.58-.94v-4.1c.81.23 1.67.91 2.14-.54a18.27 18.27 0 0 0 1.38-6.12 31.43 31.43 0 0 1 .56-4.38 2.39 2.39 0 0 0 0-1.25 2 2 0 0 1 .74-2.84z" fill="#eae6e2" transform="translate(-42.44 -58.89)"/><path d="m93.22 71.57a2 2 0 0 0 -.74 2.84 2.39 2.39 0 0 1 0 1.25 31.43 31.43 0 0 0 -.54 4.34 18.27 18.27 0 0 1 -1.34 6.08c-.47 1.45-1.33.77-2.14.54 0-.08 0-.17 0-.26 0-.71.7-1.42 0-2.12v-1.54l.27-3.45a3 3 0 0 0 2.11-2.77c0-1.55 0-3.1 0-4.65z" fill="#f5f0ea" transform="translate(-42.44 -58.89)"/><path d="m90.84 71.83v4.65a3 3 0 0 1 -2.11 2.77c-.17-1.37-.3-2.75-.54-4.11-.19-1.14-.52-2.14-.78-3.28z" fill="#fcf8f2" transform="translate(-42.44 -58.89)"/><path d="m85.81 72.11-1.28 1.21-.84-1.2z" fill="#f0e5d9" transform="translate(-42.44 -58.89)"/><path d="m60.41 72.63-.8-.26z" fill="#f3ebe0" transform="translate(-42.44 -58.89)"/><path d="m47.16 72.13v.25l-.25-.25z" fill="#fcf8f2" transform="translate(-42.44 -58.89)"/><path d="m44.52 87.72a23.87 23.87 0 0 1 .67 2.58 28 28 0 0 1 .29 3.43c0 .82-.1 1.64-.16 2.46a6.86 6.86 0 0 0 .89 1.33c.8.76 1.68 1.43 2.53 2.14a8.76 8.76 0 0 1 -1.45 0c-.94-.16-2-.25-2-1.6 0-.18-.48-.34-.73-.51-.08-1.55-.14-3.11-.24-4.66-.07-1-.29-2-.26-3a9.67 9.67 0 0 1 .46-2.17z" fill="#ead3b6" transform="translate(-42.44 -58.89)"/><path d="m44.23 77.39a3.62 3.62 0 0 1 .28 1v9.09c-.21-.28-.56-.54-.62-.85a25.79 25.79 0 0 1 -.35-3c0-.61.08-1.22.09-1.83a18 18 0 0 1 0-2.2 15.49 15.49 0 0 1 .6-2.21z" fill="#dad5cf" transform="translate(-42.44 -58.89)"/><path d="m77.59 197.1a5.16 5.16 0 0 1 -1.19.7 6.34 6.34 0 0 1 -1.52 0l-.12 1.07h-8.16a12.87 12.87 0 0 1 -2.06 0c-.44-.08-.82-.48-1.25-.67s-.78-.25-1.16-.39-.79-.31-1.19-.47h3.15c.19.13.38.37.56.37a16.17 16.17 0 0 0 1.84-.2c1.23-.16 2.47-.35 3.7-.52a3.56 3.56 0 0 0 .67-.53c.77-1 1.5-1.06 2.24 0l-1.69.48.06.41 3.25-.18z" fill="#eae6e2" transform="translate(-42.44 -58.89)"/><path d="m64.09 197.39h-3.15l-2.94-.39c-.12-.23-.19-.62-.36-.67-1-.27-2-.41-2.92-.7-.29-.08-.48-.51-.72-.78h.56c.45.17.91 1 1.34 0a8.6 8.6 0 0 0 1.55.64c2 .39 4 .72 6.06 1.08h.49z" fill="#96999d" transform="translate(-42.44 -58.89)"/><path d="m80.48 196.55-.5.26h-.79c.28-.4.56-.81.83-1.22l1.78-.73 2.07-1 1.13.58v1.31l-1.39.85z" fill="#786d5f" transform="translate(-42.44 -58.89)"/><path d="m80 195.57c-.27.41-.55.82-.83 1.22l-1.6.31-2.87.14c0-.21 0-.41 0-.61l3.16-.66z" fill="#96999d" transform="translate(-42.44 -58.89)"/><path d="m91.37 119.75v-1.59c.26-1.58.56-3.17.78-4.76.17-1.25.23-2.52.34-3.78.24-2.57.5-5.13.71-7.69 0-.51.22-1.39-.69-1.17a2.17 2.17 0 0 0 -1.23 1.3c-.57 1.85-.86 3.8-1.53 5.62-.18.52-.62 1.74-1.83 1.22v-1.06l-.77-.8.27-1.31c1.51-1.09 1.61-1.67.5-2.92l-.25-2-1.34-.41 1.58-.27h.28l2.43-.49h.48 1.18c.58-.06 1.16-.14 1.74-.22-.33 3.78-.67 7.55-1 11.32v.79c-.37 2.55-.73 5.1-1.12 7.65a1.74 1.74 0 0 1 -.27.57z" fill="#c9934e" transform="translate(-42.44 -58.89)"/><path d="m88.18 140.66a28.66 28.66 0 0 1 -.21-3.58c.17-2.66.47-5.32.75-8a7.14 7.14 0 0 1 .4-1.21c.3-1 1.06-1.81.75-3.06-.09-.4.94-1.08 1.45-1.63-.25 1.53-.51 3.07-.77 4.6-.35 2-.69 3.91-1 5.86-.48 2.36-.93 4.69-1.37 7.02z" fill="#ce8740" transform="translate(-42.44 -58.89)"/><path d="m91.37 119.75h.24c-.08.88-.17 1.76-.26 2.64.01-.88.01-1.76.02-2.64z" fill="#ce8740" transform="translate(-42.44 -58.89)"/><path d="m91.1 99.68h-.48l-2.43.49h-.28a4.88 4.88 0 0 0 -1.35-.52c-2-.14-3.94-.16-5.9-.3-.76-.06-1.53-.53-2.24-.43-2 .26-3.9.85-5.87 1.08s-3.7.13-5.55.19a6.29 6.29 0 0 1 1.68-.8c1.64-.26 3.24-.46 3.67-2.44.65-.39 1.08-1 1.68-1.41a6.62 6.62 0 0 1 2-.79 3.84 3.84 0 0 1 1.16.07v-.33c-.23 0-.45-.1-.68-.17-.68-.19-1.41-1.65-.94-2.1a35.29 35.29 0 0 1 3-2.4 5.26 5.26 0 0 0 .43 1.29 5 5 0 0 0 .75.77c.11-.3.24-.6.34-.9a4.36 4.36 0 0 0 .16-.56 19.94 19.94 0 0 0 3.22.67c2 .06 4.22 1.68 4.45 3.7a28.84 28.84 0 0 1 -.18 3.57c0 .33.37 1 .52 1a19 19 0 0 0 2.36-.47c.59-.54 1.54-1 1.7-1.64.4-1.57.58-1.93 2.25-2.07-.08 1.15-.16 2.31-.23 3.46l-.26.27z" fill="#e3c9ac" transform="translate(-42.44 -58.89)"/><path d="m94.52 95.13c-1.67.14-1.85.5-2.25 2.07-.16.65-1.11 1.1-1.7 1.64l-.79-.79c.72-2 1.26-4 .08-6 0-.05.12-.21.18-.31.34-.1.9-.11 1-.32a30.39 30.39 0 0 0 2.33-8.52c.23-1.61.69-3.15.86-4.74a48.56 48.56 0 0 0 0-5.26c0-.58 0-1.09.82-1 .6 7.73-.12 15.48-.53 23.23z" fill="#dad5cf" transform="translate(-42.44 -58.89)"/><path d="m86.08 187.79 2.13-.09.72.05c.62.86.26 1.27-.65 1.52a3.22 3.22 0 0 0 -.87.58 8.76 8.76 0 0 0 .79.82 6 6 0 0 0 .81.48l-.78 1.12a13.13 13.13 0 0 0 -1.67.41c-.22.08-.34.4-.5.62h-.48-.28a.22.22 0 0 0 0-.16l-.64-1.82.11-.62 2 1.05z" fill="#96999d" transform="translate(-42.44 -58.89)"/><path d="m88.23 192.27.78-1.12h.51c.11.36.22.73.34 1.1l-1.48 1.3z" fill="#b9b5b1" transform="translate(-42.44 -58.89)"/><path d="m89.86 192.3c-.12-.37-.23-.74-.34-1.1l1.33-.27.21.79z" fill="#96999d" transform="translate(-42.44 -58.89)"/><path d="m85.3 193.27h.28v.54l-.54.53c-.38-.19-.76-.38-1.13-.58l.1-.2z" fill="#27282a" transform="translate(-42.44 -58.89)"/><path d="m85.54 193.85c0-.18 0-.36 0-.54h.48l.59.08v.21z" fill="#786d5f" transform="translate(-42.44 -58.89)"/><path d="m88 195.27-1.18.28z" fill="#786d5f" transform="translate(-42.44 -58.89)"/><path d="m49.25 193.41a4.55 4.55 0 0 0 -.2-1 16.82 16.82 0 0 0 -.79-1.52l1.5-.08a6.73 6.73 0 0 1 1 .14c.74.24 1.46.52 2.18.78-1.31.81-1.35 1.18-.27 2.42v.51l-1.31-.24h-.58z" fill="#b9b5b1" transform="translate(-42.44 -58.89)"/><path d="m52.7 194.15c-1.08-1.24-1-1.61.27-2.42l2.19-.31 1 .11-.25 1.23-.66 1.6-.64.55h-.56-.65z" fill="#786d5f" transform="translate(-42.44 -58.89)"/><path d="m50.84 194.46h.58c0 .21 0 .42.07.64l-.21.13z" fill="#96999d" transform="translate(-42.44 -58.89)"/><path d="m52.7 194.15.66.75-.63-.24z" fill="#96999d" transform="translate(-42.44 -58.89)"/><path d="m88.93 187.75-.72-.05.73-.68c-.01.24-.01.49-.01.73z" fill="#c9934e" transform="translate(-42.44 -58.89)"/><path d="m89.06 186.94.64-.47z" fill="#c9934e" transform="translate(-42.44 -58.89)"/><path d="m55.16 191.42-2.19.31c-.72-.26-1.44-.54-2.18-.78a6.73 6.73 0 0 0 -1-.14l.72-.76-.76-2.12 2.69.88.72 1.42c.35-1.5 1.27-.65 2-.56-.01.59-.01 1.17 0 1.75z" fill="#87888b" transform="translate(-42.44 -58.89)"/><path d="m49.45 189.82c0 .08-.05.19-.1.21a.22.22 0 0 1 -.2-.09.2.2 0 0 1 .09-.2s.14.05.21.08z" fill="#87888b" transform="translate(-42.44 -58.89)"/><path d="m91.1 99.68 2.9-.82v.56c-.58.08-1.16.16-1.74.22-.37.03-.76.03-1.16.04z" fill="#dfb27a" transform="translate(-42.44 -58.89)"/><path d="m55.14 189.67c-.74-.09-1.66-.94-2 .56l-.72-1.42c0-.17-.11-.33-.16-.49l.53-.08h.42l.54.07 1.68.79c-.11.18-.2.38-.29.57z" fill="#786d5f" transform="translate(-42.44 -58.89)"/><path d="m52.78 188.24-.53.08c0-.15.08-.29.13-.44z" fill="#c9934e" transform="translate(-42.44 -58.89)"/><path d="m48.74 99.66c-.85-.71-1.73-1.38-2.53-2.14a6.86 6.86 0 0 1 -.89-1.33 9.8 9.8 0 0 1 2.4.88c1.47 1 2.82 2.19 4.22 3.3l-1.6-.19-1.1-.51z" fill="#eadccc" transform="translate(-42.44 -58.89)"/><path d="m49.24 99.67 1.1.51-.53.27h-.53z" fill="#ead3b6" transform="translate(-42.44 -58.89)"/><path d="m48.49 133.49a1.44 1.44 0 0 1 .5 2.18c-.16-.73-.33-1.46-.5-2.18z" fill="#9c6427" transform="translate(-42.44 -58.89)"/><path d="m87.42 105.73-.27 1.27v.79l-.27 2.21v1.31c-.19 3.29 0 6.66-.67 9.83-.64 2.91-.5 5.82-1 8.7a15.61 15.61 0 0 1 -.52 1.86l-.26.53v.26l-.26.27c-.73.37-1.48.71-2.17 1.15a1.61 1.61 0 0 0 -.47.85 3.25 3.25 0 0 1 -2.1 2.46 2.43 2.43 0 0 0 -1.8 2.85 6 6 0 0 1 -.12 1.09c-.1 1.92-2.26 2.14-3 3.6a3.05 3.05 0 0 1 -1.95 1.1c-.45.11-1-.27-1.54-.48a14.17 14.17 0 0 0 -3.02-1.3c-.63-.09-1.28.23-1.87-.37a1.48 1.48 0 0 0 -1.11-.36 2 2 0 0 1 -2.51-1.9l-.26-1.06a3 3 0 0 0 -.53-3.44l.26-2.11v-.27h.66c1.06 0 2.16.21 2.35-1.35 0-.21.7-.47 1.07-.48 1.94-.05 3.88 0 5.82 0a3.38 3.38 0 0 1 1 .3c.34.13.89.47 1 .39a4.17 4.17 0 0 0 .61-1.21c.27-.66.34-1.52.81-1.94a3.53 3.53 0 0 0 1.32-3.36 3.48 3.48 0 0 1 0-1.44 2.18 2.18 0 0 1 .84-1.19c1-.56 1.65-1.2 1.4-2.49-.09-.42.2-1.26.48-1.35 1.09-.33 1.1-1.11.91-1.88a2.88 2.88 0 0 1 .31-2.61 1.38 1.38 0 0 0 0-1.15 16.45 16.45 0 0 0 -2.33-.41c.19.45.4.9.59 1.36a2.14 2.14 0 0 1 .08.44l-.34.23c-.36-.46-.76-.89-1.08-1.38s-.58-1.46-1.1-1.91c-.85-.74-1.22-1.26-.08-2 .2-.13.27-.52.32-.81.25-1.39.48-2.78.72-4.26.83.24 1.61.53 2.41.68a1.63 1.63 0 0 0 1.22-.24 6.18 6.18 0 0 0 .84-1.55c-1.7.27-2.2 0-2-.85a2.62 2.62 0 0 1 4.52-1.23l-.47 1.35c.39-.13.78-.3 1.18-.39a11 11 0 0 1 1.27-.07c-.16-1.16.69-.93 1.4-.93z" fill="#b76c1a" transform="translate(-42.44 -58.89)"/><path d="m63.57 163.16.87.16c-1.58-1.33-.48-3.13-.86-4.65-.21-.84-.29-1.72-.56-2.53a5.1 5.1 0 0 1 .1-3.24c-.34-1.7-.67-3.26-1-4.88l-1.22-.52 1.62-1c.17.34.34.69.53 1 .46.8.74 2 1.43 2.3a2.25 2.25 0 0 1 1.52 1.72c.43 1.67 1.31 2.22 3 2.13a11.24 11.24 0 0 1 2.09.14c1.41.19 2.73.25 3.57-1.23a.8.8 0 0 1 .47-.35l3 1.57c.32-.83.43-1.79.75-1.86 2.06-.47 2-1.76 1.51-3.31 0 0 .12-.09.22-.16l.9 1c.11-.55.18-.94.26-1.32.68-3.19 1.37-6.37 2-9.56.27-1.31.5-2.63.74-4a6.34 6.34 0 0 1 .67 1.22 3.59 3.59 0 0 1 0 1.13 10.47 10.47 0 0 1 .18 1.88 54.83 54.83 0 0 1 -.7 6.28 3.44 3.44 0 0 0 .06 2.58c.15.28-.23 1-.57 1.35-1.61 1.58-1.56 3.62-1.76 5.64a13.34 13.34 0 0 1 -.86 3.19c-.3.82.07 1.22 1.4 1.44-.32.19-.77.62-1 .53-1.33-.66-1.41.13-1.41 1.1v1.19c-2.15 0-2.57.85-1.64 2.89a2.93 2.93 0 0 1 0 2.08c-.12.27-1.19.29-1.79.18-1.75-.31-2.36 0-2.72 1.69-.24 1.07-.45 2.06-1.87 2-.07 0-.15.27-.23.42-.92-.34-1.87-.63-2.76-1a2.11 2.11 0 0 0 -2.53.25 6.3 6.3 0 0 1 -.93.65l-1.65-1.36-.25.29a6.61 6.61 0 0 1 .77 1.2c.27.73.61 1.56-.59 1.86-.94-.67-.87-1.65-.77-2.63v-.8-.55l-.56-1.62a2.49 2.49 0 0 0 1-2.81c-.1-.56-.26-1.12-.43-1.68z" fill="#c27c1d" transform="translate(-42.44 -58.89)"/><path d="m84.48 134.57c-.24 1.32-.47 2.64-.74 4-.67 3.19-1.36 6.37-2 9.56-.08.38-.15.77-.26 1.32l-.9-1c-.1.07-.23.14-.22.16.48 1.55.55 2.84-1.51 3.31-.32.07-.43 1-.75 1.86l-3-1.57a.8.8 0 0 0 -.47.35c-.84 1.48-2.16 1.42-3.57 1.23a11.24 11.24 0 0 0 -2.09-.14c-1.68.09-2.56-.46-3-2.13a2.25 2.25 0 0 0 -1.49-1.72c-.69-.31-1-1.5-1.43-2.3-.19-.33-.36-.68-.53-1h-.27c.1-.65.48-1.46.23-1.92a3.79 3.79 0 0 1 0-3.11 2 2 0 0 0 2.51 1.9 1.48 1.48 0 0 1 1.11.36c.59.6 1.24.28 1.87.37a14.17 14.17 0 0 1 3.08 1.26c.51.21 1.09.59 1.54.48a3.05 3.05 0 0 0 1.95-1.1c.73-1.46 2.89-1.68 3-3.6a6 6 0 0 0 .12-1.09 2.43 2.43 0 0 1 1.8-2.85 3.25 3.25 0 0 0 2.1-2.46 1.61 1.61 0 0 1 .47-.85c.69-.44 1.44-.78 2.17-1.15h.26z" fill="#bc741b" transform="translate(-42.44 -58.89)"/><path d="m86.89 111.27c0-.43 0-.87 0-1.31l1-1.06c1.21.52 1.65-.7 1.83-1.22.67-1.82 1-3.77 1.53-5.62a2.17 2.17 0 0 1 1.23-1.3c.91-.22.74.66.69 1.17-.21 2.56-.47 5.12-.71 7.69-.11 1.26-.17 2.53-.34 3.78-.22 1.59-.52 3.18-.78 4.76-.09-.54-.2-1.08-.27-1.63-.11-.85-.31-1.63-1.43-1.79a3.06 3.06 0 0 1 -.11.53c-.17.41-.36.81-.55 1.22-.27-.35-.68-.65-.79-1-.34-1.2-.55-2.44-.85-3.66-.02-.24-.29-.39-.45-.56z" fill="#ce8740" transform="translate(-42.44 -58.89)"/><path d="m84.48 132.19.26-.53c-.09.17-.17.34-.26.53z" fill="#c27c1d" transform="translate(-42.44 -58.89)"/><path d="m84.48 132.72h-.26l.26-.27z" fill="#c27c1d" transform="translate(-42.44 -58.89)"/><path d="m64.37 173.21c1.2-.3.86-1.13.59-1.86a6.61 6.61 0 0 0 -.77-1.2l.25-.29 1.65 1.36a6.3 6.3 0 0 0 .93-.65 2.11 2.11 0 0 1 2.53-.25c.89.41 1.84.7 2.76 1 1.25.19 2.44.29 3.06-1.21.09-.2.67-.2 1-.29l.21 1.47a4.25 4.25 0 0 1 .9-.31 3.55 3.55 0 0 1 1.27-.05c.14.57 1 1.24-.11 1.78a1.06 1.06 0 0 0 -.51.81c.12 1.35.31 2.7.53 4a11.69 11.69 0 0 1 .47 2.2c-.05 1.14.31 1.75 1.89 1.7l-1.21.95c.57 1.24.36 1.94-1 2.15a27 27 0 0 1 -4.5.07 7.84 7.84 0 0 1 -1.88-.18 3.88 3.88 0 0 1 -1.35-.77c-.24-.21-.32-.62-.61-1.21l-.74 2.15-1-1.77c-.52.73-.34 1.82-1.66 1.78-.87 0-1.66-.23-2.46-.32-1-.1-1.41-.74-2.1-1.08l-.29-.52c0-.18 0-.36 0-.54l1.5-.08-.17-2.83v-.22c.44-.52 1.23-1 1.24-1.57a25 25 0 0 0 -.45-4c.02-.04.03-.13.03-.22zm2.07.19-.68-.16a7.72 7.72 0 0 0 -.3 1.24 3.61 3.61 0 0 0 .75.24z" fill="#b9771c" transform="translate(-42.44 -58.89)"/><path d="m81.83 187.51a1.45 1.45 0 0 0 2.16-.8h.22v1.3l-1.3.47a3 3 0 0 0 -.73-.06 47.85 47.85 0 0 1 -5.4.89c-4.38.19-8.77.19-13.15.27.25-.22.48-.57.76-.62.46-.07 1 .17 1.42.07.28-.06.5-.47.68-.66-.87-.14-1.44-.21-2-.32a14.29 14.29 0 0 1 -2-.45c-.21-.07-.33-.43-.48-.66 4-.07 8-.28 12-.18 2.39.06 4.76.59 7.14.89a2 2 0 0 0 .68-.14z" fill="#d79c2f" transform="translate(-42.44 -58.89)"/><path d="m81.83 187.51a2 2 0 0 1 -.7.16c-2.38-.3-4.75-.83-7.14-.89-4-.1-8 .11-12 .18 0-.43 0-.87 0-1.31 2.29-.08 4.58-.21 6.88-.22.62 0 1.23.43 1.85.47 2.07.14 4.17 0 6.21.33a38.24 38.24 0 0 1 4.9 1.28z" fill="#c9821f" transform="translate(-42.44 -58.89)"/><path d="m84.16 188c0-.43 0-.87 0-1.3-.17-1-.31-2-.54-2.92a7.29 7.29 0 0 0 -.61-1.34c0-.18-.07-.37-.1-.55l-.06-2.87c1.16 0 .87.95 1.07 1.6s.51 1.49.78 2.23c0 .16.24.31.23.45a3.91 3.91 0 0 0 1.09 3.38c-.18.36-.35.72-.52 1.07l-1.1.82z" fill="#ead3b6" transform="translate(-42.44 -58.89)"/><path d="m82.9 179.05.06 2.87a6.77 6.77 0 0 1 -.74-1.6c-.29-1.62-.44-3.26-.7-4.87a5.47 5.47 0 0 0 -.51-1.17c.1-.53.2-1.06.31-1.59 1.75.21 2 .93 1.09 3.32l1 .63z" fill="#e3c9ac" transform="translate(-42.44 -58.89)"/><path d="m81 169 1.62.94c-.58.69-1.09 1.32-1.61 1.95a.59.59 0 0 0 -.23 0c0-.44-.06-.87-.08-1.3v-1.09c0-.16.06-.33.1-.49h.2z" fill="#e3c9ac" transform="translate(-42.44 -58.89)"/><path d="m62.22 182.75.29.52-.51 2.38-1-2.54z" fill="#ce8740" transform="translate(-42.44 -58.89)"/><path d="m83.06 182.47a7.29 7.29 0 0 1 .61 1.34c.23 1 .37 1.94.54 2.92h-.22z" fill="#e3c9ac" transform="translate(-42.44 -58.89)"/><g fill="#c9934e"><path d="m80.81 171.88a.59.59 0 0 1 .23 0c.09.27.19.53.28.8-.11.53-.21 1.06-.31 1.59-.86-.73-.56-1.56-.2-2.39z" transform="translate(-42.44 -58.89)"/><path d="m80.81 166.33v1.06z" transform="translate(-42.44 -58.89)"/><path d="m80.73 169.49v1.09c-.68-.36-.68-.73 0-1.09z" transform="translate(-42.44 -58.89)"/><path d="m81 169h-.2l-.06-.55z" transform="translate(-42.44 -58.89)"/></g><path d="m84.45 188.6 1.1-.82h.53l.67 3.93-2-1.05c-.09-.66-.19-1.37-.3-2.06z" fill="#b9b5b1" transform="translate(-42.44 -58.89)"/><path d="m54.05 129-1.36-1.2c.79-.24 1.3-.38 1.8-.56a3.7 3.7 0 0 0 .61-.35l3.53-1.28c-1.72-.4-1.47-1.16-1.09-2.05.5-1.17.9-2.38 1.38-3.69h-1.81c2.06-.89 2.31-1.68 1.72-3.64a5.36 5.36 0 0 1 .25-2c.62.24 1.13.45 1.09 1.35-.09 1.84 0 3.69 0 5.53a12.44 12.44 0 0 0 -1 6.25c1.54.05 1.42.89 1 2l-2.29-.17-.12.3a11.52 11.52 0 0 0 1.27.63 10.41 10.41 0 0 0 1.37.29v.53c-.82.62-.21 1.35-.17 2 .1 1.54.7 3.21-1.15 4.27-.22.13-.19.71-.27 1.09a11.09 11.09 0 0 1 -.29 1.74 4.49 4.49 0 0 1 -.69 1.08 9 9 0 0 0 -.39-.95c-.32-.55-.67-1.08-1-1.61a7.56 7.56 0 0 1 .39-1.07c.82-1.5.55-2.25-1.09-2.82.75-.78.87-1.33.17-2.44-.56-.88-1.81-1.68-1.51-3.07a2.23 2.23 0 0 0 -.35-.16zm3 2.89-.29-.38c-.09.06-.25.15-.24.19a.57.57 0 0 0 .22.34s.17-.04.26-.14zm1.95-3.74-.22-.1c0 .08-.1.16-.08.22s.14.07.21.1z" fill="#c9832c" transform="translate(-42.44 -58.89)"/><path d="m58.81 138.28c.08-.38 0-1 .27-1.09 1.85-1.06 1.25-2.73 1.15-4.27 0-.7-.65-1.43.17-2l.79.26h.27v2.65l.52 1.06c-.08.7-.17 1.41-.26 2.11.18 1.15.35 2.3.53 3.44l.26 1.06a3.79 3.79 0 0 0 0 3.11c.25.46-.13 1.27-.23 1.92l-2.33.17c.11.16 0 .07 0 0l-.87-8c-.08-.22-.2-.32-.27-.42z" fill="#c27c1d" transform="translate(-42.44 -58.89)"/><path d="m63.57 163.16c.17.56.33 1.12.49 1.68a2.49 2.49 0 0 1 -1 2.81c-1.32-.73-.11-1.79-.28-2.57-.47-.31-1.08-.48-1.2-.83a1.56 1.56 0 0 0 -2-1.22c-.3 1-.32 2.32-1 2.77-1.19.83-.77 1.82-.84 2.79s.21 2.22-.81 3a39.66 39.66 0 0 1 -.21-4.74 9.71 9.71 0 0 1 1-2.66l.52-.8v-.79c.44-.85.89-1.7 1.42-2.73l-.61-.76c1.52-.07 2.88 1.91 3.31 4.67z" fill="#d79c2f" transform="translate(-42.44 -58.89)"/><path d="m57 171.62c1-.81.73-2 .81-3s-.35-2 .84-2.79c.65-.45.67-1.81 1-2.77a1.56 1.56 0 0 1 2 1.22c.12.35.73.52 1.2.83.17.78-1 1.84.28 2.57l.51 1.58-1.64.24c.51-1.93-1-2.5-2.54-3.54-.37 2-.82 3.83-1 5.67-.11 1.23-.62 2.42-.06 3.77.28.69-.41 1.74-.52 2.64-.17 1.28-.22 2.57-.34 4.24-.46.4-.65 2.73.21 3.48l-2.12.94-1.16-.83c0-.43.07-1 .11-1.53l.51-1.58c.57-2 1.45-3.95 1.14-6.13-.05-.32.41-.69.43-1a5.11 5.11 0 0 0 -.24-1.31l.28-1.32.27-.79z" fill="#dea351" transform="translate(-42.44 -58.89)"/><path d="m58.27 163.42-.52.8z" fill="#c9821f" transform="translate(-42.44 -58.89)"/><path d="m57 172.16-.27.79z" fill="#d79c2f" transform="translate(-42.44 -58.89)"/><path d="m55.1 182.75-.51 1.58c-.12-.62-.53-1.33.51-1.58z" fill="#c9934e" transform="translate(-42.44 -58.89)"/><path d="m55.63 186.7 2.12-.94c-.86-.75-.67-3.08-.21-3.48.12-1.67.17-3 .34-4.24.11-.9.8-1.95.52-2.64-.56-1.35 0-2.54.06-3.77.16-1.84.61-3.65 1-5.67 1.52 1 3.05 1.61 2.54 3.54v.8l-.7 2.06c-.65.34-.87.75-.2 1.59.17.2.07.66 0 1-.1.56-.26 1.11-.45 1.89l-.84.38.89 2.1v.78c-1 0-1.72.06-1 1.41a3.66 3.66 0 0 1 -.69 4.31c.75.69 1.46 1.34 2.16 2 .16.14.44.3.43.43-.21 1.71 1 1.34 2 1.36 4.38-.08 8.77-.08 13.15-.27a47.85 47.85 0 0 0 5.4-.89 3.17 3.17 0 0 1 .74.06c.09.92-.33 1.28-1.23 1.19a5.73 5.73 0 0 0 -1.17.05c-2.63.29-5.25.73-7.89.86-3 .16-6 .05-9 .05h-2.61l-1.86-1.3-2.25-1.65-.91 1.35h-.49l-1.68-.79c.12-.15.31-.44.36-.42 1.16.54 1.3-.32 1.47-1.15z" fill="#dfb27a" transform="translate(-42.44 -58.89)"/><path d="m59.08 114.19a5.36 5.36 0 0 0 -.25 2c.59 2 .34 2.75-1.72 3.64h1.81c-.48 1.31-.88 2.52-1.38 3.69-.38.89-.63 1.65 1.09 2.05l-3.53 1.33-.26-.26 1.49-1.09-1.58-.38.37-.15c-.19-.81-.37-1.61-.58-2.41a7.1 7.1 0 0 1 -.33-1.15c-.07-.95 0-1.94-1.22-2.24 0-.18 0-.35 0-.52l.7-.58-1-1-.27-1.32 1.43-.68-1.43-.64-1.05-2.91 1.1-.15c-.54-1.15.27-2.44-.8-3.37-.12-.1 0-.42 0-.64a34 34 0 0 0 -.06-3.5 9.74 9.74 0 0 0 -.75-2.14l1.06-.27a2.44 2.44 0 0 0 0 .27 3.09 3.09 0 0 0 2.14 3l-1.26.36c-.08 1.58.1 2.93 2 3.22l-1.69.14c.24.44.56.76.57 1.08a4.25 4.25 0 0 1 -.35 1.27l1 .41c-.5 1.2-.07 2.29.81 2.16.68-.11 1.33-.31 2-.47-1.21-1.55-.41-1.89 1.38-3-.82-1.75-.73-2.87.29-4l1.14.4a8.45 8.45 0 0 0 -.26 2c.09.75.75 1.57.58 2.2-.36 1.26.31 2.83-1.19 3.65zm-2.31 5.93a.28.28 0 0 0 -.12 0s0 .06 0 .1h.11s0-.07.01-.1z" fill="#ce8740" transform="translate(-42.44 -58.89)"/><path d="m50.86 101.75a9.74 9.74 0 0 1 .75 2.14 34 34 0 0 1 .06 3.5c0 .22-.08.54 0 .64 1.07.93.26 2.22.8 3.37l-1.1.15h-.28c-.17-1.41-.37-2.81-.52-4.22s-.08-2.57-.31-3.82a6.33 6.33 0 0 0 -1-1.76z" fill="#c9832c" transform="translate(-42.44 -58.89)"/><path d="m53 119.22c1.24.3 1.15 1.29 1.22 2.24a7.1 7.1 0 0 0 .33 1.15c.21.8.39 1.6.58 2.41l-.37.15 1.58.38-1.49 1.09c-1.85-.22-1-1.79-1.28-2.73a17.28 17.28 0 0 1 -.65-3.23 8 8 0 0 1 .08-1.46z" fill="#c9832c" transform="translate(-42.44 -58.89)"/><path d="m52.46 114.46 1.43.64-1.43.68c-.84-.44-.46-.88 0-1.32z" fill="#c9832c" transform="translate(-42.44 -58.89)"/><path d="m52.73 117.1 1 1-.7.58z" fill="#c9832c" transform="translate(-42.44 -58.89)"/><path d="m50.23 128.68-.1.22c-.07 0-.18-.05-.2-.1s0-.15.08-.22z" fill="#b76c1a" transform="translate(-42.44 -58.89)"/><path d="m51.93 101.75a2.44 2.44 0 0 1 0-.27v-.48l.27-.29 1 .08a3.66 3.66 0 0 0 1.09.42c.9.06 1.82 0 2.72 0 .07.26.14.53.2.79z" fill="#c9934e" transform="translate(-42.44 -58.89)"/><path d="m52.19 100.71-.27.29-2.11-.55.53-.27 1.6.19c.06.12.17.23.25.34z" fill="#dfb27a" transform="translate(-42.44 -58.89)"/><path d="m90 91.7c-.06.1-.21.26-.18.31 1.18 2 .64 4-.08 6-1.17.1-1.5-.42-1.24-1.52a4.21 4.21 0 0 0 -.07-1.27c-.18-1.78-.36-3.56-.56-5.34a1.28 1.28 0 0 0 -.19-.73 3.41 3.41 0 0 0 -4.23-.33 3.41 3.41 0 0 1 -3.58.35 3.34 3.34 0 0 0 -2.33 0c-2.06.92-4 2.26-6.06 3-2 .71-2.15 2.28-2.71 3.83-1.37.16-2.76 1-2.84 1.94-.11 1.2-.71 1.66-1.9 1.63a5 5 0 0 0 -1.56.49 2.17 2.17 0 0 0 0 .26l-1.15.58-1.54.17a.18.18 0 0 0 -.15-.1h-.6-1.33c.31-.26.63-.76.92-.75 1.58.08 1.54-.69.8-2.06h3.58a2.16 2.16 0 0 0 -.15-1.16c-.74-1.16.1-1.35.88-1.59.24-.08.54 0 .78 0 .56-.17 1.55-.34 1.57-.6a7.81 7.81 0 0 0 -.39-2.29c-.26-.71-.52-1.42-.79-2.13l2 1.55c.49-1.92 2.21-1.86 4-1.85a1.48 1.48 0 0 0 1.1-.73c.76-2.37 1-2.61 3.61-2.67.89 0 1.54-.22 1.88-1.09.06-.16.15-.43.26-.44 1.38-.16 2.25-1.44 3.41-1.86a46.65 46.65 0 0 1 5.48-1.23l1.81 1.69v.52c-1 .37-1 1.2 0 2.12v.26 4.1z" fill="#eadccc" transform="translate(-42.44 -58.89)"/><path d="m76.14 81.93c-.74-.37-1.5-.52-1.86-1s-1-1.45-.09-2.2c.73-.58 3-.39 3.55.37.33.51.74 1.5.53 1.72a7.11 7.11 0 0 1 -2.13 1.11z" fill="#eadccc" transform="translate(-42.44 -58.89)"/><path d="m57.75 101h1.33.6a.18.18 0 0 1 .15.1v3.75l-.79-.26-2.18-.58 1.26-2.01h-.89c-.06-.26-.13-.53-.2-.79l-.03-.21z" fill="#ce8740" transform="translate(-42.44 -58.89)"/><path d="m64.9 90.37c.27.71.53 1.42.79 2.13h-1.33l-2.36-.44a3 3 0 0 1 2.9-1.69z" fill="#ead3b6" transform="translate(-42.44 -58.89)"/><path d="m57 101 .06.19c-.9 0-1.82 0-2.72 0a3.66 3.66 0 0 1 -1.09-.42z" fill="#dfb27a" transform="translate(-42.44 -58.89)"/><path d="m58.33 99c.18.19.37.31.35.4a.55.55 0 0 1 -.29.36c-.06 0-.29-.15-.31-.26s.12-.25.25-.5z" fill="#f3ebe0" transform="translate(-42.44 -58.89)"/><path d="m64.36 92.52h.81l-.46.47z" fill="#eadccc" transform="translate(-42.44 -58.89)"/><path d="m79.39 73.32c-.29 1.35-.39 1.39-1.63.63z" fill="#f0e5d9" transform="translate(-42.44 -58.89)"/><path d="m66.19 75.74c.06.12.18.27.15.31a.63.63 0 0 1 -.34.23s-.12-.16-.19-.25z" fill="#f3ebe0" transform="translate(-42.44 -58.89)"/><path d="m88.45 86.4c-1-.92-1-1.75 0-2.12.7.72.04 1.41 0 2.12z" fill="#f0e5d9" transform="translate(-42.44 -58.89)"/><path d="m73.1 196.53c-.74-1.08-1.47-1-2.24 0a3.56 3.56 0 0 1 -.67.53l-4-.3c.4-1.09.81-2.19 1.3-3.54l2.2 1.69.37-1.59c2 .26 4.16-.1 5.38 1.78l-1.06 1.44z" fill="#fcf8f2" transform="translate(-42.44 -58.89)"/><path d="m66.24 196.74 4 .3c-1.23.17-2.47.36-3.7.52a16.17 16.17 0 0 1 -1.84.2c-.18 0-.37-.24-.56-.37 0-.26 0-.53-.08-.79z" fill="#dad5cf" transform="translate(-42.44 -58.89)"/><path d="m73.1 196.53h1.33l.28.11v.61l-3.25.18-.06-.41z" fill="#b9b5b1" transform="translate(-42.44 -58.89)"/><path d="m74.71 196.63-.28-.11 1.06-1.44c-1.22-1.88-3.36-1.52-5.38-1.78l-.37 1.59-2.2-1.69c-.49 1.35-.9 2.45-1.3 3.54l-2.24-.14h-.49v-1.13l-2-1 1-1.44.35.7.35-.35-.7-.35.26-.52h1.33c.24.26.53.77.71.73s.6-.45.89-.71l4-.32h.54 2.13 2.37c.52.54 1 1 1.59 0h2.11v.52l-.85.42a2.3 2.3 0 0 1 .32 2.62.57.57 0 0 0 0 .13zm-11.51-2.32-.22-.09c0 .07-.1.16-.08.21s.13.07.2.1.07-.14.1-.22z" fill="#eae6e2" transform="translate(-42.44 -58.89)"/><path d="m62.78 192.54-.26.52-1 1.44 2 1v1.13c-2-.36-4.05-.69-6.06-1.08a8.6 8.6 0 0 1 -1.55-.64l-.7-.53.66-1.6 1.82-.57 2.71.08z" fill="#dad5cf" transform="translate(-42.44 -58.89)"/><path d="m55.21 194.36.7.53c-.43 1-.89.19-1.34 0z" fill="#87888b" transform="translate(-42.44 -58.89)"/><path d="m77.87 196a.57.57 0 0 1 0-.13 2.3 2.3 0 0 0 -.32-2.62l.85-.42 2.41-.26v.29l-1 .49v.28l1.49.13.42 1.11-1.78.73z" fill="#dad5cf" transform="translate(-42.44 -58.89)"/><path d="m81.8 194.84-.42-1.11-1.49-.13v-.28l1-.49v-.29l-2.41.26v-.52c1-.82 2-.38 3-.05l2.6.86v.51l-.1.2z" fill="#b9b5b1" transform="translate(-42.44 -58.89)"/><path d="m59 104.66.79.26v-3.75l1.54-.17 1.18.11h1a11.38 11.38 0 0 0 1.3.1l9.32-.23a6.86 6.86 0 0 0 1.25.23c2.69 0 5.39 0 8.08-.1.44 0 .87-.41 1.3-.63h1.54l1.34.41c.08.64.17 1.29.25 2h-.25c-.71 0-1.56-.23-1.4.93a11 11 0 0 0 -1.27.07c-.4.09-.79.26-1.18.39l.47-1.35a2.62 2.62 0 0 0 -4.52 1.23c-.25.82.25 1.12 2 .85a6.18 6.18 0 0 1 -.84 1.55 1.63 1.63 0 0 1 -1.22.24c-.8-.15-1.58-.44-2.41-.68-.24 1.48-.47 2.87-.72 4.26 0 .29-.12.68-.32.81-1.14.75-.77 1.27.08 2 .52.45.71 1.28 1.1 1.91s.72.92 1.08 1.38l.34-.23a2.14 2.14 0 0 0 -.08-.44c-.19-.46-.4-.91-.59-1.36a16.45 16.45 0 0 1 2.33.41 1.38 1.38 0 0 1 0 1.15 2.88 2.88 0 0 0 -.31 2.61c.19.77.18 1.55-.91 1.88-.28.09-.57.93-.48 1.35.25 1.29-.36 1.93-1.4 2.49a2.18 2.18 0 0 0 -.84 1.19 3.48 3.48 0 0 0 0 1.44 3.53 3.53 0 0 1 -1.32 3.36c-.47.42-.54 1.28-.81 1.94a4.17 4.17 0 0 1 -.61 1.21c-.08.08-.63-.26-1-.39a3.38 3.38 0 0 0 -1-.3c-1.94 0-3.88 0-5.82 0-.37 0-1 .27-1.07.48-.19 1.56-1.29 1.39-2.35 1.35h-.57v-.79l1.28-2.08-1.81-.57h-.27v-2.91l-.26-.8v-.52c.68-1 1.51-1.94 1.22-3.33l-1.22.15.18-2.5-1-.15c0-1.84-.06-3.69 0-5.53 0-.9-.47-1.11-1.09-1.35 1.5-.82.83-2.39 1.14-3.6.17-.63-.49-1.45-.58-2.2a8.45 8.45 0 0 1 .26-2l-1.14-.4c.14-.5.23-.94.29-1.38zm19.47 13.88c-.63-.32-1-.63-1.23-.58s-.48.47-.71.73c.24.17.49.5.72.49s.64-.3 1.26-.64z" fill="#b16719" transform="translate(-42.44 -58.89)"/><path d="m86.33 100.45h-1.54c-3.36.07-6.71.14-10.07.23-.19 0-.37.18-.56.27l-9.32.23a11.38 11.38 0 0 1 -1.3-.1c0-.22 0-.44 0-.67l3.46-.21c1.85-.06 3.72 0 5.55-.19s3.9-.82 5.87-1.08c.71-.1 1.48.37 2.24.43 2 .14 3.94.16 5.9.3a4.88 4.88 0 0 1 1.35.52z" fill="#dfb27a" transform="translate(-42.44 -58.89)"/><path d="m87.67 102.82h.25c1.11 1.25 1 1.83-.5 2.92.08-.98.16-1.95.25-2.92z" fill="#ce8740" transform="translate(-42.44 -58.89)"/><path d="m87.92 108.9-1 1.06c.09-.71.17-1.42.26-2.13h.78z" fill="#c9832c" transform="translate(-42.44 -58.89)"/><path d="m88.19 100.21 2.43-.49z" fill="#dfb27a" transform="translate(-42.44 -58.89)"/><path d="m87.92 107.84h-.78c0-.26 0-.53 0-.79.27.26.53.52.78.79z" fill="#ce8740" transform="translate(-42.44 -58.89)"/><path d="m67 100.2-3.42.24-1.07-.28a5 5 0 0 1 1.56-.49c1.19 0 1.79-.43 1.9-1.63.08-.9 1.47-1.78 2.84-1.94.56-1.55.75-3.12 2.71-3.83 2.11-.77 4-2.11 6.06-3a3.34 3.34 0 0 1 2.33 0 3.41 3.41 0 0 0 3.58-.35 3.41 3.41 0 0 1 4.23.33 1.28 1.28 0 0 1 .19.73c.2 1.78.38 3.56.56 5.34a4.21 4.21 0 0 1 .07 1.27c-.26 1.1.07 1.62 1.24 1.52l.79.79a19 19 0 0 1 -2.36.47c-.15 0-.52-.62-.52-1a28.84 28.84 0 0 0 .18-3.57c-.23-2-2.43-3.64-4.45-3.7a19.94 19.94 0 0 1 -3.22-.67 4.36 4.36 0 0 1 -.2.57c-.1.3-.23.6-.34.9a5 5 0 0 1 -.75-.77 5.26 5.26 0 0 1 -.33-1.28 35.29 35.29 0 0 0 -3 2.4c-.47.45.26 1.91.94 2.1.23.07.45.12.68.17v.33a3.84 3.84 0 0 0 -1.2-.09 6.62 6.62 0 0 0 -2 .79c-.6.4-1 1-1.68 1.41-.43 2-2 2.18-3.67 2.44a6.29 6.29 0 0 0 -1.65.8z" fill="#ead3b6" transform="translate(-42.44 -58.89)"/><path d="m81.34 192.23c-1-.33-2-.77-3 .05h-2.11-1.59-2.32l-.08-1.14c-.95 1.63-1.18-.32-1.89-.06l-.16 1.18h-.54a4.45 4.45 0 0 0 -4.42-1.05c-.57.13-1.42.54-1.69-.54 3 0 6 .11 9-.05 2.64-.13 5.26-.57 7.89-.86a5.73 5.73 0 0 1 1.17-.05c.9.09 1.32-.27 1.23-1.19l1.29-.47.29.57c.11.69.21 1.38.32 2.07 0 .21-.07.41-.11.62-1.15 0-2.39-.17-3.28.92zm-7.34-.09.19-.3c-.19-.1-.38-.2-.57-.28 0 0-.14.17-.13.17s.35.27.51.41z" fill="#786d5f" transform="translate(-42.44 -58.89)"/><path d="m81.34 192.23c.89-1.09 2.13-.92 3.32-.94.22.6.43 1.21.64 1.82h-1.36z" fill="#27282a" transform="translate(-42.44 -58.89)"/><path d="m83.94 193.09h1.36a.22.22 0 0 1 0 .16l-1.3.35z" fill="#786d5f" transform="translate(-42.44 -58.89)"/><path d="m60.4 192.27-2.71-.08c-.08-1.26-1-.51-1.57-.66l-1-.11c0-.58 0-1.16 0-1.75.09-.19.18-.39.28-.58h.49a4.1 4.1 0 0 0 1.3.6 8.68 8.68 0 0 0 1.86-.3l1.86 1.3c-.68.31-1.03.82-.51 1.58z" fill="#b9b5b1" transform="translate(-42.44 -58.89)"/><path d="m56.12 191.53c.56.15 1.49-.6 1.57.66l-1.82.57c.13-.41.13-.82.25-1.23z" fill="#87888b" transform="translate(-42.44 -58.89)"/><path d="m62.25 140.39c-.18-1.14-.35-2.29-.53-3.44a3 3 0 0 1 .53 3.44z" fill="#bc741b" transform="translate(-42.44 -58.89)"/><path d="m62 133.78v1.06l-.52-1.06z" fill="#bc741b" transform="translate(-42.44 -58.89)"/><path d="m60.68 179.31-.89-2.1.84-.38c.19-.78.35-1.33.45-1.89.05-.33.15-.79 0-1-.67-.84-.45-1.25.2-1.59.23-.69.47-1.37.7-2.06l1.6-.52v.8c-1.55.62-1.59.77-.8 2.65v.52 2.38l-1.07.79c.44 1.17.54 2.17-1.03 2.4z" fill="#dea351" transform="translate(-42.44 -58.89)"/><path d="m62.8 173.23c-.79-1.88-.75-2 .8-2.65-.1 1-.17 2 .77 2.63v.26z" fill="#d79c2f" transform="translate(-42.44 -58.89)"/><path d="m63.56 169.78-1.6.52c0-.27 0-.53 0-.8l1.57-.27c.02.18.03.37.03.55z" fill="#d79c2f" transform="translate(-42.44 -58.89)"/><path d="m63.58 189.6c-.95 0-2.17.35-2-1.36 0-.13-.27-.29-.43-.43-.7-.66-1.41-1.31-2.16-2a3.66 3.66 0 0 0 .69-4.31c-.75-1.35 0-1.38 1-1.41l1.55 1.59v.32a2.26 2.26 0 0 0 0 .26v.54l-1.23.36 1 2.54v1.31c.15.23.27.59.48.66a14.29 14.29 0 0 0 2 .45c.56.11 1.13.18 2 .32-.18.19-.4.6-.68.66-.45.1-1-.14-1.42-.07-.32-.03-.55.35-.8.57z" fill="#dea351" transform="translate(-42.44 -58.89)"/><path d="m62.8 173.23 1.56.24a25 25 0 0 1 .45 4c0 .54-.8 1.05-1.24 1.57l-.57-1.33-.27-1.58v-.54c.28-.61 1-1.23 0-1.84z" fill="#c27c1d" transform="translate(-42.44 -58.89)"/><path d="m62.24 182.21a2.26 2.26 0 0 1 0-.26l.26-.26v-1.86l1-.53.17 2.83z" fill="#bb7f21" transform="translate(-42.44 -58.89)"/><path d="m66.44 173.4-.23 1.32a3.61 3.61 0 0 1 -.75-.24 7.72 7.72 0 0 1 .3-1.24z" fill="#c9832c" transform="translate(-42.44 -58.89)"/><path d="m63.57 179.3-1 .53.52-2.12.53 1.33z" fill="#c9821f" transform="translate(-42.44 -58.89)"/><path d="m60.14 121.07 1 .15-.18 2.5v3.7c.09.27.18.53.26.8v2.12h-.78a10.41 10.41 0 0 1 -1.37-.29 11.52 11.52 0 0 1 -1.27-.63l.12-.3 2.29.17c.38-1.08.5-1.92-1-2a12.44 12.44 0 0 1 .93-6.22z" fill="#c27c1d" transform="translate(-42.44 -58.89)"/><path d="m60.41 130.34h.78v.79l-.79-.26z" fill="#b76c1a" transform="translate(-42.44 -58.89)"/><path d="m57 131.9c-.12.06-.27.18-.31.15a.57.57 0 0 1 -.22-.34s.15-.13.24-.19z" fill="#c27c1d" transform="translate(-42.44 -58.89)"/><path d="m59 128.15-.09.22c-.07 0-.19-.05-.21-.1s.05-.14.08-.22z" fill="#c27c1d" transform="translate(-42.44 -58.89)"/><path d="m62 133.78h-.53v-2.65l1.81.57z" fill="#b76c1a" transform="translate(-42.44 -58.89)"/><path d="m60.4 192.27c-.52-.76-.17-1.24.53-1.6h2.61c.27 1.08 1.12.67 1.69.54a4.45 4.45 0 0 1 4.42 1.05l-4 .32h-1.6-1.27z" fill="#87888b" transform="translate(-42.44 -58.89)"/><path d="m63 177.71c-.17.71-.35 1.42-.52 2.12v1.86h-.27l-1.55-1.59c0-.26 0-.52 0-.78 1.57-.23 1.47-1.23 1-2.39l1.07-.79z" fill="#ce8740" transform="translate(-42.44 -58.89)"/><path d="m59.07 189.37a8.68 8.68 0 0 1 -1.86.3 4.1 4.1 0 0 1 -1.3-.6l.91-1.35z" fill="#e3c9ac" transform="translate(-42.44 -58.89)"/><path d="m59 104.66c-.1.44-.19.88-.28 1.33-1 1.08-1.11 2.2-.29 4-1.79 1.08-2.59 1.42-1.38 3-.67.16-1.32.36-2 .47-.88.13-1.31-1-.81-2.16l-1-.41a4.25 4.25 0 0 0 .35-1.27c0-.32-.33-.64-.57-1.08l1.69-.14c-1.87-.29-2.05-1.64-2-3.22l1.26-.36a3.09 3.09 0 0 1 -2.14-3l5.3.26h.89l-1.26 2.07z" fill="#dea351" transform="translate(-42.44 -58.89)"/><path d="m56.77 120.12s0 .09 0 .09h-.11s0-.1 0-.1a.28.28 0 0 1 .11.01z" fill="#c9832c" transform="translate(-42.44 -58.89)"/><path d="m62.51 100.16 1.07.28v.67h-1v-.7a2.17 2.17 0 0 1 -.07-.25z" fill="#e3c9ac" transform="translate(-42.44 -58.89)"/><path d="m62.52 100.42v.7l-1.15-.12z" fill="#dfb27a" transform="translate(-42.44 -58.89)"/><path d="m59.68 101.07h-.6z" fill="#dfb27a" transform="translate(-42.44 -58.89)"/><path d="m70.19 192.21.16-1.18c.71-.26.94 1.69 1.89.06l.08 1.14z" fill="#87888b" transform="translate(-42.44 -58.89)"/><path d="m64.1 192.54h1.6c-.29.26-.56.64-.89.71s-.47-.45-.71-.71z" fill="#dad5cf" transform="translate(-42.44 -58.89)"/><path d="m74.69 192.22h1.59c-.54.96-1.07.54-1.59 0z" fill="#b9b5b1" transform="translate(-42.44 -58.89)"/><path d="m62.52 193.06.7.35-.35.35z" fill="#dad5cf" transform="translate(-42.44 -58.89)"/><path d="m63.2 194.31c0 .08-.07.15-.1.22s-.18 0-.2-.1.05-.14.08-.21z" fill="#dad5cf" transform="translate(-42.44 -58.89)"/><path d="m74.16 101c.19-.09.37-.26.56-.27 3.36-.09 6.71-.16 10.07-.23-.43.22-.86.61-1.3.63-2.69.08-5.39.09-8.08.1a6.86 6.86 0 0 1 -1.25-.23z" fill="#c9934e" transform="translate(-42.44 -58.89)"/><path d="m60.93 126.9v-3.18l1.22-.15c.29 1.43-.54 2.33-1.22 3.33z" fill="#b76c1a" transform="translate(-42.44 -58.89)"/><path d="m78.51 118.54c-.62.34-.92.62-1.22.64s-.48-.32-.72-.49c.23-.26.43-.67.71-.73s.6.26 1.23.58z" fill="#b76c1a" transform="translate(-42.44 -58.89)"/><path d="m61.19 128.22c-.08-.27-.17-.53-.26-.8.07.27.18.58.26.8z" fill="#b76c1a" transform="translate(-42.44 -58.89)"/><path d="m74 192.14c-.17-.14-.35-.27-.51-.41s.11-.18.13-.17c.19.08.38.18.57.28z" fill="#b9b5b1" transform="translate(-42.44 -58.89)"/><path d="m62.77 173.75c1 .61.28 1.23 0 1.84z" fill="#ce8740" transform="translate(-42.44 -58.89)"/><path d="m62.24 181.68h.27l-.26.26z" fill="#b9771c" transform="translate(-42.44 -58.89)"/></g></svg>